<?xml version="1.0" encoding="UTF-8"?>
<svg xmlns="http://www.w3.org/2000/svg" xmlns:xlink="http://www.w3.org/1999/xlink" version="1.2" >
<font id="Times Bold">
<font-face  font-family="Times" units-per-em="2048" ascent="1536" descent="-512" font-style="normal" font-weight="700" font-stretch="normal" cap-height="1536" x-height="1024" underline-position="-136" underline-thickness="139" />
<missing-glyph  horiz-adv-x="1593" d="M37 0 L37 1384 L1550 1384 L1550 0 L37 0 Z M1351 199 L1351 1185 L236 1185 L236 199 L1351 199 Z " />
<glyph glyph-name="&amp;#x0;" d="" />
<glyph glyph-name="&amp;#x8;" unicode="&#x8;" d="" />
<glyph glyph-name="&amp;#x1d;" unicode="&#x1d;" d="" />
<glyph glyph-name="&amp;#x9;" unicode="&#x9;" horiz-adv-x="512" d="" />
<glyph glyph-name="&amp;#xa;" unicode="&#xa;" horiz-adv-x="512" d="" />
<glyph glyph-name="&amp;#xd;" unicode="&#xd;" horiz-adv-x="512" d="" />
<glyph glyph-name="space" unicode="&#x20;" horiz-adv-x="512" d="" />
<glyph glyph-name="exclam" unicode="&#x21;" horiz-adv-x="682" d="M163 144 Q163 216 213.5 266.5 Q264 317 336 317 Q408 317 458.5 266.5 Q509 216 509 144 Q509 72 458.5 21.5 Q408 -29 336 -29 Q264 -29 213.5 21.5 Q163 72 163 144 Z M163 1206 Q163 1320 214.5 1367.5 Q266 1415 336 1415 Q404 1415 456.5 1368 Q509 1321 509 1213 Q509 1179 492.5 1110.5 Q476 1042 433 886 Q407 792 397.5 729.5 Q388 667 367 478 L308 478 Q279 716 269 772 Q259 828 229 929 Q191 1058 180 1101 Q163 1168 163 1206 Z " />
<glyph glyph-name="quotedbl" unicode="&#x22;" horiz-adv-x="1137" d="M381 1415 Q443 1415 465.5 1376 Q488 1337 488 1286 Q488 1271 485.5 1244 Q483 1217 481 1208 L412 770 L348 770 L279 1208 Q276 1227 274 1246.5 Q272 1266 272 1286 Q272 1334 289 1366 Q316 1415 381 1415 Z M867 1290 Q867 1260 856 1179 L839 1062 Q846 1104 817 922 Q807 862 807 867 L791 770 L727 770 L658 1208 Q650 1269 650 1285 Q650 1329 663 1359 Q689 1415 757 1415 Q803 1415 835 1385.5 Q867 1356 867 1290 Z " />
<glyph glyph-name="numbersign" unicode="&#x23;" horiz-adv-x="1024" d="M557 519 L644 862 L462 862 L372 519 L557 519 Z M11 519 L206 519 L296 862 L104 862 L123 969 L320 969 L436 1381 L599 1381 L485 969 L670 969 L786 1381 L948 1381 L832 969 L1026 969 L1007 862 L810 862 L720 519 L914 519 L896 412 L689 412 L583 0 L419 0 L528 412 L343 412 L229 0 L68 0 L180 412 L-8 412 L11 519 Z " />
<glyph glyph-name="dollar" unicode="&#x24;" horiz-adv-x="1024" d="M549 61 Q647 73 694 132.5 Q741 192 741 287 Q741 366 689 416.5 Q637 467 549 512 L549 61 Z M436 1317 Q356 1307 304.5 1258.5 Q253 1210 253 1131 Q253 1048 326 988 Q371 951 436 929 L436 1317 Z M137 402 Q180 258 258 163.5 Q336 69 436 61 L436 576 Q273 657 196 727 Q59 849 59 1007 Q59 1165 167 1265 Q275 1365 438 1377 L438 1536 L549 1536 L549 1379 Q664 1364 736.5 1339 Q809 1314 877 1272 L877 986 L834 986 Q794 1112 751 1175 Q674 1289 549 1313 L549 872 Q750 772 830 700 Q970 575 970 402 Q970 245 868.5 135.5 Q767 26 549 0 L549 -204 L438 -204 L438 0 Q355 4 303 15 Q218 33 94 87 L94 407 L137 402 Z " />
<glyph glyph-name="percent" unicode="&#x25;" horiz-adv-x="2048" d="M1437 104 Q1549 104 1638.5 263.5 Q1728 423 1728 542 Q1728 608 1700 652 Q1672 696 1618 696 Q1513 696 1423.5 503.5 Q1334 311 1334 222 Q1334 161 1363.5 132.5 Q1393 104 1437 104 Z M1559 801 Q1665 801 1730.5 737 Q1796 673 1796 549 Q1796 381 1679 195 Q1562 9 1365 9 Q1254 9 1174 90 Q1094 171 1094 298 Q1094 480 1238.5 640.5 Q1383 801 1559 801 Z M587 696 Q701 696 791.5 857 Q882 1018 882 1165 Q882 1210 877 1221 Q872 1232 848 1242 Q824 1253 796.5 1272 Q769 1291 760 1291 Q675 1291 581.5 1100.5 Q488 910 488 810 Q488 758 512.5 727 Q537 696 587 696 Z M708 1389 Q785 1389 870.5 1332 Q956 1275 1062 1275 Q1171 1275 1261 1317 Q1351 1359 1412 1417 L1490 1417 L685 -19 L571 -19 L1280 1249 Q1235 1229 1167 1213.5 Q1099 1198 1041 1198 Q1025 1198 1013.5 1199 Q1002 1200 952 1208 Q955 1144 955 1156 Q955 990 851 815 Q724 603 534 603 Q416 603 333.5 684 Q251 765 251 901 Q251 1079 397.5 1234 Q544 1389 708 1389 Z " />
<glyph glyph-name="ampersand" unicode="&#x26;" horiz-adv-x="1706" d="M791 929 Q853 950 883 976 Q936 1021 936 1097 Q936 1177 886 1264 Q836 1351 747 1351 Q713 1351 685 1333 Q640 1303 640 1232 Q640 1173 673.5 1108 Q707 1043 791 929 Z M715 128 Q765 128 815 152 Q845 167 905 208 Q805 346 772 393.5 Q739 441 640 590 L542 737 Q461 688 434 657 Q391 608 391 533 Q391 408 492.5 268 Q594 128 715 128 Z M507 798 Q448 899 424 963 Q400 1027 400 1095 Q400 1235 503 1327 Q606 1419 805 1419 Q970 1419 1056 1345 Q1142 1271 1142 1170 Q1142 1067 1058.5 993.5 Q975 920 832 869 L1140 431 Q1226 541 1253 587 Q1296 660 1296 722 Q1296 773 1272 787 Q1248 801 1161 813 L1161 862 L1583 862 L1583 813 Q1499 802 1470.5 776.5 Q1442 751 1361 610 Q1348 586 1294 511 Q1267 473 1187 365 Q1264 263 1317 220 Q1370 177 1429 177 Q1478 177 1512 206 Q1530 222 1550 256 L1590 232 Q1546 136 1493 78 Q1394 -30 1261 -30 Q1165 -30 1078 32 Q1027 68 952 151 Q837 68 760 33 Q628 -29 490 -29 Q343 -29 224.5 67 Q106 163 106 322 Q106 507 253 641 Q335 715 507 798 Z " />
<glyph glyph-name="quotesingle" unicode="&#x27;" horiz-adv-x="569" d="M179 1300 Q179 1353 207 1384 Q235 1415 289 1415 Q340 1415 367 1385 Q394 1355 394 1300 Q394 1271 388 1223.5 Q382 1176 364 1062 Q351 976 333 867 L317 770 L253 770 L187 1207 Q179 1262 179 1300 Z " />
<glyph glyph-name="parenleft" unicode="&#x28;" horiz-adv-x="682" d="M94 519 Q94 794 212 1016 Q348 1271 625 1422 L625 1365 Q460 1248 408 1135 Q327 957 327 538 Q327 118 409 -61 Q461 -175 625 -290 L625 -347 Q416 -240 281 -52 Q110 187 94 519 Z " />
<glyph glyph-name="parenright" unicode="&#x29;" horiz-adv-x="682" d="M578 519 Q568 304 499 142 Q430 -20 299 -162 Q235 -231 146 -289 Q57 -347 47 -347 L47 -290 Q212 -174 265 -57 Q346 121 346 538 Q346 956 264 1135 Q212 1248 47 1365 L47 1422 Q317 1275 453 1029 Q578 803 578 519 Z " />
<glyph glyph-name="asterisk" unicode="&#x2a;" horiz-adv-x="1024" d="M462 986 Q409 1011 219 1042 Q111 1060 111 1147 Q111 1182 139.5 1213 Q168 1244 210 1244 Q282 1244 327 1173 Q407 1045 483 1019 L497 1026 Q497 1122 453.5 1195.5 Q410 1269 410 1316 Q410 1371 441.5 1395.5 Q473 1420 514 1420 Q552 1420 582.5 1392 Q613 1364 613 1308 Q613 1273 573 1198 Q533 1123 533 1024 L552 1014 Q632 1071 690.5 1160.5 Q749 1250 814 1250 Q858 1250 886 1221 Q914 1192 914 1149 Q914 1058 763 1037 Q612 1016 568 978 L568 962 Q618 932 797 909 Q914 894 914 802 Q914 761 886 732 Q858 703 815 703 Q745 703 681 805 Q617 907 542 929 L530 922 Q537 825 577.5 747.5 Q618 670 618 633 Q618 597 605 573 Q579 527 511 527 Q466 527 440 560.5 Q414 594 414 634 Q414 675 455.5 754.5 Q497 834 497 884 Q497 895 496 903.5 Q495 912 493 924 L478 933 Q393 876 334.5 787.5 Q276 699 219 699 Q172 699 144 729 Q116 759 116 795 Q116 852 157 881.5 Q198 911 261 913 Q347 916 382 925 Q417 934 462 969 L462 986 Z " />
<glyph glyph-name="plus" unicode="&#x2b;" horiz-adv-x="1167" d="M49 429 L49 640 L478 640 L478 1066 L687 1066 L687 640 L1116 640 L1116 429 L687 429 L687 0 L478 0 L478 429 L49 429 Z " />
<glyph glyph-name="comma" unicode="&#x2c;" horiz-adv-x="512" d="M177 -325 Q270 -261 317 -213 Q400 -130 400 -56 Q400 -35 390 -22 Q379 -10 359 -10 Q349 -10 334 -12.5 Q319 -15 313 -15 Q252 -15 207.5 28 Q163 71 163 144 Q163 221 209.5 269 Q256 317 331 317 Q423 317 481.5 252.5 Q540 188 540 80 Q540 -85 408 -220 Q336 -292 201 -370 L177 -325 Z " />
<glyph glyph-name="hyphen" unicode="&#x2d;" horiz-adv-x="682" d="M90 587 L587 587 L587 350 L90 350 L90 587 Z " />
<glyph glyph-name="period" unicode="&#x2e;" horiz-adv-x="512" d="M163 144 Q163 216 213.5 266.5 Q264 317 336 317 Q408 317 458.5 266.5 Q509 216 509 144 Q509 72 458.5 21.5 Q408 -29 336 -29 Q264 -29 213.5 21.5 Q163 72 163 144 Z " />
<glyph glyph-name="slash" unicode="&#x2f;" horiz-adv-x="569" d="M450 1417 L597 1417 L118 -34 L-29 -34 L450 1417 Z " />
<glyph glyph-name="zero" unicode="0" horiz-adv-x="1024" d="M369 455 Q371 205 406 117.5 Q441 30 512 30 Q601 30 632 192 Q649 281 649 455 L649 924 Q649 1173 613.5 1260.5 Q578 1348 510 1348 Q441 1348 405 1259.5 Q369 1171 369 924 L369 455 Z M47 680 Q47 1047 211 1248 Q341 1408 509 1408 Q703 1408 836 1211 Q971 1009 971 703 Q971 342 818 141 Q689 -28 510 -28 Q384 -28 295 46 Q206 120 143 237 Q89 336 67 464 Q54 539 47 680 Z " />
<glyph glyph-name="one" unicode="1" horiz-adv-x="1024" d="M137 49 Q293 49 337 91.5 Q381 134 381 253 L381 1042 Q381 1118 363.5 1150 Q346 1182 299 1182 Q274 1182 222 1165 Q189 1155 132 1133 L132 1185 L649 1408 L685 1408 L685 241 Q685 129 721 89 Q757 49 905 49 L905 0 L137 0 L137 49 Z " />
<glyph glyph-name="two" unicode="2" horiz-adv-x="1024" d="M35 47 Q362 401 461 540 Q613 750 613 912 Q613 1008 554.5 1091.5 Q496 1175 373 1175 Q265 1175 191 1100 Q151 1059 120 990 L64 990 Q132 1203 252 1305.5 Q372 1408 522 1408 Q664 1408 780 1309.5 Q896 1211 896 1020 Q896 920 841.5 815 Q787 710 658 587 L346 289 L346 272 L637 272 Q789 272 835.5 297 Q882 322 929 431 L978 431 L886 0 L35 0 L35 47 Z " />
<glyph glyph-name="three" unicode="3" horiz-adv-x="1024" d="M166 274 Q259 274 357.5 173.5 Q456 73 520 73 Q630 73 677.5 147.5 Q725 222 725 317 Q725 492 578 603 Q494 665 312 730 L312 763 Q436 806 489 846 Q580 915 580 1033 Q580 1135 518.5 1188.5 Q457 1242 362 1242 Q274 1242 203 1178 Q163 1142 118 1071 L75 1095 Q123 1197 212 1277 Q354 1405 544 1405 Q675 1405 772 1331 Q869 1257 879 1138 Q879 1053 841.5 986.5 Q804 920 720 877 L720 862 Q843 813 900 714.5 Q957 616 957 507 Q957 287 787 132 Q610 -31 339 -31 Q207 -31 119 19 Q31 69 31 151 Q31 195 62.5 234.5 Q94 274 166 274 Z " />
<glyph glyph-name="four" unicode="4" horiz-adv-x="1024" d="M549 521 L549 1104 L535 1104 L135 540 L135 521 L549 521 Z M37 526 Q45 543 54 556.5 Q63 570 109 635 L322 938 L597 1301 L680 1408 L843 1408 L843 521 L971 521 L971 293 L843 293 L843 0 L547 0 L547 293 L37 293 L37 526 Z " />
<glyph glyph-name="five" unicode="5" horiz-adv-x="1024" d="M45 163 Q45 215 79 251 Q113 287 171 287 Q245 287 370 197.5 Q495 108 564 108 Q645 108 704 165 Q763 222 763 319 Q763 418 696 487 Q629 556 545 594 Q455 635 341 654 Q267 666 104 677 L303 1384 L962 1384 L874 1123 L305 1123 L260 957 Q498 950 646 888 Q924 772 924 476 Q924 260 758 120.5 Q592 -19 341 -19 Q214 -19 129.5 31 Q45 81 45 163 Z " />
<glyph glyph-name="six" unicode="6" horiz-adv-x="1024" d="M484 770 Q426 770 410 752 Q394 734 388 692 Q385 667 382 620.5 Q379 574 379 520 Q379 414 383 335.5 Q387 257 398 199 Q411 127 440.5 77.5 Q470 28 532 28 Q619 28 645 115 Q661 169 661 334 Q661 583 619 676.5 Q577 770 484 770 Z M962 1355 Q745 1317 608.5 1183 Q472 1049 419 839 L429 832 Q465 844 491 850 Q542 862 596 862 Q747 862 859 761 Q971 660 971 451 Q971 217 836 94 Q701 -29 526 -29 Q331 -29 193.5 125.5 Q56 280 56 552 Q56 925 332 1162 Q583 1377 962 1408 L962 1355 Z " />
<glyph glyph-name="seven" unicode="7" horiz-adv-x="1024" d="M125 1384 L976 1384 L495 0 L301 0 L701 1088 Q700 1100 696 1104 L305 1104 Q209 1104 164.5 1073 Q120 1042 85 929 L35 929 L125 1384 Z " />
<glyph glyph-name="eight" unicode="8" horiz-adv-x="1024" d="M604 865 Q649 926 663 960 Q687 1015 687 1094 Q687 1205 646 1276.5 Q605 1348 504 1348 Q431 1348 385 1300 Q339 1252 339 1180 Q339 1066 454 964 Q521 904 604 865 Z M298 322 Q298 236 325 167 Q374 38 499 38 Q570 38 622.5 91 Q675 144 675 269 Q675 390 596 477 Q547 531 402 625 Q344 536 326 489 Q298 418 298 322 Z M52 317 Q52 474 164 565 Q225 616 341 654 L341 673 Q317 679 246 737.5 Q175 796 141 844 Q100 901 86.5 949.5 Q73 998 73 1051 Q73 1200 201 1304 Q329 1408 536 1408 Q728 1408 830.5 1321.5 Q933 1235 933 1117 Q933 996 828 915 Q770 870 668 834 L668 820 Q814 715 868 649 Q960 537 960 388 Q960 191 824 81 Q688 -29 477 -29 Q320 -29 186 58.5 Q52 146 52 317 Z " />
<glyph glyph-name="nine" unicode="9" horiz-adv-x="1024" d="M537 609 Q560 609 589.5 618 Q619 627 625 635 Q630 641 637 707 Q644 773 644 863 Q644 963 640 1042.5 Q636 1122 625 1180 Q612 1249 591 1287 Q555 1351 490 1351 Q418 1351 386 1280.5 Q354 1210 354 1073 Q354 842 396 725.5 Q438 609 537 609 Z M61 23 Q226 56 337 130 Q536 265 604 540 L594 547 Q552 533 527 527 Q478 516 424 516 Q263 516 156 627 Q49 738 49 929 Q49 1150 181 1279 Q313 1408 493 1408 Q700 1408 833.5 1248.5 Q967 1089 967 827 Q967 433 663 194 Q408 -7 61 -29 L61 23 Z " />
<glyph glyph-name="colon" unicode="&#x3a;" horiz-adv-x="682" d="M163 794 Q163 866 214 916.5 Q265 967 336 967 Q408 967 458.5 916 Q509 865 509 794 Q509 722 458.5 671.5 Q408 621 336 621 Q264 621 213.5 671.5 Q163 722 163 794 Z M163 144 Q163 216 213.5 266.5 Q264 317 336 317 Q408 317 458.5 266.5 Q509 216 509 144 Q509 72 458.5 21.5 Q408 -29 336 -29 Q264 -29 213.5 21.5 Q163 72 163 144 Z " />
<glyph glyph-name="semicolon" unicode="&#x3b;" horiz-adv-x="682" d="M163 794 Q163 866 214 916.5 Q265 967 336 967 Q408 967 458.5 916 Q509 865 509 794 Q509 722 458.5 671.5 Q408 621 336 621 Q264 621 213.5 671.5 Q163 722 163 794 Z M177 -325 Q270 -261 317 -213 Q400 -130 400 -56 Q400 -35 390 -22 Q379 -10 359 -10 Q349 -10 334 -12.5 Q319 -15 313 -15 Q252 -15 207.5 28 Q163 71 163 144 Q163 221 209.5 269 Q256 317 331 317 Q423 317 481.5 252.5 Q540 188 540 80 Q540 -85 409 -218 Q334 -295 201 -370 L177 -325 Z " />
<glyph glyph-name="less" unicode="&#x3c;" horiz-adv-x="1167" d="M1161 1095 L1161 869 L412 533 L1161 199 L1161 -29 L4 495 L4 573 L1161 1095 Z " />
<glyph glyph-name="equal" unicode="&#x3d;" horiz-adv-x="1167" d="M1116 419 L1116 210 L49 210 L49 419 L1116 419 Z M1116 858 L1116 647 L49 647 L49 858 L1116 858 Z " />
<glyph glyph-name="greater" unicode="&#x3e;" horiz-adv-x="1167" d="M1161 495 L4 -29 L4 199 L753 533 L4 869 L4 1095 L1161 573 L1161 495 Z " />
<glyph glyph-name="question" unicode="&#x3f;" horiz-adv-x="1024" d="M308 144 Q308 216 358.5 266.5 Q409 317 481 317 Q552 317 603 266.5 Q654 216 654 144 Q654 72 603 21.5 Q552 -29 481 -29 Q409 -29 358.5 21.5 Q308 72 308 144 Z M109 1118 Q109 1226 204 1318 Q299 1410 492 1410 Q685 1410 793.5 1315.5 Q902 1221 902 1074 Q902 1005 880 951 Q840 852 729 778 Q685 750 669 739.5 Q653 729 604.5 699 Q556 669 535.5 631 Q515 593 509 474 L448 474 L446 561 Q446 649 521.5 786 Q597 923 597 1076 Q597 1200 554 1268 Q511 1336 416 1336 Q354 1336 327.5 1309.5 Q301 1283 301 1253 Q301 1240 305 1232 Q309 1224 320 1211 L334 1194 Q357 1166 366.5 1143 Q376 1120 376 1085 Q376 1028 338 994 Q300 960 247 960 Q191 960 150 1000.5 Q109 1041 109 1118 Z " />
<glyph glyph-name="at" unicode="&#x40;" horiz-adv-x="1905" d="M1129 843 Q1129 893 1108.5 919 Q1088 945 1043 945 Q942 945 862.5 767 Q783 589 783 497 Q783 450 804 413.5 Q825 377 875 377 Q986 377 1057.5 570 Q1129 763 1129 843 Z M1540 139 Q1390 44 1246 1.5 Q1102 -41 964 -41 Q629 -41 401 157 Q173 353 173 637 Q173 960 433 1190 Q689 1415 1038 1415 Q1316 1415 1510 1266 Q1723 1102 1723 828 Q1723 611 1582 446.5 Q1441 282 1284 282 Q1170 282 1114 347 Q1079 389 1076 438 Q1022 350 961.5 316 Q901 282 829 282 Q714 282 635.5 367 Q557 452 557 578 Q557 745 690.5 892.5 Q824 1040 988 1040 Q1035 1040 1074 1025 Q1150 997 1182 922 L1211 1012 L1431 1012 Q1421 987 1346 746 Q1263 477 1263 446 Q1263 407 1299 388 Q1321 376 1340 376 Q1431 376 1530.5 510 Q1630 644 1630 825 Q1630 1057 1462 1185 Q1294 1313 1073 1313 Q750 1313 539 1090 Q350 890 350 644 Q350 348 556 187 Q731 49 986 49 Q1091 49 1182.5 70.5 Q1274 92 1337 119 Q1371 133 1390 145 Q1437 169 1495 208 L1540 139 Z " />
<glyph glyph-name="A" unicode="A" horiz-adv-x="1479" d="M805 483 L609 957 L592 957 L407 483 L805 483 Z M37 52 Q111 57 156 119 Q185 158 239 291 L694 1412 L751 1412 L1208 336 Q1285 155 1323 102.5 Q1361 50 1431 52 L1431 0 L768 0 L768 52 Q868 56 899.5 69 Q931 82 931 135 Q931 159 915 208 Q905 237 888 278 L836 402 L376 402 Q331 280 318 243 Q291 164 291 128 Q291 84 350 64 Q385 53 455 52 L455 0 L37 0 L37 52 Z " />
<glyph glyph-name="B" unicode="B" horiz-adv-x="1366" d="M33 52 Q116 55 152 74 Q213 106 213 196 L213 1187 Q213 1277 156 1308 Q122 1327 33 1332 L33 1384 L666 1384 Q849 1384 970 1342 Q1198 1263 1198 1054 Q1198 927 1105.5 852.5 Q1013 778 905 758 L905 739 Q1019 717 1103 665 Q1267 563 1267 381 Q1267 211 1110 105.5 Q953 0 692 0 L33 0 L33 52 Z M540 763 Q730 763 795 825 Q860 887 860 1045 Q860 1162 817.5 1242 Q775 1322 654 1322 Q590 1322 565 1300.5 Q540 1279 540 1223 L540 763 Z M540 189 Q541 135 556 110 Q581 66 652 66 Q797 66 855.5 145 Q914 224 914 370 Q914 588 785 660 Q707 704 540 701 L540 189 Z " />
<glyph glyph-name="C" unicode="C" horiz-adv-x="1479" d="M792 1410 Q920 1410 1051 1362.5 Q1182 1315 1197 1315 Q1236 1315 1259.5 1345 Q1283 1375 1289 1408 L1346 1408 L1346 929 L1294 929 Q1220 1085 1143 1175 Q999 1341 817 1341 Q611 1341 524.5 1163.5 Q438 986 438 687 Q438 467 489 325 Q584 59 842 59 Q1000 59 1136 147 Q1214 198 1320 310 L1381 260 Q1261 126 1170 66 Q1008 -41 810 -41 Q507 -41 302 139 Q75 338 75 675 Q75 1009 292 1216 Q496 1410 792 1410 Z " />
<glyph glyph-name="D" unicode="D" horiz-adv-x="1479" d="M28 52 Q105 57 139 74 Q199 105 199 187 L199 1197 Q199 1276 142 1307 Q109 1325 28 1332 L28 1384 L654 1384 Q1033 1384 1232 1182 Q1413 998 1413 688 Q1413 410 1231 217 Q1026 0 675 0 L28 0 L28 52 Z M530 189 Q533 126 553.5 98 Q574 70 641 70 Q823 70 940 198.5 Q1057 327 1057 692 Q1057 909 994 1065 Q892 1316 650 1316 Q570 1316 546 1282 Q530 1260 530 1197 L530 189 Z " />
<glyph glyph-name="E" unicode="E" horiz-adv-x="1366" d="M33 0 L33 52 Q121 55 158 76 Q215 108 215 196 L215 1187 Q215 1277 156 1308 Q122 1327 33 1332 L33 1384 L1213 1384 L1213 971 L1163 971 Q1124 1169 1030.5 1242 Q937 1315 690 1315 Q596 1315 570.5 1295.5 Q545 1276 545 1218 L545 744 Q720 742 782 807.5 Q844 873 877 1047 L929 1047 L929 355 L877 355 Q855 530 787.5 601.5 Q720 673 545 673 L545 177 Q545 112 578.5 88.5 Q612 65 716 65 Q912 65 1036 141 Q1160 217 1256 426 L1313 426 L1230 0 L33 0 Z " />
<glyph glyph-name="F" unicode="F" horiz-adv-x="1251" d="M33 52 Q121 55 158 76 Q215 108 215 196 L215 1187 Q215 1276 159 1307 Q125 1326 33 1332 L33 1384 L1194 1384 L1194 971 L1144 971 Q1106 1162 1016 1238.5 Q926 1315 684 1315 Q594 1315 569.5 1294.5 Q545 1274 545 1218 L545 744 Q711 741 769.5 814 Q828 887 858 1047 L910 1047 L910 355 L858 355 Q837 521 773.5 597 Q710 673 545 673 L545 196 Q545 101 600.5 75.5 Q656 50 770 52 L770 0 L33 0 L33 52 Z " />
<glyph glyph-name="G" unicode="G" horiz-adv-x="1593" d="M75 680 Q75 986 272 1195 Q476 1410 793 1410 Q920 1410 1046 1362.5 Q1172 1315 1203 1315 Q1236 1315 1256 1338 Q1276 1361 1289 1408 L1346 1408 L1346 929 L1294 929 Q1220 1085 1143 1175 Q999 1341 817 1341 Q619 1341 528 1169 Q437 997 437 685 Q437 429 521.5 228.5 Q606 28 848 28 Q979 28 1024 83 Q1050 114 1050 177 L1050 393 Q1050 486 993 515 Q956 533 843 535 L843 587 L1545 587 L1545 535 Q1439 531 1404.5 492.5 Q1370 454 1370 348 L1370 87 Q1302 45 1150 3 Q998 -39 810 -39 Q469 -39 265 176 Q75 377 75 680 Z " />
<glyph glyph-name="H" unicode="H" horiz-adv-x="1593" d="M37 52 Q119 56 153 75 Q210 107 210 196 L210 1187 Q210 1274 159 1305 Q128 1323 37 1332 L37 1384 L730 1384 L730 1332 Q640 1327 605 1308 Q547 1276 547 1187 L547 763 L1035 763 L1035 1187 Q1035 1276 980 1307 Q946 1326 853 1332 L853 1384 L1550 1384 L1550 1332 Q1460 1325 1427 1306 Q1372 1275 1372 1187 L1372 196 Q1372 106 1433 74 Q1468 55 1550 52 L1550 0 L853 0 L853 52 Q941 55 978 76 Q1035 108 1035 196 L1035 668 L547 668 L547 196 Q547 105 609 73 Q645 55 730 52 L730 0 L37 0 L37 52 Z " />
<glyph glyph-name="I" unicode="I" horiz-adv-x="797" d="M33 52 Q120 54 158 73 Q220 105 220 196 L220 1187 Q220 1278 161 1309 Q125 1328 33 1332 L33 1384 L749 1384 L749 1332 Q653 1328 617 1310 Q557 1279 557 1187 L557 196 Q557 110 605 81 Q653 52 749 52 L749 0 L33 0 L33 52 Z " />
<glyph glyph-name="J" unicode="J" horiz-adv-x="1024" d="M981 1384 L981 1332 Q872 1324 834 1293 Q796 1262 796 1144 L796 261 Q796 43 678 -78 Q559 -200 344 -200 Q192 -200 99.5 -118 Q7 -36 7 58 Q7 134 51.5 177 Q96 220 156 220 Q216 220 255 178 Q294 136 294 78 Q294 28 269.5 -17 Q245 -62 245 -70 Q245 -100 268.5 -115.5 Q292 -131 326 -131 Q418 -131 449 -71 Q466 -35 466 49 L466 1187 Q466 1280 405 1310 Q368 1328 260 1332 L260 1384 L981 1384 Z " />
<glyph glyph-name="K" unicode="K" horiz-adv-x="1593" d="M52 52 Q135 55 170 74 Q229 106 229 196 L229 1187 Q229 1276 175 1307 Q142 1326 52 1332 L52 1384 L744 1384 L744 1332 Q638 1323 601 1292 Q564 1261 564 1144 L564 706 L1005 1152 Q1051 1198 1064.5 1217.5 Q1078 1237 1078 1265 Q1078 1304 1042.5 1315 Q1007 1326 905 1332 L905 1384 L1498 1384 L1498 1332 Q1339 1319 1234.5 1242 Q1130 1165 839 867 L1464 94 Q1484 69 1503.5 62.5 Q1523 56 1564 52 L1564 0 L877 0 L877 52 Q970 53 1004 60 Q1038 67 1038 95 Q1038 108 1027 128.5 Q1016 149 988 184 L616 649 L564 597 L564 196 Q564 107 623 75 Q657 56 741 52 L741 0 L52 0 L52 52 Z " />
<glyph glyph-name="L" unicode="L" horiz-adv-x="1366" d="M37 52 Q121 55 157 74 Q218 106 218 196 L218 1187 Q218 1277 160 1308 Q126 1327 37 1332 L37 1384 L753 1384 L753 1332 Q628 1328 586.5 1297 Q545 1266 545 1144 L545 177 Q545 109 580.5 87 Q616 65 719 65 Q904 65 1029.5 146.5 Q1155 228 1246 464 L1306 464 L1223 0 L37 0 L37 52 Z " />
<glyph glyph-name="M" unicode="M" horiz-adv-x="1933" d="M28 52 Q145 53 180 93.5 Q215 134 215 215 L215 1187 Q215 1271 175 1297.5 Q135 1324 33 1332 L33 1384 L549 1384 L952 436 L969 436 L1370 1384 L1886 1384 L1886 1332 Q1782 1324 1744 1293.5 Q1706 1263 1706 1144 L1706 239 Q1706 126 1744 91 Q1782 56 1886 52 L1886 0 L1206 0 L1206 52 Q1297 55 1343 82.5 Q1389 110 1389 203 L1389 1204 L1374 1204 L872 0 L817 0 L310 1180 L301 1180 L301 253 Q301 151 339 104 Q377 57 507 52 L507 0 L28 0 L28 52 Z " />
<glyph glyph-name="N" unicode="N" horiz-adv-x="1479" d="M33 52 Q147 55 180 95.5 Q213 136 213 215 L213 1185 Q119 1290 97 1308.5 Q75 1327 37 1332 L37 1384 L471 1384 L1175 521 L1185 521 L1185 1130 Q1185 1234 1147 1278.5 Q1109 1323 995 1332 L995 1384 L1436 1384 L1436 1332 Q1340 1316 1307.5 1289 Q1275 1262 1275 1168 L1275 -38 L1218 -38 L317 1057 L303 1057 L303 253 Q303 159 329 120 Q370 57 497 52 L497 0 L33 0 L33 52 Z " />
<glyph glyph-name="O" unicode="O" horiz-adv-x="1593" d="M794 28 Q1024 28 1110 301 Q1156 449 1156 687 Q1156 1014 1058.5 1180 Q961 1346 794 1346 Q562 1346 476 1069 Q431 922 431 687 Q431 448 477 301 Q562 28 794 28 Z M794 1415 Q1104 1415 1309 1215 Q1520 1010 1520 687 Q1520 364 1309 159 Q1103 -41 794 -41 Q466 -41 259 178 Q66 384 66 676 Q66 998 268 1205 Q472 1415 794 1415 Z " />
<glyph glyph-name="P" unicode="P" horiz-adv-x="1251" d="M535 692 Q718 695 779 734 Q876 796 876 1001 Q876 1141 829 1227 Q782 1313 649 1313 Q588 1313 561.5 1298.5 Q535 1284 535 1242 L535 692 Z M33 52 Q134 59 168.5 94.5 Q203 130 203 239 L203 1144 Q203 1260 168 1290.5 Q133 1321 33 1332 L33 1384 L692 1384 Q954 1384 1090.5 1299 Q1227 1214 1227 1007 Q1227 906 1173.5 817.5 Q1120 729 997 675 Q904 637 811 629 Q718 621 535 621 L535 239 Q535 126 573 91 Q611 56 715 52 L715 0 L33 0 L33 52 Z " />
<glyph glyph-name="Q" unicode="Q" horiz-adv-x="1593" d="M794 28 Q1024 28 1110 301 Q1156 449 1156 687 Q1156 1014 1058.5 1180 Q961 1346 794 1346 Q562 1346 476 1069 Q431 922 431 687 Q431 448 477 301 Q562 28 794 28 Z M794 1415 Q1104 1415 1309 1215 Q1520 1010 1520 687 Q1520 331 1269 124 Q1173 40 1000 -15 Q1044 -125 1141.5 -195.5 Q1239 -266 1355 -266 Q1395 -266 1422.5 -260.5 Q1450 -255 1493 -242 L1505 -292 Q1402 -334 1278 -352 Q1199 -364 1134 -364 Q961 -364 795.5 -278 Q630 -192 566 -29 Q558 -8 554 -4 Q550 0 525 8 Q395 55 279 160 Q66 367 66 679 Q66 995 265 1202 Q469 1415 794 1415 Z " />
<glyph glyph-name="R" unicode="R" horiz-adv-x="1479" d="M33 52 Q137 57 175 91 Q213 125 213 239 L213 1144 Q213 1263 168 1299 Q138 1323 33 1332 L33 1384 L692 1384 Q897 1384 1024 1341 Q1270 1254 1270 1028 Q1270 861 1147 765 Q1053 693 948 673 L1360 90 Q1377 66 1396 58.5 Q1415 51 1443 49 L1443 0 L1024 0 L599 640 L545 640 L545 239 Q545 131 581 93.5 Q617 56 725 52 L725 0 L33 0 L33 52 Z M545 706 Q746 709 832.5 762.5 Q919 816 919 1010 Q919 1129 886 1198 Q829 1315 678 1315 Q596 1315 570.5 1294.5 Q545 1274 545 1227 L545 706 Z " />
<glyph glyph-name="S" unicode="S" horiz-adv-x="1139" d="M71 478 L130 478 Q180 249 291.5 145 Q403 41 547 41 Q687 41 746 112.5 Q805 184 805 263 Q805 355 743 413 Q702 451 578 512 L445 578 Q247 676 166 772 Q85 868 85 1009 Q85 1159 192.5 1289 Q300 1419 522 1419 Q635 1419 740.5 1385 Q846 1351 861 1351 Q895 1351 908 1370.5 Q921 1390 929 1422 L990 1422 L990 976 L933 976 Q892 1131 788.5 1243 Q685 1355 537 1355 Q433 1355 372.5 1298.5 Q312 1242 312 1161 Q312 1064 369 1016 Q425 967 618 872 L772 796 Q875 745 936 683 Q1050 567 1050 401 Q1050 246 927.5 108.5 Q805 -29 535 -29 Q473 -29 409.5 -17.5 Q346 -6 284 18 L244 33 Q230 37 217 39.5 Q204 42 195 42 Q163 42 151 23.5 Q139 5 130 -29 L71 -29 L71 478 Z " />
<glyph glyph-name="T" unicode="T" horiz-adv-x="1366" d="M54 1384 L1287 1384 L1289 971 L1230 971 Q1201 1192 1064 1270 Q987 1313 834 1317 L834 239 Q834 126 873.5 89 Q913 52 1038 52 L1038 0 L308 0 L308 52 Q428 52 467.5 89.5 Q507 127 507 239 L507 1317 Q357 1313 277 1270 Q130 1190 111 971 L52 971 L54 1384 Z " />
<glyph glyph-name="U" unicode="U" horiz-adv-x="1479" d="M725 1384 L725 1332 Q606 1328 566 1295 Q526 1262 526 1144 L526 459 Q526 303 563 218 Q630 60 820 60 Q1056 60 1139 235 Q1185 331 1185 504 L1185 1130 Q1185 1240 1144.5 1281.5 Q1104 1323 986 1332 L986 1384 L1436 1384 L1436 1332 Q1338 1313 1306.5 1285.5 Q1275 1258 1275 1159 L1275 504 Q1275 243 1149 101 Q1023 -41 753 -41 Q400 -41 270 170 Q201 282 201 459 L201 1144 Q201 1260 170.5 1290 Q140 1320 33 1332 L33 1384 L725 1384 Z " />
<glyph glyph-name="V" unicode="V" horiz-adv-x="1479" d="M720 1384 L720 1332 Q610 1326 577.5 1313.5 Q545 1301 545 1251 Q545 1235 547.5 1221.5 Q550 1208 557 1192 L867 436 L879 436 L1147 1128 Q1156 1151 1163 1175 Q1175 1214 1175 1238 Q1175 1296 1140.5 1310.5 Q1106 1325 1000 1332 L1000 1384 L1436 1384 L1436 1334 Q1361 1326 1323.5 1290.5 Q1286 1255 1251 1166 L784 -38 L730 -38 L203 1189 Q171 1263 137.5 1295.5 Q104 1328 33 1334 L33 1384 L720 1384 Z " />
<glyph glyph-name="W" unicode="W" horiz-adv-x="2048" d="M640 1384 L640 1332 Q566 1325 538.5 1311 Q511 1297 511 1247 Q511 1234 514 1216.5 Q517 1199 523 1180 L760 464 L777 464 L1012 1064 Q1014 1069 983.5 1155 Q953 1241 941 1261 Q918 1297 890.5 1312 Q863 1327 791 1332 L791 1384 L1431 1384 L1431 1332 Q1343 1325 1313.5 1313 Q1284 1301 1284 1259 Q1284 1249 1290.5 1220.5 Q1297 1192 1313 1142 L1526 483 L1540 483 L1763 1156 Q1769 1174 1773 1194.5 Q1777 1215 1777 1240 Q1777 1297 1734 1316 Q1708 1328 1635 1332 L1635 1384 L2010 1384 L2010 1332 Q1963 1325 1937 1308 Q1892 1277 1867 1201 L1457 -34 L1403 -34 L1059 926 L1045 926 L670 -34 L613 -34 L180 1201 Q152 1282 124 1304 Q96 1326 37 1334 L37 1384 L640 1384 Z " />
<glyph glyph-name="X" unicode="X" horiz-adv-x="1479" d="M33 52 Q111 66 145 81 Q200 106 246 165 L604 618 L199 1213 Q154 1278 120 1303.5 Q86 1329 35 1332 L35 1384 L744 1384 L744 1332 Q645 1327 612.5 1316 Q580 1305 580 1264 Q580 1246 588 1229 Q596 1212 611 1189 L810 881 Q978 1116 1012 1170 Q1046 1224 1046 1260 Q1046 1304 996 1320 Q967 1329 896 1332 L896 1384 L1408 1384 L1408 1332 Q1272 1319 1193 1240.5 Q1114 1162 860 805 L1232 227 Q1305 114 1339.5 87 Q1374 60 1431 52 L1431 0 L734 0 L734 52 Q824 56 853 64 Q898 77 898 116 Q898 131 888.5 157.5 Q879 184 855 222 L649 554 L571 450 Q472 317 437 264 Q379 175 379 138 Q379 84 450 64 Q490 52 545 52 L545 0 L33 0 L33 52 Z " />
<glyph glyph-name="Y" unicode="Y" horiz-adv-x="1479" d="M715 1384 L715 1332 Q609 1326 579 1316 Q549 1306 549 1274 Q549 1260 554.5 1243.5 Q560 1227 580 1184 L836 692 L853 692 L1073 1052 Q1094 1085 1117 1133 Q1152 1206 1152 1241 Q1152 1295 1109 1313 Q1080 1325 981 1332 L981 1384 L1431 1384 L1431 1332 Q1382 1323 1353 1311 Q1316 1292 1291 1253 L900 616 L900 239 Q900 122 940 88.5 Q980 55 1090 52 L1090 0 L379 0 L379 52 Q493 55 530.5 91 Q568 127 568 239 L568 540 L194 1220 Q157 1287 103 1314 Q67 1331 30 1332 L30 1384 L715 1384 Z " />
<glyph glyph-name="Z" unicode="Z" horiz-adv-x="1366" d="M56 33 L839 1313 Q607 1313 562.5 1308.5 Q518 1304 481 1296 Q351 1270 277 1172 Q233 1113 177 962 L120 962 L163 1384 L1237 1384 L1237 1351 L459 71 Q876 71 1021.5 135 Q1167 199 1244 493 L1298 493 L1244 0 L56 0 L56 33 Z " />
<glyph glyph-name="bracketleft" unicode="&#x5b;" horiz-adv-x="682" d="M137 -309 L137 1389 L616 1389 L616 1322 L488 1322 Q399 1322 374.5 1295 Q350 1268 350 1178 L350 -131 Q350 -192 366 -214.5 Q382 -237 452 -237 L616 -237 L616 -309 L137 -309 Z " />
<glyph glyph-name="backslash" unicode="&#x5c;" horiz-adv-x="569" d="M92 1415 L663 0 L476 0 L-98 1415 L92 1415 Z " />
<glyph glyph-name="bracketright" unicode="&#x5d;" horiz-adv-x="682" d="M66 -309 L66 -237 L229 -237 Q299 -237 315 -214.5 Q331 -192 331 -131 L331 1178 Q331 1267 307.5 1294.5 Q284 1322 194 1322 L66 1322 L66 1389 L545 1389 L545 -309 L66 -309 Z " />
<glyph glyph-name="asciicircum" unicode="&#x5e;" horiz-adv-x="1190" d="M625 1415 L1035 526 L832 526 L583 1097 L336 526 L132 526 L542 1415 L625 1415 Z " />
<glyph glyph-name="underscore" unicode="&#x5f;" horiz-adv-x="1024" d="M0 -275 L0 -136 L1024 -136 L1024 -275 L0 -275 Z " />
<glyph glyph-name="grave" unicode="&#x60;" horiz-adv-x="682" d="M-41 1370 Q-41 1411 -12.5 1435.5 Q16 1460 54 1460 Q87 1460 116 1445 Q145 1430 168 1403 L448 1080 L334 1080 L42 1261 Q2 1286 -19.5 1309 Q-41 1332 -41 1370 Z " />
<glyph glyph-name="a" unicode="a" horiz-adv-x="1024" d="M449 117 Q499 117 542 147 Q566 165 599 203 L599 502 Q517 482 455 439 Q350 366 350 253 Q350 186 380.5 151.5 Q411 117 449 117 Z M52 191 Q52 329 185 410 Q318 491 602 573 L602 722 Q602 813 563.5 856.5 Q525 900 427 900 Q372 900 336.5 879.5 Q301 859 301 828 Q301 816 305 808 Q309 800 317 791 L329 777 Q343 760 351.5 739.5 Q360 719 360 696 Q360 638 321.5 606.5 Q283 575 232 575 Q173 575 131.5 610 Q90 645 90 711 Q90 829 201 898 Q312 967 474 967 Q648 967 765 900 Q881 832 881 650 L881 154 Q881 132 892.5 116.5 Q904 101 918 101 Q930 101 939.5 105.5 Q949 110 969 130 L1000 87 Q940 17 867 -11 Q821 -29 770 -29 Q679 -29 637 24 Q613 54 602 113 Q517 28 410 -7 Q345 -29 282 -29 Q198 -29 125 24.5 Q52 78 52 191 Z " />
<glyph glyph-name="b" unicode="b" horiz-adv-x="1139" d="M431 199 Q435 143 453 107 Q489 37 573 37 Q678 37 721.5 148 Q765 259 765 462 Q765 623 726.5 739 Q688 855 576 855 Q510 855 470.5 806.5 Q431 758 431 737 L431 199 Z M431 1384 L431 853 Q479 900 520 924 Q595 967 682 967 Q855 967 960.5 832 Q1066 697 1066 500 Q1066 246 931.5 108.5 Q797 -29 597 -29 Q515 -29 452 3 Q389 35 334 87 L173 -29 L144 -29 L144 1216 Q144 1280 121 1302.5 Q98 1325 35 1334 L35 1384 L431 1384 Z " />
<glyph glyph-name="c" unicode="c" horiz-adv-x="909" d="M528 969 Q657 969 751.5 906 Q846 843 846 744 Q846 691 808.5 652 Q771 613 713 613 Q674 613 645 631 Q590 663 590 747 Q590 756 591 773.5 Q592 791 592 811 Q592 865 567 885 Q541 905 508 905 Q413 905 373 800.5 Q333 696 333 561 Q333 369 409 239 Q485 109 614 109 Q695 109 752 145 Q786 166 836 222 L874 187 Q774 48 640 -4 Q569 -31 489 -31 Q292 -31 167 110 Q42 251 42 454 Q42 668 174.5 818.5 Q307 969 528 969 Z " />
<glyph glyph-name="d" unicode="d" horiz-adv-x="1139" d="M516 87 Q582 87 634.5 146 Q687 205 687 229 L687 727 Q687 752 642 801 Q597 850 523 850 Q414 850 375 699 Q354 618 354 470 Q354 312 374 232 Q411 87 516 87 Z M52 443 Q52 686 167.5 826.5 Q283 967 445 967 Q526 967 589 927 Q628 903 687 841 L687 1216 Q687 1293 657 1311.5 Q627 1330 533 1334 L533 1384 L974 1384 L974 206 Q974 142 998 117.5 Q1022 93 1092 87 L1092 40 Q920 23 870 14.5 Q820 6 694 -29 L694 106 Q636 46 588 17 Q512 -29 424 -29 Q274 -29 163 98 Q52 225 52 443 Z " />
<glyph glyph-name="e" unicode="e" horiz-adv-x="909" d="M46 470 Q46 706 171.5 836.5 Q297 967 474 967 Q575 967 664 914 Q753 861 801 767 Q837 696 851 583 Q858 530 858 502 L336 502 Q343 379 376 289 Q436 120 587 120 Q659 120 723 165 Q762 192 820 256 L867 227 Q772 71 647 10 Q566 -29 461 -29 Q310 -29 178 90 Q46 209 46 470 Z M606 578 Q604 759 578 831 Q552 903 474 903 Q394 903 364.5 820 Q335 737 331 578 L606 578 Z " />
<glyph glyph-name="f" unicode="f" horiz-adv-x="682" d="M28 49 Q91 54 118.5 77 Q146 100 146 173 L146 839 L28 839 L28 929 L146 929 L146 1005 Q146 1148 191 1240 Q276 1412 505 1412 Q627 1412 711.5 1356.5 Q796 1301 796 1210 Q796 1153 760.5 1118 Q725 1083 666 1083 Q617 1083 582 1115 Q547 1147 547 1192 Q547 1226 569.5 1263.5 Q592 1301 592 1309 Q592 1334 574 1341 Q556 1348 535 1348 Q485 1348 458 1319 Q431 1290 431 1194 L431 929 L609 929 L609 839 L431 839 L431 210 Q431 104 461.5 80 Q492 56 597 49 L597 0 L28 0 L28 49 Z " />
<glyph glyph-name="g" unicode="g" horiz-adv-x="1024" d="M346 637 Q346 519 366 462 Q396 372 481 372 Q558 372 587 439.5 Q616 507 616 637 Q616 775 585.5 838 Q555 901 481 901 Q400 901 373 833.5 Q346 766 346 637 Z M227 -223 Q227 -286 294.5 -322 Q362 -358 490 -358 Q604 -358 678 -340 Q817 -306 817 -215 Q817 -162 777.5 -135.5 Q738 -109 634 -109 L298 -109 Q266 -135 252 -153 Q227 -186 227 -223 Z M47 -237 Q47 -193 83.5 -146.5 Q120 -100 210 -86 L210 -72 Q150 -49 123 -25 Q75 18 75 90 Q75 176 150.5 237 Q226 298 298 322 L298 336 Q194 378 130 456 Q66 534 66 645 Q66 785 178 876 Q290 967 481 967 Q553 967 613 953 Q673 939 706 924 L976 924 L976 815 L810 815 Q850 776 871.5 724 Q893 672 893 611 Q893 419 710 348 Q614 310 471 310 Q440 310 430.5 311 Q421 312 402 312 Q372 307 339 280 Q305 252 305 213 Q305 182 322 165 Q339 148 369 144 Q384 142 433 140.5 Q482 139 509 139 L642 137 Q755 135 832 104 Q979 44 979 -111 Q979 -311 759 -386 Q643 -425 467 -425 Q323 -425 219 -397 Q47 -350 47 -237 Z " />
<glyph glyph-name="h" unicode="h" horiz-adv-x="1139" d="M33 49 Q89 56 115.5 79.5 Q142 103 142 173 L142 1216 Q142 1277 120 1301.5 Q98 1326 33 1334 L33 1384 L429 1384 L429 808 Q492 884 561.5 925.5 Q631 967 718 967 Q836 967 913 898.5 Q990 830 990 665 L990 173 Q990 104 1013.5 82.5 Q1037 61 1092 49 L1092 0 L611 0 L611 49 Q666 60 686 79 Q706 98 706 165 L706 661 Q706 731 692 766 Q668 829 597 829 Q544 829 487.5 780 Q431 731 431 713 L431 165 Q431 98 451 79 Q471 60 526 49 L526 0 L33 0 L33 49 Z " />
<glyph glyph-name="i" unicode="i" horiz-adv-x="569" d="M123 1256 Q123 1322 169.5 1368.5 Q216 1415 282 1415 Q347 1415 393.5 1368.5 Q440 1322 440 1256 Q440 1190 393.5 1143.5 Q347 1097 282 1097 Q216 1097 169.5 1143.5 Q123 1190 123 1256 Z M33 49 Q87 58 107 76 Q137 103 137 173 L137 775 Q137 837 116 859.5 Q95 882 33 893 L33 943 L426 943 L426 165 Q426 98 446 79 Q466 60 521 49 L521 0 L33 0 L33 49 Z " />
<glyph glyph-name="j" unicode="j" horiz-adv-x="682" d="M220 1256 Q220 1322 266.5 1368.5 Q313 1415 379 1415 Q444 1415 491 1368.5 Q538 1322 538 1256 Q538 1190 491 1143.5 Q444 1097 379 1097 Q313 1097 266.5 1143.5 Q220 1190 220 1256 Z M-119 -209 Q-119 -161 -85.5 -124.5 Q-52 -88 9 -88 Q55 -88 92.5 -117.5 Q130 -147 130 -197 Q130 -231 106 -270 Q82 -309 82 -320 Q82 -340 105 -347 Q128 -354 151 -354 Q209 -354 228.5 -313 Q248 -272 248 -200 L248 775 Q248 840 222 865 Q196 890 118 893 L118 943 L530 943 L530 4 Q530 -124 507.5 -200 Q485 -276 422 -332 Q382 -367 310.5 -392.5 Q239 -418 158 -418 Q77 -418 3 -385 Q-119 -331 -119 -209 Z " />
<glyph glyph-name="k" unicode="k" horiz-adv-x="1139" d="M33 49 Q87 62 109.5 83.5 Q132 105 132 173 L132 1216 Q132 1281 111 1301 Q90 1321 33 1334 L33 1384 L417 1384 L417 502 L677 763 Q700 786 710 806.5 Q720 827 720 839 Q720 870 692.5 880 Q665 890 599 896 L599 943 L1038 943 L1038 896 Q975 888 938 874 Q872 848 810 786 L651 625 L1047 80 Q1059 63 1070 57.5 Q1081 52 1099 49 L1099 0 L621 0 L621 49 Q665 51 685.5 60 Q706 69 706 88 Q706 98 697.5 115.5 Q689 133 656 180 L462 455 L417 405 L417 173 Q417 104 434 81 Q451 58 521 49 L521 0 L33 0 L33 49 Z " />
<glyph glyph-name="l" unicode="l" horiz-adv-x="569" d="M33 49 Q87 62 109.5 83.5 Q132 105 132 173 L132 1216 Q132 1281 111 1301 Q90 1321 33 1334 L33 1384 L421 1384 L421 173 Q421 105 443 84 Q465 63 521 49 L521 0 L33 0 L33 49 Z " />
<glyph glyph-name="m" unicode="m" horiz-adv-x="1706" d="M33 49 Q89 56 110 73 Q144 100 144 173 L144 775 Q144 839 121 862 Q98 885 33 893 L33 943 L421 943 L421 796 Q472 863 520 900 Q609 967 718 967 Q841 967 909 909 Q947 876 981 801 L995 801 Q1053 872 1106 908 Q1190 967 1289 967 Q1397 967 1479.5 898 Q1562 829 1562 680 L1562 165 Q1562 94 1585 74.5 Q1608 55 1666 49 L1666 0 L1180 0 L1180 49 Q1236 57 1258 76.5 Q1280 96 1280 165 L1280 661 Q1280 741 1256.5 785 Q1233 829 1167 829 Q1114 829 1055.5 780.5 Q997 732 997 713 L997 165 Q997 98 1017 79 Q1037 60 1092 49 L1092 0 L613 0 L613 49 Q667 56 690 75.5 Q713 95 713 165 L713 661 Q713 739 691 784 Q669 829 600 829 Q537 829 483 777.5 Q429 726 429 713 L429 165 Q429 98 448 79 Q467 60 523 49 L523 0 L33 0 L33 49 Z " />
<glyph glyph-name="n" unicode="n" horiz-adv-x="1139" d="M33 49 Q89 56 115.5 79.5 Q142 103 142 173 L142 775 Q142 837 120.5 861 Q99 885 33 893 L33 943 L421 943 L421 796 Q470 870 545.5 918.5 Q621 967 713 967 Q845 967 917.5 899 Q990 831 990 660 L990 165 Q990 96 1013.5 76 Q1037 56 1092 49 L1092 0 L611 0 L611 49 Q666 60 686 79 Q706 98 706 165 L706 661 Q706 731 692 766 Q668 829 597 829 Q544 829 499.5 790.5 Q455 752 431 713 L431 165 Q431 98 451 79 Q471 60 526 49 L526 0 L33 0 L33 49 Z " />
<glyph glyph-name="o" unicode="o" horiz-adv-x="1024" d="M45 469 Q45 683 176.5 826 Q308 969 507 969 Q710 969 839.5 823 Q969 677 969 469 Q969 264 841 116.5 Q713 -31 507 -31 Q307 -31 176 112.5 Q45 256 45 469 Z M346 469 Q346 254 368 168 Q403 35 507 35 Q606 35 637 137 Q668 239 668 469 Q668 698 635.5 800.5 Q603 903 508 903 Q404 903 369 770 Q346 681 346 469 Z " />
<glyph glyph-name="p" unicode="p" horiz-adv-x="1139" d="M599 85 Q710 85 749 232 Q770 313 770 465 Q770 641 738 745.5 Q706 850 608 850 Q542 850 490 792 Q438 734 438 708 L438 210 Q438 180 487.5 132.5 Q537 85 599 85 Z M37 -373 Q103 -366 127 -342.5 Q151 -319 151 -254 L151 775 Q151 839 128.5 861.5 Q106 884 42 893 L42 943 L433 943 L433 808 Q475 878 515 911 Q587 969 699 969 Q860 969 966.5 848 Q1073 727 1073 487 Q1073 264 958.5 117.5 Q844 -29 680 -29 Q596 -29 521 20 Q481 46 438 94 L438 -79 Q439 -217 440 -234 Q447 -315 481.5 -345 Q516 -375 597 -380 L597 -422 L37 -422 L37 -373 Z " />
<glyph glyph-name="q" unicode="q" horiz-adv-x="1139" d="M558 82 Q626 82 665 132 Q704 182 704 201 L704 739 Q704 801 669.5 850.5 Q635 900 561 900 Q450 900 410 784 Q370 668 370 502 Q370 335 394 246 Q436 82 558 82 Z M68 438 Q68 690 194 828.5 Q320 967 526 967 Q629 967 704 925 Q745 901 794 850 L955 967 L983 967 L983 -254 Q983 -315 1006 -340.5 Q1029 -366 1095 -373 L1095 -422 L549 -422 L549 -370 Q643 -365 673.5 -326.5 Q704 -288 704 -202 L704 85 Q659 40 617 15 Q541 -29 452 -29 Q274 -29 171 109.5 Q68 248 68 438 Z " />
<glyph glyph-name="r" unicode="r" horiz-adv-x="909" d="M37 49 Q96 56 119 77 Q142 98 144 158 L146 218 L146 775 Q146 839 124 862 Q102 885 37 893 L37 943 L426 943 L426 782 Q491 867 555 917 Q619 967 703 967 Q766 967 816.5 926.5 Q867 886 867 808 Q867 748 831.5 709 Q796 670 739 670 Q674 670 626.5 731 Q579 792 560 792 Q519 792 477.5 741.5 Q436 691 436 597 L436 210 Q436 108 465.5 82.5 Q495 57 583 49 L583 0 L37 0 L37 49 Z " />
<glyph glyph-name="s" unicode="s" horiz-adv-x="797" d="M52 310 L109 310 Q139 163 221 102.5 Q303 42 389 42 Q468 42 505 77.5 Q542 113 542 171 Q542 226 502 265 Q480 286 431 310 L279 384 Q159 443 107 512 Q54 581 54 675 Q54 794 137 880.5 Q220 967 369 967 Q434 967 507 945.5 Q580 924 598 924 Q623 924 633.5 934.5 Q644 945 651 964 L696 964 L696 668 L644 668 Q615 772 549 835 Q483 898 395 898 Q327 898 293.5 860 Q260 822 260 778 Q260 742 290 706 Q319 669 400 630 L512 576 Q616 526 664 479 Q744 399 744 282 Q744 168 661.5 69.5 Q579 -29 414 -29 Q373 -29 331.5 -20.5 Q290 -12 229 9 L194 21 Q175 28 170.5 29 Q166 30 159 30 Q142 30 129.5 16.5 Q117 3 101 -29 L52 -29 L52 310 Z " />
<glyph glyph-name="t" unicode="t" horiz-adv-x="682" d="M33 853 L33 910 Q60 935 100 969 Q153 1018 200 1070 Q293 1172 369 1289 L421 1289 L421 943 L616 943 L616 853 L421 853 L421 237 Q421 194 434 165 Q454 120 500 120 Q540 120 567 148.5 Q594 177 621 227 L670 203 Q634 119 584 66 Q496 -27 369 -27 Q297 -27 243 0 Q139 52 139 189 L139 853 L33 853 Z " />
<glyph glyph-name="u" unicode="u" horiz-adv-x="1139" d="M419 943 L419 248 Q419 186 434 157 Q460 106 537 106 Q586 106 633 137 Q660 154 701 194 L701 775 Q701 839 675.5 864.5 Q650 890 573 893 L573 943 L981 943 L981 206 Q981 142 1005 117.5 Q1029 93 1099 87 L1099 40 Q909 22 859.5 13.5 Q810 5 701 -29 L701 106 Q628 43 580 17 Q496 -29 405 -29 Q306 -29 220.5 34 Q135 97 135 258 L135 775 Q135 840 114 860 Q93 880 33 893 L33 943 L419 943 Z " />
<glyph glyph-name="v" unicode="v" horiz-adv-x="1024" d="M545 943 L545 893 Q491 891 463.5 881 Q436 871 436 838 Q436 830 443.5 808.5 Q451 787 455 777 L609 384 L625 384 L763 734 Q773 759 779.5 785 Q786 811 786 826 Q786 869 757 880.5 Q728 892 673 893 L673 943 L983 943 L983 893 Q942 890 916 866.5 Q890 843 865 782 L535 -29 L483 -29 L237 578 Q211 642 186.5 698 Q162 754 135 807 Q107 861 91 875 Q75 889 33 893 L33 943 L545 943 Z " />
<glyph glyph-name="w" unicode="w" horiz-adv-x="1479" d="M488 943 L488 893 Q453 890 431 878.5 Q409 867 409 832 Q409 820 412 809 Q415 798 424 775 L576 374 L587 374 L720 711 Q720 718 704 771.5 Q688 825 677 846 Q661 874 646.5 881 Q632 888 587 893 L587 943 L1066 943 L1066 893 Q1022 891 995.5 882 Q969 873 969 847 Q969 832 972.5 812.5 Q976 793 986 760 L1090 393 L1102 393 L1249 784 Q1252 794 1254 803 Q1256 812 1256 820 Q1256 863 1230.5 876 Q1205 889 1156 893 L1156 943 L1434 943 L1434 893 Q1397 886 1375.5 867.5 Q1354 849 1332 791 L1014 -29 L967 -29 L760 592 L751 592 L502 -29 L452 -29 L149 737 Q111 832 93 858.5 Q75 885 33 893 L33 943 L488 943 Z " />
<glyph glyph-name="x" unicode="x" horiz-adv-x="1024" d="M28 47 Q79 55 115.5 80 Q152 105 227 196 Q258 234 309 302 Q360 370 393 412 L130 815 Q98 864 79 876 Q60 888 23 893 L23 943 L535 943 L535 893 Q464 883 452 878.5 Q440 874 440 855 Q440 832 492.5 752.5 Q545 673 585 621 Q687 749 712 785 Q737 821 737 845 Q737 875 712.5 883 Q688 891 632 893 L632 943 L976 943 L976 893 Q938 886 913 876 Q867 856 834 815 L625 557 L929 90 Q940 73 953.5 64.5 Q967 56 990 47 L990 0 L497 0 L497 47 Q540 49 565 57 Q590 65 590 91 Q590 108 569 146 Q557 169 530 211 Q515 234 487 274.5 Q459 315 436 350 Q371 267 339 222 Q272 128 272 101 Q272 69 297.5 59 Q323 49 374 47 L374 0 L28 0 L28 47 Z " />
<glyph glyph-name="y" unicode="y" horiz-adv-x="1024" d="M33 -264 Q33 -194 73.5 -161 Q114 -128 170 -128 Q219 -128 250.5 -157 Q282 -186 282 -226 L277 -271 Q277 -284 287 -295 Q297 -306 312 -306 Q362 -306 405 -225 Q432 -175 483 -29 L237 578 Q211 642 186.5 698 Q162 754 135 807 Q107 861 91 875 Q75 889 33 893 L33 943 L545 943 L545 893 Q497 892 466.5 882 Q436 872 436 839 Q436 832 439.5 820 Q443 808 455 777 L616 365 L632 365 L763 734 Q773 764 779.5 786.5 Q786 809 786 826 Q786 869 757.5 880.5 Q729 892 673 893 L673 943 L983 943 L983 893 Q943 890 917.5 871.5 Q892 853 865 782 L559 -34 Q475 -260 414.5 -341 Q354 -422 225 -422 Q131 -422 82 -372.5 Q33 -323 33 -264 Z " />
<glyph glyph-name="z" unicode="z" horiz-adv-x="909" d="M42 0 L42 52 L521 877 Q323 879 246.5 844.5 Q170 810 130 654 L78 654 L92 943 L850 943 L850 891 L379 61 Q579 66 647 100 Q751 151 803 327 L860 327 L827 0 L42 0 Z " />
<glyph glyph-name="braceleft" unicode="&#x7b;" horiz-adv-x="807" d="M296 296 L291 338 Q286 382 261.5 417.5 Q237 453 196 476 Q162 495 97.5 514 Q33 533 9 533 L9 542 L40 549 Q193 584 244.5 641.5 Q296 699 296 827 L296 988 Q296 1183 354 1270 Q455 1422 758 1422 L758 1370 Q615 1359 560 1270.5 Q505 1182 507 1050 L509 922 Q511 759 472 684 Q404 552 192 538 Q362 521 435.5 445.5 Q509 370 509 210 L509 23 Q509 -145 577 -213.5 Q645 -282 758 -294 L758 -347 Q457 -347 354 -185 Q296 -95 296 90 L296 296 Z " />
<glyph glyph-name="bar" unicode="&#x7c;" horiz-adv-x="451" d="M329 0 L120 0 L120 1412 L329 1412 L329 0 Z " />
<glyph glyph-name="braceright" unicode="&#x7d;" horiz-adv-x="807" d="M47 -294 Q166 -282 231 -209.5 Q296 -137 296 23 L296 210 Q296 371 370.5 445.5 Q445 520 613 538 Q401 552 333 684 Q294 759 296 922 L298 1050 Q300 1180 246.5 1269 Q193 1358 47 1370 L47 1422 Q350 1422 451 1269 Q509 1182 509 988 L509 827 Q509 699 560 641 Q611 583 765 549 L796 542 L796 533 Q772 533 707.5 514 Q643 495 610 476 Q569 453 544 418 Q519 383 514 338 L509 296 L509 90 Q509 -95 451 -185 Q348 -347 47 -347 L47 -294 Z " />
<glyph glyph-name="asciitilde" unicode="&#x7e;" horiz-adv-x="1065" d="M309 734 Q362 734 439 709 Q477 696 540 670 L666 616 Q732 588 770 576 Q836 554 883 554 Q963 554 1010 609.5 Q1057 665 1080 756 L1166 756 Q1123 555 1047 442.5 Q971 330 838 330 Q804 330 722.5 357 Q641 384 561 419 L464 462 Q417 483 382 494 Q322 514 278 514 Q200 514 152 452 Q123 416 92 331 L85 312 L0 312 Q21 452 74 558 Q162 734 309 734 Z " />
<glyph glyph-name="Adieresis" unicode="&#xc4;" horiz-adv-x="1479" d="M805 483 L609 957 L592 957 L407 483 L805 483 Z M37 52 Q111 57 156 119 Q185 158 239 291 L694 1412 L751 1412 L1208 336 Q1285 155 1323 102.5 Q1361 50 1431 52 L1431 0 L768 0 L768 52 Q868 56 899.5 69 Q931 82 931 135 Q931 159 915 208 Q905 237 888 278 L836 402 L376 402 Q331 280 318 243 Q291 164 291 128 Q291 84 350 64 Q385 53 455 52 L455 0 L37 0 L37 52 Z M405 1678 Q405 1733 443.5 1772 Q482 1811 535 1811 Q590 1811 629 1772 Q668 1733 668 1678 Q668 1623 629 1584 Q590 1545 535 1545 Q484 1545 444.5 1583 Q405 1621 405 1678 Z M1097 1678 Q1097 1623 1058.5 1584 Q1020 1545 967 1545 Q912 1545 873 1584 Q834 1623 834 1678 Q834 1733 873 1772 Q912 1811 967 1811 Q1018 1811 1057.5 1773 Q1097 1735 1097 1678 Z " />
<glyph glyph-name="Aring" unicode="&#xc5;" horiz-adv-x="1479" d="M805 483 L609 957 L592 957 L407 483 L805 483 Z M37 52 Q111 57 156 119 Q185 158 239 291 L694 1412 L751 1412 L1208 336 Q1285 155 1323 102.5 Q1361 50 1431 52 L1431 0 L768 0 L768 52 Q868 56 899.5 69 Q931 82 931 135 Q931 159 915 208 Q905 237 888 278 L836 402 L376 402 Q331 280 318 243 Q291 164 291 128 Q291 84 350 64 Q385 53 455 52 L455 0 L37 0 L37 52 Z M633 1742 Q633 1693 668 1658.5 Q703 1624 751 1624 Q800 1624 835 1658.5 Q870 1693 870 1742 Q870 1791 835 1826 Q800 1861 751 1861 Q703 1861 668 1826 Q633 1791 633 1742 Z M533 1742 Q533 1832 597 1896 Q661 1960 751 1960 Q842 1960 905.5 1896 Q969 1832 969 1742 Q969 1652 905.5 1588 Q842 1524 751 1524 Q661 1524 597 1588 Q533 1652 533 1742 Z " />
<glyph glyph-name="Ccedilla" unicode="&#xc7;" horiz-adv-x="1479" d="M792 1410 Q920 1410 1051 1362.5 Q1182 1315 1197 1315 Q1236 1315 1259.5 1345 Q1283 1375 1289 1408 L1346 1408 L1346 929 L1294 929 Q1220 1085 1143 1175 Q999 1341 817 1341 Q611 1341 524.5 1163.5 Q438 986 438 687 Q438 467 489 325 Q584 59 842 59 Q1000 59 1136 147 Q1214 198 1320 310 L1381 260 Q1261 126 1170 66 Q1008 -41 810 -41 Q789 -41 768 -39 L728 -133 Q750 -128 762.5 -126 Q775 -124 795 -124 Q899 -124 938.5 -168 Q978 -212 978 -267 Q978 -369 894 -408.5 Q810 -448 706 -448 Q653 -448 606 -439.5 Q559 -431 512 -413 L546 -337 Q592 -354 615 -359 Q638 -364 672 -364 Q720 -364 752.5 -345.5 Q785 -327 785 -282 Q785 -246 758.5 -226.5 Q732 -207 688 -207 Q670 -207 659 -209 Q648 -211 633 -216 L612 -200 L685 -37 Q435 -11 255 163.5 Q75 338 75 675 Q75 1009 292 1216 Q496 1410 792 1410 Z " />
<glyph glyph-name="Eacute" unicode="&#xc9;" horiz-adv-x="1366" d="M33 0 L33 52 Q121 55 158 76 Q215 108 215 196 L215 1187 Q215 1277 156 1308 Q122 1327 33 1332 L33 1384 L1213 1384 L1213 971 L1163 971 Q1124 1169 1030.5 1242 Q937 1315 690 1315 Q596 1315 570.5 1295.5 Q545 1276 545 1218 L545 744 Q720 742 782 807.5 Q844 873 877 1047 L929 1047 L929 355 L877 355 Q855 530 787.5 601.5 Q720 673 545 673 L545 177 Q545 112 578.5 88.5 Q612 65 716 65 Q912 65 1036 141 Q1160 217 1256 426 L1313 426 L1230 0 L33 0 Z M1025 1816 Q1025 1777 1004 1754.5 Q983 1732 942 1707 L650 1526 L536 1526 L816 1849 Q833 1869 853 1882 Q888 1906 927 1906 Q972 1906 998.5 1880 Q1025 1854 1025 1816 Z " />
<glyph glyph-name="Ntilde" unicode="&#xd1;" horiz-adv-x="1479" d="M33 52 Q147 55 180 95.5 Q213 136 213 215 L213 1185 Q119 1290 97 1308.5 Q75 1327 37 1332 L37 1384 L471 1384 L1175 521 L1185 521 L1185 1130 Q1185 1234 1147 1278.5 Q1109 1323 995 1332 L995 1384 L1436 1384 L1436 1332 Q1340 1316 1307.5 1289 Q1275 1262 1275 1168 L1275 -38 L1218 -38 L317 1057 L303 1057 L303 253 Q303 159 329 120 Q370 57 497 52 L497 0 L33 0 L33 52 Z M627 1825 Q660 1825 699.5 1813.5 Q739 1802 771 1787 L854 1749 Q878 1738 897 1732 Q916 1726 935 1726 Q981 1726 1007 1756 Q1024 1775 1044 1825 L1131 1825 Q1110 1723 1052.5 1645 Q995 1567 885 1567 Q854 1567 823 1574.5 Q792 1582 762 1595 L702 1621 Q623 1655 606.5 1661 Q590 1667 572 1667 Q522 1667 495 1630 Q479 1610 468 1569 L382 1569 Q402 1662 437 1718 Q504 1825 627 1825 Z " />
<glyph glyph-name="Odieresis" unicode="&#xd6;" horiz-adv-x="1593" d="M794 28 Q1024 28 1110 301 Q1156 449 1156 687 Q1156 1014 1058.5 1180 Q961 1346 794 1346 Q562 1346 476 1069 Q431 922 431 687 Q431 448 477 301 Q562 28 794 28 Z M794 1415 Q1104 1415 1309 1215 Q1520 1010 1520 687 Q1520 364 1309 159 Q1103 -41 794 -41 Q466 -41 259 178 Q66 384 66 676 Q66 998 268 1205 Q472 1415 794 1415 Z M447 1678 Q447 1733 485.5 1772 Q524 1811 577 1811 Q632 1811 671 1772 Q710 1733 710 1678 Q710 1623 671 1584 Q632 1545 577 1545 Q526 1545 486.5 1583 Q447 1621 447 1678 Z M1139 1678 Q1139 1623 1100.5 1584 Q1062 1545 1009 1545 Q954 1545 915 1584 Q876 1623 876 1678 Q876 1733 915 1772 Q954 1811 1009 1811 Q1060 1811 1099.5 1773 Q1139 1735 1139 1678 Z " />
<glyph glyph-name="Udieresis" unicode="&#xdc;" horiz-adv-x="1479" d="M725 1384 L725 1332 Q606 1328 566 1295 Q526 1262 526 1144 L526 459 Q526 303 563 218 Q630 60 820 60 Q1056 60 1139 235 Q1185 331 1185 504 L1185 1130 Q1185 1240 1144.5 1281.5 Q1104 1323 986 1332 L986 1384 L1436 1384 L1436 1332 Q1338 1313 1306.5 1285.5 Q1275 1258 1275 1159 L1275 504 Q1275 243 1149 101 Q1023 -41 753 -41 Q400 -41 270 170 Q201 282 201 459 L201 1144 Q201 1260 170.5 1290 Q140 1320 33 1332 L33 1384 L725 1384 Z M449 1678 Q449 1733 487.5 1772 Q526 1811 579 1811 Q634 1811 673 1772 Q712 1733 712 1678 Q712 1623 673 1584 Q634 1545 579 1545 Q528 1545 488.5 1583 Q449 1621 449 1678 Z M1141 1678 Q1141 1623 1102.5 1584 Q1064 1545 1011 1545 Q956 1545 917 1584 Q878 1623 878 1678 Q878 1733 917 1772 Q956 1811 1011 1811 Q1062 1811 1101.5 1773 Q1141 1735 1141 1678 Z " />
<glyph glyph-name="aacute" unicode="&#xe1;" horiz-adv-x="1024" d="M449 117 Q499 117 542 147 Q566 165 599 203 L599 502 Q517 482 455 439 Q350 366 350 253 Q350 186 380.5 151.5 Q411 117 449 117 Z M52 191 Q52 329 185 410 Q318 491 602 573 L602 722 Q602 813 563.5 856.5 Q525 900 427 900 Q372 900 336.5 879.5 Q301 859 301 828 Q301 816 305 808 Q309 800 317 791 L329 777 Q343 760 351.5 739.5 Q360 719 360 696 Q360 638 321.5 606.5 Q283 575 232 575 Q173 575 131.5 610 Q90 645 90 711 Q90 829 201 898 Q312 967 474 967 Q648 967 765 900 Q881 832 881 650 L881 154 Q881 132 892.5 116.5 Q904 101 918 101 Q930 101 939.5 105.5 Q949 110 969 130 L1000 87 Q940 17 867 -11 Q821 -29 770 -29 Q679 -29 637 24 Q613 54 602 113 Q517 28 410 -7 Q345 -29 282 -29 Q198 -29 125 24.5 Q52 78 52 191 Z M818 1370 Q818 1331 797 1308.5 Q776 1286 735 1261 L443 1080 L329 1080 L609 1403 Q626 1423 646 1436 Q681 1460 720 1460 Q765 1460 791.5 1434 Q818 1408 818 1370 Z " />
<glyph glyph-name="agrave" unicode="&#xe0;" horiz-adv-x="1024" d="M449 117 Q499 117 542 147 Q566 165 599 203 L599 502 Q517 482 455 439 Q350 366 350 253 Q350 186 380.5 151.5 Q411 117 449 117 Z M52 191 Q52 329 185 410 Q318 491 602 573 L602 722 Q602 813 563.5 856.5 Q525 900 427 900 Q372 900 336.5 879.5 Q301 859 301 828 Q301 816 305 808 Q309 800 317 791 L329 777 Q343 760 351.5 739.5 Q360 719 360 696 Q360 638 321.5 606.5 Q283 575 232 575 Q173 575 131.5 610 Q90 645 90 711 Q90 829 201 898 Q312 967 474 967 Q648 967 765 900 Q881 832 881 650 L881 154 Q881 132 892.5 116.5 Q904 101 918 101 Q930 101 939.5 105.5 Q949 110 969 130 L1000 87 Q940 17 867 -11 Q821 -29 770 -29 Q679 -29 637 24 Q613 54 602 113 Q517 28 410 -7 Q345 -29 282 -29 Q198 -29 125 24.5 Q52 78 52 191 Z M168 1370 Q168 1411 196.5 1435.5 Q225 1460 263 1460 Q296 1460 325 1445 Q354 1430 377 1403 L657 1080 L543 1080 L251 1261 Q211 1286 189.5 1309 Q168 1332 168 1370 Z " />
<glyph glyph-name="acircumflex" unicode="&#xe2;" horiz-adv-x="1024" d="M449 117 Q499 117 542 147 Q566 165 599 203 L599 502 Q517 482 455 439 Q350 366 350 253 Q350 186 380.5 151.5 Q411 117 449 117 Z M52 191 Q52 329 185 410 Q318 491 602 573 L602 722 Q602 813 563.5 856.5 Q525 900 427 900 Q372 900 336.5 879.5 Q301 859 301 828 Q301 816 305 808 Q309 800 317 791 L329 777 Q343 760 351.5 739.5 Q360 719 360 696 Q360 638 321.5 606.5 Q283 575 232 575 Q173 575 131.5 610 Q90 645 90 711 Q90 829 201 898 Q312 967 474 967 Q648 967 765 900 Q881 832 881 650 L881 154 Q881 132 892.5 116.5 Q904 101 918 101 Q930 101 939.5 105.5 Q949 110 969 130 L1000 87 Q940 17 867 -11 Q821 -29 770 -29 Q679 -29 637 24 Q613 54 602 113 Q517 28 410 -7 Q345 -29 282 -29 Q198 -29 125 24.5 Q52 78 52 191 Z M839 1080 L723 1080 L493 1282 L263 1080 L147 1080 L398 1441 L588 1441 L839 1080 Z " />
<glyph glyph-name="adieresis" unicode="&#xe4;" horiz-adv-x="1024" d="M449 117 Q499 117 542 147 Q566 165 599 203 L599 502 Q517 482 455 439 Q350 366 350 253 Q350 186 380.5 151.5 Q411 117 449 117 Z M52 191 Q52 329 185 410 Q318 491 602 573 L602 722 Q602 813 563.5 856.5 Q525 900 427 900 Q372 900 336.5 879.5 Q301 859 301 828 Q301 816 305 808 Q309 800 317 791 L329 777 Q343 760 351.5 739.5 Q360 719 360 696 Q360 638 321.5 606.5 Q283 575 232 575 Q173 575 131.5 610 Q90 645 90 711 Q90 829 201 898 Q312 967 474 967 Q648 967 765 900 Q881 832 881 650 L881 154 Q881 132 892.5 116.5 Q904 101 918 101 Q930 101 939.5 105.5 Q949 110 969 130 L1000 87 Q940 17 867 -11 Q821 -29 770 -29 Q679 -29 637 24 Q613 54 602 113 Q517 28 410 -7 Q345 -29 282 -29 Q198 -29 125 24.5 Q52 78 52 191 Z M147 1232 Q147 1287 185.5 1326 Q224 1365 277 1365 Q332 1365 371 1326 Q410 1287 410 1232 Q410 1177 371 1138 Q332 1099 277 1099 Q226 1099 186.5 1137 Q147 1175 147 1232 Z M839 1232 Q839 1177 800.5 1138 Q762 1099 709 1099 Q654 1099 615 1138 Q576 1177 576 1232 Q576 1287 615 1326 Q654 1365 709 1365 Q760 1365 799.5 1327 Q839 1289 839 1232 Z " />
<glyph glyph-name="atilde" unicode="&#xe3;" horiz-adv-x="1024" d="M449 117 Q499 117 542 147 Q566 165 599 203 L599 502 Q517 482 455 439 Q350 366 350 253 Q350 186 380.5 151.5 Q411 117 449 117 Z M52 191 Q52 329 185 410 Q318 491 602 573 L602 722 Q602 813 563.5 856.5 Q525 900 427 900 Q372 900 336.5 879.5 Q301 859 301 828 Q301 816 305 808 Q309 800 317 791 L329 777 Q343 760 351.5 739.5 Q360 719 360 696 Q360 638 321.5 606.5 Q283 575 232 575 Q173 575 131.5 610 Q90 645 90 711 Q90 829 201 898 Q312 967 474 967 Q648 967 765 900 Q881 832 881 650 L881 154 Q881 132 892.5 116.5 Q904 101 918 101 Q930 101 939.5 105.5 Q949 110 969 130 L1000 87 Q940 17 867 -11 Q821 -29 770 -29 Q679 -29 637 24 Q613 54 602 113 Q517 28 410 -7 Q345 -29 282 -29 Q198 -29 125 24.5 Q52 78 52 191 Z M363 1379 Q396 1379 435.5 1367.5 Q475 1356 507 1341 L590 1303 Q614 1292 633 1286 Q652 1280 671 1280 Q717 1280 743 1310 Q760 1329 780 1379 L867 1379 Q846 1277 788.5 1199 Q731 1121 621 1121 Q590 1121 559 1128.5 Q528 1136 498 1149 L438 1175 Q359 1209 342.5 1215 Q326 1221 308 1221 Q258 1221 231 1184 Q215 1164 204 1123 L118 1123 Q138 1216 173 1272 Q240 1379 363 1379 Z " />
<glyph glyph-name="aring" unicode="&#xe5;" horiz-adv-x="1024" d="M449 117 Q499 117 542 147 Q566 165 599 203 L599 502 Q517 482 455 439 Q350 366 350 253 Q350 186 380.5 151.5 Q411 117 449 117 Z M52 191 Q52 329 185 410 Q318 491 602 573 L602 722 Q602 813 563.5 856.5 Q525 900 427 900 Q372 900 336.5 879.5 Q301 859 301 828 Q301 816 305 808 Q309 800 317 791 L329 777 Q343 760 351.5 739.5 Q360 719 360 696 Q360 638 321.5 606.5 Q283 575 232 575 Q173 575 131.5 610 Q90 645 90 711 Q90 829 201 898 Q312 967 474 967 Q648 967 765 900 Q881 832 881 650 L881 154 Q881 132 892.5 116.5 Q904 101 918 101 Q930 101 939.5 105.5 Q949 110 969 130 L1000 87 Q940 17 867 -11 Q821 -29 770 -29 Q679 -29 637 24 Q613 54 602 113 Q517 28 410 -7 Q345 -29 282 -29 Q198 -29 125 24.5 Q52 78 52 191 Z M375 1296 Q375 1247 410 1212.5 Q445 1178 493 1178 Q542 1178 577 1212.5 Q612 1247 612 1296 Q612 1345 577 1380 Q542 1415 493 1415 Q445 1415 410 1380 Q375 1345 375 1296 Z M275 1296 Q275 1386 339 1450 Q403 1514 493 1514 Q584 1514 647.5 1450 Q711 1386 711 1296 Q711 1206 647.5 1142 Q584 1078 493 1078 Q403 1078 339 1142 Q275 1206 275 1296 Z " />
<glyph glyph-name="ccedilla" unicode="&#xe7;" horiz-adv-x="909" d="M528 969 Q657 969 751.5 906 Q846 843 846 744 Q846 691 808.5 652 Q771 613 713 613 Q674 613 645 631 Q590 663 590 747 Q590 756 591 773.5 Q592 791 592 811 Q592 865 567 885 Q541 905 508 905 Q413 905 373 800.5 Q333 696 333 561 Q333 369 409 239 Q485 109 614 109 Q695 109 752 145 Q786 166 836 222 L874 187 Q774 48 640 -4 Q569 -31 492 -31 L448 -133 Q470 -128 482.5 -126 Q495 -124 515 -124 Q619 -124 658.5 -168 Q698 -212 698 -267 Q698 -369 614 -408.5 Q530 -448 426 -448 Q373 -448 326 -439.5 Q279 -431 232 -413 L266 -337 Q312 -354 335 -359 Q358 -364 392 -364 Q440 -364 472.5 -345.5 Q505 -327 505 -282 Q505 -246 478.5 -226.5 Q452 -207 408 -207 Q390 -207 379 -209 Q368 -211 353 -216 L332 -200 L409 -23 Q239 4 140.5 127.5 Q42 251 42 454 Q42 668 174.5 818.5 Q307 969 528 969 Z " />
<glyph glyph-name="eacute" unicode="&#xe9;" horiz-adv-x="909" d="M46 470 Q46 706 171.5 836.5 Q297 967 474 967 Q575 967 664 914 Q753 861 801 767 Q837 696 851 583 Q858 530 858 502 L336 502 Q343 379 376 289 Q436 120 587 120 Q659 120 723 165 Q762 192 820 256 L867 227 Q772 71 647 10 Q566 -29 461 -29 Q310 -29 178 90 Q46 209 46 470 Z M606 578 Q604 759 578 831 Q552 903 474 903 Q394 903 364.5 820 Q335 737 331 578 L606 578 Z M797 1370 Q797 1331 776 1308.5 Q755 1286 714 1261 L422 1080 L308 1080 L588 1403 Q605 1423 625 1436 Q660 1460 699 1460 Q744 1460 770.5 1434 Q797 1408 797 1370 Z " />
<glyph glyph-name="egrave" unicode="&#xe8;" horiz-adv-x="909" d="M46 470 Q46 706 171.5 836.5 Q297 967 474 967 Q575 967 664 914 Q753 861 801 767 Q837 696 851 583 Q858 530 858 502 L336 502 Q343 379 376 289 Q436 120 587 120 Q659 120 723 165 Q762 192 820 256 L867 227 Q772 71 647 10 Q566 -29 461 -29 Q310 -29 178 90 Q46 209 46 470 Z M606 578 Q604 759 578 831 Q552 903 474 903 Q394 903 364.5 820 Q335 737 331 578 L606 578 Z M147 1370 Q147 1411 175.5 1435.5 Q204 1460 242 1460 Q275 1460 304 1445 Q333 1430 356 1403 L636 1080 L522 1080 L230 1261 Q190 1286 168.5 1309 Q147 1332 147 1370 Z " />
<glyph glyph-name="ecircumflex" unicode="&#xea;" horiz-adv-x="909" d="M46 470 Q46 706 171.5 836.5 Q297 967 474 967 Q575 967 664 914 Q753 861 801 767 Q837 696 851 583 Q858 530 858 502 L336 502 Q343 379 376 289 Q436 120 587 120 Q659 120 723 165 Q762 192 820 256 L867 227 Q772 71 647 10 Q566 -29 461 -29 Q310 -29 178 90 Q46 209 46 470 Z M606 578 Q604 759 578 831 Q552 903 474 903 Q394 903 364.5 820 Q335 737 331 578 L606 578 Z M818 1080 L702 1080 L472 1282 L242 1080 L126 1080 L377 1441 L567 1441 L818 1080 Z " />
<glyph glyph-name="edieresis" unicode="&#xeb;" horiz-adv-x="909" d="M46 470 Q46 706 171.5 836.5 Q297 967 474 967 Q575 967 664 914 Q753 861 801 767 Q837 696 851 583 Q858 530 858 502 L336 502 Q343 379 376 289 Q436 120 587 120 Q659 120 723 165 Q762 192 820 256 L867 227 Q772 71 647 10 Q566 -29 461 -29 Q310 -29 178 90 Q46 209 46 470 Z M606 578 Q604 759 578 831 Q552 903 474 903 Q394 903 364.5 820 Q335 737 331 578 L606 578 Z M126 1232 Q126 1287 164.5 1326 Q203 1365 256 1365 Q311 1365 350 1326 Q389 1287 389 1232 Q389 1177 350 1138 Q311 1099 256 1099 Q205 1099 165.5 1137 Q126 1175 126 1232 Z M818 1232 Q818 1177 779.5 1138 Q741 1099 688 1099 Q633 1099 594 1138 Q555 1177 555 1232 Q555 1287 594 1326 Q633 1365 688 1365 Q739 1365 778.5 1327 Q818 1289 818 1232 Z " />
<glyph glyph-name="iacute" unicode="&#xed;" horiz-adv-x="569" d="M33 49 Q87 58 107 76 Q137 103 137 173 L137 775 Q137 837 116 859.5 Q95 882 33 893 L33 943 L426 943 L426 165 Q426 98 446 79 Q466 60 521 49 L521 0 L33 0 L33 49 Z M609 1370 Q609 1331 588 1308.5 Q567 1286 526 1261 L234 1080 L120 1080 L400 1403 Q417 1423 437 1436 Q472 1460 511 1460 Q556 1460 582.5 1434 Q609 1408 609 1370 Z " />
<glyph glyph-name="igrave" unicode="&#xec;" horiz-adv-x="569" d="M33 49 Q87 58 107 76 Q137 103 137 173 L137 775 Q137 837 116 859.5 Q95 882 33 893 L33 943 L426 943 L426 165 Q426 98 446 79 Q466 60 521 49 L521 0 L33 0 L33 49 Z M-41 1370 Q-41 1411 -12.5 1435.5 Q16 1460 54 1460 Q87 1460 116 1445 Q145 1430 168 1403 L448 1080 L334 1080 L42 1261 Q2 1286 -19.5 1309 Q-41 1332 -41 1370 Z " />
<glyph glyph-name="icircumflex" unicode="&#xee;" horiz-adv-x="569" d="M33 49 Q87 58 107 76 Q137 103 137 173 L137 775 Q137 837 116 859.5 Q95 882 33 893 L33 943 L426 943 L426 165 Q426 98 446 79 Q466 60 521 49 L521 0 L33 0 L33 49 Z M630 1080 L514 1080 L284 1282 L54 1080 L-62 1080 L189 1441 L379 1441 L630 1080 Z " />
<glyph glyph-name="idieresis" unicode="&#xef;" horiz-adv-x="569" d="M33 49 Q87 58 107 76 Q137 103 137 173 L137 775 Q137 837 116 859.5 Q95 882 33 893 L33 943 L426 943 L426 165 Q426 98 446 79 Q466 60 521 49 L521 0 L33 0 L33 49 Z M-62 1232 Q-62 1287 -23.5 1326 Q15 1365 68 1365 Q123 1365 162 1326 Q201 1287 201 1232 Q201 1177 162 1138 Q123 1099 68 1099 Q17 1099 -22.5 1137 Q-62 1175 -62 1232 Z M630 1232 Q630 1177 591.5 1138 Q553 1099 500 1099 Q445 1099 406 1138 Q367 1177 367 1232 Q367 1287 406 1326 Q445 1365 500 1365 Q551 1365 590.5 1327 Q630 1289 630 1232 Z " />
<glyph glyph-name="ntilde" unicode="&#xf1;" horiz-adv-x="1139" d="M33 49 Q89 56 115.5 79.5 Q142 103 142 173 L142 775 Q142 837 120.5 861 Q99 885 33 893 L33 943 L421 943 L421 796 Q470 870 545.5 918.5 Q621 967 713 967 Q845 967 917.5 899 Q990 831 990 660 L990 165 Q990 96 1013.5 76 Q1037 56 1092 49 L1092 0 L611 0 L611 49 Q666 60 686 79 Q706 98 706 165 L706 661 Q706 731 692 766 Q668 829 597 829 Q544 829 499.5 790.5 Q455 752 431 713 L431 165 Q431 98 451 79 Q471 60 526 49 L526 0 L33 0 L33 49 Z M438 1379 Q471 1379 510.5 1367.5 Q550 1356 582 1341 L665 1303 Q689 1292 708 1286 Q727 1280 746 1280 Q792 1280 818 1310 Q835 1329 855 1379 L942 1379 Q921 1277 863.5 1199 Q806 1121 696 1121 Q665 1121 634 1128.5 Q603 1136 573 1149 L513 1175 Q434 1209 417.5 1215 Q401 1221 383 1221 Q333 1221 306 1184 Q290 1164 279 1123 L193 1123 Q213 1216 248 1272 Q315 1379 438 1379 Z " />
<glyph glyph-name="oacute" unicode="&#xf3;" horiz-adv-x="1024" d="M45 469 Q45 683 176.5 826 Q308 969 507 969 Q710 969 839.5 823 Q969 677 969 469 Q969 264 841 116.5 Q713 -31 507 -31 Q307 -31 176 112.5 Q45 256 45 469 Z M346 469 Q346 254 368 168 Q403 35 507 35 Q606 35 637 137 Q668 239 668 469 Q668 698 635.5 800.5 Q603 903 508 903 Q404 903 369 770 Q346 681 346 469 Z M832 1370 Q832 1331 811 1308.5 Q790 1286 749 1261 L457 1080 L343 1080 L623 1403 Q640 1423 660 1436 Q695 1460 734 1460 Q779 1460 805.5 1434 Q832 1408 832 1370 Z " />
<glyph glyph-name="ograve" unicode="&#xf2;" horiz-adv-x="1024" d="M45 469 Q45 683 176.5 826 Q308 969 507 969 Q710 969 839.5 823 Q969 677 969 469 Q969 264 841 116.5 Q713 -31 507 -31 Q307 -31 176 112.5 Q45 256 45 469 Z M346 469 Q346 254 368 168 Q403 35 507 35 Q606 35 637 137 Q668 239 668 469 Q668 698 635.5 800.5 Q603 903 508 903 Q404 903 369 770 Q346 681 346 469 Z M182 1370 Q182 1411 210.5 1435.5 Q239 1460 277 1460 Q310 1460 339 1445 Q368 1430 391 1403 L671 1080 L557 1080 L265 1261 Q225 1286 203.5 1309 Q182 1332 182 1370 Z " />
<glyph glyph-name="ocircumflex" unicode="&#xf4;" horiz-adv-x="1024" d="M45 469 Q45 683 176.5 826 Q308 969 507 969 Q710 969 839.5 823 Q969 677 969 469 Q969 264 841 116.5 Q713 -31 507 -31 Q307 -31 176 112.5 Q45 256 45 469 Z M346 469 Q346 254 368 168 Q403 35 507 35 Q606 35 637 137 Q668 239 668 469 Q668 698 635.5 800.5 Q603 903 508 903 Q404 903 369 770 Q346 681 346 469 Z M853 1080 L737 1080 L507 1282 L277 1080 L161 1080 L412 1441 L602 1441 L853 1080 Z " />
<glyph glyph-name="odieresis" unicode="&#xf6;" horiz-adv-x="1024" d="M45 469 Q45 683 176.5 826 Q308 969 507 969 Q710 969 839.5 823 Q969 677 969 469 Q969 264 841 116.5 Q713 -31 507 -31 Q307 -31 176 112.5 Q45 256 45 469 Z M346 469 Q346 254 368 168 Q403 35 507 35 Q606 35 637 137 Q668 239 668 469 Q668 698 635.5 800.5 Q603 903 508 903 Q404 903 369 770 Q346 681 346 469 Z M161 1232 Q161 1287 199.5 1326 Q238 1365 291 1365 Q346 1365 385 1326 Q424 1287 424 1232 Q424 1177 385 1138 Q346 1099 291 1099 Q240 1099 200.5 1137 Q161 1175 161 1232 Z M853 1232 Q853 1177 814.5 1138 Q776 1099 723 1099 Q668 1099 629 1138 Q590 1177 590 1232 Q590 1287 629 1326 Q668 1365 723 1365 Q774 1365 813.5 1327 Q853 1289 853 1232 Z " />
<glyph glyph-name="otilde" unicode="&#xf5;" horiz-adv-x="1024" d="M45 469 Q45 683 176.5 826 Q308 969 507 969 Q710 969 839.5 823 Q969 677 969 469 Q969 264 841 116.5 Q713 -31 507 -31 Q307 -31 176 112.5 Q45 256 45 469 Z M346 469 Q346 254 368 168 Q403 35 507 35 Q606 35 637 137 Q668 239 668 469 Q668 698 635.5 800.5 Q603 903 508 903 Q404 903 369 770 Q346 681 346 469 Z M377 1379 Q410 1379 449.5 1367.5 Q489 1356 521 1341 L604 1303 Q628 1292 647 1286 Q666 1280 685 1280 Q731 1280 757 1310 Q774 1329 794 1379 L881 1379 Q860 1277 802.5 1199 Q745 1121 635 1121 Q604 1121 573 1128.5 Q542 1136 512 1149 L452 1175 Q373 1209 356.5 1215 Q340 1221 322 1221 Q272 1221 245 1184 Q229 1164 218 1123 L132 1123 Q152 1216 187 1272 Q254 1379 377 1379 Z " />
<glyph glyph-name="uacute" unicode="&#xfa;" horiz-adv-x="1139" d="M419 943 L419 248 Q419 186 434 157 Q460 106 537 106 Q586 106 633 137 Q660 154 701 194 L701 775 Q701 839 675.5 864.5 Q650 890 573 893 L573 943 L981 943 L981 206 Q981 142 1005 117.5 Q1029 93 1099 87 L1099 40 Q909 22 859.5 13.5 Q810 5 701 -29 L701 106 Q628 43 580 17 Q496 -29 405 -29 Q306 -29 220.5 34 Q135 97 135 258 L135 775 Q135 840 114 860 Q93 880 33 893 L33 943 L419 943 Z M875 1370 Q875 1331 854 1308.5 Q833 1286 792 1261 L500 1080 L386 1080 L666 1403 Q683 1423 703 1436 Q738 1460 777 1460 Q822 1460 848.5 1434 Q875 1408 875 1370 Z " />
<glyph glyph-name="ugrave" unicode="&#xf9;" horiz-adv-x="1139" d="M419 943 L419 248 Q419 186 434 157 Q460 106 537 106 Q586 106 633 137 Q660 154 701 194 L701 775 Q701 839 675.5 864.5 Q650 890 573 893 L573 943 L981 943 L981 206 Q981 142 1005 117.5 Q1029 93 1099 87 L1099 40 Q909 22 859.5 13.5 Q810 5 701 -29 L701 106 Q628 43 580 17 Q496 -29 405 -29 Q306 -29 220.5 34 Q135 97 135 258 L135 775 Q135 840 114 860 Q93 880 33 893 L33 943 L419 943 Z M225 1370 Q225 1411 253.5 1435.5 Q282 1460 320 1460 Q353 1460 382 1445 Q411 1430 434 1403 L714 1080 L600 1080 L308 1261 Q268 1286 246.5 1309 Q225 1332 225 1370 Z " />
<glyph glyph-name="ucircumflex" unicode="&#xfb;" horiz-adv-x="1139" d="M419 943 L419 248 Q419 186 434 157 Q460 106 537 106 Q586 106 633 137 Q660 154 701 194 L701 775 Q701 839 675.5 864.5 Q650 890 573 893 L573 943 L981 943 L981 206 Q981 142 1005 117.5 Q1029 93 1099 87 L1099 40 Q909 22 859.5 13.5 Q810 5 701 -29 L701 106 Q628 43 580 17 Q496 -29 405 -29 Q306 -29 220.5 34 Q135 97 135 258 L135 775 Q135 840 114 860 Q93 880 33 893 L33 943 L419 943 Z M896 1080 L780 1080 L550 1282 L320 1080 L204 1080 L455 1441 L645 1441 L896 1080 Z " />
<glyph glyph-name="udieresis" unicode="&#xfc;" horiz-adv-x="1139" d="M419 943 L419 248 Q419 186 434 157 Q460 106 537 106 Q586 106 633 137 Q660 154 701 194 L701 775 Q701 839 675.5 864.5 Q650 890 573 893 L573 943 L981 943 L981 206 Q981 142 1005 117.5 Q1029 93 1099 87 L1099 40 Q909 22 859.5 13.5 Q810 5 701 -29 L701 106 Q628 43 580 17 Q496 -29 405 -29 Q306 -29 220.5 34 Q135 97 135 258 L135 775 Q135 840 114 860 Q93 880 33 893 L33 943 L419 943 Z M204 1232 Q204 1287 242.5 1326 Q281 1365 334 1365 Q389 1365 428 1326 Q467 1287 467 1232 Q467 1177 428 1138 Q389 1099 334 1099 Q283 1099 243.5 1137 Q204 1175 204 1232 Z M896 1232 Q896 1177 857.5 1138 Q819 1099 766 1099 Q711 1099 672 1138 Q633 1177 633 1232 Q633 1287 672 1326 Q711 1365 766 1365 Q817 1365 856.5 1327 Q896 1289 896 1232 Z " />
<glyph glyph-name="dagger" unicode="&#x2020;" horiz-adv-x="1024" d="M92 931 Q92 976 119 1010.5 Q146 1045 193 1045 Q246 1045 327.5 1000 Q409 955 483 955 Q483 1090 438 1175.5 Q393 1261 393 1296 Q393 1354 426.5 1384.5 Q460 1415 514 1415 Q563 1415 594 1384.5 Q625 1354 625 1308 Q625 1257 576 1165 Q527 1073 530 955 Q599 958 683 1001.5 Q767 1045 819 1045 Q868 1045 896 1010 Q924 975 924 934 Q924 890 895 858.5 Q866 827 819 827 Q774 827 690.5 870.5 Q607 914 530 912 Q536 739 579.5 655.5 Q623 572 644 550 Q641 541 637 531 Q633 521 622 486 Q586 375 565 263 Q544 151 540 21 L530 -278 L488 -278 L476 21 Q467 239 425 385 Q383 531 372 550 Q399 571 441 654.5 Q483 738 483 912 Q380 903 309 863.5 Q238 824 197 824 Q153 824 122.5 852.5 Q92 881 92 931 Z " />
<glyph glyph-name="degree" unicode="&#xb0;" horiz-adv-x="819" d="M234 1102 Q234 1027 285.5 976.5 Q337 926 410 926 Q478 926 530.5 976 Q583 1026 583 1102 Q583 1176 532 1225.5 Q481 1275 410 1275 Q338 1275 286 1225 Q234 1175 234 1102 Z M410 1408 Q529 1408 622 1319.5 Q715 1231 715 1102 Q715 973 625 883.5 Q535 794 410 794 Q280 794 190.5 885.5 Q101 977 101 1102 Q101 1230 193.5 1319 Q286 1408 410 1408 Z " />
<glyph glyph-name="cent" unicode="&#xa2;" horiz-adv-x="1024" d="M661 824 Q650 861 632 883 Q614 905 572 905 Q477 905 437 800.5 Q397 696 397 561 Q397 453 423 360 Q437 309 462 256 L661 824 Z M938 187 Q864 85 768 27 Q672 -31 557 -31 Q545 -31 518.5 -30 Q492 -29 445 -19 L348 -290 L265 -290 L372 7 Q201 92 138 258 Q104 346 104 457 Q104 673 242 821 Q380 969 589 969 Q626 969 651 964.5 Q676 960 706 952 L796 1204 L879 1204 L782 929 Q839 900 873 852.5 Q907 805 907 747 Q907 678 859 640 Q816 613 778 613 Q744 613 724.5 622 Q705 631 682 649 L516 180 Q559 142 584 130 Q623 109 675 109 Q757 109 815 145 Q852 167 900 222 L938 187 Z " />
<glyph glyph-name="sterling" unicode="&#xa3;" horiz-adv-x="1024" d="M218 35 Q286 35 327.5 82 Q369 129 369 172 Q369 184 325 213 Q281 241 219 241 Q169 241 139 211.5 Q109 182 109 135 Q109 73 157 48 Q183 35 218 35 Z M260 336 Q286 336 310 332.5 Q334 329 365 322 Q360 384 345 436 Q330 488 279 630 L80 630 L80 763 L244 763 Q227 837 220 908 Q215 954 215 990 Q215 1183 330 1291.5 Q445 1400 614 1400 Q810 1400 891 1305 Q939 1248 939 1170 Q939 1104 903 1062.5 Q867 1021 794 1021 Q739 1021 706 1059 Q673 1097 673 1154 Q673 1161 677 1242 Q677 1284 663 1306 Q641 1339 583 1339 Q534 1339 503.5 1307.5 Q473 1276 473 1198 Q473 1169 502.5 1013 Q532 857 552 763 L786 763 L786 630 L564 630 Q564 623 567 569 Q568 552 568 535 Q568 476 559.5 427 Q551 378 526 274 Q607 247 635 240 Q680 229 720 229 Q830 229 876 271 Q905 297 929 374 L976 374 Q967 218 931 131 Q863 -30 697 -30 Q635 -30 593 -6.5 Q551 17 452 99 Q399 34 363 10 Q302 -29 210 -29 Q139 -29 88 19.5 Q37 68 37 144 Q37 214 87.5 275 Q138 336 260 336 Z " />
<glyph glyph-name="section" unicode="&#xa7;" horiz-adv-x="1024" d="M638 320 Q690 320 726 355.5 Q762 391 762 447 Q762 489 737.5 527 Q713 565 625 648 Q585 688 531 727 Q439 794 383 794 Q342 794 299.5 765 Q257 736 257 663 Q257 606 313 543 Q347 505 452 419 Q517 366 548 348 Q595 320 638 320 Z M673 1076 Q625 1076 593 1109.5 Q561 1143 561 1183 Q561 1225 601.5 1261.5 Q642 1298 642 1308 Q642 1324 611.5 1343 Q581 1362 521 1362 Q435 1362 393 1315.5 Q351 1269 351 1205 Q351 1153 397 1103 Q443 1053 623 921 Q749 821 822 725.5 Q895 630 895 520 Q895 420 816 349.5 Q737 279 649 279 L649 260 Q725 200 770 132.5 Q815 65 815 -27 Q815 -137 728.5 -212 Q642 -287 488 -287 Q385 -287 291.5 -230 Q198 -173 198 -81 Q198 -25 233.5 10 Q269 45 313 45 Q369 45 401 13.5 Q433 -18 433 -64 Q433 -108 392.5 -139 Q352 -170 352 -182 Q352 -207 394.5 -227 Q437 -247 490 -247 Q601 -247 644 -177 Q666 -141 666 -98 Q666 -43 634 2 Q615 30 578 59 L459 154 Q265 309 193 394 Q120 479 120 591 Q120 683 191.5 758.5 Q263 834 384 834 L384 853 Q295 937 264 980 Q215 1050 215 1130 Q215 1259 299.5 1331 Q384 1403 507 1403 Q609 1403 700 1348 Q791 1293 791 1200 Q791 1144 756.5 1110 Q722 1076 673 1076 Z " />
<glyph glyph-name="bullet" unicode="&#x2022;" horiz-adv-x="717" d="M353 398 Q231 398 146 484 Q61 570 61 692 Q61 813 146.5 898 Q232 983 353 983 Q474 983 558 898 Q642 813 642 692 Q642 570 557 484 Q472 398 353 398 Z " />
<glyph glyph-name="paragraph" unicode="&#xb6;" horiz-adv-x="1106" d="M656 1339 Q597 1290 585 1221 Q573 1152 573 914 L573 398 Q573 79 551 -38 Q529 -155 429 -214 L431 -226 Q637 -178 689 -40.5 Q741 97 741 398 L741 779 Q741 860 743.5 969 Q746 1078 749 1118 Q756 1217 772 1262.5 Q788 1308 820 1339 L656 1339 Z M1028 1384 L1028 1341 Q928 1339 906 1249.5 Q884 1160 884 891 L884 353 Q884 137 816 -14 Q693 -288 374 -288 Q266 -288 199.5 -244 Q133 -200 133 -135 Q133 -99 159.5 -60.5 Q186 -22 243 -22 Q292 -22 323 -53.5 Q354 -85 354 -131 Q354 -153 345.5 -172 Q337 -191 320 -207 Q426 -207 470 -90 Q496 -23 504 113 Q507 164 508 352 Q509 453 509 604 Q343 600 216.5 709.5 Q90 819 90 993 Q90 1103 144.5 1192 Q199 1281 296 1328 Q363 1361 444 1372.5 Q525 1384 696 1384 L1028 1384 Z " />
<glyph glyph-name="germandbls" unicode="&#xdf;" horiz-adv-x="1139" d="M37 49 Q102 58 123 83 Q144 108 144 177 L144 990 Q144 1216 267 1314 Q390 1412 564 1412 Q752 1412 863 1321 Q974 1230 974 1102 Q974 986 890.5 911.5 Q807 837 682 810 L682 796 L718 787 Q863 751 957.5 660 Q1052 569 1058 413 Q1065 203 937 88 Q809 -27 672 -27 Q628 -27 598.5 -18 Q569 -9 540 7 L568 75 L577 70 Q604 54 613 50.5 Q622 47 638 47 Q713 47 736.5 129 Q760 211 760 402 Q760 623 710 691 Q660 759 549 763 L549 834 Q635 839 664.5 878.5 Q694 918 694 1085 Q694 1246 656 1300.5 Q618 1355 549 1355 Q496 1355 461 1316.5 Q426 1278 426 1199 L426 0 L37 0 L37 49 Z " />
<glyph glyph-name="registered" unicode="&#xae;" horiz-adv-x="1530" d="M1123 884 Q1123 783 1012 731 Q952 703 874 694 L874 687 L884 685 Q1032 684 1073 460 Q1091 402 1114 402 Q1133 402 1141 420 Q1149 438 1154 483 L1213 483 Q1208 405 1165.5 344.5 Q1123 284 1042 284 Q970 284 932 330 Q910 356 895 409 Q887 449 884 470.5 Q881 492 879 512 Q861 612 790 642 Q749 659 658 656 L658 516 Q658 434 675 407.5 Q692 381 768 381 L768 305 L376 305 L376 381 Q455 381 469.5 417 Q484 453 484 632 L484 764 Q484 845 483 896 Q482 955 462.5 978.5 Q443 1002 376 1002 L376 1078 Q465 1078 649.5 1077.5 Q834 1077 859 1076 Q947 1069 1006 1045 Q1123 995 1123 884 Z M139 687 Q139 424 325 242 Q508 64 765 64 Q1018 64 1200 238 Q1389 418 1389 687 Q1389 945 1207 1127 Q1024 1310 765 1310 Q504 1310 320 1123 Q139 940 139 687 Z M765 1415 Q1053 1415 1266 1214 Q1490 1002 1490 687 Q1490 379 1273 167 Q1061 -41 765 -41 Q458 -41 246 173 Q35 385 35 687 Q35 993 253 1206 Q467 1415 765 1415 Z M658 737 Q799 737 850 755 Q933 784 933 878 Q933 950 862 982 Q815 1003 752 1003 Q683 1003 670.5 966.5 Q658 930 658 737 Z " />
<glyph glyph-name="copyright" unicode="&#xa9;" horiz-adv-x="1530" d="M139 687 Q139 429 321 247 Q504 64 763 64 Q1014 64 1196 236 Q1386 416 1386 687 Q1386 946 1203 1129 Q1020 1310 763 1310 Q511 1310 328 1134 Q139 952 139 687 Z M763 1415 Q1060 1415 1273 1208 Q1490 996 1490 687 Q1490 369 1268 159 Q1056 -41 763 -41 Q458 -41 246 172 Q35 384 35 687 Q35 988 249 1202 Q463 1415 763 1415 Z M743 268 Q595 268 473 380.5 Q351 493 351 690 Q351 874 465.5 993.5 Q580 1113 748 1113 Q840 1113 905.5 1084 Q971 1055 993 1045 Q1009 1045 1016.5 1058 Q1024 1071 1024 1088 L1097 1088 L1106 782 L1028 782 Q1001 882 966 933 Q902 1024 787 1024 Q681 1024 615.5 921 Q550 818 550 683 Q550 519 625.5 440.5 Q701 362 796 362 Q876 362 936 411.5 Q996 461 1040 545 L1109 504 Q1046 384 956 326 Q866 268 743 268 Z " />
<glyph glyph-name="trademark" unicode="&#x2122;" horiz-adv-x="2048" d="M1249 1384 L1398 986 L1543 1384 L1863 1384 L1860 1332 L1851 1332 Q1788 1332 1775.5 1312.5 Q1763 1293 1763 1208 L1763 779 Q1763 731 1776 712.5 Q1789 694 1844 694 L1856 694 L1856 642 L1467 642 L1467 694 Q1518 694 1542 710 Q1566 726 1566 791 L1566 1194 L1370 642 L1317 642 L1099 1194 L1099 794 Q1099 726 1125 710 Q1151 694 1213 694 L1213 642 L907 642 L907 694 Q979 694 997.5 724.5 Q1016 755 1016 848 L1016 1268 Q1016 1311 998 1321.5 Q980 1332 931 1332 L919 1332 L919 1384 L1249 1384 Z M315 694 L327 694 Q392 694 408 715 Q424 736 424 813 L424 1303 Q303 1305 266.5 1270.5 Q230 1236 210 1109 L158 1109 L177 1384 L877 1384 L898 1109 L846 1109 Q823 1230 788.5 1268.5 Q754 1307 629 1303 L629 866 Q629 743 644 718.5 Q659 694 734 694 L737 642 L315 642 L315 694 Z " />
<glyph glyph-name="acute" unicode="&#xb4;" horiz-adv-x="682" d="M609 1370 Q609 1331 588 1308.5 Q567 1286 526 1261 L234 1080 L120 1080 L400 1403 Q417 1423 437 1436 Q472 1460 511 1460 Q556 1460 582.5 1434 Q609 1408 609 1370 Z " />
<glyph glyph-name="dieresis" unicode="&#xa8;" horiz-adv-x="682" d="M-62 1232 Q-62 1287 -23.5 1326 Q15 1365 68 1365 Q123 1365 162 1326 Q201 1287 201 1232 Q201 1177 162 1138 Q123 1099 68 1099 Q17 1099 -22.5 1137 Q-62 1175 -62 1232 Z M630 1232 Q630 1177 591.5 1138 Q553 1099 500 1099 Q445 1099 406 1138 Q367 1177 367 1232 Q367 1287 406 1326 Q445 1365 500 1365 Q551 1365 590.5 1327 Q630 1289 630 1232 Z " />
<glyph glyph-name="AE" unicode="&#xc6;" horiz-adv-x="2048" d="M905 1289 L903 1296 Q895 1297 891 1295 Q887 1293 881 1282 L561 701 L905 701 L905 1289 Z M28 52 Q71 56 91.5 70.5 Q112 85 139 123 Q166 161 211 238 Q208 233 253 312 L749 1218 Q756 1230 758 1242 Q760 1254 760 1264 Q760 1301 720.5 1318.5 Q681 1336 583 1336 L583 1379 L1882 1379 L1882 971 L1829 971 Q1798 1141 1740 1205 Q1644 1313 1400 1313 Q1287 1313 1259.5 1300 Q1232 1287 1232 1251 L1232 744 Q1407 760 1457.5 804.5 Q1508 849 1550 1047 L1597 1047 L1597 355 L1550 355 Q1519 542 1466.5 604 Q1414 666 1232 677 L1232 180 Q1232 112 1265 90.5 Q1298 69 1380 69 Q1590 69 1705.5 145 Q1821 221 1920 431 L1967 431 L1884 0 L725 0 L725 52 Q829 59 861 84 Q910 122 910 244 L910 621 L516 621 L310 234 Q289 194 284 177 Q279 160 279 139 Q279 94 319 75.5 Q359 57 414 54 L450 52 L450 0 L28 0 L28 52 Z " />
<glyph glyph-name="Oslash" unicode="&#xd8;" horiz-adv-x="1593" d="M1066 1168 Q1044 1216 998 1261 Q911 1346 794 1346 Q562 1346 476 1069 Q431 922 431 687 Q431 549 443 461 Q451 403 476 303 L1066 1168 Z M801 28 Q1027 28 1112 310 Q1156 458 1156 678 Q1156 817 1140 922 Q1124 1027 1104 1073 L514 208 Q560 117 632.5 72.5 Q705 28 801 28 Z M799 1415 Q901 1415 990.5 1390.5 Q1080 1366 1170 1320 L1298 1509 L1400 1509 L1242 1275 Q1348 1186 1408 1092 Q1520 917 1520 687 Q1520 364 1309 159 Q1103 -41 794 -41 Q692 -41 597 -17 Q502 7 410 56 L265 -155 L163 -155 L341 106 Q212 198 139 353.5 Q66 509 66 675 Q66 993 262 1200 Q466 1415 799 1415 Z " />
<glyph glyph-name="infinity" unicode="&#x221e;" horiz-adv-x="1460" d="M369 1064 Q477 1064 558 969 Q604 915 663 791 Q737 930 789 982 Q872 1064 997 1064 Q1126 1064 1230 956 Q1334 848 1334 675 Q1334 528 1250 392.5 Q1166 257 993 257 Q884 257 813.5 336 Q743 415 704 528 Q646 409 588 350 Q497 258 374 258 Q215 258 119 376 Q23 494 23 648 Q23 776 83 890 Q174 1064 369 1064 Z M1265 679 Q1265 781 1194 846.5 Q1123 912 1027 912 Q979 912 942 894 Q905 876 872 830 Q831 775 788.5 694 Q746 613 746 604 Q746 593 773 550.5 Q800 508 848 478 Q889 452 936 442 Q965 436 1003 436 Q1132 436 1198.5 507.5 Q1265 579 1265 679 Z M616 713 Q578 789 539 826 Q469 890 358 890 Q235 890 167 815 Q99 740 99 647 Q99 560 157 486.5 Q215 413 322 413 Q452 413 542 547 Q596 628 616 713 Z " />
<glyph glyph-name="plusminus" unicode="&#xb1;" horiz-adv-x="1124" d="M1116 203 L1116 0 L49 0 L49 203 L1116 203 Z M478 274 L478 561 L49 561 L49 763 L478 763 L478 1066 L687 1066 L687 763 L1116 763 L1116 561 L687 561 L687 274 L478 274 Z " />
<glyph glyph-name="lessequal" unicode="&#x2264;" horiz-adv-x="1124" d="M30 722 L1097 1095 L1097 867 L545 685 L1097 500 L1097 272 L30 644 L30 722 Z M30 0 L30 210 L1097 210 L1097 0 L30 0 Z " />
<glyph glyph-name="greaterequal" unicode="&#x2265;" horiz-adv-x="1124" d="M26 210 L1092 210 L1092 0 L26 0 L26 210 Z M26 272 L26 500 L578 685 L26 867 L26 1095 L1092 722 L1092 644 L26 272 Z " />
<glyph glyph-name="yen" unicode="&#xa5;" horiz-adv-x="1024" d="M772 1384 L772 1332 Q666 1326 636 1315.5 Q606 1305 606 1264 Q606 1255 608.5 1245.5 Q611 1236 616 1227 L893 692 L910 692 L1130 1052 Q1150 1084 1171 1127 Q1208 1203 1208 1241 Q1208 1296 1173.5 1310.5 Q1139 1325 1038 1332 L1038 1384 L1488 1384 L1488 1332 Q1440 1323 1415 1312 Q1372 1293 1348 1253 L1090 824 L1272 824 L1272 711 L1031 711 L957 587 L957 521 L1272 521 L1272 407 L957 407 L957 239 Q957 122 997 88.5 Q1037 55 1147 52 L1147 0 L436 0 L436 52 Q542 55 583.5 87.5 Q625 120 625 239 L625 407 L301 407 L301 521 L625 521 L625 540 L540 711 L301 711 L301 824 L490 824 L251 1220 Q221 1269 179 1299.5 Q137 1330 87 1332 L87 1384 L772 1384 Z " />
<glyph glyph-name="mu" unicode="&#xb5;" horiz-adv-x="1180" d="M-133 -368 Q-54 -367 -25.5 -329.5 Q3 -292 47 -128 L253 640 Q266 688 271.5 718 Q277 748 277 770 Q277 809 249.5 820.5 Q222 832 163 834 L163 888 Q320 902 404 912 Q488 922 590 943 L398 315 Q381 258 373.5 228.5 Q366 199 366 176 Q366 152 380.5 140 Q395 128 416 128 Q501 128 623 331 Q761 562 850 919 L1092 919 L1009 635 Q940 399 919 323 Q881 185 881 160 Q881 146 888 133 Q895 120 912 120 Q942 120 988 174 Q1013 204 1057 272 L1099 246 Q1056 165 996 99 Q885 -22 770 -22 Q703 -22 670 10 Q637 42 637 103 Q637 122 643.5 165 Q650 208 666 279 L654 279 Q557 136 506 87 Q423 8 315 -3 L201 -422 L-133 -422 L-133 -368 Z " />
<glyph glyph-name="product" unicode="&#x220f;" horiz-adv-x="1686" d="M1602 1329 L1590 1329 Q1500 1329 1465.5 1286.5 Q1431 1244 1431 1130 L1431 -95 Q1431 -210 1465.5 -252.5 Q1500 -295 1602 -295 L1602 -350 L926 -350 L926 -295 Q1026 -295 1060.5 -252.5 Q1095 -210 1095 -95 L1095 1130 Q1095 1241 1060.5 1272 Q1026 1303 926 1303 L775 1303 Q675 1303 640.5 1264.5 Q606 1226 606 1130 L606 -95 Q606 -210 640.5 -252.5 Q675 -295 775 -295 L775 -350 L101 -350 L101 -295 Q201 -295 235.5 -252.5 Q270 -210 270 -95 L270 1130 Q270 1244 235.5 1286.5 Q201 1329 101 1329 L101 1384 L1602 1384 L1602 1329 Z " />
<glyph glyph-name="pi" unicode="&#x3c0;" horiz-adv-x="1124" d="M80 641 Q86 852 158 919 Q229 983 426 981 Q524 981 725 971 Q928 960 1022 960 Q1120 960 1120 1030 L1180 1030 Q1173 844 1128 788 Q1083 731 944 731 Q942 467 938 172 Q938 141 952 115 Q969 82 1001 82 Q1057 84 1079 160 Q1100 231 1102 322 L1173 322 Q1167 154 1110 63 Q1053 -27 897 -27 Q770 -25 717 61 Q659 143 661 260 Q666 526 672 731 L434 731 Q434 336 383 154 Q330 -27 211 -27 Q129 -25 92 37 Q53 96 53 172 Q53 225 57 270 L125 270 Q123 238 137 197 Q149 152 188 149 Q223 149 254 178 Q285 205 309 268 Q360 391 362 731 L254 731 Q190 731 168 709 Q145 684 139 641 L80 641 Z " />
<glyph glyph-name="ordfeminine" unicode="&#xaa;" horiz-adv-x="614" d="M255 904 Q279 904 301 914 Q323 924 355 957 L355 1137 Q291 1123 242.5 1086 Q194 1049 194 987 Q194 942 215 923 Q236 904 255 904 Z M0 946 Q0 997 19 1025 Q47 1072 107 1096 Q154 1120 236 1144 Q365 1183 357 1180 L357 1268 Q357 1325 330.5 1349.5 Q304 1374 251 1374 Q215 1374 188 1364 Q161 1354 161 1335 Q161 1327 164.5 1321.5 Q168 1316 173 1310 Q189 1292 194.5 1279.5 Q200 1267 200 1249 Q200 1218 173.5 1198.5 Q147 1179 120 1179 Q95 1179 70 1190 Q23 1211 23 1261 Q23 1324 89 1369.5 Q155 1415 272 1415 Q400 1415 469 1379 Q538 1343 538 1249 L538 931 Q538 911 546.5 903.5 Q555 896 567 896 Q574 896 581.5 901.5 Q589 907 594 912 L616 888 Q576 844 520 827 Q490 817 462 817 Q432 817 408 829 Q366 850 357 903 Q317 869 283 851 Q219 817 149 817 Q110 817 69 836 Q0 869 0 946 Z " />
<glyph glyph-name="ordmasculine" unicode="&#xba;" horiz-adv-x="676" d="M40 1114 Q40 1254 131 1334.5 Q222 1415 341 1415 Q464 1415 552 1331 Q640 1247 640 1114 Q640 992 558.5 903.5 Q477 815 341 815 Q210 815 125 899.5 Q40 984 40 1114 Z M234 1114 Q234 986 254.5 919.5 Q275 853 341 853 Q403 853 424 918 Q445 983 445 1114 Q445 1267 420.5 1320.5 Q396 1374 343 1374 Q284 1374 259 1320.5 Q234 1267 234 1114 Z " />
<glyph glyph-name="Omega" unicode="&#x2126;" horiz-adv-x="1573" d="M1559 884 Q1559 659 1394.5 528 Q1230 397 1026 372 L1026 248 L1313 248 Q1426 248 1461 280 Q1483 301 1488 369 L1536 369 L1536 0 L950 0 L950 440 Q1067 495 1111 560 Q1185 667 1185 898 Q1185 1045 1142 1148 Q1061 1344 847 1344 Q647 1344 570.5 1200.5 Q494 1057 494 889 Q494 736 527 645 Q581 498 730 440 L730 0 L144 0 L144 369 L194 369 Q192 299 213 279 Q245 248 362 248 L656 248 L656 372 Q432 390 277.5 532.5 Q123 675 123 867 Q123 1110 308 1260 Q501 1415 835 1415 Q1158 1415 1353 1280 Q1559 1137 1559 884 Z " />
<glyph glyph-name="ae" unicode="&#xe6;" horiz-adv-x="1479" d="M1030 907 Q941 907 912 815 Q894 757 888 583 L1161 583 L1161 651 Q1161 802 1130 854.5 Q1099 907 1030 907 Z M471 101 Q504 101 530 111 Q569 125 606 165 L606 507 Q468 459 415 399.5 Q362 340 362 249 Q362 191 376 159 Q401 101 471 101 Z M606 737 Q606 808 585 842 Q548 903 439 903 Q396 903 354 885.5 Q312 868 312 832 Q312 821 342 779.5 Q372 738 372 695 Q372 651 338.5 615.5 Q305 580 235 580 Q183 580 142 615.5 Q101 651 101 713 Q101 808 198.5 888.5 Q296 969 476 969 Q596 969 671 934 Q714 913 765 862 Q821 912 862 933 Q933 969 1031 969 Q1126 969 1205.5 927 Q1285 885 1332 819 Q1379 753 1394 679 Q1404 630 1408 507 L888 507 L888 459 Q888 331 918 256 Q972 125 1116 125 Q1206 125 1268 163 Q1330 201 1377 263 L1419 232 Q1354 126 1286 73 Q1167 -22 993 -22 Q926 -22 867 0 Q754 42 689 154 L677 142 Q611 76 549 39 Q436 -29 310 -29 Q192 -29 129.5 26 Q67 81 67 180 Q67 332 174.5 400 Q282 468 606 573 L606 737 Z " />
<glyph glyph-name="oslash" unicode="&#xf8;" horiz-adv-x="1024" d="M350 291 L642 782 Q625 835 605 860 Q570 903 508 903 Q409 903 377.5 797 Q346 691 346 469 L350 291 Z M45 469 Q45 683 176.5 826 Q308 969 507 969 Q582 969 636 952 Q668 942 720 914 L843 1123 L938 1123 L789 872 Q877 794 923 693.5 Q969 593 969 469 Q969 264 841 116.5 Q713 -31 507 -31 Q433 -31 373 -12 Q338 -1 286 26 L158 -190 L64 -190 L220 71 Q156 122 100.5 221.5 Q45 321 45 469 Z M369 163 Q384 111 409 80 Q445 35 507 35 Q603 35 635.5 134 Q668 233 668 482 L661 656 L369 163 Z " />
<glyph glyph-name="questiondown" unicode="&#xbf;" horiz-adv-x="1024" d="M704 853 Q704 781 653 730.5 Q602 680 530 680 Q459 680 408 730.5 Q357 781 357 853 Q357 924 408 975 Q459 1026 530 1026 Q602 1026 653 975.5 Q704 925 704 853 Z M903 -121 Q903 -223 811 -318 Q719 -413 519 -413 Q326 -413 217.5 -318.5 Q109 -224 109 -77 Q109 15 152.5 89 Q196 163 282 218 Q313 238 353 263 Q456 330 477 369 Q498 408 502 523 L564 523 Q566 416 565 394 Q564 372 554 343 Q549 327 500 229 Q447 126 430.5 72 Q414 18 414 -79 Q414 -205 458 -272 Q502 -339 596 -339 Q655 -339 683 -312.5 Q711 -286 711 -259 Q711 -245 706 -234.5 Q701 -224 692 -214 L677 -197 Q656 -173 645.5 -146 Q635 -119 635 -90 Q635 -36 670.5 0.5 Q706 37 766 37 Q823 37 863 -6.5 Q903 -50 903 -121 Z " />
<glyph glyph-name="exclamdown" unicode="&#xa1;" horiz-adv-x="682" d="M516 853 Q516 781 465.5 730.5 Q415 680 343 680 Q272 680 221 730.5 Q170 781 170 853 Q170 924 221 975 Q272 1026 343 1026 Q414 1026 465 975.5 Q516 925 516 853 Z M516 -209 Q516 -323 464.5 -370.5 Q413 -418 343 -418 Q275 -418 222.5 -371 Q170 -324 170 -216 Q170 -143 225.5 30 Q281 203 312 519 L372 519 Q396 307 407.5 240.5 Q419 174 450 68 Q487 -56 501.5 -113 Q516 -170 516 -209 Z " />
<glyph glyph-name="logicalnot" unicode="&#xac;" horiz-adv-x="1167" d="M1116 858 L1116 210 L900 210 L900 647 L49 647 L49 858 L1116 858 Z " />
<glyph glyph-name="florin" unicode="&#x192;" horiz-adv-x="1024" d="M113 -43 Q162 -43 191.5 -73 Q221 -103 221 -138 Q221 -166 202.5 -193.5 Q184 -221 184 -229 Q184 -241 198 -250 Q212 -259 228 -259 Q266 -259 297 -230 Q358 -173 362 -27 L388 805 L151 805 L151 900 L398 900 Q422 1048 443 1118 Q479 1237 542 1313 Q596 1378 667 1411.5 Q738 1445 805 1445 Q938 1445 990 1373 Q1018 1334 1018 1283 Q1018 1238 990.5 1199.5 Q963 1161 908 1161 Q855 1161 828 1190.5 Q801 1220 801 1256 Q801 1286 818.5 1314 Q836 1342 836 1352 Q836 1366 825 1375 Q813 1384 795 1384 Q722 1384 690 1304.5 Q658 1225 658 1085 L658 900 L910 900 L910 805 L658 805 Q655 755 647 583.5 Q639 412 629 320 Q604 95 543 -48 Q426 -320 190 -320 Q103 -320 49 -277.5 Q-5 -235 -5 -164 Q-5 -116 26.5 -79.5 Q58 -43 113 -43 Z " />
<glyph glyph-name="increment" unicode="&#x2206;" horiz-adv-x="1253" d="M319 133 Q319 127 324 123.5 Q329 120 339 120 L958 120 Q963 120 969.5 124 Q976 128 976 133 L972 146 L666 961 L329 161 Q319 138 319 133 Z M160 0 L765 1415 L834 1415 L1412 0 L160 0 Z " />
<glyph glyph-name="guillemotleft" unicode="&#xab;" horiz-adv-x="1024" d="M52 483 L509 850 Q515 855 522 857.5 Q529 860 536 860 Q548 860 557 853 Q566 846 566 833 Q566 796 469 662 Q406 574 327 478 L329 464 Q401 384 484 270 Q567 156 567 111 Q567 99 560 91.5 Q553 84 541 84 Q532 84 523.5 88.5 Q515 93 502 104 L59 457 L52 464 L52 483 Z M450 483 L907 850 Q913 855 920 857.5 Q927 860 934 860 Q946 860 955 853 Q964 846 964 833 Q964 795 867 662 Q805 575 725 478 L727 464 Q779 407 849 313 Q965 160 965 111 Q965 99 958 91.5 Q951 84 939 84 Q930 84 921.5 88.5 Q913 93 900 104 L457 457 L450 464 L450 483 Z " />
<glyph glyph-name="guillemotright" unicode="&#xbb;" horiz-adv-x="1024" d="M564 483 L564 464 L557 457 L113 104 Q100 93 91.5 88.5 Q83 84 74 84 Q62 84 55 91.5 Q48 99 48 111 Q48 161 167 317 Q286 473 286 464 L289 478 Q262 505 156 647 Q50 789 50 833 Q50 846 58.5 853 Q67 860 77 860 Q84 860 90.5 857.5 Q97 855 106 850 L564 483 Z M962 483 L962 464 L955 457 L512 104 Q499 94 490 89 Q481 84 472 84 Q460 84 453.5 91.5 Q447 99 447 111 Q447 138 476 189 Q489 211 519 254 Q526 264 685 464 L687 478 Q660 505 554.5 647 Q449 789 449 832 Q449 846 456.5 853 Q464 860 475 860 Q482 860 488.5 857.5 Q495 855 504 850 L962 483 Z " />
<glyph glyph-name="ellipsis" unicode="&#x2026;" horiz-adv-x="2048" d="M1706 312 Q1777 312 1827 262.5 Q1877 213 1877 142 Q1877 68 1825.5 19.5 Q1774 -29 1706 -29 Q1635 -29 1584 20 Q1533 69 1533 142 Q1533 211 1581.5 261.5 Q1630 312 1706 312 Z M1024 312 Q1096 312 1145 261.5 Q1194 211 1194 142 Q1194 69 1143 20 Q1092 -29 1024 -29 Q954 -29 902 19 Q850 67 850 142 Q850 211 899 261.5 Q948 312 1024 312 Z M341 312 Q412 312 462 262.5 Q512 213 512 142 Q512 69 461 20 Q410 -29 341 -29 Q270 -29 219 20 Q168 69 168 142 Q168 211 216.5 261.5 Q265 312 341 312 Z " />
<glyph glyph-name="nobreakspace" unicode="&#xa0;" horiz-adv-x="512" d="" />
<glyph glyph-name="Agrave" unicode="&#xc0;" horiz-adv-x="1479" d="M805 483 L609 957 L592 957 L407 483 L805 483 Z M37 52 Q111 57 156 119 Q185 158 239 291 L694 1412 L751 1412 L1208 336 Q1285 155 1323 102.5 Q1361 50 1431 52 L1431 0 L768 0 L768 52 Q868 56 899.5 69 Q931 82 931 135 Q931 159 915 208 Q905 237 888 278 L836 402 L376 402 Q331 280 318 243 Q291 164 291 128 Q291 84 350 64 Q385 53 455 52 L455 0 L37 0 L37 52 Z M426 1816 Q426 1857 454.5 1881.5 Q483 1906 521 1906 Q554 1906 583 1891 Q612 1876 635 1849 L915 1526 L801 1526 L509 1707 Q469 1732 447.5 1755 Q426 1778 426 1816 Z " />
<glyph glyph-name="Atilde" unicode="&#xc3;" horiz-adv-x="1479" d="M805 483 L609 957 L592 957 L407 483 L805 483 Z M37 52 Q111 57 156 119 Q185 158 239 291 L694 1412 L751 1412 L1208 336 Q1285 155 1323 102.5 Q1361 50 1431 52 L1431 0 L768 0 L768 52 Q868 56 899.5 69 Q931 82 931 135 Q931 159 915 208 Q905 237 888 278 L836 402 L376 402 Q331 280 318 243 Q291 164 291 128 Q291 84 350 64 Q385 53 455 52 L455 0 L37 0 L37 52 Z M621 1825 Q654 1825 693.5 1813.5 Q733 1802 765 1787 L848 1749 Q872 1738 891 1732 Q910 1726 929 1726 Q975 1726 1001 1756 Q1018 1775 1038 1825 L1125 1825 Q1104 1723 1046.5 1645 Q989 1567 879 1567 Q848 1567 817 1574.5 Q786 1582 756 1595 L696 1621 Q617 1655 600.5 1661 Q584 1667 566 1667 Q516 1667 489 1630 Q473 1610 462 1569 L376 1569 Q396 1662 431 1718 Q498 1825 621 1825 Z " />
<glyph glyph-name="Otilde" unicode="&#xd5;" horiz-adv-x="1593" d="M794 28 Q1024 28 1110 301 Q1156 449 1156 687 Q1156 1014 1058.5 1180 Q961 1346 794 1346 Q562 1346 476 1069 Q431 922 431 687 Q431 448 477 301 Q562 28 794 28 Z M794 1415 Q1104 1415 1309 1215 Q1520 1010 1520 687 Q1520 364 1309 159 Q1103 -41 794 -41 Q466 -41 259 178 Q66 384 66 676 Q66 998 268 1205 Q472 1415 794 1415 Z M663 1825 Q696 1825 735.5 1813.5 Q775 1802 807 1787 L890 1749 Q914 1738 933 1732 Q952 1726 971 1726 Q1017 1726 1043 1756 Q1060 1775 1080 1825 L1167 1825 Q1146 1723 1088.5 1645 Q1031 1567 921 1567 Q890 1567 859 1574.5 Q828 1582 798 1595 L738 1621 Q659 1655 642.5 1661 Q626 1667 608 1667 Q558 1667 531 1630 Q515 1610 504 1569 L418 1569 Q438 1662 473 1718 Q540 1825 663 1825 Z " />
<glyph glyph-name="OE" unicode="&#x152;" horiz-adv-x="2048" d="M46 706 Q46 947 182 1134 Q374 1400 774 1400 Q816 1400 931 1392 Q1046 1384 1080 1384 L1924 1384 L1924 971 L1872 971 Q1841 1146 1782 1209 Q1684 1313 1427 1313 Q1342 1313 1313 1304 Q1284 1295 1284 1258 L1284 749 Q1453 752 1505.5 811.5 Q1558 871 1592 1052 L1640 1052 L1640 360 L1592 360 Q1571 532 1511.5 603 Q1452 674 1284 682 L1284 170 Q1284 116 1309 93 Q1334 70 1423 70 Q1633 70 1747.5 152 Q1862 234 1953 431 L2010 431 L1922 0 L1042 0 Q1026 0 888 -6 Q750 -12 580 -12 Q410 -12 226 181 Q46 369 46 706 Z M736 55 Q897 55 932 129 Q967 203 967 433 L967 1031 Q967 1200 931.5 1267.5 Q896 1335 768 1335 Q556 1335 474.5 1139 Q393 943 393 666 Q393 297 486 176 Q579 55 736 55 Z " />
<glyph glyph-name="oe" unicode="&#x153;" horiz-adv-x="1479" d="M1168 578 Q1164 759 1148 817 Q1123 907 1042 907 Q965 907 937.5 842 Q910 777 910 687 L910 578 L1168 578 Z M499 33 Q568 33 599 98.5 Q630 164 630 305 L630 637 Q630 786 597.5 846.5 Q565 907 490 907 Q412 907 376.5 826.5 Q341 746 341 495 Q341 207 379.5 120 Q418 33 499 33 Z M498 967 Q549 967 603 953 Q699 929 763 867 Q832 916 876 935 Q949 967 1037 967 Q1230 967 1321.5 839.5 Q1413 712 1419 502 L910 502 Q910 338 938 260 Q987 120 1132 120 Q1221 120 1285 162 Q1325 188 1384 256 L1424 222 Q1347 111 1284 60 Q1174 -29 1027 -29 Q928 -29 859 8 Q821 29 784 68 Q729 22 662 -4 Q595 -30 484 -30 Q296 -30 170.5 112.5 Q45 255 45 464 Q45 677 170.5 822 Q296 967 498 967 Z " />
<glyph glyph-name="endash" unicode="&#x2013;" horiz-adv-x="1024" d="M-19 554 L1033 554 L1033 369 L-19 369 L-19 554 Z " />
<glyph glyph-name="emdash" unicode="&#x2014;" horiz-adv-x="2048" d="M241 554 L1813 554 L1813 369 L241 369 L241 554 Z " />
<glyph glyph-name="quotedblleft" unicode="&#x201c;" horiz-adv-x="1024" d="M66 971 Q66 1077 139.5 1196.5 Q213 1316 405 1415 L429 1370 Q333 1302 287 1256 Q206 1173 206 1097 Q206 1071 221 1063 Q236 1054 247 1054 Q285 1059 297 1059 Q361 1059 402 1012.5 Q443 966 443 900 Q443 826 398 776.5 Q353 727 274 727 Q181 727 123.5 793.5 Q66 860 66 971 Z M618 971 Q618 1083 696 1202 Q774 1321 957 1415 L981 1370 Q891 1307 843 1259 Q758 1174 758 1101 Q758 1080 769 1067 Q780 1054 799 1054 Q837 1059 849 1059 Q912 1059 953.5 1013 Q995 967 995 900 Q995 822 949 774.5 Q903 727 824 727 Q734 727 676 793.5 Q618 860 618 971 Z " />
<glyph glyph-name="quotedblright" unicode="&#x201d;" horiz-adv-x="1024" d="M623 772 Q720 841 766 888 Q846 970 846 1042 Q846 1066 833 1077 Q820 1088 805 1088 Q771 1083 760 1083 Q695 1083 652 1127 Q609 1171 609 1242 Q609 1322 656 1368.5 Q703 1415 779 1415 Q868 1415 927 1351 Q986 1287 986 1174 Q986 1014 855 879 Q777 800 647 727 L623 772 Z M75 772 Q167 836 214 883 Q298 967 298 1041 Q298 1061 288 1075 Q277 1088 257 1088 Q224 1083 213 1083 Q147 1083 104 1127 Q61 1171 61 1245 Q61 1313 104.5 1364 Q148 1415 232 1415 Q314 1415 376 1355 Q438 1295 438 1177 Q438 1017 313 885 Q235 803 99 727 L75 772 Z " />
<glyph glyph-name="quoteleft" unicode="&#x2018;" horiz-adv-x="682" d="M146 971 Q146 1076 221 1196.5 Q296 1317 485 1415 L509 1370 Q413 1301 367 1254 Q286 1172 286 1101 Q286 1079 298 1067 Q310 1054 332 1054 Q371 1059 383 1059 Q444 1059 483.5 1012.5 Q523 966 523 893 Q523 828 478.5 777.5 Q434 727 350 727 Q257 727 201.5 796.5 Q146 866 146 971 Z " />
<glyph glyph-name="quoteright" unicode="&#x2019;" horiz-adv-x="682" d="M177 772 Q269 836 316 883 Q400 967 400 1041 Q400 1061 390 1075 Q379 1088 359 1088 Q325 1083 315 1083 Q249 1083 206 1127.5 Q163 1172 163 1242 Q163 1319 209 1367 Q255 1415 334 1415 Q421 1415 480.5 1351.5 Q540 1288 540 1178 Q540 1019 418 888 Q340 805 201 727 L177 772 Z " />
<glyph glyph-name="divide" unicode="&#xf7;" horiz-adv-x="1124" d="M583 765 Q517 765 470.5 811.5 Q424 858 424 924 Q424 990 470.5 1036.5 Q517 1083 583 1083 Q648 1083 694.5 1036.5 Q741 990 741 924 Q741 858 695 811.5 Q649 765 583 765 Z M583 303 Q649 303 695 256.5 Q741 210 741 144 Q741 78 694.5 31.5 Q648 -15 583 -15 Q517 -15 470.5 31.5 Q424 78 424 144 Q424 210 470.5 256.5 Q517 303 583 303 Z M1116 640 L1116 429 L49 429 L49 640 L1116 640 Z " />
<glyph glyph-name="lozenge" unicode="&#x25ca;" horiz-adv-x="1012" d="M512 1367 L905 689 L512 -8 L118 689 L512 1367 Z M512 194 L784 689 L512 1166 L239 689 L512 194 Z " />
<glyph glyph-name="ydieresis" unicode="&#xff;" horiz-adv-x="1024" d="M33 -264 Q33 -194 73.5 -161 Q114 -128 170 -128 Q219 -128 250.5 -157 Q282 -186 282 -226 L277 -271 Q277 -284 287 -295 Q297 -306 312 -306 Q362 -306 405 -225 Q432 -175 483 -29 L237 578 Q211 642 186.5 698 Q162 754 135 807 Q107 861 91 875 Q75 889 33 893 L33 943 L545 943 L545 893 Q497 892 466.5 882 Q436 872 436 839 Q436 832 439.5 820 Q443 808 455 777 L616 365 L632 365 L763 734 Q773 764 779.5 786.5 Q786 809 786 826 Q786 869 757.5 880.5 Q729 892 673 893 L673 943 L983 943 L983 893 Q943 890 917.5 871.5 Q892 853 865 782 L559 -34 Q475 -260 414.5 -341 Q354 -422 225 -422 Q131 -422 82 -372.5 Q33 -323 33 -264 Z M167 1232 Q167 1287 205.5 1326 Q244 1365 297 1365 Q352 1365 391 1326 Q430 1287 430 1232 Q430 1177 391 1138 Q352 1099 297 1099 Q246 1099 206.5 1137 Q167 1175 167 1232 Z M859 1232 Q859 1177 820.5 1138 Q782 1099 729 1099 Q674 1099 635 1138 Q596 1177 596 1232 Q596 1287 635 1326 Q674 1365 729 1365 Q780 1365 819.5 1327 Q859 1289 859 1232 Z " />
<glyph glyph-name="Ydieresis" unicode="&#x178;" horiz-adv-x="1479" d="M715 1384 L715 1332 Q609 1326 579 1316 Q549 1306 549 1274 Q549 1260 554.5 1243.5 Q560 1227 580 1184 L836 692 L853 692 L1073 1052 Q1094 1085 1117 1133 Q1152 1206 1152 1241 Q1152 1295 1109 1313 Q1080 1325 981 1332 L981 1384 L1431 1384 L1431 1332 Q1382 1323 1353 1311 Q1316 1292 1291 1253 L900 616 L900 239 Q900 122 940 88.5 Q980 55 1090 52 L1090 0 L379 0 L379 52 Q493 55 530.5 91 Q568 127 568 239 L568 540 L194 1220 Q157 1287 103 1314 Q67 1331 30 1332 L30 1384 L715 1384 Z M424 1678 Q424 1733 462.5 1772 Q501 1811 554 1811 Q609 1811 648 1772 Q687 1733 687 1678 Q687 1623 648 1584 Q609 1545 554 1545 Q503 1545 463.5 1583 Q424 1621 424 1678 Z M1116 1678 Q1116 1623 1077.5 1584 Q1039 1545 986 1545 Q931 1545 892 1584 Q853 1623 853 1678 Q853 1733 892 1772 Q931 1811 986 1811 Q1037 1811 1076.5 1773 Q1116 1735 1116 1678 Z " />
<glyph glyph-name="fraction" unicode="&#x2044;" horiz-adv-x="342" d="M559 1408 L673 1408 L-228 -24 L-347 -24 L559 1408 Z " />
<glyph glyph-name="Euro" unicode="&#x20ac;" horiz-adv-x="1524" d="M1156 715 L15 715 L63 825 L1202 825 L1156 715 Z M1062 495 L15 495 L63 605 L1110 605 L1062 495 Z M1281 149 Q1108 0 853 0 Q573 0 383 190 Q193 380 193 660 Q193 940 383 1130 Q573 1320 853 1320 Q1133 1320 1329 1124 L1281 1013 Q1098 1210 853 1210 Q623 1210 463 1050 Q303 890 303 660 Q303 430 463 270 Q623 110 853 110 Q1103 110 1281 311 L1281 149 Z " />
<glyph glyph-name="guilsinglleft" unicode="&#x2039;" horiz-adv-x="682" d="M109 483 L566 850 Q572 855 579 857.5 Q586 860 593 860 Q605 860 614 853 Q623 846 623 833 Q623 796 526 662 Q463 574 384 478 L386 464 Q458 384 541 270 Q624 156 624 111 Q624 99 617 91.5 Q610 84 598 84 Q589 84 580.5 88.5 Q572 93 559 104 L116 457 L109 464 L109 483 Z " />
<glyph glyph-name="guilsinglright" unicode="&#x203a;" horiz-adv-x="682" d="M564 483 L564 464 L557 457 L113 104 Q100 93 91.5 88.5 Q83 84 74 84 Q62 84 55 91.5 Q48 99 48 111 Q48 161 167 317 Q286 473 286 464 L289 478 Q262 505 156 647 Q50 789 50 833 Q50 846 58.5 853 Q67 860 77 860 Q84 860 90.5 857.5 Q97 855 106 850 L564 483 Z " />
<glyph glyph-name="fi" unicode="&#xfb01;" horiz-adv-x="1139" d="M591 1413 Q714 1413 815 1383 Q967 1341 967 1229 Q967 1151 901 1120 Q868 1104 831 1104 Q776 1104 737.5 1134 Q699 1164 699 1212 Q699 1235 720 1296 Q720 1320 687.5 1336.5 Q655 1353 608 1353 Q490 1353 453 1248 Q431 1186 431 1025 L431 929 L640 929 Q700 932 750.5 935.5 Q801 939 886 948 L995 960 L995 165 Q995 95 1018.5 75.5 Q1042 56 1097 49 L1097 0 L616 0 L616 49 Q672 60 691.5 79 Q711 98 711 165 L711 784 Q711 821 697.5 830 Q684 839 630 839 L431 839 L431 168 L438 104 Q441 77 465.5 66 Q490 55 526 49 L526 0 L28 0 L28 49 Q91 56 112 72 Q146 98 146 173 L146 839 L28 839 L28 929 L146 929 Q146 1082 172 1153 Q198 1244 273 1308 Q337 1363 419 1388 Q501 1413 591 1413 Z " />
<glyph glyph-name="fl" unicode="&#xfb02;" horiz-adv-x="1139" d="M711 1147 Q698 1157 692.5 1170 Q687 1183 687 1219 Q687 1246 691.5 1268.5 Q696 1291 696 1298 Q696 1329 669 1338.5 Q642 1348 603 1348 Q489 1348 453 1255 Q431 1201 431 1071 L431 929 L711 929 L711 1147 Z M588 1412 Q666 1412 747 1391 Q793 1378 862 1351 L957 1412 L995 1412 L995 165 Q995 111 1012 84.5 Q1029 58 1073 52 L1097 49 L1097 0 L616 0 L616 49 L632 52 Q671 59 691 79 Q711 99 711 165 L711 839 L431 839 Q431 765 428.5 615 Q426 465 426 407 Q426 289 430 202 Q432 156 434 129 Q439 84 458.5 70.5 Q478 57 526 49 L526 0 L28 0 L28 49 Q91 56 112 72 Q146 98 146 173 L146 839 L28 839 L28 929 L146 929 Q150 1136 206 1235 Q306 1412 588 1412 Z " />
<glyph glyph-name="daggerdbl" unicode="&#x2021;" horiz-adv-x="1024" d="M831 109 Q793 109 709 147.5 Q625 186 540 192 Q542 71 586 -23.5 Q630 -118 630 -161 Q630 -206 600 -239.5 Q570 -273 518 -273 Q470 -273 438.5 -244 Q407 -215 407 -165 Q407 -126 447.5 -35.5 Q488 55 493 189 L457 189 Q409 189 326 149 Q243 109 193 109 Q149 109 123 137 Q97 165 97 214 Q97 261 126.5 285.5 Q156 310 194 310 Q241 310 330 268 Q419 226 493 229 Q489 336 464.5 403 Q440 470 381 571 Q440 667 464.5 739.5 Q489 812 493 912 Q421 915 330 873.5 Q239 832 198 832 Q152 832 124.5 858.5 Q97 885 97 928 Q97 971 124 1002 Q151 1033 197 1033 Q239 1033 328.5 991 Q418 949 493 952 Q488 1088 447.5 1178.5 Q407 1269 407 1305 Q407 1353 439.5 1384 Q472 1415 516 1415 Q568 1415 599 1381.5 Q630 1348 630 1304 Q630 1260 586 1166.5 Q542 1073 540 950 Q615 952 702.5 992.5 Q790 1033 829 1033 Q887 1033 912.5 1003.5 Q938 974 938 936 Q938 903 924 878 Q900 834 842 834 Q791 834 709 874 Q627 914 540 912 Q542 805 562 748 Q582 691 651 571 Q583 454 562.5 395.5 Q542 337 540 229 Q631 229 713 268.5 Q795 308 836 308 Q897 308 922 268 Q938 243 938 206 Q938 159 909.5 134 Q881 109 831 109 Z " />
<glyph glyph-name="middot" unicode="&#xb7;" horiz-adv-x="512" d="M99 680 Q99 740 144 786 Q189 832 253 832 Q317 832 362 787 Q407 742 407 680 Q407 614 362.5 568.5 Q318 523 253 523 Q190 523 144.5 567.5 Q99 612 99 680 Z " />
<glyph glyph-name="quotesinglbase" unicode="&#x201a;" horiz-adv-x="682" d="M177 -325 Q272 -259 318 -212 Q400 -130 400 -54 Q400 -38 391 -24 Q382 -10 359 -10 Q349 -10 334 -12.5 Q319 -15 314 -15 Q262 -15 212.5 24 Q163 63 163 144 Q163 221 209.5 269 Q256 317 331 317 Q423 317 481.5 252.5 Q540 188 540 80 Q540 -79 431 -197 Q366 -268 201 -370 L177 -325 Z " />
<glyph glyph-name="quotedblbase" unicode="&#x201e;" horiz-adv-x="1024" d="M623 -325 Q722 -255 768 -207 Q846 -127 846 -54 Q846 -38 837 -24 Q828 -10 805 -10 Q796 -10 780 -12.5 Q764 -15 758 -15 Q699 -15 654 27 Q609 69 609 144 Q609 223 655 270 Q701 317 779 317 Q867 317 926.5 253.5 Q986 190 986 76 Q986 -88 849 -225 Q774 -299 647 -370 L623 -325 Z M75 -325 Q168 -261 215 -213 Q298 -130 298 -56 Q298 -35 288 -22 Q277 -10 258 -10 Q250 -10 233.5 -12.5 Q217 -15 211 -15 Q151 -15 106 27 Q61 69 61 148 Q61 216 104.5 266.5 Q148 317 229 317 Q316 317 377 255.5 Q438 194 438 79 Q438 -86 305 -221 Q230 -296 99 -370 L75 -325 Z " />
<glyph glyph-name="perthousand" unicode="&#x2030;" horiz-adv-x="2048" d="M321 722 Q413 722 490.5 852.5 Q568 983 568 1146 Q568 1204 559.5 1220 Q551 1236 527 1246 Q487 1261 460 1280 Q433 1299 422 1299 Q353 1299 282.5 1145.5 Q212 992 212 858 Q212 800 234.5 761 Q257 722 321 722 Z M418 1379 Q483 1379 562.5 1318.5 Q642 1258 727 1258 Q851 1258 951 1327 Q1007 1365 1073 1445 L1170 1445 L274 -62 L175 -62 L964 1272 Q912 1235 857 1216 Q802 1197 742 1197 Q705 1197 673.5 1203 Q642 1209 616 1223 Q621 1174 622 1163 Q623 1152 623 1136 Q623 963 527.5 810.5 Q432 658 266 658 Q182 658 97.5 724.5 Q13 791 13 944 Q13 1126 137.5 1252.5 Q262 1379 418 1379 Z M991 21 Q1096 21 1171 164 Q1246 307 1246 437 Q1246 524 1213 568.5 Q1180 613 1126 613 Q1028 613 956 440.5 Q884 268 884 152 Q884 78 918 49.5 Q952 21 991 21 Z M685 256 Q685 425 807.5 553.5 Q930 682 1073 682 Q1200 682 1249 608 Q1298 534 1298 429 Q1298 282 1209 122 Q1120 -38 940 -38 Q849 -38 767 29 Q685 96 685 256 Z M1730 21 Q1836 21 1911 164 Q1986 307 1986 437 Q1986 526 1950.5 569.5 Q1915 613 1865 613 Q1770 613 1697 443.5 Q1624 274 1624 150 Q1624 68 1662 39 Q1685 21 1730 21 Z M1813 682 Q1921 682 1979.5 618.5 Q2038 555 2038 436 Q2038 283 1949 122.5 Q1860 -38 1679 -38 Q1587 -38 1505.5 29 Q1424 96 1424 256 Q1424 420 1544.5 551 Q1665 682 1813 682 Z " />
<glyph glyph-name="Acircumflex" unicode="&#xc2;" horiz-adv-x="1479" d="M805 483 L609 957 L592 957 L407 483 L805 483 Z M37 52 Q111 57 156 119 Q185 158 239 291 L694 1412 L751 1412 L1208 336 Q1285 155 1323 102.5 Q1361 50 1431 52 L1431 0 L768 0 L768 52 Q868 56 899.5 69 Q931 82 931 135 Q931 159 915 208 Q905 237 888 278 L836 402 L376 402 Q331 280 318 243 Q291 164 291 128 Q291 84 350 64 Q385 53 455 52 L455 0 L37 0 L37 52 Z M1097 1526 L981 1526 L751 1728 L521 1526 L405 1526 L656 1887 L846 1887 L1097 1526 Z " />
<glyph glyph-name="Ecircumflex" unicode="&#xca;" horiz-adv-x="1366" d="M33 0 L33 52 Q121 55 158 76 Q215 108 215 196 L215 1187 Q215 1277 156 1308 Q122 1327 33 1332 L33 1384 L1213 1384 L1213 971 L1163 971 Q1124 1169 1030.5 1242 Q937 1315 690 1315 Q596 1315 570.5 1295.5 Q545 1276 545 1218 L545 744 Q720 742 782 807.5 Q844 873 877 1047 L929 1047 L929 355 L877 355 Q855 530 787.5 601.5 Q720 673 545 673 L545 177 Q545 112 578.5 88.5 Q612 65 716 65 Q912 65 1036 141 Q1160 217 1256 426 L1313 426 L1230 0 L33 0 Z M1046 1526 L930 1526 L700 1728 L470 1526 L354 1526 L605 1887 L795 1887 L1046 1526 Z " />
<glyph glyph-name="Aacute" unicode="&#xc1;" horiz-adv-x="1479" d="M805 483 L609 957 L592 957 L407 483 L805 483 Z M37 52 Q111 57 156 119 Q185 158 239 291 L694 1412 L751 1412 L1208 336 Q1285 155 1323 102.5 Q1361 50 1431 52 L1431 0 L768 0 L768 52 Q868 56 899.5 69 Q931 82 931 135 Q931 159 915 208 Q905 237 888 278 L836 402 L376 402 Q331 280 318 243 Q291 164 291 128 Q291 84 350 64 Q385 53 455 52 L455 0 L37 0 L37 52 Z M1076 1816 Q1076 1777 1055 1754.5 Q1034 1732 993 1707 L701 1526 L587 1526 L867 1849 Q884 1869 904 1882 Q939 1906 978 1906 Q1023 1906 1049.5 1880 Q1076 1854 1076 1816 Z " />
<glyph glyph-name="Edieresis" unicode="&#xcb;" horiz-adv-x="1366" d="M33 0 L33 52 Q121 55 158 76 Q215 108 215 196 L215 1187 Q215 1277 156 1308 Q122 1327 33 1332 L33 1384 L1213 1384 L1213 971 L1163 971 Q1124 1169 1030.5 1242 Q937 1315 690 1315 Q596 1315 570.5 1295.5 Q545 1276 545 1218 L545 744 Q720 742 782 807.5 Q844 873 877 1047 L929 1047 L929 355 L877 355 Q855 530 787.5 601.5 Q720 673 545 673 L545 177 Q545 112 578.5 88.5 Q612 65 716 65 Q912 65 1036 141 Q1160 217 1256 426 L1313 426 L1230 0 L33 0 Z M354 1678 Q354 1733 392.5 1772 Q431 1811 484 1811 Q539 1811 578 1772 Q617 1733 617 1678 Q617 1623 578 1584 Q539 1545 484 1545 Q433 1545 393.5 1583 Q354 1621 354 1678 Z M1046 1678 Q1046 1623 1007.5 1584 Q969 1545 916 1545 Q861 1545 822 1584 Q783 1623 783 1678 Q783 1733 822 1772 Q861 1811 916 1811 Q967 1811 1006.5 1773 Q1046 1735 1046 1678 Z " />
<glyph glyph-name="Egrave" unicode="&#xc8;" horiz-adv-x="1366" d="M33 0 L33 52 Q121 55 158 76 Q215 108 215 196 L215 1187 Q215 1277 156 1308 Q122 1327 33 1332 L33 1384 L1213 1384 L1213 971 L1163 971 Q1124 1169 1030.5 1242 Q937 1315 690 1315 Q596 1315 570.5 1295.5 Q545 1276 545 1218 L545 744 Q720 742 782 807.5 Q844 873 877 1047 L929 1047 L929 355 L877 355 Q855 530 787.5 601.5 Q720 673 545 673 L545 177 Q545 112 578.5 88.5 Q612 65 716 65 Q912 65 1036 141 Q1160 217 1256 426 L1313 426 L1230 0 L33 0 Z M375 1816 Q375 1857 403.5 1881.5 Q432 1906 470 1906 Q503 1906 532 1891 Q561 1876 584 1849 L864 1526 L750 1526 L458 1707 Q418 1732 396.5 1755 Q375 1778 375 1816 Z " />
<glyph glyph-name="Iacute" unicode="&#xcd;" horiz-adv-x="797" d="M33 52 Q120 54 158 73 Q220 105 220 196 L220 1187 Q220 1278 161 1309 Q125 1328 33 1332 L33 1384 L749 1384 L749 1332 Q653 1328 617 1310 Q557 1279 557 1187 L557 196 Q557 110 605 81 Q653 52 749 52 L749 0 L33 0 L33 52 Z M714 1816 Q714 1777 693 1754.5 Q672 1732 631 1707 L339 1526 L225 1526 L505 1849 Q522 1869 542 1882 Q577 1906 616 1906 Q661 1906 687.5 1880 Q714 1854 714 1816 Z " />
<glyph glyph-name="Icircumflex" unicode="&#xce;" horiz-adv-x="797" d="M33 52 Q120 54 158 73 Q220 105 220 196 L220 1187 Q220 1278 161 1309 Q125 1328 33 1332 L33 1384 L749 1384 L749 1332 Q653 1328 617 1310 Q557 1279 557 1187 L557 196 Q557 110 605 81 Q653 52 749 52 L749 0 L33 0 L33 52 Z M735 1526 L619 1526 L389 1728 L159 1526 L43 1526 L294 1887 L484 1887 L735 1526 Z " />
<glyph glyph-name="Idieresis" unicode="&#xcf;" horiz-adv-x="797" d="M33 52 Q120 54 158 73 Q220 105 220 196 L220 1187 Q220 1278 161 1309 Q125 1328 33 1332 L33 1384 L749 1384 L749 1332 Q653 1328 617 1310 Q557 1279 557 1187 L557 196 Q557 110 605 81 Q653 52 749 52 L749 0 L33 0 L33 52 Z M43 1678 Q43 1733 81.5 1772 Q120 1811 173 1811 Q228 1811 267 1772 Q306 1733 306 1678 Q306 1623 267 1584 Q228 1545 173 1545 Q122 1545 82.5 1583 Q43 1621 43 1678 Z M735 1678 Q735 1623 696.5 1584 Q658 1545 605 1545 Q550 1545 511 1584 Q472 1623 472 1678 Q472 1733 511 1772 Q550 1811 605 1811 Q656 1811 695.5 1773 Q735 1735 735 1678 Z " />
<glyph glyph-name="Igrave" unicode="&#xcc;" horiz-adv-x="797" d="M33 52 Q120 54 158 73 Q220 105 220 196 L220 1187 Q220 1278 161 1309 Q125 1328 33 1332 L33 1384 L749 1384 L749 1332 Q653 1328 617 1310 Q557 1279 557 1187 L557 196 Q557 110 605 81 Q653 52 749 52 L749 0 L33 0 L33 52 Z M64 1816 Q64 1857 92.5 1881.5 Q121 1906 159 1906 Q192 1906 221 1891 Q250 1876 273 1849 L553 1526 L439 1526 L147 1707 Q107 1732 85.5 1755 Q64 1778 64 1816 Z " />
<glyph glyph-name="Oacute" unicode="&#xd3;" horiz-adv-x="1593" d="M794 28 Q1024 28 1110 301 Q1156 449 1156 687 Q1156 1014 1058.5 1180 Q961 1346 794 1346 Q562 1346 476 1069 Q431 922 431 687 Q431 448 477 301 Q562 28 794 28 Z M794 1415 Q1104 1415 1309 1215 Q1520 1010 1520 687 Q1520 364 1309 159 Q1103 -41 794 -41 Q466 -41 259 178 Q66 384 66 676 Q66 998 268 1205 Q472 1415 794 1415 Z M1118 1816 Q1118 1777 1097 1754.5 Q1076 1732 1035 1707 L743 1526 L629 1526 L909 1849 Q926 1869 946 1882 Q981 1906 1020 1906 Q1065 1906 1091.5 1880 Q1118 1854 1118 1816 Z " />
<glyph glyph-name="Ocircumflex" unicode="&#xd4;" horiz-adv-x="1593" d="M794 28 Q1024 28 1110 301 Q1156 449 1156 687 Q1156 1014 1058.5 1180 Q961 1346 794 1346 Q562 1346 476 1069 Q431 922 431 687 Q431 448 477 301 Q562 28 794 28 Z M794 1415 Q1104 1415 1309 1215 Q1520 1010 1520 687 Q1520 364 1309 159 Q1103 -41 794 -41 Q466 -41 259 178 Q66 384 66 676 Q66 998 268 1205 Q472 1415 794 1415 Z M1139 1526 L1023 1526 L793 1728 L563 1526 L447 1526 L698 1887 L888 1887 L1139 1526 Z " />
<glyph glyph-name="apple" unicode="&#xf8ff;" horiz-adv-x="1618" d="M512 1266 Q587 1266 693.5 1235 Q800 1204 835 1204 Q880 1204 982 1239 Q1084 1274 1159 1274 Q1282 1274 1378 1208 Q1432 1170 1485 1105 Q1405 1037 1368 984 Q1301 888 1301 772 Q1301 645 1372 543 Q1443 441 1534 414 Q1496 291 1408 157 Q1275 -44 1144 -44 Q1092 -44 1000.5 -11 Q909 22 846 22 Q783 22 699.5 -12.5 Q616 -47 564 -47 Q407 -47 256 219 Q105 482 105 735 Q105 970 220.5 1118 Q336 1266 512 1266 Z M1142 1660 Q1146 1647 1147 1637 Q1148 1627 1148 1617 Q1148 1553 1118 1477 Q1088 1401 1023 1336 Q967 1281 912 1262 Q877 1251 806 1245 Q808 1397 885.5 1508 Q963 1619 1142 1660 Z " />
<glyph glyph-name="Ograve" unicode="&#xd2;" horiz-adv-x="1593" d="M794 28 Q1024 28 1110 301 Q1156 449 1156 687 Q1156 1014 1058.5 1180 Q961 1346 794 1346 Q562 1346 476 1069 Q431 922 431 687 Q431 448 477 301 Q562 28 794 28 Z M794 1415 Q1104 1415 1309 1215 Q1520 1010 1520 687 Q1520 364 1309 159 Q1103 -41 794 -41 Q466 -41 259 178 Q66 384 66 676 Q66 998 268 1205 Q472 1415 794 1415 Z M468 1816 Q468 1857 496.5 1881.5 Q525 1906 563 1906 Q596 1906 625 1891 Q654 1876 677 1849 L957 1526 L843 1526 L551 1707 Q511 1732 489.5 1755 Q468 1778 468 1816 Z " />
<glyph glyph-name="Uacute" unicode="&#xda;" horiz-adv-x="1479" d="M725 1384 L725 1332 Q606 1328 566 1295 Q526 1262 526 1144 L526 459 Q526 303 563 218 Q630 60 820 60 Q1056 60 1139 235 Q1185 331 1185 504 L1185 1130 Q1185 1240 1144.5 1281.5 Q1104 1323 986 1332 L986 1384 L1436 1384 L1436 1332 Q1338 1313 1306.5 1285.5 Q1275 1258 1275 1159 L1275 504 Q1275 243 1149 101 Q1023 -41 753 -41 Q400 -41 270 170 Q201 282 201 459 L201 1144 Q201 1260 170.5 1290 Q140 1320 33 1332 L33 1384 L725 1384 Z M1120 1816 Q1120 1777 1099 1754.5 Q1078 1732 1037 1707 L745 1526 L631 1526 L911 1849 Q928 1869 948 1882 Q983 1906 1022 1906 Q1067 1906 1093.5 1880 Q1120 1854 1120 1816 Z " />
<glyph glyph-name="Ucircumflex" unicode="&#xdb;" horiz-adv-x="1479" d="M725 1384 L725 1332 Q606 1328 566 1295 Q526 1262 526 1144 L526 459 Q526 303 563 218 Q630 60 820 60 Q1056 60 1139 235 Q1185 331 1185 504 L1185 1130 Q1185 1240 1144.5 1281.5 Q1104 1323 986 1332 L986 1384 L1436 1384 L1436 1332 Q1338 1313 1306.5 1285.5 Q1275 1258 1275 1159 L1275 504 Q1275 243 1149 101 Q1023 -41 753 -41 Q400 -41 270 170 Q201 282 201 459 L201 1144 Q201 1260 170.5 1290 Q140 1320 33 1332 L33 1384 L725 1384 Z M1141 1526 L1025 1526 L795 1728 L565 1526 L449 1526 L700 1887 L890 1887 L1141 1526 Z " />
<glyph glyph-name="Ugrave" unicode="&#xd9;" horiz-adv-x="1479" d="M725 1384 L725 1332 Q606 1328 566 1295 Q526 1262 526 1144 L526 459 Q526 303 563 218 Q630 60 820 60 Q1056 60 1139 235 Q1185 331 1185 504 L1185 1130 Q1185 1240 1144.5 1281.5 Q1104 1323 986 1332 L986 1384 L1436 1384 L1436 1332 Q1338 1313 1306.5 1285.5 Q1275 1258 1275 1159 L1275 504 Q1275 243 1149 101 Q1023 -41 753 -41 Q400 -41 270 170 Q201 282 201 459 L201 1144 Q201 1260 170.5 1290 Q140 1320 33 1332 L33 1384 L725 1384 Z M470 1816 Q470 1857 498.5 1881.5 Q527 1906 565 1906 Q598 1906 627 1891 Q656 1876 679 1849 L959 1526 L845 1526 L553 1707 Q513 1732 491.5 1755 Q470 1778 470 1816 Z " />
<glyph glyph-name="dotlessi" unicode="&#x131;" horiz-adv-x="569" d="M33 49 Q87 58 107 76 Q137 103 137 173 L137 775 Q137 837 116 859.5 Q95 882 33 893 L33 943 L426 943 L426 165 Q426 98 446 79 Q466 60 521 49 L521 0 L33 0 L33 49 Z " />
<glyph glyph-name="circumflex" unicode="&#x2c6;" horiz-adv-x="682" d="M630 1080 L514 1080 L284 1282 L54 1080 L-62 1080 L189 1441 L379 1441 L630 1080 Z " />
<glyph glyph-name="tilde" unicode="&#x2dc;" horiz-adv-x="682" d="M154 1379 Q187 1379 226.5 1367.5 Q266 1356 298 1341 L381 1303 Q405 1292 424 1286 Q443 1280 462 1280 Q508 1280 534 1310 Q551 1329 571 1379 L658 1379 Q637 1277 579.5 1199 Q522 1121 412 1121 Q381 1121 350 1128.5 Q319 1136 289 1149 L229 1175 Q150 1209 133.5 1215 Q117 1221 99 1221 Q49 1221 22 1184 Q6 1164 -5 1123 L-91 1123 Q-71 1216 -36 1272 Q31 1379 154 1379 Z " />
<glyph glyph-name="overscore" unicode="&#xaf;" horiz-adv-x="682" d="M-55 1303 L623 1303 L623 1156 L-55 1156 L-55 1303 Z " />
<glyph glyph-name="breve" unicode="&#x2d8;" horiz-adv-x="682" d="M64 1415 Q79 1337 109 1301 Q161 1237 278 1237 Q358 1237 422 1272.5 Q486 1308 502 1403 L504 1415 L594 1415 Q589 1258 506.5 1169 Q424 1080 278 1080 Q103 1080 26 1210 Q-22 1292 -27 1415 L64 1415 Z " />
<glyph glyph-name="dotaccent" unicode="&#x2d9;" horiz-adv-x="682" d="M146 1232 Q146 1290 186.5 1331 Q227 1372 284 1372 Q342 1372 383 1331 Q424 1290 424 1232 Q424 1174 383 1133 Q342 1092 284 1092 Q230 1092 188 1132.5 Q146 1173 146 1232 Z " />
<glyph glyph-name="ring" unicode="&#x2da;" horiz-adv-x="682" d="M149 1296 Q149 1247 184 1212.5 Q219 1178 267 1178 Q316 1178 351 1212.5 Q386 1247 386 1296 Q386 1345 351 1380 Q316 1415 267 1415 Q219 1415 184 1380 Q149 1345 149 1296 Z M49 1296 Q49 1386 113 1450 Q177 1514 267 1514 Q358 1514 421.5 1450 Q485 1386 485 1296 Q485 1206 421.5 1142 Q358 1078 267 1078 Q177 1078 113 1142 Q49 1206 49 1296 Z " />
<glyph glyph-name="cedilla" unicode="&#xb8;" horiz-adv-x="682" d="M116 -337 Q162 -354 185 -359 Q208 -364 242 -364 Q290 -364 322.5 -345.5 Q355 -327 355 -282 Q355 -246 328.5 -226.5 Q302 -207 258 -207 Q240 -207 229 -209 Q218 -211 203 -216 L182 -200 L270 0 L355 0 L298 -133 Q320 -128 332.5 -126 Q345 -124 365 -124 Q469 -124 508.5 -168 Q548 -212 548 -267 Q548 -369 464 -408.5 Q380 -448 276 -448 Q223 -448 176 -439.5 Q129 -431 82 -413 L116 -337 Z " />
<glyph glyph-name="hungarumlaut" unicode="&#x2dd;" horiz-adv-x="682" d="M798 1370 Q798 1331 779 1310 Q760 1289 715 1261 L424 1080 L310 1080 L590 1403 Q614 1430 640 1445 Q666 1460 702 1460 Q744 1460 771 1434.5 Q798 1409 798 1370 Z M419 1367 Q419 1338 402 1316.5 Q385 1295 336 1261 L59 1064 L-55 1064 L210 1403 Q229 1427 257.5 1443.5 Q286 1460 322 1460 Q370 1460 394.5 1431.5 Q419 1403 419 1367 Z " />
<glyph glyph-name="ogonek" unicode="&#x2db;" horiz-adv-x="682" d="M507 11 Q409 -21 332 -69 Q206 -149 206 -242 Q206 -284 237 -310.5 Q268 -337 312 -337 Q357 -337 415 -310 Q451 -293 512 -254 L557 -337 Q456 -402 404 -425 Q321 -463 243 -463 Q133 -463 73.5 -405 Q14 -347 14 -273 Q14 -114 259 -16 Q423 42 507 42 L507 11 Z " />
<glyph glyph-name="caron" unicode="&#x2c7;" horiz-adv-x="682" d="M-62 1441 L54 1441 L284 1239 L514 1441 L630 1441 L379 1080 L189 1080 L-62 1441 Z " />
<glyph glyph-name="Lslash" unicode="&#x141;" horiz-adv-x="1366" d="M37 52 Q121 55 157 74 Q218 106 218 196 L218 528 L-22 381 L-22 507 L218 654 L218 1187 Q218 1277 160 1308 Q126 1327 37 1332 L37 1384 L753 1384 L753 1332 Q628 1328 586.5 1297 Q545 1266 545 1144 L545 855 L808 1019 L808 893 L545 732 L545 177 Q545 109 580 87 Q615 65 717 65 Q917 65 1037.5 151 Q1158 237 1246 464 L1306 464 L1223 0 L37 0 L37 52 Z " />
<glyph glyph-name="lslash" unicode="&#x142;" horiz-adv-x="569" d="M33 49 Q87 62 109.5 83.5 Q132 105 132 173 L132 590 L-45 450 L-45 571 L132 711 L132 1125 Q132 1239 117.5 1282 Q103 1325 33 1334 L33 1384 L421 1384 L421 941 L587 1071 L587 950 L421 820 L421 173 Q421 105 443 84 Q465 63 521 49 L521 0 L33 0 L33 49 Z " />
<glyph glyph-name="Scaron" unicode="&#x160;" horiz-adv-x="1139" d="M71 478 L130 478 Q180 249 291.5 145 Q403 41 547 41 Q687 41 746 112.5 Q805 184 805 263 Q805 355 743 413 Q702 451 578 512 L445 578 Q247 676 166 772 Q85 868 85 1009 Q85 1159 192.5 1289 Q300 1419 522 1419 Q635 1419 740.5 1385 Q846 1351 861 1351 Q895 1351 908 1370.5 Q921 1390 929 1422 L990 1422 L990 976 L933 976 Q892 1131 788.5 1243 Q685 1355 537 1355 Q433 1355 372.5 1298.5 Q312 1242 312 1161 Q312 1064 369 1016 Q425 967 618 872 L772 796 Q875 745 936 683 Q1050 567 1050 401 Q1050 246 927.5 108.5 Q805 -29 535 -29 Q473 -29 409.5 -17.5 Q346 -6 284 18 L244 33 Q230 37 217 39.5 Q204 42 195 42 Q163 42 151 23.5 Q139 5 130 -29 L71 -29 L71 478 Z M222 1887 L338 1887 L568 1685 L798 1887 L914 1887 L663 1526 L473 1526 L222 1887 Z " />
<glyph glyph-name="scaron" unicode="&#x161;" horiz-adv-x="797" d="M52 310 L109 310 Q139 163 221 102.5 Q303 42 389 42 Q468 42 505 77.5 Q542 113 542 171 Q542 226 502 265 Q480 286 431 310 L279 384 Q159 443 107 512 Q54 581 54 675 Q54 794 137 880.5 Q220 967 369 967 Q434 967 507 945.5 Q580 924 598 924 Q623 924 633.5 934.5 Q644 945 651 964 L696 964 L696 668 L644 668 Q615 772 549 835 Q483 898 395 898 Q327 898 293.5 860 Q260 822 260 778 Q260 742 290 706 Q319 669 400 630 L512 576 Q616 526 664 479 Q744 399 744 282 Q744 168 661.5 69.5 Q579 -29 414 -29 Q373 -29 331.5 -20.5 Q290 -12 229 9 L194 21 Q175 28 170.5 29 Q166 30 159 30 Q142 30 129.5 16.5 Q117 3 101 -29 L52 -29 L52 310 Z M51 1441 L167 1441 L397 1239 L627 1441 L743 1441 L492 1080 L302 1080 L51 1441 Z " />
<glyph glyph-name="Zcaron" unicode="&#x17d;" horiz-adv-x="1366" d="M56 33 L839 1313 Q607 1313 562.5 1308.5 Q518 1304 481 1296 Q351 1270 277 1172 Q233 1113 177 962 L120 962 L163 1384 L1237 1384 L1237 1351 L459 71 Q876 71 1021.5 135 Q1167 199 1244 493 L1298 493 L1244 0 L56 0 L56 33 Z M353 1887 L469 1887 L699 1685 L929 1887 L1045 1887 L794 1526 L604 1526 L353 1887 Z " />
<glyph glyph-name="zcaron" unicode="&#x17e;" horiz-adv-x="909" d="M42 0 L42 52 L521 877 Q323 879 246.5 844.5 Q170 810 130 654 L78 654 L92 943 L850 943 L850 891 L379 61 Q579 66 647 100 Q751 151 803 327 L860 327 L827 0 L42 0 Z M128 1441 L244 1441 L474 1239 L704 1441 L820 1441 L569 1080 L379 1080 L128 1441 Z " />
<glyph glyph-name="brokenbar" unicode="&#xa6;" horiz-adv-x="451" d="M120 0 L120 552 L329 552 L329 0 L120 0 Z M120 860 L120 1412 L329 1412 L329 860 L120 860 Z " />
<glyph glyph-name="Eth" unicode="&#xd0;" horiz-adv-x="1479" d="M28 52 Q105 57 139 74 Q199 105 199 187 L199 751 L0 751 L0 846 L199 846 L199 1197 Q199 1276 142 1307 Q109 1325 28 1332 L28 1384 L654 1384 Q1033 1384 1232 1182 Q1413 998 1413 688 Q1413 410 1231 217 Q1026 0 675 0 L28 0 L28 52 Z M530 189 Q533 126 553.5 98 Q574 70 641 70 Q823 70 940 198.5 Q1057 327 1057 692 Q1057 901 996 1058 Q896 1316 658 1316 Q572 1316 546 1286 Q530 1268 530 1218 L530 846 L862 846 L862 751 L530 751 L530 189 Z " />
<glyph glyph-name="eth" unicode="&#xf0;" horiz-adv-x="1024" d="M367 478 Q367 306 390 211 Q433 36 554 36 Q647 36 685.5 145.5 Q724 255 724 467 Q724 666 687 788 Q650 910 552 910 Q434 910 390 724 Q367 627 367 478 Z M526 962 Q618 962 678 936 Q714 920 763 879 Q733 968 680 1043 Q616 1128 526 1199 L324 1078 L246 1142 L436 1253 Q371 1291 303 1312 Q262 1325 168 1346 L187 1412 Q283 1405 387 1376 Q485 1344 542 1320 L746 1438 L822 1377 L637 1268 Q837 1146 940.5 969 Q1044 792 1044 577 Q1044 298 897 136.5 Q750 -25 547 -25 Q349 -25 209.5 113 Q70 251 70 452 Q70 681 203 821.5 Q336 962 526 962 Z " />
<glyph glyph-name="Yacute" unicode="&#xdd;" horiz-adv-x="1479" d="M715 1384 L715 1332 Q609 1326 579 1316 Q549 1306 549 1274 Q549 1260 554.5 1243.5 Q560 1227 580 1184 L836 692 L853 692 L1073 1052 Q1094 1085 1117 1133 Q1152 1206 1152 1241 Q1152 1295 1109 1313 Q1080 1325 981 1332 L981 1384 L1431 1384 L1431 1332 Q1382 1323 1353 1311 Q1316 1292 1291 1253 L900 616 L900 239 Q900 122 940 88.5 Q980 55 1090 52 L1090 0 L379 0 L379 52 Q493 55 530.5 91 Q568 127 568 239 L568 540 L194 1220 Q157 1287 103 1314 Q67 1331 30 1332 L30 1384 L715 1384 Z M1095 1816 Q1095 1777 1074 1754.5 Q1053 1732 1012 1707 L720 1526 L606 1526 L886 1849 Q903 1869 923 1882 Q958 1906 997 1906 Q1042 1906 1068.5 1880 Q1095 1854 1095 1816 Z " />
<glyph glyph-name="yacute" unicode="&#xfd;" horiz-adv-x="1024" d="M33 -264 Q33 -194 73.5 -161 Q114 -128 170 -128 Q219 -128 250.5 -157 Q282 -186 282 -226 L277 -271 Q277 -284 287 -295 Q297 -306 312 -306 Q362 -306 405 -225 Q432 -175 483 -29 L237 578 Q211 642 186.5 698 Q162 754 135 807 Q107 861 91 875 Q75 889 33 893 L33 943 L545 943 L545 893 Q497 892 466.5 882 Q436 872 436 839 Q436 832 439.5 820 Q443 808 455 777 L616 365 L632 365 L763 734 Q773 764 779.5 786.5 Q786 809 786 826 Q786 869 757.5 880.5 Q729 892 673 893 L673 943 L983 943 L983 893 Q943 890 917.5 871.5 Q892 853 865 782 L559 -34 Q475 -260 414.5 -341 Q354 -422 225 -422 Q131 -422 82 -372.5 Q33 -323 33 -264 Z M838 1370 Q838 1331 817 1308.5 Q796 1286 755 1261 L463 1080 L349 1080 L629 1403 Q646 1423 666 1436 Q701 1460 740 1460 Q785 1460 811.5 1434 Q838 1408 838 1370 Z " />
<glyph glyph-name="Thorn" unicode="&#xde;" horiz-adv-x="1251" d="M603 393 Q718 397 786 450 Q854 503 854 700 Q854 901 765 970 Q708 1014 583 1014 L530 1014 L530 393 L603 393 Z M696 1384 L696 1332 Q581 1326 555.5 1275.5 Q530 1225 530 1080 L648 1080 Q788 1077 873 1065.5 Q958 1054 1043 1005 Q1122 954 1161.5 879.5 Q1201 805 1201 704 Q1201 544 1066.5 433 Q932 322 642 322 L530 322 L530 192 Q530 108 587 77 Q621 59 711 52 L711 0 L37 0 L37 52 Q137 63 168 97.5 Q199 132 199 244 L199 1159 Q199 1267 164.5 1294.5 Q130 1322 33 1332 L33 1384 L696 1384 Z " />
<glyph glyph-name="thorn" unicode="&#xfe;" horiz-adv-x="1139" d="M593 86 Q709 86 747 224 Q769 304 769 489 Q769 643 749 715 Q713 843 606 843 Q541 843 490.5 791.5 Q440 740 440 711 L440 208 Q440 182 483 134 Q526 86 593 86 Z M47 1374 L438 1374 L438 820 Q489 890 545 927 Q601 964 702 964 Q860 964 965.5 830.5 Q1071 697 1071 487 Q1071 267 963.5 119.5 Q856 -28 685 -28 Q595 -28 528 16 Q489 41 440 99 Q440 71 439 -20 Q438 -111 439 -161 Q441 -289 464.5 -326.5 Q488 -364 592 -375 L592 -418 L37 -418 L37 -375 Q113 -354 132 -330 Q151 -306 151 -211 L151 1220 Q151 1286 132 1304 Q113 1322 47 1332 L47 1374 Z " />
<glyph glyph-name="minus" unicode="&#x2212;" horiz-adv-x="1167" d="M1116 640 L1116 429 L49 429 L49 640 L1116 640 Z " />
<glyph glyph-name="multiply" unicode="&#xd7;" horiz-adv-x="1167" d="M950 1052 L1102 900 L734 533 L1102 168 L950 16 L583 384 L218 16 L66 168 L431 533 L66 900 L218 1052 L583 685 L950 1052 Z " />
<glyph glyph-name="onesuperior" unicode="&#xb9;" horiz-adv-x="614" d="M137 578 Q234 578 266 602.5 Q298 627 298 704 L298 1185 Q298 1230 285.5 1250 Q273 1270 246 1270 Q232 1270 211 1264 Q190 1258 132 1239 L132 1270 L474 1408 L497 1408 L497 696 Q497 628 522.5 602 Q548 576 644 578 L644 549 L137 549 L137 578 Z " />
<glyph glyph-name="twosuperior" unicode="&#xb2;" horiz-adv-x="614" d="M59 578 Q265 787 331 871 Q436 1006 436 1104 Q436 1158 400 1211.5 Q364 1265 282 1265 Q209 1265 163 1222 Q138 1198 116 1152 L78 1152 Q138 1314 249 1376 Q307 1408 370 1408 Q466 1408 542 1349 Q618 1290 618 1182 Q618 1082 555.5 1006.5 Q493 931 260 725 L260 715 L450 715 Q556 715 584.5 730.5 Q613 746 640 813 L673 813 L613 549 L59 549 L59 578 Z " />
<glyph glyph-name="threesuperior" unicode="&#xb3;" horiz-adv-x="614" d="M65 649 Q65 670 85.5 691.5 Q106 713 149 713 Q210 713 276.5 651.5 Q343 590 381 590 Q435 590 474.5 625 Q514 660 514 736 Q514 852 406 923 Q347 963 246 990 L246 1012 Q328 1038 362 1062 Q420 1103 420 1176 Q420 1249 364 1283 Q330 1303 293 1303 Q238 1303 202 1284 Q166 1265 120 1199 L92 1213 Q127 1289 207.5 1346 Q288 1403 392 1403 Q483 1403 549.5 1363.5 Q616 1324 616 1238 Q616 1184 594.5 1155 Q573 1126 512 1080 L512 1073 Q577 1050 621.5 993 Q666 936 666 849 Q666 737 562 632.5 Q458 528 264 528 Q188 528 126.5 554.5 Q65 581 65 649 Z " />
<glyph glyph-name="onehalf" unicode="&#xbd;" horiz-adv-x="1536" d="M1405 622 Q1405 530 1334 439 Q1291 384 1183 291 L1047 173 L1047 161 L1237 161 Q1337 161 1368.5 176.5 Q1400 192 1426 258 L1460 258 L1400 0 L846 0 L846 26 Q1075 257 1148.5 355.5 Q1222 454 1222 549 Q1222 608 1182 656 Q1142 704 1064 704 Q1015 704 972.5 679 Q930 654 903 592 L865 592 Q899 684 945 740 Q1030 843 1160 843 Q1255 843 1330 784 Q1405 725 1405 622 Z M1156 1408 L1270 1408 L369 -24 L251 -24 L1156 1408 Z M87 564 L87 592 Q191 592 218.5 618 Q246 644 246 715 L246 1187 Q246 1241 233 1256.5 Q220 1272 196 1272 Q178 1272 166.5 1269 Q155 1266 111 1251 L85 1242 L85 1272 L421 1408 L443 1408 L443 708 Q443 639 467.5 615.5 Q492 592 587 592 L587 564 L87 564 Z " />
<glyph glyph-name="onequarter" unicode="&#xbc;" horiz-adv-x="1536" d="M1372 843 L1372 310 L1455 310 L1455 175 L1372 175 L1372 0 L1180 0 L1180 175 L848 175 L848 315 Q848 323 976 489 Q1125 680 1265 843 L1372 843 Z M1180 661 L1170 661 L912 322 L912 310 L1180 310 L1180 661 Z M1232 1408 L1346 1408 L445 -24 L327 -24 L1232 1408 Z M87 564 L87 592 Q191 592 218.5 618 Q246 644 246 715 L246 1187 Q246 1241 233 1256.5 Q220 1272 196 1272 Q178 1272 166.5 1269 Q155 1266 111 1251 L85 1242 L85 1272 L421 1408 L443 1408 L443 708 Q443 639 467.5 615.5 Q492 592 587 592 L587 564 L87 564 Z " />
<glyph glyph-name="threequarters" unicode="&#xbe;" horiz-adv-x="1536" d="M100 727 Q165 727 230.5 666.5 Q296 606 333 606 Q405 606 438 650 Q471 694 471 747 Q471 859 372 927 Q317 965 201 1000 L201 1021 Q273 1039 311 1065 Q376 1108 376 1184 Q376 1247 332 1278.5 Q288 1310 244 1310 Q187 1310 150.5 1285.5 Q114 1261 75 1206 L47 1220 Q101 1303 149 1341 Q232 1408 352 1408 Q456 1408 513.5 1358 Q571 1308 571 1240 Q571 1180 536 1140 Q515 1116 466 1088 L466 1080 Q536 1058 579.5 999 Q623 940 623 867 Q623 754 519.5 649.5 Q416 545 221 545 Q130 545 75 574.5 Q20 604 20 657 Q20 688 41 707.5 Q62 727 100 727 Z M1372 843 L1372 310 L1455 310 L1455 175 L1372 175 L1372 0 L1180 0 L1180 175 L848 175 L848 315 Q848 323 976 489 Q1125 680 1265 843 L1372 843 Z M1180 661 L1170 661 L912 322 L912 310 L1180 310 L1180 661 Z M1232 1408 L1346 1408 L445 -24 L327 -24 L1232 1408 Z " />
<glyph glyph-name="franc" unicode="&#x20a3;" horiz-adv-x="1024" d="M1005 971 L955 971 Q929 1109 877 1182 Q784 1314 590 1314 Q519 1314 492.5 1296 Q466 1278 466 1218 L466 744 Q643 741 701 803.5 Q759 866 779 1002 L832 1002 L832 414 L779 414 Q754 572 693.5 622.5 Q633 673 466 673 L466 436 L680 436 L680 341 L466 341 L466 196 Q466 101 535 70 Q575 52 673 52 L673 0 L0 0 L0 52 Q74 56 118.5 84 Q163 112 163 196 L163 341 L0 341 L0 436 L163 436 L163 1187 Q163 1272 112 1305 Q81 1324 0 1332 L0 1384 L1005 1384 L1005 971 Z " />
<glyph glyph-name="Gbreve" unicode="&#x11e;" horiz-adv-x="1593" d="M75 680 Q75 986 272 1195 Q476 1410 793 1410 Q920 1410 1046 1362.5 Q1172 1315 1203 1315 Q1236 1315 1256 1338 Q1276 1361 1289 1408 L1346 1408 L1346 929 L1294 929 Q1220 1085 1143 1175 Q999 1341 817 1341 Q619 1341 528 1169 Q437 997 437 685 Q437 429 521.5 228.5 Q606 28 848 28 Q979 28 1024 83 Q1050 114 1050 177 L1050 393 Q1050 486 993 515 Q956 533 843 535 L843 587 L1545 587 L1545 535 Q1439 531 1404.5 492.5 Q1370 454 1370 348 L1370 87 Q1302 45 1150 3 Q998 -39 810 -39 Q469 -39 265 176 Q75 377 75 680 Z M576 1861 Q591 1783 621 1747 Q673 1683 790 1683 Q870 1683 934 1718.5 Q998 1754 1014 1849 L1016 1861 L1106 1861 Q1101 1704 1018.5 1615 Q936 1526 790 1526 Q615 1526 538 1656 Q490 1738 485 1861 L576 1861 Z " />
<glyph glyph-name="gbreve" unicode="&#x11f;" horiz-adv-x="1024" d="M346 637 Q346 519 366 462 Q396 372 481 372 Q558 372 587 439.5 Q616 507 616 637 Q616 775 585.5 838 Q555 901 481 901 Q400 901 373 833.5 Q346 766 346 637 Z M227 -223 Q227 -286 294.5 -322 Q362 -358 490 -358 Q604 -358 678 -340 Q817 -306 817 -215 Q817 -162 777.5 -135.5 Q738 -109 634 -109 L298 -109 Q266 -135 252 -153 Q227 -186 227 -223 Z M47 -237 Q47 -193 83.5 -146.5 Q120 -100 210 -86 L210 -72 Q150 -49 123 -25 Q75 18 75 90 Q75 176 150.5 237 Q226 298 298 322 L298 336 Q194 378 130 456 Q66 534 66 645 Q66 785 178 876 Q290 967 481 967 Q553 967 613 953 Q673 939 706 924 L976 924 L976 815 L810 815 Q850 776 871.5 724 Q893 672 893 611 Q893 419 710 348 Q614 310 471 310 Q440 310 430.5 311 Q421 312 402 312 Q372 307 339 280 Q305 252 305 213 Q305 182 322 165 Q339 148 369 144 Q384 142 433 140.5 Q482 139 509 139 L642 137 Q755 135 832 104 Q979 44 979 -111 Q979 -311 759 -386 Q643 -425 467 -425 Q323 -425 219 -397 Q47 -350 47 -237 Z M291 1415 Q306 1337 336 1301 Q388 1237 505 1237 Q585 1237 649 1272.5 Q713 1308 729 1403 L731 1415 L821 1415 Q816 1258 733.5 1169 Q651 1080 505 1080 Q330 1080 253 1210 Q205 1292 200 1415 L291 1415 Z " />
<glyph glyph-name="Idot" unicode="&#x130;" horiz-adv-x="797" d="M33 52 Q120 54 158 73 Q220 105 220 196 L220 1187 Q220 1278 161 1309 Q125 1328 33 1332 L33 1384 L749 1384 L749 1332 Q653 1328 617 1310 Q557 1279 557 1187 L557 196 Q557 110 605 81 Q653 52 749 52 L749 0 L33 0 L33 52 Z M250 1678 Q250 1736 290.5 1777 Q331 1818 388 1818 Q446 1818 487 1777 Q528 1736 528 1678 Q528 1620 487 1579 Q446 1538 388 1538 Q334 1538 292 1578.5 Q250 1619 250 1678 Z " />
<glyph glyph-name="Scedilla" unicode="&#x15e;" horiz-adv-x="1139" d="M71 478 L130 478 Q180 249 291.5 145 Q403 41 547 41 Q687 41 746 112.5 Q805 184 805 263 Q805 355 743 413 Q702 451 578 512 L445 578 Q247 676 166 772 Q85 868 85 1009 Q85 1159 192.5 1289 Q300 1419 522 1419 Q635 1419 740.5 1385 Q846 1351 861 1351 Q895 1351 908 1370.5 Q921 1390 929 1422 L990 1422 L990 976 L933 976 Q892 1131 788.5 1243 Q685 1355 537 1355 Q433 1355 372.5 1298.5 Q312 1242 312 1161 Q312 1064 369 1016 Q425 967 618 872 L772 796 Q875 745 936 683 Q1050 567 1050 401 Q1050 246 927.5 108.5 Q805 -29 597 -29 L552 -133 Q574 -128 586.5 -126 Q599 -124 619 -124 Q723 -124 762.5 -168 Q802 -212 802 -267 Q802 -369 718 -408.5 Q634 -448 530 -448 Q477 -448 430 -439.5 Q383 -431 336 -413 L370 -337 Q416 -354 439 -359 Q462 -364 496 -364 Q544 -364 576.5 -345.5 Q609 -327 609 -282 Q609 -246 582.5 -226.5 Q556 -207 512 -207 Q494 -207 483 -209 Q472 -211 457 -216 L436 -200 L512 -29 Q473 -29 409.5 -17.5 Q346 -6 284 18 L244 33 Q230 37 217 39.5 Q204 42 195 42 Q163 42 151 23.5 Q139 5 130 -29 L71 -29 L71 478 Z " />
<glyph glyph-name="scedilla" unicode="&#x15f;" horiz-adv-x="797" d="M52 310 L109 310 Q139 163 221 102.5 Q303 42 389 42 Q468 42 505 77.5 Q542 113 542 171 Q542 226 502 265 Q480 286 431 310 L279 384 Q159 443 107 512 Q54 581 54 675 Q54 794 137 880.5 Q220 967 369 967 Q434 967 507 945.5 Q580 924 598 924 Q623 924 633.5 934.5 Q644 945 651 964 L696 964 L696 668 L644 668 Q615 772 549 835 Q483 898 395 898 Q327 898 293.5 860 Q260 822 260 778 Q260 742 290 706 Q319 669 400 630 L512 576 Q616 526 664 479 Q744 399 744 282 Q744 168 661.5 69.5 Q579 -29 427 -29 L381 -133 Q403 -128 415.5 -126 Q428 -124 448 -124 Q552 -124 591.5 -168 Q631 -212 631 -267 Q631 -369 547 -408.5 Q463 -448 359 -448 Q306 -448 259 -439.5 Q212 -431 165 -413 L199 -337 Q245 -354 268 -359 Q291 -364 325 -364 Q373 -364 405.5 -345.5 Q438 -327 438 -282 Q438 -246 411.5 -226.5 Q385 -207 341 -207 Q323 -207 312 -209 Q301 -211 286 -216 L265 -200 L343 -24 Q309 -17 288 -10.5 Q267 -4 229 9 L194 21 Q175 28 170.5 29 Q166 30 159 30 Q142 30 129.5 16.5 Q117 3 101 -29 L52 -29 L52 310 Z " />
<glyph glyph-name="Cacute" unicode="&#x106;" horiz-adv-x="1479" d="M792 1410 Q920 1410 1051 1362.5 Q1182 1315 1197 1315 Q1236 1315 1259.5 1345 Q1283 1375 1289 1408 L1346 1408 L1346 929 L1294 929 Q1220 1085 1143 1175 Q999 1341 817 1341 Q611 1341 524.5 1163.5 Q438 986 438 687 Q438 467 489 325 Q584 59 842 59 Q1000 59 1136 147 Q1214 198 1320 310 L1381 260 Q1261 126 1170 66 Q1008 -41 810 -41 Q507 -41 302 139 Q75 338 75 675 Q75 1009 292 1216 Q496 1410 792 1410 Z M1112 1816 Q1112 1777 1091 1754.5 Q1070 1732 1029 1707 L737 1526 L623 1526 L903 1849 Q920 1869 940 1882 Q975 1906 1014 1906 Q1059 1906 1085.5 1880 Q1112 1854 1112 1816 Z " />
<glyph glyph-name="cacute" unicode="&#x107;" horiz-adv-x="909" d="M528 969 Q657 969 751.5 906 Q846 843 846 744 Q846 691 808.5 652 Q771 613 713 613 Q674 613 645 631 Q590 663 590 747 Q590 756 591 773.5 Q592 791 592 811 Q592 865 567 885 Q541 905 508 905 Q413 905 373 800.5 Q333 696 333 561 Q333 369 409 239 Q485 109 614 109 Q695 109 752 145 Q786 166 836 222 L874 187 Q774 48 640 -4 Q569 -31 489 -31 Q292 -31 167 110 Q42 251 42 454 Q42 668 174.5 818.5 Q307 969 528 969 Z M807 1370 Q807 1331 786 1308.5 Q765 1286 724 1261 L432 1080 L318 1080 L598 1403 Q615 1423 635 1436 Q670 1460 709 1460 Q754 1460 780.5 1434 Q807 1408 807 1370 Z " />
<glyph glyph-name="Ccaron" unicode="&#x10c;" horiz-adv-x="1479" d="M792 1410 Q920 1410 1051 1362.5 Q1182 1315 1197 1315 Q1236 1315 1259.5 1345 Q1283 1375 1289 1408 L1346 1408 L1346 929 L1294 929 Q1220 1085 1143 1175 Q999 1341 817 1341 Q611 1341 524.5 1163.5 Q438 986 438 687 Q438 467 489 325 Q584 59 842 59 Q1000 59 1136 147 Q1214 198 1320 310 L1381 260 Q1261 126 1170 66 Q1008 -41 810 -41 Q507 -41 302 139 Q75 338 75 675 Q75 1009 292 1216 Q496 1410 792 1410 Z M441 1887 L557 1887 L787 1685 L1017 1887 L1133 1887 L882 1526 L692 1526 L441 1887 Z " />
<glyph glyph-name="ccaron" unicode="&#x10d;" horiz-adv-x="909" d="M528 969 Q657 969 751.5 906 Q846 843 846 744 Q846 691 808.5 652 Q771 613 713 613 Q674 613 645 631 Q590 663 590 747 Q590 756 591 773.5 Q592 791 592 811 Q592 865 567 885 Q541 905 508 905 Q413 905 373 800.5 Q333 696 333 561 Q333 369 409 239 Q485 109 614 109 Q695 109 752 145 Q786 166 836 222 L874 187 Q774 48 640 -4 Q569 -31 489 -31 Q292 -31 167 110 Q42 251 42 454 Q42 668 174.5 818.5 Q307 969 528 969 Z M136 1441 L252 1441 L482 1239 L712 1441 L828 1441 L577 1080 L387 1080 L136 1441 Z " />
<glyph glyph-name="dslash" unicode="&#x111;" horiz-adv-x="1139" d="M516 87 Q582 87 634.5 146 Q687 205 687 229 L687 727 Q687 752 642 801 Q597 850 523 850 Q414 850 375 699 Q354 618 354 470 Q354 312 374 232 Q411 87 516 87 Z M52 443 Q52 686 167.5 826.5 Q283 967 445 967 Q526 967 589 927 Q628 903 687 841 L687 1077 L440 1077 L440 1204 L687 1204 Q687 1293 657 1311.5 Q627 1330 533 1334 L533 1384 L974 1384 L974 1204 L1118 1204 L1118 1077 L974 1077 L974 206 Q974 142 998 117.5 Q1022 93 1092 87 L1092 40 Q920 23 870 14.5 Q820 6 694 -29 L694 106 Q636 46 588 17 Q512 -29 424 -29 Q274 -29 163 98 Q52 225 52 443 Z " />
<glyph glyph-name="Amacron" unicode="&#x100;" horiz-adv-x="1479" d="M805 483 L609 957 L592 957 L407 483 L805 483 Z M37 52 Q111 57 156 119 Q185 158 239 291 L694 1412 L751 1412 L1208 336 Q1285 155 1323 102.5 Q1361 50 1431 52 L1431 0 L768 0 L768 52 Q868 56 899.5 69 Q931 82 931 135 Q931 159 915 208 Q905 237 888 278 L836 402 L376 402 Q331 280 318 243 Q291 164 291 128 Q291 84 350 64 Q385 53 455 52 L455 0 L37 0 L37 52 Z M395 1664 L1073 1664 L1073 1517 L395 1517 L395 1664 Z " />
<glyph glyph-name="amacron" unicode="&#x101;" horiz-adv-x="1024" d="M449 117 Q499 117 542 147 Q566 165 599 203 L599 502 Q517 482 455 439 Q350 366 350 253 Q350 186 380.5 151.5 Q411 117 449 117 Z M52 191 Q52 329 185 410 Q318 491 602 573 L602 722 Q602 813 563.5 856.5 Q525 900 427 900 Q372 900 336.5 879.5 Q301 859 301 828 Q301 816 305 808 Q309 800 317 791 L329 777 Q343 760 351.5 739.5 Q360 719 360 696 Q360 638 321.5 606.5 Q283 575 232 575 Q173 575 131.5 610 Q90 645 90 711 Q90 829 201 898 Q312 967 474 967 Q648 967 765 900 Q881 832 881 650 L881 154 Q881 132 892.5 116.5 Q904 101 918 101 Q930 101 939.5 105.5 Q949 110 969 130 L1000 87 Q940 17 867 -11 Q821 -29 770 -29 Q679 -29 637 24 Q613 54 602 113 Q517 28 410 -7 Q345 -29 282 -29 Q198 -29 125 24.5 Q52 78 52 191 Z M187 1222 L865 1222 L865 1075 L187 1075 L187 1222 Z " />
<glyph glyph-name="Abreve" unicode="&#x102;" horiz-adv-x="1479" d="M805 483 L609 957 L592 957 L407 483 L805 483 Z M37 52 Q111 57 156 119 Q185 158 239 291 L694 1412 L751 1412 L1208 336 Q1285 155 1323 102.5 Q1361 50 1431 52 L1431 0 L768 0 L768 52 Q868 56 899.5 69 Q931 82 931 135 Q931 159 915 208 Q905 237 888 278 L836 402 L376 402 Q331 280 318 243 Q291 164 291 128 Q291 84 350 64 Q385 53 455 52 L455 0 L37 0 L37 52 Z M510 1860 Q525 1782 555 1746 Q607 1682 724 1682 Q804 1682 868 1717.5 Q932 1753 948 1848 L950 1860 L1040 1860 Q1035 1703 952.5 1614 Q870 1525 724 1525 Q549 1525 472 1655 Q424 1737 419 1860 L510 1860 Z " />
<glyph glyph-name="abreve" unicode="&#x103;" horiz-adv-x="1024" d="M449 117 Q499 117 542 147 Q566 165 599 203 L599 502 Q517 482 455 439 Q350 366 350 253 Q350 186 380.5 151.5 Q411 117 449 117 Z M52 191 Q52 329 185 410 Q318 491 602 573 L602 722 Q602 813 563.5 856.5 Q525 900 427 900 Q372 900 336.5 879.5 Q301 859 301 828 Q301 816 305 808 Q309 800 317 791 L329 777 Q343 760 351.5 739.5 Q360 719 360 696 Q360 638 321.5 606.5 Q283 575 232 575 Q173 575 131.5 610 Q90 645 90 711 Q90 829 201 898 Q312 967 474 967 Q648 967 765 900 Q881 832 881 650 L881 154 Q881 132 892.5 116.5 Q904 101 918 101 Q930 101 939.5 105.5 Q949 110 969 130 L1000 87 Q940 17 867 -11 Q821 -29 770 -29 Q679 -29 637 24 Q613 54 602 113 Q517 28 410 -7 Q345 -29 282 -29 Q198 -29 125 24.5 Q52 78 52 191 Z M302 1423 Q317 1345 347 1309 Q399 1245 516 1245 Q596 1245 660 1280.5 Q724 1316 740 1411 L742 1423 L832 1423 Q827 1266 744.5 1177 Q662 1088 516 1088 Q341 1088 264 1218 Q216 1300 211 1423 L302 1423 Z " />
<glyph glyph-name="Aogonek" unicode="&#x104;" horiz-adv-x="1479" d="M805 483 L609 957 L592 957 L407 483 L805 483 Z M37 52 Q111 57 156 119 Q185 158 239 291 L694 1412 L751 1412 L1208 336 Q1285 155 1323 102.5 Q1361 50 1431 52 L1431 0 L768 0 L768 52 Q868 56 899.5 69 Q931 82 931 135 Q931 159 915 208 Q905 237 888 278 L836 402 L376 402 Q331 280 318 243 Q291 164 291 128 Q291 84 350 64 Q385 53 455 52 L455 0 L37 0 L37 52 Z M1314 26 Q1216 -6 1139 -54 Q1013 -134 1013 -227 Q1013 -269 1044 -295.5 Q1075 -322 1119 -322 Q1164 -322 1222 -295 Q1258 -278 1319 -239 L1364 -322 Q1263 -387 1211 -410 Q1128 -448 1050 -448 Q940 -448 880.5 -390 Q821 -332 821 -258 Q821 -99 1066 -1 Q1230 57 1314 57 L1314 26 Z " />
<glyph glyph-name="aogonek" unicode="&#x105;" horiz-adv-x="1024" d="M449 117 Q499 117 542 147 Q566 165 599 203 L599 502 Q517 482 455 439 Q350 366 350 253 Q350 186 380.5 151.5 Q411 117 449 117 Z M52 191 Q52 329 185 410 Q318 491 602 573 L602 722 Q602 813 563.5 856.5 Q525 900 427 900 Q372 900 336.5 879.5 Q301 859 301 828 Q301 816 305 808 Q309 800 317 791 L329 777 Q343 760 351.5 739.5 Q360 719 360 696 Q360 638 321.5 606.5 Q283 575 232 575 Q173 575 131.5 610 Q90 645 90 711 Q90 829 201 898 Q312 967 474 967 Q648 967 765 900 Q881 832 881 650 L881 154 Q881 132 892.5 116.5 Q904 101 918 101 Q930 101 939.5 105.5 Q949 110 969 130 L1000 87 Q940 17 867 -11 Q821 -29 770 -29 Q679 -29 637 24 Q613 54 602 113 Q517 28 410 -7 Q345 -29 282 -29 Q198 -29 125 24.5 Q52 78 52 191 Z M891 22 Q793 -10 716 -58 Q590 -138 590 -231 Q590 -273 621 -299.5 Q652 -326 696 -326 Q741 -326 799 -299 Q835 -282 896 -243 L941 -326 Q840 -391 788 -414 Q705 -452 627 -452 Q517 -452 457.5 -394 Q398 -336 398 -262 Q398 -103 643 -5 Q807 53 891 53 L891 22 Z " />
<glyph glyph-name="Ccircumflex" unicode="&#x108;" horiz-adv-x="1479" d="M792 1410 Q920 1410 1051 1362.5 Q1182 1315 1197 1315 Q1236 1315 1259.5 1345 Q1283 1375 1289 1408 L1346 1408 L1346 929 L1294 929 Q1220 1085 1143 1175 Q999 1341 817 1341 Q611 1341 524.5 1163.5 Q438 986 438 687 Q438 467 489 325 Q584 59 842 59 Q1000 59 1136 147 Q1214 198 1320 310 L1381 260 Q1261 126 1170 66 Q1008 -41 810 -41 Q507 -41 302 139 Q75 338 75 675 Q75 1009 292 1216 Q496 1410 792 1410 Z M1078 1520 L962 1520 L732 1722 L502 1520 L386 1520 L637 1881 L827 1881 L1078 1520 Z " />
<glyph glyph-name="ccircumflex" unicode="&#x109;" horiz-adv-x="909" d="M528 969 Q657 969 751.5 906 Q846 843 846 744 Q846 691 808.5 652 Q771 613 713 613 Q674 613 645 631 Q590 663 590 747 Q590 756 591 773.5 Q592 791 592 811 Q592 865 567 885 Q541 905 508 905 Q413 905 373 800.5 Q333 696 333 561 Q333 369 409 239 Q485 109 614 109 Q695 109 752 145 Q786 166 836 222 L874 187 Q774 48 640 -4 Q569 -31 489 -31 Q292 -31 167 110 Q42 251 42 454 Q42 668 174.5 818.5 Q307 969 528 969 Z M799 1059 L683 1059 L453 1261 L223 1059 L107 1059 L358 1420 L548 1420 L799 1059 Z " />
<glyph glyph-name="Cdotaccent" unicode="&#x10a;" horiz-adv-x="1479" d="M792 1410 Q920 1410 1051 1362.5 Q1182 1315 1197 1315 Q1236 1315 1259.5 1345 Q1283 1375 1289 1408 L1346 1408 L1346 929 L1294 929 Q1220 1085 1143 1175 Q999 1341 817 1341 Q611 1341 524.5 1163.5 Q438 986 438 687 Q438 467 489 325 Q584 59 842 59 Q1000 59 1136 147 Q1214 198 1320 310 L1381 260 Q1261 126 1170 66 Q1008 -41 810 -41 Q507 -41 302 139 Q75 338 75 675 Q75 1009 292 1216 Q496 1410 792 1410 Z M611 1673 Q611 1731 651.5 1772 Q692 1813 749 1813 Q807 1813 848 1772 Q889 1731 889 1673 Q889 1615 848 1574 Q807 1533 749 1533 Q695 1533 653 1573.5 Q611 1614 611 1673 Z " />
<glyph glyph-name="cdotaccent" unicode="&#x10b;" horiz-adv-x="909" d="M528 969 Q657 969 751.5 906 Q846 843 846 744 Q846 691 808.5 652 Q771 613 713 613 Q674 613 645 631 Q590 663 590 747 Q590 756 591 773.5 Q592 791 592 811 Q592 865 567 885 Q541 905 508 905 Q413 905 373 800.5 Q333 696 333 561 Q333 369 409 239 Q485 109 614 109 Q695 109 752 145 Q786 166 836 222 L874 187 Q774 48 640 -4 Q569 -31 489 -31 Q292 -31 167 110 Q42 251 42 454 Q42 668 174.5 818.5 Q307 969 528 969 Z M319 1232 Q319 1290 359.5 1331 Q400 1372 457 1372 Q515 1372 556 1331 Q597 1290 597 1232 Q597 1174 556 1133 Q515 1092 457 1092 Q403 1092 361 1132.5 Q319 1173 319 1232 Z " />
<glyph glyph-name="Dcaron" unicode="&#x10e;" horiz-adv-x="1479" d="M28 52 Q105 57 139 74 Q199 105 199 187 L199 1197 Q199 1276 142 1307 Q109 1325 28 1332 L28 1384 L654 1384 Q1033 1384 1232 1182 Q1413 998 1413 688 Q1413 410 1231 217 Q1026 0 675 0 L28 0 L28 52 Z M530 189 Q533 126 553.5 98 Q574 70 641 70 Q823 70 940 198.5 Q1057 327 1057 692 Q1057 909 994 1065 Q892 1316 650 1316 Q570 1316 546 1282 Q530 1260 530 1197 L530 189 Z M363 1893 L479 1893 L709 1691 L939 1893 L1055 1893 L804 1532 L614 1532 L363 1893 Z " />
<glyph glyph-name="dcaron" unicode="&#x10f;" horiz-adv-x="1464" d="M516 87 Q582 87 634.5 146 Q687 205 687 229 L687 727 Q687 752 642 801 Q597 850 523 850 Q414 850 375 699 Q354 618 354 470 Q354 312 374 232 Q411 87 516 87 Z M52 443 Q52 686 167.5 826.5 Q283 967 445 967 Q526 967 589 927 Q628 903 687 841 L687 1216 Q687 1293 657 1311.5 Q627 1330 533 1334 L533 1384 L974 1384 L974 206 Q974 142 998 117.5 Q1022 93 1092 87 L1092 40 Q920 23 870 14.5 Q820 6 694 -29 L694 106 Q636 46 588 17 Q512 -29 424 -29 Q274 -29 163 98 Q52 225 52 443 Z M1083 1136 Q1176 1200 1223 1248 Q1306 1331 1306 1405 Q1306 1426 1296 1439 Q1285 1451 1265 1451 Q1255 1451 1240 1448.5 Q1225 1446 1219 1446 Q1158 1446 1113.5 1489 Q1069 1532 1069 1605 Q1069 1682 1115.5 1730 Q1162 1778 1237 1778 Q1329 1778 1387.5 1713.5 Q1446 1649 1446 1541 Q1446 1376 1314 1241 Q1242 1169 1107 1091 L1083 1136 Z " />
<glyph glyph-name="Emacron" unicode="&#x112;" horiz-adv-x="1366" d="M33 0 L33 52 Q121 55 158 76 Q215 108 215 196 L215 1187 Q215 1277 156 1308 Q122 1327 33 1332 L33 1384 L1213 1384 L1213 971 L1163 971 Q1124 1169 1030.5 1242 Q937 1315 690 1315 Q596 1315 570.5 1295.5 Q545 1276 545 1218 L545 744 Q720 742 782 807.5 Q844 873 877 1047 L929 1047 L929 355 L877 355 Q855 530 787.5 601.5 Q720 673 545 673 L545 177 Q545 112 578.5 88.5 Q612 65 716 65 Q912 65 1036 141 Q1160 217 1256 426 L1313 426 L1230 0 L33 0 Z M334 1664 L1012 1664 L1012 1517 L334 1517 L334 1664 Z " />
<glyph glyph-name="emacron" unicode="&#x113;" horiz-adv-x="909" d="M46 470 Q46 706 171.5 836.5 Q297 967 474 967 Q575 967 664 914 Q753 861 801 767 Q837 696 851 583 Q858 530 858 502 L336 502 Q343 379 376 289 Q436 120 587 120 Q659 120 723 165 Q762 192 820 256 L867 227 Q772 71 647 10 Q566 -29 461 -29 Q310 -29 178 90 Q46 209 46 470 Z M606 578 Q604 759 578 831 Q552 903 474 903 Q394 903 364.5 820 Q335 737 331 578 L606 578 Z M117 1222 L795 1222 L795 1075 L117 1075 L117 1222 Z " />
<glyph glyph-name="Ebreve" unicode="&#x114;" horiz-adv-x="1366" d="M33 0 L33 52 Q121 55 158 76 Q215 108 215 196 L215 1187 Q215 1277 156 1308 Q122 1327 33 1332 L33 1384 L1213 1384 L1213 971 L1163 971 Q1124 1169 1030.5 1242 Q937 1315 690 1315 Q596 1315 570.5 1295.5 Q545 1276 545 1218 L545 744 Q720 742 782 807.5 Q844 873 877 1047 L929 1047 L929 355 L877 355 Q855 530 787.5 601.5 Q720 673 545 673 L545 177 Q545 112 578.5 88.5 Q612 65 716 65 Q912 65 1036 141 Q1160 217 1256 426 L1313 426 L1230 0 L33 0 Z M444 1867 Q459 1789 489 1753 Q541 1689 658 1689 Q738 1689 802 1724.5 Q866 1760 882 1855 L884 1867 L974 1867 Q969 1710 886.5 1621 Q804 1532 658 1532 Q483 1532 406 1662 Q358 1744 353 1867 L444 1867 Z " />
<glyph glyph-name="ebreve" unicode="&#x115;" horiz-adv-x="909" d="M46 470 Q46 706 171.5 836.5 Q297 967 474 967 Q575 967 664 914 Q753 861 801 767 Q837 696 851 583 Q858 530 858 502 L336 502 Q343 379 376 289 Q436 120 587 120 Q659 120 723 165 Q762 192 820 256 L867 227 Q772 71 647 10 Q566 -29 461 -29 Q310 -29 178 90 Q46 209 46 470 Z M606 578 Q604 759 578 831 Q552 903 474 903 Q394 903 364.5 820 Q335 737 331 578 L606 578 Z M259 1420 Q274 1342 304 1306 Q356 1242 473 1242 Q553 1242 617 1277.5 Q681 1313 697 1408 L699 1420 L789 1420 Q784 1263 701.5 1174 Q619 1085 473 1085 Q298 1085 221 1215 Q173 1297 168 1420 L259 1420 Z " />
<glyph glyph-name="Edotaccent" unicode="&#x116;" horiz-adv-x="1366" d="M33 0 L33 52 Q121 55 158 76 Q215 108 215 196 L215 1187 Q215 1277 156 1308 Q122 1327 33 1332 L33 1384 L1213 1384 L1213 971 L1163 971 Q1124 1169 1030.5 1242 Q937 1315 690 1315 Q596 1315 570.5 1295.5 Q545 1276 545 1218 L545 744 Q720 742 782 807.5 Q844 873 877 1047 L929 1047 L929 355 L877 355 Q855 530 787.5 601.5 Q720 673 545 673 L545 177 Q545 112 578.5 88.5 Q612 65 716 65 Q912 65 1036 141 Q1160 217 1256 426 L1313 426 L1230 0 L33 0 Z M534 1662 Q534 1720 574.5 1761 Q615 1802 672 1802 Q730 1802 771 1761 Q812 1720 812 1662 Q812 1604 771 1563 Q730 1522 672 1522 Q618 1522 576 1562.5 Q534 1603 534 1662 Z " />
<glyph glyph-name="edotaccent" unicode="&#x117;" horiz-adv-x="909" d="M46 470 Q46 706 171.5 836.5 Q297 967 474 967 Q575 967 664 914 Q753 861 801 767 Q837 696 851 583 Q858 530 858 502 L336 502 Q343 379 376 289 Q436 120 587 120 Q659 120 723 165 Q762 192 820 256 L867 227 Q772 71 647 10 Q566 -29 461 -29 Q310 -29 178 90 Q46 209 46 470 Z M606 578 Q604 759 578 831 Q552 903 474 903 Q394 903 364.5 820 Q335 737 331 578 L606 578 Z M317 1254 Q317 1312 357.5 1353 Q398 1394 455 1394 Q513 1394 554 1353 Q595 1312 595 1254 Q595 1196 554 1155 Q513 1114 455 1114 Q401 1114 359 1154.5 Q317 1195 317 1254 Z " />
<glyph glyph-name="Eogonek" unicode="&#x118;" horiz-adv-x="1366" d="M33 0 L33 52 Q121 55 158 76 Q215 108 215 196 L215 1187 Q215 1277 156 1308 Q122 1327 33 1332 L33 1384 L1213 1384 L1213 971 L1163 971 Q1124 1169 1030.5 1242 Q937 1315 690 1315 Q596 1315 570.5 1295.5 Q545 1276 545 1218 L545 744 Q720 742 782 807.5 Q844 873 877 1047 L929 1047 L929 355 L877 355 Q855 530 787.5 601.5 Q720 673 545 673 L545 177 Q545 112 578.5 88.5 Q612 65 716 65 Q912 65 1036 141 Q1160 217 1256 426 L1313 426 L1230 0 L33 0 Z M895 11 Q797 -21 720 -69 Q594 -149 594 -242 Q594 -284 625 -310.5 Q656 -337 700 -337 Q745 -337 803 -310 Q839 -293 900 -254 L945 -337 Q844 -402 792 -425 Q709 -463 631 -463 Q521 -463 461.5 -405 Q402 -347 402 -273 Q402 -114 647 -16 Q811 42 895 42 L895 11 Z " />
<glyph glyph-name="eogonek" unicode="&#x119;" horiz-adv-x="909" d="M46 470 Q46 706 171.5 836.5 Q297 967 474 967 Q575 967 664 914 Q753 861 801 767 Q837 696 851 583 Q858 530 858 502 L336 502 Q343 379 376 289 Q436 120 587 120 Q659 120 723 165 Q762 192 820 256 L867 227 Q772 71 647 10 Q566 -29 461 -29 Q310 -29 178 90 Q46 209 46 470 Z M606 578 Q604 759 578 831 Q552 903 474 903 Q394 903 364.5 820 Q335 737 331 578 L606 578 Z M605 14 Q507 -18 430 -66 Q304 -146 304 -239 Q304 -281 335 -307.5 Q366 -334 410 -334 Q455 -334 513 -307 Q549 -290 610 -251 L655 -334 Q554 -399 502 -422 Q419 -460 341 -460 Q231 -460 171.5 -402 Q112 -344 112 -270 Q112 -111 357 -13 Q521 45 605 45 L605 14 Z " />
<glyph glyph-name="Ecaron" unicode="&#x11a;" horiz-adv-x="1366" d="M33 0 L33 52 Q121 55 158 76 Q215 108 215 196 L215 1187 Q215 1277 156 1308 Q122 1327 33 1332 L33 1384 L1213 1384 L1213 971 L1163 971 Q1124 1169 1030.5 1242 Q937 1315 690 1315 Q596 1315 570.5 1295.5 Q545 1276 545 1218 L545 744 Q720 742 782 807.5 Q844 873 877 1047 L929 1047 L929 355 L877 355 Q855 530 787.5 601.5 Q720 673 545 673 L545 177 Q545 112 578.5 88.5 Q612 65 716 65 Q912 65 1036 141 Q1160 217 1256 426 L1313 426 L1230 0 L33 0 Z M327 1877 L443 1877 L673 1675 L903 1877 L1019 1877 L768 1516 L578 1516 L327 1877 Z " />
<glyph glyph-name="ecaron" unicode="&#x11b;" horiz-adv-x="909" d="M46 470 Q46 706 171.5 836.5 Q297 967 474 967 Q575 967 664 914 Q753 861 801 767 Q837 696 851 583 Q858 530 858 502 L336 502 Q343 379 376 289 Q436 120 587 120 Q659 120 723 165 Q762 192 820 256 L867 227 Q772 71 647 10 Q566 -29 461 -29 Q310 -29 178 90 Q46 209 46 470 Z M606 578 Q604 759 578 831 Q552 903 474 903 Q394 903 364.5 820 Q335 737 331 578 L606 578 Z M105 1417 L221 1417 L451 1215 L681 1417 L797 1417 L546 1056 L356 1056 L105 1417 Z " />
<glyph glyph-name="Gcircumflex" unicode="&#x11c;" horiz-adv-x="1593" d="M75 680 Q75 986 272 1195 Q476 1410 793 1410 Q920 1410 1046 1362.5 Q1172 1315 1203 1315 Q1236 1315 1256 1338 Q1276 1361 1289 1408 L1346 1408 L1346 929 L1294 929 Q1220 1085 1143 1175 Q999 1341 817 1341 Q619 1341 528 1169 Q437 997 437 685 Q437 429 521.5 228.5 Q606 28 848 28 Q979 28 1024 83 Q1050 114 1050 177 L1050 393 Q1050 486 993 515 Q956 533 843 535 L843 587 L1545 587 L1545 535 Q1439 531 1404.5 492.5 Q1370 454 1370 348 L1370 87 Q1302 45 1150 3 Q998 -39 810 -39 Q469 -39 265 176 Q75 377 75 680 Z M1162 1521 L1046 1521 L816 1723 L586 1521 L470 1521 L721 1882 L911 1882 L1162 1521 Z " />
<glyph glyph-name="gcircumflex" unicode="&#x11d;" horiz-adv-x="1024" d="M346 637 Q346 519 366 462 Q396 372 481 372 Q558 372 587 439.5 Q616 507 616 637 Q616 775 585.5 838 Q555 901 481 901 Q400 901 373 833.5 Q346 766 346 637 Z M227 -223 Q227 -286 294.5 -322 Q362 -358 490 -358 Q604 -358 678 -340 Q817 -306 817 -215 Q817 -162 777.5 -135.5 Q738 -109 634 -109 L298 -109 Q266 -135 252 -153 Q227 -186 227 -223 Z M47 -237 Q47 -193 83.5 -146.5 Q120 -100 210 -86 L210 -72 Q150 -49 123 -25 Q75 18 75 90 Q75 176 150.5 237 Q226 298 298 322 L298 336 Q194 378 130 456 Q66 534 66 645 Q66 785 178 876 Q290 967 481 967 Q553 967 613 953 Q673 939 706 924 L976 924 L976 815 L810 815 Q850 776 871.5 724 Q893 672 893 611 Q893 419 710 348 Q614 310 471 310 Q440 310 430.5 311 Q421 312 402 312 Q372 307 339 280 Q305 252 305 213 Q305 182 322 165 Q339 148 369 144 Q384 142 433 140.5 Q482 139 509 139 L642 137 Q755 135 832 104 Q979 44 979 -111 Q979 -311 759 -386 Q643 -425 467 -425 Q323 -425 219 -397 Q47 -350 47 -237 Z M853 1062 L737 1062 L507 1264 L277 1062 L161 1062 L412 1423 L602 1423 L853 1062 Z " />
<glyph glyph-name="Gdotaccent" unicode="&#x120;" horiz-adv-x="1593" d="M75 680 Q75 986 272 1195 Q476 1410 793 1410 Q920 1410 1046 1362.5 Q1172 1315 1203 1315 Q1236 1315 1256 1338 Q1276 1361 1289 1408 L1346 1408 L1346 929 L1294 929 Q1220 1085 1143 1175 Q999 1341 817 1341 Q619 1341 528 1169 Q437 997 437 685 Q437 429 521.5 228.5 Q606 28 848 28 Q979 28 1024 83 Q1050 114 1050 177 L1050 393 Q1050 486 993 515 Q956 533 843 535 L843 587 L1545 587 L1545 535 Q1439 531 1404.5 492.5 Q1370 454 1370 348 L1370 87 Q1302 45 1150 3 Q998 -39 810 -39 Q469 -39 265 176 Q75 377 75 680 Z M671 1667 Q671 1725 711.5 1766 Q752 1807 809 1807 Q867 1807 908 1766 Q949 1725 949 1667 Q949 1609 908 1568 Q867 1527 809 1527 Q755 1527 713 1567.5 Q671 1608 671 1667 Z " />
<glyph glyph-name="gdotaccent" unicode="&#x121;" horiz-adv-x="1024" d="M346 637 Q346 519 366 462 Q396 372 481 372 Q558 372 587 439.5 Q616 507 616 637 Q616 775 585.5 838 Q555 901 481 901 Q400 901 373 833.5 Q346 766 346 637 Z M227 -223 Q227 -286 294.5 -322 Q362 -358 490 -358 Q604 -358 678 -340 Q817 -306 817 -215 Q817 -162 777.5 -135.5 Q738 -109 634 -109 L298 -109 Q266 -135 252 -153 Q227 -186 227 -223 Z M47 -237 Q47 -193 83.5 -146.5 Q120 -100 210 -86 L210 -72 Q150 -49 123 -25 Q75 18 75 90 Q75 176 150.5 237 Q226 298 298 322 L298 336 Q194 378 130 456 Q66 534 66 645 Q66 785 178 876 Q290 967 481 967 Q553 967 613 953 Q673 939 706 924 L976 924 L976 815 L810 815 Q850 776 871.5 724 Q893 672 893 611 Q893 419 710 348 Q614 310 471 310 Q440 310 430.5 311 Q421 312 402 312 Q372 307 339 280 Q305 252 305 213 Q305 182 322 165 Q339 148 369 144 Q384 142 433 140.5 Q482 139 509 139 L642 137 Q755 135 832 104 Q979 44 979 -111 Q979 -311 759 -386 Q643 -425 467 -425 Q323 -425 219 -397 Q47 -350 47 -237 Z M374 1253 Q374 1311 414.5 1352 Q455 1393 512 1393 Q570 1393 611 1352 Q652 1311 652 1253 Q652 1195 611 1154 Q570 1113 512 1113 Q458 1113 416 1153.5 Q374 1194 374 1253 Z " />
<glyph glyph-name="gacute" unicode="&#x1f5;" horiz-adv-x="1024" d="M346 637 Q346 519 366 462 Q396 372 481 372 Q558 372 587 439.5 Q616 507 616 637 Q616 775 585.5 838 Q555 901 481 901 Q400 901 373 833.5 Q346 766 346 637 Z M227 -223 Q227 -286 294.5 -322 Q362 -358 490 -358 Q604 -358 678 -340 Q817 -306 817 -215 Q817 -162 777.5 -135.5 Q738 -109 634 -109 L298 -109 Q266 -135 252 -153 Q227 -186 227 -223 Z M47 -237 Q47 -193 83.5 -146.5 Q120 -100 210 -86 L210 -72 Q150 -49 123 -25 Q75 18 75 90 Q75 176 150.5 237 Q226 298 298 322 L298 336 Q194 378 130 456 Q66 534 66 645 Q66 785 178 876 Q290 967 481 967 Q553 967 613 953 Q673 939 706 924 L976 924 L976 815 L810 815 Q850 776 871.5 724 Q893 672 893 611 Q893 419 710 348 Q614 310 471 310 Q440 310 430.5 311 Q421 312 402 312 Q372 307 339 280 Q305 252 305 213 Q305 182 322 165 Q339 148 369 144 Q384 142 433 140.5 Q482 139 509 139 L642 137 Q755 135 832 104 Q979 44 979 -111 Q979 -311 759 -386 Q643 -425 467 -425 Q323 -425 219 -397 Q47 -350 47 -237 Z M739 1330 Q739 1291 718 1268.5 Q697 1246 656 1221 L364 1040 L250 1040 L530 1363 Q547 1383 567 1396 Q602 1420 641 1420 Q686 1420 712.5 1394 Q739 1368 739 1330 Z " />
<glyph glyph-name="Hcircumflex" unicode="&#x124;" horiz-adv-x="1593" d="M37 52 Q119 56 153 75 Q210 107 210 196 L210 1187 Q210 1274 159 1305 Q128 1323 37 1332 L37 1384 L730 1384 L730 1332 Q640 1327 605 1308 Q547 1276 547 1187 L547 763 L1035 763 L1035 1187 Q1035 1276 980 1307 Q946 1326 853 1332 L853 1384 L1550 1384 L1550 1332 Q1460 1325 1427 1306 Q1372 1275 1372 1187 L1372 196 Q1372 106 1433 74 Q1468 55 1550 52 L1550 0 L853 0 L853 52 Q941 55 978 76 Q1035 108 1035 196 L1035 668 L547 668 L547 196 Q547 105 609 73 Q645 55 730 52 L730 0 L37 0 L37 52 Z M1139 1511 L1023 1511 L793 1713 L563 1511 L447 1511 L698 1872 L888 1872 L1139 1511 Z " />
<glyph glyph-name="hcircumflex" unicode="&#x125;" horiz-adv-x="1139" d="M33 49 Q89 56 115.5 79.5 Q142 103 142 173 L142 1216 Q142 1277 120 1301.5 Q98 1326 33 1334 L33 1384 L429 1384 L429 808 Q492 884 561.5 925.5 Q631 967 718 967 Q836 967 913 898.5 Q990 830 990 665 L990 173 Q990 104 1013.5 82.5 Q1037 61 1092 49 L1092 0 L611 0 L611 49 Q666 60 686 79 Q706 98 706 165 L706 661 Q706 731 692 766 Q668 829 597 829 Q544 829 487.5 780 Q431 731 431 713 L431 165 Q431 98 451 79 Q471 60 526 49 L526 0 L33 0 L33 49 Z M832 1516 L716 1516 L486 1718 L256 1516 L140 1516 L391 1877 L581 1877 L832 1516 Z " />
<glyph glyph-name="Hbar" unicode="&#x126;" horiz-adv-x="1593" d="M37 1135 L210 1135 L210 1187 Q210 1274 159 1305 Q128 1323 37 1332 L37 1384 L730 1384 L730 1332 Q640 1327 605 1308 Q547 1276 547 1187 L547 1135 L1035 1135 L1035 1187 Q1035 1276 980 1307 Q946 1326 853 1332 L853 1384 L1550 1384 L1550 1332 Q1460 1325 1427 1306 Q1372 1275 1372 1187 L1372 1135 L1550 1135 L1550 1040 L1372 1040 L1372 196 Q1372 106 1433 74 Q1468 55 1550 52 L1550 0 L853 0 L853 52 Q941 55 978 76 Q1035 108 1035 196 L1035 668 L547 668 L547 196 Q547 105 609 73 Q645 55 730 52 L730 0 L37 0 L37 52 Q119 56 153 75 Q210 107 210 196 L210 1040 L37 1040 L37 1135 Z M1035 763 L1035 1040 L547 1040 L547 763 L1035 763 Z " />
<glyph glyph-name="hbar" unicode="&#x127;" horiz-adv-x="1139" d="M33 49 Q89 56 115.5 79.5 Q142 103 142 173 L142 1216 Q142 1277 120 1301.5 Q98 1326 33 1334 L33 1384 L429 1384 L429 808 Q492 884 561.5 925.5 Q631 967 718 967 Q836 967 913 898.5 Q990 830 990 665 L990 173 Q990 104 1013.5 82.5 Q1037 61 1092 49 L1092 0 L611 0 L611 49 Q666 60 686 79 Q706 98 706 165 L706 661 Q706 731 692 766 Q668 829 597 829 Q544 829 487.5 780 Q431 731 431 713 L431 165 Q431 98 451 79 Q471 60 526 49 L526 0 L33 0 L33 49 Z M-42 1155 L636 1155 L636 1008 L-42 1008 L-42 1155 Z " />
<glyph glyph-name="Itilde" unicode="&#x128;" horiz-adv-x="797" d="M33 52 Q120 54 158 73 Q220 105 220 196 L220 1187 Q220 1278 161 1309 Q125 1328 33 1332 L33 1384 L749 1384 L749 1332 Q653 1328 617 1310 Q557 1279 557 1187 L557 196 Q557 110 605 81 Q653 52 749 52 L749 0 L33 0 L33 52 Z M257 1804 Q290 1804 329.5 1792.5 Q369 1781 401 1766 L484 1728 Q508 1717 527 1711 Q546 1705 565 1705 Q611 1705 637 1735 Q654 1754 674 1804 L761 1804 Q740 1702 682.5 1624 Q625 1546 515 1546 Q484 1546 453 1553.5 Q422 1561 392 1574 L332 1600 Q253 1634 236.5 1640 Q220 1646 202 1646 Q152 1646 125 1609 Q109 1589 98 1548 L12 1548 Q32 1641 67 1697 Q134 1804 257 1804 Z " />
<glyph glyph-name="itilde" unicode="&#x129;" horiz-adv-x="569" d="M33 49 Q87 58 107 76 Q137 103 137 173 L137 775 Q137 837 116 859.5 Q95 882 33 893 L33 943 L426 943 L426 165 Q426 98 446 79 Q466 60 521 49 L521 0 L33 0 L33 49 Z M153 1385 Q186 1385 225.5 1373.5 Q265 1362 297 1347 L380 1309 Q404 1298 423 1292 Q442 1286 461 1286 Q507 1286 533 1316 Q550 1335 570 1385 L657 1385 Q636 1283 578.5 1205 Q521 1127 411 1127 Q380 1127 349 1134.5 Q318 1142 288 1155 L228 1181 Q149 1215 132.5 1221 Q116 1227 98 1227 Q48 1227 21 1190 Q5 1170 -6 1129 L-92 1129 Q-72 1222 -37 1278 Q30 1385 153 1385 Z " />
<glyph glyph-name="Imacron" unicode="&#x12a;" horiz-adv-x="797" d="M33 52 Q120 54 158 73 Q220 105 220 196 L220 1187 Q220 1278 161 1309 Q125 1328 33 1332 L33 1384 L749 1384 L749 1332 Q653 1328 617 1310 Q557 1279 557 1187 L557 196 Q557 110 605 81 Q653 52 749 52 L749 0 L33 0 L33 52 Z M52 1664 L730 1664 L730 1517 L52 1517 L52 1664 Z " />
<glyph glyph-name="imacron" unicode="&#x12b;" horiz-adv-x="569" d="M33 49 Q87 58 107 76 Q137 103 137 173 L137 775 Q137 837 116 859.5 Q95 882 33 893 L33 943 L426 943 L426 165 Q426 98 446 79 Q466 60 521 49 L521 0 L33 0 L33 49 Z M-66 1222 L612 1222 L612 1075 L-66 1075 L-66 1222 Z " />
<glyph glyph-name="Iogonek" unicode="&#x12e;" horiz-adv-x="797" d="M33 52 Q120 54 158 73 Q220 105 220 196 L220 1187 Q220 1278 161 1309 Q125 1328 33 1332 L33 1384 L749 1384 L749 1332 Q653 1328 617 1310 Q557 1279 557 1187 L557 196 Q557 110 605 81 Q653 52 749 52 L749 0 L33 0 L33 52 Z M613 26 Q515 -6 438 -54 Q312 -134 312 -227 Q312 -269 343 -295.5 Q374 -322 418 -322 Q463 -322 521 -295 Q557 -278 618 -239 L663 -322 Q562 -387 510 -410 Q427 -448 349 -448 Q239 -448 179.5 -390 Q120 -332 120 -258 Q120 -99 365 -1 Q529 57 613 57 L613 26 Z " />
<glyph glyph-name="iogonek" unicode="&#x12f;" horiz-adv-x="569" d="M123 1256 Q123 1322 169.5 1368.5 Q216 1415 282 1415 Q347 1415 393.5 1368.5 Q440 1322 440 1256 Q440 1190 393.5 1143.5 Q347 1097 282 1097 Q216 1097 169.5 1143.5 Q123 1190 123 1256 Z M33 49 Q87 58 107 76 Q137 103 137 173 L137 775 Q137 837 116 859.5 Q95 882 33 893 L33 943 L426 943 L426 165 Q426 98 446 79 Q466 60 521 49 L521 0 L33 0 L33 49 Z M503 26 Q405 -6 328 -54 Q202 -134 202 -227 Q202 -269 233 -295.5 Q264 -322 308 -322 Q353 -322 411 -295 Q447 -278 508 -239 L553 -322 Q452 -387 400 -410 Q317 -448 239 -448 Q129 -448 69.5 -390 Q10 -332 10 -258 Q10 -99 255 -1 Q419 57 503 57 L503 26 Z " />
<glyph glyph-name="IJ" unicode="&#x132;" horiz-adv-x="1821" d="M33 52 Q120 54 158 73 Q220 105 220 196 L220 1187 Q220 1278 161 1309 Q125 1328 33 1332 L33 1384 L749 1384 L749 1332 Q653 1328 617 1310 Q557 1279 557 1187 L557 196 Q557 110 605 81 Q653 52 749 52 L749 0 L33 0 L33 52 Z M1778 1384 L1778 1332 Q1669 1324 1631 1293 Q1593 1262 1593 1144 L1593 261 Q1593 43 1475 -78 Q1356 -200 1141 -200 Q989 -200 896.5 -118 Q804 -36 804 58 Q804 134 848.5 177 Q893 220 953 220 Q1013 220 1052 178 Q1091 136 1091 78 Q1091 28 1066.5 -17 Q1042 -62 1042 -70 Q1042 -100 1065.5 -115.5 Q1089 -131 1123 -131 Q1215 -131 1246 -71 Q1263 -35 1263 49 L1263 1187 Q1263 1280 1202 1310 Q1165 1328 1057 1332 L1057 1384 L1778 1384 Z " />
<glyph glyph-name="ij" unicode="&#x133;" horiz-adv-x="1251" d="M123 1256 Q123 1322 169.5 1368.5 Q216 1415 282 1415 Q347 1415 393.5 1368.5 Q440 1322 440 1256 Q440 1190 393.5 1143.5 Q347 1097 282 1097 Q216 1097 169.5 1143.5 Q123 1190 123 1256 Z M33 49 Q87 58 107 76 Q137 103 137 173 L137 775 Q137 837 116 859.5 Q95 882 33 893 L33 943 L426 943 L426 165 Q426 98 446 79 Q466 60 521 49 L521 0 L33 0 L33 49 Z M789 1256 Q789 1322 835.5 1368.5 Q882 1415 948 1415 Q1013 1415 1060 1368.5 Q1107 1322 1107 1256 Q1107 1190 1060 1143.5 Q1013 1097 948 1097 Q882 1097 835.5 1143.5 Q789 1190 789 1256 Z M450 -209 Q450 -161 483.5 -124.5 Q517 -88 578 -88 Q624 -88 661.5 -117.5 Q699 -147 699 -197 Q699 -231 675 -270 Q651 -309 651 -320 Q651 -340 674 -347 Q697 -354 720 -354 Q778 -354 797.5 -313 Q817 -272 817 -200 L817 775 Q817 840 791 865 Q765 890 687 893 L687 943 L1099 943 L1099 4 Q1099 -124 1076.5 -200 Q1054 -276 991 -332 Q951 -367 879.5 -392.5 Q808 -418 727 -418 Q646 -418 572 -385 Q450 -331 450 -209 Z " />
<glyph glyph-name="Jcircumflex" unicode="&#x134;" horiz-adv-x="1024" d="M981 1384 L981 1332 Q872 1324 834 1293 Q796 1262 796 1144 L796 261 Q796 43 678 -78 Q559 -200 344 -200 Q192 -200 99.5 -118 Q7 -36 7 58 Q7 134 51.5 177 Q96 220 156 220 Q216 220 255 178 Q294 136 294 78 Q294 28 269.5 -17 Q245 -62 245 -70 Q245 -100 268.5 -115.5 Q292 -131 326 -131 Q418 -131 449 -71 Q466 -35 466 49 L466 1187 Q466 1280 405 1310 Q368 1328 260 1332 L260 1384 L981 1384 Z M970 1505 L854 1505 L624 1707 L394 1505 L278 1505 L529 1866 L719 1866 L970 1505 Z " />
<glyph glyph-name="jcircumflex" unicode="&#x135;" horiz-adv-x="682" d="M9 -88 Q55 -88 92.5 -117.5 Q130 -147 130 -197 Q130 -231 106 -270 Q82 -309 82 -320 Q82 -340 105 -347 Q128 -354 151 -354 Q209 -354 228.5 -313 Q248 -272 248 -200 L248 775 Q248 840 222 865 Q196 890 118 893 L118 943 L530 943 L530 4 Q530 -124 507.5 -200 Q485 -276 422 -332 Q382 -367 310.5 -392.5 Q239 -418 158 -418 Q77 -418 3 -385 Q-119 -331 -119 -209 Q-119 -161 -85.5 -124.5 Q-52 -88 9 -88 Z M719 1019 L603 1019 L373 1221 L143 1019 L27 1019 L278 1380 L468 1380 L719 1019 Z " />
<glyph glyph-name="Lacute" unicode="&#x139;" horiz-adv-x="1366" d="M37 52 Q121 55 157 74 Q218 106 218 196 L218 1187 Q218 1277 160 1308 Q126 1327 37 1332 L37 1384 L753 1384 L753 1332 Q628 1328 586.5 1297 Q545 1266 545 1144 L545 177 Q545 109 580.5 87 Q616 65 719 65 Q904 65 1029.5 146.5 Q1155 228 1246 464 L1306 464 L1223 0 L37 0 L37 52 Z M645 1786 Q645 1747 624 1724.5 Q603 1702 562 1677 L270 1496 L156 1496 L436 1819 Q453 1839 473 1852 Q508 1876 547 1876 Q592 1876 618.5 1850 Q645 1824 645 1786 Z " />
<glyph glyph-name="lacute" unicode="&#x13a;" horiz-adv-x="569" d="M33 49 Q87 62 109.5 83.5 Q132 105 132 173 L132 1216 Q132 1281 111 1301 Q90 1321 33 1334 L33 1384 L421 1384 L421 173 Q421 105 443 84 Q465 63 521 49 L521 0 L33 0 L33 49 Z M521 1775 Q521 1736 500 1713.5 Q479 1691 438 1666 L146 1485 L32 1485 L312 1808 Q329 1828 349 1841 Q384 1865 423 1865 Q468 1865 494.5 1839 Q521 1813 521 1775 Z " />
<glyph glyph-name="Lcaron" unicode="&#x13d;" horiz-adv-x="1366" d="M37 52 Q121 55 157 74 Q218 106 218 196 L218 1187 Q218 1277 160 1308 Q126 1327 37 1332 L37 1384 L753 1384 L753 1332 Q628 1328 586.5 1297 Q545 1266 545 1144 L545 177 Q545 109 580.5 87 Q616 65 719 65 Q904 65 1029.5 146.5 Q1155 228 1246 464 L1306 464 L1223 0 L37 0 L37 52 Z M943 742 Q1036 806 1083 854 Q1166 937 1166 1011 Q1166 1032 1156 1045 Q1145 1057 1125 1057 Q1115 1057 1100 1054.5 Q1085 1052 1079 1052 Q1018 1052 973.5 1095 Q929 1138 929 1211 Q929 1288 975.5 1336 Q1022 1384 1097 1384 Q1189 1384 1247.5 1319.5 Q1306 1255 1306 1147 Q1306 982 1174 847 Q1102 775 967 697 L943 742 Z " />
<glyph glyph-name="lcaron" unicode="&#x13e;" horiz-adv-x="911" d="M33 49 Q87 62 109.5 83.5 Q132 105 132 173 L132 1216 Q132 1281 111 1301 Q90 1321 33 1334 L33 1384 L421 1384 L421 173 Q421 105 443 84 Q465 63 521 49 L521 0 L33 0 L33 49 Z M528 742 Q621 806 668 854 Q751 937 751 1011 Q751 1032 741 1045 Q730 1057 710 1057 Q700 1057 685 1054.5 Q670 1052 664 1052 Q603 1052 558.5 1095 Q514 1138 514 1211 Q514 1288 560.5 1336 Q607 1384 682 1384 Q774 1384 832.5 1319.5 Q891 1255 891 1147 Q891 982 759 847 Q687 775 552 697 L528 742 Z " />
<glyph glyph-name="Ldotaccent" unicode="&#x13f;" horiz-adv-x="1366" d="M37 52 Q121 55 157 74 Q218 106 218 196 L218 1187 Q218 1277 160 1308 Q126 1327 37 1332 L37 1384 L753 1384 L753 1332 Q628 1328 586.5 1297 Q545 1266 545 1144 L545 177 Q545 109 580.5 87 Q616 65 719 65 Q904 65 1029.5 146.5 Q1155 228 1246 464 L1306 464 L1223 0 L37 0 L37 52 Z M703 770 Q703 828 743.5 869 Q784 910 841 910 Q899 910 940 869 Q981 828 981 770 Q981 712 940 671 Q899 630 841 630 Q787 630 745 670.5 Q703 711 703 770 Z " />
<glyph glyph-name="ldotaccent" unicode="&#x140;" horiz-adv-x="829" d="M33 49 Q87 62 109.5 83.5 Q132 105 132 173 L132 1216 Q132 1281 111 1301 Q90 1321 33 1334 L33 1384 L421 1384 L421 173 Q421 105 443 84 Q465 63 521 49 L521 0 L33 0 L33 49 Z M514 758 Q514 816 554.5 857 Q595 898 652 898 Q710 898 751 857 Q792 816 792 758 Q792 700 751 659 Q710 618 652 618 Q598 618 556 658.5 Q514 699 514 758 Z " />
<glyph glyph-name="Nacute" unicode="&#x143;" horiz-adv-x="1479" d="M33 52 Q147 55 180 95.5 Q213 136 213 215 L213 1185 Q119 1290 97 1308.5 Q75 1327 37 1332 L37 1384 L471 1384 L1175 521 L1185 521 L1185 1130 Q1185 1234 1147 1278.5 Q1109 1323 995 1332 L995 1384 L1436 1384 L1436 1332 Q1340 1316 1307.5 1289 Q1275 1262 1275 1168 L1275 -38 L1218 -38 L317 1057 L303 1057 L303 253 Q303 159 329 120 Q370 57 497 52 L497 0 L33 0 L33 52 Z M974 1784 Q974 1745 953 1722.5 Q932 1700 891 1675 L599 1494 L485 1494 L765 1817 Q782 1837 802 1850 Q837 1874 876 1874 Q921 1874 947.5 1848 Q974 1822 974 1784 Z " />
<glyph glyph-name="nacute" unicode="&#x144;" horiz-adv-x="1139" d="M33 49 Q89 56 115.5 79.5 Q142 103 142 173 L142 775 Q142 837 120.5 861 Q99 885 33 893 L33 943 L421 943 L421 796 Q470 870 545.5 918.5 Q621 967 713 967 Q845 967 917.5 899 Q990 831 990 660 L990 165 Q990 96 1013.5 76 Q1037 56 1092 49 L1092 0 L611 0 L611 49 Q666 60 686 79 Q706 98 706 165 L706 661 Q706 731 692 766 Q668 829 597 829 Q544 829 499.5 790.5 Q455 752 431 713 L431 165 Q431 98 451 79 Q471 60 526 49 L526 0 L33 0 L33 49 Z M791 1370 Q791 1331 770 1308.5 Q749 1286 708 1261 L416 1080 L302 1080 L582 1403 Q599 1423 619 1436 Q654 1460 693 1460 Q738 1460 764.5 1434 Q791 1408 791 1370 Z " />
<glyph glyph-name="Ncaron" unicode="&#x147;" horiz-adv-x="1479" d="M33 52 Q147 55 180 95.5 Q213 136 213 215 L213 1185 Q119 1290 97 1308.5 Q75 1327 37 1332 L37 1384 L471 1384 L1175 521 L1185 521 L1185 1130 Q1185 1234 1147 1278.5 Q1109 1323 995 1332 L995 1384 L1436 1384 L1436 1332 Q1340 1316 1307.5 1289 Q1275 1262 1275 1168 L1275 -38 L1218 -38 L317 1057 L303 1057 L303 253 Q303 159 329 120 Q370 57 497 52 L497 0 L33 0 L33 52 Z M377 1877 L493 1877 L723 1675 L953 1877 L1069 1877 L818 1516 L628 1516 L377 1877 Z " />
<glyph glyph-name="ncaron" unicode="&#x148;" horiz-adv-x="1139" d="M33 49 Q89 56 115.5 79.5 Q142 103 142 173 L142 775 Q142 837 120.5 861 Q99 885 33 893 L33 943 L421 943 L421 796 Q470 870 545.5 918.5 Q621 967 713 967 Q845 967 917.5 899 Q990 831 990 660 L990 165 Q990 96 1013.5 76 Q1037 56 1092 49 L1092 0 L611 0 L611 49 Q666 60 686 79 Q706 98 706 165 L706 661 Q706 731 692 766 Q668 829 597 829 Q544 829 499.5 790.5 Q455 752 431 713 L431 165 Q431 98 451 79 Q471 60 526 49 L526 0 L33 0 L33 49 Z M216 1391 L332 1391 L562 1189 L792 1391 L908 1391 L657 1030 L467 1030 L216 1391 Z " />
<glyph glyph-name="quoterightn" unicode="&#x149;" horiz-adv-x="1139" d="M33 49 Q89 56 115.5 79.5 Q142 103 142 173 L142 775 Q142 837 120.5 861 Q99 885 33 893 L33 943 L421 943 L421 796 Q470 870 545.5 918.5 Q621 967 713 967 Q845 967 917.5 899 Q990 831 990 660 L990 165 Q990 96 1013.5 76 Q1037 56 1092 49 L1092 0 L611 0 L611 49 Q666 60 686 79 Q706 98 706 165 L706 661 Q706 731 692 766 Q668 829 597 829 Q544 829 499.5 790.5 Q455 752 431 713 L431 165 Q431 98 451 79 Q471 60 526 49 L526 0 L33 0 L33 49 Z M51 1116 Q144 1180 191 1228 Q274 1311 274 1385 Q274 1406 264 1419 Q253 1431 233 1431 Q223 1431 208 1428.5 Q193 1426 187 1426 Q126 1426 81.5 1469 Q37 1512 37 1585 Q37 1662 83.5 1710 Q130 1758 205 1758 Q297 1758 355.5 1693.5 Q414 1629 414 1521 Q414 1356 282 1221 Q210 1149 75 1071 L51 1116 Z " />
<glyph glyph-name="Omacron" unicode="&#x14c;" horiz-adv-x="1593" d="M794 28 Q1024 28 1110 301 Q1156 449 1156 687 Q1156 1014 1058.5 1180 Q961 1346 794 1346 Q562 1346 476 1069 Q431 922 431 687 Q431 448 477 301 Q562 28 794 28 Z M794 1415 Q1104 1415 1309 1215 Q1520 1010 1520 687 Q1520 364 1309 159 Q1103 -41 794 -41 Q466 -41 259 178 Q66 384 66 676 Q66 998 268 1205 Q472 1415 794 1415 Z M454 1664 L1132 1664 L1132 1517 L454 1517 L454 1664 Z " />
<glyph glyph-name="omacron" unicode="&#x14d;" horiz-adv-x="1024" d="M45 469 Q45 683 176.5 826 Q308 969 507 969 Q710 969 839.5 823 Q969 677 969 469 Q969 264 841 116.5 Q713 -31 507 -31 Q307 -31 176 112.5 Q45 256 45 469 Z M346 469 Q346 254 368 168 Q403 35 507 35 Q606 35 637 137 Q668 239 668 469 Q668 698 635.5 800.5 Q603 903 508 903 Q404 903 369 770 Q346 681 346 469 Z M168 1222 L846 1222 L846 1075 L168 1075 L168 1222 Z " />
<glyph glyph-name="Obreve" unicode="&#x14e;" horiz-adv-x="1593" d="M794 28 Q1024 28 1110 301 Q1156 449 1156 687 Q1156 1014 1058.5 1180 Q961 1346 794 1346 Q562 1346 476 1069 Q431 922 431 687 Q431 448 477 301 Q562 28 794 28 Z M794 1415 Q1104 1415 1309 1215 Q1520 1010 1520 687 Q1520 364 1309 159 Q1103 -41 794 -41 Q466 -41 259 178 Q66 384 66 676 Q66 998 268 1205 Q472 1415 794 1415 Z M584 1861 Q599 1783 629 1747 Q681 1683 798 1683 Q878 1683 942 1718.5 Q1006 1754 1022 1849 L1024 1861 L1114 1861 Q1109 1704 1026.5 1615 Q944 1526 798 1526 Q623 1526 546 1656 Q498 1738 493 1861 L584 1861 Z " />
<glyph glyph-name="obreve" unicode="&#x14f;" horiz-adv-x="1024" d="M45 469 Q45 683 176.5 826 Q308 969 507 969 Q710 969 839.5 823 Q969 677 969 469 Q969 264 841 116.5 Q713 -31 507 -31 Q307 -31 176 112.5 Q45 256 45 469 Z M346 469 Q346 254 368 168 Q403 35 507 35 Q606 35 637 137 Q668 239 668 469 Q668 698 635.5 800.5 Q603 903 508 903 Q404 903 369 770 Q346 681 346 469 Z M288 1412 Q303 1334 333 1298 Q385 1234 502 1234 Q582 1234 646 1269.5 Q710 1305 726 1400 L728 1412 L818 1412 Q813 1255 730.5 1166 Q648 1077 502 1077 Q327 1077 250 1207 Q202 1289 197 1412 L288 1412 Z " />
<glyph glyph-name="Ohungarumlaut" unicode="&#x150;" horiz-adv-x="1593" d="M794 28 Q1024 28 1110 301 Q1156 449 1156 687 Q1156 1014 1058.5 1180 Q961 1346 794 1346 Q562 1346 476 1069 Q431 922 431 687 Q431 448 477 301 Q562 28 794 28 Z M794 1415 Q1104 1415 1309 1215 Q1520 1010 1520 687 Q1520 364 1309 159 Q1103 -41 794 -41 Q466 -41 259 178 Q66 384 66 676 Q66 998 268 1205 Q472 1415 794 1415 Z M1370 1823 Q1370 1784 1351 1763 Q1332 1742 1287 1714 L996 1533 L882 1533 L1162 1856 Q1186 1883 1212 1898 Q1238 1913 1274 1913 Q1316 1913 1343 1887.5 Q1370 1862 1370 1823 Z M991 1820 Q991 1791 974 1769.5 Q957 1748 908 1714 L631 1517 L517 1517 L782 1856 Q801 1880 829.5 1896.5 Q858 1913 894 1913 Q942 1913 966.5 1884.5 Q991 1856 991 1820 Z " />
<glyph glyph-name="ohungarumlaut" unicode="&#x151;" horiz-adv-x="1024" d="M45 469 Q45 683 176.5 826 Q308 969 507 969 Q710 969 839.5 823 Q969 677 969 469 Q969 264 841 116.5 Q713 -31 507 -31 Q307 -31 176 112.5 Q45 256 45 469 Z M346 469 Q346 254 368 168 Q403 35 507 35 Q606 35 637 137 Q668 239 668 469 Q668 698 635.5 800.5 Q603 903 508 903 Q404 903 369 770 Q346 681 346 469 Z M935 1343 Q935 1304 916 1283 Q897 1262 852 1234 L561 1053 L447 1053 L727 1376 Q751 1403 777 1418 Q803 1433 839 1433 Q881 1433 908 1407.5 Q935 1382 935 1343 Z M556 1340 Q556 1311 539 1289.5 Q522 1268 473 1234 L196 1037 L82 1037 L347 1376 Q366 1400 394.5 1416.5 Q423 1433 459 1433 Q507 1433 531.5 1404.5 Q556 1376 556 1340 Z " />
<glyph glyph-name="Racute" unicode="&#x154;" horiz-adv-x="1479" d="M33 52 Q137 57 175 91 Q213 125 213 239 L213 1144 Q213 1263 168 1299 Q138 1323 33 1332 L33 1384 L692 1384 Q897 1384 1024 1341 Q1270 1254 1270 1028 Q1270 861 1147 765 Q1053 693 948 673 L1360 90 Q1377 66 1396 58.5 Q1415 51 1443 49 L1443 0 L1024 0 L599 640 L545 640 L545 239 Q545 131 581 93.5 Q617 56 725 52 L725 0 L33 0 L33 52 Z M545 706 Q746 709 832.5 762.5 Q919 816 919 1010 Q919 1129 886 1198 Q829 1315 678 1315 Q596 1315 570.5 1294.5 Q545 1274 545 1227 L545 706 Z M951 1785 Q951 1746 930 1723.5 Q909 1701 868 1676 L576 1495 L462 1495 L742 1818 Q759 1838 779 1851 Q814 1875 853 1875 Q898 1875 924.5 1849 Q951 1823 951 1785 Z " />
<glyph glyph-name="racute" unicode="&#x155;" horiz-adv-x="909" d="M37 49 Q96 56 119 77 Q142 98 144 158 L146 218 L146 775 Q146 839 124 862 Q102 885 37 893 L37 943 L426 943 L426 782 Q491 867 555 917 Q619 967 703 967 Q766 967 816.5 926.5 Q867 886 867 808 Q867 748 831.5 709 Q796 670 739 670 Q674 670 626.5 731 Q579 792 560 792 Q519 792 477.5 741.5 Q436 691 436 597 L436 210 Q436 108 465.5 82.5 Q495 57 583 49 L583 0 L37 0 L37 49 Z M670 1350 Q670 1311 649 1288.5 Q628 1266 587 1241 L295 1060 L181 1060 L461 1383 Q478 1403 498 1416 Q533 1440 572 1440 Q617 1440 643.5 1414 Q670 1388 670 1350 Z " />
<glyph glyph-name="Rcaron" unicode="&#x158;" horiz-adv-x="1479" d="M33 52 Q137 57 175 91 Q213 125 213 239 L213 1144 Q213 1263 168 1299 Q138 1323 33 1332 L33 1384 L692 1384 Q897 1384 1024 1341 Q1270 1254 1270 1028 Q1270 861 1147 765 Q1053 693 948 673 L1360 90 Q1377 66 1396 58.5 Q1415 51 1443 49 L1443 0 L1024 0 L599 640 L545 640 L545 239 Q545 131 581 93.5 Q617 56 725 52 L725 0 L33 0 L33 52 Z M545 706 Q746 709 832.5 762.5 Q919 816 919 1010 Q919 1129 886 1198 Q829 1315 678 1315 Q596 1315 570.5 1294.5 Q545 1274 545 1227 L545 706 Z M304 1872 L420 1872 L650 1670 L880 1872 L996 1872 L745 1511 L555 1511 L304 1872 Z " />
<glyph glyph-name="rcaron" unicode="&#x159;" horiz-adv-x="909" d="M37 49 Q96 56 119 77 Q142 98 144 158 L146 218 L146 775 Q146 839 124 862 Q102 885 37 893 L37 943 L426 943 L426 782 Q491 867 555 917 Q619 967 703 967 Q766 967 816.5 926.5 Q867 886 867 808 Q867 748 831.5 709 Q796 670 739 670 Q674 670 626.5 731 Q579 792 560 792 Q519 792 477.5 741.5 Q436 691 436 597 L436 210 Q436 108 465.5 82.5 Q495 57 583 49 L583 0 L37 0 L37 49 Z M-61 1436 L55 1436 L285 1234 L515 1436 L631 1436 L380 1075 L190 1075 L-61 1436 Z " />
<glyph glyph-name="Sacute" unicode="&#x15a;" horiz-adv-x="1139" d="M71 478 L130 478 Q180 249 291.5 145 Q403 41 547 41 Q687 41 746 112.5 Q805 184 805 263 Q805 355 743 413 Q702 451 578 512 L445 578 Q247 676 166 772 Q85 868 85 1009 Q85 1159 192.5 1289 Q300 1419 522 1419 Q635 1419 740.5 1385 Q846 1351 861 1351 Q895 1351 908 1370.5 Q921 1390 929 1422 L990 1422 L990 976 L933 976 Q892 1131 788.5 1243 Q685 1355 537 1355 Q433 1355 372.5 1298.5 Q312 1242 312 1161 Q312 1064 369 1016 Q425 967 618 872 L772 796 Q875 745 936 683 Q1050 567 1050 401 Q1050 246 927.5 108.5 Q805 -29 535 -29 Q473 -29 409.5 -17.5 Q346 -6 284 18 L244 33 Q230 37 217 39.5 Q204 42 195 42 Q163 42 151 23.5 Q139 5 130 -29 L71 -29 L71 478 Z M773 1786 Q773 1747 752 1724.5 Q731 1702 690 1677 L398 1496 L284 1496 L564 1819 Q581 1839 601 1852 Q636 1876 675 1876 Q720 1876 746.5 1850 Q773 1824 773 1786 Z " />
<glyph glyph-name="sacute" unicode="&#x15b;" horiz-adv-x="797" d="M52 310 L109 310 Q139 163 221 102.5 Q303 42 389 42 Q468 42 505 77.5 Q542 113 542 171 Q542 226 502 265 Q480 286 431 310 L279 384 Q159 443 107 512 Q54 581 54 675 Q54 794 137 880.5 Q220 967 369 967 Q434 967 507 945.5 Q580 924 598 924 Q623 924 633.5 934.5 Q644 945 651 964 L696 964 L696 668 L644 668 Q615 772 549 835 Q483 898 395 898 Q327 898 293.5 860 Q260 822 260 778 Q260 742 290 706 Q319 669 400 630 L512 576 Q616 526 664 479 Q744 399 744 282 Q744 168 661.5 69.5 Q579 -29 414 -29 Q373 -29 331.5 -20.5 Q290 -12 229 9 L194 21 Q175 28 170.5 29 Q166 30 159 30 Q142 30 129.5 16.5 Q117 3 101 -29 L52 -29 L52 310 Z M611 1336 Q611 1297 590 1274.5 Q569 1252 528 1227 L236 1046 L122 1046 L402 1369 Q419 1389 439 1402 Q474 1426 513 1426 Q558 1426 584.5 1400 Q611 1374 611 1336 Z " />
<glyph glyph-name="Scircumflex" unicode="&#x15c;" horiz-adv-x="1139" d="M71 478 L130 478 Q180 249 291.5 145 Q403 41 547 41 Q687 41 746 112.5 Q805 184 805 263 Q805 355 743 413 Q702 451 578 512 L445 578 Q247 676 166 772 Q85 868 85 1009 Q85 1159 192.5 1289 Q300 1419 522 1419 Q635 1419 740.5 1385 Q846 1351 861 1351 Q895 1351 908 1370.5 Q921 1390 929 1422 L990 1422 L990 976 L933 976 Q892 1131 788.5 1243 Q685 1355 537 1355 Q433 1355 372.5 1298.5 Q312 1242 312 1161 Q312 1064 369 1016 Q425 967 618 872 L772 796 Q875 745 936 683 Q1050 567 1050 401 Q1050 246 927.5 108.5 Q805 -29 535 -29 Q473 -29 409.5 -17.5 Q346 -6 284 18 L244 33 Q230 37 217 39.5 Q204 42 195 42 Q163 42 151 23.5 Q139 5 130 -29 L71 -29 L71 478 Z M906 1507 L790 1507 L560 1709 L330 1507 L214 1507 L465 1868 L655 1868 L906 1507 Z " />
<glyph glyph-name="scircumflex" unicode="&#x15d;" horiz-adv-x="797" d="M52 310 L109 310 Q139 163 221 102.5 Q303 42 389 42 Q468 42 505 77.5 Q542 113 542 171 Q542 226 502 265 Q480 286 431 310 L279 384 Q159 443 107 512 Q54 581 54 675 Q54 794 137 880.5 Q220 967 369 967 Q434 967 507 945.5 Q580 924 598 924 Q623 924 633.5 934.5 Q644 945 651 964 L696 964 L696 668 L644 668 Q615 772 549 835 Q483 898 395 898 Q327 898 293.5 860 Q260 822 260 778 Q260 742 290 706 Q319 669 400 630 L512 576 Q616 526 664 479 Q744 399 744 282 Q744 168 661.5 69.5 Q579 -29 414 -29 Q373 -29 331.5 -20.5 Q290 -12 229 9 L194 21 Q175 28 170.5 29 Q166 30 159 30 Q142 30 129.5 16.5 Q117 3 101 -29 L52 -29 L52 310 Z M755 1056 L639 1056 L409 1258 L179 1056 L63 1056 L314 1417 L504 1417 L755 1056 Z " />
<glyph glyph-name="Tcedilla" unicode="&#x162;" horiz-adv-x="1366" d="M54 1384 L1287 1384 L1289 971 L1230 971 Q1201 1192 1064 1270 Q987 1313 834 1317 L834 239 Q834 126 873.5 89 Q913 52 1038 52 L1038 0 L308 0 L308 52 Q428 52 467.5 89.5 Q507 127 507 239 L507 1317 Q357 1313 277 1270 Q130 1190 111 971 L52 971 L54 1384 Z M471 -296 Q517 -313 540 -318 Q563 -323 597 -323 Q645 -323 677.5 -304.5 Q710 -286 710 -241 Q710 -205 683.5 -185.5 Q657 -166 613 -166 Q595 -166 584 -168 Q573 -170 558 -175 L537 -159 L625 41 L710 41 L653 -92 Q675 -87 687.5 -85 Q700 -83 720 -83 Q824 -83 863.5 -127 Q903 -171 903 -226 Q903 -328 819 -367.5 Q735 -407 631 -407 Q578 -407 531 -398.5 Q484 -390 437 -372 L471 -296 Z " />
<glyph glyph-name="tcedilla" unicode="&#x163;" horiz-adv-x="682" d="M33 853 L33 910 Q60 935 100 969 Q153 1018 200 1070 Q293 1172 369 1289 L421 1289 L421 943 L616 943 L616 853 L421 853 L421 237 Q421 194 434 165 Q454 120 500 120 Q540 120 567 148.5 Q594 177 621 227 L670 203 Q634 119 584 66 Q496 -27 369 -27 Q297 -27 243 0 Q139 52 139 189 L139 853 L33 853 Z M152 -315 Q198 -332 221 -337 Q244 -342 278 -342 Q326 -342 358.5 -323.5 Q391 -305 391 -260 Q391 -224 364.5 -204.5 Q338 -185 294 -185 Q276 -185 265 -187 Q254 -189 239 -194 L218 -178 L306 22 L391 22 L334 -111 Q356 -106 368.5 -104 Q381 -102 401 -102 Q505 -102 544.5 -146 Q584 -190 584 -245 Q584 -347 500 -386.5 Q416 -426 312 -426 Q259 -426 212 -417.5 Q165 -409 118 -391 L152 -315 Z " />
<glyph glyph-name="Tcaron" unicode="&#x164;" horiz-adv-x="1366" d="M54 1384 L1287 1384 L1289 971 L1230 971 Q1201 1192 1064 1270 Q987 1313 834 1317 L834 239 Q834 126 873.5 89 Q913 52 1038 52 L1038 0 L308 0 L308 52 Q428 52 467.5 89.5 Q507 127 507 239 L507 1317 Q357 1313 277 1270 Q130 1190 111 971 L52 971 L54 1384 Z M324 1834 L440 1834 L670 1632 L900 1834 L1016 1834 L765 1473 L575 1473 L324 1834 Z " />
<glyph glyph-name="tcaron" unicode="&#x165;" horiz-adv-x="1157" d="M33 853 L33 910 Q60 935 100 969 Q153 1018 200 1070 Q293 1172 369 1289 L421 1289 L421 943 L616 943 L616 853 L421 853 L421 237 Q421 194 434 165 Q454 120 500 120 Q540 120 567 148.5 Q594 177 621 227 L670 203 Q634 119 584 66 Q496 -27 369 -27 Q297 -27 243 0 Q139 52 139 189 L139 853 L33 853 Z M684 990 Q777 1054 824 1102 Q907 1185 907 1259 Q907 1280 897 1293 Q886 1305 866 1305 Q856 1305 841 1302.5 Q826 1300 820 1300 Q759 1300 714.5 1343 Q670 1386 670 1459 Q670 1536 716.5 1584 Q763 1632 838 1632 Q930 1632 988.5 1567.5 Q1047 1503 1047 1395 Q1047 1230 915 1095 Q843 1023 708 945 L684 990 Z " />
<glyph glyph-name="Tbar" unicode="&#x166;" horiz-adv-x="1366" d="M54 1384 L1287 1384 L1289 971 L1230 971 Q1201 1192 1064 1270 Q987 1313 834 1317 L834 239 Q834 126 873.5 89 Q913 52 1038 52 L1038 0 L308 0 L308 52 Q428 52 467.5 89.5 Q507 127 507 239 L507 1317 Q357 1313 277 1270 Q130 1190 111 971 L52 971 L54 1384 Z M331 770 L1009 770 L1009 623 L331 623 L331 770 Z " />
<glyph glyph-name="tbar" unicode="&#x167;" horiz-adv-x="682" d="M33 853 L33 910 Q60 935 100 969 Q153 1018 200 1070 Q293 1172 369 1289 L421 1289 L421 943 L616 943 L616 853 L421 853 L421 237 Q421 194 434 165 Q454 120 500 120 Q540 120 567 148.5 Q594 177 621 227 L670 203 Q634 119 584 66 Q496 -27 369 -27 Q297 -27 243 0 Q139 52 139 189 L139 853 L33 853 Z M12 709 L690 709 L690 562 L12 562 L12 709 Z " />
<glyph glyph-name="Utilde" unicode="&#x168;" horiz-adv-x="1479" d="M725 1384 L725 1332 Q606 1328 566 1295 Q526 1262 526 1144 L526 459 Q526 303 563 218 Q630 60 820 60 Q1056 60 1139 235 Q1185 331 1185 504 L1185 1130 Q1185 1240 1144.5 1281.5 Q1104 1323 986 1332 L986 1384 L1436 1384 L1436 1332 Q1338 1313 1306.5 1285.5 Q1275 1258 1275 1159 L1275 504 Q1275 243 1149 101 Q1023 -41 753 -41 Q400 -41 270 170 Q201 282 201 459 L201 1144 Q201 1260 170.5 1290 Q140 1320 33 1332 L33 1384 L725 1384 Z M672 1782 Q705 1782 744.5 1770.5 Q784 1759 816 1744 L899 1706 Q923 1695 942 1689 Q961 1683 980 1683 Q1026 1683 1052 1713 Q1069 1732 1089 1782 L1176 1782 Q1155 1680 1097.5 1602 Q1040 1524 930 1524 Q899 1524 868 1531.5 Q837 1539 807 1552 L747 1578 Q668 1612 651.5 1618 Q635 1624 617 1624 Q567 1624 540 1587 Q524 1567 513 1526 L427 1526 Q447 1619 482 1675 Q549 1782 672 1782 Z " />
<glyph glyph-name="utilde" unicode="&#x169;" horiz-adv-x="1139" d="M419 943 L419 248 Q419 186 434 157 Q460 106 537 106 Q586 106 633 137 Q660 154 701 194 L701 775 Q701 839 675.5 864.5 Q650 890 573 893 L573 943 L981 943 L981 206 Q981 142 1005 117.5 Q1029 93 1099 87 L1099 40 Q909 22 859.5 13.5 Q810 5 701 -29 L701 106 Q628 43 580 17 Q496 -29 405 -29 Q306 -29 220.5 34 Q135 97 135 258 L135 775 Q135 840 114 860 Q93 880 33 893 L33 943 L419 943 Z M443 1406 Q476 1406 515.5 1394.5 Q555 1383 587 1368 L670 1330 Q694 1319 713 1313 Q732 1307 751 1307 Q797 1307 823 1337 Q840 1356 860 1406 L947 1406 Q926 1304 868.5 1226 Q811 1148 701 1148 Q670 1148 639 1155.5 Q608 1163 578 1176 L518 1202 Q439 1236 422.5 1242 Q406 1248 388 1248 Q338 1248 311 1211 Q295 1191 284 1150 L198 1150 Q218 1243 253 1299 Q320 1406 443 1406 Z " />
<glyph glyph-name="Umacron" unicode="&#x16a;" horiz-adv-x="1479" d="M725 1384 L725 1332 Q606 1328 566 1295 Q526 1262 526 1144 L526 459 Q526 303 563 218 Q630 60 820 60 Q1056 60 1139 235 Q1185 331 1185 504 L1185 1130 Q1185 1240 1144.5 1281.5 Q1104 1323 986 1332 L986 1384 L1436 1384 L1436 1332 Q1338 1313 1306.5 1285.5 Q1275 1258 1275 1159 L1275 504 Q1275 243 1149 101 Q1023 -41 753 -41 Q400 -41 270 170 Q201 282 201 459 L201 1144 Q201 1260 170.5 1290 Q140 1320 33 1332 L33 1384 L725 1384 Z M438 1669 L1116 1669 L1116 1522 L438 1522 L438 1669 Z " />
<glyph glyph-name="umacron" unicode="&#x16b;" horiz-adv-x="1139" d="M419 943 L419 248 Q419 186 434 157 Q460 106 537 106 Q586 106 633 137 Q660 154 701 194 L701 775 Q701 839 675.5 864.5 Q650 890 573 893 L573 943 L981 943 L981 206 Q981 142 1005 117.5 Q1029 93 1099 87 L1099 40 Q909 22 859.5 13.5 Q810 5 701 -29 L701 106 Q628 43 580 17 Q496 -29 405 -29 Q306 -29 220.5 34 Q135 97 135 258 L135 775 Q135 840 114 860 Q93 880 33 893 L33 943 L419 943 Z M233 1260 L911 1260 L911 1113 L233 1113 L233 1260 Z " />
<glyph glyph-name="Ubreve" unicode="&#x16c;" horiz-adv-x="1479" d="M725 1384 L725 1332 Q606 1328 566 1295 Q526 1262 526 1144 L526 459 Q526 303 563 218 Q630 60 820 60 Q1056 60 1139 235 Q1185 331 1185 504 L1185 1130 Q1185 1240 1144.5 1281.5 Q1104 1323 986 1332 L986 1384 L1436 1384 L1436 1332 Q1338 1313 1306.5 1285.5 Q1275 1258 1275 1159 L1275 504 Q1275 243 1149 101 Q1023 -41 753 -41 Q400 -41 270 170 Q201 282 201 459 L201 1144 Q201 1260 170.5 1290 Q140 1320 33 1332 L33 1384 L725 1384 Z M589 1856 Q604 1778 634 1742 Q686 1678 803 1678 Q883 1678 947 1713.5 Q1011 1749 1027 1844 L1029 1856 L1119 1856 Q1114 1699 1031.5 1610 Q949 1521 803 1521 Q628 1521 551 1651 Q503 1733 498 1856 L589 1856 Z " />
<glyph glyph-name="ubreve" unicode="&#x16d;" horiz-adv-x="1139" d="M419 943 L419 248 Q419 186 434 157 Q460 106 537 106 Q586 106 633 137 Q660 154 701 194 L701 775 Q701 839 675.5 864.5 Q650 890 573 893 L573 943 L981 943 L981 206 Q981 142 1005 117.5 Q1029 93 1099 87 L1099 40 Q909 22 859.5 13.5 Q810 5 701 -29 L701 106 Q628 43 580 17 Q496 -29 405 -29 Q306 -29 220.5 34 Q135 97 135 258 L135 775 Q135 840 114 860 Q93 880 33 893 L33 943 L419 943 Z M331 1408 Q346 1330 376 1294 Q428 1230 545 1230 Q625 1230 689 1265.5 Q753 1301 769 1396 L771 1408 L861 1408 Q856 1251 773.5 1162 Q691 1073 545 1073 Q370 1073 293 1203 Q245 1285 240 1408 L331 1408 Z " />
<glyph glyph-name="Uring" unicode="&#x16e;" horiz-adv-x="1479" d="M725 1384 L725 1332 Q606 1328 566 1295 Q526 1262 526 1144 L526 459 Q526 303 563 218 Q630 60 820 60 Q1056 60 1139 235 Q1185 331 1185 504 L1185 1130 Q1185 1240 1144.5 1281.5 Q1104 1323 986 1332 L986 1384 L1436 1384 L1436 1332 Q1338 1313 1306.5 1285.5 Q1275 1258 1275 1159 L1275 504 Q1275 243 1149 101 Q1023 -41 753 -41 Q400 -41 270 170 Q201 282 201 459 L201 1144 Q201 1260 170.5 1290 Q140 1320 33 1332 L33 1384 L725 1384 Z M673 1743 Q673 1694 708 1659.5 Q743 1625 791 1625 Q840 1625 875 1659.5 Q910 1694 910 1743 Q910 1792 875 1827 Q840 1862 791 1862 Q743 1862 708 1827 Q673 1792 673 1743 Z M573 1743 Q573 1833 637 1897 Q701 1961 791 1961 Q882 1961 945.5 1897 Q1009 1833 1009 1743 Q1009 1653 945.5 1589 Q882 1525 791 1525 Q701 1525 637 1589 Q573 1653 573 1743 Z " />
<glyph glyph-name="uring" unicode="&#x16f;" horiz-adv-x="1139" d="M419 943 L419 248 Q419 186 434 157 Q460 106 537 106 Q586 106 633 137 Q660 154 701 194 L701 775 Q701 839 675.5 864.5 Q650 890 573 893 L573 943 L981 943 L981 206 Q981 142 1005 117.5 Q1029 93 1099 87 L1099 40 Q909 22 859.5 13.5 Q810 5 701 -29 L701 106 Q628 43 580 17 Q496 -29 405 -29 Q306 -29 220.5 34 Q135 97 135 258 L135 775 Q135 840 114 860 Q93 880 33 893 L33 943 L419 943 Z M416 1251 Q416 1202 451 1167.5 Q486 1133 534 1133 Q583 1133 618 1167.5 Q653 1202 653 1251 Q653 1300 618 1335 Q583 1370 534 1370 Q486 1370 451 1335 Q416 1300 416 1251 Z M316 1251 Q316 1341 380 1405 Q444 1469 534 1469 Q625 1469 688.5 1405 Q752 1341 752 1251 Q752 1161 688.5 1097 Q625 1033 534 1033 Q444 1033 380 1097 Q316 1161 316 1251 Z " />
<glyph glyph-name="Uhungarumlaut" unicode="&#x170;" horiz-adv-x="1479" d="M725 1384 L725 1332 Q606 1328 566 1295 Q526 1262 526 1144 L526 459 Q526 303 563 218 Q630 60 820 60 Q1056 60 1139 235 Q1185 331 1185 504 L1185 1130 Q1185 1240 1144.5 1281.5 Q1104 1323 986 1332 L986 1384 L1436 1384 L1436 1332 Q1338 1313 1306.5 1285.5 Q1275 1258 1275 1159 L1275 504 Q1275 243 1149 101 Q1023 -41 753 -41 Q400 -41 270 170 Q201 282 201 459 L201 1144 Q201 1260 170.5 1290 Q140 1320 33 1332 L33 1384 L725 1384 Z M1293 1780 Q1293 1741 1274 1720 Q1255 1699 1210 1671 L919 1490 L805 1490 L1085 1813 Q1109 1840 1135 1855 Q1161 1870 1197 1870 Q1239 1870 1266 1844.5 Q1293 1819 1293 1780 Z M914 1777 Q914 1748 897 1726.5 Q880 1705 831 1671 L554 1474 L440 1474 L705 1813 Q724 1837 752.5 1853.5 Q781 1870 817 1870 Q865 1870 889.5 1841.5 Q914 1813 914 1777 Z " />
<glyph glyph-name="uhungarumlaut" unicode="&#x171;" horiz-adv-x="1139" d="M419 943 L419 248 Q419 186 434 157 Q460 106 537 106 Q586 106 633 137 Q660 154 701 194 L701 775 Q701 839 675.5 864.5 Q650 890 573 893 L573 943 L981 943 L981 206 Q981 142 1005 117.5 Q1029 93 1099 87 L1099 40 Q909 22 859.5 13.5 Q810 5 701 -29 L701 106 Q628 43 580 17 Q496 -29 405 -29 Q306 -29 220.5 34 Q135 97 135 258 L135 775 Q135 840 114 860 Q93 880 33 893 L33 943 L419 943 Z M1046 1337 Q1046 1298 1027 1277 Q1008 1256 963 1228 L672 1047 L558 1047 L838 1370 Q862 1397 888 1412 Q914 1427 950 1427 Q992 1427 1019 1401.5 Q1046 1376 1046 1337 Z M667 1334 Q667 1305 650 1283.5 Q633 1262 584 1228 L307 1031 L193 1031 L458 1370 Q477 1394 505.5 1410.5 Q534 1427 570 1427 Q618 1427 642.5 1398.5 Q667 1370 667 1334 Z " />
<glyph glyph-name="Uogonek" unicode="&#x172;" horiz-adv-x="1479" d="M725 1384 L725 1332 Q606 1328 566 1295 Q526 1262 526 1144 L526 459 Q526 303 563 218 Q630 60 820 60 Q1056 60 1139 235 Q1185 331 1185 504 L1185 1130 Q1185 1240 1144.5 1281.5 Q1104 1323 986 1332 L986 1384 L1436 1384 L1436 1332 Q1338 1313 1306.5 1285.5 Q1275 1258 1275 1159 L1275 504 Q1275 243 1149 101 Q1023 -41 753 -41 Q400 -41 270 170 Q201 282 201 459 L201 1144 Q201 1260 170.5 1290 Q140 1320 33 1332 L33 1384 L725 1384 Z M956 11 Q858 -21 781 -69 Q655 -149 655 -242 Q655 -284 686 -310.5 Q717 -337 761 -337 Q806 -337 864 -310 Q900 -293 961 -254 L1006 -337 Q905 -402 853 -425 Q770 -463 692 -463 Q582 -463 522.5 -405 Q463 -347 463 -273 Q463 -114 708 -16 Q872 42 956 42 L956 11 Z " />
<glyph glyph-name="uogonek" unicode="&#x173;" horiz-adv-x="1139" d="M419 943 L419 248 Q419 186 434 157 Q460 106 537 106 Q586 106 633 137 Q660 154 701 194 L701 775 Q701 839 675.5 864.5 Q650 890 573 893 L573 943 L981 943 L981 206 Q981 142 1005 117.5 Q1029 93 1099 87 L1099 40 Q909 22 859.5 13.5 Q810 5 701 -29 L701 106 Q628 43 580 17 Q496 -29 405 -29 Q306 -29 220.5 34 Q135 97 135 258 L135 775 Q135 840 114 860 Q93 880 33 893 L33 943 L419 943 Z M1007 63 Q909 31 832 -17 Q706 -97 706 -190 Q706 -232 737 -258.5 Q768 -285 812 -285 Q857 -285 915 -258 Q951 -241 1012 -202 L1057 -285 Q956 -350 904 -373 Q821 -411 743 -411 Q633 -411 573.5 -353 Q514 -295 514 -221 Q514 -62 759 36 Q923 94 1007 94 L1007 63 Z " />
<glyph glyph-name="Wcircumflex" unicode="&#x174;" horiz-adv-x="2048" d="M640 1384 L640 1332 Q566 1325 538.5 1311 Q511 1297 511 1247 Q511 1234 514 1216.5 Q517 1199 523 1180 L760 464 L777 464 L1012 1064 Q1014 1069 983.5 1155 Q953 1241 941 1261 Q918 1297 890.5 1312 Q863 1327 791 1332 L791 1384 L1431 1384 L1431 1332 Q1343 1325 1313.5 1313 Q1284 1301 1284 1259 Q1284 1249 1290.5 1220.5 Q1297 1192 1313 1142 L1526 483 L1540 483 L1763 1156 Q1769 1174 1773 1194.5 Q1777 1215 1777 1240 Q1777 1297 1734 1316 Q1708 1328 1635 1332 L1635 1384 L2010 1384 L2010 1332 Q1963 1325 1937 1308 Q1892 1277 1867 1201 L1457 -34 L1403 -34 L1059 926 L1045 926 L670 -34 L613 -34 L180 1201 Q152 1282 124 1304 Q96 1326 37 1334 L37 1384 L640 1384 Z M1410 1501 L1294 1501 L1064 1703 L834 1501 L718 1501 L969 1862 L1159 1862 L1410 1501 Z " />
<glyph glyph-name="wcircumflex" unicode="&#x175;" horiz-adv-x="1479" d="M488 943 L488 893 Q453 890 431 878.5 Q409 867 409 832 Q409 820 412 809 Q415 798 424 775 L576 374 L587 374 L720 711 Q720 718 704 771.5 Q688 825 677 846 Q661 874 646.5 881 Q632 888 587 893 L587 943 L1066 943 L1066 893 Q1022 891 995.5 882 Q969 873 969 847 Q969 832 972.5 812.5 Q976 793 986 760 L1090 393 L1102 393 L1249 784 Q1252 794 1254 803 Q1256 812 1256 820 Q1256 863 1230.5 876 Q1205 889 1156 893 L1156 943 L1434 943 L1434 893 Q1397 886 1375.5 867.5 Q1354 849 1332 791 L1014 -29 L967 -29 L760 592 L751 592 L502 -29 L452 -29 L149 737 Q111 832 93 858.5 Q75 885 33 893 L33 943 L488 943 Z M1142 1052 L1026 1052 L796 1254 L566 1052 L450 1052 L701 1413 L891 1413 L1142 1052 Z " />
<glyph glyph-name="Ycircumflex" unicode="&#x176;" horiz-adv-x="1479" d="M715 1384 L715 1332 Q609 1326 579 1316 Q549 1306 549 1274 Q549 1260 554.5 1243.5 Q560 1227 580 1184 L836 692 L853 692 L1073 1052 Q1094 1085 1117 1133 Q1152 1206 1152 1241 Q1152 1295 1109 1313 Q1080 1325 981 1332 L981 1384 L1431 1384 L1431 1332 Q1382 1323 1353 1311 Q1316 1292 1291 1253 L900 616 L900 239 Q900 122 940 88.5 Q980 55 1090 52 L1090 0 L379 0 L379 52 Q493 55 530.5 91 Q568 127 568 239 L568 540 L194 1220 Q157 1287 103 1314 Q67 1331 30 1332 L30 1384 L715 1384 Z M1120 1510 L1004 1510 L774 1712 L544 1510 L428 1510 L679 1871 L869 1871 L1120 1510 Z " />
<glyph glyph-name="ycircumflex" unicode="&#x177;" horiz-adv-x="1024" d="M33 -264 Q33 -194 73.5 -161 Q114 -128 170 -128 Q219 -128 250.5 -157 Q282 -186 282 -226 L277 -271 Q277 -284 287 -295 Q297 -306 312 -306 Q362 -306 405 -225 Q432 -175 483 -29 L237 578 Q211 642 186.5 698 Q162 754 135 807 Q107 861 91 875 Q75 889 33 893 L33 943 L545 943 L545 893 Q497 892 466.5 882 Q436 872 436 839 Q436 832 439.5 820 Q443 808 455 777 L616 365 L632 365 L763 734 Q773 764 779.5 786.5 Q786 809 786 826 Q786 869 757.5 880.5 Q729 892 673 893 L673 943 L983 943 L983 893 Q943 890 917.5 871.5 Q892 853 865 782 L559 -34 Q475 -260 414.5 -341 Q354 -422 225 -422 Q131 -422 82 -372.5 Q33 -323 33 -264 Z M878 1046 L762 1046 L532 1248 L302 1046 L186 1046 L437 1407 L627 1407 L878 1046 Z " />
<glyph glyph-name="Zacute" unicode="&#x179;" horiz-adv-x="1366" d="M56 33 L839 1313 Q607 1313 562.5 1308.5 Q518 1304 481 1296 Q351 1270 277 1172 Q233 1113 177 962 L120 962 L163 1384 L1237 1384 L1237 1351 L459 71 Q876 71 1021.5 135 Q1167 199 1244 493 L1298 493 L1244 0 L56 0 L56 33 Z M973 1784 Q973 1745 952 1722.5 Q931 1700 890 1675 L598 1494 L484 1494 L764 1817 Q781 1837 801 1850 Q836 1874 875 1874 Q920 1874 946.5 1848 Q973 1822 973 1784 Z " />
<glyph glyph-name="zacute" unicode="&#x17a;" horiz-adv-x="909" d="M42 0 L42 52 L521 877 Q323 879 246.5 844.5 Q170 810 130 654 L78 654 L92 943 L850 943 L850 891 L379 61 Q579 66 647 100 Q751 151 803 327 L860 327 L827 0 L42 0 Z M755 1330 Q755 1291 734 1268.5 Q713 1246 672 1221 L380 1040 L266 1040 L546 1363 Q563 1383 583 1396 Q618 1420 657 1420 Q702 1420 728.5 1394 Q755 1368 755 1330 Z " />
<glyph glyph-name="Zdotaccent" unicode="&#x17b;" horiz-adv-x="1366" d="M56 33 L839 1313 Q607 1313 562.5 1308.5 Q518 1304 481 1296 Q351 1270 277 1172 Q233 1113 177 962 L120 962 L163 1384 L1237 1384 L1237 1351 L459 71 Q876 71 1021.5 135 Q1167 199 1244 493 L1298 493 L1244 0 L56 0 L56 33 Z M644 1657 Q644 1715 684.5 1756 Q725 1797 782 1797 Q840 1797 881 1756 Q922 1715 922 1657 Q922 1599 881 1558 Q840 1517 782 1517 Q728 1517 686 1557.5 Q644 1598 644 1657 Z " />
<glyph glyph-name="zdotaccent" unicode="&#x17c;" horiz-adv-x="909" d="M42 0 L42 52 L521 877 Q323 879 246.5 844.5 Q170 810 130 654 L78 654 L92 943 L850 943 L850 891 L379 61 Q579 66 647 100 Q751 151 803 327 L860 327 L827 0 L42 0 Z M352 1203 Q352 1261 392.5 1302 Q433 1343 490 1343 Q548 1343 589 1302 Q630 1261 630 1203 Q630 1145 589 1104 Q548 1063 490 1063 Q436 1063 394 1103.5 Q352 1144 352 1203 Z " />
<glyph glyph-name="Scommaaccent" unicode="&#x218;" horiz-adv-x="1139" d="M71 478 L130 478 Q180 249 291.5 145 Q403 41 547 41 Q687 41 746 112.5 Q805 184 805 263 Q805 355 743 413 Q702 451 578 512 L445 578 Q247 676 166 772 Q85 868 85 1009 Q85 1159 192.5 1289 Q300 1419 522 1419 Q635 1419 740.5 1385 Q846 1351 861 1351 Q895 1351 908 1370.5 Q921 1390 929 1422 L990 1422 L990 976 L933 976 Q892 1131 788.5 1243 Q685 1355 537 1355 Q433 1355 372.5 1298.5 Q312 1242 312 1161 Q312 1064 369 1016 Q425 967 618 872 L772 796 Q875 745 936 683 Q1050 567 1050 401 Q1050 246 927.5 108.5 Q805 -29 535 -29 Q473 -29 409.5 -17.5 Q346 -6 284 18 L244 33 Q230 37 217 39.5 Q204 42 195 42 Q163 42 151 23.5 Q139 5 130 -29 L71 -29 L71 478 Z M386 -769 Q479 -705 526 -657 Q609 -574 609 -500 Q609 -479 599 -466 Q588 -454 568 -454 Q558 -454 543 -456.5 Q528 -459 522 -459 Q461 -459 416.5 -416 Q372 -373 372 -300 Q372 -223 418.5 -175 Q465 -127 540 -127 Q632 -127 690.5 -191.5 Q749 -256 749 -364 Q749 -529 617 -664 Q545 -736 410 -814 L386 -769 Z " />
<glyph glyph-name="scommaaccent" unicode="&#x219;" horiz-adv-x="797" d="M52 310 L109 310 Q139 163 221 102.5 Q303 42 389 42 Q468 42 505 77.5 Q542 113 542 171 Q542 226 502 265 Q480 286 431 310 L279 384 Q159 443 107 512 Q54 581 54 675 Q54 794 137 880.5 Q220 967 369 967 Q434 967 507 945.5 Q580 924 598 924 Q623 924 633.5 934.5 Q644 945 651 964 L696 964 L696 668 L644 668 Q615 772 549 835 Q483 898 395 898 Q327 898 293.5 860 Q260 822 260 778 Q260 742 290 706 Q319 669 400 630 L512 576 Q616 526 664 479 Q744 399 744 282 Q744 168 661.5 69.5 Q579 -29 414 -29 Q373 -29 331.5 -20.5 Q290 -12 229 9 L194 21 Q175 28 170.5 29 Q166 30 159 30 Q142 30 129.5 16.5 Q117 3 101 -29 L52 -29 L52 310 Z M224 -769 Q317 -705 364 -657 Q447 -574 447 -500 Q447 -479 437 -466 Q426 -454 406 -454 Q396 -454 381 -456.5 Q366 -459 360 -459 Q299 -459 254.5 -416 Q210 -373 210 -300 Q210 -223 256.5 -175 Q303 -127 378 -127 Q470 -127 528.5 -191.5 Q587 -256 587 -364 Q587 -529 455 -664 Q383 -736 248 -814 L224 -769 Z " />
<glyph glyph-name="Tcommaaccent" unicode="&#x21a;" horiz-adv-x="1366" d="M54 1384 L1287 1384 L1289 971 L1230 971 Q1201 1192 1064 1270 Q987 1313 834 1317 L834 239 Q834 126 873.5 89 Q913 52 1038 52 L1038 0 L308 0 L308 52 Q428 52 467.5 89.5 Q507 127 507 239 L507 1317 Q357 1313 277 1270 Q130 1190 111 971 L52 971 L54 1384 Z M496 -740 Q589 -676 636 -628 Q719 -545 719 -471 Q719 -450 709 -437 Q698 -425 678 -425 Q668 -425 653 -427.5 Q638 -430 632 -430 Q571 -430 526.5 -387 Q482 -344 482 -271 Q482 -194 528.5 -146 Q575 -98 650 -98 Q742 -98 800.5 -162.5 Q859 -227 859 -335 Q859 -500 727 -635 Q655 -707 520 -785 L496 -740 Z " />
<glyph glyph-name="tcommaaccent" unicode="&#x21b;" horiz-adv-x="682" d="M33 853 L33 910 Q60 935 100 969 Q153 1018 200 1070 Q293 1172 369 1289 L421 1289 L421 943 L616 943 L616 853 L421 853 L421 237 Q421 194 434 165 Q454 120 500 120 Q540 120 567 148.5 Q594 177 621 227 L670 203 Q634 119 584 66 Q496 -27 369 -27 Q297 -27 243 0 Q139 52 139 189 L139 853 L33 853 Z M177 -767 Q270 -703 317 -655 Q400 -572 400 -498 Q400 -477 390 -464 Q379 -452 359 -452 Q349 -452 334 -454.5 Q319 -457 313 -457 Q252 -457 207.5 -414 Q163 -371 163 -298 Q163 -221 209.5 -173 Q256 -125 331 -125 Q423 -125 481.5 -189.5 Q540 -254 540 -362 Q540 -527 408 -662 Q336 -734 201 -812 L177 -767 Z " />
<glyph glyph-name="currency" unicode="&#xa4;" horiz-adv-x="1024" d="M258 692 Q258 586 332 513 Q406 440 512 440 Q613 440 688 513 Q763 586 763 692 Q763 798 689.5 871.5 Q616 945 512 945 Q407 945 332.5 873.5 Q258 802 258 692 Z M73 681 Q73 777 105 857 Q122 900 158 955 L26 1083 L118 1178 L251 1047 Q303 1082 345 1099 Q422 1130 508 1130 Q596 1130 665 1103 Q706 1087 770 1045 L903 1178 L997 1083 L865 955 Q907 884 923 843 Q950 774 950 694 Q950 611 924 543 Q908 503 865 433 L997 301 L903 206 L770 336 Q702 294 661 278 Q595 253 517 253 Q438 253 370 278 Q328 294 251 338 L118 206 L26 301 L158 433 Q114 494 93.5 552.5 Q73 611 73 681 Z " />
<glyph glyph-name="gravecmb" unicode="&#x300;" horiz-adv-x="682" d="M-41 1370 Q-41 1411 -12.5 1435.5 Q16 1460 54 1460 Q87 1460 116 1445 Q145 1430 168 1403 L448 1080 L334 1080 L42 1261 Q2 1286 -19.5 1309 Q-41 1332 -41 1370 Z " />
<glyph glyph-name="acutecmb" unicode="&#x301;" horiz-adv-x="682" d="M609 1370 Q609 1331 588 1308.5 Q567 1286 526 1261 L234 1080 L120 1080 L400 1403 Q417 1423 437 1436 Q472 1460 511 1460 Q556 1460 582.5 1434 Q609 1408 609 1370 Z " />
<glyph glyph-name="circumflexcmb" unicode="&#x302;" horiz-adv-x="682" d="M630 1080 L514 1080 L284 1282 L54 1080 L-62 1080 L189 1441 L379 1441 L630 1080 Z " />
<glyph glyph-name="tildecmb" unicode="&#x303;" horiz-adv-x="682" d="M154 1379 Q187 1379 226.5 1367.5 Q266 1356 298 1341 L381 1303 Q405 1292 424 1286 Q443 1280 462 1280 Q508 1280 534 1310 Q551 1329 571 1379 L658 1379 Q637 1277 579.5 1199 Q522 1121 412 1121 Q381 1121 350 1128.5 Q319 1136 289 1149 L229 1175 Q150 1209 133.5 1215 Q117 1221 99 1221 Q49 1221 22 1184 Q6 1164 -5 1123 L-91 1123 Q-71 1216 -36 1272 Q31 1379 154 1379 Z " />
<glyph glyph-name="macroncmb" unicode="&#x304;" horiz-adv-x="682" d="M-55 1303 L623 1303 L623 1156 L-55 1156 L-55 1303 Z " />
<glyph glyph-name="brevecmb" unicode="&#x306;" horiz-adv-x="682" d="M64 1415 Q79 1337 109 1301 Q161 1237 278 1237 Q358 1237 422 1272.5 Q486 1308 502 1403 L504 1415 L594 1415 Q589 1258 506.5 1169 Q424 1080 278 1080 Q103 1080 26 1210 Q-22 1292 -27 1415 L64 1415 Z " />
<glyph glyph-name="dotaccentcmb" unicode="&#x307;" horiz-adv-x="682" d="M146 1232 Q146 1290 186.5 1331 Q227 1372 284 1372 Q342 1372 383 1331 Q424 1290 424 1232 Q424 1174 383 1133 Q342 1092 284 1092 Q230 1092 188 1132.5 Q146 1173 146 1232 Z " />
<glyph glyph-name="dieresiscmb" unicode="&#x308;" horiz-adv-x="682" d="M-62 1232 Q-62 1287 -23.5 1326 Q15 1365 68 1365 Q123 1365 162 1326 Q201 1287 201 1232 Q201 1177 162 1138 Q123 1099 68 1099 Q17 1099 -22.5 1137 Q-62 1175 -62 1232 Z M630 1232 Q630 1177 591.5 1138 Q553 1099 500 1099 Q445 1099 406 1138 Q367 1177 367 1232 Q367 1287 406 1326 Q445 1365 500 1365 Q551 1365 590.5 1327 Q630 1289 630 1232 Z " />
</font>
</svg>
