<?xml version="1.0" encoding="UTF-8"?>
<svg xmlns="http://www.w3.org/2000/svg" xmlns:xlink="http://www.w3.org/1999/xlink" version="1.2" >
<font id="Times Roman">
<font-face  font-family="Times" units-per-em="2048" ascent="1536" descent="-512" font-style="normal" font-weight="400" font-stretch="normal" cap-height="1536" x-height="1024" underline-position="-155" underline-thickness="101" />
<missing-glyph  horiz-adv-x="1479" d="M33 0 L33 1355 L1431 1355 L1431 0 L33 0 Z M1247 184 L1247 1171 L217 1171 L217 184 L1247 184 Z " />
<glyph glyph-name="&amp;#x0;" d="" />
<glyph glyph-name="&amp;#x8;" unicode="&#x8;" d="" />
<glyph glyph-name="&amp;#x1d;" unicode="&#x1d;" d="" />
<glyph glyph-name="&amp;#x9;" unicode="&#x9;" horiz-adv-x="512" d="" />
<glyph glyph-name="&amp;#xa;" unicode="&#xa;" horiz-adv-x="512" d="" />
<glyph glyph-name="&amp;#xd;" unicode="&#xd;" horiz-adv-x="512" d="" />
<glyph glyph-name="space" unicode="&#x20;" horiz-adv-x="512" d="" />
<glyph glyph-name="exclam" unicode="&#x21;" horiz-adv-x="682" d="M374 -22 Q331 -22 298 8 Q265 38 265 85 Q265 130 297 163 Q329 196 376 196 Q424 196 456 162.5 Q488 129 488 85 Q488 41 455 9.5 Q422 -22 374 -22 Z M483 1221 Q483 1203 482 1185.5 Q481 1168 478 1144 L433 765 L386 360 L360 360 L341 580 Q333 674 297 939 Q265 1170 265 1218 Q265 1280 289 1332 Q313 1384 378 1384 Q445 1384 470 1313 Q483 1276 483 1221 Z " />
<glyph glyph-name="quotedbl" unicode="&#x22;" horiz-adv-x="836" d="M348 1284 Q348 1271 345.5 1245.5 Q343 1220 341 1204 L293 794 L248 794 L196 1201 Q192 1229 190 1254 Q188 1279 188 1299 Q188 1337 210.5 1360.5 Q233 1384 267 1384 Q313 1384 330.5 1357.5 Q348 1331 348 1284 Z M545 794 L495 1192 Q488 1253 486.5 1264.5 Q485 1276 485 1284 Q485 1338 506.5 1361 Q528 1384 566 1384 Q614 1384 630.5 1356.5 Q647 1329 647 1283 Q647 1274 646 1264 Q645 1254 639 1201 L592 794 L545 794 Z " />
<glyph glyph-name="numbersign" unicode="&#x23;" horiz-adv-x="1024" d="M571 504 L663 848 L447 848 L355 504 L571 504 Z M16 504 L234 504 L329 850 L111 850 L127 924 L346 924 L464 1353 L587 1353 L469 924 L685 924 L801 1353 L922 1353 L803 924 L1021 924 L1002 850 L784 850 L692 504 L910 504 L888 429 L673 429 L557 0 L433 0 L552 429 L336 429 L220 0 L99 0 L215 429 L0 429 L16 504 Z " />
<glyph glyph-name="dollar" unicode="&#x24;" horiz-adv-x="1024" d="M120 369 Q149 245 199 179 Q290 59 471 56 L471 635 Q272 752 208 815 Q105 915 105 1050 Q105 1164 204.5 1258 Q304 1352 471 1360 L471 1488 L540 1488 L540 1360 Q623 1355 723 1328 Q816 1299 869 1251 L869 1023 L839 1023 Q816 1155 732 1227 Q648 1299 540 1303 L540 801 Q763 688 849 597.5 Q935 507 935 357 Q935 299 915 243 Q885 156 813 97 Q758 51 681 28 Q604 5 540 0 L540 -181 L471 -181 L471 0 Q340 3 254 30 Q197 48 90 104 L90 369 L120 369 Z M540 56 Q626 72 678 108 Q775 175 775 313 Q775 409 704 482 Q661 525 540 599 L540 56 Z M469 1303 Q375 1291 317 1234.5 Q259 1178 259 1091 Q259 1009 342 927 Q394 877 469 834 L469 1303 Z " />
<glyph glyph-name="percent" unicode="&#x25;" horiz-adv-x="1706" d="M566 1355 Q628 1355 667 1339 Q688 1331 708 1313 L746 1279 Q769 1259 811 1251 Q853 1243 897 1243 Q1012 1243 1109 1299 Q1161 1328 1218 1384 L1298 1384 L509 -29 L412 -29 L1125 1251 Q1050 1216 1013 1205 Q976 1194 915 1194 Q861 1194 822 1201 Q797 1205 772 1213 Q780 1186 783 1168.5 Q786 1151 786 1114 Q786 934 665.5 762.5 Q545 591 370 591 Q277 591 201 662 Q125 733 125 870 Q125 1035 259 1195 Q393 1355 566 1355 Z M1210 61 Q1332 61 1429.5 220.5 Q1527 380 1527 516 Q1527 600 1486 647 Q1445 694 1379 694 Q1260 694 1167 512 Q1074 330 1074 197 Q1074 131 1112 96 Q1150 61 1210 61 Z M919 279 Q919 452 1056.5 605.5 Q1194 759 1361 759 Q1448 759 1515 707 Q1582 655 1582 514 Q1582 363 1468 180 Q1354 -3 1167 -3 Q1066 -3 992.5 65.5 Q919 134 919 279 Z M407 661 Q530 661 632 810 Q734 959 734 1135 Q734 1198 720.5 1216 Q707 1234 673 1242 Q649 1248 616.5 1271.5 Q584 1295 577 1295 Q480 1295 379.5 1121.5 Q279 948 279 802 Q279 736 310.5 698.5 Q342 661 407 661 Z " />
<glyph glyph-name="ampersand" unicode="&#x26;" horiz-adv-x="1593" d="M656 850 Q755 905 805 953 Q895 1039 895 1143 Q895 1221 849.5 1269 Q804 1317 734 1317 Q658 1317 616.5 1268 Q575 1219 575 1138 Q575 1075 597.5 1001.5 Q620 928 656 850 Z M538 80 Q594 80 674 112 Q754 144 827 213 Q733 333 680.5 415 Q628 497 516 701 Q413 640 358 579 Q274 485 274 361 Q274 247 348 163.5 Q422 80 538 80 Z M485 772 Q472 799 455 846 Q438 893 431 922 Q423 954 418 986.5 Q413 1019 413 1050 Q413 1194 501 1289 Q589 1384 724 1384 Q847 1384 926 1317 Q1005 1250 1005 1137 Q1005 1005 904 921 Q803 837 687 786 Q775 626 816.5 560 Q858 494 957 365 Q1063 495 1104 587 Q1145 679 1145 734 Q1145 790 1104 811 Q1078 824 1014 829 L1014 872 L1455 872 L1455 829 Q1388 821 1355 805 Q1301 778 1263 708 L1211 613 Q1155 511 1117.5 457 Q1080 403 1005 308 Q1045 261 1096 213 Q1207 118 1318 118 Q1384 118 1430 150 Q1458 170 1505 227 L1535 203 Q1529 179 1493 127.5 Q1457 76 1424 47 Q1372 1 1303 -18 Q1262 -30 1223 -30 Q1126 -30 1031 31 Q974 67 879 158 Q789 75 697 31 Q577 -29 433 -29 Q273 -29 177.5 56.5 Q82 142 82 290 Q82 429 167.5 534.5 Q253 640 407 727 L485 772 Z " />
<glyph glyph-name="quotesingle" unicode="&#x27;" horiz-adv-x="369" d="M177 1384 Q224 1384 238.5 1358.5 Q253 1333 253 1289 Q253 1282 252.5 1275 Q252 1268 248 1234 L199 794 L163 794 L111 1201 Q108 1226 105.5 1250 Q103 1274 103 1299 Q103 1330 116.5 1357 Q130 1384 177 1384 Z " />
<glyph glyph-name="parenleft" unicode="&#x28;" horiz-adv-x="682" d="M94 514 Q94 862 302 1125 Q430 1286 604 1384 L623 1351 Q462 1223 393 1102 Q272 891 272 540 Q272 280 318 111 Q399 -185 623 -332 L597 -365 Q474 -306 331 -134 Q94 151 94 514 Z " />
<glyph glyph-name="parenright" unicode="&#x29;" horiz-adv-x="682" d="M583 504 Q583 355 544 222 Q505 89 430 -29 Q351 -155 219 -264 Q132 -336 73 -365 L54 -332 Q208 -215 279 -93 Q405 123 405 478 Q405 765 347 947 Q266 1204 54 1351 L80 1384 Q238 1296 374 1118 Q583 844 583 504 Z " />
<glyph glyph-name="asterisk" unicode="&#x2a;" horiz-adv-x="1024" d="M135 784 Q135 856 236 878 Q396 913 474 964 Q395 1011 233 1053 Q135 1078 135 1139 Q135 1173 156 1192 Q177 1211 205 1211 Q246 1211 311 1135.5 Q376 1060 488 995 L488 1021 Q488 1104 461.5 1187 Q435 1270 435 1304 Q435 1343 456.5 1363.5 Q478 1384 508 1384 Q543 1384 561.5 1361 Q580 1338 580 1303 Q580 1280 552 1194.5 Q524 1109 526 990 Q608 1050 626 1064.5 Q644 1079 669 1107 Q741 1187 758.5 1200.5 Q776 1214 807 1214 Q837 1214 857.5 1192 Q878 1170 878 1139 Q878 1076 788 1057 Q638 1025 542 962 L559 952 Q638 905 791 874 Q879 856 879 787 Q879 750 853 732.5 Q827 715 802 715 Q760 715 688 801.5 Q616 888 540 926 L526 933 L526 919 Q526 801 554.5 722.5 Q583 644 583 626 Q583 593 560.5 567.5 Q538 542 502 542 Q469 542 450 566 Q431 590 431 624 Q431 633 465 749.5 Q499 866 488 919 L485 933 Q400 886 326 802 Q252 718 206 718 Q170 718 152.5 739 Q135 760 135 784 Z " />
<glyph glyph-name="plus" unicode="&#x2b;" horiz-adv-x="1155" d="M509 1035 L649 1035 L649 587 L1095 587 L1095 447 L649 447 L649 0 L509 0 L509 447 L61 447 L61 587 L509 587 L509 1035 Z " />
<glyph glyph-name="comma" unicode="&#x2c;" horiz-adv-x="512" d="M502 21 Q502 -80 429 -167 Q356 -254 272 -292 L253 -252 Q349 -198 385.5 -135 Q422 -72 422 -30 Q422 -16 413 -12 Q404 -8 394 -8 L327 -15 Q285 -15 250 12.5 Q215 40 215 92 Q215 132 244 170 Q273 208 339 208 Q402 208 452 158.5 Q502 109 502 21 Z " />
<glyph glyph-name="hyphen" unicode="&#x2d;" horiz-adv-x="682" d="M80 526 L583 526 L583 398 L80 398 L80 526 Z " />
<glyph glyph-name="period" unicode="&#x2e;" horiz-adv-x="512" d="M334 -24 Q286 -24 253 9.5 Q220 43 220 90 Q220 137 253.5 170 Q287 203 334 203 Q381 203 414 170 Q447 137 447 90 Q447 43 414.5 9.5 Q382 -24 334 -24 Z " />
<glyph glyph-name="slash" unicode="&#x2f;" horiz-adv-x="569" d="M459 1384 L559 1384 L106 -34 L4 -34 L459 1384 Z " />
<glyph glyph-name="zero" unicode="0" horiz-adv-x="1024" d="M490 37 Q637 37 692 198 Q747 359 747 664 Q747 907 714 1052 Q652 1322 482 1322 Q312 1322 249 1044 Q216 896 216 654 Q216 427 250 291 Q314 37 490 37 Z M487 1376 Q717 1376 844 1135 Q945 940 945 687 Q945 488 883 312 Q766 -19 478 -19 Q281 -19 154 160 Q18 351 18 679 Q18 937 109 1123 Q232 1376 487 1376 Z " />
<glyph glyph-name="one" unicode="1" horiz-adv-x="1024" d="M606 1374 Q610 1369 610.5 1366.5 Q611 1364 611 1355 L611 151 Q611 74 652 53 Q693 32 805 28 L805 0 L241 0 L241 30 Q362 36 399 63 Q436 90 436 180 L436 1106 Q436 1154 424 1179 Q412 1204 372 1204 Q346 1204 304.5 1189.5 Q263 1175 227 1159 L227 1187 L594 1374 L606 1374 Z " />
<glyph glyph-name="two" unicode="2" horiz-adv-x="1024" d="M61 23 Q427 403 558 581 Q689 759 689 928 Q689 1076 609 1153.5 Q529 1231 418 1231 Q281 1231 196 1131 Q149 1076 106 962 L63 971 Q113 1201 232.5 1290.5 Q352 1380 489 1380 Q658 1380 762.5 1273.5 Q867 1167 867 1013 Q867 849 754 697 Q641 545 263 156 L722 156 Q818 156 857 179 Q896 202 945 291 L971 279 L860 0 L61 0 L61 23 Z " />
<glyph glyph-name="three" unicode="3" horiz-adv-x="1024" d="M159 174 Q214 174 304.5 117 Q395 60 458 60 Q598 60 666 154.5 Q734 249 734 360 Q734 467 679 548 Q586 685 365 685 Q352 685 340 684.5 Q328 684 312 682 L310 708 Q470 766 562 841 Q654 916 654 1039 Q654 1148 581.5 1205 Q509 1262 416 1262 Q306 1262 222 1181 Q176 1137 123 1045 L92 1052 Q132 1204 241 1295 Q350 1386 493 1386 Q646 1386 729.5 1302 Q813 1218 813 1108 Q813 1011 744 930 Q705 884 623 827 Q719 786 777 731 Q886 626 886 465 Q886 275 736.5 130 Q587 -15 311 -15 Q188 -15 138.5 21.5 Q89 58 89 100 Q89 126 105.5 150 Q122 174 159 174 Z " />
<glyph glyph-name="four" unicode="4" horiz-adv-x="1024" d="M597 1168 L106 474 L597 474 L597 1168 Z M663 1374 L758 1374 L758 474 L967 474 L967 341 L758 341 L758 0 L599 0 L599 341 L23 341 L23 474 L663 1374 Z " />
<glyph glyph-name="five" unicode="5" horiz-adv-x="1024" d="M153 183 Q210 183 302.5 118.5 Q395 54 445 54 Q560 54 646 155.5 Q732 257 732 405 Q732 664 456 778 Q303 841 171 841 Q149 841 143.5 842.5 Q138 844 130 853 Q132 861 133.5 866.5 Q135 872 137 877 L355 1355 L784 1355 Q816 1355 833.5 1366 Q851 1377 879 1407 L895 1393 L817 1208 Q813 1199 795 1196.5 Q777 1194 756 1194 L369 1194 L284 1019 Q448 991 524 966 Q649 924 733 842 Q805 771 842 682.5 Q879 594 879 495 Q879 274 721.5 126 Q564 -22 323 -22 Q225 -22 165 -3 Q65 28 65 108 Q65 138 86.5 160.5 Q108 183 153 183 Z " />
<glyph glyph-name="six" unicode="6" horiz-adv-x="1024" d="M958 455 Q958 272 840.5 125 Q723 -22 535 -22 Q359 -22 214.5 143 Q70 308 70 582 Q70 935 350 1188 Q600 1400 912 1400 L917 1367 Q792 1344 701.5 1304.5 Q611 1265 540 1194 Q467 1122 403 1011 Q339 900 315 791 Q377 829 422 847 Q502 879 583 879 Q742 879 850 769 Q958 659 958 455 Z M775 378 Q775 511 733 614 Q663 786 495 786 Q340 786 289 694 Q259 640 259 514 Q259 351 328.5 195 Q398 39 548 39 Q667 39 721 140.5 Q775 242 775 378 Z " />
<glyph glyph-name="seven" unicode="7" horiz-adv-x="1024" d="M919 1355 L919 1322 L485 -19 L353 -19 L758 1204 L322 1204 Q225 1204 182.5 1172 Q140 1140 75 1038 L40 1054 Q105 1214 120.5 1251.5 Q136 1289 161 1355 L919 1355 Z " />
<glyph glyph-name="eight" unicode="8" horiz-adv-x="1024" d="M515 34 Q630 34 689 98 Q748 162 748 258 Q748 367 685.5 434.5 Q623 502 429 639 Q343 585 304 499 Q265 413 265 333 Q265 196 335.5 115 Q406 34 515 34 Z M528 798 Q622 864 658 909 Q720 986 720 1095 Q720 1190 661.5 1256.5 Q603 1323 484 1323 Q392 1323 332 1265 Q272 1207 272 1124 Q272 1030 342.5 949.5 Q413 869 528 798 Z M374 682 Q242 788 194 851 Q120 947 120 1063 Q120 1195 229.5 1287 Q339 1379 514 1379 Q675 1379 770 1292 Q865 1205 865 1090 Q865 973 768 880 Q712 827 587 758 Q757 632 830.5 538.5 Q904 445 904 318 Q904 174 795.5 76 Q687 -22 505 -22 Q342 -22 225.5 68.5 Q109 159 109 307 Q109 434 190 531 Q243 594 374 682 Z " />
<glyph glyph-name="nine" unicode="9" horiz-adv-x="1024" d="M511 573 Q579 573 651.5 611 Q724 649 734 675 Q738 685 741 749.5 Q744 814 744 854 Q744 1062 674 1192 Q604 1322 469 1322 Q371 1322 310.5 1233 Q250 1144 250 967 Q250 821 306.5 697 Q363 573 511 573 Z M483 1379 Q703 1379 823 1203.5 Q943 1028 943 812 Q943 660 886 503 Q829 346 720 223 Q593 81 398 12 Q289 -27 123 -48 L113 -8 Q217 16 286 43 Q410 92 485 163 Q591 264 654.5 388.5 Q718 513 734 597 L699 571 Q625 515 525 494 Q473 482 430 482 Q260 482 160.5 602.5 Q61 723 61 890 Q61 1103 179.5 1241 Q298 1379 483 1379 Z " />
<glyph glyph-name="colon" unicode="&#x3a;" horiz-adv-x="569" d="M388 831 Q388 781 353.5 749.5 Q319 718 275 718 Q227 718 196 752 Q165 786 165 830 Q165 876 197 908.5 Q229 941 275 941 Q319 941 353.5 909.5 Q388 878 388 831 Z M272 -17 Q230 -17 197.5 16 Q165 49 165 96 Q165 141 197 174.5 Q229 208 276 208 Q323 208 358 175.5 Q393 143 393 97 Q393 53 360 18 Q327 -17 272 -17 Z " />
<glyph glyph-name="semicolon" unicode="&#x3b;" horiz-adv-x="569" d="M457 21 Q457 -78 385 -165.5 Q313 -253 227 -292 L208 -252 Q304 -198 340.5 -135 Q377 -72 377 -30 Q377 -16 368 -12 Q359 -8 349 -8 L282 -15 Q240 -15 205 12.5 Q170 40 170 92 Q170 132 199 170 Q228 208 294 208 Q357 208 407 158.5 Q457 109 457 21 Z M286 713 Q238 713 205.5 746.5 Q173 780 173 827 Q173 874 206 907.5 Q239 941 286 941 Q333 941 366.5 907.5 Q400 874 400 827 Q400 780 367 746.5 Q334 713 286 713 Z " />
<glyph glyph-name="less" unicode="&#x3c;" horiz-adv-x="1155" d="M1095 135 L1095 -17 L61 490 L61 545 L1095 1052 L1095 900 L329 519 L1095 135 Z " />
<glyph glyph-name="equal" unicode="&#x3d;" horiz-adv-x="1155" d="M1095 381 L1095 241 L61 241 L61 381 L1095 381 Z M1095 794 L1095 654 L61 654 L61 794 L1095 794 Z " />
<glyph glyph-name="greater" unicode="&#x3e;" horiz-adv-x="1155" d="M18 900 L18 1052 L1133 545 L1133 490 L18 -17 L18 135 L865 519 L18 900 Z " />
<glyph glyph-name="question" unicode="&#x3f;" horiz-adv-x="909" d="M594 90 Q594 45 561 13 Q528 -19 483 -19 Q436 -19 404 12.5 Q372 44 372 90 Q372 136 405 167.5 Q438 199 481 199 Q527 199 560.5 167 Q594 135 594 90 Z M491 1383 Q646 1383 747.5 1297 Q849 1211 849 1058 Q849 928 696 735 Q529 525 500 336 L464 336 Q464 373 475 440.5 Q486 508 502 559 Q518 610 583 758 Q616 833 638.5 908.5 Q661 984 661 1047 Q661 1154 606 1238 Q551 1322 433 1322 Q352 1322 296.5 1278.5 Q241 1235 241 1196 Q241 1174 282 1127.5 Q323 1081 323 1041 Q323 1008 298.5 983 Q274 958 239 958 Q199 958 167 992.5 Q135 1027 135 1094 Q135 1197 224 1290 Q313 1383 491 1383 Z " />
<glyph glyph-name="at" unicode="&#x40;" horiz-adv-x="1886" d="M749 501 Q749 436 782.5 398 Q816 360 872 360 Q991 360 1063.5 552.5 Q1136 745 1136 834 Q1136 886 1107 916 Q1078 946 1026 946 Q925 946 837 792 Q749 638 749 501 Z M949 -29 Q634 -29 410 161 Q184 354 184 630 Q184 943 432 1164 Q678 1384 1027 1384 Q1298 1384 1487 1233 Q1685 1073 1685 824 Q1685 624 1558 456 Q1431 288 1269 288 Q1162 288 1111 354 Q1077 398 1076 450 Q1053 389 986 338 Q919 287 843 287 Q730 287 652.5 364 Q575 441 575 570 Q575 739 706.5 880.5 Q838 1022 994 1022 Q1065 1022 1115 985.5 Q1165 949 1180 896 L1213 997 L1377 997 L1322 827 Q1288 722 1262 632 Q1220 486 1220 449 Q1220 429 1234 404 Q1258 362 1308 362 Q1405 362 1508 495.5 Q1611 629 1611 821 Q1611 1056 1431.5 1181 Q1252 1306 1037 1306 Q768 1306 554 1121 Q322 921 322 632 Q322 363 516 198 Q700 42 978 42 Q1073 42 1186 70 Q1359 112 1483 206 L1521 149 Q1371 53 1238 12 Q1105 -29 949 -29 Z " />
<glyph glyph-name="A" unicode="A" horiz-adv-x="1479" d="M914 526 L677 1090 L443 526 L914 526 Z M30 0 L30 37 Q109 46 148.5 97 Q188 148 284 374 L711 1379 L751 1379 L1261 218 Q1312 102 1342.5 74.5 Q1373 47 1445 37 L1445 0 L924 0 L924 37 Q1014 45 1040 56.5 Q1066 68 1066 113 Q1066 128 1056 166 Q1046 204 1028 246 L943 443 L407 443 Q327 242 311.5 197.5 Q296 153 296 127 Q296 75 338 55 Q364 43 436 37 L436 0 L30 0 Z " />
<glyph glyph-name="B" unicode="B" horiz-adv-x="1366" d="M609 74 Q766 74 872 135 Q978 196 978 369 Q978 541 854 604 Q730 667 538 667 Q491 667 478.5 667 Q466 667 440 668 L440 158 Q440 105 470 89.5 Q500 74 609 74 Z M35 37 Q159 44 195.5 75.5 Q232 107 232 222 L232 1133 Q232 1246 195.5 1278.5 Q159 1311 35 1317 L35 1355 L609 1355 Q855 1355 999.5 1276 Q1144 1197 1144 1004 Q1144 859 1043 784 Q986 741 872 713 Q1013 679 1113 599.5 Q1213 520 1213 377 Q1213 137 991 47 Q874 0 703 0 L35 0 L35 37 Z M635 749 Q738 751 806 782 Q936 842 936 997 Q936 1180 786 1244 Q703 1279 534 1279 Q470 1279 455 1268 Q440 1257 440 1208 L440 746 L635 749 Z " />
<glyph glyph-name="C" unicode="C" horiz-adv-x="1366" d="M758 1379 Q869 1379 986 1346 Q1103 1313 1117 1313 Q1146 1313 1172 1329 Q1198 1345 1208 1379 L1251 1379 L1270 919 L1223 919 Q1182 1056 1116 1140 Q990 1298 777 1298 Q562 1298 425.5 1128 Q289 958 289 660 Q289 386 432.5 222.5 Q576 59 796 59 Q955 59 1089 135 Q1166 178 1258 265 L1296 227 Q1228 141 1127 76 Q955 -34 754 -34 Q424 -34 230 177 Q51 372 51 664 Q51 963 240 1166 Q439 1379 758 1379 Z " />
<glyph glyph-name="D" unicode="D" horiz-adv-x="1479" d="M421 158 Q421 108 445.5 92 Q470 76 547 76 Q787 76 942 171 Q1180 317 1180 670 Q1180 985 984 1144 Q816 1280 539 1280 Q470 1280 445.5 1265 Q421 1250 421 1199 L421 158 Z M33 37 Q145 49 179 77.5 Q213 106 213 222 L213 1133 Q213 1245 180 1277 Q147 1309 33 1317 L33 1355 L585 1355 Q864 1355 1057 1263 Q1405 1098 1405 673 Q1405 520 1342.5 382 Q1280 244 1154 149 Q1074 89 988 58 Q831 0 602 0 L33 0 L33 37 Z " />
<glyph glyph-name="E" unicode="E" horiz-adv-x="1251" d="M23 37 Q136 49 169.5 77.5 Q203 106 203 222 L203 1133 Q203 1242 170 1275.5 Q137 1309 23 1317 L23 1355 L1111 1355 L1118 1061 L1066 1061 Q1040 1197 988 1237 Q936 1277 756 1277 L478 1277 Q433 1277 422.5 1262.5 Q412 1248 412 1208 L412 751 L727 751 Q858 751 894 790 Q930 829 952 948 L1000 948 L1000 474 L952 474 Q929 593 893 631.5 Q857 670 727 670 L412 670 L412 163 Q412 102 450.5 91 Q489 80 681 80 Q889 80 988 125.5 Q1087 171 1166 346 L1223 346 L1130 0 L23 0 L23 37 Z " />
<glyph glyph-name="F" unicode="F" horiz-adv-x="1139" d="M23 37 Q144 50 173.5 81.5 Q203 113 203 246 L203 1133 Q203 1242 170 1275.5 Q137 1309 23 1317 L23 1355 L1114 1355 L1121 1061 L1064 1061 Q1043 1202 985 1239.5 Q927 1277 756 1277 L476 1277 Q435 1277 423.5 1263 Q412 1249 412 1208 L412 751 L708 751 Q839 751 875 790 Q911 829 933 948 L981 948 L981 474 L933 474 Q910 593 874 631.5 Q838 670 708 670 L412 670 L412 222 Q412 109 446.5 77.5 Q481 46 597 37 L597 0 L23 0 L23 37 Z " />
<glyph glyph-name="G" unicode="G" horiz-adv-x="1479" d="M758 1379 Q877 1379 992 1346 Q1107 1313 1124 1313 Q1168 1313 1186.5 1330 Q1205 1347 1218 1379 L1263 1379 L1279 948 L1232 948 Q1169 1097 1102 1170 Q981 1298 787 1298 Q590 1298 440.5 1148.5 Q291 999 291 656 Q291 373 440 214 Q589 55 808 55 Q845 55 895 62 Q945 69 990 84 Q1063 108 1081 125.5 Q1099 143 1099 177 L1099 504 Q1099 622 1065.5 651 Q1032 680 919 687 L919 725 L1441 725 L1441 687 Q1365 682 1340 662 Q1298 630 1298 530 L1298 127 Q1298 91 1121.5 31 Q945 -29 782 -29 Q482 -29 276 146 Q49 339 49 664 Q49 950 230 1154 Q429 1379 758 1379 Z " />
<glyph glyph-name="H" unicode="H" horiz-adv-x="1479" d="M33 37 Q153 50 183 81.5 Q213 113 213 246 L213 1133 Q213 1243 179.5 1276 Q146 1309 33 1317 L33 1355 L602 1355 L602 1317 Q489 1309 455 1276 Q421 1243 421 1133 L421 734 L1042 734 L1042 1133 Q1042 1243 1009 1276 Q976 1309 862 1317 L862 1355 L1431 1355 L1431 1317 Q1318 1309 1284.5 1276 Q1251 1243 1251 1133 L1251 222 Q1251 110 1284.5 78.5 Q1318 47 1431 37 L1431 0 L862 0 L862 37 Q983 49 1012.5 81 Q1042 113 1042 246 L1042 644 L421 644 L421 222 Q421 110 455 78 Q489 46 602 37 L602 0 L33 0 L33 37 Z " />
<glyph glyph-name="I" unicode="I" horiz-adv-x="682" d="M33 37 Q158 46 195 74.5 Q232 103 232 222 L232 1133 Q232 1246 195 1278.5 Q158 1311 33 1317 L33 1355 L639 1355 L639 1317 Q514 1311 477 1278.5 Q440 1246 440 1133 L440 222 Q440 103 477 74.5 Q514 46 639 37 L639 0 L33 0 L33 37 Z " />
<glyph glyph-name="J" unicode="J" horiz-adv-x="797" d="M21 118 Q21 173 51.5 196.5 Q82 220 117 220 Q186 220 219 134.5 Q252 49 289 49 Q329 49 344.5 84 Q360 119 360 206 L360 1133 Q360 1247 323 1279 Q286 1311 170 1317 L170 1355 L758 1355 L758 1317 Q639 1310 603.5 1274.5 Q568 1239 568 1133 L568 381 Q568 175 469 76 Q370 -24 224 -24 Q128 -24 74.5 20 Q21 64 21 118 Z " />
<glyph glyph-name="K" unicode="K" horiz-adv-x="1479" d="M37 37 Q162 47 192 81.5 Q222 116 222 246 L222 1133 Q222 1244 188.5 1276.5 Q155 1309 37 1317 L37 1355 L621 1355 L621 1317 Q501 1311 466 1277 Q431 1243 431 1133 L431 713 Q620 874 740 987 Q955 1192 955 1250 Q955 1291 918.5 1304 Q882 1317 815 1317 L815 1355 L1351 1355 L1351 1322 Q1253 1312 1196.5 1283 Q1140 1254 1040 1156 L651 775 L1128 260 Q1261 117 1309 81.5 Q1357 46 1450 35 L1450 0 L824 0 L824 37 Q909 40 939 50.5 Q969 61 969 92 Q969 109 949.5 144 Q930 179 888 225 L500 651 L431 592 L431 222 Q431 108 465.5 77.5 Q500 47 616 37 L616 0 L37 0 L37 37 Z " />
<glyph glyph-name="L" unicode="L" horiz-adv-x="1251" d="M23 37 Q136 49 169.5 77.5 Q203 106 203 222 L203 1133 Q203 1242 170 1275.5 Q137 1309 23 1317 L23 1355 L602 1355 L602 1317 Q489 1311 450.5 1280 Q412 1249 412 1147 L412 163 Q412 129 423.5 109.5 Q435 90 474 85 Q497 82 522.5 81 Q548 80 618 80 Q891 80 987 125 Q1083 170 1173 355 L1225 355 L1125 0 L23 0 L23 37 Z " />
<glyph glyph-name="M" unicode="M" horiz-adv-x="1821" d="M23 37 Q150 50 186 94.5 Q222 139 222 301 L222 1133 Q222 1244 187 1277.5 Q152 1311 28 1317 L28 1355 L433 1355 L907 322 L1360 1355 L1768 1355 L1768 1317 Q1654 1309 1621 1275.5 Q1588 1242 1588 1133 L1588 222 Q1588 110 1621 78.5 Q1654 47 1768 37 L1768 0 L1194 0 L1194 37 Q1318 47 1348.5 81.5 Q1379 116 1379 246 L1379 1166 L855 0 L827 0 L312 1118 L312 301 Q312 133 361 82 Q393 49 504 37 L504 0 L23 0 L23 37 Z " />
<glyph glyph-name="N" unicode="N" horiz-adv-x="1479" d="M23 37 Q150 50 186 94.5 Q222 139 222 301 L222 1204 L194 1237 Q149 1290 117.5 1302.5 Q86 1315 23 1317 L23 1355 L374 1355 L1163 369 L1163 1054 Q1163 1223 1113 1274 Q1080 1307 967 1317 L967 1355 L1448 1355 L1448 1317 Q1331 1305 1292 1260 Q1253 1215 1253 1054 L1253 -24 L1218 -24 L312 1099 L312 301 Q312 133 361 82 Q393 49 504 37 L504 0 L23 0 L23 37 Z " />
<glyph glyph-name="O" unicode="O" horiz-adv-x="1479" d="M293 677 Q293 354 420 199.5 Q547 45 732 45 Q913 45 1041.5 195.5 Q1170 346 1170 677 Q1170 1012 1040 1161 Q910 1310 732 1310 Q548 1310 420.5 1155.5 Q293 1001 293 677 Z M61 677 Q61 1005 267 1203 Q456 1384 732 1384 Q1009 1384 1198 1202 Q1403 1005 1403 677 Q1403 344 1191 147 Q1001 -29 732 -29 Q444 -29 254 166 Q61 365 61 677 Z " />
<glyph glyph-name="P" unicode="P" horiz-adv-x="1139" d="M886 983 Q886 1171 724 1241 Q637 1279 504 1279 Q441 1279 426.5 1266.5 Q412 1254 412 1211 L412 677 Q467 672 484 671 Q501 670 517 670 Q658 670 739 710 Q886 783 886 983 Z M33 37 Q150 48 179 83.5 Q208 119 208 246 L208 1133 Q208 1240 175.5 1274 Q143 1308 33 1317 L33 1355 L573 1355 Q833 1355 971 1254 Q1109 1153 1109 988 Q1109 779 956 685 Q803 591 573 591 Q540 591 488.5 592.5 Q437 594 412 594 L412 222 Q412 106 447.5 76 Q483 46 606 37 L606 0 L33 0 L33 37 Z " />
<glyph glyph-name="Q" unicode="Q" horiz-adv-x="1479" d="M293 677 Q293 354 420 199.5 Q547 45 732 45 Q913 45 1041.5 195.5 Q1170 346 1170 677 Q1170 1012 1040 1161 Q910 1310 732 1310 Q548 1310 420.5 1155.5 Q293 1001 293 677 Z M61 677 Q61 1005 267 1203 Q456 1384 732 1384 Q1004 1384 1194 1205 Q1403 1008 1403 677 Q1403 415 1270 234 Q1126 39 862 -12 Q986 -191 1162 -266 Q1261 -308 1429 -328 L1429 -365 L1345 -365 Q1179 -365 1050.5 -338 Q922 -311 817 -256 Q712 -202 622.5 -106 Q533 -10 523 -5 L497 7 Q327 86 234 187 Q61 374 61 677 Z " />
<glyph glyph-name="R" unicode="R" horiz-adv-x="1366" d="M407 701 Q628 709 723 747 Q886 814 886 999 Q886 1177 740 1242 Q662 1277 533 1277 Q446 1277 426.5 1264.5 Q407 1252 407 1206 L407 701 Z M23 37 Q141 48 170 83 Q199 118 199 246 L199 1133 Q199 1241 166.5 1274.5 Q134 1308 23 1317 L23 1355 L590 1355 Q767 1355 885 1310 Q1109 1225 1109 997 Q1109 844 1009.5 762 Q910 680 739 654 L1161 135 Q1200 87 1239 65 Q1278 43 1339 37 L1339 0 L1009 0 L521 630 L407 625 L407 222 Q407 108 441.5 77.5 Q476 47 592 37 L592 0 L23 0 L23 37 Z " />
<glyph glyph-name="S" unicode="S" horiz-adv-x="1139" d="M132 412 Q184 274 254 192 Q376 49 557 49 Q655 49 726.5 111 Q798 173 798 284 Q798 384 726 458 Q679 505 528 599 L353 708 Q274 758 227 809 Q140 906 140 1023 Q140 1178 243 1281 Q346 1384 516 1384 Q586 1384 684.5 1349.5 Q783 1315 797 1315 Q835 1315 849.5 1333 Q864 1351 872 1384 L914 1384 L959 948 L910 948 Q860 1145 749.5 1223 Q639 1301 531 1301 Q447 1301 384.5 1251.5 Q322 1202 322 1114 Q322 1035 370 979 Q418 922 519 860 L699 749 Q868 645 937 558 Q1005 470 1005 350 Q1005 189 883.5 81 Q762 -27 573 -27 Q478 -27 374.5 9 Q271 45 256 45 Q220 45 207.5 23 Q195 1 191 -24 L146 -24 L85 412 L132 412 Z " />
<glyph glyph-name="T" unicode="T" horiz-adv-x="1251" d="M40 1355 L1197 1355 L1208 1007 L1159 1007 Q1123 1171 1067.5 1220.5 Q1012 1270 834 1270 L720 1270 L720 222 Q720 103 757 74.5 Q794 46 919 37 L919 0 L322 0 L322 37 Q452 47 484 80 Q516 113 516 246 L516 1270 L402 1270 Q232 1270 170.5 1221 Q109 1172 78 1007 L28 1007 L40 1355 Z " />
<glyph glyph-name="U" unicode="U" horiz-adv-x="1479" d="M609 1355 L609 1317 Q491 1309 456 1277.5 Q421 1246 421 1133 L421 478 Q421 317 465 227 Q547 63 776 63 Q1027 63 1113 231 Q1161 325 1161 521 L1161 1054 Q1161 1221 1121 1263.5 Q1081 1306 969 1317 L969 1355 L1443 1355 L1443 1317 Q1324 1304 1287.5 1259.5 Q1251 1215 1251 1054 L1251 521 Q1251 309 1186 190 Q1066 -29 730 -29 Q398 -29 278 187 Q213 303 213 493 L213 1133 Q213 1245 178.5 1276.5 Q144 1308 28 1317 L28 1355 L609 1355 Z " />
<glyph glyph-name="V" unicode="V" horiz-adv-x="1479" d="M578 1355 L578 1317 Q501 1316 473 1307 Q424 1291 424 1242 Q424 1217 441.5 1172 Q459 1127 507 1021 L827 308 L1118 1080 Q1137 1131 1147 1166 Q1157 1201 1157 1223 Q1157 1282 1106 1303 Q1076 1315 1007 1317 L1007 1355 L1426 1355 L1426 1320 Q1361 1311 1330 1285 Q1283 1246 1237 1128 L784 -24 L753 -24 L248 1102 Q184 1245 145.5 1280 Q107 1315 33 1320 L33 1355 L578 1355 Z " />
<glyph glyph-name="W" unicode="W" horiz-adv-x="1933" d="M511 1355 L511 1317 Q450 1315 424 1306 Q378 1289 378 1244 Q378 1224 383.5 1205 Q389 1186 400 1156 L696 386 L914 964 L817 1211 Q790 1279 736 1302 Q704 1316 639 1317 L639 1355 L1187 1355 L1187 1317 Q1110 1316 1081 1306 Q1035 1289 1035 1236 Q1035 1218 1039 1204.5 Q1043 1191 1059 1149 L1355 381 L1611 1076 Q1633 1135 1641 1181 Q1646 1207 1646 1223 Q1646 1280 1592 1302 Q1562 1315 1502 1317 L1502 1355 L1908 1355 L1908 1317 Q1853 1309 1824 1292 Q1772 1263 1746 1192 L1528 583 L1443 348 L1320 -24 L1289 -24 L1206 213 L962 843 L647 -24 L616 -24 L469 402 L293 881 Q184 1177 141.5 1244.5 Q99 1312 9 1317 L9 1355 L511 1355 Z " />
<glyph glyph-name="X" unicode="X" horiz-adv-x="1479" d="M21 37 Q104 46 147 81 Q190 116 317 272 L637 666 L410 995 Q263 1208 203.5 1260.5 Q144 1313 45 1317 L45 1355 L663 1355 L663 1317 Q574 1314 547 1305 Q506 1292 506 1248 Q506 1220 526 1181 Q536 1161 554 1135 L767 827 L1000 1109 Q1051 1170 1069 1207 Q1080 1229 1080 1247 Q1080 1292 1036 1307 Q1009 1316 938 1317 L938 1355 L1424 1355 L1424 1317 Q1342 1315 1297 1291 Q1226 1252 1121 1123 L820 753 L1213 189 Q1276 98 1318 73.5 Q1360 49 1441 37 L1441 0 L834 0 L834 40 Q921 42 955.5 55 Q990 68 990 105 Q990 137 944 211 Q898 285 689 592 L447 286 Q394 219 373 188 Q340 139 340 115 Q340 71 392 53 Q423 42 497 37 L497 0 L21 0 L21 37 Z " />
<glyph glyph-name="Y" unicode="Y" horiz-adv-x="1479" d="M618 1355 L618 1317 Q546 1319 510 1306 Q474 1293 474 1250 Q474 1237 480 1217.5 Q486 1198 507 1166 L810 711 L1104 1173 Q1122 1202 1127.5 1221 Q1133 1240 1133 1249 Q1133 1293 1086 1307 Q1058 1316 990 1317 L990 1355 L1438 1355 L1438 1317 Q1376 1314 1327 1280 Q1251 1227 1156 1083 L853 621 L853 222 Q853 103 891.5 73.5 Q930 44 1064 37 L1064 0 L438 0 L438 37 Q577 45 610.5 78.5 Q644 112 644 246 L644 602 L376 995 Q237 1198 181 1255.5 Q125 1313 45 1317 L45 1355 L618 1355 Z " />
<glyph glyph-name="Z" unicode="Z" horiz-adv-x="1251" d="M14 23 L912 1277 L440 1277 Q262 1277 187 1188 Q142 1135 116 1005 L63 1005 L104 1355 L1185 1355 L1185 1332 L296 78 L822 78 Q1001 78 1083 163 Q1134 217 1175 360 L1223 360 L1173 0 L14 0 L14 23 Z " />
<glyph glyph-name="bracketleft" unicode="&#x5b;" horiz-adv-x="682" d="M180 1355 L611 1355 L611 1306 L429 1306 Q369 1306 348 1268 Q336 1248 336 1213 L336 -164 Q336 -210 349 -232 Q371 -271 436 -271 L611 -271 L611 -323 L180 -323 L180 1355 Z " />
<glyph glyph-name="backslash" unicode="&#x5c;" horiz-adv-x="569" d="M73 1384 L632 0 L497 0 L-64 1384 L73 1384 Z " />
<glyph glyph-name="bracketright" unicode="&#x5d;" horiz-adv-x="682" d="M500 -323 L68 -323 L68 -273 L251 -273 Q310 -273 332 -236 Q343 -216 343 -181 L343 1197 Q343 1246 323.5 1274.5 Q304 1303 244 1303 L68 1303 L68 1355 L500 1355 L500 -323 Z " />
<glyph glyph-name="asciicircum" unicode="&#x5e;" horiz-adv-x="961" d="M507 1384 L893 519 L756 519 L481 1166 L203 519 L66 519 L452 1384 L507 1384 Z " />
<glyph glyph-name="underscore" unicode="&#x5f;" horiz-adv-x="1024" d="M0 -256 L0 -155 L1023 -155 L1023 -256 L0 -256 Z " />
<glyph glyph-name="grave" unicode="&#x60;" horiz-adv-x="682" d="M440 1038 L357 1038 L42 1237 Q9 1258 -5.5 1278 Q-20 1298 -20 1324 Q-20 1353 1 1371.5 Q22 1390 49 1390 Q75 1390 97 1375.5 Q119 1361 139 1341 L440 1038 Z " />
<glyph glyph-name="a" unicode="a" horiz-adv-x="909" d="M587 554 Q472 516 397 470 Q253 381 253 268 Q253 177 313 134 Q352 106 400 106 Q466 106 526.5 143 Q587 180 587 237 L587 554 Z M75 199 Q75 344 220 441 Q312 501 587 604 L587 689 Q587 791 567 831 Q533 898 426 898 Q375 898 329 872 Q283 845 283 798 Q283 786 288 757.5 Q293 729 293 721 Q293 665 256 643 Q235 630 206 630 Q161 630 137 659.5 Q113 689 113 725 Q113 795 199.5 871.5 Q286 948 453 948 Q647 948 716 822 Q753 753 753 621 L753 220 Q753 162 761 140 Q774 101 815 101 Q838 101 853 108 Q868 115 905 142 L905 90 Q873 51 836 26 Q780 -12 722 -12 Q654 -12 623.5 32 Q593 76 590 137 Q514 71 460 39 Q369 -15 287 -15 Q201 -15 138 45.5 Q75 106 75 199 Z " />
<glyph glyph-name="b" unicode="b" horiz-adv-x="1024" d="M7 1272 L7 1306 Q121 1332 212 1364 Q303 1396 310 1396 Q312 1390 312 1384 L312 775 Q338 823 390 866 Q482 941 602 941 Q749 941 853 817 Q957 693 957 495 Q957 283 822 132 Q687 -19 467 -19 Q356 -19 249 25 Q142 69 142 113 L142 1170 Q142 1228 126 1252.5 Q110 1277 52 1277 L7 1272 Z M308 146 Q317 94 386 71.5 Q455 49 507 49 Q647 49 714.5 154 Q782 259 782 408 Q782 557 719 683.5 Q656 810 515 810 Q444 810 376 766.5 Q308 723 308 656 L308 146 Z " />
<glyph glyph-name="c" unicode="c" horiz-adv-x="909" d="M509 943 Q634 943 724.5 878.5 Q815 814 815 737 Q815 704 792 675.5 Q769 647 721 647 Q686 647 659.5 671 Q633 695 621 741 L609 789 Q596 842 564 864 Q531 885 477 885 Q363 885 284.5 785.5 Q206 686 206 521 Q206 370 292.5 250 Q379 130 526 130 Q630 130 711 198 Q757 237 815 322 L843 305 Q786 185 723 115 Q602 -19 443 -19 Q287 -19 167 104 Q47 227 47 438 Q47 645 178 794 Q309 943 509 943 Z " />
<glyph glyph-name="d" unicode="d" horiz-adv-x="1024" d="M485 945 Q558 945 619 913 Q659 892 696 855 L696 1173 Q696 1234 682.5 1257 Q669 1280 618 1280 Q606 1280 597 1279 Q588 1278 557 1275 L557 1308 L639 1329 Q684 1341 729 1354 Q774 1367 808 1379 Q824 1384 861 1398 L867 1396 L865 1291 Q864 1234 863 1173.5 Q862 1113 862 1054 L860 237 Q860 172 876 146 Q892 120 961 120 Q972 120 983 120.5 Q994 121 1005 123 L1005 90 Q999 88 860 40 L703 -19 L696 -10 L696 113 Q640 52 599 26 Q526 -19 430 -19 Q260 -19 154.5 112.5 Q49 244 49 417 Q49 634 175.5 789.5 Q302 945 485 945 Z M522 89 Q600 89 648 135 Q696 181 696 222 L696 651 Q696 781 626.5 834.5 Q557 888 491 888 Q365 888 295 776.5 Q225 665 225 502 Q225 341 299.5 215 Q374 89 522 89 Z " />
<glyph glyph-name="e" unicode="e" horiz-adv-x="909" d="M469 938 Q610 938 716 840.5 Q822 743 822 564 L187 564 Q197 332 292 226 Q387 120 517 120 Q622 120 694 175 Q766 230 827 331 L862 319 Q821 192 708.5 84 Q596 -24 433 -24 Q245 -24 142.5 118 Q40 260 40 445 Q40 646 159 792 Q278 938 469 938 Z M411 865 Q297 865 237 764 Q205 710 191 628 L613 628 Q602 728 575 777 Q526 865 411 865 Z " />
<glyph glyph-name="f" unicode="f" horiz-adv-x="682" d="M40 28 Q146 33 179.5 67.5 Q213 102 213 213 L213 855 L42 855 L42 922 L213 922 Q213 1080 256 1189 Q338 1398 557 1398 Q645 1398 714.5 1363 Q784 1328 784 1269 Q784 1236 760 1210 Q736 1184 702 1184 Q673 1184 652 1201.5 Q631 1219 602 1263 L585 1289 Q571 1310 552 1324.5 Q533 1339 499 1339 Q423 1339 396 1264 Q381 1224 381 1159 L381 922 L632 922 L632 855 L383 855 L383 213 Q383 100 413.5 68.5 Q444 37 573 28 L573 0 L40 0 L40 28 Z " />
<glyph glyph-name="g" unicode="g" horiz-adv-x="1024" d="M201 -185 Q201 -269 295.5 -301 Q390 -333 512 -333 Q678 -333 782 -275.5 Q886 -218 886 -134 Q886 -67 802 -45 Q750 -32 605 -30 Q568 -29 527 -27.5 Q486 -26 452 -24 Q430 -23 381 -16 Q332 -9 308 -4 Q296 -4 249 -67 Q201 -131 201 -185 Z M331 336 Q240 366 189.5 443 Q139 520 139 616 Q139 733 232 838 Q325 943 495 943 Q568 943 656 908.5 Q744 874 825 874 Q846 874 888.5 875.5 Q931 877 950 877 L962 877 L962 796 L789 796 Q807 754 817 723 Q834 665 834 613 Q834 499 739.5 403.5 Q645 308 485 308 Q460 308 395 317 Q366 317 318.5 268 Q271 219 271 188 Q271 156 341 141 Q387 131 443 131 Q700 131 792 102 Q943 55 943 -100 Q943 -258 766.5 -352 Q590 -446 410 -446 Q246 -446 150 -379.5 Q54 -313 54 -240 Q54 -204 79.5 -169.5 Q105 -135 180 -67 L246 -8 L258 4 Q212 22 189 39 Q149 70 149 110 Q149 147 183.5 191.5 Q218 236 331 336 Z M521 356 Q576 356 613 386 Q673 434 673 553 Q673 648 624.5 767 Q576 886 463 886 Q365 886 328 793 Q309 744 309 672 Q309 550 368 453 Q427 356 521 356 Z " />
<glyph glyph-name="h" unicode="h" horiz-adv-x="1024" d="M18 28 Q100 39 125.5 68.5 Q151 98 151 208 L151 1168 Q151 1224 136.5 1250.5 Q122 1277 66 1277 Q55 1277 44.5 1275.5 Q34 1274 21 1272 L21 1308 Q65 1321 129.5 1339.5 Q194 1358 219 1366 L315 1396 L317 1389 L317 775 Q380 847 429 881 Q517 941 619 941 Q781 941 840 805 Q872 733 872 616 L872 208 Q872 102 896.5 70 Q921 38 997 28 L997 0 L564 0 L564 28 Q651 40 676 69 Q701 98 701 208 L701 613 Q701 710 668.5 770 Q636 830 546 830 Q468 830 395 774 Q322 718 322 701 L322 208 Q322 96 348 68 Q374 40 459 28 L459 0 L18 0 L18 28 Z " />
<glyph glyph-name="i" unicode="i" horiz-adv-x="569" d="M168 1291 Q168 1334 198 1365 Q228 1396 272 1396 Q315 1396 345.5 1365.5 Q376 1335 376 1291 Q376 1248 345.5 1217.5 Q315 1187 272 1187 Q228 1187 198 1217.5 Q168 1248 168 1291 Z M40 28 Q147 38 175 64.5 Q203 91 203 208 L203 685 Q203 750 194 775 Q179 816 131 816 Q120 816 109.5 814 Q99 812 49 798 L49 829 L92 843 Q267 900 336 929 Q364 941 372 941 Q374 934 374 926 L374 208 Q374 94 401.5 65 Q429 36 526 28 L526 0 L40 0 L40 28 Z " />
<glyph glyph-name="j" unicode="j" horiz-adv-x="569" d="M225 1291 Q225 1334 255 1365 Q285 1396 329 1396 Q372 1396 402.5 1365 Q433 1334 433 1291 Q433 1248 402.5 1217.5 Q372 1187 329 1187 Q285 1187 255 1217.5 Q225 1248 225 1291 Z M-36 -254 Q16 -254 65.5 -317 Q115 -380 153 -380 Q216 -380 238 -307 Q251 -263 252 -160 Q253 -123 253 22 L253 680 Q253 748 240 780.5 Q227 813 180 813 Q166 813 143.5 808 Q121 803 97 796 L97 827 L182 855 Q213 865 262.5 882.5 Q312 900 357 917 L417 938 Q421 932 421 924 L421 0 Q421 -173 377 -270 Q297 -448 71 -448 Q-3 -448 -60.5 -418 Q-118 -388 -118 -338 Q-118 -305 -95 -279.5 Q-72 -254 -36 -254 Z " />
<glyph glyph-name="k" unicode="k" horiz-adv-x="1024" d="M4 28 Q100 35 130.5 60 Q161 85 161 168 L161 1170 Q161 1241 137 1260 Q113 1279 68 1279 Q49 1279 35 1278 Q21 1277 4 1275 L4 1303 L94 1327 Q197 1354 269 1378 Q313 1393 320 1393 Q326 1393 327.5 1390.5 Q329 1388 329 1379 L329 538 L606 782 Q636 809 646.5 825 Q657 841 657 853 Q657 876 634.5 882 Q612 888 554 891 L554 919 L971 919 L971 891 Q859 884 791 846.5 Q723 809 530 632 L471 578 L656 338 Q798 154 870 93.5 Q942 33 1023 26 L1023 0 L578 0 L578 28 L613 30 Q630 31 644 37 Q658 43 658 57 Q658 68 653 77.5 Q648 87 639 99 L329 507 L329 137 Q329 68 380 45 Q410 31 483 30 L483 0 L4 0 L4 28 Z " />
<glyph glyph-name="l" unicode="l" horiz-adv-x="569" d="M42 28 Q135 37 168 65.5 Q201 94 201 177 L201 1154 Q201 1220 190 1245 Q170 1287 109 1287 Q95 1287 78.5 1284 Q62 1281 37 1275 L37 1308 Q172 1344 362 1404 Q369 1404 370.5 1398 Q372 1392 372 1372 L372 173 Q372 86 402 60.5 Q432 35 526 28 L526 0 L42 0 L42 28 Z " />
<glyph glyph-name="m" unicode="m" horiz-adv-x="1593" d="M33 26 Q111 33 137 52 Q177 81 177 168 L177 685 Q177 759 157.5 782 Q138 805 93 805 Q72 805 61.5 803 Q51 801 37 796 L37 831 L109 855 Q148 868 237 902 Q326 936 331 936 Q336 936 337 931 Q338 926 338 912 L338 777 Q437 867 509 901.5 Q581 936 657 936 Q760 936 821 866 Q853 828 874 763 Q948 838 1003 874 Q1098 936 1197 936 Q1358 936 1412 805 Q1443 731 1443 571 L1443 156 Q1443 85 1474.5 59.5 Q1506 34 1588 26 L1588 0 L1137 0 L1137 28 Q1224 36 1251.5 63 Q1279 90 1279 173 L1279 604 Q1279 701 1258 747 Q1221 829 1113 829 Q1048 829 984 786 Q947 761 893 706 L893 194 Q893 113 921.5 71 Q950 29 1042 26 L1042 0 L583 0 L583 26 Q678 38 704 72 Q730 106 730 239 L730 519 Q730 673 710 731 Q677 829 570 829 Q509 829 450 795.5 Q391 762 346 708 L346 161 Q346 85 372.5 56 Q399 27 488 26 L488 0 L33 0 L33 26 Z " />
<glyph glyph-name="n" unicode="n" horiz-adv-x="1024" d="M37 28 Q108 37 136.5 63.5 Q165 90 165 182 L165 689 Q165 753 153 779 Q134 817 75 817 Q66 817 56.5 816 Q47 815 33 813 L33 848 Q74 860 227 910 L321 941 Q328 941 329.5 936 Q331 931 331 922 L331 775 Q423 861 475 893 Q553 942 637 942 Q705 942 761 903 Q869 827 869 632 L869 165 Q869 93 898 61 Q927 29 995 28 L995 0 L568 0 L568 28 Q641 38 670 68.5 Q699 99 699 201 L699 628 Q699 714 667 770.5 Q635 827 549 827 Q490 827 429 787 Q395 764 341 711 L341 151 Q341 79 373 54.5 Q405 30 474 28 L474 0 L37 0 L37 28 Z " />
<glyph glyph-name="o" unicode="o" horiz-adv-x="1024" d="M52 464 Q52 663 178.5 800.5 Q305 938 504 938 Q702 938 832 808 Q962 678 962 462 Q962 263 836 116 Q710 -31 510 -31 Q318 -31 185 110 Q52 251 52 464 Z M476 878 Q397 878 339 826 Q239 735 239 512 Q239 334 319.5 180 Q400 26 543 26 Q655 26 715.5 129 Q776 232 776 399 Q776 572 699 725 Q622 878 476 878 Z " />
<glyph glyph-name="p" unicode="p" horiz-adv-x="1024" d="M327 184 Q353 116 404.5 82.5 Q456 49 526 49 Q634 49 710.5 156.5 Q787 264 787 456 Q787 640 707.5 731 Q628 822 523 822 Q449 822 388 776.5 Q327 731 327 687 L327 184 Z M9 -413 Q103 -407 128.5 -373 Q154 -339 154 -266 L154 694 Q154 770 135.5 791.5 Q117 813 66 813 Q55 813 45.5 812 Q36 811 18 808 L18 841 L113 872 Q118 873 314 941 Q319 941 321.5 936.5 Q324 932 324 926 L324 791 Q390 857 440 889 Q530 945 625 945 Q763 945 862.5 827.5 Q962 710 962 506 Q962 306 842.5 143 Q723 -20 542 -20 Q486 -20 445 -6 Q381 15 327 71 L327 -256 Q327 -357 360 -380 Q393 -403 504 -411 L504 -446 L9 -446 L9 -413 Z " />
<glyph glyph-name="q" unicode="q" horiz-adv-x="1024" d="M488 107 Q512 107 552.5 115 Q593 123 628 142 Q676 168 686 188 Q696 208 696 263 L696 685 Q696 764 672 808 Q627 888 502 888 Q360 888 292.5 770.5 Q225 653 225 502 Q225 325 293.5 216 Q362 107 488 107 Z M511 943 Q579 943 631 924 Q666 912 737 872 L848 938 Q857 942 862 943 Q867 939 868 937 Q869 935 869 924 L869 -292 Q869 -345 888 -371 Q917 -410 1000 -418 L1000 -446 L516 -446 L516 -413 Q605 -412 648.5 -383 Q692 -354 692 -254 L692 127 Q622 58 571 28 Q487 -21 382 -21 Q257 -21 153 94.5 Q49 210 49 434 Q49 640 177.5 791.5 Q306 943 511 943 Z " />
<glyph glyph-name="r" unicode="r" horiz-adv-x="682" d="M9 33 Q101 41 131 65.5 Q161 90 161 170 L161 621 Q161 720 142.5 762.5 Q124 805 75 805 Q65 805 48.5 802.5 Q32 800 14 796 L14 829 Q71 849 131 870 Q191 891 214 900 Q264 919 317 943 Q324 943 325.5 938 Q327 933 327 917 L327 753 Q391 842 450.5 892 Q510 942 574 942 Q625 942 657 911.5 Q689 881 689 835 Q689 794 664.5 766 Q640 738 603 738 Q565 738 526.5 773 Q488 808 466 808 Q431 808 380 751.5 Q329 695 329 635 L329 184 Q329 98 369 64.5 Q409 31 502 33 L502 0 L9 0 L9 33 Z " />
<glyph glyph-name="s" unicode="s" horiz-adv-x="797" d="M106 315 L139 315 Q162 201 201 140 Q271 28 406 28 Q481 28 524.5 69.5 Q568 111 568 177 Q568 219 543 258 Q518 297 455 334 L343 398 Q220 464 162 531 Q104 598 104 689 Q104 801 184 873 Q264 945 385 945 Q438 945 501.5 925 Q565 905 573 905 Q591 905 599 910 Q607 915 613 926 L637 926 L644 647 L613 647 Q593 744 559 798 Q497 898 380 898 Q310 898 270 855 Q230 812 230 754 Q230 662 368 590 L500 519 Q713 403 713 249 Q713 131 624.5 56 Q536 -19 393 -19 Q333 -19 257 1 Q181 21 167 21 Q155 21 146 12.5 Q137 4 132 -8 L106 -8 L106 315 Z " />
<glyph glyph-name="t" unicode="t" horiz-adv-x="569" d="M521 922 L521 850 L317 850 L315 274 Q315 198 328 159 Q352 90 422 90 Q458 90 484.5 107 Q511 124 545 161 L571 139 L549 109 Q497 39 439 10 Q381 -19 327 -19 Q209 -19 167 86 Q144 143 144 244 L144 850 L35 850 Q30 853 27.5 856 Q25 859 25 864 Q25 874 29.5 879.5 Q34 885 58 905 Q127 962 157.5 997.5 Q188 1033 301 1185 Q314 1185 316.5 1183 Q319 1181 319 1168 L319 922 L521 922 Z " />
<glyph glyph-name="u" unicode="u" horiz-adv-x="1024" d="M317 926 L317 286 Q317 218 336 177 Q373 101 472 101 Q540 101 605 146 Q642 171 680 215 L680 763 Q680 840 650 864 Q620 888 530 893 L530 926 L853 926 L853 222 Q853 154 877.5 128.5 Q902 103 981 106 L981 78 Q926 63 900 55.5 Q874 48 813 28 Q787 19 699 -15 Q694 -15 693 -10.5 Q692 -6 692 0 L692 161 Q624 80 568 41 Q483 -19 388 -19 Q301 -19 224 43 Q146 104 146 248 L146 767 Q146 847 112 874 Q90 891 18 898 L18 926 L317 926 Z " />
<glyph glyph-name="v" unicode="v" horiz-adv-x="1024" d="M440 929 L440 898 Q388 892 366.5 882 Q345 872 345 838 Q345 822 349.5 807.5 Q354 793 365 765 L573 248 L753 706 Q766 739 777.5 775 Q789 811 789 830 Q789 869 752 886 Q730 895 692 898 L692 929 L976 929 L976 898 Q927 894 905.5 865.5 Q884 837 843 734 L554 14 Q546 -5 541 -12 Q536 -19 527 -19 Q517 -19 510 -7.5 Q503 4 495 21 L189 753 Q152 842 110 874 Q85 892 37 898 L37 929 L440 929 Z " />
<glyph glyph-name="w" unicode="w" horiz-adv-x="1479" d="M952 898 Q892 891 863 878 Q834 865 834 826 Q834 805 840.5 782.5 Q847 760 858 730 L1040 255 L1218 689 Q1230 717 1244 762.5 Q1258 808 1258 831 Q1258 868 1235 881 Q1212 894 1168 900 L1168 929 L1422 929 L1422 900 Q1397 895 1381 876 Q1365 857 1336 786 L1016 -3 Q1012 -12 1009 -16 Q1006 -20 1000 -20 Q988 -14 986 -10 L760 549 L497 -8 Q495 -13 491.5 -16.5 Q488 -20 483 -20 Q471 -14 469 -10 L170 727 Q121 848 105 869.5 Q89 891 42 898 L42 929 L412 929 L412 898 Q366 894 341.5 881.5 Q317 869 317 828 Q317 799 358 686 Q382 621 419 528 L533 244 L713 630 L715 642 Q715 662 693.5 716.5 Q672 771 652 814 Q632 859 606.5 876.5 Q581 894 535 898 L535 929 L952 929 L952 898 Z " />
<glyph glyph-name="x" unicode="x" horiz-adv-x="1024" d="M474 919 L474 891 Q436 890 409.5 880.5 Q383 871 383 841 Q383 822 436 734 Q464 688 507 621 Q566 702 595 748 Q644 822 644 844 Q644 870 623 879 Q602 888 564 891 L564 919 L886 919 L886 891 Q835 887 791 863.5 Q747 840 720 801 L549 554 L813 154 Q864 76 899.5 53 Q935 30 981 28 L981 0 L568 0 L568 28 L597 30 Q620 32 635.5 44 Q651 56 651 74 Q651 93 613 158 Q595 190 559 245 Q542 272 508.5 320 Q475 368 452 402 L291 151 Q262 106 255 91 Q248 76 248 66 Q248 47 263.5 41 Q279 35 331 28 L331 0 L35 0 L35 28 Q89 39 115 56 Q141 73 184 135 L417 474 L225 765 Q167 852 145 868 Q123 884 49 891 L49 919 L474 919 Z " />
<glyph glyph-name="y" unicode="y" horiz-adv-x="1024" d="M28 919 L450 919 L450 888 Q400 887 376 879 Q330 866 330 828 Q330 814 335 799.5 Q340 785 353 756 L587 237 L775 760 Q778 768 784.5 796 Q791 824 791 834 Q791 860 773 872 Q755 884 727 886 L696 888 L696 919 L971 919 L971 888 Q930 883 909.5 860 Q889 837 874 796 L559 -38 Q477 -254 402 -351 Q327 -448 212 -448 Q156 -448 107 -420 Q58 -392 58 -331 Q58 -291 87.5 -265.5 Q117 -240 162 -240 Q188 -240 239.5 -259 Q291 -278 313 -278 Q369 -278 431 -148 Q493 -18 493 26 Q493 35 490 48 Q487 61 483 71 L163 763 Q129 837 103.5 860.5 Q78 884 28 891 L28 919 Z " />
<glyph glyph-name="z" unicode="z" horiz-adv-x="909" d="M829 919 L829 895 L274 63 L557 63 Q704 63 743 100.5 Q782 138 820 284 L855 277 L827 0 L52 0 L52 23 L599 858 L331 858 Q223 858 190 821 Q157 784 144 677 L109 677 L113 919 L829 919 Z " />
<glyph glyph-name="braceleft" unicode="&#x7b;" horiz-adv-x="983" d="M127 547 Q248 560 312 601 Q410 665 410 805 L412 1080 Q412 1265 557 1332 Q641 1371 855 1384 L855 1339 Q747 1327 657.5 1268.5 Q568 1210 568 1076 L568 831 Q568 673 492 614 Q416 555 222 516 L187 509 L187 504 Q392 488 479 411 Q566 334 568 208 L571 -74 Q572 -198 672 -260 Q729 -295 855 -320 L855 -365 Q654 -365 533 -296 Q412 -227 412 -64 L410 244 Q410 360 306 419 Q247 452 127 474 L127 547 Z " />
<glyph glyph-name="bar" unicode="&#x7c;" horiz-adv-x="410" d="M274 1398 L274 0 L135 0 L135 1398 L274 1398 Z " />
<glyph glyph-name="braceright" unicode="&#x7d;" horiz-adv-x="983" d="M855 474 Q732 451 674 418 Q573 359 573 244 L571 -64 Q571 -226 451 -295.5 Q331 -365 127 -365 L127 -320 Q253 -295 310 -260 Q412 -198 412 -74 L414 208 Q414 344 511 416 Q608 488 796 504 L796 509 Q579 552 515 595 Q414 663 414 831 L414 1076 Q414 1219 295 1288 Q228 1327 127 1339 L127 1384 Q384 1384 477.5 1301.5 Q571 1219 571 1080 L573 805 Q573 660 678 597 Q738 560 855 547 L855 474 Z " />
<glyph glyph-name="asciitilde" unicode="&#x7e;" horiz-adv-x="1108" d="M300 666 Q370 666 573 584 Q776 502 832 502 Q906 502 957 571 Q986 610 1026 711 L1078 711 Q1028 513 958.5 440 Q889 367 796 367 Q710 367 512.5 451 Q315 535 269 535 Q187 535 130 448 Q100 403 75 327 L28 327 Q62 470 103 540 Q176 666 300 666 Z " />
<glyph glyph-name="Adieresis" unicode="&#xc4;" horiz-adv-x="1479" d="M914 526 L677 1090 L443 526 L914 526 Z M30 0 L30 37 Q109 46 148.5 97 Q188 148 284 374 L711 1379 L751 1379 L1261 218 Q1312 102 1342.5 74.5 Q1373 47 1445 37 L1445 0 L924 0 L924 37 Q1014 45 1040 56.5 Q1066 68 1066 113 Q1066 128 1056 166 Q1046 204 1028 246 L943 443 L407 443 Q327 242 311.5 197.5 Q296 153 296 127 Q296 75 338 55 Q364 43 436 37 L436 0 L30 0 Z M1037 1614 Q1037 1572 1007.5 1542 Q978 1512 935 1512 Q893 1512 863 1542 Q833 1572 833 1614 Q833 1656 863 1686 Q893 1716 935 1716 Q978 1716 1007.5 1686 Q1037 1656 1037 1614 Z M426 1614 Q426 1656 455.5 1686 Q485 1716 527 1716 Q570 1716 599.5 1686 Q629 1656 629 1614 Q629 1572 599.5 1542 Q570 1512 527 1512 Q485 1512 455.5 1542 Q426 1572 426 1614 Z " />
<glyph glyph-name="Aring" unicode="&#xc5;" horiz-adv-x="1479" d="M914 526 L677 1090 L443 526 L914 526 Z M30 0 L30 37 Q109 46 148.5 97 Q188 148 284 374 L711 1379 L751 1379 L1261 218 Q1312 102 1342.5 74.5 Q1373 47 1445 37 L1445 0 L924 0 L924 37 Q1014 45 1040 56.5 Q1066 68 1066 113 Q1066 128 1056 166 Q1046 204 1028 246 L943 443 L407 443 Q327 242 311.5 197.5 Q296 153 296 127 Q296 75 338 55 Q364 43 436 37 L436 0 L30 0 Z M605 1626 Q605 1573 642 1536.5 Q679 1500 731 1500 Q783 1500 819.5 1537 Q856 1574 856 1626 Q856 1678 819.5 1714.5 Q783 1751 731 1751 Q679 1751 642 1714.5 Q605 1678 605 1626 Z M522 1626 Q522 1712 583.5 1773 Q645 1834 731 1834 Q817 1834 878 1773 Q939 1712 939 1626 Q939 1539 878 1478 Q817 1417 731 1417 Q644 1417 583 1478 Q522 1539 522 1626 Z " />
<glyph glyph-name="Ccedilla" unicode="&#xc7;" horiz-adv-x="1366" d="M758 1379 Q869 1379 986 1346 Q1103 1313 1117 1313 Q1146 1313 1172 1329 Q1198 1345 1208 1379 L1251 1379 L1270 919 L1223 919 Q1182 1056 1116 1140 Q990 1298 777 1298 Q562 1298 425.5 1128 Q289 958 289 660 Q289 386 432.5 222.5 Q576 59 796 59 Q955 59 1089 135 Q1166 178 1258 265 L1296 227 Q1228 141 1127 76 Q955 -34 754 -34 Q715 -34 684 -32 L646 -136 Q665 -132 678.5 -130 Q692 -128 708 -128 Q784 -128 830 -168 Q876 -208 876 -271 Q876 -344 813 -394 Q750 -444 618 -444 Q593 -444 560 -439 Q502 -431 450 -411 L478 -347 L509 -356 Q521 -360 548.5 -365 Q576 -370 604 -370 Q648 -370 674 -359 Q723 -340 723 -285 Q723 -245 698 -225.5 Q673 -206 634 -206 Q604 -206 589.5 -208.5 Q575 -211 556 -216 L542 -204 L616 -25 Q355 3 203 187.5 Q51 372 51 664 Q51 963 240 1166 Q439 1379 758 1379 Z " />
<glyph glyph-name="Eacute" unicode="&#xc9;" horiz-adv-x="1251" d="M23 37 Q136 49 169.5 77.5 Q203 106 203 222 L203 1133 Q203 1242 170 1275.5 Q137 1309 23 1317 L23 1355 L1111 1355 L1118 1061 L1066 1061 Q1040 1197 988 1237 Q936 1277 756 1277 L478 1277 Q433 1277 422.5 1262.5 Q412 1248 412 1208 L412 751 L727 751 Q858 751 894 790 Q930 829 952 948 L1000 948 L1000 474 L952 474 Q929 593 893 631.5 Q857 670 727 670 L412 670 L412 163 Q412 102 450.5 91 Q489 80 681 80 Q889 80 988 125.5 Q1087 171 1166 346 L1223 346 L1130 0 L23 0 L23 37 Z M943 1741 Q943 1712 927 1693 Q911 1674 880 1654 L565 1455 L482 1455 L783 1758 Q799 1774 823 1791 Q847 1808 874 1808 Q900 1808 921.5 1789.5 Q943 1771 943 1741 Z " />
<glyph glyph-name="Ntilde" unicode="&#xd1;" horiz-adv-x="1479" d="M23 37 Q150 50 186 94.5 Q222 139 222 301 L222 1204 L194 1237 Q149 1290 117.5 1302.5 Q86 1315 23 1317 L23 1355 L374 1355 L1163 369 L1163 1054 Q1163 1223 1113 1274 Q1080 1307 967 1317 L967 1355 L1448 1355 L1448 1317 Q1331 1305 1292 1260 Q1253 1215 1253 1054 L1253 -24 L1218 -24 L312 1099 L312 301 Q312 133 361 82 Q393 49 504 37 L504 0 L23 0 L23 37 Z M805 1651 Q840 1634 861.5 1627.5 Q883 1621 903 1621 Q954 1621 987 1659 Q1009 1683 1021 1723 L1080 1723 Q1075 1669 1041 1611 Q979 1507 861 1507 Q819 1507 782.5 1519 Q746 1531 701 1554 L654 1578 Q637 1586 615.5 1592.5 Q594 1599 576 1599 Q525 1599 495 1565 Q479 1546 464 1507 L402 1507 Q428 1614 488 1663.5 Q548 1713 619 1713 Q652 1713 684.5 1703.5 Q717 1694 756 1675 L805 1651 Z " />
<glyph glyph-name="Odieresis" unicode="&#xd6;" horiz-adv-x="1479" d="M293 677 Q293 354 420 199.5 Q547 45 732 45 Q913 45 1041.5 195.5 Q1170 346 1170 677 Q1170 1012 1040 1161 Q910 1310 732 1310 Q548 1310 420.5 1155.5 Q293 1001 293 677 Z M61 677 Q61 1005 267 1203 Q456 1384 732 1384 Q1009 1384 1198 1202 Q1403 1005 1403 677 Q1403 344 1191 147 Q1001 -29 732 -29 Q444 -29 254 166 Q61 365 61 677 Z M1038 1619 Q1038 1577 1008.5 1547 Q979 1517 936 1517 Q894 1517 864 1547 Q834 1577 834 1619 Q834 1661 864 1691 Q894 1721 936 1721 Q979 1721 1008.5 1691 Q1038 1661 1038 1619 Z M427 1619 Q427 1661 456.5 1691 Q486 1721 528 1721 Q571 1721 600.5 1691 Q630 1661 630 1619 Q630 1577 600.5 1547 Q571 1517 528 1517 Q486 1517 456.5 1547 Q427 1577 427 1619 Z " />
<glyph glyph-name="Udieresis" unicode="&#xdc;" horiz-adv-x="1479" d="M609 1355 L609 1317 Q491 1309 456 1277.5 Q421 1246 421 1133 L421 478 Q421 317 465 227 Q547 63 776 63 Q1027 63 1113 231 Q1161 325 1161 521 L1161 1054 Q1161 1221 1121 1263.5 Q1081 1306 969 1317 L969 1355 L1443 1355 L1443 1317 Q1324 1304 1287.5 1259.5 Q1251 1215 1251 1054 L1251 521 Q1251 309 1186 190 Q1066 -29 730 -29 Q398 -29 278 187 Q213 303 213 493 L213 1133 Q213 1245 178.5 1276.5 Q144 1308 28 1317 L28 1355 L609 1355 Z M1047 1590 Q1047 1548 1017.5 1518 Q988 1488 945 1488 Q903 1488 873 1518 Q843 1548 843 1590 Q843 1632 873 1662 Q903 1692 945 1692 Q988 1692 1017.5 1662 Q1047 1632 1047 1590 Z M436 1590 Q436 1632 465.5 1662 Q495 1692 537 1692 Q580 1692 609.5 1662 Q639 1632 639 1590 Q639 1548 609.5 1518 Q580 1488 537 1488 Q495 1488 465.5 1518 Q436 1548 436 1590 Z " />
<glyph glyph-name="aacute" unicode="&#xe1;" horiz-adv-x="909" d="M587 554 Q472 516 397 470 Q253 381 253 268 Q253 177 313 134 Q352 106 400 106 Q466 106 526.5 143 Q587 180 587 237 L587 554 Z M75 199 Q75 344 220 441 Q312 501 587 604 L587 689 Q587 791 567 831 Q533 898 426 898 Q375 898 329 872 Q283 845 283 798 Q283 786 288 757.5 Q293 729 293 721 Q293 665 256 643 Q235 630 206 630 Q161 630 137 659.5 Q113 689 113 725 Q113 795 199.5 871.5 Q286 948 453 948 Q647 948 716 822 Q753 753 753 621 L753 220 Q753 162 761 140 Q774 101 815 101 Q838 101 853 108 Q868 115 905 142 L905 90 Q873 51 836 26 Q780 -12 722 -12 Q654 -12 623.5 32 Q593 76 590 137 Q514 71 460 39 Q369 -15 287 -15 Q201 -15 138 45.5 Q75 106 75 199 Z M772 1334 Q772 1305 756 1286 Q740 1267 709 1247 L394 1048 L311 1048 L612 1351 Q628 1367 652 1384 Q676 1401 703 1401 Q729 1401 750.5 1382.5 Q772 1364 772 1334 Z " />
<glyph glyph-name="agrave" unicode="&#xe0;" horiz-adv-x="909" d="M587 554 Q472 516 397 470 Q253 381 253 268 Q253 177 313 134 Q352 106 400 106 Q466 106 526.5 143 Q587 180 587 237 L587 554 Z M75 199 Q75 344 220 441 Q312 501 587 604 L587 689 Q587 791 567 831 Q533 898 426 898 Q375 898 329 872 Q283 845 283 798 Q283 786 288 757.5 Q293 729 293 721 Q293 665 256 643 Q235 630 206 630 Q161 630 137 659.5 Q113 689 113 725 Q113 795 199.5 871.5 Q286 948 453 948 Q647 948 716 822 Q753 753 753 621 L753 220 Q753 162 761 140 Q774 101 815 101 Q838 101 853 108 Q868 115 905 142 L905 90 Q873 51 836 26 Q780 -12 722 -12 Q654 -12 623.5 32 Q593 76 590 137 Q514 71 460 39 Q369 -15 287 -15 Q201 -15 138 45.5 Q75 106 75 199 Z M618 1048 L535 1048 L220 1247 Q187 1268 172.5 1288 Q158 1308 158 1334 Q158 1363 179 1381.5 Q200 1400 227 1400 Q253 1400 275 1385.5 Q297 1371 317 1351 L618 1048 Z " />
<glyph glyph-name="acircumflex" unicode="&#xe2;" horiz-adv-x="909" d="M587 554 Q472 516 397 470 Q253 381 253 268 Q253 177 313 134 Q352 106 400 106 Q466 106 526.5 143 Q587 180 587 237 L587 554 Z M75 199 Q75 344 220 441 Q312 501 587 604 L587 689 Q587 791 567 831 Q533 898 426 898 Q375 898 329 872 Q283 845 283 798 Q283 786 288 757.5 Q293 729 293 721 Q293 665 256 643 Q235 630 206 630 Q161 630 137 659.5 Q113 689 113 725 Q113 795 199.5 871.5 Q286 948 453 948 Q647 948 716 822 Q753 753 753 621 L753 220 Q753 162 761 140 Q774 101 815 101 Q838 101 853 108 Q868 115 905 142 L905 90 Q873 51 836 26 Q780 -12 722 -12 Q654 -12 623.5 32 Q593 76 590 137 Q514 71 460 39 Q369 -15 287 -15 Q201 -15 138 45.5 Q75 106 75 199 Z M136 1048 L392 1389 L520 1389 L776 1048 L705 1048 L456 1259 L207 1048 L136 1048 Z " />
<glyph glyph-name="adieresis" unicode="&#xe4;" horiz-adv-x="909" d="M587 554 Q472 516 397 470 Q253 381 253 268 Q253 177 313 134 Q352 106 400 106 Q466 106 526.5 143 Q587 180 587 237 L587 554 Z M75 199 Q75 344 220 441 Q312 501 587 604 L587 689 Q587 791 567 831 Q533 898 426 898 Q375 898 329 872 Q283 845 283 798 Q283 786 288 757.5 Q293 729 293 721 Q293 665 256 643 Q235 630 206 630 Q161 630 137 659.5 Q113 689 113 725 Q113 795 199.5 871.5 Q286 948 453 948 Q647 948 716 822 Q753 753 753 621 L753 220 Q753 162 761 140 Q774 101 815 101 Q838 101 853 108 Q868 115 905 142 L905 90 Q873 51 836 26 Q780 -12 722 -12 Q654 -12 623.5 32 Q593 76 590 137 Q514 71 460 39 Q369 -15 287 -15 Q201 -15 138 45.5 Q75 106 75 199 Z M762 1183 Q762 1141 732.5 1111 Q703 1081 660 1081 Q618 1081 588 1111 Q558 1141 558 1183 Q558 1225 588 1255 Q618 1285 660 1285 Q703 1285 732.5 1255 Q762 1225 762 1183 Z M151 1183 Q151 1225 180.5 1255 Q210 1285 252 1285 Q295 1285 324.5 1255 Q354 1225 354 1183 Q354 1141 324.5 1111 Q295 1081 252 1081 Q210 1081 180.5 1111 Q151 1141 151 1183 Z " />
<glyph glyph-name="atilde" unicode="&#xe3;" horiz-adv-x="909" d="M587 554 Q472 516 397 470 Q253 381 253 268 Q253 177 313 134 Q352 106 400 106 Q466 106 526.5 143 Q587 180 587 237 L587 554 Z M75 199 Q75 344 220 441 Q312 501 587 604 L587 689 Q587 791 567 831 Q533 898 426 898 Q375 898 329 872 Q283 845 283 798 Q283 786 288 757.5 Q293 729 293 721 Q293 665 256 643 Q235 630 206 630 Q161 630 137 659.5 Q113 689 113 725 Q113 795 199.5 871.5 Q286 948 453 948 Q647 948 716 822 Q753 753 753 621 L753 220 Q753 162 761 140 Q774 101 815 101 Q838 101 853 108 Q868 115 905 142 L905 90 Q873 51 836 26 Q780 -12 722 -12 Q654 -12 623.5 32 Q593 76 590 137 Q514 71 460 39 Q369 -15 287 -15 Q201 -15 138 45.5 Q75 106 75 199 Z M520 1244 Q555 1227 576.5 1220.5 Q598 1214 618 1214 Q669 1214 702 1252 Q724 1276 736 1316 L795 1316 Q790 1262 756 1204 Q694 1100 576 1100 Q534 1100 497.5 1112 Q461 1124 416 1147 L369 1171 Q352 1179 330.5 1185.5 Q309 1192 291 1192 Q240 1192 210 1158 Q194 1139 179 1100 L117 1100 Q143 1207 203 1256.5 Q263 1306 334 1306 Q367 1306 399.5 1296.5 Q432 1287 471 1268 L520 1244 Z " />
<glyph glyph-name="aring" unicode="&#xe5;" horiz-adv-x="909" d="M587 554 Q472 516 397 470 Q253 381 253 268 Q253 177 313 134 Q352 106 400 106 Q466 106 526.5 143 Q587 180 587 237 L587 554 Z M75 199 Q75 344 220 441 Q312 501 587 604 L587 689 Q587 791 567 831 Q533 898 426 898 Q375 898 329 872 Q283 845 283 798 Q283 786 288 757.5 Q293 729 293 721 Q293 665 256 643 Q235 630 206 630 Q161 630 137 659.5 Q113 689 113 725 Q113 795 199.5 871.5 Q286 948 453 948 Q647 948 716 822 Q753 753 753 621 L753 220 Q753 162 761 140 Q774 101 815 101 Q838 101 853 108 Q868 115 905 142 L905 90 Q873 51 836 26 Q780 -12 722 -12 Q654 -12 623.5 32 Q593 76 590 137 Q514 71 460 39 Q369 -15 287 -15 Q201 -15 138 45.5 Q75 106 75 199 Z M330 1266 Q330 1213 367 1176.5 Q404 1140 456 1140 Q508 1140 544.5 1177 Q581 1214 581 1266 Q581 1318 544.5 1354.5 Q508 1391 456 1391 Q404 1391 367 1354.5 Q330 1318 330 1266 Z M247 1266 Q247 1352 308.5 1413 Q370 1474 456 1474 Q542 1474 603 1413 Q664 1352 664 1266 Q664 1179 603 1118 Q542 1057 456 1057 Q369 1057 308 1118 Q247 1179 247 1266 Z " />
<glyph glyph-name="ccedilla" unicode="&#xe7;" horiz-adv-x="909" d="M509 943 Q634 943 724.5 878.5 Q815 814 815 737 Q815 704 792 675.5 Q769 647 721 647 Q686 647 659.5 671 Q633 695 621 741 L609 789 Q596 842 564 864 Q531 885 477 885 Q363 885 284.5 785.5 Q206 686 206 521 Q206 370 292.5 250 Q379 130 526 130 Q630 130 711 198 Q757 237 815 322 L843 305 Q786 185 723 115 Q602 -19 464 -19 L418 -136 Q437 -132 450.5 -130 Q464 -128 480 -128 Q556 -128 602 -168 Q648 -208 648 -271 Q648 -344 585 -394 Q522 -444 390 -444 Q365 -444 332 -439 Q274 -431 222 -411 L250 -347 L281 -356 Q293 -360 320.5 -365 Q348 -370 376 -370 Q420 -370 446 -359 Q495 -340 495 -285 Q495 -245 470 -225.5 Q445 -206 406 -206 Q376 -206 361.5 -208.5 Q347 -211 328 -216 L314 -204 L392 -19 Q245 0 146 123.5 Q47 247 47 438 Q47 645 178 794 Q309 943 509 943 Z " />
<glyph glyph-name="eacute" unicode="&#xe9;" horiz-adv-x="909" d="M469 938 Q610 938 716 840.5 Q822 743 822 564 L187 564 Q197 332 292 226 Q387 120 517 120 Q622 120 694 175 Q766 230 827 331 L862 319 Q821 192 708.5 84 Q596 -24 433 -24 Q245 -24 142.5 118 Q40 260 40 445 Q40 646 159 792 Q278 938 469 938 Z M411 865 Q297 865 237 764 Q205 710 191 628 L613 628 Q602 728 575 777 Q526 865 411 865 Z M772 1324 Q772 1295 756 1276 Q740 1257 709 1237 L394 1038 L311 1038 L612 1341 Q628 1357 652 1374 Q676 1391 703 1391 Q729 1391 750.5 1372.5 Q772 1354 772 1324 Z " />
<glyph glyph-name="egrave" unicode="&#xe8;" horiz-adv-x="909" d="M469 938 Q610 938 716 840.5 Q822 743 822 564 L187 564 Q197 332 292 226 Q387 120 517 120 Q622 120 694 175 Q766 230 827 331 L862 319 Q821 192 708.5 84 Q596 -24 433 -24 Q245 -24 142.5 118 Q40 260 40 445 Q40 646 159 792 Q278 938 469 938 Z M411 865 Q297 865 237 764 Q205 710 191 628 L613 628 Q602 728 575 777 Q526 865 411 865 Z M618 1038 L535 1038 L220 1237 Q187 1258 172.5 1278 Q158 1298 158 1324 Q158 1353 179 1371.5 Q200 1390 227 1390 Q253 1390 275 1375.5 Q297 1361 317 1341 L618 1038 Z " />
<glyph glyph-name="ecircumflex" unicode="&#xea;" horiz-adv-x="909" d="M469 938 Q610 938 716 840.5 Q822 743 822 564 L187 564 Q197 332 292 226 Q387 120 517 120 Q622 120 694 175 Q766 230 827 331 L862 319 Q821 192 708.5 84 Q596 -24 433 -24 Q245 -24 142.5 118 Q40 260 40 445 Q40 646 159 792 Q278 938 469 938 Z M411 865 Q297 865 237 764 Q205 710 191 628 L613 628 Q602 728 575 777 Q526 865 411 865 Z M136 1038 L392 1379 L520 1379 L776 1038 L705 1038 L456 1249 L207 1038 L136 1038 Z " />
<glyph glyph-name="edieresis" unicode="&#xeb;" horiz-adv-x="909" d="M469 938 Q610 938 716 840.5 Q822 743 822 564 L187 564 Q197 332 292 226 Q387 120 517 120 Q622 120 694 175 Q766 230 827 331 L862 319 Q821 192 708.5 84 Q596 -24 433 -24 Q245 -24 142.5 118 Q40 260 40 445 Q40 646 159 792 Q278 938 469 938 Z M411 865 Q297 865 237 764 Q205 710 191 628 L613 628 Q602 728 575 777 Q526 865 411 865 Z M762 1173 Q762 1131 732.5 1101 Q703 1071 660 1071 Q618 1071 588 1101 Q558 1131 558 1173 Q558 1215 588 1245 Q618 1275 660 1275 Q703 1275 732.5 1245 Q762 1215 762 1173 Z M151 1173 Q151 1215 180.5 1245 Q210 1275 252 1275 Q295 1275 324.5 1245 Q354 1215 354 1173 Q354 1131 324.5 1101 Q295 1071 252 1071 Q210 1071 180.5 1101 Q151 1131 151 1173 Z " />
<glyph glyph-name="iacute" unicode="&#xed;" horiz-adv-x="569" d="M40 28 Q147 38 175 64.5 Q203 91 203 208 L203 685 Q203 750 194 775 Q179 816 131 816 Q120 816 109.5 814 Q99 812 49 798 L49 829 L92 843 Q267 900 336 929 Q364 941 372 941 Q374 934 374 926 L374 208 Q374 94 401.5 65 Q429 36 526 28 L526 0 L40 0 L40 28 Z M602 1324 Q602 1295 586 1276 Q570 1257 539 1237 L224 1038 L141 1038 L442 1341 Q458 1357 482 1374 Q506 1391 533 1391 Q559 1391 580.5 1372.5 Q602 1354 602 1324 Z " />
<glyph glyph-name="igrave" unicode="&#xec;" horiz-adv-x="569" d="M40 28 Q147 38 175 64.5 Q203 91 203 208 L203 685 Q203 750 194 775 Q179 816 131 816 Q120 816 109.5 814 Q99 812 49 798 L49 829 L92 843 Q267 900 336 929 Q364 941 372 941 Q374 934 374 926 L374 208 Q374 94 401.5 65 Q429 36 526 28 L526 0 L40 0 L40 28 Z M448 1038 L365 1038 L50 1237 Q17 1258 2.5 1278 Q-12 1298 -12 1324 Q-12 1353 9 1371.5 Q30 1390 57 1390 Q83 1390 105 1375.5 Q127 1361 147 1341 L448 1038 Z " />
<glyph glyph-name="icircumflex" unicode="&#xee;" horiz-adv-x="569" d="M40 28 Q147 38 175 64.5 Q203 91 203 208 L203 685 Q203 750 194 775 Q179 816 131 816 Q120 816 109.5 814 Q99 812 49 798 L49 829 L92 843 Q267 900 336 929 Q364 941 372 941 Q374 934 374 926 L374 208 Q374 94 401.5 65 Q429 36 526 28 L526 0 L40 0 L40 28 Z M-34 1038 L222 1379 L350 1379 L606 1038 L535 1038 L286 1249 L37 1038 L-34 1038 Z " />
<glyph glyph-name="idieresis" unicode="&#xef;" horiz-adv-x="569" d="M40 28 Q147 38 175 64.5 Q203 91 203 208 L203 685 Q203 750 194 775 Q179 816 131 816 Q120 816 109.5 814 Q99 812 49 798 L49 829 L92 843 Q267 900 336 929 Q364 941 372 941 Q374 934 374 926 L374 208 Q374 94 401.5 65 Q429 36 526 28 L526 0 L40 0 L40 28 Z M592 1173 Q592 1131 562.5 1101 Q533 1071 490 1071 Q448 1071 418 1101 Q388 1131 388 1173 Q388 1215 418 1245 Q448 1275 490 1275 Q533 1275 562.5 1245 Q592 1215 592 1173 Z M-19 1173 Q-19 1215 10.5 1245 Q40 1275 82 1275 Q125 1275 154.5 1245 Q184 1215 184 1173 Q184 1131 154.5 1101 Q125 1071 82 1071 Q40 1071 10.5 1101 Q-19 1131 -19 1173 Z " />
<glyph glyph-name="ntilde" unicode="&#xf1;" horiz-adv-x="1024" d="M37 28 Q108 37 136.5 63.5 Q165 90 165 182 L165 689 Q165 753 153 779 Q134 817 75 817 Q66 817 56.5 816 Q47 815 33 813 L33 848 Q74 860 227 910 L321 941 Q328 941 329.5 936 Q331 931 331 922 L331 775 Q423 861 475 893 Q553 942 637 942 Q705 942 761 903 Q869 827 869 632 L869 165 Q869 93 898 61 Q927 29 995 28 L995 0 L568 0 L568 28 Q641 38 670 68.5 Q699 99 699 201 L699 628 Q699 714 667 770.5 Q635 827 549 827 Q490 827 429 787 Q395 764 341 711 L341 151 Q341 79 373 54.5 Q405 30 474 28 L474 0 L37 0 L37 28 Z M577 1238 Q612 1221 633.5 1214.5 Q655 1208 675 1208 Q726 1208 759 1246 Q781 1270 793 1310 L852 1310 Q847 1256 813 1198 Q751 1094 633 1094 Q591 1094 554.5 1106 Q518 1118 473 1141 L426 1165 Q409 1173 387.5 1179.5 Q366 1186 348 1186 Q297 1186 267 1152 Q251 1133 236 1094 L174 1094 Q200 1201 260 1250.5 Q320 1300 391 1300 Q424 1300 456.5 1290.5 Q489 1281 528 1262 L577 1238 Z " />
<glyph glyph-name="oacute" unicode="&#xf3;" horiz-adv-x="1024" d="M52 464 Q52 663 178.5 800.5 Q305 938 504 938 Q702 938 832 808 Q962 678 962 462 Q962 263 836 116 Q710 -31 510 -31 Q318 -31 185 110 Q52 251 52 464 Z M476 878 Q397 878 339 826 Q239 735 239 512 Q239 334 319.5 180 Q400 26 543 26 Q655 26 715.5 129 Q776 232 776 399 Q776 572 699 725 Q622 878 476 878 Z M829 1324 Q829 1295 813 1276 Q797 1257 766 1237 L451 1038 L368 1038 L669 1341 Q685 1357 709 1374 Q733 1391 760 1391 Q786 1391 807.5 1372.5 Q829 1354 829 1324 Z " />
<glyph glyph-name="ograve" unicode="&#xf2;" horiz-adv-x="1024" d="M52 464 Q52 663 178.5 800.5 Q305 938 504 938 Q702 938 832 808 Q962 678 962 462 Q962 263 836 116 Q710 -31 510 -31 Q318 -31 185 110 Q52 251 52 464 Z M476 878 Q397 878 339 826 Q239 735 239 512 Q239 334 319.5 180 Q400 26 543 26 Q655 26 715.5 129 Q776 232 776 399 Q776 572 699 725 Q622 878 476 878 Z M675 1038 L592 1038 L277 1237 Q244 1258 229.5 1278 Q215 1298 215 1324 Q215 1353 236 1371.5 Q257 1390 284 1390 Q310 1390 332 1375.5 Q354 1361 374 1341 L675 1038 Z " />
<glyph glyph-name="ocircumflex" unicode="&#xf4;" horiz-adv-x="1024" d="M52 464 Q52 663 178.5 800.5 Q305 938 504 938 Q702 938 832 808 Q962 678 962 462 Q962 263 836 116 Q710 -31 510 -31 Q318 -31 185 110 Q52 251 52 464 Z M476 878 Q397 878 339 826 Q239 735 239 512 Q239 334 319.5 180 Q400 26 543 26 Q655 26 715.5 129 Q776 232 776 399 Q776 572 699 725 Q622 878 476 878 Z M193 1038 L449 1379 L577 1379 L833 1038 L762 1038 L513 1249 L264 1038 L193 1038 Z " />
<glyph glyph-name="odieresis" unicode="&#xf6;" horiz-adv-x="1024" d="M52 464 Q52 663 178.5 800.5 Q305 938 504 938 Q702 938 832 808 Q962 678 962 462 Q962 263 836 116 Q710 -31 510 -31 Q318 -31 185 110 Q52 251 52 464 Z M476 878 Q397 878 339 826 Q239 735 239 512 Q239 334 319.5 180 Q400 26 543 26 Q655 26 715.5 129 Q776 232 776 399 Q776 572 699 725 Q622 878 476 878 Z M819 1173 Q819 1131 789.5 1101 Q760 1071 717 1071 Q675 1071 645 1101 Q615 1131 615 1173 Q615 1215 645 1245 Q675 1275 717 1275 Q760 1275 789.5 1245 Q819 1215 819 1173 Z M208 1173 Q208 1215 237.5 1245 Q267 1275 309 1275 Q352 1275 381.5 1245 Q411 1215 411 1173 Q411 1131 381.5 1101 Q352 1071 309 1071 Q267 1071 237.5 1101 Q208 1131 208 1173 Z " />
<glyph glyph-name="otilde" unicode="&#xf5;" horiz-adv-x="1024" d="M52 464 Q52 663 178.5 800.5 Q305 938 504 938 Q702 938 832 808 Q962 678 962 462 Q962 263 836 116 Q710 -31 510 -31 Q318 -31 185 110 Q52 251 52 464 Z M476 878 Q397 878 339 826 Q239 735 239 512 Q239 334 319.5 180 Q400 26 543 26 Q655 26 715.5 129 Q776 232 776 399 Q776 572 699 725 Q622 878 476 878 Z M577 1234 Q612 1217 633.5 1210.5 Q655 1204 675 1204 Q726 1204 759 1242 Q781 1266 793 1306 L852 1306 Q847 1252 813 1194 Q751 1090 633 1090 Q591 1090 554.5 1102 Q518 1114 473 1137 L426 1161 Q409 1169 387.5 1175.5 Q366 1182 348 1182 Q297 1182 267 1148 Q251 1129 236 1090 L174 1090 Q200 1197 260 1246.5 Q320 1296 391 1296 Q424 1296 456.5 1286.5 Q489 1277 528 1258 L577 1234 Z " />
<glyph glyph-name="uacute" unicode="&#xfa;" horiz-adv-x="1024" d="M317 926 L317 286 Q317 218 336 177 Q373 101 472 101 Q540 101 605 146 Q642 171 680 215 L680 763 Q680 840 650 864 Q620 888 530 893 L530 926 L853 926 L853 222 Q853 154 877.5 128.5 Q902 103 981 106 L981 78 Q926 63 900 55.5 Q874 48 813 28 Q787 19 699 -15 Q694 -15 693 -10.5 Q692 -6 692 0 L692 161 Q624 80 568 41 Q483 -19 388 -19 Q301 -19 224 43 Q146 104 146 248 L146 767 Q146 847 112 874 Q90 891 18 898 L18 926 L317 926 Z M829 1324 Q829 1295 813 1276 Q797 1257 766 1237 L451 1038 L368 1038 L669 1341 Q685 1357 709 1374 Q733 1391 760 1391 Q786 1391 807.5 1372.5 Q829 1354 829 1324 Z " />
<glyph glyph-name="ugrave" unicode="&#xf9;" horiz-adv-x="1024" d="M317 926 L317 286 Q317 218 336 177 Q373 101 472 101 Q540 101 605 146 Q642 171 680 215 L680 763 Q680 840 650 864 Q620 888 530 893 L530 926 L853 926 L853 222 Q853 154 877.5 128.5 Q902 103 981 106 L981 78 Q926 63 900 55.5 Q874 48 813 28 Q787 19 699 -15 Q694 -15 693 -10.5 Q692 -6 692 0 L692 161 Q624 80 568 41 Q483 -19 388 -19 Q301 -19 224 43 Q146 104 146 248 L146 767 Q146 847 112 874 Q90 891 18 898 L18 926 L317 926 Z M675 1038 L592 1038 L277 1237 Q244 1258 229.5 1278 Q215 1298 215 1324 Q215 1353 236 1371.5 Q257 1390 284 1390 Q310 1390 332 1375.5 Q354 1361 374 1341 L675 1038 Z " />
<glyph glyph-name="ucircumflex" unicode="&#xfb;" horiz-adv-x="1024" d="M317 926 L317 286 Q317 218 336 177 Q373 101 472 101 Q540 101 605 146 Q642 171 680 215 L680 763 Q680 840 650 864 Q620 888 530 893 L530 926 L853 926 L853 222 Q853 154 877.5 128.5 Q902 103 981 106 L981 78 Q926 63 900 55.5 Q874 48 813 28 Q787 19 699 -15 Q694 -15 693 -10.5 Q692 -6 692 0 L692 161 Q624 80 568 41 Q483 -19 388 -19 Q301 -19 224 43 Q146 104 146 248 L146 767 Q146 847 112 874 Q90 891 18 898 L18 926 L317 926 Z M193 1038 L449 1379 L577 1379 L833 1038 L762 1038 L513 1249 L264 1038 L193 1038 Z " />
<glyph glyph-name="udieresis" unicode="&#xfc;" horiz-adv-x="1024" d="M317 926 L317 286 Q317 218 336 177 Q373 101 472 101 Q540 101 605 146 Q642 171 680 215 L680 763 Q680 840 650 864 Q620 888 530 893 L530 926 L853 926 L853 222 Q853 154 877.5 128.5 Q902 103 981 106 L981 78 Q926 63 900 55.5 Q874 48 813 28 Q787 19 699 -15 Q694 -15 693 -10.5 Q692 -6 692 0 L692 161 Q624 80 568 41 Q483 -19 388 -19 Q301 -19 224 43 Q146 104 146 248 L146 767 Q146 847 112 874 Q90 891 18 898 L18 926 L317 926 Z M819 1173 Q819 1131 789.5 1101 Q760 1071 717 1071 Q675 1071 645 1101 Q615 1131 615 1173 Q615 1215 645 1245 Q675 1275 717 1275 Q760 1275 789.5 1245 Q819 1215 819 1173 Z M208 1173 Q208 1215 237.5 1245 Q267 1275 309 1275 Q352 1275 381.5 1245 Q411 1215 411 1173 Q411 1131 381.5 1101 Q352 1071 309 1071 Q267 1071 237.5 1101 Q208 1131 208 1173 Z " />
<glyph glyph-name="dagger" unicode="&#x2020;" horiz-adv-x="1024" d="M109 917 Q109 953 134.5 979.5 Q160 1006 205 1006 Q232 1006 304.5 972 Q377 938 483 933 Q484 1010 474.5 1061 Q465 1112 440 1180 L417 1242 Q413 1253 411 1261.5 Q409 1270 409 1280 Q409 1342 452 1369 Q477 1384 505 1384 Q542 1384 570.5 1357.5 Q599 1331 599 1286 Q599 1256 562.5 1166 Q526 1076 526 933 Q632 941 706.5 973 Q781 1005 813 1005 Q858 1005 880.5 976 Q903 947 903 912 Q903 882 893 861 Q874 822 822 822 Q787 822 700.5 859.5 Q614 897 526 895 Q526 766 537 700 Q555 586 611 519 Q583 454 556.5 299 Q530 144 530 -5 L528 -309 L485 -309 L483 -98 Q481 109 459 245.5 Q437 382 398 521 L412 540 Q455 598 469 689 Q478 746 483 895 Q399 893 316 860 Q233 827 194 827 Q156 827 132.5 852 Q109 877 109 917 Z " />
<glyph glyph-name="degree" unicode="&#xb0;" horiz-adv-x="819" d="M87 1083 Q87 1204 172.5 1289 Q258 1374 379 1374 Q500 1374 585 1289 Q670 1204 670 1083 Q670 962 585 876.5 Q500 791 379 791 Q258 791 172.5 876.5 Q87 962 87 1083 Z M187 1083 Q187 1004 243.5 947.5 Q300 891 379 891 Q459 891 515 947.5 Q571 1004 571 1083 Q571 1163 515 1219 Q459 1275 379 1275 Q300 1275 243.5 1219 Q187 1163 187 1083 Z " />
<glyph glyph-name="cent" unicode="&#xa2;" horiz-adv-x="1024" d="M639 862 Q618 872 600 876.5 Q582 881 545 881 Q427 881 344.5 781.5 Q262 682 262 523 Q262 392 315 302 Q345 251 405 201 L639 862 Z M109 440 Q109 636 251 789.5 Q393 943 559 943 Q588 943 614 939.5 Q640 936 663 931 L753 1185 L824 1185 L730 910 Q788 883 820 856 Q881 804 881 739 Q881 696 858.5 670 Q836 644 794 644 Q751 644 720 678 Q702 698 675 751 L469 156 Q510 141 533 136 Q556 131 590 131 Q694 131 779 203 Q831 246 891 336 L917 319 Q839 137 734 57 Q629 -23 529 -23 Q498 -23 477 -19 Q456 -15 412 -3 L310 -285 L241 -285 L346 23 Q243 69 176 185.5 Q109 302 109 440 Z " />
<glyph glyph-name="sterling" unicode="&#xa3;" horiz-adv-x="1024" d="M289 161 Q265 180 221 187 Q198 191 171 191 Q128 191 102.5 170.5 Q77 150 77 118 Q77 97 87 78 Q108 40 160 40 Q223 40 260 90 Q284 122 289 161 Z M22 118 Q22 170 69 217.5 Q116 265 213 265 Q231 265 250.5 263 Q270 261 308 255 Q309 274 309.5 280.5 Q310 287 310 296 Q310 353 300 449 Q293 508 272 670 L47 670 L47 763 L263 763 Q259 798 256 848.5 Q253 899 253 937 Q253 1120 357.5 1252 Q462 1384 650 1384 Q751 1384 834 1332.5 Q917 1281 917 1193 Q917 1154 892.5 1120 Q868 1086 822 1086 Q792 1086 768 1102 Q726 1131 730 1199 L732 1232 Q735 1269 706 1298 Q677 1327 616 1327 Q494 1327 450 1202 Q426 1136 426 1025 Q426 991 432 912.5 Q438 834 447 763 L703 763 L703 670 L455 670 Q455 640 456 618 Q457 596 457 580 Q457 497 443.5 398.5 Q430 300 407 227 Q457 204 521 186 Q623 156 707 156 Q777 156 829 175 Q881 194 938 248 L971 279 Q975 283 980 285.5 Q985 288 993 291 L1005 282 Q996 198 902 91 Q808 -16 651 -16 Q574 -16 463 46 Q414 74 365 111 Q300 37 270 15 Q222 -20 160 -20 Q111 -20 66.5 14 Q22 48 22 118 Z " />
<glyph glyph-name="section" unicode="&#xa7;" horiz-adv-x="1024" d="M622 302 Q674 302 719.5 337.5 Q765 373 765 446 Q765 533 624 661 Q483 789 389 789 Q331 789 290 748.5 Q249 708 249 650 Q249 604 275 557.5 Q301 511 387 436 Q472 360 520.5 331 Q569 302 622 302 Z M392 834 Q400 834 406.5 833.5 Q413 833 424 831 Q312 922 268.5 988.5 Q225 1055 225 1142 Q225 1241 310 1315 Q395 1389 516 1389 Q618 1389 695.5 1330.5 Q773 1272 773 1189 Q773 1148 746.5 1113 Q720 1078 666 1078 Q624 1078 597.5 1105.5 Q571 1133 571 1167 Q571 1205 606.5 1240.5 Q642 1276 642 1283 Q642 1311 597.5 1328.5 Q553 1346 505 1346 Q434 1346 386.5 1309.5 Q339 1273 339 1198 Q339 1137 390 1077 Q420 1041 500 976 L661 844 Q745 776 790 717 Q871 611 871 511 Q871 391 798 320 Q725 249 602 260 Q699 173 735 121 Q791 42 791 -47 Q791 -156 708 -228.5 Q625 -301 494 -301 Q381 -301 297 -242.5 Q213 -184 213 -100 Q213 -54 240 -18 Q267 18 323 18 Q366 18 393.5 -10.5 Q421 -39 421 -78 Q421 -102 412.5 -116.5 Q404 -131 388 -145 L367 -164 Q360 -170 356 -176 Q352 -182 352 -189 Q352 -221 402.5 -240.5 Q453 -260 500 -260 Q550 -260 594 -238 Q674 -199 674 -102 Q674 -31 629 19.5 Q584 70 452 170 L343 253 Q270 309 221 375 Q146 477 146 584 Q146 700 224 767 Q302 834 392 834 Z " />
<glyph glyph-name="bullet" unicode="&#x2022;" horiz-adv-x="717" d="M353 386 Q231 386 146 472 Q61 558 61 680 Q61 801 146.5 886 Q232 971 353 971 Q474 971 558 886 Q642 801 642 680 Q642 558 557 472 Q472 386 353 386 Z " />
<glyph glyph-name="paragraph" unicode="&#xb6;" horiz-adv-x="928" d="M884 1317 Q826 1314 801 1291 Q759 1252 746 1137 Q742 1108 738 1020 Q734 932 734 862 L734 305 Q734 67 672 -63 Q558 -299 237 -299 Q138 -299 81.5 -265 Q25 -231 25 -174 Q25 -133 52.5 -110.5 Q80 -88 116 -88 Q152 -88 180 -112 Q208 -136 208 -176 Q208 -194 202.5 -207.5 Q197 -221 187 -235 Q298 -238 342 -120 Q366 -53 376 111 Q380 175 380.5 233.5 Q381 292 381 575 Q188 575 72.5 689 Q-43 803 -43 967 Q-43 1063 7.5 1156.5 Q58 1250 162 1300 Q235 1334 316 1344.5 Q397 1355 564 1355 L884 1355 L884 1317 Z M443 1061 Q443 1003 441.5 973.5 Q440 944 440 886 L440 369 Q440 48 418 -67 Q396 -182 296 -242 L298 -254 Q506 -213 570 -31 Q609 81 609 369 L609 751 Q609 880 611 956 Q613 1032 616 1090 Q621 1171 637 1229.5 Q653 1288 687 1317 L523 1317 Q517 1317 492.5 1287.5 Q468 1258 457 1215 Q451 1195 447 1155 Q443 1115 443 1061 Z " />
<glyph glyph-name="germandbls" unicode="&#xdf;" horiz-adv-x="1024" d="M23 30 Q93 36 116 55 Q151 84 151 173 L151 931 Q151 1111 196 1213 Q278 1401 507 1401 Q660 1401 761 1321.5 Q862 1242 862 1097 Q862 945 737 850 Q669 798 585 775 Q747 734 825 674 Q959 573 959 378 Q959 212 852 95 Q745 -22 595 -22 Q511 -22 452 18 Q393 58 393 132 Q393 173 418 201 Q443 229 483 229 Q521 229 544.5 206.5 Q568 184 571 146 L575 101 Q577 73 589 57 Q600 40 637 40 Q719 40 749 157 Q765 220 765 333 Q765 533 691.5 631 Q618 729 472 732 Q452 733 440.5 740.5 Q429 748 429 766 Q429 783 440 788.5 Q451 794 475 797 Q558 807 603 841 Q686 904 686 1057 Q686 1146 659 1218 Q611 1346 495 1346 Q402 1346 362 1276 Q322 1206 322 1090 L322 0 L23 0 L23 30 Z " />
<glyph glyph-name="registered" unicode="&#xae;" horiz-adv-x="1556" d="M372 322 Q454 322 482.5 332.5 Q511 343 511 391 L511 988 Q511 1031 481.5 1044 Q452 1057 372 1057 L372 1104 L775 1104 Q928 1104 1023 1048 Q1118 992 1118 893 Q1118 811 1042 756.5 Q966 702 839 689 L839 682 Q989 634 1031.5 478.5 Q1074 323 1103 323 Q1140 323 1156 363 Q1166 390 1175 471 L1225 471 Q1218 381 1195 338 Q1153 260 1051 260 Q954 260 921 323 Q900 363 893 481 Q885 603 838 638 Q791 673 649 670 L649 391 Q649 343 688 330 Q713 321 789 322 L789 274 L372 274 L372 322 Z M142 680 Q142 420 326 236 Q510 52 770 52 Q1030 52 1214 236 Q1398 420 1398 680 Q1398 940 1214 1124 Q1030 1308 770 1308 Q510 1308 326 1124 Q142 940 142 680 Z M66 680 Q66 972 272 1178 Q478 1384 770 1384 Q1062 1384 1268 1178 Q1474 972 1474 680 Q1474 388 1268 182 Q1062 -24 770 -24 Q478 -24 272 182 Q66 388 66 680 Z M649 718 Q811 718 864 740 Q950 775 950 895 Q950 972 904.5 1014.5 Q859 1057 760 1057 Q709 1057 679 1043.5 Q649 1030 649 988 L649 718 Z " />
<glyph glyph-name="copyright" unicode="&#xa9;" horiz-adv-x="1556" d="M142 680 Q142 420 326 236 Q510 52 770 52 Q1030 52 1214 236 Q1398 420 1398 680 Q1398 940 1214 1124 Q1030 1308 770 1308 Q510 1308 326 1124 Q142 940 142 680 Z M66 680 Q66 972 272 1178 Q478 1384 770 1384 Q1062 1384 1268 1178 Q1474 972 1474 680 Q1474 388 1268 182 Q1062 -24 770 -24 Q478 -24 272 182 Q66 388 66 680 Z M348 699 Q348 893 464 1017.5 Q580 1142 755 1142 Q801 1142 845 1131 Q889 1120 929 1097 L962 1078 Q973 1072 980.5 1069 Q988 1066 997 1066 Q1019 1066 1027.5 1080 Q1036 1094 1045 1135 L1087 1135 L1095 791 L1047 791 Q1015 947 941 1021 Q867 1095 765 1095 Q660 1095 589 997.5 Q518 900 518 693 Q518 558 578.5 438.5 Q639 319 789 319 Q896 319 976 390 Q1022 431 1069 509 L1111 485 Q1063 398 1006 347 Q902 253 758 253 Q588 253 468 378 Q348 503 348 699 Z " />
<glyph glyph-name="trademark" unicode="&#x2122;" horiz-adv-x="2007" d="M80 1355 L649 1355 L668 1097 L632 1097 Q608 1236 547 1284 Q511 1313 426 1320 L426 749 Q426 705 449 690.5 Q472 676 538 675 L538 639 L194 639 L194 675 Q256 677 280.5 690 Q305 703 305 749 L305 1320 Q211 1311 172 1273 Q119 1229 99 1097 L63 1097 L80 1355 Z M756 675 Q817 685 838.5 702 Q860 719 860 775 L860 1246 Q860 1295 841 1307 Q822 1319 756 1320 L756 1355 L995 1355 L1185 829 L1362 1355 L1590 1355 L1590 1320 Q1525 1317 1510 1305.5 Q1495 1294 1495 1246 L1495 749 Q1495 704 1514.5 691.5 Q1534 679 1590 675 L1590 639 L1277 639 L1277 675 Q1339 678 1355.5 694 Q1372 710 1372 749 L1372 1246 L1163 639 L1130 639 L898 1284 L898 772 Q898 714 923.5 697 Q949 680 1012 675 L1012 639 L756 639 L756 675 Z " />
<glyph glyph-name="acute" unicode="&#xb4;" horiz-adv-x="682" d="M593 1324 Q593 1295 577 1276 Q561 1257 530 1237 L215 1038 L132 1038 L433 1341 Q449 1357 473 1374 Q497 1391 524 1391 Q550 1391 571.5 1372.5 Q593 1354 593 1324 Z " />
<glyph glyph-name="dieresis" unicode="&#xa8;" horiz-adv-x="682" d="M592 1173 Q592 1131 562.5 1101 Q533 1071 490 1071 Q448 1071 418 1101 Q388 1131 388 1173 Q388 1215 418 1245 Q448 1275 490 1275 Q533 1275 562.5 1245 Q592 1215 592 1173 Z M-19 1173 Q-19 1215 10.5 1245 Q40 1275 82 1275 Q125 1275 154.5 1245 Q184 1215 184 1173 Q184 1131 154.5 1101 Q125 1071 82 1071 Q40 1071 10.5 1101 Q-19 1131 -19 1173 Z " />
<glyph glyph-name="AE" unicode="&#xc6;" horiz-adv-x="1821" d="M500 611 L824 611 L824 1256 L500 611 Z M9 37 Q74 48 106 73.5 Q138 99 189 199 L274 365 L692 1189 Q698 1201 703 1217 Q708 1233 708 1245 Q708 1283 665 1298 Q622 1313 526 1315 L526 1355 L1687 1355 L1687 1064 L1637 1064 Q1624 1192 1561.5 1235.5 Q1499 1279 1386 1279 L1083 1279 Q1047 1279 1037.5 1262 Q1028 1245 1028 1220 L1028 749 L1256 749 Q1425 749 1468 789 Q1511 829 1526 948 L1569 948 L1569 469 L1526 469 Q1512 578 1477 625 Q1443 673 1325 673 L1028 673 L1028 182 Q1028 108 1062.5 94 Q1097 80 1261 80 Q1454 80 1549.5 122.5 Q1645 165 1730 341 L1780 341 L1687 2 L642 0 L642 37 Q763 53 793.5 79.5 Q824 106 824 220 L824 533 L464 533 Q341 290 309 218.5 Q277 147 277 108 Q277 75 308 61 Q339 47 417 42 L417 0 L9 0 L9 37 Z " />
<glyph glyph-name="Oslash" unicode="&#xd8;" horiz-adv-x="1479" d="M440 173 Q485 125 555 88 Q637 45 741 45 Q919 45 1044.5 203.5 Q1170 362 1170 673 Q1170 824 1147.5 920 Q1125 1016 1073 1111 L440 173 Z M1023 1182 Q958 1240 911 1265 Q827 1310 725 1310 Q537 1310 415 1144.5 Q293 979 293 677 Q293 533 318 433 Q344 323 388 246 L1023 1182 Z M732 1384 Q843 1384 933.5 1354.5 Q1024 1325 1092 1282 L1242 1502 L1341 1502 L1159 1234 Q1248 1163 1321 1035 Q1403 886 1403 677 Q1403 349 1197 153 Q1006 -29 723 -29 Q663 -29 600 -17 Q482 6 372 68 L208 -166 L109 -166 L303 116 Q193 226 145 315 Q61 468 61 677 Q61 1005 267 1203 Q456 1384 732 1384 Z " />
<glyph glyph-name="infinity" unicode="&#x221e;" horiz-adv-x="1460" d="M1042 411 Q1147 411 1230 483.5 Q1313 556 1313 665 Q1313 775 1242.5 855.5 Q1172 936 1078 936 Q1019 936 972 906 Q945 888 917 855 Q871 802 820.5 708.5 Q770 615 770 604 Q770 594 802.5 545 Q835 496 874 466 Q910 439 952.5 425 Q995 411 1042 411 Z M605.5 827.5 Q524 910 403 910 Q278 910 211 835.5 Q144 761 144 656 Q144 546 212 468.5 Q280 391 369 391 Q446 391 501 429 Q532 452 567 500 Q594 536 640.5 617.5 Q687 699 687 713 Q687 745 605.5 827.5 Z M1034 1027 Q1190 1027 1271.5 913 Q1353 799 1353 656 Q1353 522 1265.5 406.5 Q1178 291 1054 291 Q944 291 870 363.5 Q796 436 751 564 Q699 454 647 397 Q550 291 419 291 Q273 291 187 406.5 Q101 522 101 650 Q101 820 188 923.5 Q275 1027 405 1027 Q558 1027 668 841 L711 756 Q770 873 820 928 Q911 1027 1034 1027 Z " />
<glyph glyph-name="plusminus" unicode="&#xb1;" horiz-adv-x="1124" d="M47 0 L47 135 L1080 135 L1080 0 L47 0 Z M1080 689 L1080 557 L635 557 L635 218 L495 218 L495 557 L47 557 L47 689 L495 689 L495 1035 L635 1035 L635 689 L1080 689 Z " />
<glyph glyph-name="lessequal" unicode="&#x2264;" horiz-adv-x="1124" d="M1080 206 L47 602 L47 656 L1080 1052 L1080 900 L353 630 L1080 357 L1080 206 Z M47 0 L47 135 L1080 135 L1080 0 L47 0 Z " />
<glyph glyph-name="greaterequal" unicode="&#x2265;" horiz-adv-x="1124" d="M42 135 L1076 135 L1076 0 L42 0 L42 135 Z M42 206 L42 357 L770 630 L42 900 L42 1052 L1076 656 L1076 602 L42 206 Z " />
<glyph glyph-name="yen" unicode="&#xa5;" horiz-adv-x="1024" d="M433 1355 L433 1317 Q389 1318 365 1310 Q324 1296 324 1254 Q324 1241 331 1216.5 Q338 1192 350 1166 L571 711 L786 1173 Q794 1191 801 1216 Q808 1241 808 1250 Q808 1293 779.5 1304.5 Q751 1316 703 1317 L703 1355 L1031 1355 L1031 1317 Q985 1315 939 1271 Q893 1227 824 1083 L692 808 L907 808 L907 744 L663 744 L604 621 L604 533 L877 533 L877 469 L604 469 L604 274 Q605 158 606 144 Q612 78 653 56 Q679 42 758 37 L758 0 L301 0 L301 37 Q402 45 426 77.5 Q450 110 450 246 L450 469 L165 469 L165 533 L450 533 L450 602 L383 741 L137 741 L137 808 L350 808 L255 995 Q330 853 202 1097 Q160 1177 136 1219 Q110 1263 83.5 1288 Q57 1313 14 1317 L14 1355 L433 1355 Z " />
<glyph glyph-name="mu" unicode="&#xb5;" horiz-adv-x="1180" d="M-150 -389 Q-77 -388 -48 -348.5 Q-19 -309 17 -162 Q31 -103 43 -51 Q65 46 94 161 L234 722 Q236 732 237.5 740.5 Q239 749 239 758 Q239 801 213.5 810.5 Q188 820 118 820 L118 848 L265 877 L424 907 Q429 908 433 903 Q437 898 436 893 L433 879 L248 164 Q246 155 245 149.5 Q244 144 244 133 Q244 113 255 102 Q266 91 288 91 Q348 91 435.5 194.5 Q523 298 595 414 Q657 515 709 639 Q741 716 801 884 L952 884 L763 175 Q758 155 754 138 Q750 121 750 110 Q750 93 758.5 85.5 Q767 78 777 78 Q792 78 808 89.5 Q824 101 848 125 Q859 136 888 172 Q906 194 943 239 L971 220 Q925 144 875 89 Q776 -22 691 -22 Q647 -22 619 2 Q591 26 591 77 Q591 114 606 181 Q621 248 658 379 L682 464 L673 466 Q603 343 526 226 Q360 -18 262 -18 Q243 -18 228.5 -13 Q214 -8 201 4 L94 -422 L-157 -422 L-150 -389 Z " />
<glyph glyph-name="product" unicode="&#x220f;" horiz-adv-x="1686" d="M976 -250 L976 -210 Q1126 -210 1162.5 -167.5 Q1199 -125 1199 15 L1199 1166 Q1199 1231 1174 1250.5 Q1149 1270 1066 1270 L639 1270 Q557 1270 532 1251 Q507 1232 507 1166 L507 15 Q507 -125 541.5 -167.5 Q576 -210 730 -210 L730 -250 L87 -250 L87 -210 Q219 -210 256 -167.5 Q293 -125 293 15 L293 1102 Q293 1241 256.5 1278 Q220 1315 92 1315 L92 1355 L1611 1355 L1611 1315 Q1484 1315 1448 1277.5 Q1412 1240 1412 1102 L1412 15 Q1412 -125 1449 -167.5 Q1486 -210 1616 -210 L1616 -250 L976 -250 Z " />
<glyph glyph-name="pi" unicode="&#x3c0;" horiz-adv-x="1124" d="M446 688 Q446 276 395 125 Q369 45 328 12 Q287 -20 231 -20 Q170 -20 139 8 Q106 33 92 74 Q80 115 78 164 Q76 211 74 258 L125 258 Q125 221 145 180 Q166 137 209 135 Q307 137 348 305 Q385 469 385 745 L385 807 L276 807 Q217 807 186 778 Q154 750 143 704 L92 704 Q104 772 121 823 Q139 872 172 903 Q207 934 270 950 Q332 962 428 962 Q790 956 1057 946 Q1102 946 1120 967 Q1135 983 1137 1003 L1178 1003 Q1175 887 1135 846 Q1096 805 1016 807 L911 807 L911 203 Q907 57 1001 55 Q1038 55 1061 84 Q1083 111 1096 147 Q1116 231 1116 311 L1167 311 Q1167 262 1163 205 Q1155 149 1132 98 Q1112 49 1065 16 Q1020 -18 942 -20 Q881 -20 842 2 Q801 25 776 59 Q729 135 731 223 L731 807 L446 807 L446 688 Z " />
<glyph glyph-name="ordfeminine" unicode="&#xaa;" horiz-adv-x="565" d="M23 929 Q23 1008 105 1066 Q160 1104 243 1135 L357 1175 Q357 1271 336.5 1313 Q316 1355 256 1355 Q201 1355 179 1340 Q157 1325 157 1293 Q157 1286 161 1272 Q165 1258 165 1249 Q165 1222 147 1207 Q129 1192 109 1192 Q82 1192 65.5 1208 Q49 1224 49 1249 Q49 1297 108 1340.5 Q167 1384 269 1384 Q316 1384 356 1372.5 Q396 1361 423 1335 Q453 1302 459.5 1259.5 Q466 1217 466 1150 L466 999 Q466 912 475 890.5 Q484 869 508 869 Q524 869 536 875 Q548 881 564 893 L564 862 Q542 835 507.5 816.5 Q473 798 441 798 Q410 798 387 823.5 Q364 849 357 891 Q307 849 275 831 Q217 798 160 798 Q107 798 65 834 Q23 870 23 929 Z M357 1144 Q288 1125 231 1092 Q139 1038 139 969 Q139 924 165.5 898 Q192 872 233 872 Q280 872 318.5 896 Q357 920 357 950 L357 1144 Z " />
<glyph glyph-name="ordmasculine" unicode="&#xba;" horiz-adv-x="635" d="M312 1344 Q233 1344 193.5 1278.5 Q154 1213 154 1137 Q154 1023 209.5 931 Q265 839 345 839 Q412 839 457.5 892.5 Q503 946 503 1055 Q503 1167 451.5 1255.5 Q400 1344 312 1344 Z M33 1096 Q33 1213 121.5 1299 Q210 1385 328 1385 Q449 1385 536 1306.5 Q623 1228 623 1096 Q623 961 536 879.5 Q449 798 336 798 Q210 798 121.5 883.5 Q33 969 33 1096 Z " />
<glyph glyph-name="Omega" unicode="&#x2126;" horiz-adv-x="1573" d="M1531 822 Q1531 572 1362.5 448 Q1194 324 1023 310 L1023 184 L1329 184 Q1412 184 1445 242 Q1463 275 1467 338 L1509 338 L1509 0 L952 0 L952 365 Q1126 395 1212 524.5 Q1298 654 1298 840 Q1298 1011 1200 1154.5 Q1102 1298 843 1298 Q630 1298 517.5 1162 Q405 1026 405 836 Q405 664 488 529.5 Q571 395 753 365 L753 0 L194 0 L194 338 L239 338 Q240 276 258 243 Q290 184 374 184 L680 184 L680 310 Q493 326 333 455.5 Q173 585 173 825 Q173 1046 323 1199 Q505 1384 850 1384 Q1177 1384 1361 1219 Q1531 1066 1531 822 Z " />
<glyph glyph-name="ae" unicode="&#xe6;" horiz-adv-x="1366" d="M1066 639 Q1066 735 1046 790 Q1009 893 905 893 Q799 893 757 800 Q733 747 727 639 L1066 639 Z M407 87 Q457 87 528 126.5 Q599 166 599 190 Q599 182 580.5 264.5 Q562 347 561 421 L559 528 Q394 479 324.5 414.5 Q255 350 255 264 Q255 192 296 139.5 Q337 87 407 87 Z M208 632 Q178 632 148.5 656 Q119 680 119 733 Q119 818 212.5 885.5 Q306 953 446 953 Q534 953 597 923 Q634 906 689 860 Q750 906 805 929 Q860 952 943 952 Q1011 952 1072.5 925 Q1134 898 1178 845 Q1223 790 1242 717 Q1253 672 1261 578 L725 578 Q728 351 760 266 Q814 124 980 124 Q1054 124 1124 168.5 Q1194 213 1239 279 L1270 324 L1294 310 Q1239 187 1175 116 Q1056 -16 888 -16 Q810 -16 741 26 Q672 68 625 137 Q539 64 487 35 Q401 -15 315 -15 Q214 -15 145.5 48 Q77 111 77 207 Q77 340 210 429 Q296 486 559 585 Q562 642 563 662.5 Q564 683 564 703 Q564 797 547 836 Q517 903 427 903 Q386 903 352 887 Q290 858 296 789 L298 765 Q302 712 292 684 Q273 632 208 632 Z " />
<glyph glyph-name="oslash" unicode="&#xf8;" horiz-adv-x="1024" d="M360 118 Q413 65 454 45.5 Q495 26 543 26 Q654 26 715 128.5 Q776 231 776 399 Q776 526 733 645 Q706 720 687 744 L360 118 Z M476 878 Q397 878 339 825 Q239 735 239 513 Q239 416 262 331.5 Q285 247 317 184 L639 805 Q603 841 564.5 859.5 Q526 878 476 878 Z M52 464 Q52 670 180 803.5 Q308 937 491 937 Q558 937 614 925 Q646 918 689 903 L810 1133 L891 1133 L756 872 Q841 805 883 742 Q962 624 962 461 Q962 261 838.5 115 Q715 -31 512 -31 Q451 -31 393 -15 Q361 -7 305 16 L177 -228 L101 -228 L248 54 Q166 115 109 220 Q52 325 52 464 Z " />
<glyph glyph-name="questiondown" unicode="&#xbf;" horiz-adv-x="909" d="M298 836 Q298 882 331 913.5 Q364 945 410 945 Q456 945 488.5 913 Q521 881 521 836 Q521 791 488.5 759 Q456 727 411 727 Q367 727 332.5 758.5 Q298 790 298 836 Z M394 -457 Q270 -457 156.5 -372 Q43 -287 43 -136 Q43 -3 199 194 Q367 408 393 590 L429 590 Q429 553 416.5 481 Q404 409 391 367 Q383 343 346.5 253 Q310 163 310 168 Q278 92 262 44 Q232 -50 232 -121 Q232 -232 288 -314 Q344 -396 459 -396 Q539 -396 595 -353.5 Q651 -311 651 -272 Q651 -247 610.5 -200.5 Q570 -154 570 -118 Q570 -84 593 -58.5 Q616 -33 652 -33 Q701 -33 729.5 -72.5 Q758 -112 758 -165 Q758 -269 670 -363 Q582 -457 394 -457 Z " />
<glyph glyph-name="exclamdown" unicode="&#xa1;" horiz-adv-x="682" d="M191 -297 Q191 -282 192 -262.5 Q193 -243 196 -221 L289 564 L315 564 L334 343 Q346 207 381 -38 Q410 -243 410 -294 Q410 -350 394 -390 Q365 -460 296 -460 Q229 -460 204 -393 Q191 -357 191 -297 Z M410 841 Q410 791 376.5 759 Q343 727 298 727 Q252 727 219.5 759.5 Q187 792 187 838 Q187 885 220 915 Q253 945 298 945 Q345 945 377.5 913.5 Q410 882 410 841 Z " />
<glyph glyph-name="logicalnot" unicode="&#xac;" horiz-adv-x="1155" d="M61 794 L1095 794 L1095 241 L952 241 L952 654 L61 654 L61 794 Z " />
<glyph glyph-name="florin" unicode="&#x192;" horiz-adv-x="1024" d="M182 -242 Q182 -264 166.5 -283.5 Q151 -303 151 -316 Q151 -324 162 -331 Q173 -339 191 -339 Q285 -339 326 -194 Q352 -105 374 146 Q396 396 404 467.5 Q412 539 436 718 L443 770 L218 770 L237 834 L455 834 Q494 1052 550 1170 Q653 1384 834 1384 Q899 1384 950.5 1345.5 Q1002 1307 1002 1249 Q1002 1196 971.5 1173.5 Q941 1151 911 1151 Q887 1151 859 1167 Q831 1183 831 1222 Q831 1243 845 1265 Q859 1287 859 1295 Q859 1309 846 1318 Q833 1327 815 1327 Q725 1327 684 1193 Q658 1109 625 834 L884 834 L865 770 L616 770 Q593 536 567 370.5 Q541 205 512 68 Q467 -135 392 -262 Q317 -389 173 -389 Q101 -389 56 -348.5 Q11 -308 11 -253 Q11 -213 33 -185 Q55 -157 95 -157 Q135 -157 158.5 -182 Q182 -207 182 -242 Z " />
<glyph glyph-name="increment" unicode="&#x2206;" horiz-adv-x="1253" d="M1142 92 L730 1076 L312 92 L1142 92 Z M1422 0 L170 0 L775 1396 L815 1396 L1422 0 Z " />
<glyph glyph-name="guillemotleft" unicode="&#xab;" horiz-adv-x="1024" d="M519 73 Q513 73 507.5 77 Q502 81 495 89 Q485 99 456.5 126.5 Q428 154 424 158 L201 362 L106 443 L94 452 L87 459 L132 504 Q144 514 189 554 Q254 611 302 655 Q391 735 451 797 Q485 831 499.5 844.5 Q514 858 521 858 Q530 858 536 852 Q542 846 542 836 Q542 808 473 713 Q428 653 277 464 Q363 356 451.5 237 Q540 118 540 96 Q540 85 534 79 Q528 73 519 73 Z M910 73 Q904 73 898.5 77 Q893 81 886 89 Q876 99 847.5 126.5 Q819 154 815 158 L592 362 L497 443 L485 452 L478 459 Q516 497 580 554 Q652 617 698 658 Q783 736 842 797 Q876 831 890.5 844.5 Q905 858 912 858 Q921 858 927 852 Q933 846 933 836 Q933 808 865 715 Q821 655 668 464 Q754 356 842.5 237 Q931 118 931 96 Q931 85 925 79 Q919 73 910 73 Z " />
<glyph glyph-name="guillemotright" unicode="&#xbb;" horiz-adv-x="1024" d="M92 96 Q92 116 181 238 Q270 360 355 464 Q224 625 172 696 Q90 806 90 836 Q90 846 96 852 Q102 858 111 858 Q117 858 134 842.5 Q151 827 181 797 Q261 714 403 589 Q545 464 545 459 L538 452 L526 443 L431 362 L208 158 Q194 146 163.5 115 Q133 84 125 78 L113 73 Q104 73 98 79 Q92 85 92 96 Z M483 96 Q483 120 580.5 250 Q678 380 746 464 Q593 655 549 715 Q481 808 481 836 Q481 846 487.5 852 Q494 858 502 858 Q509 858 523.5 844.5 Q538 831 572 797 Q661 705 798.5 585 Q936 465 936 459 L929 452 L917 443 L822 362 L599 158 Q585 146 554.5 115 Q524 84 516 78 L504 73 Q495 73 489 79 Q483 85 483 96 Z " />
<glyph glyph-name="ellipsis" unicode="&#x2026;" horiz-adv-x="2048" d="M1820 90 Q1820 45 1787 10.5 Q1754 -24 1706 -24 Q1659 -24 1625.5 9.5 Q1592 43 1592 90 Q1592 138 1625.5 172 Q1659 206 1706 206 Q1753 206 1786.5 172 Q1820 138 1820 90 Z M1023 206 Q1067 206 1102 173.5 Q1137 141 1137 90 Q1137 43 1103.5 9.5 Q1070 -24 1023 -24 Q975 -24 941 9 Q907 42 907 90 Q907 137 941 171.5 Q975 206 1023 206 Z M341 206 Q388 206 421.5 171.5 Q455 137 455 90 Q455 45 422 10.5 Q389 -24 341 -24 Q294 -24 260.5 9.5 Q227 43 227 90 Q227 138 260 172 Q293 206 341 206 Z " />
<glyph glyph-name="nobreakspace" unicode="&#xa0;" horiz-adv-x="512" d="" />
<glyph glyph-name="Agrave" unicode="&#xc0;" horiz-adv-x="1479" d="M914 526 L677 1090 L443 526 L914 526 Z M30 0 L30 37 Q109 46 148.5 97 Q188 148 284 374 L711 1379 L751 1379 L1261 218 Q1312 102 1342.5 74.5 Q1373 47 1445 37 L1445 0 L924 0 L924 37 Q1014 45 1040 56.5 Q1066 68 1066 113 Q1066 128 1056 166 Q1046 204 1028 246 L943 443 L407 443 Q327 242 311.5 197.5 Q296 153 296 127 Q296 75 338 55 Q364 43 436 37 L436 0 L30 0 Z M893 1479 L810 1479 L495 1678 Q462 1699 447.5 1719 Q433 1739 433 1765 Q433 1794 454 1812.5 Q475 1831 502 1831 Q528 1831 550 1816.5 Q572 1802 592 1782 L893 1479 Z " />
<glyph glyph-name="Atilde" unicode="&#xc3;" horiz-adv-x="1479" d="M914 526 L677 1090 L443 526 L914 526 Z M30 0 L30 37 Q109 46 148.5 97 Q188 148 284 374 L711 1379 L751 1379 L1261 218 Q1312 102 1342.5 74.5 Q1373 47 1445 37 L1445 0 L924 0 L924 37 Q1014 45 1040 56.5 Q1066 68 1066 113 Q1066 128 1056 166 Q1046 204 1028 246 L943 443 L407 443 Q327 242 311.5 197.5 Q296 153 296 127 Q296 75 338 55 Q364 43 436 37 L436 0 L30 0 Z M795 1675 Q830 1658 851.5 1651.5 Q873 1645 893 1645 Q944 1645 977 1683 Q999 1707 1011 1747 L1070 1747 Q1065 1693 1031 1635 Q969 1531 851 1531 Q809 1531 772.5 1543 Q736 1555 691 1578 L644 1602 Q627 1610 605.5 1616.5 Q584 1623 566 1623 Q515 1623 485 1589 Q469 1570 454 1531 L392 1531 Q418 1638 478 1687.5 Q538 1737 609 1737 Q642 1737 674.5 1727.5 Q707 1718 746 1699 L795 1675 Z " />
<glyph glyph-name="Otilde" unicode="&#xd5;" horiz-adv-x="1479" d="M293 677 Q293 354 420 199.5 Q547 45 732 45 Q913 45 1041.5 195.5 Q1170 346 1170 677 Q1170 1012 1040 1161 Q910 1310 732 1310 Q548 1310 420.5 1155.5 Q293 1001 293 677 Z M61 677 Q61 1005 267 1203 Q456 1384 732 1384 Q1009 1384 1198 1202 Q1403 1005 1403 677 Q1403 344 1191 147 Q1001 -29 732 -29 Q444 -29 254 166 Q61 365 61 677 Z M796 1680 Q831 1663 852.5 1656.5 Q874 1650 894 1650 Q945 1650 978 1688 Q1000 1712 1012 1752 L1071 1752 Q1066 1698 1032 1640 Q970 1536 852 1536 Q810 1536 773.5 1548 Q737 1560 692 1583 L645 1607 Q628 1615 606.5 1621.5 Q585 1628 567 1628 Q516 1628 486 1594 Q470 1575 455 1536 L393 1536 Q419 1643 479 1692.5 Q539 1742 610 1742 Q643 1742 675.5 1732.5 Q708 1723 747 1704 L796 1680 Z " />
<glyph glyph-name="OE" unicode="&#x152;" horiz-adv-x="1821" d="M672 64 Q799 64 840 117 Q881 170 881 267 L881 1078 Q881 1167 856 1213 Q810 1296 678 1296 Q513 1296 402 1146.5 Q291 997 291 677 Q291 419 374.5 241.5 Q458 64 672 64 Z M726 1367 Q768 1367 884.5 1361 Q1001 1355 1047 1355 L1716 1355 L1716 1066 L1668 1066 Q1648 1211 1580.5 1246.5 Q1513 1282 1273 1282 Q1140 1282 1112.5 1273.5 Q1085 1265 1085 1232 L1085 749 Q1416 749 1479.5 775 Q1543 801 1559 948 L1604 948 L1604 469 L1559 469 Q1550 600 1495.5 634.5 Q1441 669 1273 669 Q1231 669 1190 668.5 Q1149 668 1087 668 L1087 177 Q1087 122 1104 105.5 Q1121 89 1154 85 Q1177 82 1203 81 Q1229 80 1306 80 Q1500 80 1583.5 122.5 Q1667 165 1763 343 L1813 343 L1723 0 L1005 0 Q950 0 815.5 -6 Q681 -12 670 -12 Q307 -12 152 275 Q56 451 56 681 Q56 905 159 1080 Q329 1367 726 1367 Z " />
<glyph glyph-name="oe" unicode="&#x153;" horiz-adv-x="1479" d="M1031 888 Q951 888 903 822.5 Q855 757 858 635 L1185 635 Q1187 644 1187.5 650.5 Q1188 657 1188 665 Q1188 732 1164 790 Q1124 888 1031 888 Z M489 37 Q622 37 672 189 Q701 277 701 427 Q701 582 671 687 Q615 888 464 888 Q322 888 269 734 Q241 652 241 525 Q241 352 295 194.5 Q349 37 489 37 Z M786 791 Q834 869 901 908.5 Q968 948 1055 948 Q1160 948 1244 888 Q1379 792 1379 573 L860 573 Q868 399 903 302 Q967 125 1121 125 Q1211 125 1289 189 Q1332 225 1391 303 L1415 289 Q1339 145 1281 85 Q1183 -17 1049 -17 Q935 -17 861 56 Q820 97 784 175 Q739 84 664.5 31 Q590 -22 478 -22 Q289 -22 172 116 Q55 254 55 448 Q55 651 179.5 800 Q304 949 494 949 Q607 949 675 903 Q743 857 786 791 Z " />
<glyph glyph-name="endash" unicode="&#x2013;" horiz-adv-x="1024" d="M1023 511 L1023 412 L-5 412 L-5 511 L1023 511 Z " />
<glyph glyph-name="emdash" unicode="&#x2014;" horiz-adv-x="2048" d="M1801 511 L1801 412 L241 412 L241 511 L1801 511 Z " />
<glyph glyph-name="quotedblleft" unicode="&#x201c;" horiz-adv-x="909" d="M55 1070 Q55 1165 126.5 1253 Q198 1341 286 1381 L305 1341 Q235 1301 185.5 1241.5 Q136 1182 136 1121 Q136 1109 143.5 1103 Q151 1097 163 1097 Q228 1104 233 1104 Q266 1104 304.5 1080 Q343 1056 343 998 Q343 949 311 915 Q279 881 220 881 Q151 881 103 934.5 Q55 988 55 1070 Z M525 1062 Q525 1169 597.5 1255.5 Q670 1342 756 1381 L775 1341 Q705 1301 655.5 1242.5 Q606 1184 606 1123 Q606 1112 612 1104.5 Q618 1097 633 1097 Q697 1104 703 1104 Q740 1104 776.5 1077.5 Q813 1051 813 999 Q813 958 784.5 919.5 Q756 881 689 881 Q617 881 571 936.5 Q525 992 525 1062 Z " />
<glyph glyph-name="quotedblright" unicode="&#x201d;" horiz-adv-x="909" d="M827 1195 Q827 1099 755.5 1011 Q684 923 597 884 L578 924 Q684 985 726 1067 Q747 1109 747 1144 Q747 1155 739.5 1161.5 Q732 1168 719 1168 Q660 1161 651 1161 Q611 1161 575.5 1188 Q540 1215 540 1267 Q540 1317 572 1350.5 Q604 1384 663 1384 Q732 1384 779.5 1330.5 Q827 1277 827 1195 Z M358 1203 Q358 1093 284.5 1007.5 Q211 922 127 884 L109 924 Q180 969 228.5 1023.5 Q277 1078 277 1141 Q277 1152 271.5 1160 Q266 1168 251 1168 Q191 1161 181 1161 Q148 1161 118 1179 Q71 1208 71 1269 Q71 1311 101 1347.5 Q131 1384 194 1384 Q266 1384 312 1329 Q358 1274 358 1203 Z " />
<glyph glyph-name="quoteleft" unicode="&#x2018;" horiz-adv-x="682" d="M186 1062 Q186 1169 258.5 1255.5 Q331 1342 417 1381 L436 1341 Q330 1280 288 1198 Q267 1157 267 1123 Q267 1112 273 1104.5 Q279 1097 294 1097 Q359 1104 364 1104 Q401 1104 437.5 1077.5 Q474 1051 474 999 Q474 958 445.5 919.5 Q417 881 350 881 Q278 881 232 936.5 Q186 992 186 1062 Z " />
<glyph glyph-name="quoteright" unicode="&#x2019;" horiz-adv-x="682" d="M479 1201 Q479 1096 406.5 1009 Q334 922 248 884 L229 924 Q299 964 348.5 1022.5 Q398 1081 398 1142 Q398 1156 390 1162 Q382 1168 371 1168 Q312 1161 302 1161 Q263 1161 227 1188 Q191 1215 191 1268 Q191 1307 220 1345.5 Q249 1384 315 1384 Q384 1384 431.5 1331.5 Q479 1279 479 1201 Z " />
<glyph glyph-name="divide" unicode="&#xf7;" horiz-adv-x="1124" d="M564 260 Q610 260 642.5 227 Q675 194 675 149 Q675 103 642.5 70 Q610 37 564 37 Q518 37 485 70 Q452 103 452 149 Q452 194 484.5 227 Q517 260 564 260 Z M1080 587 L1080 447 L47 447 L47 587 L1080 587 Z M564 997 Q610 997 642.5 964 Q675 931 675 886 Q675 840 642.5 807.5 Q610 775 564 775 Q517 775 484.5 807.5 Q452 840 452 886 Q452 931 484.5 964 Q517 997 564 997 Z " />
<glyph glyph-name="lozenge" unicode="&#x25ca;" horiz-adv-x="1012" d="M507 1367 L900 689 L507 -8 L113 689 L507 1367 Z M798 689 L507 1199 L215 689 L507 161 L798 689 Z " />
<glyph glyph-name="ydieresis" unicode="&#xff;" horiz-adv-x="1024" d="M28 919 L450 919 L450 888 Q400 887 376 879 Q330 866 330 828 Q330 814 335 799.5 Q340 785 353 756 L587 237 L775 760 Q778 768 784.5 796 Q791 824 791 834 Q791 860 773 872 Q755 884 727 886 L696 888 L696 919 L971 919 L971 888 Q930 883 909.5 860 Q889 837 874 796 L559 -38 Q477 -254 402 -351 Q327 -448 212 -448 Q156 -448 107 -420 Q58 -392 58 -331 Q58 -291 87.5 -265.5 Q117 -240 162 -240 Q188 -240 239.5 -259 Q291 -278 313 -278 Q369 -278 431 -148 Q493 -18 493 26 Q493 35 490 48 Q487 61 483 71 L163 763 Q129 837 103.5 860.5 Q78 884 28 891 L28 919 Z M810 1173 Q810 1131 780.5 1101 Q751 1071 708 1071 Q666 1071 636 1101 Q606 1131 606 1173 Q606 1215 636 1245 Q666 1275 708 1275 Q751 1275 780.5 1245 Q810 1215 810 1173 Z M199 1173 Q199 1215 228.5 1245 Q258 1275 300 1275 Q343 1275 372.5 1245 Q402 1215 402 1173 Q402 1131 372.5 1101 Q343 1071 300 1071 Q258 1071 228.5 1101 Q199 1131 199 1173 Z " />
<glyph glyph-name="Ydieresis" unicode="&#x178;" horiz-adv-x="1479" d="M618 1355 L618 1317 Q546 1319 510 1306 Q474 1293 474 1250 Q474 1237 480 1217.5 Q486 1198 507 1166 L810 711 L1104 1173 Q1122 1202 1127.5 1221 Q1133 1240 1133 1249 Q1133 1293 1086 1307 Q1058 1316 990 1317 L990 1355 L1438 1355 L1438 1317 Q1376 1314 1327 1280 Q1251 1227 1156 1083 L853 621 L853 222 Q853 103 891.5 73.5 Q930 44 1064 37 L1064 0 L438 0 L438 37 Q577 45 610.5 78.5 Q644 112 644 246 L644 602 L376 995 Q237 1198 181 1255.5 Q125 1313 45 1317 L45 1355 L618 1355 Z M1047 1590 Q1047 1548 1017.5 1518 Q988 1488 945 1488 Q903 1488 873 1518 Q843 1548 843 1590 Q843 1632 873 1662 Q903 1692 945 1692 Q988 1692 1017.5 1662 Q1047 1632 1047 1590 Z M436 1590 Q436 1632 465.5 1662 Q495 1692 537 1692 Q580 1692 609.5 1662 Q639 1632 639 1590 Q639 1548 609.5 1518 Q580 1488 537 1488 Q495 1488 465.5 1518 Q436 1548 436 1590 Z " />
<glyph glyph-name="fraction" unicode="&#x2044;" horiz-adv-x="342" d="M682 1379 L-242 -15 L-342 -15 L587 1379 L682 1379 Z " />
<glyph glyph-name="Euro" unicode="&#x20ac;" horiz-adv-x="1524" d="M1167 715 L26 715 L74 825 L1213 825 L1167 715 Z M1073 495 L26 495 L74 605 L1121 605 L1073 495 Z M1292 149 Q1119 0 864 0 Q584 0 394 190 Q204 380 204 660 Q204 940 394 1130 Q584 1320 864 1320 Q1144 1320 1340 1124 L1292 1013 Q1109 1210 864 1210 Q634 1210 474 1050 Q314 890 314 660 Q314 430 474 270 Q634 110 864 110 Q1114 110 1292 311 L1292 149 Z " />
<glyph glyph-name="guilsinglleft" unicode="&#x2039;" horiz-adv-x="682" d="M559 73 Q553 73 547.5 77 Q542 81 535 89 Q525 99 496.5 126.5 Q468 154 464 158 L241 362 L127 459 Q165 497 229 554 Q310 626 347 659 Q436 740 491 797 Q521 827 538 842.5 Q555 858 561 858 Q570 858 576.5 851 Q583 844 583 835 Q583 825 553.5 776.5 Q524 728 488 677 Q452 627 399 563 Q346 499 343 495.5 Q340 492 317 464 Q409 352 494.5 233.5 Q580 115 580 96 Q580 85 574 79 Q568 73 559 73 Z " />
<glyph glyph-name="guilsinglright" unicode="&#x203a;" horiz-adv-x="682" d="M87 96 Q87 119 203 274 Q279 376 350 464 Q199 653 155 713 Q85 808 85 836 Q85 846 91.5 852 Q98 858 106 858 Q113 858 127.5 844.5 Q142 831 176 797 Q266 705 403 584.5 Q540 464 540 459 L533 452 L521 443 L426 362 L203 158 Q188 144 160 115 Q132 86 120 78 L108 73 Q99 73 93 79 Q87 85 87 96 Z " />
<glyph glyph-name="fi" unicode="&#xfb01;" horiz-adv-x="1139" d="M66 28 Q144 31 175 58 Q206 85 206 191 L206 853 L63 853 L63 914 L206 914 Q208 1131 318.5 1260.5 Q429 1390 654 1390 Q750 1390 830 1346 Q910 1302 910 1242 Q910 1211 888.5 1188.5 Q867 1166 834 1166 Q788 1166 727 1251.5 Q666 1337 594 1337 Q521 1337 479 1312.5 Q437 1288 401 1221 Q381 1171 375 1116.5 Q369 1062 369 914 L661 914 Q698 914 744.5 916 Q791 918 823 922 Q832 923 870.5 931 Q909 939 918 939 Q923 939 928 935 Q933 931 933 920 Q933 911 929 862 L928 820 Q927 798 926.5 777 Q926 756 926 734 L926 199 Q926 94 955.5 66 Q985 38 1066 28 L1066 0 L616 0 L616 30 Q712 39 735 66 Q758 93 758 199 L758 739 Q758 810 737.5 828.5 Q717 847 647 850 Q598 851 574 852 Q503 853 369 853 L369 180 Q369 89 412 56 Q439 35 516 28 L516 0 L66 0 L66 28 Z " />
<glyph glyph-name="fl" unicode="&#xfb02;" horiz-adv-x="1139" d="M66 28 Q162 44 185 70.5 Q208 97 208 215 L208 853 L66 853 L66 914 L210 914 Q215 1034 227 1092 Q246 1185 298 1258 Q333 1306 384 1340 Q463 1391 561 1391 Q626 1391 693.5 1365 Q761 1339 777 1339 Q783 1339 789 1340 Q795 1341 801 1343 L900 1381 Q908 1384 913.5 1386 Q919 1388 924 1389 Q933 1383 935 1378 Q937 1373 936 1360 L933 1270 L933 165 Q933 87 957.5 62 Q982 37 1066 28 L1066 0 L625 0 L625 28 Q701 39 725 58 Q763 88 763 173 L763 853 L376 853 L376 161 Q376 96 406 65.5 Q436 35 523 28 L523 0 L66 0 L66 28 Z M763 1201 Q756 1195 748.5 1192 Q741 1189 726 1189 Q666 1189 620.5 1261.5 Q575 1334 520 1334 Q424 1334 397 1218 Q379 1145 379 914 L763 914 L763 1201 Z " />
<glyph glyph-name="daggerdbl" unicode="&#x2021;" horiz-adv-x="1024" d="M204 1005 Q231 1005 300 972.5 Q369 940 483 933 Q485 1054 448.5 1157.5 Q412 1261 412 1290 Q412 1338 438.5 1361 Q465 1384 505 1384 Q543 1384 571 1358.5 Q599 1333 599 1284 Q599 1251 562.5 1164.5 Q526 1078 526 933 Q633 941 706.5 973 Q780 1005 813 1005 Q865 1005 888 966 Q903 941 903 912 Q903 882 893 861 Q873 822 821 822 Q791 822 703.5 859.5 Q616 897 526 895 Q526 752 539 684 Q552 616 609 533 Q553 451 539.5 388.5 Q526 326 526 173 Q616 171 699.5 208.5 Q783 246 822 246 Q859 246 883 217 Q903 186 903 154 Q903 117 876.5 90 Q850 63 814 63 Q779 63 712 94.5 Q645 126 526 135 Q526 -28 563 -103.5 Q600 -179 600 -215 Q600 -264 570 -290 Q540 -316 505 -316 Q474 -316 442 -294 Q410 -272 410 -217 Q410 -188 447.5 -88.5 Q485 11 483 135 Q385 135 313 99 Q241 63 198 63 Q160 63 134.5 88.5 Q109 114 109 153 Q109 190 131.5 215.5 Q154 241 196 241 Q241 241 319 209 Q397 177 440 175 L483 173 Q487 306 465 398.5 Q443 491 398 533 Q441 597 457 650 Q483 737 483 895 Q399 893 316 860 Q233 827 197 827 Q152 827 130.5 853.5 Q109 880 109 916 Q109 952 134 978.5 Q159 1005 204 1005 Z " />
<glyph glyph-name="middot" unicode="&#xb7;" horiz-adv-x="512" d="M220 796 Q272 796 307.5 761.5 Q343 727 343 679 Q343 628 307.5 594.5 Q272 561 223 561 Q172 561 139 596.5 Q106 632 106 679 Q106 727 140 761.5 Q174 796 220 796 Z " />
<glyph glyph-name="quotesinglbase" unicode="&#x201a;" horiz-adv-x="682" d="M476 32 Q476 -64 397 -154.5 Q318 -245 246 -273 L227 -233 Q315 -179 355 -117.5 Q395 -56 395 -18 Q395 -4 388.5 3.5 Q382 11 369 11 L301 4 Q271 4 243 19 Q191 46 191 110 Q191 166 225.5 196.5 Q260 227 308 227 Q382 227 429 174.5 Q476 122 476 32 Z " />
<glyph glyph-name="quotedblbase" unicode="&#x201e;" horiz-adv-x="909" d="M827 20 Q827 -79 754 -167 Q681 -255 597 -292 L578 -252 Q647 -213 697 -152.5 Q747 -92 747 -30 Q747 -19 739.5 -13.5 Q732 -8 719 -8 Q655 -15 650 -15 Q612 -15 576 12 Q540 39 540 91 Q540 140 572 174 Q604 208 663 208 Q732 208 779.5 155 Q827 102 827 20 Z M358 28 Q358 -86 282 -171 Q206 -256 127 -292 L109 -252 Q216 -184 256 -111 Q277 -72 277 -33 Q277 -23 272.5 -15.5 Q268 -8 251 -8 Q186 -15 181 -15 Q146 -15 120 -1 Q71 25 71 94 Q71 135 100.5 171.5 Q130 208 194 208 Q266 208 312 153 Q358 98 358 28 Z " />
<glyph glyph-name="perthousand" unicode="&#x2030;" horiz-adv-x="2048" d="M1099 676 Q1168 676 1218 636 Q1295 574 1295 432 Q1295 261 1196 110 Q1097 -41 963 -41 Q862 -41 786.5 31 Q711 103 711 244 Q711 411 832 543.5 Q953 676 1099 676 Z M281 722 Q385 722 465.5 856 Q546 990 546 1140 Q546 1209 540.5 1223.5 Q535 1238 503 1255 Q477 1269 452.5 1287.5 Q428 1306 405 1329 Q287 1293 223.5 1139 Q160 985 160 874 Q160 797 192.5 759.5 Q225 722 281 722 Z M403 1386 Q464 1386 543 1316.5 Q622 1247 742 1247 Q828 1247 883 1282.5 Q938 1318 1071 1445 L1161 1445 L279 -38 L184 -38 L976 1291 Q938 1251 875.5 1222.5 Q813 1194 721 1194 Q701 1194 675 1198 Q625 1205 587 1223 Q591 1206 593 1192 Q595 1178 595 1155 Q595 966 497.5 817 Q400 668 256 668 Q163 668 88.5 741.5 Q14 815 14 959 Q14 1123 134.5 1254.5 Q255 1386 403 1386 Z M1661 14 Q1769 14 1850 150 Q1931 286 1931 433 Q1931 496 1909 544 Q1875 616 1801 616 Q1694 616 1617 450.5 Q1540 285 1540 164 Q1540 107 1569.5 60.5 Q1599 14 1661 14 Z M1774 675 Q1875 675 1927 608.5 Q1979 542 1979 431 Q1979 274 1888 117.5 Q1797 -39 1642 -39 Q1540 -39 1466.5 36 Q1393 111 1393 244 Q1393 399 1507 537 Q1621 675 1774 675 Z M857 164 Q857 103 887 59.5 Q917 16 971 16 Q1094 16 1170 159 Q1246 302 1246 429 Q1246 540 1194 588 Q1162 618 1119 618 Q1014 618 935.5 454.5 Q857 291 857 164 Z " />
<glyph glyph-name="Acircumflex" unicode="&#xc2;" horiz-adv-x="1479" d="M914 526 L677 1090 L443 526 L914 526 Z M30 0 L30 37 Q109 46 148.5 97 Q188 148 284 374 L711 1379 L751 1379 L1261 218 Q1312 102 1342.5 74.5 Q1373 47 1445 37 L1445 0 L924 0 L924 37 Q1014 45 1040 56.5 Q1066 68 1066 113 Q1066 128 1056 166 Q1046 204 1028 246 L943 443 L407 443 Q327 242 311.5 197.5 Q296 153 296 127 Q296 75 338 55 Q364 43 436 37 L436 0 L30 0 Z M411 1479 L667 1820 L795 1820 L1051 1479 L980 1479 L731 1690 L482 1479 L411 1479 Z " />
<glyph glyph-name="Ecircumflex" unicode="&#xca;" horiz-adv-x="1251" d="M23 37 Q136 49 169.5 77.5 Q203 106 203 222 L203 1133 Q203 1242 170 1275.5 Q137 1309 23 1317 L23 1355 L1111 1355 L1118 1061 L1066 1061 Q1040 1197 988 1237 Q936 1277 756 1277 L478 1277 Q433 1277 422.5 1262.5 Q412 1248 412 1208 L412 751 L727 751 Q858 751 894 790 Q930 829 952 948 L1000 948 L1000 474 L952 474 Q929 593 893 631.5 Q857 670 727 670 L412 670 L412 163 Q412 102 450.5 91 Q489 80 681 80 Q889 80 988 125.5 Q1087 171 1166 346 L1223 346 L1130 0 L23 0 L23 37 Z M307 1455 L563 1796 L691 1796 L947 1455 L876 1455 L627 1666 L378 1455 L307 1455 Z " />
<glyph glyph-name="Aacute" unicode="&#xc1;" horiz-adv-x="1479" d="M914 526 L677 1090 L443 526 L914 526 Z M30 0 L30 37 Q109 46 148.5 97 Q188 148 284 374 L711 1379 L751 1379 L1261 218 Q1312 102 1342.5 74.5 Q1373 47 1445 37 L1445 0 L924 0 L924 37 Q1014 45 1040 56.5 Q1066 68 1066 113 Q1066 128 1056 166 Q1046 204 1028 246 L943 443 L407 443 Q327 242 311.5 197.5 Q296 153 296 127 Q296 75 338 55 Q364 43 436 37 L436 0 L30 0 Z M1047 1765 Q1047 1736 1031 1717 Q1015 1698 984 1678 L669 1479 L586 1479 L887 1782 Q903 1798 927 1815 Q951 1832 978 1832 Q1004 1832 1025.5 1813.5 Q1047 1795 1047 1765 Z " />
<glyph glyph-name="Edieresis" unicode="&#xcb;" horiz-adv-x="1251" d="M23 37 Q136 49 169.5 77.5 Q203 106 203 222 L203 1133 Q203 1242 170 1275.5 Q137 1309 23 1317 L23 1355 L1111 1355 L1118 1061 L1066 1061 Q1040 1197 988 1237 Q936 1277 756 1277 L478 1277 Q433 1277 422.5 1262.5 Q412 1248 412 1208 L412 751 L727 751 Q858 751 894 790 Q930 829 952 948 L1000 948 L1000 474 L952 474 Q929 593 893 631.5 Q857 670 727 670 L412 670 L412 163 Q412 102 450.5 91 Q489 80 681 80 Q889 80 988 125.5 Q1087 171 1166 346 L1223 346 L1130 0 L23 0 L23 37 Z M933 1590 Q933 1548 903.5 1518 Q874 1488 831 1488 Q789 1488 759 1518 Q729 1548 729 1590 Q729 1632 759 1662 Q789 1692 831 1692 Q874 1692 903.5 1662 Q933 1632 933 1590 Z M322 1590 Q322 1632 351.5 1662 Q381 1692 423 1692 Q466 1692 495.5 1662 Q525 1632 525 1590 Q525 1548 495.5 1518 Q466 1488 423 1488 Q381 1488 351.5 1518 Q322 1548 322 1590 Z " />
<glyph glyph-name="Egrave" unicode="&#xc8;" horiz-adv-x="1251" d="M23 37 Q136 49 169.5 77.5 Q203 106 203 222 L203 1133 Q203 1242 170 1275.5 Q137 1309 23 1317 L23 1355 L1111 1355 L1118 1061 L1066 1061 Q1040 1197 988 1237 Q936 1277 756 1277 L478 1277 Q433 1277 422.5 1262.5 Q412 1248 412 1208 L412 751 L727 751 Q858 751 894 790 Q930 829 952 948 L1000 948 L1000 474 L952 474 Q929 593 893 631.5 Q857 670 727 670 L412 670 L412 163 Q412 102 450.5 91 Q489 80 681 80 Q889 80 988 125.5 Q1087 171 1166 346 L1223 346 L1130 0 L23 0 L23 37 Z M789 1455 L706 1455 L391 1654 Q358 1675 343.5 1695 Q329 1715 329 1741 Q329 1770 350 1788.5 Q371 1807 398 1807 Q424 1807 446 1792.5 Q468 1778 488 1758 L789 1455 Z " />
<glyph glyph-name="Iacute" unicode="&#xcd;" horiz-adv-x="682" d="M33 37 Q158 46 195 74.5 Q232 103 232 222 L232 1133 Q232 1246 195 1278.5 Q158 1311 33 1317 L33 1355 L639 1355 L639 1317 Q514 1311 477 1278.5 Q440 1246 440 1133 L440 222 Q440 103 477 74.5 Q514 46 639 37 L639 0 L33 0 L33 37 Z M652 1741 Q652 1712 636 1693 Q620 1674 589 1654 L274 1455 L191 1455 L492 1758 Q508 1774 532 1791 Q556 1808 583 1808 Q609 1808 630.5 1789.5 Q652 1771 652 1741 Z " />
<glyph glyph-name="Icircumflex" unicode="&#xce;" horiz-adv-x="682" d="M33 37 Q158 46 195 74.5 Q232 103 232 222 L232 1133 Q232 1246 195 1278.5 Q158 1311 33 1317 L33 1355 L639 1355 L639 1317 Q514 1311 477 1278.5 Q440 1246 440 1133 L440 222 Q440 103 477 74.5 Q514 46 639 37 L639 0 L33 0 L33 37 Z M16 1455 L272 1796 L400 1796 L656 1455 L585 1455 L336 1666 L87 1455 L16 1455 Z " />
<glyph glyph-name="Idieresis" unicode="&#xcf;" horiz-adv-x="682" d="M33 37 Q158 46 195 74.5 Q232 103 232 222 L232 1133 Q232 1246 195 1278.5 Q158 1311 33 1317 L33 1355 L639 1355 L639 1317 Q514 1311 477 1278.5 Q440 1246 440 1133 L440 222 Q440 103 477 74.5 Q514 46 639 37 L639 0 L33 0 L33 37 Z M642 1590 Q642 1548 612.5 1518 Q583 1488 540 1488 Q498 1488 468 1518 Q438 1548 438 1590 Q438 1632 468 1662 Q498 1692 540 1692 Q583 1692 612.5 1662 Q642 1632 642 1590 Z M31 1590 Q31 1632 60.5 1662 Q90 1692 132 1692 Q175 1692 204.5 1662 Q234 1632 234 1590 Q234 1548 204.5 1518 Q175 1488 132 1488 Q90 1488 60.5 1518 Q31 1548 31 1590 Z " />
<glyph glyph-name="Igrave" unicode="&#xcc;" horiz-adv-x="682" d="M33 37 Q158 46 195 74.5 Q232 103 232 222 L232 1133 Q232 1246 195 1278.5 Q158 1311 33 1317 L33 1355 L639 1355 L639 1317 Q514 1311 477 1278.5 Q440 1246 440 1133 L440 222 Q440 103 477 74.5 Q514 46 639 37 L639 0 L33 0 L33 37 Z M498 1455 L415 1455 L100 1654 Q67 1675 52.5 1695 Q38 1715 38 1741 Q38 1770 59 1788.5 Q80 1807 107 1807 Q133 1807 155 1792.5 Q177 1778 197 1758 L498 1455 Z " />
<glyph glyph-name="Oacute" unicode="&#xd3;" horiz-adv-x="1479" d="M293 677 Q293 354 420 199.5 Q547 45 732 45 Q913 45 1041.5 195.5 Q1170 346 1170 677 Q1170 1012 1040 1161 Q910 1310 732 1310 Q548 1310 420.5 1155.5 Q293 1001 293 677 Z M61 677 Q61 1005 267 1203 Q456 1384 732 1384 Q1009 1384 1198 1202 Q1403 1005 1403 677 Q1403 344 1191 147 Q1001 -29 732 -29 Q444 -29 254 166 Q61 365 61 677 Z M1048 1770 Q1048 1741 1032 1722 Q1016 1703 985 1683 L670 1484 L587 1484 L888 1787 Q904 1803 928 1820 Q952 1837 979 1837 Q1005 1837 1026.5 1818.5 Q1048 1800 1048 1770 Z " />
<glyph glyph-name="Ocircumflex" unicode="&#xd4;" horiz-adv-x="1479" d="M293 677 Q293 354 420 199.5 Q547 45 732 45 Q913 45 1041.5 195.5 Q1170 346 1170 677 Q1170 1012 1040 1161 Q910 1310 732 1310 Q548 1310 420.5 1155.5 Q293 1001 293 677 Z M61 677 Q61 1005 267 1203 Q456 1384 732 1384 Q1009 1384 1198 1202 Q1403 1005 1403 677 Q1403 344 1191 147 Q1001 -29 732 -29 Q444 -29 254 166 Q61 365 61 677 Z M412 1484 L668 1825 L796 1825 L1052 1484 L981 1484 L732 1695 L483 1484 L412 1484 Z " />
<glyph glyph-name="apple" unicode="&#xf8ff;" horiz-adv-x="1618" d="M512 1266 Q587 1266 693.5 1235 Q800 1204 835 1204 Q880 1204 982 1239 Q1084 1274 1159 1274 Q1282 1274 1378 1208 Q1432 1170 1485 1105 Q1405 1037 1368 984 Q1301 888 1301 772 Q1301 645 1372 543 Q1443 441 1534 414 Q1496 291 1408 157 Q1275 -44 1144 -44 Q1092 -44 1000.5 -11 Q909 22 846 22 Q783 22 699.5 -12.5 Q616 -47 564 -47 Q407 -47 256 219 Q105 482 105 735 Q105 970 220.5 1118 Q336 1266 512 1266 Z M1142 1660 Q1146 1647 1147 1637 Q1148 1627 1148 1617 Q1148 1553 1118 1477 Q1088 1401 1023 1336 Q967 1281 912 1262 Q877 1251 806 1245 Q808 1397 885.5 1508 Q963 1619 1142 1660 Z " />
<glyph glyph-name="Ograve" unicode="&#xd2;" horiz-adv-x="1479" d="M293 677 Q293 354 420 199.5 Q547 45 732 45 Q913 45 1041.5 195.5 Q1170 346 1170 677 Q1170 1012 1040 1161 Q910 1310 732 1310 Q548 1310 420.5 1155.5 Q293 1001 293 677 Z M61 677 Q61 1005 267 1203 Q456 1384 732 1384 Q1009 1384 1198 1202 Q1403 1005 1403 677 Q1403 344 1191 147 Q1001 -29 732 -29 Q444 -29 254 166 Q61 365 61 677 Z M894 1484 L811 1484 L496 1683 Q463 1704 448.5 1724 Q434 1744 434 1770 Q434 1799 455 1817.5 Q476 1836 503 1836 Q529 1836 551 1821.5 Q573 1807 593 1787 L894 1484 Z " />
<glyph glyph-name="Uacute" unicode="&#xda;" horiz-adv-x="1479" d="M609 1355 L609 1317 Q491 1309 456 1277.5 Q421 1246 421 1133 L421 478 Q421 317 465 227 Q547 63 776 63 Q1027 63 1113 231 Q1161 325 1161 521 L1161 1054 Q1161 1221 1121 1263.5 Q1081 1306 969 1317 L969 1355 L1443 1355 L1443 1317 Q1324 1304 1287.5 1259.5 Q1251 1215 1251 1054 L1251 521 Q1251 309 1186 190 Q1066 -29 730 -29 Q398 -29 278 187 Q213 303 213 493 L213 1133 Q213 1245 178.5 1276.5 Q144 1308 28 1317 L28 1355 L609 1355 Z M1057 1741 Q1057 1712 1041 1693 Q1025 1674 994 1654 L679 1455 L596 1455 L897 1758 Q913 1774 937 1791 Q961 1808 988 1808 Q1014 1808 1035.5 1789.5 Q1057 1771 1057 1741 Z " />
<glyph glyph-name="Ucircumflex" unicode="&#xdb;" horiz-adv-x="1479" d="M609 1355 L609 1317 Q491 1309 456 1277.5 Q421 1246 421 1133 L421 478 Q421 317 465 227 Q547 63 776 63 Q1027 63 1113 231 Q1161 325 1161 521 L1161 1054 Q1161 1221 1121 1263.5 Q1081 1306 969 1317 L969 1355 L1443 1355 L1443 1317 Q1324 1304 1287.5 1259.5 Q1251 1215 1251 1054 L1251 521 Q1251 309 1186 190 Q1066 -29 730 -29 Q398 -29 278 187 Q213 303 213 493 L213 1133 Q213 1245 178.5 1276.5 Q144 1308 28 1317 L28 1355 L609 1355 Z M421 1455 L677 1796 L805 1796 L1061 1455 L990 1455 L741 1666 L492 1455 L421 1455 Z " />
<glyph glyph-name="Ugrave" unicode="&#xd9;" horiz-adv-x="1479" d="M609 1355 L609 1317 Q491 1309 456 1277.5 Q421 1246 421 1133 L421 478 Q421 317 465 227 Q547 63 776 63 Q1027 63 1113 231 Q1161 325 1161 521 L1161 1054 Q1161 1221 1121 1263.5 Q1081 1306 969 1317 L969 1355 L1443 1355 L1443 1317 Q1324 1304 1287.5 1259.5 Q1251 1215 1251 1054 L1251 521 Q1251 309 1186 190 Q1066 -29 730 -29 Q398 -29 278 187 Q213 303 213 493 L213 1133 Q213 1245 178.5 1276.5 Q144 1308 28 1317 L28 1355 L609 1355 Z M903 1455 L820 1455 L505 1654 Q472 1675 457.5 1695 Q443 1715 443 1741 Q443 1770 464 1788.5 Q485 1807 512 1807 Q538 1807 560 1792.5 Q582 1778 602 1758 L903 1455 Z " />
<glyph glyph-name="dotlessi" unicode="&#x131;" horiz-adv-x="569" d="M40 28 Q147 38 175 64.5 Q203 91 203 208 L203 685 Q203 750 194 775 Q179 816 131 816 Q120 816 109.5 814 Q99 812 49 798 L49 829 L92 843 Q267 900 336 929 Q364 941 372 941 Q374 934 374 926 L374 208 Q374 94 401.5 65 Q429 36 526 28 L526 0 L40 0 L40 28 Z " />
<glyph glyph-name="circumflex" unicode="&#x2c6;" horiz-adv-x="682" d="M-34 1038 L222 1379 L350 1379 L606 1038 L535 1038 L286 1249 L37 1038 L-34 1038 Z " />
<glyph glyph-name="tilde" unicode="&#x2dc;" horiz-adv-x="682" d="M350 1234 Q385 1217 406.5 1210.5 Q428 1204 448 1204 Q499 1204 532 1242 Q554 1266 566 1306 L625 1306 Q620 1252 586 1194 Q524 1090 406 1090 Q364 1090 327.5 1102 Q291 1114 246 1137 L199 1161 Q182 1169 160.5 1175.5 Q139 1182 121 1182 Q70 1182 40 1148 Q24 1129 9 1090 L-53 1090 Q-27 1197 33 1246.5 Q93 1296 164 1296 Q197 1296 229.5 1286.5 Q262 1277 301 1258 L350 1234 Z " />
<glyph glyph-name="overscore" unicode="&#xaf;" horiz-adv-x="682" d="M-34 1230 L606 1230 L606 1121 L-34 1121 L-34 1230 Z " />
<glyph glyph-name="breve" unicode="&#x2d8;" horiz-adv-x="682" d="M575 1360 Q562 1230 517 1159 Q442 1038 270 1038 Q190 1038 127 1078 Q6 1156 -3 1360 L59 1360 Q72 1267 129 1214.5 Q186 1162 292 1162 Q399 1162 456 1233 Q487 1272 514 1360 L575 1360 Z " />
<glyph glyph-name="dotaccent" unicode="&#x2d9;" horiz-adv-x="682" d="M388 1173 Q388 1131 358.5 1101 Q329 1071 286 1071 Q244 1071 214 1101 Q184 1131 184 1173 Q184 1215 214 1245 Q244 1275 286 1275 Q329 1275 358.5 1245 Q388 1215 388 1173 Z " />
<glyph glyph-name="ring" unicode="&#x2da;" horiz-adv-x="682" d="M215 1256 Q215 1203 252 1166.5 Q289 1130 341 1130 Q393 1130 429.5 1167 Q466 1204 466 1256 Q466 1308 429.5 1344.5 Q393 1381 341 1381 Q289 1381 252 1344.5 Q215 1308 215 1256 Z M132 1256 Q132 1342 193.5 1403 Q255 1464 341 1464 Q427 1464 488 1403 Q549 1342 549 1256 Q549 1169 488 1108 Q427 1047 341 1047 Q254 1047 193 1108 Q132 1169 132 1256 Z " />
<glyph glyph-name="cedilla" unicode="&#xb8;" horiz-adv-x="682" d="M229 0 L301 0 L248 -136 Q267 -132 280.5 -130 Q294 -128 310 -128 Q386 -128 432 -168 Q478 -208 478 -271 Q478 -344 415 -394 Q352 -444 220 -444 Q195 -444 162 -439 Q104 -431 52 -411 L80 -347 L111 -356 Q123 -360 150.5 -365 Q178 -370 206 -370 Q250 -370 276 -359 Q325 -340 325 -285 Q325 -245 300 -225.5 Q275 -206 236 -206 Q206 -206 191.5 -208.5 Q177 -211 158 -216 L144 -204 L229 0 Z " />
<glyph glyph-name="hungarumlaut" unicode="&#x2dd;" horiz-adv-x="682" d="M711 1321 Q711 1298 696 1277.5 Q681 1257 649 1237 L334 1038 L251 1038 L552 1341 Q579 1369 602.5 1380 Q626 1391 642 1391 Q669 1391 690 1371.5 Q711 1352 711 1321 Z M237 1341 Q259 1367 275 1379.5 Q291 1392 315 1392 Q348 1392 367 1370.5 Q386 1349 386 1321 Q386 1294 369.5 1273.5 Q353 1253 334 1237 L56 1019 L-27 1019 L237 1341 Z " />
<glyph glyph-name="ogonek" unicode="&#x2db;" horiz-adv-x="682" d="M701 92 Q653 16 632 -47.5 Q611 -111 611 -175 Q611 -233 647.5 -268.5 Q684 -304 734 -304 Q766 -304 804 -289 Q827 -279 862 -259 L862 -375 Q819 -400 773.5 -413.5 Q728 -427 682 -427 Q595 -427 533 -372 Q471 -317 471 -237 Q471 -181 494 -125 Q538 -17 658 92 L701 92 Z " />
<glyph glyph-name="caron" unicode="&#x2c7;" horiz-adv-x="682" d="M606 1379 L350 1038 L222 1038 L-34 1379 L37 1379 L286 1168 L535 1379 L606 1379 Z " />
<glyph glyph-name="Lslash" unicode="&#x141;" horiz-adv-x="1251" d="M23 37 Q136 49 169.5 77.5 Q203 106 203 222 L203 526 L4 388 L4 507 L203 644 L203 1133 Q203 1242 170 1275.5 Q137 1309 23 1317 L23 1355 L602 1355 L602 1317 Q489 1311 450.5 1280 Q412 1249 412 1147 L412 756 L675 943 L675 824 L412 637 L412 163 Q412 107 441 93.5 Q470 80 551 80 Q876 80 977 121 Q1078 162 1173 355 L1225 355 L1125 0 L23 0 L23 37 Z " />
<glyph glyph-name="lslash" unicode="&#x142;" horiz-adv-x="569" d="M42 28 Q129 36 165 63.5 Q201 91 201 177 L201 673 L30 545 L30 658 L201 786 L201 1154 Q201 1223 190 1247 Q171 1287 110 1287 Q95 1287 80 1284 Q65 1281 37 1275 L37 1308 Q172 1344 266 1374 Q360 1404 362 1404 Q369 1404 370.5 1398 Q372 1392 372 1372 L372 900 L571 1052 L571 938 L372 786 L372 173 Q372 86 402 60.5 Q432 35 526 28 L526 0 L42 0 L42 28 Z " />
<glyph glyph-name="Scaron" unicode="&#x160;" horiz-adv-x="1139" d="M132 412 Q184 274 254 192 Q376 49 557 49 Q655 49 726.5 111 Q798 173 798 284 Q798 384 726 458 Q679 505 528 599 L353 708 Q274 758 227 809 Q140 906 140 1023 Q140 1178 243 1281 Q346 1384 516 1384 Q586 1384 684.5 1349.5 Q783 1315 797 1315 Q835 1315 849.5 1333 Q864 1351 872 1384 L914 1384 L959 948 L910 948 Q860 1145 749.5 1223 Q639 1301 531 1301 Q447 1301 384.5 1251.5 Q322 1202 322 1114 Q322 1035 370 979 Q418 922 519 860 L699 749 Q868 645 937 558 Q1005 470 1005 350 Q1005 189 883.5 81 Q762 -27 573 -27 Q478 -27 374.5 9 Q271 45 256 45 Q220 45 207.5 23 Q195 1 191 -24 L146 -24 L85 412 L132 412 Z M890 1825 L634 1484 L506 1484 L250 1825 L321 1825 L570 1614 L819 1825 L890 1825 Z " />
<glyph glyph-name="scaron" unicode="&#x161;" horiz-adv-x="797" d="M106 315 L139 315 Q162 201 201 140 Q271 28 406 28 Q481 28 524.5 69.5 Q568 111 568 177 Q568 219 543 258 Q518 297 455 334 L343 398 Q220 464 162 531 Q104 598 104 689 Q104 801 184 873 Q264 945 385 945 Q438 945 501.5 925 Q565 905 573 905 Q591 905 599 910 Q607 915 613 926 L637 926 L644 647 L613 647 Q593 744 559 798 Q497 898 380 898 Q310 898 270 855 Q230 812 230 754 Q230 662 368 590 L500 519 Q713 403 713 249 Q713 131 624.5 56 Q536 -19 393 -19 Q333 -19 257 1 Q181 21 167 21 Q155 21 146 12.5 Q137 4 132 -8 L106 -8 L106 315 Z M719 1386 L463 1045 L335 1045 L79 1386 L150 1386 L399 1175 L648 1386 L719 1386 Z " />
<glyph glyph-name="Zcaron" unicode="&#x17d;" horiz-adv-x="1251" d="M14 23 L912 1277 L440 1277 Q262 1277 187 1188 Q142 1135 116 1005 L63 1005 L104 1355 L1185 1355 L1185 1332 L296 78 L822 78 Q1001 78 1083 163 Q1134 217 1175 360 L1223 360 L1173 0 L14 0 L14 23 Z M947 1796 L691 1455 L563 1455 L307 1796 L378 1796 L627 1585 L876 1796 L947 1796 Z " />
<glyph glyph-name="zcaron" unicode="&#x17e;" horiz-adv-x="909" d="M829 919 L829 895 L274 63 L557 63 Q704 63 743 100.5 Q782 138 820 284 L855 277 L827 0 L52 0 L52 23 L599 858 L331 858 Q223 858 190 821 Q157 784 144 677 L109 677 L113 919 L829 919 Z M776 1379 L520 1038 L392 1038 L136 1379 L207 1379 L456 1168 L705 1379 L776 1379 Z " />
<glyph glyph-name="brokenbar" unicode="&#xa6;" horiz-adv-x="410" d="M135 0 L135 540 L274 540 L274 0 L135 0 Z M274 858 L135 858 L135 1398 L274 1398 L274 858 Z " />
<glyph glyph-name="Eth" unicode="&#xd0;" horiz-adv-x="1479" d="M33 37 Q145 49 179 77.5 Q213 106 213 222 L213 644 L33 644 L33 734 L213 734 L213 1133 Q213 1245 180 1277 Q147 1309 33 1317 L33 1355 L585 1355 Q942 1355 1153 1208 Q1403 1033 1403 673 Q1403 540 1349.5 398 Q1296 256 1154 149 Q1074 89 988 58 Q831 0 602 0 L33 0 L33 37 Z M421 158 Q421 108 445.5 92 Q470 76 547 76 Q787 76 942 171 Q1180 317 1180 670 Q1180 985 984 1144 Q816 1280 539 1280 Q470 1280 445.5 1265 Q421 1250 421 1199 L421 734 L763 734 L763 644 L421 644 L421 158 Z " />
<glyph glyph-name="eth" unicode="&#xf0;" horiz-adv-x="1024" d="M480 878 Q398 878 341 827 Q239 736 239 512 Q239 334 319.5 180 Q400 26 538 26 Q655 26 714.5 127.5 Q774 229 774 379 Q774 603 693 740.5 Q612 878 480 878 Z M477 937 Q564 937 641 902 Q683 883 732 846 Q707 952 653 1044.5 Q599 1137 542 1175 L336 1061 L291 1114 L477 1219 Q417 1251 353 1274 Q289 1297 194 1315 L213 1377 Q274 1370 302 1365 Q345 1358 393 1346 Q448 1331 485.5 1316 Q523 1301 578 1275 L794 1391 L839 1341 L651 1234 Q809 1125 885 939.5 Q961 754 961 537 Q961 300 836.5 134.5 Q712 -31 512 -31 Q331 -31 192.5 102.5 Q54 236 54 459 Q54 669 178.5 803 Q303 937 477 937 Z " />
<glyph glyph-name="Yacute" unicode="&#xdd;" horiz-adv-x="1479" d="M618 1355 L618 1317 Q546 1319 510 1306 Q474 1293 474 1250 Q474 1237 480 1217.5 Q486 1198 507 1166 L810 711 L1104 1173 Q1122 1202 1127.5 1221 Q1133 1240 1133 1249 Q1133 1293 1086 1307 Q1058 1316 990 1317 L990 1355 L1438 1355 L1438 1317 Q1376 1314 1327 1280 Q1251 1227 1156 1083 L853 621 L853 222 Q853 103 891.5 73.5 Q930 44 1064 37 L1064 0 L438 0 L438 37 Q577 45 610.5 78.5 Q644 112 644 246 L644 602 L376 995 Q237 1198 181 1255.5 Q125 1313 45 1317 L45 1355 L618 1355 Z M1057 1741 Q1057 1712 1041 1693 Q1025 1674 994 1654 L679 1455 L596 1455 L897 1758 Q913 1774 937 1791 Q961 1808 988 1808 Q1014 1808 1035.5 1789.5 Q1057 1771 1057 1741 Z " />
<glyph glyph-name="yacute" unicode="&#xfd;" horiz-adv-x="1024" d="M28 919 L450 919 L450 888 Q400 887 376 879 Q330 866 330 828 Q330 814 335 799.5 Q340 785 353 756 L587 237 L775 760 Q778 768 784.5 796 Q791 824 791 834 Q791 860 773 872 Q755 884 727 886 L696 888 L696 919 L971 919 L971 888 Q930 883 909.5 860 Q889 837 874 796 L559 -38 Q477 -254 402 -351 Q327 -448 212 -448 Q156 -448 107 -420 Q58 -392 58 -331 Q58 -291 87.5 -265.5 Q117 -240 162 -240 Q188 -240 239.5 -259 Q291 -278 313 -278 Q369 -278 431 -148 Q493 -18 493 26 Q493 35 490 48 Q487 61 483 71 L163 763 Q129 837 103.5 860.5 Q78 884 28 891 L28 919 Z M820 1324 Q820 1295 804 1276 Q788 1257 757 1237 L442 1038 L359 1038 L660 1341 Q676 1357 700 1374 Q724 1391 751 1391 Q777 1391 798.5 1372.5 Q820 1354 820 1324 Z " />
<glyph glyph-name="Thorn" unicode="&#xde;" horiz-adv-x="1139" d="M33 37 Q143 47 175.5 82.5 Q208 118 208 246 L208 1133 Q208 1240 175.5 1274 Q143 1308 33 1317 L33 1355 L597 1355 L597 1317 Q486 1313 448 1284 Q410 1255 410 1166 Q410 1154 410.5 1147.5 Q411 1141 412 1114 L571 1114 Q733 1114 875 1069 Q1106 991 1106 753 Q1106 653 1052.5 553 Q999 453 877 402 Q790 366 665 355 Q588 348 412 348 L412 264 Q412 123 443.5 85 Q475 47 606 37 L606 0 L33 0 L33 37 Z M889 771 Q889 940 745 1005 Q663 1042 536 1042 Q447 1042 429.5 1024 Q412 1006 412 933 L412 431 L484 428 Q636 428 725 471 Q889 550 889 771 Z " />
<glyph glyph-name="thorn" unicode="&#xfe;" horiz-adv-x="1024" d="M331 184 Q356 119 409.5 84 Q463 49 530 49 Q701 49 766 237 Q800 336 800 473 Q800 631 719 726.5 Q638 822 527 822 Q455 822 393 776.5 Q331 731 331 687 L331 184 Z M14 -413 Q95 -403 124.5 -375.5 Q154 -348 154 -266 L154 1144 Q154 1209 130.5 1239.5 Q107 1270 54 1270 Q47 1270 39.5 1269.5 Q32 1269 23 1268 L23 1303 Q113 1325 192.5 1348.5 Q272 1372 324 1393 L329 1389 L329 791 Q397 861 459 901 Q531 945 622 945 Q779 945 876.5 819.5 Q974 694 974 511 Q974 306 859 141 Q733 -24 550 -24 Q491 -24 451 -10 Q387 11 331 71 L331 -256 Q331 -356 364.5 -379.5 Q398 -403 509 -411 L509 -446 L14 -446 L14 -413 Z " />
<glyph glyph-name="minus" unicode="&#x2212;" horiz-adv-x="1155" d="M61 587 L1095 587 L1095 447 L61 447 L61 587 Z " />
<glyph glyph-name="multiply" unicode="&#xd7;" horiz-adv-x="1155" d="M1069 125 L969 26 L575 417 L184 26 L85 125 L476 519 L85 910 L184 1009 L575 618 L969 1009 L1069 910 L675 519 L1069 125 Z " />
<glyph glyph-name="onesuperior" unicode="&#xb9;" horiz-adv-x="614" d="M144 554 Q222 562 246 576.5 Q270 591 270 647 L270 1211 Q270 1240 262.5 1255 Q255 1270 227 1270 Q211 1270 199.5 1267 Q188 1264 135 1244 L135 1261 L161 1272 L374 1374 Q376 1375 378 1375 Q380 1375 381 1374 Q383 1372 383 1370.5 Q383 1369 383 1362 L383 647 Q383 591 412 576.5 Q441 562 509 554 L509 538 L144 538 L144 554 Z " />
<glyph glyph-name="twosuperior" unicode="&#xb2;" horiz-adv-x="614" d="M9 549 Q267 798 343 893.5 Q419 989 419 1093 Q419 1176 362.5 1226 Q306 1276 240 1276 Q158 1276 107 1222 Q76 1190 42 1114 L7 1123 Q30 1240 107.5 1307 Q185 1374 288 1374 Q392 1374 462.5 1308 Q533 1242 533 1149 Q533 1053 480 966.5 Q427 880 270 741 L149 623 Q179 623 242 622 Q305 621 335 621 Q471 621 501 631.5 Q531 642 571 706 L594 696 L528 528 L9 528 L9 549 Z " />
<glyph glyph-name="threesuperior" unicode="&#xb3;" horiz-adv-x="614" d="M70 636 Q97 636 164 604.5 Q231 573 274 573 Q358 573 400.5 633 Q443 693 443 752 Q443 875 335 921 Q279 945 196 945 L168 945 L168 969 Q297 994 352 1065 Q387 1109 387 1161 Q387 1247 318 1280 Q283 1297 237 1297 Q163 1297 109 1246 Q80 1219 52 1166 L26 1170 Q41 1243 108 1308.5 Q175 1374 286 1374 Q391 1374 442 1321 Q493 1268 493 1206 Q493 1161 465 1115.5 Q437 1070 374 1033 Q451 1006 494.5 949 Q538 892 538 808 Q538 688 444.5 602.5 Q351 517 172 517 Q106 517 64 539 Q22 561 22 591 Q22 611 35.5 623.5 Q49 636 70 636 Z " />
<glyph glyph-name="onehalf" unicode="&#xbd;" horiz-adv-x="1536" d="M118 545 Q189 549 216.5 567.5 Q244 586 244 637 L244 1201 Q244 1229 237 1245 Q230 1261 203 1261 Q187 1261 165.5 1254.5 Q144 1248 109 1234 L109 1251 L348 1365 Q350 1366 352 1366 Q354 1366 355 1365 Q357 1362 357 1360.5 Q357 1359 357 1353 L357 637 Q357 586 379 567.5 Q401 549 483 545 L483 528 L118 528 L118 545 Z M810 11 Q1068 260 1144 355.5 Q1220 451 1220 555 Q1220 640 1163 689 Q1106 738 1043 738 Q961 738 919 696 Q877 654 843 575 L808 585 Q840 707 908 771.5 Q976 836 1089 836 Q1189 836 1261.5 777 Q1334 718 1334 616 Q1334 520 1277.5 429.5 Q1221 339 1071 203 L950 85 Q980 85 1043.5 84 Q1107 83 1137 83 Q1273 83 1302 93.5 Q1331 104 1372 168 L1396 158 L1329 -10 L810 -10 L810 11 Z M1090 1379 L1185 1379 L327 -15 L227 -15 L1090 1379 Z " />
<glyph glyph-name="onequarter" unicode="&#xbc;" horiz-adv-x="1536" d="M118 545 Q189 549 216.5 567.5 Q244 586 244 637 L244 1201 Q244 1229 237 1245 Q230 1261 203 1261 Q187 1261 165.5 1254.5 Q144 1248 109 1234 L109 1251 L348 1365 Q350 1366 352 1366 Q354 1366 355 1365 Q357 1362 357 1360.5 Q357 1359 357 1353 L357 637 Q357 586 379 567.5 Q401 549 483 545 L483 528 L118 528 L118 545 Z M1123 699 L805 274 L1123 274 L1123 699 Z M1166 824 L1227 824 L1227 274 L1365 274 L1365 194 L1227 194 L1227 -10 L1125 -10 L1125 194 L751 194 L751 274 L1166 824 Z M1279 1379 L355 -15 L255 -15 L1185 1379 L1279 1379 Z " />
<glyph glyph-name="threequarters" unicode="&#xbe;" horiz-adv-x="1536" d="M103 626 Q127 626 195 595 Q263 564 304 564 Q397 564 435.5 626.5 Q474 689 474 743 Q474 856 379 904 Q317 936 227 936 L199 936 L199 959 Q288 979 353 1024 Q418 1069 418 1152 Q418 1232 356 1266 Q317 1288 265 1288 Q225 1288 189 1270 Q126 1239 82 1156 L56 1161 Q82 1253 152 1309 Q222 1365 317 1365 Q418 1365 470.5 1313.5 Q523 1262 523 1199 Q523 1133 476 1080 Q450 1051 405 1023 Q475 1001 521.5 945 Q568 889 568 803 Q568 665 467 586.5 Q366 508 207 508 Q130 508 91.5 531 Q53 554 53 582 Q53 604 68.5 615 Q84 626 103 626 Z M1137 699 L820 274 L1137 274 L1137 699 Z M1180 824 L1242 824 L1242 274 L1379 274 L1379 194 L1242 194 L1242 -10 L1140 -10 L1140 194 L765 194 L765 274 L1180 824 Z M1294 1379 L369 -15 L270 -15 L1199 1379 L1294 1379 Z " />
<glyph glyph-name="franc" unicode="&#x20a3;" horiz-adv-x="1024" d="M843 474 L796 474 Q773 593 737 631.5 Q701 670 571 670 L355 670 L355 433 L651 433 L651 353 L355 353 L355 222 Q355 109 389.5 77.5 Q424 46 540 37 L540 0 L0 0 L0 37 Q120 50 150 81.5 Q180 113 180 246 L180 353 L0 353 L0 433 L180 433 L180 1133 Q180 1243 146.5 1276 Q113 1309 0 1317 L0 1355 L976 1355 L983 1061 L926 1061 Q904 1203 847 1240 Q790 1277 618 1277 L419 1277 Q380 1277 367.5 1263.5 Q355 1250 355 1208 L355 751 L571 751 Q701 751 737.5 790 Q774 829 796 948 L843 948 L843 474 Z " />
<glyph glyph-name="Gbreve" unicode="&#x11e;" horiz-adv-x="1479" d="M758 1379 Q877 1379 992 1346 Q1107 1313 1124 1313 Q1168 1313 1186.5 1330 Q1205 1347 1218 1379 L1263 1379 L1279 948 L1232 948 Q1169 1097 1102 1170 Q981 1298 787 1298 Q590 1298 440.5 1148.5 Q291 999 291 656 Q291 373 440 214 Q589 55 808 55 Q845 55 895 62 Q945 69 990 84 Q1063 108 1081 125.5 Q1099 143 1099 177 L1099 504 Q1099 622 1065.5 651 Q1032 680 919 687 L919 725 L1441 725 L1441 687 Q1365 682 1340 662 Q1298 630 1298 530 L1298 127 Q1298 91 1121.5 31 Q945 -29 782 -29 Q482 -29 276 146 Q49 339 49 664 Q49 950 230 1154 Q429 1379 758 1379 Z M1014 1801 Q1001 1671 956 1600 Q881 1479 709 1479 Q629 1479 566 1519 Q445 1597 436 1801 L498 1801 Q511 1708 568 1655.5 Q625 1603 731 1603 Q838 1603 895 1674 Q926 1713 953 1801 L1014 1801 Z " />
<glyph glyph-name="gbreve" unicode="&#x11f;" horiz-adv-x="1024" d="M201 -185 Q201 -269 295.5 -301 Q390 -333 512 -333 Q678 -333 782 -275.5 Q886 -218 886 -134 Q886 -67 802 -45 Q750 -32 605 -30 Q568 -29 527 -27.5 Q486 -26 452 -24 Q430 -23 381 -16 Q332 -9 308 -4 Q296 -4 249 -67 Q201 -131 201 -185 Z M331 336 Q240 366 189.5 443 Q139 520 139 616 Q139 733 232 838 Q325 943 495 943 Q568 943 656 908.5 Q744 874 825 874 Q846 874 888.5 875.5 Q931 877 950 877 L962 877 L962 796 L789 796 Q807 754 817 723 Q834 665 834 613 Q834 499 739.5 403.5 Q645 308 485 308 Q460 308 395 317 Q366 317 318.5 268 Q271 219 271 188 Q271 156 341 141 Q387 131 443 131 Q700 131 792 102 Q943 55 943 -100 Q943 -258 766.5 -352 Q590 -446 410 -446 Q246 -446 150 -379.5 Q54 -313 54 -240 Q54 -204 79.5 -169.5 Q105 -135 180 -67 L246 -8 L258 4 Q212 22 189 39 Q149 70 149 110 Q149 147 183.5 191.5 Q218 236 331 336 Z M521 356 Q576 356 613 386 Q673 434 673 553 Q673 648 624.5 767 Q576 886 463 886 Q365 886 328 793 Q309 744 309 672 Q309 550 368 453 Q427 356 521 356 Z M802 1365 Q789 1235 744 1164 Q669 1043 497 1043 Q417 1043 354 1083 Q233 1161 224 1365 L286 1365 Q299 1272 356 1219.5 Q413 1167 519 1167 Q626 1167 683 1238 Q714 1277 741 1365 L802 1365 Z " />
<glyph glyph-name="Idot" unicode="&#x130;" horiz-adv-x="682" d="M33 37 Q158 46 195 74.5 Q232 103 232 222 L232 1133 Q232 1246 195 1278.5 Q158 1311 33 1317 L33 1355 L639 1355 L639 1317 Q514 1311 477 1278.5 Q440 1246 440 1133 L440 222 Q440 103 477 74.5 Q514 46 639 37 L639 0 L33 0 L33 37 Z M438 1590 Q438 1548 408.5 1518 Q379 1488 336 1488 Q294 1488 264 1518 Q234 1548 234 1590 Q234 1632 264 1662 Q294 1692 336 1692 Q379 1692 408.5 1662 Q438 1632 438 1590 Z " />
<glyph glyph-name="Scedilla" unicode="&#x15e;" horiz-adv-x="1139" d="M132 412 Q184 274 254 192 Q376 49 557 49 Q655 49 726.5 111 Q798 173 798 284 Q798 384 726 458 Q679 505 528 599 L353 708 Q274 758 227 809 Q140 906 140 1023 Q140 1178 243 1281 Q346 1384 516 1384 Q586 1384 684.5 1349.5 Q783 1315 797 1315 Q835 1315 849.5 1333 Q864 1351 872 1384 L914 1384 L959 948 L910 948 Q860 1145 749.5 1223 Q639 1301 531 1301 Q447 1301 384.5 1251.5 Q322 1202 322 1114 Q322 1035 370 978.5 Q418 922 519 860 L699 749 Q868 645 936.5 557.5 Q1005 470 1005 350 Q1005 189 883.5 81 Q762 -27 574 -27 L532 -136 Q551 -132 564.5 -130 Q578 -128 594 -128 Q670 -128 716 -168 Q762 -208 762 -271 Q762 -344 699 -394 Q636 -444 504 -444 Q479 -444 446 -439 Q388 -431 336 -411 L364 -347 L395 -356 Q407 -360 434.5 -365 Q462 -370 490 -370 Q534 -370 560 -359 Q609 -340 609 -285 Q609 -245 584 -225.5 Q559 -206 520 -206 Q490 -206 475.5 -208.5 Q461 -211 442 -216 L428 -204 L503 -27 Q483 -27 377 5 Q271 45 256 45 Q220 45 207.5 23 Q195 1 191 -24 L146 -24 L85 412 L132 412 Z " />
<glyph glyph-name="scedilla" unicode="&#x15f;" horiz-adv-x="797" d="M106 315 L139 315 Q162 201 201 140 Q271 28 406 28 Q481 28 524.5 69.5 Q568 111 568 177 Q568 219 543 258 Q518 297 455 334 L343 398 Q220 464 162 531 Q104 598 104 689 Q104 801 184 873 Q264 945 385 945 Q438 945 501.5 925 Q565 905 573 905 Q591 905 599 910 Q607 915 613 926 L637 926 L644 647 L613 647 Q593 744 559 798 Q497 898 380 898 Q310 898 270 855 Q230 812 230 754 Q230 662 368 590 L500 519 Q713 403 713 249 Q713 131 624.5 56 Q536 -19 408 -19 L361 -136 Q380 -132 393.5 -130 Q407 -128 423 -128 Q499 -128 545 -168 Q591 -208 591 -271 Q591 -344 528 -394 Q465 -444 333 -444 Q308 -444 275 -439 Q217 -431 165 -411 L193 -347 L224 -356 Q236 -360 263.5 -365 Q291 -370 319 -370 Q363 -370 389 -359 Q438 -340 438 -285 Q438 -245 413 -225.5 Q388 -206 349 -206 Q319 -206 304.5 -208.5 Q290 -211 271 -216 L257 -204 L335 -19 Q313 -19 247 1 Q181 21 167 21 Q155 21 146 12.5 Q137 4 132 -8 L106 -8 L106 315 Z " />
<glyph glyph-name="Cacute" unicode="&#x106;" horiz-adv-x="1366" d="M758 1379 Q869 1379 986 1346 Q1103 1313 1117 1313 Q1146 1313 1172 1329 Q1198 1345 1208 1379 L1251 1379 L1270 919 L1223 919 Q1182 1056 1116 1140 Q990 1298 777 1298 Q562 1298 425.5 1128 Q289 958 289 660 Q289 386 432.5 222.5 Q576 59 796 59 Q955 59 1089 135 Q1166 178 1258 265 L1296 227 Q1228 141 1127 76 Q955 -34 754 -34 Q424 -34 230 177 Q51 372 51 664 Q51 963 240 1166 Q439 1379 758 1379 Z M1067 1765 Q1067 1736 1051 1717 Q1035 1698 1004 1678 L689 1479 L606 1479 L907 1782 Q923 1798 947 1815 Q971 1832 998 1832 Q1024 1832 1045.5 1813.5 Q1067 1795 1067 1765 Z " />
<glyph glyph-name="cacute" unicode="&#x107;" horiz-adv-x="909" d="M509 943 Q634 943 724.5 878.5 Q815 814 815 737 Q815 704 792 675.5 Q769 647 721 647 Q686 647 659.5 671 Q633 695 621 741 L609 789 Q596 842 564 864 Q531 885 477 885 Q363 885 284.5 785.5 Q206 686 206 521 Q206 370 292.5 250 Q379 130 526 130 Q630 130 711 198 Q757 237 815 322 L843 305 Q786 185 723 115 Q602 -19 443 -19 Q287 -19 167 104 Q47 227 47 438 Q47 645 178 794 Q309 943 509 943 Z M781 1329 Q781 1300 765 1281 Q749 1262 718 1242 L403 1043 L320 1043 L621 1346 Q637 1362 661 1379 Q685 1396 712 1396 Q738 1396 759.5 1377.5 Q781 1359 781 1329 Z " />
<glyph glyph-name="Ccaron" unicode="&#x10c;" horiz-adv-x="1366" d="M758 1379 Q869 1379 986 1346 Q1103 1313 1117 1313 Q1146 1313 1172 1329 Q1198 1345 1208 1379 L1251 1379 L1270 919 L1223 919 Q1182 1056 1116 1140 Q990 1298 777 1298 Q562 1298 425.5 1128 Q289 958 289 660 Q289 386 432.5 222.5 Q576 59 796 59 Q955 59 1089 135 Q1166 178 1258 265 L1296 227 Q1228 141 1127 76 Q955 -34 754 -34 Q424 -34 230 177 Q51 372 51 664 Q51 963 240 1166 Q439 1379 758 1379 Z M1071 1820 L815 1479 L687 1479 L431 1820 L502 1820 L751 1609 L1000 1820 L1071 1820 Z " />
<glyph glyph-name="ccaron" unicode="&#x10d;" horiz-adv-x="909" d="M509 943 Q634 943 724.5 878.5 Q815 814 815 737 Q815 704 792 675.5 Q769 647 721 647 Q686 647 659.5 671 Q633 695 621 741 L609 789 Q596 842 564 864 Q531 885 477 885 Q363 885 284.5 785.5 Q206 686 206 521 Q206 370 292.5 250 Q379 130 526 130 Q630 130 711 198 Q757 237 815 322 L843 305 Q786 185 723 115 Q602 -19 443 -19 Q287 -19 167 104 Q47 227 47 438 Q47 645 178 794 Q309 943 509 943 Z M785 1384 L529 1043 L401 1043 L145 1384 L216 1384 L465 1173 L714 1384 L785 1384 Z " />
<glyph glyph-name="dslash" unicode="&#x111;" horiz-adv-x="1024" d="M485 945 Q558 945 619 913 Q659 892 696 855 L696 1063 L384 1063 L384 1152 L696 1152 Q696 1234 682.5 1257 Q669 1280 618 1280 Q606 1280 597 1279 Q588 1278 557 1275 L557 1308 L639 1329 Q684 1341 729 1354 Q774 1367 808 1379 Q824 1384 842 1391 Q860 1398 861 1398 Q863 1398 864 1397.5 Q865 1397 867 1396 L865 1291 Q864 1234 862 1152 L1024 1152 L1024 1063 L860 1063 L860 237 Q860 172 876 146 Q892 120 961 120 Q972 120 983 120.5 Q994 121 1005 123 L1005 90 Q999 88 929 64 Q859 40 860 40 L703 -19 Q701 -20 698.5 -16.5 Q696 -13 696 -10 L696 113 Q640 52 599 26 Q526 -19 430 -19 Q260 -19 154.5 112.5 Q49 244 49 417 Q49 634 175.5 789.5 Q302 945 485 945 Z M522 89 Q600 89 648 135 Q696 181 696 222 L696 651 Q696 781 626.5 834.5 Q557 888 491 888 Q365 888 295 776.5 Q225 665 225 502 Q225 341 299.5 215 Q374 89 522 89 Z " />
<glyph glyph-name="Amacron" unicode="&#x100;" horiz-adv-x="1479" d="M914 526 L677 1090 L443 526 L914 526 Z M30 0 L30 37 Q109 46 148.5 97 Q188 148 284 374 L711 1379 L751 1379 L1261 218 Q1312 102 1342.5 74.5 Q1373 47 1445 37 L1445 0 L924 0 L924 37 Q1014 45 1040 56.5 Q1066 68 1066 113 Q1066 128 1056 166 Q1046 204 1028 246 L943 443 L407 443 Q327 242 311.5 197.5 Q296 153 296 127 Q296 75 338 55 Q364 43 436 37 L436 0 L30 0 Z M417 1590 L1057 1590 L1057 1481 L417 1481 L417 1590 Z " />
<glyph glyph-name="amacron" unicode="&#x101;" horiz-adv-x="909" d="M587 554 Q472 516 397 470 Q253 381 253 268 Q253 177 313 134 Q352 106 400 106 Q466 106 526.5 143 Q587 180 587 237 L587 554 Z M75 199 Q75 344 220 441 Q312 501 587 604 L587 689 Q587 791 567 831 Q533 898 426 898 Q375 898 329 872 Q283 845 283 798 Q283 786 288 757.5 Q293 729 293 721 Q293 665 256 643 Q235 630 206 630 Q161 630 137 659.5 Q113 689 113 725 Q113 795 199.5 871.5 Q286 948 453 948 Q647 948 716 822 Q753 753 753 621 L753 220 Q753 162 761 140 Q774 101 815 101 Q838 101 853 108 Q868 115 905 142 L905 90 Q873 51 836 26 Q780 -12 722 -12 Q654 -12 623.5 32 Q593 76 590 137 Q514 71 460 39 Q369 -15 287 -15 Q201 -15 138 45.5 Q75 106 75 199 Z M170 1163 L810 1163 L810 1054 L170 1054 L170 1163 Z " />
<glyph glyph-name="Abreve" unicode="&#x102;" horiz-adv-x="1479" d="M914 526 L677 1090 L443 526 L914 526 Z M30 0 L30 37 Q109 46 148.5 97 Q188 148 284 374 L711 1379 L751 1379 L1261 218 Q1312 102 1342.5 74.5 Q1373 47 1445 37 L1445 0 L924 0 L924 37 Q1014 45 1040 56.5 Q1066 68 1066 113 Q1066 128 1056 166 Q1046 204 1028 246 L943 443 L407 443 Q327 242 311.5 197.5 Q296 153 296 127 Q296 75 338 55 Q364 43 436 37 L436 0 L30 0 Z M1026 1799 Q1013 1669 968 1598 Q893 1477 721 1477 Q641 1477 578 1517 Q457 1595 448 1799 L510 1799 Q523 1706 580 1653.5 Q637 1601 743 1601 Q850 1601 907 1672 Q938 1711 965 1799 L1026 1799 Z " />
<glyph glyph-name="abreve" unicode="&#x103;" horiz-adv-x="909" d="M587 554 Q472 516 397 470 Q253 381 253 268 Q253 177 313 134 Q352 106 400 106 Q466 106 526.5 143 Q587 180 587 237 L587 554 Z M75 199 Q75 344 220 441 Q312 501 587 604 L587 689 Q587 791 567 831 Q533 898 426 898 Q375 898 329 872 Q283 845 283 798 Q283 786 288 757.5 Q293 729 293 721 Q293 665 256 643 Q235 630 206 630 Q161 630 137 659.5 Q113 689 113 725 Q113 795 199.5 871.5 Q286 948 453 948 Q647 948 716 822 Q753 753 753 621 L753 220 Q753 162 761 140 Q774 101 815 101 Q838 101 853 108 Q868 115 905 142 L905 90 Q873 51 836 26 Q780 -12 722 -12 Q654 -12 623.5 32 Q593 76 590 137 Q514 71 460 39 Q369 -15 287 -15 Q201 -15 138 45.5 Q75 106 75 199 Z M763 1395 Q750 1265 705 1194 Q630 1073 458 1073 Q378 1073 315 1113 Q194 1191 185 1395 L247 1395 Q260 1302 317 1249.5 Q374 1197 480 1197 Q587 1197 644 1268 Q675 1307 702 1395 L763 1395 Z " />
<glyph glyph-name="Aogonek" unicode="&#x104;" horiz-adv-x="1479" d="M914 526 L677 1090 L443 526 L914 526 Z M30 0 L30 37 Q109 46 148.5 97 Q188 148 284 374 L711 1379 L751 1379 L1261 218 Q1312 102 1342.5 74.5 Q1373 47 1445 37 L1445 0 L924 0 L924 37 Q1014 45 1040 56.5 Q1066 68 1066 113 Q1066 128 1056 166 Q1046 204 1028 246 L943 443 L407 443 Q327 242 311.5 197.5 Q296 153 296 127 Q296 75 338 55 Q364 43 436 37 L436 0 L30 0 Z M1284 46 Q1236 -30 1215 -93.5 Q1194 -157 1194 -221 Q1194 -279 1230.5 -314.5 Q1267 -350 1317 -350 Q1349 -350 1387 -335 Q1410 -325 1445 -305 L1445 -421 Q1402 -446 1356.5 -459.5 Q1311 -473 1265 -473 Q1178 -473 1116 -418 Q1054 -363 1054 -283 Q1054 -227 1077 -171 Q1121 -63 1241 46 L1284 46 Z " />
<glyph glyph-name="aogonek" unicode="&#x105;" horiz-adv-x="909" d="M587 554 Q472 516 397 470 Q253 381 253 268 Q253 177 313 134 Q352 106 400 106 Q466 106 526.5 143 Q587 180 587 237 L587 554 Z M75 199 Q75 344 220 441 Q312 501 587 604 L587 689 Q587 791 567 831 Q533 898 426 898 Q375 898 329 872 Q283 845 283 798 Q283 786 288 757.5 Q293 729 293 721 Q293 665 256 643 Q235 630 206 630 Q161 630 137 659.5 Q113 689 113 725 Q113 795 199.5 871.5 Q286 948 453 948 Q647 948 716 822 Q753 753 753 621 L753 220 Q753 162 761 140 Q774 101 815 101 Q838 101 853 108 Q868 115 905 142 L905 90 Q873 51 836 26 Q780 -12 722 -12 Q654 -12 623.5 32 Q593 76 590 137 Q514 71 460 39 Q369 -15 287 -15 Q201 -15 138 45.5 Q75 106 75 199 Z M744 31 Q696 -45 675 -108.5 Q654 -172 654 -236 Q654 -294 690.5 -329.5 Q727 -365 777 -365 Q809 -365 847 -350 Q870 -340 905 -320 L905 -436 Q862 -461 816.5 -474.5 Q771 -488 725 -488 Q638 -488 576 -433 Q514 -378 514 -298 Q514 -242 537 -186 Q581 -78 701 31 L744 31 Z " />
<glyph glyph-name="Ccircumflex" unicode="&#x108;" horiz-adv-x="1366" d="M758 1379 Q869 1379 986 1346 Q1103 1313 1117 1313 Q1146 1313 1172 1329 Q1198 1345 1208 1379 L1251 1379 L1270 919 L1223 919 Q1182 1056 1116 1140 Q990 1298 777 1298 Q562 1298 425.5 1128 Q289 958 289 660 Q289 386 432.5 222.5 Q576 59 796 59 Q955 59 1089 135 Q1166 178 1258 265 L1296 227 Q1228 141 1127 76 Q955 -34 754 -34 Q424 -34 230 177 Q51 372 51 664 Q51 963 240 1166 Q439 1379 758 1379 Z M369 1462 L625 1803 L753 1803 L1009 1462 L938 1462 L689 1673 L440 1462 L369 1462 Z " />
<glyph glyph-name="ccircumflex" unicode="&#x109;" horiz-adv-x="909" d="M509 943 Q634 943 724.5 878.5 Q815 814 815 737 Q815 704 792 675.5 Q769 647 721 647 Q686 647 659.5 671 Q633 695 621 741 L609 789 Q596 842 564 864 Q531 885 477 885 Q363 885 284.5 785.5 Q206 686 206 521 Q206 370 292.5 250 Q379 130 526 130 Q630 130 711 198 Q757 237 815 322 L843 305 Q786 185 723 115 Q602 -19 443 -19 Q287 -19 167 104 Q47 227 47 438 Q47 645 178 794 Q309 943 509 943 Z M135 1072 L391 1413 L519 1413 L775 1072 L704 1072 L455 1283 L206 1072 L135 1072 Z " />
<glyph glyph-name="Cdotaccent" unicode="&#x10a;" horiz-adv-x="1366" d="M758 1379 Q869 1379 986 1346 Q1103 1313 1117 1313 Q1146 1313 1172 1329 Q1198 1345 1208 1379 L1251 1379 L1270 919 L1223 919 Q1182 1056 1116 1140 Q990 1298 777 1298 Q562 1298 425.5 1128 Q289 958 289 660 Q289 386 432.5 222.5 Q576 59 796 59 Q955 59 1089 135 Q1166 178 1258 265 L1296 227 Q1228 141 1127 76 Q955 -34 754 -34 Q424 -34 230 177 Q51 372 51 664 Q51 963 240 1166 Q439 1379 758 1379 Z M817 1608 Q817 1566 787.5 1536 Q758 1506 715 1506 Q673 1506 643 1536 Q613 1566 613 1608 Q613 1650 643 1680 Q673 1710 715 1710 Q758 1710 787.5 1680 Q817 1650 817 1608 Z " />
<glyph glyph-name="cdotaccent" unicode="&#x10b;" horiz-adv-x="909" d="M509 943 Q634 943 724.5 878.5 Q815 814 815 737 Q815 704 792 675.5 Q769 647 721 647 Q686 647 659.5 671 Q633 695 621 741 L609 789 Q596 842 564 864 Q531 885 477 885 Q363 885 284.5 785.5 Q206 686 206 521 Q206 370 292.5 250 Q379 130 526 130 Q630 130 711 198 Q757 237 815 322 L843 305 Q786 185 723 115 Q602 -19 443 -19 Q287 -19 167 104 Q47 227 47 438 Q47 645 178 794 Q309 943 509 943 Z M591 1197 Q591 1155 561.5 1125 Q532 1095 489 1095 Q447 1095 417 1125 Q387 1155 387 1197 Q387 1239 417 1269 Q447 1299 489 1299 Q532 1299 561.5 1269 Q591 1239 591 1197 Z " />
<glyph glyph-name="Dcaron" unicode="&#x10e;" horiz-adv-x="1479" d="M421 158 Q421 108 445.5 92 Q470 76 547 76 Q787 76 942 171 Q1180 317 1180 670 Q1180 985 984 1144 Q816 1280 539 1280 Q470 1280 445.5 1265 Q421 1250 421 1199 L421 158 Z M33 37 Q145 49 179 77.5 Q213 106 213 222 L213 1133 Q213 1245 180 1277 Q147 1309 33 1317 L33 1355 L585 1355 Q864 1355 1057 1263 Q1405 1098 1405 673 Q1405 520 1342.5 382 Q1280 244 1154 149 Q1074 89 988 58 Q831 0 602 0 L33 0 L33 37 Z M924 1825 L668 1484 L540 1484 L284 1825 L355 1825 L604 1614 L853 1825 L924 1825 Z " />
<glyph glyph-name="dcaron" unicode="&#x10f;" horiz-adv-x="1239" d="M485 945 Q558 945 619 913 Q659 892 696 855 L696 1173 Q696 1234 682.5 1257 Q669 1280 618 1280 Q606 1280 597 1279 Q588 1278 557 1275 L557 1308 L639 1329 Q684 1341 729 1354 Q774 1367 808 1379 Q824 1384 861 1398 L867 1396 L865 1291 Q864 1234 863 1173.5 Q862 1113 862 1054 L860 237 Q860 172 876 146 Q892 120 961 120 Q972 120 983 120.5 Q994 121 1005 123 L1005 90 Q999 88 860 40 L703 -19 L696 -10 L696 113 Q640 52 599 26 Q526 -19 430 -19 Q260 -19 154.5 112.5 Q49 244 49 417 Q49 634 175.5 789.5 Q302 945 485 945 Z M522 89 Q600 89 648 135 Q696 181 696 222 L696 651 Q696 781 626.5 834.5 Q557 888 491 888 Q365 888 295 776.5 Q225 665 225 502 Q225 341 299.5 215 Q374 89 522 89 Z M1202 1512 Q1202 1411 1129 1324 Q1056 1237 972 1199 L953 1239 Q1049 1293 1085.5 1356 Q1122 1419 1122 1461 Q1122 1475 1113 1479 Q1104 1483 1094 1483 L1027 1476 Q985 1476 950 1503.5 Q915 1531 915 1583 Q915 1623 944 1661 Q973 1699 1039 1699 Q1102 1699 1152 1649.5 Q1202 1600 1202 1512 Z " />
<glyph glyph-name="Emacron" unicode="&#x112;" horiz-adv-x="1251" d="M23 37 Q136 49 169.5 77.5 Q203 106 203 222 L203 1133 Q203 1242 170 1275.5 Q137 1309 23 1317 L23 1355 L1111 1355 L1118 1061 L1066 1061 Q1040 1197 988 1237 Q936 1277 756 1277 L478 1277 Q433 1277 422.5 1262.5 Q412 1248 412 1208 L412 751 L727 751 Q858 751 894 790 Q930 829 952 948 L1000 948 L1000 474 L952 474 Q929 593 893 631.5 Q857 670 727 670 L412 670 L412 163 Q412 102 450.5 91 Q489 80 681 80 Q889 80 988 125.5 Q1087 171 1166 346 L1223 346 L1130 0 L23 0 L23 37 Z M303 1566 L943 1566 L943 1457 L303 1457 L303 1566 Z " />
<glyph glyph-name="emacron" unicode="&#x113;" horiz-adv-x="909" d="M469 938 Q610 938 716 840.5 Q822 743 822 564 L187 564 Q197 332 292 226 Q387 120 517 120 Q622 120 694 175 Q766 230 827 331 L862 319 Q821 192 708.5 84 Q596 -24 433 -24 Q245 -24 142.5 118 Q40 260 40 445 Q40 646 159 792 Q278 938 469 938 Z M411 865 Q297 865 237 764 Q205 710 191 628 L613 628 Q602 728 575 777 Q526 865 411 865 Z M131 1153 L771 1153 L771 1044 L131 1044 L131 1153 Z " />
<glyph glyph-name="Ebreve" unicode="&#x114;" horiz-adv-x="1251" d="M23 37 Q136 49 169.5 77.5 Q203 106 203 222 L203 1133 Q203 1242 170 1275.5 Q137 1309 23 1317 L23 1355 L1111 1355 L1118 1061 L1066 1061 Q1040 1197 988 1237 Q936 1277 756 1277 L478 1277 Q433 1277 422.5 1262.5 Q412 1248 412 1208 L412 751 L727 751 Q858 751 894 790 Q930 829 952 948 L1000 948 L1000 474 L952 474 Q929 593 893 631.5 Q857 670 727 670 L412 670 L412 163 Q412 102 450.5 91 Q489 80 681 80 Q889 80 988 125.5 Q1087 171 1166 346 L1223 346 L1130 0 L23 0 L23 37 Z M897 1801 Q884 1671 839 1600 Q764 1479 592 1479 Q512 1479 449 1519 Q328 1597 319 1801 L381 1801 Q394 1708 451 1655.5 Q508 1603 614 1603 Q721 1603 778 1674 Q809 1713 836 1801 L897 1801 Z " />
<glyph glyph-name="ebreve" unicode="&#x115;" horiz-adv-x="909" d="M469 938 Q610 938 716 840.5 Q822 743 822 564 L187 564 Q197 332 292 226 Q387 120 517 120 Q622 120 694 175 Q766 230 827 331 L862 319 Q821 192 708.5 84 Q596 -24 433 -24 Q245 -24 142.5 118 Q40 260 40 445 Q40 646 159 792 Q278 938 469 938 Z M411 865 Q297 865 237 764 Q205 710 191 628 L613 628 Q602 728 575 777 Q526 865 411 865 Z M740 1405 Q727 1275 682 1204 Q607 1083 435 1083 Q355 1083 292 1123 Q171 1201 162 1405 L224 1405 Q237 1312 294 1259.5 Q351 1207 457 1207 Q564 1207 621 1278 Q652 1317 679 1405 L740 1405 Z " />
<glyph glyph-name="Edotaccent" unicode="&#x116;" horiz-adv-x="1251" d="M23 37 Q136 49 169.5 77.5 Q203 106 203 222 L203 1133 Q203 1242 170 1275.5 Q137 1309 23 1317 L23 1355 L1111 1355 L1118 1061 L1066 1061 Q1040 1197 988 1237 Q936 1277 756 1277 L478 1277 Q433 1277 422.5 1262.5 Q412 1248 412 1208 L412 751 L727 751 Q858 751 894 790 Q930 829 952 948 L1000 948 L1000 474 L952 474 Q929 593 893 631.5 Q857 670 727 670 L412 670 L412 163 Q412 102 450.5 91 Q489 80 681 80 Q889 80 988 125.5 Q1087 171 1166 346 L1223 346 L1130 0 L23 0 L23 37 Z M710 1604 Q710 1562 680.5 1532 Q651 1502 608 1502 Q566 1502 536 1532 Q506 1562 506 1604 Q506 1646 536 1676 Q566 1706 608 1706 Q651 1706 680.5 1676 Q710 1646 710 1604 Z " />
<glyph glyph-name="edotaccent" unicode="&#x117;" horiz-adv-x="909" d="M469 938 Q610 938 716 840.5 Q822 743 822 564 L187 564 Q197 332 292 226 Q387 120 517 120 Q622 120 694 175 Q766 230 827 331 L862 319 Q821 192 708.5 84 Q596 -24 433 -24 Q245 -24 142.5 118 Q40 260 40 445 Q40 646 159 792 Q278 938 469 938 Z M411 865 Q297 865 237 764 Q205 710 191 628 L613 628 Q602 728 575 777 Q526 865 411 865 Z M548 1197 Q548 1155 518.5 1125 Q489 1095 446 1095 Q404 1095 374 1125 Q344 1155 344 1197 Q344 1239 374 1269 Q404 1299 446 1299 Q489 1299 518.5 1269 Q548 1239 548 1197 Z " />
<glyph glyph-name="Eogonek" unicode="&#x118;" horiz-adv-x="1251" d="M23 37 Q136 49 169.5 77.5 Q203 106 203 222 L203 1133 Q203 1242 170 1275.5 Q137 1309 23 1317 L23 1355 L1111 1355 L1118 1061 L1066 1061 Q1040 1197 988 1237 Q936 1277 756 1277 L478 1277 Q433 1277 422.5 1262.5 Q412 1248 412 1208 L412 751 L727 751 Q858 751 894 790 Q930 829 952 948 L1000 948 L1000 474 L952 474 Q929 593 893 631.5 Q857 670 727 670 L412 670 L412 163 Q412 102 450.5 91 Q489 80 681 80 Q889 80 988 125.5 Q1087 171 1166 346 L1223 346 L1130 0 L23 0 L23 37 Z M662 38 Q614 -38 593 -101.5 Q572 -165 572 -229 Q572 -287 608.5 -322.5 Q645 -358 695 -358 Q727 -358 765 -343 Q788 -333 823 -313 L823 -429 Q780 -454 734.5 -467.5 Q689 -481 643 -481 Q556 -481 494 -426 Q432 -371 432 -291 Q432 -235 455 -179 Q499 -71 619 38 L662 38 Z " />
<glyph glyph-name="eogonek" unicode="&#x119;" horiz-adv-x="909" d="M469 938 Q610 938 716 840.5 Q822 743 822 564 L187 564 Q197 332 292 226 Q387 120 517 120 Q622 120 694 175 Q766 230 827 331 L862 319 Q821 192 708.5 84 Q596 -24 433 -24 Q245 -24 142.5 118 Q40 260 40 445 Q40 646 159 792 Q278 938 469 938 Z M411 865 Q297 865 237 764 Q205 710 191 628 L613 628 Q602 728 575 777 Q526 865 411 865 Z M491 30 Q443 -46 422 -109.5 Q401 -173 401 -237 Q401 -295 437.5 -330.5 Q474 -366 524 -366 Q556 -366 594 -351 Q617 -341 652 -321 L652 -437 Q609 -462 563.5 -475.5 Q518 -489 472 -489 Q385 -489 323 -434 Q261 -379 261 -299 Q261 -243 284 -187 Q328 -79 448 30 L491 30 Z " />
<glyph glyph-name="Ecaron" unicode="&#x11a;" horiz-adv-x="1251" d="M23 37 Q136 49 169.5 77.5 Q203 106 203 222 L203 1133 Q203 1242 170 1275.5 Q137 1309 23 1317 L23 1355 L1111 1355 L1118 1061 L1066 1061 Q1040 1197 988 1237 Q936 1277 756 1277 L478 1277 Q433 1277 422.5 1262.5 Q412 1248 412 1208 L412 751 L727 751 Q858 751 894 790 Q930 829 952 948 L1000 948 L1000 474 L952 474 Q929 593 893 631.5 Q857 670 727 670 L412 670 L412 163 Q412 102 450.5 91 Q489 80 681 80 Q889 80 988 125.5 Q1087 171 1166 346 L1223 346 L1130 0 L23 0 L23 37 Z M933 1789 L677 1448 L549 1448 L293 1789 L364 1789 L613 1578 L862 1789 L933 1789 Z " />
<glyph glyph-name="ecaron" unicode="&#x11b;" horiz-adv-x="909" d="M469 938 Q610 938 716 840.5 Q822 743 822 564 L187 564 Q197 332 292 226 Q387 120 517 120 Q622 120 694 175 Q766 230 827 331 L862 319 Q821 192 708.5 84 Q596 -24 433 -24 Q245 -24 142.5 118 Q40 260 40 445 Q40 646 159 792 Q278 938 469 938 Z M411 865 Q297 865 237 764 Q205 710 191 628 L613 628 Q602 728 575 777 Q526 865 411 865 Z M760 1393 L504 1052 L376 1052 L120 1393 L191 1393 L440 1182 L689 1393 L760 1393 Z " />
<glyph glyph-name="Gcircumflex" unicode="&#x11c;" horiz-adv-x="1479" d="M758 1379 Q877 1379 992 1346 Q1107 1313 1124 1313 Q1168 1313 1186.5 1330 Q1205 1347 1218 1379 L1263 1379 L1279 948 L1232 948 Q1169 1097 1102 1170 Q981 1298 787 1298 Q590 1298 440.5 1148.5 Q291 999 291 656 Q291 373 440 214 Q589 55 808 55 Q845 55 895 62 Q945 69 990 84 Q1063 108 1081 125.5 Q1099 143 1099 177 L1099 504 Q1099 622 1065.5 651 Q1032 680 919 687 L919 725 L1441 725 L1441 687 Q1365 682 1340 662 Q1298 630 1298 530 L1298 127 Q1298 91 1121.5 31 Q945 -29 782 -29 Q482 -29 276 146 Q49 339 49 664 Q49 950 230 1154 Q429 1379 758 1379 Z M436 1472 L692 1813 L820 1813 L1076 1472 L1005 1472 L756 1683 L507 1472 L436 1472 Z " />
<glyph glyph-name="gcircumflex" unicode="&#x11d;" horiz-adv-x="1024" d="M201 -185 Q201 -269 295.5 -301 Q390 -333 512 -333 Q678 -333 782 -275.5 Q886 -218 886 -134 Q886 -67 802 -45 Q750 -32 605 -30 Q568 -29 527 -27.5 Q486 -26 452 -24 Q430 -23 381 -16 Q332 -9 308 -4 Q296 -4 249 -67 Q201 -131 201 -185 Z M331 336 Q240 366 189.5 443 Q139 520 139 616 Q139 733 232 838 Q325 943 495 943 Q568 943 656 908.5 Q744 874 825 874 Q846 874 888.5 875.5 Q931 877 950 877 L962 877 L962 796 L789 796 Q807 754 817 723 Q834 665 834 613 Q834 499 739.5 403.5 Q645 308 485 308 Q460 308 395 317 Q366 317 318.5 268 Q271 219 271 188 Q271 156 341 141 Q387 131 443 131 Q700 131 792 102 Q943 55 943 -100 Q943 -258 766.5 -352 Q590 -446 410 -446 Q246 -446 150 -379.5 Q54 -313 54 -240 Q54 -204 79.5 -169.5 Q105 -135 180 -67 L246 -8 L258 4 Q212 22 189 39 Q149 70 149 110 Q149 147 183.5 191.5 Q218 236 331 336 Z M521 356 Q576 356 613 386 Q673 434 673 553 Q673 648 624.5 767 Q576 886 463 886 Q365 886 328 793 Q309 744 309 672 Q309 550 368 453 Q427 356 521 356 Z M198 1041 L454 1382 L582 1382 L838 1041 L767 1041 L518 1252 L269 1041 L198 1041 Z " />
<glyph glyph-name="Gdotaccent" unicode="&#x120;" horiz-adv-x="1479" d="M758 1379 Q877 1379 992 1346 Q1107 1313 1124 1313 Q1168 1313 1186.5 1330 Q1205 1347 1218 1379 L1263 1379 L1279 948 L1232 948 Q1169 1097 1102 1170 Q981 1298 787 1298 Q590 1298 440.5 1148.5 Q291 999 291 656 Q291 373 440 214 Q589 55 808 55 Q845 55 895 62 Q945 69 990 84 Q1063 108 1081 125.5 Q1099 143 1099 177 L1099 504 Q1099 622 1065.5 651 Q1032 680 919 687 L919 725 L1441 725 L1441 687 Q1365 682 1340 662 Q1298 630 1298 530 L1298 127 Q1298 91 1121.5 31 Q945 -29 782 -29 Q482 -29 276 146 Q49 339 49 664 Q49 950 230 1154 Q429 1379 758 1379 Z M853 1617 Q853 1575 823.5 1545 Q794 1515 751 1515 Q709 1515 679 1545 Q649 1575 649 1617 Q649 1659 679 1689 Q709 1719 751 1719 Q794 1719 823.5 1689 Q853 1659 853 1617 Z " />
<glyph glyph-name="gdotaccent" unicode="&#x121;" horiz-adv-x="1024" d="M201 -185 Q201 -269 295.5 -301 Q390 -333 512 -333 Q678 -333 782 -275.5 Q886 -218 886 -134 Q886 -67 802 -45 Q750 -32 605 -30 Q568 -29 527 -27.5 Q486 -26 452 -24 Q430 -23 381 -16 Q332 -9 308 -4 Q296 -4 249 -67 Q201 -131 201 -185 Z M331 336 Q240 366 189.5 443 Q139 520 139 616 Q139 733 232 838 Q325 943 495 943 Q568 943 656 908.5 Q744 874 825 874 Q846 874 888.5 875.5 Q931 877 950 877 L962 877 L962 796 L789 796 Q807 754 817 723 Q834 665 834 613 Q834 499 739.5 403.5 Q645 308 485 308 Q460 308 395 317 Q366 317 318.5 268 Q271 219 271 188 Q271 156 341 141 Q387 131 443 131 Q700 131 792 102 Q943 55 943 -100 Q943 -258 766.5 -352 Q590 -446 410 -446 Q246 -446 150 -379.5 Q54 -313 54 -240 Q54 -204 79.5 -169.5 Q105 -135 180 -67 L246 -8 L258 4 Q212 22 189 39 Q149 70 149 110 Q149 147 183.5 191.5 Q218 236 331 336 Z M521 356 Q576 356 613 386 Q673 434 673 553 Q673 648 624.5 767 Q576 886 463 886 Q365 886 328 793 Q309 744 309 672 Q309 550 368 453 Q427 356 521 356 Z M610 1213 Q610 1171 580.5 1141 Q551 1111 508 1111 Q466 1111 436 1141 Q406 1171 406 1213 Q406 1255 436 1285 Q466 1315 508 1315 Q551 1315 580.5 1285 Q610 1255 610 1213 Z " />
<glyph glyph-name="gacute" unicode="&#x1f5;" horiz-adv-x="1024" d="M201 -185 Q201 -269 295.5 -301 Q390 -333 512 -333 Q678 -333 782 -275.5 Q886 -218 886 -134 Q886 -67 802 -45 Q750 -32 605 -30 Q568 -29 527 -27.5 Q486 -26 452 -24 Q430 -23 381 -16 Q332 -9 308 -4 Q296 -4 249 -67 Q201 -131 201 -185 Z M331 336 Q240 366 189.5 443 Q139 520 139 616 Q139 733 232 838 Q325 943 495 943 Q568 943 656 908.5 Q744 874 825 874 Q846 874 888.5 875.5 Q931 877 950 877 L962 877 L962 796 L789 796 Q807 754 817 723 Q834 665 834 613 Q834 499 739.5 403.5 Q645 308 485 308 Q460 308 395 317 Q366 317 318.5 268 Q271 219 271 188 Q271 156 341 141 Q387 131 443 131 Q700 131 792 102 Q943 55 943 -100 Q943 -258 766.5 -352 Q590 -446 410 -446 Q246 -446 150 -379.5 Q54 -313 54 -240 Q54 -204 79.5 -169.5 Q105 -135 180 -67 L246 -8 L258 4 Q212 22 189 39 Q149 70 149 110 Q149 147 183.5 191.5 Q218 236 331 336 Z M521 356 Q576 356 613 386 Q673 434 673 553 Q673 648 624.5 767 Q576 886 463 886 Q365 886 328 793 Q309 744 309 672 Q309 550 368 453 Q427 356 521 356 Z M793 1338 Q793 1309 777 1290 Q761 1271 730 1251 L415 1052 L332 1052 L633 1355 Q649 1371 673 1388 Q697 1405 724 1405 Q750 1405 771.5 1386.5 Q793 1368 793 1338 Z " />
<glyph glyph-name="Hcircumflex" unicode="&#x124;" horiz-adv-x="1479" d="M33 37 Q153 50 183 81.5 Q213 113 213 246 L213 1133 Q213 1243 179.5 1276 Q146 1309 33 1317 L33 1355 L602 1355 L602 1317 Q489 1309 455 1276 Q421 1243 421 1133 L421 734 L1042 734 L1042 1133 Q1042 1243 1009 1276 Q976 1309 862 1317 L862 1355 L1431 1355 L1431 1317 Q1318 1309 1284.5 1276 Q1251 1243 1251 1133 L1251 222 Q1251 110 1284.5 78.5 Q1318 47 1431 37 L1431 0 L862 0 L862 37 Q983 49 1012.5 81 Q1042 113 1042 246 L1042 644 L421 644 L421 222 Q421 110 455 78 Q489 46 602 37 L602 0 L33 0 L33 37 Z M397 1464 L653 1805 L781 1805 L1037 1464 L966 1464 L717 1675 L468 1464 L397 1464 Z " />
<glyph glyph-name="hcircumflex" unicode="&#x125;" horiz-adv-x="1024" d="M18 28 Q100 39 125.5 68.5 Q151 98 151 208 L151 1168 Q151 1224 136.5 1250.5 Q122 1277 66 1277 Q55 1277 44.5 1275.5 Q34 1274 21 1272 L21 1308 Q65 1321 129.5 1339.5 Q194 1358 219 1366 L315 1396 L317 1389 L317 775 Q380 847 429 881 Q517 941 619 941 Q781 941 840 805 Q872 733 872 616 L872 208 Q872 102 896.5 70 Q921 38 997 28 L997 0 L564 0 L564 28 Q651 40 676 69 Q701 98 701 208 L701 613 Q701 710 668.5 770 Q636 830 546 830 Q468 830 395 774 Q322 718 322 701 L322 208 Q322 96 348 68 Q374 40 459 28 L459 0 L18 0 L18 28 Z M190 1499 L446 1840 L574 1840 L830 1499 L759 1499 L510 1710 L261 1499 L190 1499 Z " />
<glyph glyph-name="Hbar" unicode="&#x126;" horiz-adv-x="1479" d="M1431 1151 L1431 1052 L1251 1052 L1251 222 Q1251 110 1284.5 78.5 Q1318 47 1431 37 L1431 0 L862 0 L862 37 Q983 49 1012.5 81 Q1042 113 1042 246 L1042 644 L421 644 L421 222 Q421 110 455 78 Q489 46 602 37 L602 0 L33 0 L33 37 Q153 50 183 81.5 Q213 113 213 246 L213 1052 L33 1052 L33 1151 L213 1151 L213 1173 Q213 1243 179.5 1276 Q146 1309 33 1317 L33 1355 L602 1355 L602 1317 Q489 1309 455 1276 Q421 1243 421 1173 L421 1151 L1042 1151 L1042 1173 Q1042 1243 1009 1276 Q976 1309 862 1317 L862 1355 L1431 1355 L1431 1317 Q1318 1309 1284.5 1276 Q1251 1243 1251 1173 L1251 1151 L1431 1151 Z M1042 734 L1042 1052 L421 1052 L421 734 L1042 734 Z " />
<glyph glyph-name="hbar" unicode="&#x127;" horiz-adv-x="1024" d="M18 28 Q100 39 125.5 68.5 Q151 98 151 208 L151 1168 Q151 1224 136.5 1250.5 Q122 1277 66 1277 Q55 1277 44.5 1275.5 Q34 1274 21 1272 L21 1308 Q65 1321 129.5 1339.5 Q194 1358 219 1366 L315 1396 L317 1389 L317 775 Q380 847 429 881 Q517 941 619 941 Q781 941 840 805 Q872 733 872 616 L872 208 Q872 102 896.5 70 Q921 38 997 28 L997 0 L564 0 L564 28 Q651 40 676 69 Q701 98 701 208 L701 613 Q701 710 668.5 770 Q636 830 546 830 Q468 830 395 774 Q322 718 322 701 L322 208 Q322 96 348 68 Q374 40 459 28 L459 0 L18 0 L18 28 Z M-44 1129 L596 1129 L596 1020 L-44 1020 L-44 1129 Z " />
<glyph glyph-name="Itilde" unicode="&#x128;" horiz-adv-x="682" d="M33 37 Q158 46 195 74.5 Q232 103 232 222 L232 1133 Q232 1246 195 1278.5 Q158 1311 33 1317 L33 1355 L639 1355 L639 1317 Q514 1311 477 1278.5 Q440 1246 440 1133 L440 222 Q440 103 477 74.5 Q514 46 639 37 L639 0 L33 0 L33 37 Z M405 1639 Q440 1622 461.5 1615.5 Q483 1609 503 1609 Q554 1609 587 1647 Q609 1671 621 1711 L680 1711 Q675 1657 641 1599 Q579 1495 461 1495 Q419 1495 382.5 1507 Q346 1519 301 1542 L254 1566 Q237 1574 215.5 1580.5 Q194 1587 176 1587 Q125 1587 95 1553 Q79 1534 64 1495 L2 1495 Q28 1602 88 1651.5 Q148 1701 219 1701 Q252 1701 284.5 1691.5 Q317 1682 356 1663 L405 1639 Z " />
<glyph glyph-name="itilde" unicode="&#x129;" horiz-adv-x="569" d="M40 28 Q147 38 175 64.5 Q203 91 203 208 L203 685 Q203 750 194 775 Q179 816 131 816 Q120 816 109.5 814 Q99 812 49 798 L49 829 L92 843 Q267 900 336 929 Q364 941 372 941 Q374 934 374 926 L374 208 Q374 94 401.5 65 Q429 36 526 28 L526 0 L40 0 L40 28 Z M355 1264 Q390 1247 411.5 1240.5 Q433 1234 453 1234 Q504 1234 537 1272 Q559 1296 571 1336 L630 1336 Q625 1282 591 1224 Q529 1120 411 1120 Q369 1120 332.5 1132 Q296 1144 251 1167 L204 1191 Q187 1199 165.5 1205.5 Q144 1212 126 1212 Q75 1212 45 1178 Q29 1159 14 1120 L-48 1120 Q-22 1227 38 1276.5 Q98 1326 169 1326 Q202 1326 234.5 1316.5 Q267 1307 306 1288 L355 1264 Z " />
<glyph glyph-name="Imacron" unicode="&#x12a;" horiz-adv-x="682" d="M33 37 Q158 46 195 74.5 Q232 103 232 222 L232 1133 Q232 1246 195 1278.5 Q158 1311 33 1317 L33 1355 L639 1355 L639 1317 Q514 1311 477 1278.5 Q440 1246 440 1133 L440 222 Q440 103 477 74.5 Q514 46 639 37 L639 0 L33 0 L33 37 Z M15 1566 L655 1566 L655 1457 L15 1457 L15 1566 Z " />
<glyph glyph-name="imacron" unicode="&#x12b;" horiz-adv-x="569" d="M40 28 Q147 38 175 64.5 Q203 91 203 208 L203 685 Q203 750 194 775 Q179 816 131 816 Q120 816 109.5 814 Q99 812 49 798 L49 829 L92 843 Q267 900 336 929 Q364 941 372 941 Q374 934 374 926 L374 208 Q374 94 401.5 65 Q429 36 526 28 L526 0 L40 0 L40 28 Z M-34 1156 L606 1156 L606 1047 L-34 1047 L-34 1156 Z " />
<glyph glyph-name="Iogonek" unicode="&#x12e;" horiz-adv-x="682" d="M33 37 Q158 46 195 74.5 Q232 103 232 222 L232 1133 Q232 1246 195 1278.5 Q158 1311 33 1317 L33 1355 L639 1355 L639 1317 Q514 1311 477 1278.5 Q440 1246 440 1133 L440 222 Q440 103 477 74.5 Q514 46 639 37 L639 0 L33 0 L33 37 Z M375 38 Q327 -38 306 -101.5 Q285 -165 285 -229 Q285 -287 321.5 -322.5 Q358 -358 408 -358 Q440 -358 478 -343 Q501 -333 536 -313 L536 -429 Q493 -454 447.5 -467.5 Q402 -481 356 -481 Q269 -481 207 -426 Q145 -371 145 -291 Q145 -235 168 -179 Q212 -71 332 38 L375 38 Z " />
<glyph glyph-name="iogonek" unicode="&#x12f;" horiz-adv-x="569" d="M168 1291 Q168 1334 198 1365 Q228 1396 272 1396 Q315 1396 345.5 1365.5 Q376 1335 376 1291 Q376 1248 345.5 1217.5 Q315 1187 272 1187 Q228 1187 198 1217.5 Q168 1248 168 1291 Z M40 28 Q147 38 175 64.5 Q203 91 203 208 L203 685 Q203 750 194 775 Q179 816 131 816 Q120 816 109.5 814 Q99 812 49 798 L49 829 L92 843 Q267 900 336 929 Q364 941 372 941 Q374 934 374 926 L374 208 Q374 94 401.5 65 Q429 36 526 28 L526 0 L40 0 L40 28 Z M322 21 Q274 -55 253 -118.5 Q232 -182 232 -246 Q232 -304 268.5 -339.5 Q305 -375 355 -375 Q387 -375 425 -360 Q448 -350 483 -330 L483 -446 Q440 -471 394.5 -484.5 Q349 -498 303 -498 Q216 -498 154 -443 Q92 -388 92 -308 Q92 -252 115 -196 Q159 -88 279 21 L322 21 Z " />
<glyph glyph-name="IJ" unicode="&#x132;" horiz-adv-x="1479" d="M33 37 Q158 46 195 74.5 Q232 103 232 222 L232 1133 Q232 1246 195 1278.5 Q158 1311 33 1317 L33 1355 L639 1355 L639 1317 Q514 1311 477 1278.5 Q440 1246 440 1133 L440 222 Q440 103 477 74.5 Q514 46 639 37 L639 0 L33 0 L33 37 Z M703 118 Q703 173 733.5 196.5 Q764 220 799 220 Q868 220 901 134.5 Q934 49 971 49 Q1011 49 1026.5 84 Q1042 119 1042 206 L1042 1133 Q1042 1247 1005 1279 Q968 1311 852 1317 L852 1355 L1440 1355 L1440 1317 Q1321 1310 1285.5 1274.5 Q1250 1239 1250 1133 L1250 381 Q1250 175 1151 76 Q1052 -24 906 -24 Q810 -24 756.5 20 Q703 64 703 118 Z " />
<glyph glyph-name="ij" unicode="&#x133;" horiz-adv-x="1138" d="M168 1291 Q168 1334 198 1365 Q228 1396 272 1396 Q315 1396 345.5 1365.5 Q376 1335 376 1291 Q376 1248 345.5 1217.5 Q315 1187 272 1187 Q228 1187 198 1217.5 Q168 1248 168 1291 Z M40 28 Q147 38 175 64.5 Q203 91 203 208 L203 685 Q203 750 194 775 Q179 816 131 816 Q120 816 109.5 814 Q99 812 49 798 L49 829 L92 843 Q267 900 336 929 Q364 941 372 941 Q374 934 374 926 L374 208 Q374 94 401.5 65 Q429 36 526 28 L526 0 L40 0 L40 28 Z M794 1291 Q794 1334 824 1365 Q854 1396 898 1396 Q941 1396 971.5 1365 Q1002 1334 1002 1291 Q1002 1248 971.5 1217.5 Q941 1187 898 1187 Q854 1187 824 1217.5 Q794 1248 794 1291 Z M533 -254 Q585 -254 634.5 -317 Q684 -380 722 -380 Q785 -380 807 -307 Q820 -263 821 -160 Q822 -123 822 22 L822 680 Q822 748 809 780.5 Q796 813 749 813 Q735 813 712.5 808 Q690 803 666 796 L666 827 L751 855 Q782 865 831.5 882.5 Q881 900 926 917 L986 938 Q990 932 990 924 L990 0 Q990 -173 946 -270 Q866 -448 640 -448 Q566 -448 508.5 -418 Q451 -388 451 -338 Q451 -305 474 -279.5 Q497 -254 533 -254 Z " />
<glyph glyph-name="Jcircumflex" unicode="&#x134;" horiz-adv-x="797" d="M21 118 Q21 173 51.5 196.5 Q82 220 117 220 Q186 220 219 134.5 Q252 49 289 49 Q329 49 344.5 84 Q360 119 360 206 L360 1133 Q360 1247 323 1279 Q286 1311 170 1317 L170 1355 L758 1355 L758 1317 Q639 1310 603.5 1274.5 Q568 1239 568 1133 L568 381 Q568 175 469 76 Q370 -24 224 -24 Q128 -24 74.5 20 Q21 64 21 118 Z M118 1469 L374 1810 L502 1810 L758 1469 L687 1469 L438 1680 L189 1469 L118 1469 Z " />
<glyph glyph-name="jcircumflex" unicode="&#x135;" horiz-adv-x="569" d="M153 -380 Q216 -380 238 -307 Q251 -263 252 -160 Q253 -123 253 22 L253 680 Q253 748 240 780.5 Q227 813 180 813 Q166 813 143.5 808 Q121 803 97 796 L97 827 L182 855 Q213 865 262.5 882.5 Q312 900 357 917 L417 938 Q421 932 421 924 L421 0 Q421 -173 377 -270 Q297 -448 71 -448 Q-3 -448 -60.5 -418 Q-118 -388 -118 -338 Q-118 -305 -95 -279.5 Q-72 -254 -36 -254 Q16 -254 65.5 -317 Q115 -380 153 -380 Z M1 1037 L257 1378 L385 1378 L641 1037 L570 1037 L321 1248 L72 1037 L1 1037 Z " />
<glyph glyph-name="Lacute" unicode="&#x139;" horiz-adv-x="1251" d="M23 37 Q136 49 169.5 77.5 Q203 106 203 222 L203 1133 Q203 1242 170 1275.5 Q137 1309 23 1317 L23 1355 L602 1355 L602 1317 Q489 1311 450.5 1280 Q412 1249 412 1147 L412 163 Q412 129 423.5 109.5 Q435 90 474 85 Q497 82 522.5 81 Q548 80 618 80 Q891 80 987 125 Q1083 170 1173 355 L1225 355 L1125 0 L23 0 L23 37 Z M532 1735 Q532 1706 516 1687 Q500 1668 469 1648 L154 1449 L71 1449 L372 1752 Q388 1768 412 1785 Q436 1802 463 1802 Q489 1802 510.5 1783.5 Q532 1765 532 1735 Z " />
<glyph glyph-name="lacute" unicode="&#x13a;" horiz-adv-x="569" d="M42 28 Q135 37 168 65.5 Q201 94 201 177 L201 1154 Q201 1220 190 1245 Q170 1287 109 1287 Q95 1287 78.5 1284 Q62 1281 37 1275 L37 1308 Q172 1344 362 1404 Q369 1404 370.5 1398 Q372 1392 372 1372 L372 173 Q372 86 402 60.5 Q432 35 526 28 L526 0 L42 0 L42 28 Z M505 1747 Q505 1718 489 1699 Q473 1680 442 1660 L127 1461 L44 1461 L345 1764 Q361 1780 385 1797 Q409 1814 436 1814 Q462 1814 483.5 1795.5 Q505 1777 505 1747 Z " />
<glyph glyph-name="Lcaron" unicode="&#x13d;" horiz-adv-x="1251" d="M23 37 Q136 49 169.5 77.5 Q203 106 203 222 L203 1133 Q203 1242 170 1275.5 Q137 1309 23 1317 L23 1355 L602 1355 L602 1317 Q489 1311 450.5 1280 Q412 1249 412 1147 L412 163 Q412 129 423.5 109.5 Q435 90 474 85 Q497 82 522.5 81 Q548 80 618 80 Q891 80 987 125 Q1083 170 1173 355 L1225 355 L1125 0 L23 0 L23 37 Z M1058 1168 Q1058 1067 985 980 Q912 893 828 855 L809 895 Q905 949 941.5 1012 Q978 1075 978 1117 Q978 1131 969 1135 Q960 1139 950 1139 L883 1132 Q841 1132 806 1159.5 Q771 1187 771 1239 Q771 1279 800 1317 Q829 1355 895 1355 Q958 1355 1008 1305.5 Q1058 1256 1058 1168 Z " />
<glyph glyph-name="lcaron" unicode="&#x13e;" horiz-adv-x="819" d="M42 28 Q135 37 168 65.5 Q201 94 201 177 L201 1154 Q201 1220 190 1245 Q170 1287 109 1287 Q95 1287 78.5 1284 Q62 1281 37 1275 L37 1308 Q172 1344 362 1404 Q369 1404 370.5 1398 Q372 1392 372 1372 L372 173 Q372 86 402 60.5 Q432 35 526 28 L526 0 L42 0 L42 28 Z M757 1217 Q757 1116 684 1029 Q611 942 527 904 L508 944 Q604 998 640.5 1061 Q677 1124 677 1166 Q677 1180 668 1184 Q659 1188 649 1188 L582 1181 Q540 1181 505 1208.5 Q470 1236 470 1288 Q470 1328 499 1366 Q528 1404 594 1404 Q657 1404 707 1354.5 Q757 1305 757 1217 Z " />
<glyph glyph-name="Ldotaccent" unicode="&#x13f;" horiz-adv-x="1251" d="M23 37 Q136 49 169.5 77.5 Q203 106 203 222 L203 1133 Q203 1242 170 1275.5 Q137 1309 23 1317 L23 1355 L602 1355 L602 1317 Q489 1311 450.5 1280 Q412 1249 412 1147 L412 163 Q412 129 423.5 109.5 Q435 90 474 85 Q497 82 522.5 81 Q548 80 618 80 Q891 80 987 125 Q1083 170 1173 355 L1225 355 L1125 0 L23 0 L23 37 Z M784 745 Q784 703 754.5 673 Q725 643 682 643 Q640 643 610 673 Q580 703 580 745 Q580 787 610 817 Q640 847 682 847 Q725 847 754.5 817 Q784 787 784 745 Z " />
<glyph glyph-name="ldotaccent" unicode="&#x140;" horiz-adv-x="727" d="M42 28 Q135 37 168 65.5 Q201 94 201 177 L201 1154 Q201 1220 190 1245 Q170 1287 109 1287 Q95 1287 78.5 1284 Q62 1281 37 1275 L37 1308 Q172 1344 362 1404 Q369 1404 370.5 1398 Q372 1392 372 1372 L372 173 Q372 86 402 60.5 Q432 35 526 28 L526 0 L42 0 L42 28 Z M707 773 Q707 731 677.5 701 Q648 671 605 671 Q563 671 533 701 Q503 731 503 773 Q503 815 533 845 Q563 875 605 875 Q648 875 677.5 845 Q707 815 707 773 Z " />
<glyph glyph-name="Nacute" unicode="&#x143;" horiz-adv-x="1479" d="M23 37 Q150 50 186 94.5 Q222 139 222 301 L222 1204 L194 1237 Q149 1290 117.5 1302.5 Q86 1315 23 1317 L23 1355 L374 1355 L1163 369 L1163 1054 Q1163 1223 1113 1274 Q1080 1307 967 1317 L967 1355 L1448 1355 L1448 1317 Q1331 1305 1292 1260 Q1253 1215 1253 1054 L1253 -24 L1218 -24 L312 1099 L312 301 Q312 133 361 82 Q393 49 504 37 L504 0 L23 0 L23 37 Z M940 1734 Q940 1705 924 1686 Q908 1667 877 1647 L562 1448 L479 1448 L780 1751 Q796 1767 820 1784 Q844 1801 871 1801 Q897 1801 918.5 1782.5 Q940 1764 940 1734 Z " />
<glyph glyph-name="nacute" unicode="&#x144;" horiz-adv-x="1024" d="M37 28 Q108 37 136.5 63.5 Q165 90 165 182 L165 689 Q165 753 153 779 Q134 817 75 817 Q66 817 56.5 816 Q47 815 33 813 L33 848 Q74 860 227 910 L321 941 Q328 941 329.5 936 Q331 931 331 922 L331 775 Q423 861 475 893 Q553 942 637 942 Q705 942 761 903 Q869 827 869 632 L869 165 Q869 93 898 61 Q927 29 995 28 L995 0 L568 0 L568 28 Q641 38 670 68.5 Q699 99 699 201 L699 628 Q699 714 667 770.5 Q635 827 549 827 Q490 827 429 787 Q395 764 341 711 L341 151 Q341 79 373 54.5 Q405 30 474 28 L474 0 L37 0 L37 28 Z M699 1326 Q699 1297 683 1278 Q667 1259 636 1239 L321 1040 L238 1040 L539 1343 Q555 1359 579 1376 Q603 1393 630 1393 Q656 1393 677.5 1374.5 Q699 1356 699 1326 Z " />
<glyph glyph-name="Ncaron" unicode="&#x147;" horiz-adv-x="1479" d="M23 37 Q150 50 186 94.5 Q222 139 222 301 L222 1204 L194 1237 Q149 1290 117.5 1302.5 Q86 1315 23 1317 L23 1355 L374 1355 L1163 369 L1163 1054 Q1163 1223 1113 1274 Q1080 1307 967 1317 L967 1355 L1448 1355 L1448 1317 Q1331 1305 1292 1260 Q1253 1215 1253 1054 L1253 -24 L1218 -24 L312 1099 L312 301 Q312 133 361 82 Q393 49 504 37 L504 0 L23 0 L23 37 Z M1039 1794 L783 1453 L655 1453 L399 1794 L470 1794 L719 1583 L968 1794 L1039 1794 Z " />
<glyph glyph-name="ncaron" unicode="&#x148;" horiz-adv-x="1024" d="M37 28 Q108 37 136.5 63.5 Q165 90 165 182 L165 689 Q165 753 153 779 Q134 817 75 817 Q66 817 56.5 816 Q47 815 33 813 L33 848 Q74 860 227 910 L321 941 Q328 941 329.5 936 Q331 931 331 922 L331 775 Q423 861 475 893 Q553 942 637 942 Q705 942 761 903 Q869 827 869 632 L869 165 Q869 93 898 61 Q927 29 995 28 L995 0 L568 0 L568 28 Q641 38 670 68.5 Q699 99 699 201 L699 628 Q699 714 667 770.5 Q635 827 549 827 Q490 827 429 787 Q395 764 341 711 L341 151 Q341 79 373 54.5 Q405 30 474 28 L474 0 L37 0 L37 28 Z M840 1418 L584 1077 L456 1077 L200 1418 L271 1418 L520 1207 L769 1418 L840 1418 Z " />
<glyph glyph-name="quoterightn" unicode="&#x149;" horiz-adv-x="1024" d="M37 28 Q108 37 136.5 63.5 Q165 90 165 182 L165 689 Q165 753 153 779 Q134 817 75 817 Q66 817 56.5 816 Q47 815 33 813 L33 848 Q74 860 227 910 L321 941 Q328 941 329.5 936 Q331 931 331 922 L331 775 Q423 861 475 893 Q553 942 637 942 Q705 942 761 903 Q869 827 869 632 L869 165 Q869 93 898 61 Q927 29 995 28 L995 0 L568 0 L568 28 Q641 38 670 68.5 Q699 99 699 201 L699 628 Q699 714 667 770.5 Q635 827 549 827 Q490 827 429 787 Q395 764 341 711 L341 151 Q341 79 373 54.5 Q405 30 474 28 L474 0 L37 0 L37 28 Z M324 1357 Q324 1256 251 1169 Q178 1082 94 1044 L75 1084 Q171 1138 207.5 1201 Q244 1264 244 1306 Q244 1320 235 1324 Q226 1328 216 1328 L149 1321 Q107 1321 72 1348.5 Q37 1376 37 1428 Q37 1468 66 1506 Q95 1544 161 1544 Q224 1544 274 1494.5 Q324 1445 324 1357 Z " />
<glyph glyph-name="Omacron" unicode="&#x14c;" horiz-adv-x="1479" d="M293 677 Q293 354 420 199.5 Q547 45 732 45 Q913 45 1041.5 195.5 Q1170 346 1170 677 Q1170 1012 1040 1161 Q910 1310 732 1310 Q548 1310 420.5 1155.5 Q293 1001 293 677 Z M61 677 Q61 1005 267 1203 Q456 1384 732 1384 Q1009 1384 1198 1202 Q1403 1005 1403 677 Q1403 344 1191 147 Q1001 -29 732 -29 Q444 -29 254 166 Q61 365 61 677 Z M412 1595 L1052 1595 L1052 1486 L412 1486 L412 1595 Z " />
<glyph glyph-name="omacron" unicode="&#x14d;" horiz-adv-x="1024" d="M52 464 Q52 663 178.5 800.5 Q305 938 504 938 Q702 938 832 808 Q962 678 962 462 Q962 263 836 116 Q710 -31 510 -31 Q318 -31 185 110 Q52 251 52 464 Z M476 878 Q397 878 339 826 Q239 735 239 512 Q239 334 319.5 180 Q400 26 543 26 Q655 26 715.5 129 Q776 232 776 399 Q776 572 699 725 Q622 878 476 878 Z M187 1153 L827 1153 L827 1044 L187 1044 L187 1153 Z " />
<glyph glyph-name="Obreve" unicode="&#x14e;" horiz-adv-x="1479" d="M293 677 Q293 354 420 199.5 Q547 45 732 45 Q913 45 1041.5 195.5 Q1170 346 1170 677 Q1170 1012 1040 1161 Q910 1310 732 1310 Q548 1310 420.5 1155.5 Q293 1001 293 677 Z M61 677 Q61 1005 267 1203 Q456 1384 732 1384 Q1009 1384 1198 1202 Q1403 1005 1403 677 Q1403 344 1191 147 Q1001 -29 732 -29 Q444 -29 254 166 Q61 365 61 677 Z M1021 1789 Q1008 1659 963 1588 Q888 1467 716 1467 Q636 1467 573 1507 Q452 1585 443 1789 L505 1789 Q518 1696 575 1643.5 Q632 1591 738 1591 Q845 1591 902 1662 Q933 1701 960 1789 L1021 1789 Z " />
<glyph glyph-name="obreve" unicode="&#x14f;" horiz-adv-x="1024" d="M52 464 Q52 663 178.5 800.5 Q305 938 504 938 Q702 938 832 808 Q962 678 962 462 Q962 263 836 116 Q710 -31 510 -31 Q318 -31 185 110 Q52 251 52 464 Z M476 878 Q397 878 339 826 Q239 735 239 512 Q239 334 319.5 180 Q400 26 543 26 Q655 26 715.5 129 Q776 232 776 399 Q776 572 699 725 Q622 878 476 878 Z M796 1400 Q783 1270 738 1199 Q663 1078 491 1078 Q411 1078 348 1118 Q227 1196 218 1400 L280 1400 Q293 1307 350 1254.5 Q407 1202 513 1202 Q620 1202 677 1273 Q708 1312 735 1400 L796 1400 Z " />
<glyph glyph-name="Ohungarumlaut" unicode="&#x150;" horiz-adv-x="1479" d="M293 677 Q293 354 420 199.5 Q547 45 732 45 Q913 45 1041.5 195.5 Q1170 346 1170 677 Q1170 1012 1040 1161 Q910 1310 732 1310 Q548 1310 420.5 1155.5 Q293 1001 293 677 Z M61 677 Q61 1005 267 1203 Q456 1384 732 1384 Q1009 1384 1198 1202 Q1403 1005 1403 677 Q1403 344 1191 147 Q1001 -29 732 -29 Q444 -29 254 166 Q61 365 61 677 Z M1252 1788 Q1252 1765 1237 1744.5 Q1222 1724 1190 1704 L875 1505 L792 1505 L1093 1808 Q1120 1836 1143.5 1847 Q1167 1858 1183 1858 Q1210 1858 1231 1838.5 Q1252 1819 1252 1788 Z M778 1808 Q800 1834 816 1846.5 Q832 1859 856 1859 Q889 1859 908 1837.5 Q927 1816 927 1788 Q927 1761 910.5 1740.5 Q894 1720 875 1704 L597 1486 L514 1486 L778 1808 Z " />
<glyph glyph-name="ohungarumlaut" unicode="&#x151;" horiz-adv-x="1024" d="M52 464 Q52 663 178.5 800.5 Q305 938 504 938 Q702 938 832 808 Q962 678 962 462 Q962 263 836 116 Q710 -31 510 -31 Q318 -31 185 110 Q52 251 52 464 Z M476 878 Q397 878 339 826 Q239 735 239 512 Q239 334 319.5 180 Q400 26 543 26 Q655 26 715.5 129 Q776 232 776 399 Q776 572 699 725 Q622 878 476 878 Z M919 1342 Q919 1319 904 1298.5 Q889 1278 857 1258 L542 1059 L459 1059 L760 1362 Q787 1390 810.5 1401 Q834 1412 850 1412 Q877 1412 898 1392.5 Q919 1373 919 1342 Z M445 1362 Q467 1388 483 1400.5 Q499 1413 523 1413 Q556 1413 575 1391.5 Q594 1370 594 1342 Q594 1315 577.5 1294.5 Q561 1274 542 1258 L264 1040 L181 1040 L445 1362 Z " />
<glyph glyph-name="Racute" unicode="&#x154;" horiz-adv-x="1366" d="M407 701 Q628 709 723 747 Q886 814 886 999 Q886 1177 740 1242 Q662 1277 533 1277 Q446 1277 426.5 1264.5 Q407 1252 407 1206 L407 701 Z M23 37 Q141 48 170 83 Q199 118 199 246 L199 1133 Q199 1241 166.5 1274.5 Q134 1308 23 1317 L23 1355 L590 1355 Q767 1355 885 1310 Q1109 1225 1109 997 Q1109 844 1009.5 762 Q910 680 739 654 L1161 135 Q1200 87 1239 65 Q1278 43 1339 37 L1339 0 L1009 0 L521 630 L407 625 L407 222 Q407 108 441.5 77.5 Q476 47 592 37 L592 0 L23 0 L23 37 Z M808 1745 Q808 1716 792 1697 Q776 1678 745 1658 L430 1459 L347 1459 L648 1762 Q664 1778 688 1795 Q712 1812 739 1812 Q765 1812 786.5 1793.5 Q808 1775 808 1745 Z " />
<glyph glyph-name="racute" unicode="&#x155;" horiz-adv-x="682" d="M9 33 Q101 41 131 65.5 Q161 90 161 170 L161 621 Q161 720 142.5 762.5 Q124 805 75 805 Q65 805 48.5 802.5 Q32 800 14 796 L14 829 Q71 849 131 870 Q191 891 214 900 Q264 919 317 943 Q324 943 325.5 938 Q327 933 327 917 L327 753 Q391 842 450.5 892 Q510 942 574 942 Q625 942 657 911.5 Q689 881 689 835 Q689 794 664.5 766 Q640 738 603 738 Q565 738 526.5 773 Q488 808 466 808 Q431 808 380 751.5 Q329 695 329 635 L329 184 Q329 98 369 64.5 Q409 31 502 33 L502 0 L9 0 L9 33 Z M563 1353 Q563 1324 547 1305 Q531 1286 500 1266 L185 1067 L102 1067 L403 1370 Q419 1386 443 1403 Q467 1420 494 1420 Q520 1420 541.5 1401.5 Q563 1383 563 1353 Z " />
<glyph glyph-name="Rcaron" unicode="&#x158;" horiz-adv-x="1366" d="M407 701 Q628 709 723 747 Q886 814 886 999 Q886 1177 740 1242 Q662 1277 533 1277 Q446 1277 426.5 1264.5 Q407 1252 407 1206 L407 701 Z M23 37 Q141 48 170 83 Q199 118 199 246 L199 1133 Q199 1241 166.5 1274.5 Q134 1308 23 1317 L23 1355 L590 1355 Q767 1355 885 1310 Q1109 1225 1109 997 Q1109 844 1009.5 762 Q910 680 739 654 L1161 135 Q1200 87 1239 65 Q1278 43 1339 37 L1339 0 L1009 0 L521 630 L407 625 L407 222 Q407 108 441.5 77.5 Q476 47 592 37 L592 0 L23 0 L23 37 Z M878 1794 L622 1453 L494 1453 L238 1794 L309 1794 L558 1583 L807 1794 L878 1794 Z " />
<glyph glyph-name="rcaron" unicode="&#x159;" horiz-adv-x="682" d="M9 33 Q101 41 131 65.5 Q161 90 161 170 L161 621 Q161 720 142.5 762.5 Q124 805 75 805 Q65 805 48.5 802.5 Q32 800 14 796 L14 829 Q71 849 131 870 Q191 891 214 900 Q264 919 317 943 Q324 943 325.5 938 Q327 933 327 917 L327 753 Q391 842 450.5 892 Q510 942 574 942 Q625 942 657 911.5 Q689 881 689 835 Q689 794 664.5 766 Q640 738 603 738 Q565 738 526.5 773 Q488 808 466 808 Q431 808 380 751.5 Q329 695 329 635 L329 184 Q329 98 369 64.5 Q409 31 502 33 L502 0 L9 0 L9 33 Z M654 1408 L398 1067 L270 1067 L14 1408 L85 1408 L334 1197 L583 1408 L654 1408 Z " />
<glyph glyph-name="Sacute" unicode="&#x15a;" horiz-adv-x="1139" d="M132 412 Q184 274 254 192 Q376 49 557 49 Q655 49 726.5 111 Q798 173 798 284 Q798 384 726 458 Q679 505 528 599 L353 708 Q274 758 227 809 Q140 906 140 1023 Q140 1178 243 1281 Q346 1384 516 1384 Q586 1384 684.5 1349.5 Q783 1315 797 1315 Q835 1315 849.5 1333 Q864 1351 872 1384 L914 1384 L959 948 L910 948 Q860 1145 749.5 1223 Q639 1301 531 1301 Q447 1301 384.5 1251.5 Q322 1202 322 1114 Q322 1035 370 979 Q418 922 519 860 L699 749 Q868 645 937 558 Q1005 470 1005 350 Q1005 189 883.5 81 Q762 -27 573 -27 Q478 -27 374.5 9 Q271 45 256 45 Q220 45 207.5 23 Q195 1 191 -24 L146 -24 L85 412 L132 412 Z M755 1758 Q755 1729 739 1710 Q723 1691 692 1671 L377 1472 L294 1472 L595 1775 Q611 1791 635 1808 Q659 1825 686 1825 Q712 1825 733.5 1806.5 Q755 1788 755 1758 Z " />
<glyph glyph-name="sacute" unicode="&#x15b;" horiz-adv-x="797" d="M106 315 L139 315 Q162 201 201 140 Q271 28 406 28 Q481 28 524.5 69.5 Q568 111 568 177 Q568 219 543 258 Q518 297 455 334 L343 398 Q220 464 162 531 Q104 598 104 689 Q104 801 184 873 Q264 945 385 945 Q438 945 501.5 925 Q565 905 573 905 Q591 905 599 910 Q607 915 613 926 L637 926 L644 647 L613 647 Q593 744 559 798 Q497 898 380 898 Q310 898 270 855 Q230 812 230 754 Q230 662 368 590 L500 519 Q713 403 713 249 Q713 131 624.5 56 Q536 -19 393 -19 Q333 -19 257 1 Q181 21 167 21 Q155 21 146 12.5 Q137 4 132 -8 L106 -8 L106 315 Z M629 1324 Q629 1295 613 1276 Q597 1257 566 1237 L251 1038 L168 1038 L469 1341 Q485 1357 509 1374 Q533 1391 560 1391 Q586 1391 607.5 1372.5 Q629 1354 629 1324 Z " />
<glyph glyph-name="Scircumflex" unicode="&#x15c;" horiz-adv-x="1139" d="M132 412 Q184 274 254 192 Q376 49 557 49 Q655 49 726.5 111 Q798 173 798 284 Q798 384 726 458 Q679 505 528 599 L353 708 Q274 758 227 809 Q140 906 140 1023 Q140 1178 243 1281 Q346 1384 516 1384 Q586 1384 684.5 1349.5 Q783 1315 797 1315 Q835 1315 849.5 1333 Q864 1351 872 1384 L914 1384 L959 948 L910 948 Q860 1145 749.5 1223 Q639 1301 531 1301 Q447 1301 384.5 1251.5 Q322 1202 322 1114 Q322 1035 370 979 Q418 922 519 860 L699 749 Q868 645 937 558 Q1005 470 1005 350 Q1005 189 883.5 81 Q762 -27 573 -27 Q478 -27 374.5 9 Q271 45 256 45 Q220 45 207.5 23 Q195 1 191 -24 L146 -24 L85 412 L132 412 Z M230 1477 L486 1818 L614 1818 L870 1477 L799 1477 L550 1688 L301 1477 L230 1477 Z " />
<glyph glyph-name="scircumflex" unicode="&#x15d;" horiz-adv-x="797" d="M106 315 L139 315 Q162 201 201 140 Q271 28 406 28 Q481 28 524.5 69.5 Q568 111 568 177 Q568 219 543 258 Q518 297 455 334 L343 398 Q220 464 162 531 Q104 598 104 689 Q104 801 184 873 Q264 945 385 945 Q438 945 501.5 925 Q565 905 573 905 Q591 905 599 910 Q607 915 613 926 L637 926 L644 647 L613 647 Q593 744 559 798 Q497 898 380 898 Q310 898 270 855 Q230 812 230 754 Q230 662 368 590 L500 519 Q713 403 713 249 Q713 131 624.5 56 Q536 -19 393 -19 Q333 -19 257 1 Q181 21 167 21 Q155 21 146 12.5 Q137 4 132 -8 L106 -8 L106 315 Z M88 1064 L344 1405 L472 1405 L728 1064 L657 1064 L408 1275 L159 1064 L88 1064 Z " />
<glyph glyph-name="Tcedilla" unicode="&#x162;" horiz-adv-x="1251" d="M40 1355 L1197 1355 L1208 1007 L1159 1007 Q1123 1171 1067.5 1220.5 Q1012 1270 834 1270 L720 1270 L720 222 Q720 103 757 74.5 Q794 46 919 37 L919 0 L322 0 L322 37 Q452 47 484 80 Q516 113 516 246 L516 1270 L402 1270 Q232 1270 170.5 1221 Q109 1172 78 1007 L28 1007 L40 1355 Z M582 57 L654 57 L601 -79 Q620 -75 633.5 -73 Q647 -71 663 -71 Q739 -71 785 -111 Q831 -151 831 -214 Q831 -287 768 -337 Q705 -387 573 -387 Q548 -387 515 -382 Q457 -374 405 -354 L433 -290 L464 -299 Q476 -303 503.5 -308 Q531 -313 559 -313 Q603 -313 629 -302 Q678 -283 678 -228 Q678 -188 653 -168.5 Q628 -149 589 -149 Q559 -149 544.5 -151.5 Q530 -154 511 -159 L497 -147 L582 57 Z " />
<glyph glyph-name="tcedilla" unicode="&#x163;" horiz-adv-x="569" d="M521 922 L521 850 L317 850 L315 274 Q315 198 328 159 Q352 90 422 90 Q458 90 484.5 107 Q511 124 545 161 L571 139 L549 109 Q497 39 439 10 Q381 -19 327 -19 Q209 -19 167 86 Q144 143 144 244 L144 850 L35 850 Q30 853 27.5 856 Q25 859 25 864 Q25 874 29.5 879.5 Q34 885 58 905 Q127 962 157.5 997.5 Q188 1033 301 1185 Q314 1185 316.5 1183 Q319 1181 319 1168 L319 922 L521 922 Z M295 38 L367 38 L314 -98 Q333 -94 346.5 -92 Q360 -90 376 -90 Q452 -90 498 -130 Q544 -170 544 -233 Q544 -306 481 -356 Q418 -406 286 -406 Q261 -406 228 -401 Q170 -393 118 -373 L146 -309 L177 -318 Q189 -322 216.5 -327 Q244 -332 272 -332 Q316 -332 342 -321 Q391 -302 391 -247 Q391 -207 366 -187.5 Q341 -168 302 -168 Q272 -168 257.5 -170.5 Q243 -173 224 -178 L210 -166 L295 38 Z " />
<glyph glyph-name="Tcaron" unicode="&#x164;" horiz-adv-x="1251" d="M40 1355 L1197 1355 L1208 1007 L1159 1007 Q1123 1171 1067.5 1220.5 Q1012 1270 834 1270 L720 1270 L720 222 Q720 103 757 74.5 Q794 46 919 37 L919 0 L322 0 L322 37 Q452 47 484 80 Q516 113 516 246 L516 1270 L402 1270 Q232 1270 170.5 1221 Q109 1172 78 1007 L28 1007 L40 1355 Z M933 1810 L677 1469 L549 1469 L293 1810 L364 1810 L613 1599 L862 1810 L933 1810 Z " />
<glyph glyph-name="tcaron" unicode="&#x165;" horiz-adv-x="901" d="M521 922 L521 850 L317 850 L315 274 Q315 198 328 159 Q352 90 422 90 Q458 90 484.5 107 Q511 124 545 161 L571 139 L549 109 Q497 39 439 10 Q381 -19 327 -19 Q209 -19 167 86 Q144 143 144 244 L144 850 L35 850 Q30 853 27.5 856 Q25 859 25 864 Q25 874 29.5 879.5 Q34 885 58 905 Q127 962 157.5 997.5 Q188 1033 301 1185 Q314 1185 316.5 1183 Q319 1181 319 1168 L319 922 L521 922 Z M858 1248 Q858 1147 785 1060 Q712 973 628 935 L609 975 Q705 1029 741.5 1092 Q778 1155 778 1197 Q778 1211 769 1215 Q760 1219 750 1219 L683 1212 Q641 1212 606 1239.5 Q571 1267 571 1319 Q571 1359 600 1397 Q629 1435 695 1435 Q758 1435 808 1385.5 Q858 1336 858 1248 Z " />
<glyph glyph-name="Tbar" unicode="&#x166;" horiz-adv-x="1251" d="M40 1355 L1197 1355 L1208 1007 L1159 1007 Q1123 1171 1067.5 1220.5 Q1012 1270 834 1270 L720 1270 L720 222 Q720 103 757 74.5 Q794 46 919 37 L919 0 L322 0 L322 37 Q452 47 484 80 Q516 113 516 246 L516 1270 L402 1270 Q232 1270 170.5 1221 Q109 1172 78 1007 L28 1007 L40 1355 Z M298 736 L938 736 L938 627 L298 627 L298 736 Z " />
<glyph glyph-name="tbar" unicode="&#x167;" horiz-adv-x="569" d="M521 922 L521 850 L317 850 L315 274 Q315 198 328 159 Q352 90 422 90 Q458 90 484.5 107 Q511 124 545 161 L571 139 L549 109 Q497 39 439 10 Q381 -19 327 -19 Q209 -19 167 86 Q144 143 144 244 L144 850 L35 850 Q30 853 27.5 856 Q25 859 25 864 Q25 874 29.5 879.5 Q34 885 58 905 Q127 962 157.5 997.5 Q188 1033 301 1185 Q314 1185 316.5 1183 Q319 1181 319 1168 L319 922 L521 922 Z M-34 642 L606 642 L606 533 L-34 533 L-34 642 Z " />
<glyph glyph-name="Utilde" unicode="&#x168;" horiz-adv-x="1479" d="M609 1355 L609 1317 Q491 1309 456 1277.5 Q421 1246 421 1133 L421 478 Q421 317 465 227 Q547 63 776 63 Q1027 63 1113 231 Q1161 325 1161 521 L1161 1054 Q1161 1221 1121 1263.5 Q1081 1306 969 1317 L969 1355 L1443 1355 L1443 1317 Q1324 1304 1287.5 1259.5 Q1251 1215 1251 1054 L1251 521 Q1251 309 1186 190 Q1066 -29 730 -29 Q398 -29 278 187 Q213 303 213 493 L213 1133 Q213 1245 178.5 1276.5 Q144 1308 28 1317 L28 1355 L609 1355 Z M783 1644 Q818 1627 839.5 1620.5 Q861 1614 881 1614 Q932 1614 965 1652 Q987 1676 999 1716 L1058 1716 Q1053 1662 1019 1604 Q957 1500 839 1500 Q797 1500 760.5 1512 Q724 1524 679 1547 L632 1571 Q615 1579 593.5 1585.5 Q572 1592 554 1592 Q503 1592 473 1558 Q457 1539 442 1500 L380 1500 Q406 1607 466 1656.5 Q526 1706 597 1706 Q630 1706 662.5 1696.5 Q695 1687 734 1668 L783 1644 Z " />
<glyph glyph-name="utilde" unicode="&#x169;" horiz-adv-x="1024" d="M317 926 L317 286 Q317 218 336 177 Q373 101 472 101 Q540 101 605 146 Q642 171 680 215 L680 763 Q680 840 650 864 Q620 888 530 893 L530 926 L853 926 L853 222 Q853 154 877.5 128.5 Q902 103 981 106 L981 78 Q926 63 900 55.5 Q874 48 813 28 Q787 19 699 -15 Q694 -15 693 -10.5 Q692 -6 692 0 L692 161 Q624 80 568 41 Q483 -19 388 -19 Q301 -19 224 43 Q146 104 146 248 L146 767 Q146 847 112 874 Q90 891 18 898 L18 926 L317 926 Z M563 1268 Q598 1251 619.5 1244.5 Q641 1238 661 1238 Q712 1238 745 1276 Q767 1300 779 1340 L838 1340 Q833 1286 799 1228 Q737 1124 619 1124 Q577 1124 540.5 1136 Q504 1148 459 1171 L412 1195 Q395 1203 373.5 1209.5 Q352 1216 334 1216 Q283 1216 253 1182 Q237 1163 222 1124 L160 1124 Q186 1231 246 1280.5 Q306 1330 377 1330 Q410 1330 442.5 1320.5 Q475 1311 514 1292 L563 1268 Z " />
<glyph glyph-name="Umacron" unicode="&#x16a;" horiz-adv-x="1479" d="M609 1355 L609 1317 Q491 1309 456 1277.5 Q421 1246 421 1133 L421 478 Q421 317 465 227 Q547 63 776 63 Q1027 63 1113 231 Q1161 325 1161 521 L1161 1054 Q1161 1221 1121 1263.5 Q1081 1306 969 1317 L969 1355 L1443 1355 L1443 1317 Q1324 1304 1287.5 1259.5 Q1251 1215 1251 1054 L1251 521 Q1251 309 1186 190 Q1066 -29 730 -29 Q398 -29 278 187 Q213 303 213 493 L213 1133 Q213 1245 178.5 1276.5 Q144 1308 28 1317 L28 1355 L609 1355 Z M415 1566 L1055 1566 L1055 1457 L415 1457 L415 1566 Z " />
<glyph glyph-name="umacron" unicode="&#x16b;" horiz-adv-x="1024" d="M317 926 L317 286 Q317 218 336 177 Q373 101 472 101 Q540 101 605 146 Q642 171 680 215 L680 763 Q680 840 650 864 Q620 888 530 893 L530 926 L853 926 L853 222 Q853 154 877.5 128.5 Q902 103 981 106 L981 78 Q926 63 900 55.5 Q874 48 813 28 Q787 19 699 -15 Q694 -15 693 -10.5 Q692 -6 692 0 L692 161 Q624 80 568 41 Q483 -19 388 -19 Q301 -19 224 43 Q146 104 146 248 L146 767 Q146 847 112 874 Q90 891 18 898 L18 926 L317 926 Z M179 1153 L819 1153 L819 1044 L179 1044 L179 1153 Z " />
<glyph glyph-name="Ubreve" unicode="&#x16c;" horiz-adv-x="1479" d="M609 1355 L609 1317 Q491 1309 456 1277.5 Q421 1246 421 1133 L421 478 Q421 317 465 227 Q547 63 776 63 Q1027 63 1113 231 Q1161 325 1161 521 L1161 1054 Q1161 1221 1121 1263.5 Q1081 1306 969 1317 L969 1355 L1443 1355 L1443 1317 Q1324 1304 1287.5 1259.5 Q1251 1215 1251 1054 L1251 521 Q1251 309 1186 190 Q1066 -29 730 -29 Q398 -29 278 187 Q213 303 213 493 L213 1133 Q213 1245 178.5 1276.5 Q144 1308 28 1317 L28 1355 L609 1355 Z M1029 1781 Q1016 1651 971 1580 Q896 1459 724 1459 Q644 1459 581 1499 Q460 1577 451 1781 L513 1781 Q526 1688 583 1635.5 Q640 1583 746 1583 Q853 1583 910 1654 Q941 1693 968 1781 L1029 1781 Z " />
<glyph glyph-name="ubreve" unicode="&#x16d;" horiz-adv-x="1024" d="M317 926 L317 286 Q317 218 336 177 Q373 101 472 101 Q540 101 605 146 Q642 171 680 215 L680 763 Q680 840 650 864 Q620 888 530 893 L530 926 L853 926 L853 222 Q853 154 877.5 128.5 Q902 103 981 106 L981 78 Q926 63 900 55.5 Q874 48 813 28 Q787 19 699 -15 Q694 -15 693 -10.5 Q692 -6 692 0 L692 161 Q624 80 568 41 Q483 -19 388 -19 Q301 -19 224 43 Q146 104 146 248 L146 767 Q146 847 112 874 Q90 891 18 898 L18 926 L317 926 Z M793 1360 Q780 1230 735 1159 Q660 1038 488 1038 Q408 1038 345 1078 Q224 1156 215 1360 L277 1360 Q290 1267 347 1214.5 Q404 1162 510 1162 Q617 1162 674 1233 Q705 1272 732 1360 L793 1360 Z " />
<glyph glyph-name="Uring" unicode="&#x16e;" horiz-adv-x="1479" d="M609 1355 L609 1317 Q491 1309 456 1277.5 Q421 1246 421 1133 L421 478 Q421 317 465 227 Q547 63 776 63 Q1027 63 1113 231 Q1161 325 1161 521 L1161 1054 Q1161 1221 1121 1263.5 Q1081 1306 969 1317 L969 1355 L1443 1355 L1443 1317 Q1324 1304 1287.5 1259.5 Q1251 1215 1251 1054 L1251 521 Q1251 309 1186 190 Q1066 -29 730 -29 Q398 -29 278 187 Q213 303 213 493 L213 1133 Q213 1245 178.5 1276.5 Q144 1308 28 1317 L28 1355 L609 1355 Z M615 1650 Q615 1597 652 1560.5 Q689 1524 741 1524 Q793 1524 829.5 1561 Q866 1598 866 1650 Q866 1702 829.5 1738.5 Q793 1775 741 1775 Q689 1775 652 1738.5 Q615 1702 615 1650 Z M532 1650 Q532 1736 593.5 1797 Q655 1858 741 1858 Q827 1858 888 1797 Q949 1736 949 1650 Q949 1563 888 1502 Q827 1441 741 1441 Q654 1441 593 1502 Q532 1563 532 1650 Z " />
<glyph glyph-name="uring" unicode="&#x16f;" horiz-adv-x="1024" d="M317 926 L317 286 Q317 218 336 177 Q373 101 472 101 Q540 101 605 146 Q642 171 680 215 L680 763 Q680 840 650 864 Q620 888 530 893 L530 926 L853 926 L853 222 Q853 154 877.5 128.5 Q902 103 981 106 L981 78 Q926 63 900 55.5 Q874 48 813 28 Q787 19 699 -15 Q694 -15 693 -10.5 Q692 -6 692 0 L692 161 Q624 80 568 41 Q483 -19 388 -19 Q301 -19 224 43 Q146 104 146 248 L146 767 Q146 847 112 874 Q90 891 18 898 L18 926 L317 926 Z M374 1256 Q374 1203 411 1166.5 Q448 1130 500 1130 Q552 1130 588.5 1167 Q625 1204 625 1256 Q625 1308 588.5 1344.5 Q552 1381 500 1381 Q448 1381 411 1344.5 Q374 1308 374 1256 Z M291 1256 Q291 1342 352.5 1403 Q414 1464 500 1464 Q586 1464 647 1403 Q708 1342 708 1256 Q708 1169 647 1108 Q586 1047 500 1047 Q413 1047 352 1108 Q291 1169 291 1256 Z " />
<glyph glyph-name="Uhungarumlaut" unicode="&#x170;" horiz-adv-x="1479" d="M609 1355 L609 1317 Q491 1309 456 1277.5 Q421 1246 421 1133 L421 478 Q421 317 465 227 Q547 63 776 63 Q1027 63 1113 231 Q1161 325 1161 521 L1161 1054 Q1161 1221 1121 1263.5 Q1081 1306 969 1317 L969 1355 L1443 1355 L1443 1317 Q1324 1304 1287.5 1259.5 Q1251 1215 1251 1054 L1251 521 Q1251 309 1186 190 Q1066 -29 730 -29 Q398 -29 278 187 Q213 303 213 493 L213 1133 Q213 1245 178.5 1276.5 Q144 1308 28 1317 L28 1355 L609 1355 Z M1273 1759 Q1273 1736 1258 1715.5 Q1243 1695 1211 1675 L896 1476 L813 1476 L1114 1779 Q1141 1807 1164.5 1818 Q1188 1829 1204 1829 Q1231 1829 1252 1809.5 Q1273 1790 1273 1759 Z M799 1779 Q821 1805 837 1817.5 Q853 1830 877 1830 Q910 1830 929 1808.5 Q948 1787 948 1759 Q948 1732 931.5 1711.5 Q915 1691 896 1675 L618 1457 L535 1457 L799 1779 Z " />
<glyph glyph-name="uhungarumlaut" unicode="&#x171;" horiz-adv-x="1024" d="M317 926 L317 286 Q317 218 336 177 Q373 101 472 101 Q540 101 605 146 Q642 171 680 215 L680 763 Q680 840 650 864 Q620 888 530 893 L530 926 L853 926 L853 222 Q853 154 877.5 128.5 Q902 103 981 106 L981 78 Q926 63 900 55.5 Q874 48 813 28 Q787 19 699 -15 Q694 -15 693 -10.5 Q692 -6 692 0 L692 161 Q624 80 568 41 Q483 -19 388 -19 Q301 -19 224 43 Q146 104 146 248 L146 767 Q146 847 112 874 Q90 891 18 898 L18 926 L317 926 Z M924 1342 Q924 1319 909 1298.5 Q894 1278 862 1258 L547 1059 L464 1059 L765 1362 Q792 1390 815.5 1401 Q839 1412 855 1412 Q882 1412 903 1392.5 Q924 1373 924 1342 Z M450 1362 Q472 1388 488 1400.5 Q504 1413 528 1413 Q561 1413 580 1391.5 Q599 1370 599 1342 Q599 1315 582.5 1294.5 Q566 1274 547 1258 L269 1040 L186 1040 L450 1362 Z " />
<glyph glyph-name="Uogonek" unicode="&#x172;" horiz-adv-x="1479" d="M609 1355 L609 1317 Q491 1309 456 1277.5 Q421 1246 421 1133 L421 478 Q421 317 465 227 Q547 63 776 63 Q1027 63 1113 231 Q1161 325 1161 521 L1161 1054 Q1161 1221 1121 1263.5 Q1081 1306 969 1317 L969 1355 L1443 1355 L1443 1317 Q1324 1304 1287.5 1259.5 Q1251 1215 1251 1054 L1251 521 Q1251 309 1186 190 Q1066 -29 730 -29 Q398 -29 278 187 Q213 303 213 493 L213 1133 Q213 1245 178.5 1276.5 Q144 1308 28 1317 L28 1355 L609 1355 Z M811 25 Q763 -51 742 -114.5 Q721 -178 721 -242 Q721 -300 757.5 -335.5 Q794 -371 844 -371 Q876 -371 914 -356 Q937 -346 972 -326 L972 -442 Q929 -467 883.5 -480.5 Q838 -494 792 -494 Q705 -494 643 -439 Q581 -384 581 -304 Q581 -248 604 -192 Q648 -84 768 25 L811 25 Z " />
<glyph glyph-name="uogonek" unicode="&#x173;" horiz-adv-x="1024" d="M317 926 L317 286 Q317 218 336 177 Q373 101 472 101 Q540 101 605 146 Q642 171 680 215 L680 763 Q680 840 650 864 Q620 888 530 893 L530 926 L853 926 L853 222 Q853 154 877.5 128.5 Q902 103 981 106 L981 78 Q926 63 900 55.5 Q874 48 813 28 Q787 19 699 -15 Q694 -15 693 -10.5 Q692 -6 692 0 L692 161 Q624 80 568 41 Q483 -19 388 -19 Q301 -19 224 43 Q146 104 146 248 L146 767 Q146 847 112 874 Q90 891 18 898 L18 926 L317 926 Z M811 76 Q763 0 742 -63.5 Q721 -127 721 -191 Q721 -249 757.5 -284.5 Q794 -320 844 -320 Q876 -320 914 -305 Q937 -295 972 -275 L972 -391 Q929 -416 883.5 -429.5 Q838 -443 792 -443 Q705 -443 643 -388 Q581 -333 581 -253 Q581 -197 604 -141 Q648 -33 768 76 L811 76 Z " />
<glyph glyph-name="Wcircumflex" unicode="&#x174;" horiz-adv-x="1933" d="M511 1355 L511 1317 Q450 1315 424 1306 Q378 1289 378 1244 Q378 1224 383.5 1205 Q389 1186 400 1156 L696 386 L914 964 L817 1211 Q790 1279 736 1302 Q704 1316 639 1317 L639 1355 L1187 1355 L1187 1317 Q1110 1316 1081 1306 Q1035 1289 1035 1236 Q1035 1218 1039 1204.5 Q1043 1191 1059 1149 L1355 381 L1611 1076 Q1633 1135 1641 1181 Q1646 1207 1646 1223 Q1646 1280 1592 1302 Q1562 1315 1502 1317 L1502 1355 L1908 1355 L1908 1317 Q1853 1309 1824 1292 Q1772 1263 1746 1192 L1528 583 L1443 348 L1320 -24 L1289 -24 L1206 213 L962 843 L647 -24 L616 -24 L469 402 L293 881 Q184 1177 141.5 1244.5 Q99 1312 9 1317 L9 1355 L511 1355 Z M638 1443 L894 1784 L1022 1784 L1278 1443 L1207 1443 L958 1654 L709 1443 L638 1443 Z " />
<glyph glyph-name="wcircumflex" unicode="&#x175;" horiz-adv-x="1479" d="M952 898 Q892 891 863 878 Q834 865 834 826 Q834 805 840.5 782.5 Q847 760 858 730 L1040 255 L1218 689 Q1230 717 1244 762.5 Q1258 808 1258 831 Q1258 868 1235 881 Q1212 894 1168 900 L1168 929 L1422 929 L1422 900 Q1397 895 1381 876 Q1365 857 1336 786 L1016 -3 Q1012 -12 1009 -16 Q1006 -20 1000 -20 Q988 -14 986 -10 L760 549 L497 -8 Q495 -13 491.5 -16.5 Q488 -20 483 -20 Q471 -14 469 -10 L170 727 Q121 848 105 869.5 Q89 891 42 898 L42 929 L412 929 L412 898 Q366 894 341.5 881.5 Q317 869 317 828 Q317 799 358 686 Q382 621 419 528 L533 244 L713 630 L715 642 Q715 662 693.5 716.5 Q672 771 652 814 Q632 859 606.5 876.5 Q581 894 535 898 L535 929 L952 929 L952 898 Z M427 1053 L683 1394 L811 1394 L1067 1053 L996 1053 L747 1264 L498 1053 L427 1053 Z " />
<glyph glyph-name="Ycircumflex" unicode="&#x176;" horiz-adv-x="1479" d="M618 1355 L618 1317 Q546 1319 510 1306 Q474 1293 474 1250 Q474 1237 480 1217.5 Q486 1198 507 1166 L810 711 L1104 1173 Q1122 1202 1127.5 1221 Q1133 1240 1133 1249 Q1133 1293 1086 1307 Q1058 1316 990 1317 L990 1355 L1438 1355 L1438 1317 Q1376 1314 1327 1280 Q1251 1227 1156 1083 L853 621 L853 222 Q853 103 891.5 73.5 Q930 44 1064 37 L1064 0 L438 0 L438 37 Q577 45 610.5 78.5 Q644 112 644 246 L644 602 L376 995 Q237 1198 181 1255.5 Q125 1313 45 1317 L45 1355 L618 1355 Z M421 1448 L677 1789 L805 1789 L1061 1448 L990 1448 L741 1659 L492 1448 L421 1448 Z " />
<glyph glyph-name="ycircumflex" unicode="&#x177;" horiz-adv-x="1024" d="M28 919 L450 919 L450 888 Q400 887 376 879 Q330 866 330 828 Q330 814 335 799.5 Q340 785 353 756 L587 237 L775 760 Q778 768 784.5 796 Q791 824 791 834 Q791 860 773 872 Q755 884 727 886 L696 888 L696 919 L971 919 L971 888 Q930 883 909.5 860 Q889 837 874 796 L559 -38 Q477 -254 402 -351 Q327 -448 212 -448 Q156 -448 107 -420 Q58 -392 58 -331 Q58 -291 87.5 -265.5 Q117 -240 162 -240 Q188 -240 239.5 -259 Q291 -278 313 -278 Q369 -278 431 -148 Q493 -18 493 26 Q493 35 490 48 Q487 61 483 71 L163 763 Q129 837 103.5 860.5 Q78 884 28 891 L28 919 Z M194 1051 L450 1392 L578 1392 L834 1051 L763 1051 L514 1262 L265 1051 L194 1051 Z " />
<glyph glyph-name="Zacute" unicode="&#x179;" horiz-adv-x="1251" d="M14 23 L912 1277 L440 1277 Q262 1277 187 1188 Q142 1135 116 1005 L63 1005 L104 1355 L1185 1355 L1185 1332 L296 78 L822 78 Q1001 78 1083 163 Q1134 217 1175 360 L1223 360 L1173 0 L14 0 L14 23 Z M859 1723 Q859 1694 843 1675 Q827 1656 796 1636 L481 1437 L398 1437 L699 1740 Q715 1756 739 1773 Q763 1790 790 1790 Q816 1790 837.5 1771.5 Q859 1753 859 1723 Z " />
<glyph glyph-name="zacute" unicode="&#x17a;" horiz-adv-x="909" d="M829 919 L829 895 L274 63 L557 63 Q704 63 743 100.5 Q782 138 820 284 L855 277 L827 0 L52 0 L52 23 L599 858 L331 858 Q223 858 190 821 Q157 784 144 677 L109 677 L113 919 L829 919 Z M715 1289 Q715 1260 699 1241 Q683 1222 652 1202 L337 1003 L254 1003 L555 1306 Q571 1322 595 1339 Q619 1356 646 1356 Q672 1356 693.5 1337.5 Q715 1319 715 1289 Z " />
<glyph glyph-name="Zdotaccent" unicode="&#x17b;" horiz-adv-x="1251" d="M14 23 L912 1277 L440 1277 Q262 1277 187 1188 Q142 1135 116 1005 L63 1005 L104 1355 L1185 1355 L1185 1332 L296 78 L822 78 Q1001 78 1083 163 Q1134 217 1175 360 L1223 360 L1173 0 L14 0 L14 23 Z M720 1604 Q720 1562 690.5 1532 Q661 1502 618 1502 Q576 1502 546 1532 Q516 1562 516 1604 Q516 1646 546 1676 Q576 1706 618 1706 Q661 1706 690.5 1676 Q720 1646 720 1604 Z " />
<glyph glyph-name="zdotaccent" unicode="&#x17c;" horiz-adv-x="909" d="M829 919 L829 895 L274 63 L557 63 Q704 63 743 100.5 Q782 138 820 284 L855 277 L827 0 L52 0 L52 23 L599 858 L331 858 Q223 858 190 821 Q157 784 144 677 L109 677 L113 919 L829 919 Z M571 1187 Q571 1145 541.5 1115 Q512 1085 469 1085 Q427 1085 397 1115 Q367 1145 367 1187 Q367 1229 397 1259 Q427 1289 469 1289 Q512 1289 541.5 1259 Q571 1229 571 1187 Z " />
<glyph glyph-name="Scommaaccent" unicode="&#x218;" horiz-adv-x="1139" d="M132 412 Q184 274 254 192 Q376 49 557 49 Q655 49 726.5 111 Q798 173 798 284 Q798 384 726 458 Q679 505 528 599 L353 708 Q274 758 227 809 Q140 906 140 1023 Q140 1178 243 1281 Q346 1384 516 1384 Q586 1384 684.5 1349.5 Q783 1315 797 1315 Q835 1315 849.5 1333 Q864 1351 872 1384 L914 1384 L959 948 L910 948 Q860 1145 749.5 1223 Q639 1301 531 1301 Q447 1301 384.5 1251.5 Q322 1202 322 1114 Q322 1035 370 979 Q418 922 519 860 L699 749 Q868 645 937 558 Q1005 470 1005 350 Q1005 189 883.5 81 Q762 -27 573 -27 Q478 -27 374.5 9 Q271 45 256 45 Q220 45 207.5 23 Q195 1 191 -24 L146 -24 L85 412 L132 412 Z M689 -312 Q689 -413 616 -500 Q543 -587 459 -625 L440 -585 Q536 -531 572.5 -468 Q609 -405 609 -363 Q609 -349 600 -345 Q591 -341 581 -341 L514 -348 Q472 -348 437 -320.5 Q402 -293 402 -241 Q402 -201 431 -163 Q460 -125 526 -125 Q589 -125 639 -174.5 Q689 -224 689 -312 Z " />
<glyph glyph-name="scommaaccent" unicode="&#x219;" horiz-adv-x="797" d="M106 315 L139 315 Q162 201 201 140 Q271 28 406 28 Q481 28 524.5 69.5 Q568 111 568 177 Q568 219 543 258 Q518 297 455 334 L343 398 Q220 464 162 531 Q104 598 104 689 Q104 801 184 873 Q264 945 385 945 Q438 945 501.5 925 Q565 905 573 905 Q591 905 599 910 Q607 915 613 926 L637 926 L644 647 L613 647 Q593 744 559 798 Q497 898 380 898 Q310 898 270 855 Q230 812 230 754 Q230 662 368 590 L500 519 Q713 403 713 249 Q713 131 624.5 56 Q536 -19 393 -19 Q333 -19 257 1 Q181 21 167 21 Q155 21 146 12.5 Q137 4 132 -8 L106 -8 L106 315 Z M552 -304 Q552 -405 479 -492 Q406 -579 322 -617 L303 -577 Q399 -523 435.5 -460 Q472 -397 472 -355 Q472 -341 463 -337 Q454 -333 444 -333 L377 -340 Q335 -340 300 -312.5 Q265 -285 265 -233 Q265 -193 294 -155 Q323 -117 389 -117 Q452 -117 502 -166.5 Q552 -216 552 -304 Z " />
<glyph glyph-name="Tcommaaccent" unicode="&#x21a;" horiz-adv-x="1251" d="M40 1355 L1197 1355 L1208 1007 L1159 1007 Q1123 1171 1067.5 1220.5 Q1012 1270 834 1270 L720 1270 L720 222 Q720 103 757 74.5 Q794 46 919 37 L919 0 L322 0 L322 37 Q452 47 484 80 Q516 113 516 246 L516 1270 L402 1270 Q232 1270 170.5 1221 Q109 1172 78 1007 L28 1007 L40 1355 Z M762 -285 Q762 -386 689 -473 Q616 -560 532 -598 L513 -558 Q609 -504 645.5 -441 Q682 -378 682 -336 Q682 -322 673 -318 Q664 -314 654 -314 L587 -321 Q545 -321 510 -293.5 Q475 -266 475 -214 Q475 -174 504 -136 Q533 -98 599 -98 Q662 -98 712 -147.5 Q762 -197 762 -285 Z " />
</font>
</svg>
