<svg xmlns="http://www.w3.org/2000/svg" viewBox="15750 6217 146.771 40.329"><defs><style>.a,.b{fill:#fff;}.b{fill-rule:evenodd;}</style></defs><g transform="translate(15750 6217)"><g transform="translate(0 26.333)"><path class="a" d="M45.1,41.313h4.142A.759.759,0,0,0,50,40.936a2.263,2.263,0,0,0,.251-1.255,1.669,1.669,0,0,0-.377-1,.69.69,0,0,0-.628-.377h-8.41a2.365,2.365,0,0,0-1,.251,3.427,3.427,0,0,0-1.13,1.506,6.277,6.277,0,0,0,0,4.77c0,.126.126.251,0,.377a6.244,6.244,0,0,0-.126,4.519,4.429,4.429,0,0,0,1,1.632,1.612,1.612,0,0,0,1.255.5h8.033a1.888,1.888,0,0,0,1.381-.5c.251-.251.377-.5.628-.753a6.019,6.019,0,0,0,.628-2.134v-.879c0-.251.126-.377.251-.628a.652.652,0,0,1,.5-.251.652.652,0,0,0,.5-.251.952.952,0,0,0,.251-.5,2.139,2.139,0,0,0,0-1.255c0-.251-.126-.377-.251-.628A.559.559,0,0,0,52,43.823a1.55,1.55,0,0,0-1,.5,4.429,4.429,0,0,0-1,1.632,5.2,5.2,0,0,0-.251,2.008,1.592,1.592,0,0,1-.126.753.69.69,0,0,1-.628.377H40.959a.69.69,0,0,1-.628-.377,1.727,1.727,0,0,1-.126-1.381.688.688,0,0,1,.753-.5h6.9c.126,0,.377,0,.377-.126.126-.126.126-.251.251-.377a2.448,2.448,0,0,0,0-1.883.944.944,0,0,0-.879-.628H40.833c-.377,0-.5-.126-.753-.5a1.36,1.36,0,0,1,0-1.381.848.848,0,0,1,.753-.5C42.339,41.313,43.72,41.313,45.1,41.313Z" transform="translate(-38.211 -38.112)"/><path class="a" d="M84.986,46.559a2.188,2.188,0,0,0,1.506-.753,3.146,3.146,0,0,0,.5-.879,6.583,6.583,0,0,0,.126-4.644,5.088,5.088,0,0,0-.628-1.13,2.024,2.024,0,0,0-1.632-.753H74.191a.652.652,0,0,0-.5.251c-.126.126-.126.251-.251.251a2.144,2.144,0,0,0,0,1.757.776.776,0,0,0,1,.628H85.237a.461.461,0,0,1,.377.126c.126.126.126.251.251.377a1.742,1.742,0,0,1,0,1.13c-.126.5-.377.628-.879.628h-9.54a1.346,1.346,0,0,0-.753.251,2.733,2.733,0,0,0-.879,1.13,5.094,5.094,0,0,0-.5,2.385v3.264a1.139,1.139,0,0,0,.377.879.607.607,0,0,0,.879,0c.126-.126.251-.377.377-.5a1.592,1.592,0,0,0,.126-.753V47.563a1.059,1.059,0,0,1,.251-.879.652.652,0,0,1,.5-.251h3.515a3.683,3.683,0,0,1,2.008.5,9.588,9.588,0,0,1,2.887,2.134c.753.753,1.381,1.506,2.008,2.259l.251.251a.57.57,0,0,0,.628,0,.673.673,0,0,0,.377-.5,1.933,1.933,0,0,0-.251-2.008l-1.506-1.883C85.488,46.935,85.237,46.81,84.986,46.559Z" transform="translate(-29.269 -38.086)"/><path class="a" d="M137.911,51.805h5.4a.759.759,0,0,0,.753-.377.461.461,0,0,0,.126-.377,2.139,2.139,0,0,0,0-1.255.69.69,0,0,0-.377-.628.652.652,0,0,0-.5-.251H133.141a1.575,1.575,0,0,1-1.381-.753,3.759,3.759,0,0,1-.5-1.255,8.3,8.3,0,0,1,0-3.515,2.786,2.786,0,0,1,.628-1.381,2.251,2.251,0,0,1,.879-.628H143.56c.126,0,.251-.126.377-.126.126-.126.126-.251.251-.377a2.448,2.448,0,0,0,0-1.883.84.84,0,0,0-.879-.5H132.89a1.612,1.612,0,0,0-1.255.5,5.461,5.461,0,0,0-.753.879,6.224,6.224,0,0,0-1,2.51,9.841,9.841,0,0,0-.251,4.268,15.331,15.331,0,0,0,.753,3.264,3.2,3.2,0,0,0,1,1.506,1.689,1.689,0,0,0,1.506.628A32.815,32.815,0,0,1,137.911,51.805Z" transform="translate(-14.914 -38.061)"/><path class="a" d="M61.283,46.584H71.325a2.016,2.016,0,0,0,1.381-.628,2.964,2.964,0,0,0,.753-1.13,6.244,6.244,0,0,0,.126-4.519,2.6,2.6,0,0,0-.753-1.255A1.865,1.865,0,0,0,71.2,38.3H60.53a.948.948,0,0,0-.879.5,2.327,2.327,0,0,0-.251.879v1.632H71.2a.69.69,0,0,1,.628.377,1.6,1.6,0,0,1,0,1.506.69.69,0,0,1-.628.377H59.4v6.9a1.669,1.669,0,0,0,.377,1,.588.588,0,0,0,1,0,.952.952,0,0,0,.251-.5,1.592,1.592,0,0,0,.126-.753V46.835C61.283,46.835,61.283,46.71,61.283,46.584Z" transform="translate(-32.804 -38.112)"/><path class="a" d="M117.283,45.487h11.548a.759.759,0,0,0,.753-.377,1.509,1.509,0,0,0,.251-1,3,3,0,0,0-.251-1.13.759.759,0,0,0-.753-.377H116.153c-.377.126-.628.251-.628.628a5.436,5.436,0,0,1-.126.628v2.887a5.62,5.62,0,0,0,.5,2.51,4.4,4.4,0,0,0,.628,1,1.533,1.533,0,0,0,1.13.5h11.423a.759.759,0,0,0,.753-.377,2.153,2.153,0,0,0,0-2.134.759.759,0,0,0-.753-.377h-11.3c-.377,0-.5-.126-.628-.5V45.738C117.283,45.613,117.283,45.613,117.283,45.487Z" transform="translate(-18.511 -37.014)"/><path class="a" d="M108.631,51.844h4.017a2.136,2.136,0,0,0,.879-.126,1.285,1.285,0,0,0,.753-.628,6.366,6.366,0,0,0,1.13-2.008,10.784,10.784,0,0,0,.628-4.017V39.417a.948.948,0,0,0-.5-.879c-.251-.251-.628-.251-.753,0a1.733,1.733,0,0,0-.377.5,2.136,2.136,0,0,0-.126.879v5.272a5.149,5.149,0,0,1-.126,1.381,6.214,6.214,0,0,1-.5,1.632,1.789,1.789,0,0,1-1.506.753h-7.28a2.016,2.016,0,0,1-1.381-.628,2.644,2.644,0,0,1-.628-1.632.941.941,0,0,0-.126-.628c0-.251-.126-.377-.377-.628a.471.471,0,0,0-.753,0,2.745,2.745,0,0,0-.377.628,2.136,2.136,0,0,0-.126.879,10.986,10.986,0,0,0,.251,2.008,6.66,6.66,0,0,0,1,2.134,2.439,2.439,0,0,0,2.008,1A25.817,25.817,0,0,1,108.631,51.844Z" transform="translate(-22.161 -38.099)"/><path class="a" d="M87.1,44.6c0,.377.126.628.126,1a7.127,7.127,0,0,0,.879,2.761,5.573,5.573,0,0,0,1,1.381,2.255,2.255,0,0,0,1.13.5h8.284a1.612,1.612,0,0,0,1.255-.5,4.329,4.329,0,0,0,1.13-1.506,9.142,9.142,0,0,0,.879-3.013,1.132,1.132,0,0,1,.126-.628h-1.757v.251a3.683,3.683,0,0,1-.377,1.255,1.777,1.777,0,0,1-1.757,1.13H90.74a1.224,1.224,0,0,1-1.13-.5,4.242,4.242,0,0,1-.753-1.506c0-.126-.126-.377-.126-.5A7.157,7.157,0,0,0,87.1,44.6Z" transform="translate(-25.734 -36.504)"/><path class="a" d="M88.706,43.948a.755.755,0,0,1,.126-.5,3.891,3.891,0,0,1,.753-1.632,1.55,1.55,0,0,1,1-.5h7.657a1.591,1.591,0,0,1,1.13.5,3.89,3.89,0,0,1,.753,1.632.755.755,0,0,0,.126.5h1.757V43.7a10.064,10.064,0,0,0-.628-2.636,13.719,13.719,0,0,0-1-1.883,2.4,2.4,0,0,0-1.757-.879H90.589a1.888,1.888,0,0,0-1.381.5,6.9,6.9,0,0,0-.879,1.13,6.016,6.016,0,0,0-.879,2.51c-.126.5-.126,1-.251,1.381A5.627,5.627,0,0,0,88.706,43.948Z" transform="translate(-25.709 -38.112)"/><path class="a" d="M122.825,41.313H129.1a.836.836,0,0,0,.879-.628,2.493,2.493,0,0,0,.126-1.381c0-.251-.126-.377-.251-.628a.759.759,0,0,0-.753-.377H116.423a1.085,1.085,0,0,0-.753.377c-.126.126-.126.251-.251.377a2.578,2.578,0,0,0,0,1.381.888.888,0,0,0,.753.753h.251C118.683,41.313,120.817,41.313,122.825,41.313Z" transform="translate(-18.531 -38.112)"/><path class="b" d="M157.765,40.961a.759.759,0,0,1-.753.377H151.74v8.787a2.136,2.136,0,0,1-.126.879c-.126.126-.126.377-.251.5a.588.588,0,0,1-1,0c-.251-.251-.251-.5-.377-.879V41.213h-5.146a.948.948,0,0,1-.879-.5,1.926,1.926,0,0,1,0-2.008c.126-.377.377-.5.879-.5h12.3a.84.84,0,0,1,.879.5A4,4,0,0,1,157.765,40.961Z" transform="translate(-11.295 -38.137)"/><path class="b" d="M45.072,41.338H40.93a.688.688,0,0,0-.753.5,1.36,1.36,0,0,0,0,1.381.848.848,0,0,0,.753.5h6.778c.5,0,.753.126.879.628a2.448,2.448,0,0,1,0,1.883c0,.126-.126.251-.251.377a.461.461,0,0,1-.377.126h-6.9a.688.688,0,0,0-.753.5,1.778,1.778,0,0,0,.126,1.381.69.69,0,0,0,.628.377h8.033a.69.69,0,0,0,.628-.377,1.592,1.592,0,0,0,.126-.753,10.986,10.986,0,0,1,.251-2.008,4.429,4.429,0,0,1,1-1.632,1.55,1.55,0,0,1,1-.5.922.922,0,0,1,.753.251.959.959,0,0,1,.251.628,2.139,2.139,0,0,1,0,1.255c-.126.126-.126.377-.251.5a.652.652,0,0,1-.5.251.652.652,0,0,0-.5.251c-.126.251-.251.377-.251.628v.879a4.232,4.232,0,0,1-.628,2.134,3.328,3.328,0,0,1-.628.753,1.888,1.888,0,0,1-1.381.5H40.93a1.612,1.612,0,0,1-1.255-.5,4.429,4.429,0,0,1-1-1.632A6.974,6.974,0,0,1,38.8,45.1v-.377a6.277,6.277,0,0,1,0-4.77,3.427,3.427,0,0,1,1.13-1.506,1.352,1.352,0,0,1,1-.251h8.41a.69.69,0,0,1,.628.377c.251.251.251.628.377,1a2.064,2.064,0,0,1-.251,1.255.61.61,0,0,1-.753.377C47.833,41.338,46.453,41.338,45.072,41.338Z" transform="translate(-38.182 -38.137)"/><path class="b" d="M85.037,46.559a2.2,2.2,0,0,1,.5.628l1.506,1.883a1.965,1.965,0,0,1,.251,2.008,1.733,1.733,0,0,1-.377.5.56.56,0,0,1-.628,0l-.251-.251c-.628-.753-1.381-1.506-2.008-2.259a9.588,9.588,0,0,0-2.887-2.134,5.263,5.263,0,0,0-2.008-.5H75.623a.652.652,0,0,0-.5.251,2.327,2.327,0,0,0-.251.879V50.2a1.592,1.592,0,0,1-.126.753c-.126.126-.126.377-.377.5a.607.607,0,0,1-.879,0,1.356,1.356,0,0,1-.377-.879V47.312a5.094,5.094,0,0,1,.5-2.385,2.733,2.733,0,0,1,.879-1.13,1.784,1.784,0,0,1,.753-.251h9.54c.5,0,.753-.126.879-.628a1.742,1.742,0,0,0,0-1.13c0-.126-.126-.251-.251-.377a.461.461,0,0,0-.377-.126H74.242a1.118,1.118,0,0,1-1-.628,2.144,2.144,0,0,1,0-1.757.27.27,0,0,1,.251-.251.952.952,0,0,1,.5-.251H84.661a2.21,2.21,0,0,1,1.632.753,5.088,5.088,0,0,1,.628,1.13,6.583,6.583,0,0,1-.126,4.644,5.457,5.457,0,0,1-.5.879A1.2,1.2,0,0,1,85.037,46.559Z" transform="translate(-29.32 -38.086)"/><path class="b" d="M137.945,51.856h-5.272a2.079,2.079,0,0,1-1.506-.628,10.474,10.474,0,0,1-1-1.506,13.753,13.753,0,0,1-.753-3.264,16.276,16.276,0,0,1,.251-4.268,8.764,8.764,0,0,1,1-2.51c.251-.251.5-.628.753-.879a2.23,2.23,0,0,1,1.255-.5h10.418c.5,0,.753.126.879.5a2.448,2.448,0,0,1,0,1.883c0,.126-.126.251-.251.377a.461.461,0,0,1-.377.126H132.548a1.453,1.453,0,0,0-.879.628,2.787,2.787,0,0,0-.628,1.381,8.3,8.3,0,0,0,0,3.515,3.76,3.76,0,0,0,.5,1.255,1.575,1.575,0,0,0,1.381.753h10.167a.652.652,0,0,1,.5.251c.126.251.251.377.377.628a2.139,2.139,0,0,1,0,1.255c0,.126-.126.251-.126.377a.759.759,0,0,1-.753.377A32.844,32.844,0,0,1,137.945,51.856Z" transform="translate(-14.948 -38.112)"/><path class="b" d="M61.257,46.584v3.64a1.592,1.592,0,0,1-.126.753.952.952,0,0,1-.251.5.588.588,0,0,1-1,0,1.425,1.425,0,0,1-.377-1v-6.9H71.3a.58.58,0,0,0,.628-.377,1.6,1.6,0,0,0,0-1.506.69.69,0,0,0-.628-.377H59.5V39.681a1.814,1.814,0,0,1,.251-.879c.126-.377.377-.5.879-.5H71.3a2.21,2.21,0,0,1,1.632.753,4.178,4.178,0,0,1,.753,1.255,6.244,6.244,0,0,1-.126,4.519,1.828,1.828,0,0,1-.753,1.13,1.8,1.8,0,0,1-1.381.628Z" transform="translate(-32.778 -38.112)"/><path class="b" d="M117.257,45.513V47.27c.126.377.251.5.628.5h11.3a.759.759,0,0,1,.753.377,2.153,2.153,0,0,1,0,2.134.759.759,0,0,1-.753.377H117.759a1.591,1.591,0,0,1-1.13-.5,2.733,2.733,0,0,1-.628-1,5.62,5.62,0,0,1-.5-2.51V43.755a.941.941,0,0,1,.126-.628.806.806,0,0,1,.628-.628h12.678a.9.9,0,0,1,.753.377,1.865,1.865,0,0,1,.251,1.13,2.365,2.365,0,0,1-.251,1,.759.759,0,0,1-.753.377h-11.3C117.383,45.513,117.383,45.513,117.257,45.513Z" transform="translate(-18.486 -37.04)"/><path class="b" d="M108.555,51.895h-3.891a2.439,2.439,0,0,1-2.008-1,4.776,4.776,0,0,1-1-2.134,5.528,5.528,0,0,1-.251-2.008,2.136,2.136,0,0,1,.126-.879c.126-.251.251-.377.377-.628a.471.471,0,0,1,.753,0,2.744,2.744,0,0,1,.377.628,5.437,5.437,0,0,0,.126.628,2.644,2.644,0,0,0,.628,1.632,1.8,1.8,0,0,0,1.381.628h7.28A1.789,1.789,0,0,0,113.952,48a2.523,2.523,0,0,0,.5-1.632c0-.5.126-.879.126-1.381V39.719a1.861,1.861,0,0,1,.126-.879c.126-.126.251-.377.377-.5a.471.471,0,0,1,.753,0,2.023,2.023,0,0,1,.5.879v5.648a14.875,14.875,0,0,1-.628,4.017,6.365,6.365,0,0,1-1.13,2.008,3.328,3.328,0,0,1-.753.628,2.136,2.136,0,0,1-.879.126h-3.515A2.168,2.168,0,0,1,108.555,51.895Z" transform="translate(-22.085 -38.15)"/><path class="b" d="M87.1,44.626h1.757a.755.755,0,0,0,.126.5,2.863,2.863,0,0,0,.753,1.506,1.224,1.224,0,0,0,1.13.5h7.28a1.777,1.777,0,0,0,1.757-1.13,2.422,2.422,0,0,0,.377-1.255V44.5h1.757a1.132,1.132,0,0,1-.126.628,9.142,9.142,0,0,1-.879,3.013,3.427,3.427,0,0,1-1.13,1.506,2.23,2.23,0,0,1-1.255.5H90.364a1.224,1.224,0,0,1-1.13-.5,3.56,3.56,0,0,1-1-1.381,7.861,7.861,0,0,1-.879-2.761A1.059,1.059,0,0,1,87.1,44.626Z" transform="translate(-25.734 -36.529)"/><path class="b" d="M88.757,43.923H87c.126-.5.126-1,.251-1.381a8.521,8.521,0,0,1,.879-2.51,3.908,3.908,0,0,1,.879-1.13,1.888,1.888,0,0,1,1.381-.5h8.033a2.036,2.036,0,0,1,1.757.879,4.527,4.527,0,0,1,1,1.883,10.064,10.064,0,0,1,.628,2.636v.251h-1.757a.755.755,0,0,0-.126-.5,3.89,3.89,0,0,0-.753-1.632,1.224,1.224,0,0,0-1.13-.5H90.389a1.142,1.142,0,0,0-1,.5,3.89,3.89,0,0,0-.753,1.632C88.883,43.546,88.883,43.8,88.757,43.923Z" transform="translate(-25.76 -38.086)"/><path class="b" d="M122.8,41.287h-6.527a.652.652,0,0,1-.5-.251.952.952,0,0,1-.251-.5,2.578,2.578,0,0,1,0-1.381c0-.126.126-.251.251-.377a.759.759,0,0,1,.753-.377H129.2a.759.759,0,0,1,.753.377c.126.126.126.377.251.628a1.778,1.778,0,0,1-.126,1.381.944.944,0,0,1-.879.628C127.067,41.287,124.933,41.287,122.8,41.287Z" transform="translate(-18.505 -38.086)"/></g><g transform="translate(0.193)"><path class="a" d="M63.037,25.984h0a1.591,1.591,0,0,0,1.13-.5,2.79,2.79,0,0,0,1-1.632,6.181,6.181,0,0,0,.251-3.013,5.546,5.546,0,0,0-.753-2.008,2.262,2.262,0,0,0-2.008-1.13H51.991a.652.652,0,0,0-.5.251c-.126.126-.251.251-.251.377a1.862,1.862,0,0,0,0,1.632c.251.5.377.628,1,.628H63.037a.461.461,0,0,1,.377.126c.126.126.251.251.251.377a1.386,1.386,0,0,1,0,1c-.126.5-.377.628-.879.628H53.5a1.8,1.8,0,0,0-1.381.628,3.146,3.146,0,0,0-.5.879,7.108,7.108,0,0,0-.377,2.259V30a1.085,1.085,0,0,0,.377.753c.251.251.628.377.879,0a.652.652,0,0,0,.251-.5,1.592,1.592,0,0,0,.126-.753V26.863a.922.922,0,0,1,.251-.753c.126-.251.251-.377.5-.377h3.264a5.831,5.831,0,0,1,2.887.753,10.822,10.822,0,0,1,2.259,1.757c.628.753,1.255,1.506,2.008,2.259l.251.251a.8.8,0,0,0,.753,0c.251-.126.251-.377.377-.628a2.258,2.258,0,0,0-.251-2.008c-.377-.5-.879-1.13-1.255-1.632C63.665,26.612,63.288,26.235,63.037,25.984Z" transform="translate(-35.128 -17.036)"/><path class="a" d="M73.1,31.307h5.523a.5.5,0,0,0,.5-.251c.126-.126.251-.251.251-.377a2.448,2.448,0,0,0,0-1.883.944.944,0,0,0-.879-.628H68.459a1.575,1.575,0,0,1-1.381-.753,2.632,2.632,0,0,1-.5-1.381,7.165,7.165,0,0,1,0-3.264,3.222,3.222,0,0,1,.628-1.506,1.575,1.575,0,0,1,1.381-.753H78.627a.84.84,0,0,0,.879-.5,2.448,2.448,0,0,0,0-1.883.944.944,0,0,0-.879-.628H68.208a1.888,1.888,0,0,0-1.381.5,3.56,3.56,0,0,0-1,1.381,9.284,9.284,0,0,0-1,3.64,9.273,9.273,0,0,0,0,2.636,9,9,0,0,0,.628,2.636,8,8,0,0,0,1,1.757,1.865,1.865,0,0,0,1.632.753A21.289,21.289,0,0,0,73.1,31.307Z" transform="translate(-31.638 -17.087)"/><path class="a" d="M80.683,22.985V18.968a1.14,1.14,0,0,0-.377-.879c-.251-.377-.628-.377-1,0-.126.126-.251.377-.377.5a1.592,1.592,0,0,0-.126.753V30.014a1.425,1.425,0,0,0,.377,1c.251.251.628.377.879,0,.126-.126.251-.377.377-.5a2.136,2.136,0,0,0,.126-.879V26H91.352v4.017a1.14,1.14,0,0,0,.377.879.607.607,0,0,0,.879,0,1.733,1.733,0,0,0,.377-.5,1.592,1.592,0,0,0,.126-.753V18.842a1.425,1.425,0,0,0-.377-1,.607.607,0,0,0-.879,0c-.126.251-.251.377-.251.628a1.861,1.861,0,0,0-.126.879v3.64Z" transform="translate(-28.045 -17.049)"/><path class="a" d="M44.972,26.07a2.451,2.451,0,0,0-.126-.879c-.126-.251-.251-.628-.5-.753a.759.759,0,0,0-1,0,2.626,2.626,0,0,0-.5.753,2.772,2.772,0,0,0,0,2.008,2.626,2.626,0,0,0,.5.753.764.764,0,0,0,1,0,1.733,1.733,0,0,0,.377-.5A4.512,4.512,0,0,0,44.972,26.07Z" transform="translate(-37.272 -15.365)"/><path class="b" d="M38.409,29.508A7.678,7.678,0,0,1,39.037,28c1.381-3.013,2.636-6.151,4.017-9.163a4.508,4.508,0,0,1,.879-1.255,1.6,1.6,0,0,1,2.259.126,6.962,6.962,0,0,1,.753,1c1.506,3.264,2.887,6.527,4.393,9.916.126.251.126.377.251.628a2.567,2.567,0,0,1,0,1.381,1.733,1.733,0,0,1-.377.5.567.567,0,0,1-.753,0c-.126-.126-.251-.251-.251-.377-.753-1.757-4.393-9.916-4.519-10.042a.123.123,0,0,0-.126-.126c-.251-.251-.377-.251-.628,0-.126.251-3.264,7.029-4.644,10.167-.126.126-.126.251-.251.377a.588.588,0,0,1-1,0A1.565,1.565,0,0,1,38.409,29.508Z" transform="translate(-38.365 -17.171)"/><path class="b" d="M63.063,25.908a5.46,5.46,0,0,0,.753.879,18.45,18.45,0,0,1,1.255,1.632,1.933,1.933,0,0,1,.251,2.008,1.672,1.672,0,0,1-.377.628.8.8,0,0,1-.753,0l-.251-.251c-.628-.753-1.255-1.506-2.008-2.259a7.817,7.817,0,0,0-2.259-1.757,5.831,5.831,0,0,0-2.887-.753H53.523c-.251,0-.377.126-.5.377a1.784,1.784,0,0,0-.251.753V29.8a1.592,1.592,0,0,1-.126.753c-.126.126-.126.377-.251.5a.607.607,0,0,1-.879,0c-.251-.251-.251-.5-.377-.753V26.787a7.108,7.108,0,0,1,.377-2.259A2.06,2.06,0,0,1,53.4,23.021h9.289c.5,0,.753-.126.879-.628a1.386,1.386,0,0,0,0-1c0-.126-.126-.251-.251-.377a.461.461,0,0,0-.377-.126H52.142c-.628,0-.753-.126-1-.628a1.862,1.862,0,0,1,0-1.632c0-.126.126-.251.251-.377a.652.652,0,0,1,.5-.251H62.561a2.262,2.262,0,0,1,2.008,1.13,5.546,5.546,0,0,1,.753,2.008,6.057,6.057,0,0,1-.251,3.013,3.6,3.6,0,0,1-1,1.632c-.126-.126-.5,0-1,.126Z" transform="translate(-35.153 -16.96)"/><path class="b" d="M73.129,31.205H67.983a2.21,2.21,0,0,1-1.632-.753,4.925,4.925,0,0,1-1-1.757,10.065,10.065,0,0,1-.628-2.636,9.273,9.273,0,0,1,0-2.636,9.283,9.283,0,0,1,1-3.64,5.573,5.573,0,0,1,1-1.381,1.888,1.888,0,0,1,1.381-.5H78.527c.5,0,.753.126.879.628a2.448,2.448,0,0,1,0,1.883.84.84,0,0,1-.879.5H68.485a1.575,1.575,0,0,0-1.381.753,3.866,3.866,0,0,0-.628,1.506,14.19,14.19,0,0,0,0,3.264,6.119,6.119,0,0,0,.5,1.381,1.575,1.575,0,0,0,1.381.753H78.4a.836.836,0,0,1,.879.628,2.448,2.448,0,0,1,0,1.883c0,.126-.126.251-.251.377a.652.652,0,0,1-.5.251H77.9A15.057,15.057,0,0,0,73.129,31.205Z" transform="translate(-31.663 -16.985)"/><path class="b" d="M80.632,22.959H91.427v-3.64a2.136,2.136,0,0,1,.126-.879c.126-.251.126-.377.377-.5a.607.607,0,0,1,.879,0,1.425,1.425,0,0,1,.377,1V29.361c0,.753,0,1.381-.377,1.757a.607.607,0,0,1-.879,0,1.356,1.356,0,0,1-.377-.879V26.223c-.126,0-10.418-.126-10.795,0v3.64a2.136,2.136,0,0,1-.126.879c-.126.126-.126.377-.377.5a.607.607,0,0,1-.879,0,1.425,1.425,0,0,1-.377-1V19.57a1.592,1.592,0,0,1,.126-.753c.126-.251.126-.377.377-.5a.759.759,0,0,1,1,0,1.14,1.14,0,0,1,.377.879v3.766C80.632,22.708,80.632,22.834,80.632,22.959Z" transform="translate(-27.994 -17.024)"/><path class="b" d="M44.972,26.07a3.875,3.875,0,0,1-.251,1.381c-.126.126-.251.377-.377.5a.764.764,0,0,1-1,0,2.626,2.626,0,0,1-.5-.753,2.772,2.772,0,0,1,0-2.008,2.626,2.626,0,0,1,.5-.753.759.759,0,0,1,1,0,2.626,2.626,0,0,1,.5.753A2.451,2.451,0,0,1,44.972,26.07Z" transform="translate(-37.272 -15.365)"/><path class="b" d="M94.563,26.7c-.126-.251-.251-.377-.377-.628a.821.821,0,0,0-1.381,0,2.744,2.744,0,0,0-.377.628,3.453,3.453,0,0,0,0,2.008c.126.251.251.377.377.628a.821.821,0,0,0,1.381,0,2.743,2.743,0,0,0,.377-.628A3.52,3.52,0,0,0,94.563,26.7Z" transform="translate(-24.604 -14.995)"/></g></g></svg>