<?xml version="1.0" encoding="UTF-8"?>
<svg xmlns="http://www.w3.org/2000/svg" xmlns:xlink="http://www.w3.org/1999/xlink" version="1.2" >
<font id="Times Italic">
<font-face  font-family="Times" units-per-em="2048" ascent="1536" descent="-512" font-style="italic" font-weight="400" font-stretch="normal" slope="-15" cap-height="1536" x-height="1024" underline-position="-155" underline-thickness="101" />
<missing-glyph  horiz-adv-x="1251" d="M-19 0 L-19 1336 L1571 1336 L1571 0 L-19 0 Z M1387 184 L1387 1152 L165 1152 L165 184 L1387 184 Z " />
<glyph glyph-name="&amp;#x0;" d="" />
<glyph glyph-name="&amp;#x8;" unicode="&#x8;" d="" />
<glyph glyph-name="&amp;#x1d;" unicode="&#x1d;" d="" />
<glyph glyph-name="&amp;#x9;" unicode="&#x9;" horiz-adv-x="512" d="" />
<glyph glyph-name="&amp;#xa;" unicode="&#xa;" horiz-adv-x="512" d="" />
<glyph glyph-name="&amp;#xd;" unicode="&#xd;" horiz-adv-x="512" d="" />
<glyph glyph-name="space" unicode="&#x20;" horiz-adv-x="512" d="" />
<glyph glyph-name="exclam" unicode="&#x21;" horiz-adv-x="682" d="M80 90 Q80 127 110.5 159.5 Q141 192 188 192 Q229 192 263.5 162 Q298 132 298 86 Q298 42 265.5 9 Q233 -24 187 -24 Q146 -24 113 5.5 Q80 35 80 90 Z M621 1267 Q621 1220 602 1165 Q583 1110 471 852 Q452 808 387 641.5 Q322 475 279 362 L246 369 Q277 519 308 672 Q358 917 362 943 L393 1128 Q414 1257 447.5 1311.5 Q481 1366 534 1366 Q573 1366 597 1336.5 Q621 1307 621 1267 Z " />
<glyph glyph-name="quotedbl" unicode="&#x22;" horiz-adv-x="860" d="M474 1263 Q474 1255 472.5 1238.5 Q471 1222 466 1182 L419 772 L374 772 L322 1180 Q316 1228 315 1240 Q314 1252 314 1276 Q314 1317 335.5 1339.5 Q357 1362 395 1362 Q438 1362 456 1337.5 Q474 1313 474 1263 Z M670 772 L621 1170 Q610 1261 610 1268 Q610 1305 628.5 1333.5 Q647 1362 693 1362 Q744 1362 758 1333.5 Q772 1305 772 1264 Q772 1249 769.5 1221.5 Q767 1194 765 1180 L718 772 L670 772 Z " />
<glyph glyph-name="numbersign" unicode="&#x23;" horiz-adv-x="1024" d="M571 507 L663 855 L448 855 L355 507 L571 507 Z M16 507 L234 507 L329 858 L111 858 L128 931 L346 931 L464 1362 L587 1362 L469 931 L685 931 L801 1362 L922 1362 L803 931 L1021 931 L1002 858 L784 858 L692 507 L910 507 L888 431 L673 431 L557 0 L433 0 L552 431 L336 431 L220 0 L99 0 L215 431 L0 431 L16 507 Z " />
<glyph glyph-name="dollar" unicode="&#x24;" horiz-adv-x="1024" d="M118 388 L151 395 Q152 388 158 343.5 Q164 299 172 254 Q180 209 233.5 147 Q287 85 386 66 L528 673 Q516 681 502.5 691 Q489 701 451 730 Q337 816 294 894.5 Q251 973 251 1050 Q251 1170 360.5 1270 Q470 1370 652 1370 Q663 1370 674.5 1369.5 Q686 1369 699 1367 L732 1498 L803 1498 L770 1358 Q850 1339 905.5 1314.5 Q961 1290 1016 1253 L960 1019 L929 1024 Q928 1116 906 1166 Q867 1255 756 1296 L640 810 Q788 715 852 623 Q930 525 930 396 Q930 226 807.5 109.5 Q685 -7 440 -3 L398 -185 L324 -185 L369 4 L343 9 Q293 19 251 35 Q210 51 176 68 Q101 104 64 137 L118 388 Z M777 331 Q777 416 739.5 479.5 Q702 543 604 616 L592 625 L452 52 Q658 58 736 183 Q777 247 777 331 Z M687 1313 Q670 1314 660.5 1314.5 Q651 1315 640 1315 Q540 1315 476 1247.5 Q412 1180 412 1092 Q412 1014 481 939 Q520 896 578 860 L687 1313 Z " />
<glyph glyph-name="percent" unicode="&#x25;" horiz-adv-x="1706" d="M604 1355 Q665 1355 704 1340 Q726 1331 746 1313 L784 1280 Q806 1262 842.5 1252.5 Q879 1243 935 1243 Q1050 1243 1147 1299 Q1199 1328 1256 1384 L1336 1384 L547 -29 L450 -29 L1163 1251 Q1088 1216 1051 1205 Q1014 1194 953 1194 Q899 1194 860 1201 Q835 1205 810 1213 Q818 1186 821 1168.5 Q824 1151 824 1114 Q824 942 704 766.5 Q584 591 408 591 Q318 591 240.5 659 Q163 727 163 867 Q163 1053 301.5 1204 Q440 1355 604 1355 Z M1245 61 Q1372 61 1468.5 221.5 Q1565 382 1565 516 Q1565 600 1524 647 Q1483 694 1417 694 Q1298 694 1205 512 Q1112 330 1112 197 Q1112 129 1151 95 Q1190 61 1245 61 Z M957 279 Q957 438 1089.5 599 Q1222 760 1396 760 Q1468 760 1524 726 Q1621 667 1621 524 Q1621 339 1499.5 168 Q1378 -3 1205 -3 Q1105 -3 1031 65.5 Q957 134 957 279 Z M445 661 Q569 661 670.5 810 Q772 959 772 1135 Q772 1198 758.5 1216 Q745 1234 711 1242 Q687 1248 654.5 1271.5 Q622 1295 615 1295 Q515 1295 416 1120 Q317 945 317 802 Q317 743 345 702 Q373 661 445 661 Z " />
<glyph glyph-name="ampersand" unicode="&#x26;" horiz-adv-x="1593" d="M839 877 Q955 951 995 996 Q1059 1069 1059 1177 Q1059 1229 1038 1263.5 Q1017 1298 967 1298 Q879 1298 847 1195 Q829 1135 829 1021 Q829 997 830.5 973 Q832 949 839 877 Z M348 341 Q348 208 425.5 137.5 Q503 67 609 67 Q696 67 774 103.5 Q852 140 896 184 Q845 252 779 412 Q713 572 682 706 Q544 642 474 583 Q348 477 348 341 Z M677 775 Q670 842 668 869 Q666 896 666 926 Q666 1128 769 1245 Q872 1362 986 1362 Q1089 1362 1144 1305 Q1199 1248 1199 1175 Q1199 1053 1070 947 Q998 888 848 813 Q869 709 924 550.5 Q979 392 1026 327 Q1120 443 1146 486 Q1187 551 1187 608 Q1187 650 1164.5 661.5 Q1142 673 1085 677 L1085 715 L1464 715 L1464 682 Q1386 670 1354 645.5 Q1322 621 1264 535 Q1186 420 1151 371.5 Q1116 323 1064 256 Q1109 172 1173 118 Q1237 64 1317 64 Q1359 64 1398 84 Q1421 96 1457 125 L1481 101 Q1426 40 1384 12 Q1308 -38 1220 -38 Q1120 -38 1035 24 Q987 60 936 125 Q801 36 739 8 Q638 -38 527 -38 Q357 -38 255.5 51 Q154 140 154 279 Q154 369 199.5 448 Q245 527 320 587 Q376 632 424.5 657.5 Q473 683 677 775 Z " />
<glyph glyph-name="quotesingle" unicode="&#x27;" horiz-adv-x="438" d="M331 1362 Q375 1362 391 1339.5 Q407 1317 407 1271 Q407 1263 406.5 1255.5 Q406 1248 402 1213 L353 772 L317 772 L265 1180 Q261 1208 259 1231 Q257 1254 257 1279 Q257 1327 281 1344.5 Q305 1362 331 1362 Z " />
<glyph glyph-name="parenleft" unicode="&#x28;" horiz-adv-x="682" d="M644 1339 Q549 1239 493 1154 Q392 1004 329 804 Q273 626 250 464.5 Q227 303 227 196 Q227 28 245.5 -79.5 Q264 -187 324 -361 L289 -373 Q182 -191 133.5 -5.5 Q85 180 85 364 Q85 608 166 796 Q287 1077 618 1370 L644 1339 Z " />
<glyph glyph-name="parenright" unicode="&#x29;" horiz-adv-x="682" d="M33 -337 Q137 -225 192 -143 Q286 1 347 198 Q400 366 425 525 Q450 684 450 829 Q450 1006 420.5 1141 Q391 1276 350 1362 L388 1374 Q483 1220 537.5 1027.5 Q592 835 592 638 Q592 415 525 242 Q404 -72 59 -368 L33 -337 Z " />
<glyph glyph-name="asterisk" unicode="&#x2a;" horiz-adv-x="1024" d="M173 763 Q173 834 274 856 Q434 892 512 943 Q436 989 272 1031 Q173 1056 173 1119 Q173 1151 193 1170 Q213 1189 243 1189 Q285 1189 354.5 1108.5 Q424 1028 526 974 L526 1000 Q526 1081 499.5 1165 Q473 1249 473 1282 Q473 1326 496.5 1344 Q520 1362 547 1362 Q578 1362 598 1340.5 Q618 1319 618 1282 Q618 1262 589 1168 Q560 1074 564 969 Q662 1031 731 1111.5 Q800 1192 842 1192 Q871 1192 893 1172.5 Q915 1153 915 1120 Q915 1053 826 1035 Q676 1005 580 941 L597 931 Q675 885 829 853 Q917 834 917 764 Q917 726 889.5 710 Q862 694 839 694 Q797 694 726.5 780 Q656 866 578 905 L564 912 L564 898 Q564 778 592.5 699 Q621 620 621 604 Q621 572 598.5 546.5 Q576 521 540 521 Q507 521 488 545 Q469 569 469 602 Q469 610 503 728.5 Q537 847 526 898 L523 912 Q423 849 342 757 Q289 697 244 697 Q208 697 190.5 718 Q173 739 173 763 Z " />
<glyph glyph-name="plus" unicode="&#x2b;" horiz-adv-x="1382" d="M177 452 L177 573 L630 573 L630 1026 L751 1026 L751 573 L1204 573 L1204 452 L751 452 L751 0 L630 0 L630 452 L177 452 Z " />
<glyph glyph-name="comma" unicode="&#x2c;" horiz-adv-x="512" d="M184 125 Q184 147 210 176.5 Q236 206 288 206 Q341 206 374 165 Q407 124 407 61 Q407 -40 329.5 -123 Q252 -206 173 -249 L142 -266 L123 -233 Q185 -189 218 -158 Q277 -100 277 -54 Q277 -41 272 -29 Q267 -17 258 -8 L239 11 Q202 48 193 67.5 Q184 87 184 125 Z " />
<glyph glyph-name="hyphen" unicode="&#x2d;" horiz-adv-x="682" d="M128 521 L578 521 L549 393 L99 393 L128 521 Z " />
<glyph glyph-name="period" unicode="&#x2e;" horiz-adv-x="512" d="M334 -24 Q286 -24 253 9.5 Q220 43 220 90 Q220 137 253.5 170 Q287 203 334 203 Q381 203 414.5 170 Q448 137 448 90 Q448 43 415 9.5 Q382 -24 334 -24 Z " />
<glyph glyph-name="slash" unicode="&#x2f;" horiz-adv-x="569" d="M502 1346 L602 1346 L85 -34 L-15 -34 L502 1346 Z " />
<glyph glyph-name="zero" unicode="0" horiz-adv-x="1024" d="M403 40 Q594 40 734 420 Q855 745 855 1042 Q855 1145 833 1208 Q793 1328 682 1328 Q477 1328 335 886 Q227 548 227 323 Q227 228 249 164 Q291 40 403 40 Z M685 1386 Q877 1386 962 1195 Q1017 1070 1017 904 Q1017 538 824 260 Q634 -12 395 -12 Q256 -12 160 106.5 Q64 225 64 434 Q64 783 253 1081 Q447 1386 685 1386 Z " />
<glyph glyph-name="one" unicode="1" horiz-adv-x="1024" d="M99 34 L167 35 Q234 43 274 64.5 Q314 86 329 139 L611 1147 Q618 1172 621.5 1189.5 Q625 1207 625 1221 Q625 1256 602 1268 Q579 1280 529 1280 L431 1275 L431 1306 L457 1310 Q485 1315 605.5 1339 Q726 1363 777 1374 L808 1381 L827 1384 L839 1377 Q839 1371 838.5 1365 Q838 1359 836 1353 L500 128 Q498 120 496.5 112 Q495 104 495 96 Q495 55 531 44 Q567 33 670 30 L670 0 L99 0 L99 34 Z " />
<glyph glyph-name="two" unicode="2" horiz-adv-x="1024" d="M23 35 L455 493 Q566 610 632 703 Q749 867 749 981 Q749 1087 680.5 1161 Q612 1235 493 1235 Q381 1235 297 1160 Q252 1119 206 1042 L163 1057 Q240 1265 405 1345 Q491 1386 588 1386 Q745 1386 835.5 1279 Q926 1172 926 1041 Q926 927 856.5 826 Q787 725 621 559 L227 165 L227 156 L616 156 Q701 156 742.5 183 Q784 210 820 284 L853 270 L751 0 L23 0 L23 35 Z " />
<glyph glyph-name="three" unicode="3" horiz-adv-x="1024" d="M116 184 Q145 184 168 175.5 Q191 167 215 151 L263 118 Q301 92 324 81 Q365 62 403 62 Q504 62 584 155.5 Q664 249 664 397 Q664 565 575 652 Q486 739 324 739 Q316 739 310.5 738.5 Q305 738 286 737 L284 770 Q553 807 664.5 905.5 Q776 1004 776 1104 Q776 1172 736 1231.5 Q696 1291 591 1291 Q530 1291 471 1258 Q412 1225 365 1159 L331 1170 Q390 1279 475.5 1329 Q561 1379 658 1379 Q789 1379 871 1308.5 Q953 1238 953 1125 Q953 1006 855 929 Q791 878 635 820 L635 813 Q710 778 752 730 Q829 643 829 499 Q829 295 671 142 Q506 -19 267 -19 Q180 -19 125 -1 Q30 30 30 110 Q30 138 51 161 Q72 184 116 184 Z " />
<glyph glyph-name="four" unicode="4" horiz-adv-x="1024" d="M896 1384 L981 1384 L732 493 L926 493 L898 360 L694 360 L599 0 L438 0 L538 365 L2 365 L42 502 L896 1384 Z M763 1152 L756 1152 L132 502 L132 493 L566 493 L763 1152 Z " />
<glyph glyph-name="five" unicode="5" horiz-adv-x="1024" d="M240 -18 Q177 -18 123 -1 Q29 30 29 103 Q29 143 55.5 165 Q82 187 113 187 Q153 187 231 128.5 Q309 70 365 70 Q497 70 606.5 191.5 Q716 313 716 495 Q716 697 564 792 Q476 847 267 886 L267 917 L481 1365 L1005 1365 L957 1218 L488 1218 L407 1038 Q627 1003 745.5 886.5 Q864 770 864 565 Q864 342 684 161 Q504 -18 240 -18 Z " />
<glyph glyph-name="six" unicode="6" horiz-adv-x="1024" d="M421 40 Q575 40 668.5 225 Q762 410 762 579 Q762 696 700.5 768.5 Q639 841 524 841 Q345 841 264 601 Q217 459 217 315 Q217 220 243 158 Q291 40 421 40 Z M1066 1372 Q956 1351 867 1311.5 Q778 1272 695 1209 Q602 1138 518 1035.5 Q434 933 407 877 L414 872 Q485 899 515.5 906.5 Q546 914 602 914 Q728 914 836 816 Q944 718 944 540 Q944 351 816 184 Q664 -14 429 -14 Q261 -14 161 104 Q61 222 61 433 Q61 738 289 1015 Q572 1360 1064 1405 L1066 1372 Z " />
<glyph glyph-name="seven" unicode="7" horiz-adv-x="1024" d="M305 -19 L161 -19 L912 1208 L910 1213 L455 1213 Q357 1213 308.5 1183 Q260 1153 182 1066 L154 1085 L320 1365 L1088 1365 L1099 1344 L305 -19 Z " />
<glyph glyph-name="eight" unicode="8" horiz-adv-x="1024" d="M637 817 Q757 875 800 917 Q870 986 870 1099 Q870 1191 815 1262.5 Q760 1334 655 1334 Q551 1334 497 1271.5 Q443 1209 443 1127 Q443 1044 494 968 Q545 892 637 817 Z M484 33 Q586 33 671.5 106 Q757 179 757 313 Q757 372 737 420 Q717 468 689 507 Q648 557 598.5 608 Q549 659 499 701 Q384 667 292.5 572 Q201 477 201 332 Q201 180 283 106.5 Q365 33 484 33 Z M459 737 Q368 833 324.5 913.5 Q281 994 281 1073 Q281 1204 395 1299 Q501 1384 649 1384 Q787 1384 898 1306.5 Q1009 1229 1009 1092 Q1009 959 876 871 Q804 823 673 782 Q795 667 853 573 Q914 479 914 373 Q914 218 791 101.5 Q668 -15 471 -15 Q278 -15 170.5 85 Q63 185 63 321 Q63 498 218 618 Q313 691 459 737 Z " />
<glyph glyph-name="nine" unicode="9" horiz-adv-x="1024" d="M534 561 Q607 561 681 601 Q755 641 788 719 Q810 770 831 866.5 Q852 963 852 1041 Q852 1151 826 1214 Q779 1329 647 1329 Q497 1329 409.5 1175 Q322 1021 322 841 Q322 737 349 675 Q398 561 534 561 Z M142 840 Q142 1035 285.5 1209 Q429 1383 635 1383 Q815 1383 911 1257 Q1007 1131 1007 932 Q1007 559 715 274 Q432 -3 47 -38 L47 0 Q284 42 503 257 Q677 427 720 554 L713 559 Q655 521 588 493.5 Q521 466 446 466 Q341 466 241.5 553.5 Q142 641 142 840 Z " />
<glyph glyph-name="colon" unicode="&#x3a;" horiz-adv-x="682" d="M488 675 Q440 675 407 708.5 Q374 742 374 789 Q374 836 407.5 869.5 Q441 903 488 903 Q535 903 568.5 869.5 Q602 836 602 789 Q602 742 569 708.5 Q536 675 488 675 Z M284 -24 Q236 -24 203 9.5 Q170 43 170 90 Q170 137 203.5 170 Q237 203 284 203 Q331 203 364.5 170 Q398 137 398 90 Q398 43 365 9.5 Q332 -24 284 -24 Z " />
<glyph glyph-name="semicolon" unicode="&#x3b;" horiz-adv-x="682" d="M488 675 Q440 675 407 708.5 Q374 742 374 789 Q374 836 407.5 869.5 Q441 903 488 903 Q535 903 568.5 869.5 Q602 836 602 789 Q602 742 569 708.5 Q536 675 488 675 Z M184 125 Q184 147 210 176.5 Q236 206 288 206 Q341 206 374 165 Q407 124 407 61 Q407 -40 329.5 -123 Q252 -206 173 -249 L142 -266 L123 -233 Q185 -189 218 -158 Q277 -100 277 -54 Q277 -41 272 -29 Q267 -17 258 -8 L239 11 Q202 48 193 67.5 Q184 87 184 125 Z " />
<glyph glyph-name="less" unicode="&#x3c;" horiz-adv-x="1382" d="M135 535 L1249 1040 L1249 910 L367 514 L1249 118 L1249 -12 L135 490 L135 535 Z " />
<glyph glyph-name="equal" unicode="&#x3d;" horiz-adv-x="1382" d="M1259 777 L1234 656 L207 656 L232 777 L1259 777 Z M1173 372 L1148 251 L121 251 L146 372 L1173 372 Z " />
<glyph glyph-name="greater" unicode="&#x3e;" horiz-adv-x="1382" d="M132 -12 L132 118 L1014 514 L132 910 L132 1040 L1246 535 L1246 490 L132 -12 Z " />
<glyph glyph-name="question" unicode="&#x3f;" horiz-adv-x="1024" d="M426 82 Q426 35 392.5 4 Q359 -27 315 -27 Q272 -27 240 4 Q208 35 208 80 Q208 126 240.5 156.5 Q273 187 317 187 Q358 187 392 158 Q426 129 426 82 Z M596 1361 Q750 1361 827.5 1284 Q905 1207 905 1099 Q905 1006 856.5 937.5 Q808 869 715 794 L630 725 Q536 649 492 598 Q418 512 395 414 L381 355 L346 360 Q365 570 563 789 Q753 999 753 1145 Q753 1235 706.5 1275.5 Q660 1316 592 1316 Q549 1316 510 1301 Q444 1276 444 1218 Q444 1211 445.5 1202.5 Q447 1194 450 1187 L459 1166 Q470 1143 473.5 1130.5 Q477 1118 477 1108 Q477 1077 453.5 1057.5 Q430 1038 397 1038 Q361 1038 337.5 1062 Q314 1086 314 1143 Q314 1229 392 1295 Q470 1361 596 1361 Z " />
<glyph glyph-name="at" unicode="&#x40;" horiz-adv-x="1884" d="M749 501 Q749 436 782.5 398 Q816 360 872 360 Q991 360 1063.5 552.5 Q1136 745 1136 834 Q1136 886 1107 916 Q1078 946 1026 946 Q925 946 837 792 Q749 638 749 501 Z M949 -29 Q634 -29 410 161 Q184 354 184 630 Q184 943 432 1164 Q678 1384 1027 1384 Q1298 1384 1487 1233 Q1685 1073 1685 824 Q1685 624 1558 456 Q1431 288 1269 288 Q1162 288 1111 354 Q1077 398 1076 450 Q1053 389 986 338 Q919 287 843 287 Q730 287 652.5 364 Q575 441 575 570 Q575 739 706.5 880.5 Q838 1022 994 1022 Q1065 1022 1115 985.5 Q1165 949 1180 896 L1213 997 L1377 997 L1322 827 Q1288 722 1262 632 Q1220 486 1220 449 Q1220 429 1234 404 Q1258 362 1308 362 Q1405 362 1508 495.5 Q1611 629 1611 821 Q1611 1056 1431.5 1181 Q1252 1306 1037 1306 Q768 1306 554 1121 Q322 921 322 632 Q322 363 516 198 Q700 42 978 42 Q1073 42 1186 70 Q1359 112 1483 206 L1521 149 Q1371 53 1238 12 Q1105 -29 949 -29 Z " />
<glyph glyph-name="A" unicode="A" horiz-adv-x="1251" d="M805 535 L715 1066 L410 535 L805 535 Z M-55 33 Q13 50 52.5 96 Q92 142 210 343 L808 1367 L853 1367 L1050 208 Q1069 96 1095 68.5 Q1121 41 1206 33 L1206 0 L701 0 L701 33 Q792 42 819 55 Q862 75 862 133 Q862 148 861 165 Q860 182 858 194 L817 462 L367 462 L248 232 Q235 209 225 183 Q208 137 208 106 Q208 67 234.5 51 Q261 35 329 33 L329 0 L-55 0 L-55 33 Z " />
<glyph glyph-name="B" unicode="B" horiz-adv-x="1251" d="M597 743 Q756 743 845 787 Q997 863 997 1065 Q997 1180 932.5 1227.5 Q868 1275 763 1275 Q696 1275 672.5 1262.5 Q649 1250 640 1218 L507 744 L597 743 Z M491 65 Q693 65 787 171 Q881 277 881 426 Q881 592 771 643 Q701 674 488 677 L360 213 Q355 196 352 179.5 Q349 163 349 149 Q349 94 400 76 Q429 65 491 65 Z M-19 33 Q53 39 80 59 Q122 89 149 184 L400 1090 Q409 1124 414 1143 Q424 1189 424 1211 Q424 1263 390.5 1282 Q357 1301 265 1303 L265 1336 L794 1336 Q929 1336 1032 1301 Q1205 1228 1205 1039 Q1205 882 1064 795 Q987 748 850 718 Q956 678 1009 630 Q1104 543 1104 394 Q1104 226 955 113 Q806 0 547 0 L-19 0 L-19 33 Z " />
<glyph glyph-name="C" unicode="C" horiz-adv-x="1366" d="M943 1362 Q1032 1362 1136 1338 Q1240 1314 1262 1314 Q1299 1314 1314 1326 Q1329 1338 1339 1360 L1381 1360 L1306 952 L1270 957 Q1259 1078 1216 1152 Q1137 1289 955 1289 Q675 1289 494 1009 Q336 766 336 482 Q336 271 432 163 Q528 55 679 55 Q835 55 965 131 Q1042 177 1166 296 L1199 267 Q1087 125 945.5 43.5 Q804 -38 634 -38 Q378 -38 241 124 Q104 286 104 502 Q104 812 333 1074 Q584 1362 943 1362 Z " />
<glyph glyph-name="D" unicode="D" horiz-adv-x="1479" d="M486 65 Q932 65 1113 433 Q1206 624 1206 822 Q1206 1013 1112 1144 Q1018 1275 773 1275 Q706 1275 677.5 1262 Q649 1249 640 1216 L360 213 Q352 183 350 169 Q348 155 348 141 Q348 97 375 81 Q402 65 486 65 Z M-19 33 Q53 39 80 59 Q122 89 149 184 L400 1090 Q411 1131 417.5 1160.5 Q424 1190 424 1212 Q424 1262 390 1281.5 Q356 1301 265 1303 L265 1336 L794 1336 Q941 1336 1052 1310 Q1163 1284 1258 1203 Q1325 1143 1370 1061 Q1436 937 1436 782 Q1436 474 1199 248 Q939 0 523 0 L-19 0 L-19 33 Z " />
<glyph glyph-name="E" unicode="E" horiz-adv-x="1251" d="M-5 33 Q67 39 94 59 Q136 89 163 184 L414 1090 Q426 1135 432.5 1164.5 Q439 1194 439 1215 Q439 1263 402.5 1282 Q366 1301 279 1303 L279 1336 L1298 1336 L1234 1024 L1192 1028 Q1195 1058 1196 1085.5 Q1197 1113 1197 1106 Q1199 1207 1125.5 1238.5 Q1052 1270 823 1270 Q718 1270 691 1260 Q664 1250 654 1216 L519 739 Q790 748 845 773 Q900 798 962 938 L1000 929 L860 455 L820 464 Q830 524 832 537 Q834 550 834 566 Q834 631 787.5 650.5 Q741 670 617 670 L500 670 L374 213 Q368 192 364.5 174 Q361 156 361 137 Q361 105 378 89 Q409 61 500 61 Q775 61 893.5 120 Q1012 179 1130 348 L1163 331 L1035 0 L-5 0 L-5 33 Z " />
<glyph glyph-name="F" unicode="F" horiz-adv-x="1251" d="M0 33 Q72 39 99 59 Q141 89 168 184 L419 1090 Q428 1123 433 1147 Q443 1190 443 1212 Q443 1265 407 1283 Q371 1301 284 1303 L284 1336 L1303 1336 L1239 1024 L1197 1028 Q1200 1061 1200 1078 Q1201 1102 1201 1115 Q1201 1208 1129 1239 Q1057 1270 829 1270 Q732 1270 700 1261 Q668 1252 658 1216 L523 739 Q786 747 841.5 771 Q897 795 967 929 L1002 919 L848 440 L813 450 Q824 509 827 529 Q830 549 830 567 Q830 637 771 657 Q734 670 621 670 L504 670 L379 215 Q364 162 361.5 150.5 Q359 139 359 123 Q359 69 404 50 Q433 38 516 33 L516 0 L0 0 L0 33 Z " />
<glyph glyph-name="G" unicode="G" horiz-adv-x="1479" d="M948 1365 Q994 1365 1053 1356 Q1112 1347 1182 1322 Q1235 1304 1254.5 1299 Q1274 1294 1294 1294 Q1344 1294 1370 1312 Q1396 1330 1419 1362 L1450 1355 L1348 952 L1313 957 Q1297 1080 1247 1155 Q1153 1294 943 1294 Q654 1294 476 987 Q331 736 331 463 Q331 272 434.5 155 Q538 38 730 38 Q797 38 876 61.5 Q955 85 983 132 Q1001 162 1026 252 Q1042 309 1066 412 L1088 504 Q1090 512 1091 520.5 Q1092 529 1092 538 Q1092 583 1064.5 595.5 Q1037 608 933 621 L933 654 L1479 654 L1479 621 Q1375 611 1338.5 585 Q1302 559 1280 474 L1180 90 Q1101 38 976 0 Q851 -38 705 -38 Q412 -38 248 138 Q104 293 104 521 Q104 821 331 1079 Q584 1365 948 1365 Z " />
<glyph glyph-name="H" unicode="H" horiz-adv-x="1479" d="M-19 33 Q53 39 80 59 Q122 89 149 184 L400 1090 Q414 1145 419 1167.5 Q424 1190 424 1212 Q424 1262 389.5 1281.5 Q355 1301 265 1303 L265 1336 L824 1336 L824 1303 Q741 1296 705 1276 Q643 1242 618 1152 L509 753 L1092 753 L1192 1116 Q1202 1155 1205 1178 Q1208 1201 1208 1218 Q1208 1267 1159 1288 Q1126 1301 1064 1303 L1064 1336 L1571 1336 L1571 1303 Q1490 1293 1459.5 1269.5 Q1429 1246 1403 1152 L1152 246 L1133 168 Q1131 157 1129.5 147 Q1128 137 1128 127 Q1128 69 1162.5 52.5 Q1197 36 1287 33 L1287 0 L727 0 L727 33 Q808 39 845 59 Q907 93 933 184 L1069 668 L485 668 L367 246 L348 168 Q346 157 344.5 147 Q343 137 343 127 Q343 71 374.5 54.5 Q406 38 488 33 L488 0 L-19 0 L-19 33 Z " />
<glyph glyph-name="I" unicode="I" horiz-adv-x="682" d="M-19 33 Q53 39 80 59 Q122 89 149 184 L400 1090 Q414 1145 419 1167.5 Q424 1190 424 1212 Q424 1261 392 1279.5 Q360 1298 279 1303 L279 1336 L786 1336 L786 1303 Q705 1292 674.5 1268.5 Q644 1245 618 1152 L367 246 Q354 198 348.5 167 Q343 136 343 120 Q343 70 378.5 53 Q414 36 483 33 L483 0 L-19 0 L-19 33 Z " />
<glyph glyph-name="J" unicode="J" horiz-adv-x="909" d="M82 253 Q126 253 151.5 227.5 Q177 202 177 160 Q177 152 176 136.5 Q175 121 175 107 Q175 64 196 45 Q217 26 248 26 Q296 26 321 66 Q337 90 357 161 L618 1090 Q630 1133 636 1161.5 Q642 1190 642 1217 Q642 1256 612.5 1278 Q583 1300 485 1303 L485 1336 L1005 1336 L1005 1303 Q923 1292 892.5 1268.5 Q862 1245 836 1152 L625 393 Q573 208 514 120 Q409 -38 229 -38 Q102 -38 43.5 20.5 Q-15 79 -15 143 Q-15 195 13 224 Q41 253 82 253 Z " />
<glyph glyph-name="K" unicode="K" horiz-adv-x="1366" d="M14 33 Q86 39 113 59 Q155 89 182 184 L433 1090 Q444 1131 450.5 1161 Q457 1191 457 1217 Q457 1264 420.5 1282.5 Q384 1301 298 1303 L298 1336 L858 1336 L858 1303 Q774 1296 738 1276 Q677 1243 651 1152 L540 765 L559 765 L813 941 Q938 1028 1016 1093 Q1149 1204 1149 1249 Q1149 1280 1122.5 1289 Q1096 1298 1024 1303 L1024 1336 L1479 1336 L1479 1303 Q1450 1299 1425 1290 Q1382 1272 1325 1230 L711 768 L1066 146 Q1106 76 1144 56 Q1182 36 1265 33 L1265 0 L701 0 L701 35 Q785 41 812 49 Q855 61 855 95 Q855 124 824 192.5 Q793 261 741 350 L542 692 L521 699 L400 246 L381 168 Q378 156 377 145.5 Q376 135 376 124 Q376 69 421 49 Q448 37 521 33 L521 0 L14 0 L14 33 Z " />
<glyph glyph-name="L" unicode="L" horiz-adv-x="1139" d="M-19 33 Q53 39 80 59 Q122 89 149 184 L400 1090 Q414 1145 419 1167.5 Q424 1190 424 1212 Q424 1262 389.5 1281.5 Q355 1301 265 1303 L265 1336 L824 1336 L824 1303 Q741 1296 705 1276 Q643 1243 618 1152 L367 246 L348 168 Q347 162 346.5 155 Q346 148 346 143 Q346 118 362 103.5 Q378 89 412 82 Q440 77 489 75 Q518 74 586 74 Q795 74 904 129.5 Q1013 185 1104 379 L1144 367 L1026 0 L-19 0 L-19 33 Z " />
<glyph glyph-name="M" unicode="M" horiz-adv-x="1706" d="M-19 33 Q68 44 104.5 96 Q141 148 194 336 L445 1220 Q457 1265 404.5 1283.5 Q352 1302 293 1303 L293 1336 L666 1336 L777 336 L784 336 L1467 1336 L1808 1336 L1808 1303 Q1727 1293 1696.5 1269.5 Q1666 1246 1640 1152 L1389 246 Q1378 207 1371.5 177 Q1365 147 1365 123 Q1365 69 1402.5 52.5 Q1440 36 1524 33 L1524 0 L964 0 L964 33 Q1049 40 1085 59 Q1145 92 1170 184 L1431 1133 L1424 1133 L663 0 L628 0 L504 1097 L497 1097 L263 232 Q256 204 250 174 Q244 144 244 127 Q244 72 291 50 Q321 36 388 33 L388 0 L-19 0 L-19 33 Z " />
<glyph glyph-name="N" unicode="N" horiz-adv-x="1366" d="M-43 33 Q45 47 81 96 Q117 145 170 336 L407 1194 Q409 1200 390.5 1229.5 Q372 1259 353 1272 Q334 1285 308.5 1291 Q283 1297 237 1303 L237 1336 L566 1336 L988 324 L995 324 L1206 1104 Q1215 1139 1220 1167 Q1225 1195 1225 1209 Q1225 1265 1177 1286 Q1148 1299 1080 1303 L1080 1336 L1488 1336 L1488 1303 Q1395 1283 1362.5 1238 Q1330 1193 1275 1000 L1024 125 Q1012 82 1006.5 62.5 Q1001 43 981 -34 L943 -34 L476 1083 L466 1083 L239 232 Q233 209 226.5 177 Q220 145 220 126 Q220 69 272 48 Q302 35 365 33 L365 0 L-43 0 L-43 33 Z " />
<glyph glyph-name="O" unicode="O" horiz-adv-x="1479" d="M608 35 Q881 35 1068 404 Q1219 701 1219 955 Q1219 1112 1151 1200.5 Q1083 1289 946 1289 Q682 1289 496 936 Q339 639 339 363 Q339 201 410 118 Q481 35 608 35 Z M951 1362 Q1167 1362 1300 1222 Q1433 1082 1433 879 Q1433 521 1167 240 Q905 -35 586 -35 Q384 -35 251 91 Q118 217 118 450 Q118 781 381 1071 Q645 1362 951 1362 Z " />
<glyph glyph-name="P" unicode="P" horiz-adv-x="1251" d="M0 33 Q72 39 99 59 Q141 89 168 184 L419 1090 L438 1168 Q441 1182 442.5 1193.5 Q444 1205 444 1214 Q444 1262 411 1280 Q378 1298 298 1303 L298 1336 L805 1336 Q962 1336 1058 1297 Q1239 1224 1239 1024 Q1239 902 1167 808 Q1028 625 666 625 Q622 625 578.5 628.5 Q535 632 495 640 L386 246 Q376 210 371 187 Q362 147 362 125 Q362 75 392.5 56 Q423 37 502 33 L502 0 L0 0 L0 33 Z M514 711 Q533 707 560.5 704 Q588 701 632 701 Q784 701 870 743 Q1030 821 1030 1038 Q1030 1167 958 1220 Q886 1273 766 1273 Q718 1273 693.5 1264 Q669 1255 658 1218 L514 711 Z " />
<glyph glyph-name="Q" unicode="Q" horiz-adv-x="1479" d="M608 35 Q881 35 1068 404 Q1219 701 1219 955 Q1219 1112 1151 1200.5 Q1083 1289 946 1289 Q682 1289 496 936 Q339 638 339 363 Q339 203 409.5 119 Q480 35 608 35 Z M459 -152 Q477 -151 486 -150.5 Q495 -150 506 -150 Q580 -150 746 -192 Q912 -234 996 -234 Q1124 -234 1213 -183 Q1265 -154 1336 -81 L1367 -102 Q1248 -268 1071 -336 Q968 -375 865 -375 Q784 -375 604 -330 Q424 -285 366 -285 Q314 -285 256 -300.5 Q198 -316 142 -351 L120 -318 Q237 -236 337 -153 Q398 -101 483 -24 Q336 -8 227 117 Q118 242 118 450 Q118 781 381 1071 Q645 1362 951 1362 Q1167 1362 1300 1222 Q1433 1082 1433 879 Q1433 513 1158 231 Q890 -44 573 -34 L459 -152 Z " />
<glyph glyph-name="R" unicode="R" horiz-adv-x="1251" d="M497 749 Q567 742 583 740.5 Q599 739 618 739 Q773 739 880.5 810.5 Q988 882 988 1052 Q988 1181 915 1227 Q842 1273 727 1273 Q686 1273 663 1263 Q640 1253 630 1218 L497 749 Z M-29 33 Q43 39 70 59 Q112 89 139 184 L391 1090 Q399 1117 406.5 1153.5 Q414 1190 414 1217 Q414 1264 380 1281.5 Q346 1299 270 1303 L270 1336 L777 1336 Q923 1336 1020 1300 Q1204 1231 1204 1045 Q1204 867 1044 769 Q957 716 801 682 L990 180 Q1018 106 1054 71 Q1090 36 1161 33 L1161 0 L858 0 L606 663 L474 673 L357 246 Q350 219 344 195 Q334 146 334 119 Q334 72 367 54 Q400 36 474 33 L474 0 L-29 0 L-29 33 Z " />
<glyph glyph-name="S" unicode="S" horiz-adv-x="1024" d="M104 419 L143 414 Q142 379 142 373 Q142 217 228.5 122.5 Q315 28 440 28 Q566 28 635 113 Q704 198 704 299 Q704 337 691 379 Q671 444 625 495 L497 635 Q349 797 307 867 Q265 937 265 1019 Q265 1145 359 1251.5 Q453 1358 635 1358 Q716 1358 802 1330.5 Q888 1303 905 1303 Q938 1303 959 1321.5 Q980 1340 993 1360 L1040 1360 L957 952 L922 957 Q917 1103 885 1170 Q827 1289 666 1289 Q567 1289 505 1232.5 Q443 1176 443 1091 Q443 1022 471 975 Q499 928 578 843 L763 644 Q813 590 847 521.5 Q881 453 881 362 Q881 202 769.5 78.5 Q658 -45 472 -45 Q375 -45 275.5 -7.5 Q176 30 152 30 Q116 30 100 13 Q84 -4 71 -38 L35 -38 L104 419 Z " />
<glyph glyph-name="T" unicode="T" horiz-adv-x="1139" d="M123 33 Q214 40 251 59 Q313 92 338 184 L635 1265 Q399 1265 323 1229.5 Q247 1194 146 1014 L111 1021 L196 1336 L1287 1336 L1197 1002 L1161 1007 L1166 1078 Q1166 1172 1123.5 1218.5 Q1081 1265 955 1265 L841 1265 L557 246 Q547 213 542 187 Q533 148 533 125 Q533 65 570 50.5 Q607 36 715 33 L715 0 L123 0 L123 33 Z " />
<glyph glyph-name="U" unicode="U" horiz-adv-x="1479" d="M395 1090 Q406 1128 411 1152 Q419 1191 419 1217 Q419 1269 381 1284 Q343 1299 260 1303 L260 1336 L820 1336 L820 1303 Q736 1296 700 1276 Q639 1243 613 1152 L459 606 Q435 523 419 455 Q392 344 392 295 Q392 141 524 78 Q593 45 668 45 Q848 45 952.5 154.5 Q1057 264 1118 493 L1284 1104 Q1295 1145 1299 1168 Q1303 1191 1303 1208 Q1303 1265 1255 1286 Q1227 1299 1159 1303 L1159 1336 L1566 1336 L1566 1303 Q1475 1284 1442.5 1239.5 Q1410 1195 1353 1000 L1204 484 Q1133 200 1005 80 Q876 -40 643 -40 Q461 -40 333.5 58 Q206 156 206 310 Q206 360 223 445.5 Q240 531 270 640 L395 1090 Z " />
<glyph glyph-name="V" unicode="V" horiz-adv-x="1251" d="M649 1336 L649 1303 Q575 1299 541 1284 Q490 1260 490 1201 Q490 1193 491 1184.5 Q492 1176 493 1168 L625 277 L637 277 L1050 990 Q1081 1043 1109 1099 Q1156 1194 1156 1231 Q1156 1268 1127 1281 Q1098 1294 1028 1303 L1028 1336 L1408 1336 L1408 1303 Q1364 1294 1342.5 1281 Q1321 1268 1294 1223 L530 -38 L490 -38 L317 1028 Q286 1217 263.5 1255 Q241 1293 156 1303 L156 1336 L649 1336 Z " />
<glyph glyph-name="W" unicode="W" horiz-adv-x="1706" d="M628 1336 L628 1303 Q533 1298 507 1273 Q481 1248 481 1183 Q481 1173 481.5 1164.5 Q482 1156 483 1144 L568 341 L576 341 L924 1045 L905 1185 Q894 1262 865.5 1281.5 Q837 1301 751 1303 L751 1336 L1239 1336 L1239 1303 Q1169 1296 1143 1282 Q1099 1258 1099 1196 Q1099 1189 1100.5 1171.5 Q1102 1154 1182 341 L1189 341 L1566 1085 Q1581 1114 1592 1141 Q1609 1187 1609 1218 Q1609 1272 1568 1290 Q1543 1301 1476 1303 L1476 1336 L1856 1336 L1856 1303 Q1803 1289 1780 1270 Q1745 1240 1701 1156 L1080 -38 L1040 -38 L938 893 L926 893 L474 -38 L433 -38 L308 1021 Q284 1225 263 1261.5 Q242 1298 144 1303 L144 1336 L628 1336 Z " />
<glyph glyph-name="X" unicode="X" horiz-adv-x="1251" d="M602 33 Q682 36 710 46 Q758 63 758 112 Q758 130 752 157 Q746 184 734 213 L597 552 L291 201 Q272 180 258.5 155.5 Q245 131 245 105 Q245 59 287 44 Q313 34 379 33 L379 0 L-62 0 L-62 33 Q11 42 117 140 Q181 199 303 341 L559 637 L343 1180 Q314 1253 279.5 1272.5 Q245 1292 156 1303 L156 1336 L696 1336 L696 1303 Q612 1292 580 1276.5 Q548 1261 548 1214 Q548 1201 551 1189.5 Q554 1178 561 1159 L701 801 L1000 1147 Q1015 1164 1027.5 1188.5 Q1040 1213 1040 1231 Q1040 1270 1014 1281.5 Q988 1293 914 1303 L914 1336 L1341 1336 L1341 1303 Q1265 1277 1216.5 1239 Q1168 1201 1053 1073 Q1042 1061 911 911 Q780 761 737 711 L948 184 Q984 95 1029.5 65.5 Q1075 36 1161 33 L1161 0 L602 0 L602 33 Z " />
<glyph glyph-name="Y" unicode="Y" horiz-adv-x="1139" d="M158 33 Q249 40 287 59 Q347 91 374 184 L500 618 L341 1168 Q316 1255 291 1274.5 Q266 1294 187 1303 L187 1336 L675 1336 L675 1303 Q601 1299 573 1289 Q527 1272 527 1226 Q527 1211 533 1184 Q539 1157 542 1149 L666 711 L888 981 Q963 1072 995 1119 Q1050 1198 1050 1238 Q1050 1278 1009 1292 Q984 1300 910 1303 L910 1336 L1334 1336 L1334 1303 Q1275 1296 1241.5 1273 Q1208 1250 1152 1180 L704 625 L592 246 Q578 199 573 170 Q568 141 568 123 Q568 65 606.5 50.5 Q645 36 751 33 L751 0 L158 0 L158 33 Z " />
<glyph glyph-name="Z" unicode="Z" horiz-adv-x="1139" d="M-15 28 L969 1261 L618 1261 Q409 1261 320 1202 Q261 1163 189 1028 L151 1038 L246 1336 L1242 1336 L1242 1308 L251 73 L580 73 Q834 73 924 132 Q1014 191 1092 350 L1133 343 L1021 0 L-15 0 L-15 28 Z " />
<glyph glyph-name="bracketleft" unicode="&#x5b;" horiz-adv-x="797" d="M801 1332 L786 1275 L658 1275 Q609 1275 591 1258 Q573 1241 564 1204 L234 -188 Q230 -204 228.5 -212.5 Q227 -221 227 -228 Q227 -264 254.5 -274.5 Q282 -285 327 -285 L443 -285 L429 -342 L42 -342 L445 1332 L801 1332 Z " />
<glyph glyph-name="backslash" unicode="&#x5c;" horiz-adv-x="569" d="M523 0 L-72 1362 L47 1362 L640 0 L523 0 Z " />
<glyph glyph-name="bracketright" unicode="&#x5d;" horiz-adv-x="797" d="M23 -342 L37 -285 L165 -285 Q215 -285 233 -268 Q251 -251 260 -214 L590 1178 Q594 1194 595.5 1202.5 Q597 1211 597 1218 Q597 1254 569.5 1264.5 Q542 1275 497 1275 L381 1275 L395 1332 L782 1332 L379 -342 L23 -342 Z " />
<glyph glyph-name="asciicircum" unicode="&#x5e;" horiz-adv-x="864" d="M569 1362 L773 497 L635 497 L497 1144 L83 497 L-54 497 L515 1362 L569 1362 Z " />
<glyph glyph-name="underscore" unicode="&#x5f;" horiz-adv-x="1024" d="M0 -256 L0 -155 L1024 -155 L1024 -256 L0 -256 Z " />
<glyph glyph-name="grave" unicode="&#x60;" horiz-adv-x="682" d="M267 1360 Q292 1360 310 1346 Q328 1332 343 1313 L580 1007 L519 1007 L232 1225 Q215 1238 203.5 1253 Q192 1268 192 1290 Q192 1319 212 1339.5 Q232 1360 267 1360 Z " />
<glyph glyph-name="a" unicode="a" horiz-adv-x="1024" d="M746 722 Q746 794 713 828 Q680 862 633 862 Q470 862 330 612 Q207 392 207 233 Q207 153 241.5 116.5 Q276 80 327 80 Q478 80 618 323 Q746 544 746 722 Z M621 907 Q700 907 743 866 Q766 844 779 808 L784 794 L806 870 Q810 883 813 887.5 Q816 892 827 893 L940 906 Q949 906 950.5 902.5 Q952 899 950 890 Q946 877 944 869.5 Q942 862 938 848 L846 490 Q816 373 795 288 Q758 134 758 112 Q758 98 765.5 91.5 Q773 85 784 85 Q793 85 803.5 91 Q814 97 829 109 L846 123 Q854 130 864 139.5 Q874 149 888 163 L950 227 L974 206 Q870 73 807 25.5 Q744 -22 687 -22 Q650 -22 629.5 4 Q609 30 609 69 Q609 105 622.5 172.5 Q636 240 649 286 Q631 256 588.5 198.5 Q546 141 484 87 Q411 22 344 -5 Q292 -23 244 -23 Q163 -23 97 43.5 Q31 110 31 232 Q31 442 219 670 Q413 907 621 907 Z " />
<glyph glyph-name="b" unicode="b" horiz-adv-x="1024" d="M346 1199 Q352 1221 354.5 1238.5 Q357 1256 357 1268 Q357 1281 350.5 1293.5 Q344 1306 320 1313 Q313 1315 296.5 1316 Q280 1317 225 1320 L225 1355 Q257 1360 294.5 1364 Q332 1368 396 1378 Q403 1379 456.5 1391 Q510 1403 533 1403 Q538 1403 542.5 1399 Q547 1395 547 1387 L545 1374 L346 618 Q436 746 499 804 Q609 905 726 905 Q836 905 902.5 832.5 Q969 760 969 653 Q969 404 752 187 Q541 -24 315 -24 Q212 -24 126 22 Q40 67 47 94 L346 1199 Z M325 23 Q502 23 656 253 Q795 460 795 632 Q795 710 754 756.5 Q713 803 651 803 Q492 803 347 519 Q221 272 221 109 Q221 70 246 46.5 Q271 23 325 23 Z " />
<glyph glyph-name="c" unicode="c" horiz-adv-x="909" d="M640 903 Q762 903 816 848 Q870 793 870 741 Q870 694 842 668 Q814 642 776 642 Q739 642 714 665 Q689 688 689 722 Q689 748 705.5 778 Q722 808 722 817 Q722 835 701.5 847.5 Q681 860 636 860 Q475 860 356.5 677 Q238 494 238 293 Q238 180 286 116 Q334 52 430 52 Q507 52 579.5 96.5 Q652 141 713 210 L720 218 L749 196 Q679 107 614 59 Q499 -24 359 -24 Q225 -24 142 61.5 Q59 147 59 295 Q59 522 244 713 Q427 903 640 903 Z " />
<glyph glyph-name="d" unicode="d" horiz-adv-x="1024" d="M208 232 Q208 171 236 125.5 Q264 80 331 80 Q474 80 606 310 Q730 526 730 719 Q730 780 710 820 Q690 860 629 860 Q477 860 335 614 Q208 394 208 232 Z M618 907 Q697 907 730 869 Q749 847 760 794 L874 1204 Q879 1221 880.5 1234.5 Q882 1248 882 1258 Q882 1297 867.5 1307 Q853 1317 826 1317 Q809 1317 794.5 1316 Q780 1315 756 1313 L756 1346 Q869 1361 1069 1398 L1078 1388 L1076 1377 L884 658 L753 182 Q749 166 746.5 152.5 Q744 139 744 128 Q744 101 757.5 93 Q771 85 781 85 Q810 85 863 136 Q894 167 948 232 L971 210 L957 189 Q920 134 862 77 Q759 -24 677 -24 Q650 -24 628 -12 Q587 12 587 74 Q587 95 593 141 Q599 187 611 241 Q535 125 444.5 51 Q354 -23 247 -23 Q160 -23 95 39 Q30 101 30 230 Q30 448 230 678 Q429 907 618 907 Z " />
<glyph glyph-name="e" unicode="e" horiz-adv-x="909" d="M64 265 Q64 487 264 695 Q462 903 673 903 Q751 903 797 867 Q843 831 843 760 Q843 616 674.5 513.5 Q506 411 320 388 L263 381 Q250 340 245 315.5 Q240 291 240 254 Q240 166 297.5 117 Q355 68 434 68 Q509 68 593 118 Q641 147 732 222 L758 199 Q713 142 629 82 Q480 -25 330 -25 Q224 -25 144 50 Q64 125 64 265 Z M277 426 Q468 454 588 560.5 Q708 667 708 772 Q708 810 690 832.5 Q672 855 637 855 Q572 855 509.5 799.5 Q447 744 397 674 Q344 592 313 517 Q296 477 277 426 Z " />
<glyph glyph-name="f" unicode="f" horiz-adv-x="569" d="M867 1261 Q867 1229 845 1201 Q823 1173 784 1173 Q750 1173 728 1194.5 Q706 1216 706 1245 Q706 1265 725 1314 Q725 1327 712 1337 Q699 1346 678 1346 Q580 1346 514 1185 Q477 1092 431 872 L654 872 L640 805 L417 805 L270 156 Q211 -105 111.5 -266 Q12 -427 -143 -427 Q-214 -427 -259.5 -388 Q-305 -349 -305 -301 Q-305 -271 -285.5 -245 Q-266 -219 -227 -219 Q-193 -219 -169.5 -241.5 Q-146 -264 -146 -297 Q-146 -315 -156.5 -333.5 Q-167 -352 -167 -359 Q-167 -368 -155.5 -374 Q-144 -380 -126 -380 Q-41 -380 18 -246 Q49 -176 75 -53 L256 805 L71 805 L85 872 L274 872 Q335 1105 411 1217 Q524 1389 690 1389 Q766 1389 816.5 1350 Q867 1311 867 1261 Z " />
<glyph glyph-name="g" unicode="g" horiz-adv-x="1024" d="M355 512 Q355 450 374 413 Q406 352 489 352 Q579 352 649.5 466.5 Q720 581 720 719 Q720 785 691 822.5 Q662 860 604 860 Q492 860 423.5 741 Q355 622 355 512 Z M390 -380 Q509 -380 587.5 -323 Q666 -266 666 -187 Q666 -127 625 -86 Q603 -64 554 -39 Q513 -19 415.5 18.5 Q318 56 303 56 Q277 56 202 -13.5 Q127 -83 127 -171 Q127 -304 242 -354 Q302 -380 390 -380 Z M16 -197 Q16 -122 73.5 -54.5 Q131 13 256 80 Q231 96 215 113.5 Q199 131 199 160 Q199 201 256 254 Q288 284 360 333 Q296 357 250 401 Q194 460 194 554 Q194 705 312 805 Q430 905 604 905 Q695 905 758 876.5 Q821 848 832 829 L967 829 L967 749 L865 749 Q871 727 874 709 Q877 691 877 658 Q877 496 751.5 403 Q626 310 481 310 Q466 310 453 311.5 Q440 313 421 317 Q406 317 380 288 Q353 259 353 236 Q353 202 573 120 Q792 37 792 -123 Q792 -243 682 -333.5 Q572 -424 350 -424 Q196 -424 106 -358 Q16 -292 16 -197 Z " />
<glyph glyph-name="h" unicode="h" horiz-adv-x="1024" d="M227 1341 Q291 1350 330.5 1355.5 Q370 1361 399 1366 Q517 1389 526 1391 Q535 1393 540 1393 Q552 1387 552 1378 L317 485 Q443 671 523 757 Q663 905 780 905 Q828 905 872.5 874.5 Q917 844 917 765 Q917 746 912 716 Q907 686 900 663 L765 184 Q759 164 755 145.5 Q751 127 751 112 Q751 95 759 86.5 Q767 78 782 78 Q813 78 855 121 Q881 148 952 239 L978 215 Q908 111 859 63 Q772 -22 684 -22 Q644 -22 617 3 Q590 28 590 75 Q590 88 591.5 99.5 Q593 111 597 125 L751 711 Q753 719 754.5 727.5 Q756 736 756 745 Q756 770 741 784 Q725 798 700 798 Q633 798 531 690.5 Q429 583 359 471 Q311 392 286.5 322 Q262 252 192 0 L37 0 L357 1213 Q360 1226 361 1235 Q362 1244 362 1252 Q362 1295 334 1303.5 Q306 1312 227 1308 L227 1341 Z " />
<glyph glyph-name="i" unicode="i" horiz-adv-x="569" d="M440 1125 Q399 1125 370 1157 Q341 1189 341 1234 Q341 1280 370 1312 Q399 1344 440 1344 Q481 1344 510.5 1312 Q540 1280 540 1234 Q540 1188 510.5 1156.5 Q481 1125 440 1125 Z M464.5 906.5 Q470 903 469 898 L267 184 Q253 127 253 116 Q253 101 259 90 Q264 78 284 78 Q318 78 374 137 Q407 172 455 237 L481 215 L471 201 Q396 96 347 50 Q270 -22 197 -22 Q154 -22 125.5 14 Q97 50 97 99 Q97 128 101 149.5 Q105 171 116 213 L256 727 Q259 739 261 749 Q263 759 263 769 Q263 805 236.5 813.5 Q210 822 132 822 L132 855 Q215 865 251.5 870.5 Q288 876 325 882 Q373 890 416 900 Q459 910 464.5 906.5 Z " />
<glyph glyph-name="j" unicode="j" horiz-adv-x="569" d="M592 1234 Q592 1184 562 1152.5 Q532 1121 493 1121 Q452 1121 422.5 1153 Q393 1185 393 1230 Q393 1277 422.5 1308 Q452 1339 493 1339 Q535 1339 563.5 1307 Q592 1275 592 1234 Z M-145 -209 Q-110 -209 -86 -229.5 Q-62 -250 -62 -280 Q-62 -298 -75 -322 Q-88 -346 -88 -352 Q-88 -367 -75 -371.5 Q-62 -376 -48 -376 Q18 -376 59.5 -289 Q101 -202 149 -5 L327 725 Q331 745 332.5 752.5 Q334 760 334 768 Q334 803 312.5 813.5 Q291 824 257 824 Q236 824 219.5 823 Q203 822 180 820 L180 855 Q231 861 276.5 867 Q322 873 342 876 Q355 878 430 894.5 Q505 911 522 911 Q530 911 530.5 907 Q531 903 530 896 L320 61 Q259 -181 165 -301.5 Q71 -422 -65 -422 Q-139 -422 -186 -387.5 Q-233 -353 -233 -303 Q-233 -263 -207 -236 Q-181 -209 -145 -209 Z " />
<glyph glyph-name="k" unicode="k" horiz-adv-x="909" d="M28 0 L348 1213 Q350 1222 351.5 1230.5 Q353 1239 353 1248 Q353 1292 327.5 1301 Q302 1310 218 1308 L218 1341 Q275 1348 328 1355.5 Q381 1363 410 1368 Q419 1370 479 1383 Q539 1396 545 1396 L547 1386 L296 448 Q522 626 602 697 Q682 768 682 804 Q682 828 660.5 834 Q639 840 568 843 L568 877 L943 877 L943 843 Q869 839 806 795 Q743 751 483 528 Q619 211 653 146.5 Q687 82 722 82 Q752 82 785 124 Q807 151 848 222 L879 201 Q815 84 765.5 30 Q716 -24 651 -24 Q609 -24 575 8.5 Q541 41 484 160 Q461 206 430.5 276 Q400 346 367 433 L274 365 L182 0 L28 0 Z " />
<glyph glyph-name="l" unicode="l" horiz-adv-x="569" d="M372 1213 Q376 1226 377 1239 Q378 1252 378 1260 Q378 1294 350.5 1301.5 Q323 1309 241 1308 L241 1341 Q286 1347 344.5 1355 Q403 1363 421 1366 Q477 1376 557 1396 Q564 1396 571 1386 L256 184 Q245 141 243 132 Q241 123 241 114 Q241 95 248 81.5 Q255 68 274 68 Q310 68 368 132 Q426 196 466 256 L493 237 Q407 110 359 61 Q276 -22 192 -22 Q156 -22 128 -4 Q85 23 85 88 Q85 113 93 155 Q98 180 106 213 L372 1213 Z " />
<glyph glyph-name="m" unicode="m" horiz-adv-x="1479" d="M762 905 Q802 905 833 883 Q881 850 881 774 Q881 740 864.5 679.5 Q848 619 805 485 Q916 655 996 744 Q1141 905 1252 905 Q1299 905 1338 873 Q1377 841 1377 770 Q1377 748 1358 663 L1211 118 Q1207 105 1214 91.5 Q1221 78 1240 78 Q1258 78 1271.5 87 Q1285 96 1306 117 Q1326 137 1338.5 152 Q1351 167 1410 239 L1441 215 L1431 201 Q1359 99 1286 38.5 Q1213 -22 1142 -22 Q1110 -22 1088 -6 Q1054 20 1054 81 Q1054 96 1056.5 113 Q1059 130 1064 151 L1208 711 Q1211 723 1212.5 731 Q1214 739 1214 747 Q1214 771 1201.5 784 Q1189 797 1170 797 Q1103 797 1014 696 Q925 595 859 491 Q799 385 774.5 313.5 Q750 242 685 0 L530 0 L720 711 Q722 720 723.5 728.5 Q725 737 725 746 Q725 770 714.5 783.5 Q704 797 680 797 Q617 797 524.5 692 Q432 587 373 496 Q315 407 262 259 Q230 169 177 0 L23 0 L218 711 Q221 722 223 732 Q225 742 225 753 Q225 792 198 800 Q171 808 94 805 L94 839 Q195 855 421 905 L429 898 L312 485 Q423 649 522 759 Q658 905 762 905 Z " />
<glyph glyph-name="n" unicode="n" horiz-adv-x="1024" d="M37 0 L210 618 Q232 696 235.5 712.5 Q239 729 239 748 Q239 777 222.5 793.5 Q206 810 158 810 Q146 810 134.5 808.5 Q123 807 109 805 L109 839 Q174 849 201.5 854 Q229 859 261 866 L440 905 Q446 901 448 896 L315 466 Q437 653 519 744 Q663 905 777 905 Q821 905 853 888 Q914 855 914 769 Q914 745 909 719 Q904 693 896 663 L765 184 Q761 169 756 147.5 Q751 126 751 117 Q751 102 758 90 Q765 78 781 78 Q807 78 841 108.5 Q875 139 952 239 L981 213 Q899 102 851 57 Q769 -22 694 -22 Q660 -22 628.5 0.5 Q597 23 597 82 Q597 99 599.5 118 Q602 137 606 151 L732 637 Q742 677 745.5 702.5 Q749 728 749 739 Q749 763 737.5 780.5 Q726 798 697 798 Q622 798 508 662 Q441 581 372 469 Q319 382 288.5 299.5 Q258 217 192 0 L37 0 Z " />
<glyph glyph-name="o" unicode="o" horiz-adv-x="1024" d="M227 215 Q227 132 268.5 77.5 Q310 23 390 23 Q553 23 679 269 Q786 480 786 657 Q786 732 768 778 Q733 865 640 865 Q487 865 353 636 Q227 422 227 215 Z M651 907 Q819 907 888 817.5 Q957 728 957 606 Q957 394 770 190 Q577 -22 358 -22 Q220 -22 137 58 Q54 138 54 283 Q54 502 240 702 Q430 907 651 907 Z " />
<glyph glyph-name="p" unicode="p" horiz-adv-x="1024" d="M-157 -389 Q-97 -389 -66.5 -366.5 Q-36 -344 -22 -290 L232 685 Q242 721 244.5 737 Q247 753 247 762 Q247 795 222.5 811 Q198 827 151 827 Q141 827 132 826.5 Q123 826 113 824 L111 858 L429 905 Q435 906 438 898 Q435 884 433 877 L379 682 Q447 772 504 819 Q607 905 718 905 Q831 905 895.5 838.5 Q960 772 960 635 Q960 400 761 187 Q564 -24 352 -24 Q310 -24 281 -16 Q252 -8 210 11 L196 -48 Q172 -151 162 -195 Q136 -310 136 -325 Q136 -366 162 -377 Q188 -388 265 -392 L265 -422 L-157 -422 L-157 -389 Z M776 639 Q776 704 760 742 Q729 815 644 815 Q571 815 485 746 Q399 677 349 522 Q309 396 274 258.5 Q239 121 239 97 Q239 58 270.5 39.5 Q302 21 346 21 Q522 21 656 244 Q776 443 776 639 Z " />
<glyph glyph-name="q" unicode="q" horiz-adv-x="1024" d="M644 907 Q721 907 760 869 Q783 847 808 786 L839 877 L988 877 L654 -309 Q653 -314 652 -319.5 Q651 -325 651 -330 Q651 -370 690 -382 Q716 -389 801 -389 L801 -427 L308 -427 L308 -394 Q410 -383 445.5 -366 Q481 -349 500 -285 L675 305 Q570 154 502 90 Q383 -23 257 -23 Q186 -23 115.5 35.5 Q45 94 45 232 Q45 449 247 678 Q450 907 644 907 Z M777 717 Q777 796 738.5 828 Q700 860 658 860 Q512 860 365 633 Q228 420 228 249 Q228 159 265.5 124 Q303 89 346 89 Q485 89 634 322 Q777 544 777 717 Z " />
<glyph glyph-name="r" unicode="r" horiz-adv-x="797" d="M417 910 Q426 910 429.5 904.5 Q433 899 433 892 Q432 882 431 877 L331 490 L353 533 Q425 674 521.5 790.5 Q618 907 705 907 Q752 907 777.5 876 Q803 845 803 805 Q803 760 777.5 730.5 Q752 701 707 701 Q676 701 660 713 Q644 725 635 741 L623 763 Q619 769 613.5 772.5 Q608 776 600 776 Q561 776 487.5 667 Q414 558 356 431 Q321 354 278 227 Q251 147 206 0 L52 0 L218 602 Q232 654 240.5 695 Q249 736 249 762 Q249 792 234 808 Q219 824 182 824 Q170 824 152 822 Q134 820 109 817 L109 850 L149 858 Q227 874 319.5 892 Q412 910 417 910 Z " />
<glyph glyph-name="s" unicode="s" horiz-adv-x="797" d="M73 298 L106 298 Q128 177 158 121 Q213 18 322 18 Q383 18 424.5 61 Q466 104 466 175 Q466 219 455.5 247 Q445 275 429 298 L346 421 Q271 533 252 571 Q223 628 223 685 Q223 772 285.5 838.5 Q348 905 463 905 Q512 905 575 886.5 Q638 868 661 868 Q686 868 698 878 Q710 888 720 905 L749 905 L708 621 L675 621 Q662 718 636 767 Q588 858 484 858 Q440 858 405.5 830.5 Q371 803 371 750 Q371 709 386.5 678 Q402 647 457 568 L528 466 Q583 387 606 337 Q629 287 629 229 Q629 121 537 47 Q445 -27 318 -27 Q277 -27 201 -10 Q125 7 113 7 Q93 7 83.5 -2 Q74 -11 66 -29 L33 -29 L73 298 Z " />
<glyph glyph-name="t" unicode="t" horiz-adv-x="569" d="M77 66 Q77 74 78 84.5 Q79 95 82 106 L270 805 L118 805 Q118 832 122 839 Q126 846 142 853 Q243 896 298.5 936 Q354 976 450 1090 L466 1109 Q469 1113 473.5 1115.5 Q478 1118 483 1118 Q493 1116 497 1114 Q500 1107 500.5 1101.5 Q501 1096 500 1090 L443 872 L606 872 L594 805 L424 805 L244 132 Q239 114 247 97.5 Q255 81 274 81 Q300 81 347 133 Q374 161 438 244 L464 229 L450 208 Q364 79 298.5 28.5 Q233 -22 174 -22 Q123 -22 100 5 Q77 32 77 66 Z " />
<glyph glyph-name="u" unicode="u" horiz-adv-x="1024" d="M234 722 Q236 732 237.5 740.5 Q239 749 239 758 Q239 801 213.5 810.5 Q188 820 118 820 L118 848 L265 877 L424 907 Q429 908 433 903 Q437 898 436 893 L433 879 L256 199 Q249 174 246 160 Q243 146 243 140 Q243 117 256 104 Q269 91 290 91 Q349 91 437.5 196 Q526 301 595 414 Q657 515 709 639 Q741 716 801 884 L952 884 L763 175 Q758 155 754 138 Q750 121 750 110 Q750 97 756 87.5 Q762 78 777 78 Q792 78 808 89.5 Q824 101 848 125 Q859 136 888 172 Q906 194 943 239 L971 220 Q925 144 875 89 Q776 -22 691 -22 Q647 -22 619 2 Q591 26 591 77 Q591 103 596 134 Q601 165 612 204 Q630 274 658 379 L680 464 L673 464 Q535 235 456 140 Q319 -23 197 -23 Q164 -23 137 -9 Q85 19 85 91 Q85 112 87 125 Q89 138 94 161 L234 722 Z " />
<glyph glyph-name="v" unicode="v" horiz-adv-x="909" d="M756 903 Q812 903 842 863 Q872 823 872 772 Q872 637 605 299 Q352 -22 302 -22 Q287 -22 282 19 Q279 42 279 97 Q279 164 266 324 Q253 484 241 561 Q216 730 192 779 Q168 828 101 828 Q90 828 75.5 827 Q61 826 42 824 L42 850 Q72 856 168 877 Q264 898 270 900 L303 910 Q317 914 325 894.5 Q333 875 345 822 Q383 648 402 479 Q414 374 426 168 L459 203 Q562 312 665 462 Q768 612 768 674 Q768 705 723 748.5 Q678 792 678 828 Q678 861 700.5 882 Q723 903 756 903 Z " />
<glyph glyph-name="w" unicode="w" horiz-adv-x="1366" d="M1327 783 Q1327 699 1246 561 Q1201 484 1119 374 Q1035 261 946 151 Q805 -23 780 -23 Q769 -23 766 -14 Q763 -5 758 47 L699 670 L284 -10 Q281 -16 276.5 -18 Q272 -20 267 -20 L253 -17 L251 -8 L239 239 Q235 322 227.5 410.5 Q220 499 213 564 Q192 745 168.5 786 Q145 827 82 827 Q70 827 58 826.5 Q46 826 33 824 L33 853 Q74 860 111.5 868 Q149 876 194 886 L288 910 Q322 910 357 625 Q376 469 391 270 L784 891 Q788 899 794 904.5 Q800 910 808 910 Q817 910 820 904 Q823 898 824 886 L891 163 Q898 172 1002 304.5 Q1106 437 1111 445 Q1186 553 1211 612 Q1227 650 1227 686 Q1227 700 1223 712.5 Q1219 725 1204 739 L1173 768 Q1160 781 1150.5 796.5 Q1141 812 1141 833 Q1141 858 1158.5 884 Q1176 910 1222 910 Q1259 910 1293 880.5 Q1327 851 1327 783 Z " />
<glyph glyph-name="x" unicode="x" horiz-adv-x="909" d="M-57 68 Q-57 107 -33 123.5 Q-9 140 16 140 Q28 140 40 136.5 Q52 133 66 125 L101 106 Q108 102 114.5 100.5 Q121 99 129 99 Q154 99 167.5 111.5 Q181 124 237 199 Q274 248 405 438 Q405 445 382 545.5 Q359 646 340 716 Q321 787 306 809.5 Q291 832 250 832 Q236 832 195 822 Q169 816 139 808 L130 839 L241 877 Q284 892 320.5 901 Q357 910 383 910 Q425 910 446 885 Q478 845 500 727 L521 613 Q611 751 661 807 Q706 858 746 883 Q786 908 822 908 Q856 908 877 898 Q915 880 915 830 Q915 796 896 777 Q877 758 847 758 Q836 758 826 760.5 Q816 763 805 768 L779 779 Q768 784 758 787.5 Q748 791 743 791 Q698 791 618 674.5 Q538 558 538 540 Q538 525 556.5 442.5 Q575 360 597 268 Q617 181 631 148 Q654 94 683 94 Q710 94 738 124 Q766 154 822 232 L850 215 Q807 137 761 82 Q674 -22 595 -22 Q545 -22 516 26 Q499 54 483 118 L421 365 L216 96 Q156 26 123.5 2 Q91 -22 43 -22 Q-21 -22 -44 18 Q-57 39 -57 68 Z " />
<glyph glyph-name="y" unicode="y" horiz-adv-x="909" d="M-53 -332 Q-53 -300 -33 -277 Q-13 -254 25 -254 Q50 -254 69 -263.5 Q88 -273 109 -291 L123 -301 Q129 -306 136.5 -308.5 Q144 -311 153 -311 Q202 -311 310.5 -181.5 Q419 -52 419 7 Q419 63 381.5 227 Q344 391 309 519 Q260 699 219.5 763 Q179 827 100 827 Q94 827 79.5 825.5 Q65 824 30 820 L30 853 L303 905 L324 907 Q349 910 420 682 Q484 477 500 384 L540 146 Q645 322 694 416 Q790 601 790 675 Q790 692 784 708.5 Q778 725 756 737 L739 746 Q723 754 701.5 776 Q680 798 680 835 Q680 866 700 887 Q720 908 760 908 Q810 908 841 878.5 Q872 849 872 778 Q872 671 755 434 Q665 253 554 83 Q415 -129 315 -244 Q156 -425 51 -425 Q10 -425 -21.5 -400 Q-53 -375 -53 -332 Z " />
<glyph glyph-name="z" unicode="z" horiz-adv-x="797" d="M777 853 L184 149 Q248 136 285 118 Q349 87 398 23 L459 -57 Q481 -86 510 -106 Q539 -126 573 -126 Q598 -126 614 -116 Q630 -106 630 -92 Q630 -85 616 -55.5 Q602 -26 602 0 Q602 31 623.5 47.5 Q645 64 671 64 Q708 64 726 41 Q744 18 744 -17 Q744 -71 687.5 -119 Q631 -167 550 -167 Q504 -167 460 -151 Q434 -141 398 -121 L277 -53 Q218 -20 180.5 -5.5 Q143 9 104 9 Q77 9 60 1 Q43 -7 14 -29 L-8 -10 L630 753 L331 753 Q263 753 228.5 729 Q194 705 165 632 L132 640 L196 877 L777 877 L777 853 Z " />
<glyph glyph-name="braceleft" unicode="&#x7b;" horiz-adv-x="819" d="M-12 540 Q149 558 218 615 Q287 672 315 798 L376 1073 Q417 1255 592 1325 Q693 1365 905 1377 L893 1332 Q709 1304 630 1241 Q551 1178 523 1032 L488 859 Q456 637 323 576 Q227 525 35 502 L33 497 Q131 488 200 462 Q343 408 343 296 Q343 274 341 252 Q339 230 331 201 L253 -81 Q247 -103 245 -120 Q243 -137 243 -149 Q243 -233 318 -278 Q362 -304 466 -328 L455 -373 Q324 -373 233 -342 Q82 -291 82 -166 Q82 -145 85.5 -121.5 Q89 -98 97 -72 L182 237 Q186 251 187.5 263.5 Q189 276 189 291 Q189 381 112 424 Q68 448 -34 466 L-12 540 Z " />
<glyph glyph-name="bar" unicode="&#x7c;" horiz-adv-x="563" d="M73 0 L370 1393 L491 1393 L194 0 L73 0 Z " />
<glyph glyph-name="braceright" unicode="&#x7d;" horiz-adv-x="819" d="M817 464 Q657 446 587.5 389.5 Q518 333 490 206 L429 -69 Q388 -251 211 -321 Q109 -362 -100 -373 L-88 -328 Q88 -309 168 -236 Q248 -163 280 -40 L320 157 Q355 357 500 425 Q613 483 770 502 L772 507 Q636 523 549 568 Q462 613 462 704 Q462 730 464.5 754 Q467 778 474 803 L552 1085 Q558 1107 560 1124 Q562 1141 562 1153 Q562 1239 482 1285 Q424 1317 338 1332 L350 1377 Q480 1377 570 1347 Q722 1296 722 1170 Q722 1147 718.5 1124 Q715 1101 708 1076 L623 768 Q619 754 617.5 741 Q616 728 616 713 Q616 621 698 577 Q744 552 839 538 L817 464 Z " />
<glyph glyph-name="asciitilde" unicode="&#x7e;" horiz-adv-x="1108" d="M302 656 Q374 656 574.5 574.5 Q775 493 828 493 Q904 493 955 561 Q985 602 1026 706 L1078 706 Q1026 506 957.5 436.5 Q889 367 796 367 Q745 367 676 388 Q631 402 561 431 L426 488 Q370 512 333 522.5 Q296 533 270 533 Q191 533 136 454 Q105 409 75 322 L28 322 Q63 470 104 538 Q175 656 302 656 Z " />
<glyph glyph-name="Adieresis" unicode="&#xc4;" horiz-adv-x="1251" d="M805 535 L715 1066 L410 535 L805 535 Z M-55 33 Q13 50 52.5 96 Q92 142 210 343 L808 1367 L853 1367 L1050 208 Q1069 96 1095 68.5 Q1121 41 1206 33 L1206 0 L701 0 L701 33 Q792 42 819 55 Q862 75 862 133 Q862 148 861 165 Q860 182 858 194 L817 462 L367 462 L248 232 Q235 209 225 183 Q208 137 208 106 Q208 67 234.5 51 Q261 35 329 33 L329 0 L-55 0 L-55 33 Z M1011 1602 Q1011 1642 1039.5 1672 Q1068 1702 1111 1702 Q1151 1702 1181.5 1672.5 Q1212 1643 1212 1602 Q1212 1559 1182 1529.5 Q1152 1500 1111 1500 Q1071 1500 1041 1528.5 Q1011 1557 1011 1602 Z M700 1702 Q738 1702 769 1673.5 Q800 1645 800 1601 Q800 1561 770.5 1530.5 Q741 1500 700 1500 Q658 1500 628 1529.5 Q598 1559 598 1600 Q598 1643 628 1672.5 Q658 1702 700 1702 Z " />
<glyph glyph-name="Aring" unicode="&#xc5;" horiz-adv-x="1251" d="M805 535 L715 1066 L410 535 L805 535 Z M-55 33 Q13 50 52.5 96 Q92 142 210 343 L808 1367 L853 1367 L1050 208 Q1069 96 1095 68.5 Q1121 41 1206 33 L1206 0 L701 0 L701 33 Q792 42 819 55 Q862 75 862 133 Q862 148 861 165 Q860 182 858 194 L817 462 L367 462 L248 232 Q235 209 225 183 Q208 137 208 106 Q208 67 234.5 51 Q261 35 329 33 L329 0 L-55 0 L-55 33 Z M773 1614 Q773 1561 810 1524.5 Q847 1488 899 1488 Q951 1488 987.5 1525 Q1024 1562 1024 1614 Q1024 1666 987.5 1702.5 Q951 1739 899 1739 Q847 1739 810 1702.5 Q773 1666 773 1614 Z M690 1614 Q690 1700 751.5 1761 Q813 1822 899 1822 Q985 1822 1046 1761 Q1107 1700 1107 1614 Q1107 1527 1046 1466 Q985 1405 899 1405 Q812 1405 751 1466 Q690 1527 690 1614 Z " />
<glyph glyph-name="Ccedilla" unicode="&#xc7;" horiz-adv-x="1366" d="M943 1362 Q1032 1362 1136 1338 Q1240 1314 1262 1314 Q1299 1314 1314 1326 Q1329 1338 1339 1360 L1381 1360 L1306 952 L1270 957 Q1259 1078 1216 1152 Q1137 1289 955 1289 Q675 1289 494 1009 Q336 766 336 482 Q336 271 432 163 Q528 55 679 55 Q835 55 965 131 Q1042 177 1166 296 L1199 267 Q1087 125 945.5 43.5 Q804 -38 634 -38 Q599 -38 548 -27 L476 -138 Q491 -134 500.5 -132.5 Q510 -131 525 -131 Q605 -131 649.5 -170 Q694 -209 694 -269 Q694 -354 623.5 -400 Q553 -446 445 -446 Q410 -446 352 -433.5 Q294 -421 258 -403 L293 -344 Q349 -363 372 -369 Q395 -375 428 -375 Q495 -375 525 -339 Q545 -316 545 -286 Q545 -249 521.5 -225.5 Q498 -202 449 -202 Q436 -202 422 -205 Q408 -208 381 -216 L362 -200 L482 -12 Q320 28 212 157 Q104 286 104 502 Q104 812 333 1074 Q584 1362 943 1362 Z " />
<glyph glyph-name="Eacute" unicode="&#xc9;" horiz-adv-x="1251" d="M-5 33 Q67 39 94 59 Q136 89 163 184 L414 1090 Q426 1135 432.5 1164.5 Q439 1194 439 1215 Q439 1263 402.5 1282 Q366 1301 279 1303 L279 1336 L1298 1336 L1234 1024 L1192 1028 Q1195 1058 1196 1085.5 Q1197 1113 1197 1106 Q1199 1207 1125.5 1238.5 Q1052 1270 823 1270 Q718 1270 691 1260 Q664 1250 654 1216 L519 739 Q790 748 845 773 Q900 798 962 938 L1000 929 L860 455 L820 464 Q830 524 832 537 Q834 550 834 566 Q834 631 787.5 650.5 Q741 670 617 670 L500 670 L374 213 Q368 192 364.5 174 Q361 156 361 137 Q361 105 378 89 Q409 61 500 61 Q775 61 893.5 120 Q1012 179 1130 348 L1163 331 L1035 0 L-5 0 L-5 33 Z M1183 1716 Q1183 1694 1172 1680.5 Q1161 1667 1147 1658 L797 1440 L725 1440 L1057 1767 Q1066 1776 1081 1782 Q1096 1788 1110 1788 Q1138 1788 1160.5 1767.5 Q1183 1747 1183 1716 Z " />
<glyph glyph-name="Ntilde" unicode="&#xd1;" horiz-adv-x="1366" d="M-43 33 Q45 47 81 96 Q117 145 170 336 L407 1194 Q409 1200 390.5 1229.5 Q372 1259 353 1272 Q334 1285 308.5 1291 Q283 1297 237 1303 L237 1336 L566 1336 L988 324 L995 324 L1206 1104 Q1215 1139 1220 1167 Q1225 1195 1225 1209 Q1225 1265 1177 1286 Q1148 1299 1080 1303 L1080 1336 L1488 1336 L1488 1303 Q1395 1283 1362.5 1238 Q1330 1193 1275 1000 L1024 125 Q1012 82 1006.5 62.5 Q1001 43 981 -34 L943 -34 L476 1083 L466 1083 L239 232 Q233 209 226.5 177 Q220 145 220 126 Q220 69 272 48 Q302 35 365 33 L365 0 L-43 0 L-43 33 Z M603 1490 Q622 1584 670 1645 Q718 1706 804 1706 Q871 1706 972.5 1662 Q1074 1618 1110 1618 Q1160 1618 1186 1650 Q1201 1668 1214 1708 L1274 1708 Q1257 1614 1204.5 1554.5 Q1152 1495 1077 1495 Q1050 1495 1018.5 1504.5 Q987 1514 899 1547 L830 1573 Q814 1579 800 1582 Q786 1585 769 1585 Q721 1585 701 1562 Q681 1539 662 1490 L603 1490 Z " />
<glyph glyph-name="Odieresis" unicode="&#xd6;" horiz-adv-x="1479" d="M608 35 Q881 35 1068 404 Q1219 701 1219 955 Q1219 1112 1151 1200.5 Q1083 1289 946 1289 Q682 1289 496 936 Q339 639 339 363 Q339 201 410 118 Q481 35 608 35 Z M951 1362 Q1167 1362 1300 1222 Q1433 1082 1433 879 Q1433 521 1167 240 Q905 -35 586 -35 Q384 -35 251 91 Q118 217 118 450 Q118 781 381 1071 Q645 1362 951 1362 Z M1117 1597 Q1117 1637 1145.5 1667 Q1174 1697 1217 1697 Q1257 1697 1287.5 1667.5 Q1318 1638 1318 1597 Q1318 1554 1288 1524.5 Q1258 1495 1217 1495 Q1177 1495 1147 1523.5 Q1117 1552 1117 1597 Z M806 1697 Q844 1697 875 1668.5 Q906 1640 906 1596 Q906 1556 876.5 1525.5 Q847 1495 806 1495 Q764 1495 734 1524.5 Q704 1554 704 1595 Q704 1638 734 1667.5 Q764 1697 806 1697 Z " />
<glyph glyph-name="Udieresis" unicode="&#xdc;" horiz-adv-x="1479" d="M395 1090 Q406 1128 411 1152 Q419 1191 419 1217 Q419 1269 381 1284 Q343 1299 260 1303 L260 1336 L820 1336 L820 1303 Q736 1296 700 1276 Q639 1243 613 1152 L459 606 Q435 523 419 455 Q392 344 392 295 Q392 141 524 78 Q593 45 668 45 Q848 45 952.5 154.5 Q1057 264 1118 493 L1284 1104 Q1295 1145 1299 1168 Q1303 1191 1303 1208 Q1303 1265 1255 1286 Q1227 1299 1159 1303 L1159 1336 L1566 1336 L1566 1303 Q1475 1284 1442.5 1239.5 Q1410 1195 1353 1000 L1204 484 Q1133 200 1005 80 Q876 -40 643 -40 Q461 -40 333.5 58 Q206 156 206 310 Q206 360 223 445.5 Q240 531 270 640 L395 1090 Z M1125 1570 Q1125 1610 1153.5 1640 Q1182 1670 1225 1670 Q1265 1670 1295.5 1640.5 Q1326 1611 1326 1570 Q1326 1527 1296 1497.5 Q1266 1468 1225 1468 Q1185 1468 1155 1496.5 Q1125 1525 1125 1570 Z M814 1670 Q852 1670 883 1641.5 Q914 1613 914 1569 Q914 1529 884.5 1498.5 Q855 1468 814 1468 Q772 1468 742 1497.5 Q712 1527 712 1568 Q712 1611 742 1640.5 Q772 1670 814 1670 Z " />
<glyph glyph-name="aacute" unicode="&#xe1;" horiz-adv-x="1024" d="M746 722 Q746 794 713 828 Q680 862 633 862 Q470 862 330 612 Q207 392 207 233 Q207 153 241.5 116.5 Q276 80 327 80 Q478 80 618 323 Q746 544 746 722 Z M621 907 Q700 907 743 866 Q766 844 779 808 L784 794 L806 870 Q810 883 813 887.5 Q816 892 827 893 L940 906 Q949 906 950.5 902.5 Q952 899 950 890 Q946 877 944 869.5 Q942 862 938 848 L846 490 Q816 373 795 288 Q758 134 758 112 Q758 98 765.5 91.5 Q773 85 784 85 Q793 85 803.5 91 Q814 97 829 109 L846 123 Q854 130 864 139.5 Q874 149 888 163 L950 227 L974 206 Q870 73 807 25.5 Q744 -22 687 -22 Q650 -22 629.5 4 Q609 30 609 69 Q609 105 622.5 172.5 Q636 240 649 286 Q631 256 588.5 198.5 Q546 141 484 87 Q411 22 344 -5 Q292 -23 244 -23 Q163 -23 97 43.5 Q31 110 31 232 Q31 442 219 670 Q413 907 621 907 Z M1015 1283 Q1015 1261 1004 1247.5 Q993 1234 979 1225 L629 1007 L557 1007 L889 1334 Q898 1343 913 1349 Q928 1355 942 1355 Q970 1355 992.5 1334.5 Q1015 1314 1015 1283 Z " />
<glyph glyph-name="agrave" unicode="&#xe0;" horiz-adv-x="1024" d="M746 722 Q746 794 713 828 Q680 862 633 862 Q470 862 330 612 Q207 392 207 233 Q207 153 241.5 116.5 Q276 80 327 80 Q478 80 618 323 Q746 544 746 722 Z M621 907 Q700 907 743 866 Q766 844 779 808 L784 794 L806 870 Q810 883 813 887.5 Q816 892 827 893 L940 906 Q949 906 950.5 902.5 Q952 899 950 890 Q946 877 944 869.5 Q942 862 938 848 L846 490 Q816 373 795 288 Q758 134 758 112 Q758 98 765.5 91.5 Q773 85 784 85 Q793 85 803.5 91 Q814 97 829 109 L846 123 Q854 130 864 139.5 Q874 149 888 163 L950 227 L974 206 Q870 73 807 25.5 Q744 -22 687 -22 Q650 -22 629.5 4 Q609 30 609 69 Q609 105 622.5 172.5 Q636 240 649 286 Q631 256 588.5 198.5 Q546 141 484 87 Q411 22 344 -5 Q292 -23 244 -23 Q163 -23 97 43.5 Q31 110 31 232 Q31 442 219 670 Q413 907 621 907 Z M512 1360 Q537 1360 555 1346 Q573 1332 588 1313 L825 1007 L764 1007 L477 1225 Q460 1238 448.5 1253 Q437 1268 437 1290 Q437 1319 457 1339.5 Q477 1360 512 1360 Z " />
<glyph glyph-name="acircumflex" unicode="&#xe2;" horiz-adv-x="1024" d="M746 722 Q746 794 713 828 Q680 862 633 862 Q470 862 330 612 Q207 392 207 233 Q207 153 241.5 116.5 Q276 80 327 80 Q478 80 618 323 Q746 544 746 722 Z M621 907 Q700 907 743 866 Q766 844 779 808 L784 794 L806 870 Q810 883 813 887.5 Q816 892 827 893 L940 906 Q949 906 950.5 902.5 Q952 899 950 890 Q946 877 944 869.5 Q942 862 938 848 L846 490 Q816 373 795 288 Q758 134 758 112 Q758 98 765.5 91.5 Q773 85 784 85 Q793 85 803.5 91 Q814 97 829 109 L846 123 Q854 130 864 139.5 Q874 149 888 163 L950 227 L974 206 Q870 73 807 25.5 Q744 -22 687 -22 Q650 -22 629.5 4 Q609 30 609 69 Q609 105 622.5 172.5 Q636 240 649 286 Q631 256 588.5 198.5 Q546 141 484 87 Q411 22 344 -5 Q292 -23 244 -23 Q163 -23 97 43.5 Q31 110 31 232 Q31 442 219 670 Q413 907 621 907 Z M892 1007 L723 1220 L444 1007 L363 1007 L685 1353 L785 1353 L965 1007 L892 1007 Z " />
<glyph glyph-name="adieresis" unicode="&#xe4;" horiz-adv-x="1024" d="M746 722 Q746 794 713 828 Q680 862 633 862 Q470 862 330 612 Q207 392 207 233 Q207 153 241.5 116.5 Q276 80 327 80 Q478 80 618 323 Q746 544 746 722 Z M621 907 Q700 907 743 866 Q766 844 779 808 L784 794 L806 870 Q810 883 813 887.5 Q816 892 827 893 L940 906 Q949 906 950.5 902.5 Q952 899 950 890 Q946 877 944 869.5 Q942 862 938 848 L846 490 Q816 373 795 288 Q758 134 758 112 Q758 98 765.5 91.5 Q773 85 784 85 Q793 85 803.5 91 Q814 97 829 109 L846 123 Q854 130 864 139.5 Q874 149 888 163 L950 227 L974 206 Q870 73 807 25.5 Q744 -22 687 -22 Q650 -22 629.5 4 Q609 30 609 69 Q609 105 622.5 172.5 Q636 240 649 286 Q631 256 588.5 198.5 Q546 141 484 87 Q411 22 344 -5 Q292 -23 244 -23 Q163 -23 97 43.5 Q31 110 31 232 Q31 442 219 670 Q413 907 621 907 Z M821 1142 Q821 1182 849.5 1212 Q878 1242 921 1242 Q961 1242 991.5 1212.5 Q1022 1183 1022 1142 Q1022 1099 992 1069.5 Q962 1040 921 1040 Q881 1040 851 1068.5 Q821 1097 821 1142 Z M510 1242 Q548 1242 579 1213.5 Q610 1185 610 1141 Q610 1101 580.5 1070.5 Q551 1040 510 1040 Q468 1040 438 1069.5 Q408 1099 408 1140 Q408 1183 438 1212.5 Q468 1242 510 1242 Z " />
<glyph glyph-name="atilde" unicode="&#xe3;" horiz-adv-x="1024" d="M746 722 Q746 794 713 828 Q680 862 633 862 Q470 862 330 612 Q207 392 207 233 Q207 153 241.5 116.5 Q276 80 327 80 Q478 80 618 323 Q746 544 746 722 Z M621 907 Q700 907 743 866 Q766 844 779 808 L784 794 L806 870 Q810 883 813 887.5 Q816 892 827 893 L940 906 Q949 906 950.5 902.5 Q952 899 950 890 Q946 877 944 869.5 Q942 862 938 848 L846 490 Q816 373 795 288 Q758 134 758 112 Q758 98 765.5 91.5 Q773 85 784 85 Q793 85 803.5 91 Q814 97 829 109 L846 123 Q854 130 864 139.5 Q874 149 888 163 L950 227 L974 206 Q870 73 807 25.5 Q744 -22 687 -22 Q650 -22 629.5 4 Q609 30 609 69 Q609 105 622.5 172.5 Q636 240 649 286 Q631 256 588.5 198.5 Q546 141 484 87 Q411 22 344 -5 Q292 -23 244 -23 Q163 -23 97 43.5 Q31 110 31 232 Q31 442 219 670 Q413 907 621 907 Z M394 1059 Q413 1153 461 1214 Q509 1275 595 1275 Q662 1275 763.5 1231 Q865 1187 901 1187 Q951 1187 977 1219 Q992 1237 1005 1277 L1065 1277 Q1048 1183 995.5 1123.5 Q943 1064 868 1064 Q841 1064 809.5 1073.5 Q778 1083 690 1116 L621 1142 Q605 1148 591 1151 Q577 1154 560 1154 Q512 1154 492 1131 Q472 1108 453 1059 L394 1059 Z " />
<glyph glyph-name="aring" unicode="&#xe5;" horiz-adv-x="1024" d="M746 722 Q746 794 713 828 Q680 862 633 862 Q470 862 330 612 Q207 392 207 233 Q207 153 241.5 116.5 Q276 80 327 80 Q478 80 618 323 Q746 544 746 722 Z M621 907 Q700 907 743 866 Q766 844 779 808 L784 794 L806 870 Q810 883 813 887.5 Q816 892 827 893 L940 906 Q949 906 950.5 902.5 Q952 899 950 890 Q946 877 944 869.5 Q942 862 938 848 L846 490 Q816 373 795 288 Q758 134 758 112 Q758 98 765.5 91.5 Q773 85 784 85 Q793 85 803.5 91 Q814 97 829 109 L846 123 Q854 130 864 139.5 Q874 149 888 163 L950 227 L974 206 Q870 73 807 25.5 Q744 -22 687 -22 Q650 -22 629.5 4 Q609 30 609 69 Q609 105 622.5 172.5 Q636 240 649 286 Q631 256 588.5 198.5 Q546 141 484 87 Q411 22 344 -5 Q292 -23 244 -23 Q163 -23 97 43.5 Q31 110 31 232 Q31 442 219 670 Q413 907 621 907 Z M580 1216 Q580 1163 617 1126.5 Q654 1090 706 1090 Q758 1090 794.5 1127 Q831 1164 831 1216 Q831 1268 794.5 1304.5 Q758 1341 706 1341 Q654 1341 617 1304.5 Q580 1268 580 1216 Z M497 1216 Q497 1302 558.5 1363 Q620 1424 706 1424 Q792 1424 853 1363 Q914 1302 914 1216 Q914 1129 853 1068 Q792 1007 706 1007 Q619 1007 558 1068 Q497 1129 497 1216 Z " />
<glyph glyph-name="ccedilla" unicode="&#xe7;" horiz-adv-x="909" d="M640 903 Q762 903 816 848 Q870 793 870 741 Q870 694 842 668 Q814 642 776 642 Q739 642 714 665 Q689 688 689 722 Q689 748 705.5 778 Q722 808 722 817 Q722 835 701.5 847.5 Q681 860 636 860 Q475 860 356.5 677 Q238 494 238 293 Q238 180 286 116 Q334 52 430 52 Q507 52 579.5 96.5 Q652 141 713 210 L720 218 L749 196 Q679 107 614 59 Q499 -24 359 -24 Q341 -24 324 -21 L248 -138 Q263 -134 272.5 -132.5 Q282 -131 297 -131 Q377 -131 421.5 -170 Q466 -209 466 -269 Q466 -354 395.5 -400 Q325 -446 217 -446 Q182 -446 124 -433.5 Q66 -421 30 -403 L65 -344 Q121 -363 144 -369 Q167 -375 200 -375 Q267 -375 297 -339 Q317 -316 317 -286 Q317 -249 293.5 -225.5 Q270 -202 221 -202 Q208 -202 194 -205 Q180 -208 153 -216 L134 -200 L258 -9 Q168 13 113.5 85 Q59 157 59 295 Q59 522 244 713 Q427 903 640 903 Z " />
<glyph glyph-name="eacute" unicode="&#xe9;" horiz-adv-x="909" d="M64 265 Q64 487 264 695 Q462 903 673 903 Q751 903 797 867 Q843 831 843 760 Q843 616 674.5 513.5 Q506 411 320 388 L263 381 Q250 340 245 315.5 Q240 291 240 254 Q240 166 297.5 117 Q355 68 434 68 Q509 68 593 118 Q641 147 732 222 L758 199 Q713 142 629 82 Q480 -25 330 -25 Q224 -25 144 50 Q64 125 64 265 Z M277 426 Q468 454 588 560.5 Q708 667 708 772 Q708 810 690 832.5 Q672 855 637 855 Q572 855 509.5 799.5 Q447 744 397 674 Q344 592 313 517 Q296 477 277 426 Z M978 1283 Q978 1261 967 1247.5 Q956 1234 942 1225 L592 1007 L520 1007 L852 1334 Q861 1343 876 1349 Q891 1355 905 1355 Q933 1355 955.5 1334.5 Q978 1314 978 1283 Z " />
<glyph glyph-name="egrave" unicode="&#xe8;" horiz-adv-x="909" d="M64 265 Q64 487 264 695 Q462 903 673 903 Q751 903 797 867 Q843 831 843 760 Q843 616 674.5 513.5 Q506 411 320 388 L263 381 Q250 340 245 315.5 Q240 291 240 254 Q240 166 297.5 117 Q355 68 434 68 Q509 68 593 118 Q641 147 732 222 L758 199 Q713 142 629 82 Q480 -25 330 -25 Q224 -25 144 50 Q64 125 64 265 Z M277 426 Q468 454 588 560.5 Q708 667 708 772 Q708 810 690 832.5 Q672 855 637 855 Q572 855 509.5 799.5 Q447 744 397 674 Q344 592 313 517 Q296 477 277 426 Z M475 1360 Q500 1360 518 1346 Q536 1332 551 1313 L788 1007 L727 1007 L440 1225 Q423 1238 411.5 1253 Q400 1268 400 1290 Q400 1319 420 1339.5 Q440 1360 475 1360 Z " />
<glyph glyph-name="ecircumflex" unicode="&#xea;" horiz-adv-x="909" d="M64 265 Q64 487 264 695 Q462 903 673 903 Q751 903 797 867 Q843 831 843 760 Q843 616 674.5 513.5 Q506 411 320 388 L263 381 Q250 340 245 315.5 Q240 291 240 254 Q240 166 297.5 117 Q355 68 434 68 Q509 68 593 118 Q641 147 732 222 L758 199 Q713 142 629 82 Q480 -25 330 -25 Q224 -25 144 50 Q64 125 64 265 Z M277 426 Q468 454 588 560.5 Q708 667 708 772 Q708 810 690 832.5 Q672 855 637 855 Q572 855 509.5 799.5 Q447 744 397 674 Q344 592 313 517 Q296 477 277 426 Z M855 1007 L686 1220 L407 1007 L326 1007 L648 1353 L748 1353 L928 1007 L855 1007 Z " />
<glyph glyph-name="edieresis" unicode="&#xeb;" horiz-adv-x="909" d="M64 265 Q64 487 264 695 Q462 903 673 903 Q751 903 797 867 Q843 831 843 760 Q843 616 674.5 513.5 Q506 411 320 388 L263 381 Q250 340 245 315.5 Q240 291 240 254 Q240 166 297.5 117 Q355 68 434 68 Q509 68 593 118 Q641 147 732 222 L758 199 Q713 142 629 82 Q480 -25 330 -25 Q224 -25 144 50 Q64 125 64 265 Z M277 426 Q468 454 588 560.5 Q708 667 708 772 Q708 810 690 832.5 Q672 855 637 855 Q572 855 509.5 799.5 Q447 744 397 674 Q344 592 313 517 Q296 477 277 426 Z M784 1142 Q784 1182 812.5 1212 Q841 1242 884 1242 Q924 1242 954.5 1212.5 Q985 1183 985 1142 Q985 1099 955 1069.5 Q925 1040 884 1040 Q844 1040 814 1068.5 Q784 1097 784 1142 Z M473 1242 Q511 1242 542 1213.5 Q573 1185 573 1141 Q573 1101 543.5 1070.5 Q514 1040 473 1040 Q431 1040 401 1069.5 Q371 1099 371 1140 Q371 1183 401 1212.5 Q431 1242 473 1242 Z " />
<glyph glyph-name="iacute" unicode="&#xed;" horiz-adv-x="569" d="M464.5 906.5 Q470 903 469 898 L267 184 Q253 127 253 116 Q253 101 259 90 Q264 78 284 78 Q318 78 374 137 Q407 172 455 237 L481 215 L471 201 Q396 96 347 50 Q270 -22 197 -22 Q154 -22 125.5 14 Q97 50 97 99 Q97 128 101 149.5 Q105 171 116 213 L256 727 Q259 739 261 749 Q263 759 263 769 Q263 805 236.5 813.5 Q210 822 132 822 L132 855 Q215 865 251.5 870.5 Q288 876 325 882 Q373 890 416 900 Q459 910 464.5 906.5 Z M746 1283 Q746 1261 735 1247.5 Q724 1234 710 1225 L360 1007 L288 1007 L620 1334 Q629 1343 644 1349 Q659 1355 673 1355 Q701 1355 723.5 1334.5 Q746 1314 746 1283 Z " />
<glyph glyph-name="igrave" unicode="&#xec;" horiz-adv-x="569" d="M464.5 906.5 Q470 903 469 898 L267 184 Q253 127 253 116 Q253 101 259 90 Q264 78 284 78 Q318 78 374 137 Q407 172 455 237 L481 215 L471 201 Q396 96 347 50 Q270 -22 197 -22 Q154 -22 125.5 14 Q97 50 97 99 Q97 128 101 149.5 Q105 171 116 213 L256 727 Q259 739 261 749 Q263 759 263 769 Q263 805 236.5 813.5 Q210 822 132 822 L132 855 Q215 865 251.5 870.5 Q288 876 325 882 Q373 890 416 900 Q459 910 464.5 906.5 Z M243 1360 Q268 1360 286 1346 Q304 1332 319 1313 L556 1007 L495 1007 L208 1225 Q191 1238 179.5 1253 Q168 1268 168 1290 Q168 1319 188 1339.5 Q208 1360 243 1360 Z " />
<glyph glyph-name="icircumflex" unicode="&#xee;" horiz-adv-x="569" d="M464.5 906.5 Q470 903 469 898 L267 184 Q253 127 253 116 Q253 101 259 90 Q264 78 284 78 Q318 78 374 137 Q407 172 455 237 L481 215 L471 201 Q396 96 347 50 Q270 -22 197 -22 Q154 -22 125.5 14 Q97 50 97 99 Q97 128 101 149.5 Q105 171 116 213 L256 727 Q259 739 261 749 Q263 759 263 769 Q263 805 236.5 813.5 Q210 822 132 822 L132 855 Q215 865 251.5 870.5 Q288 876 325 882 Q373 890 416 900 Q459 910 464.5 906.5 Z M623 1007 L454 1220 L175 1007 L94 1007 L416 1353 L516 1353 L696 1007 L623 1007 Z " />
<glyph glyph-name="idieresis" unicode="&#xef;" horiz-adv-x="569" d="M464.5 906.5 Q470 903 469 898 L267 184 Q253 127 253 116 Q253 101 259 90 Q264 78 284 78 Q318 78 374 137 Q407 172 455 237 L481 215 L471 201 Q396 96 347 50 Q270 -22 197 -22 Q154 -22 125.5 14 Q97 50 97 99 Q97 128 101 149.5 Q105 171 116 213 L256 727 Q259 739 261 749 Q263 759 263 769 Q263 805 236.5 813.5 Q210 822 132 822 L132 855 Q215 865 251.5 870.5 Q288 876 325 882 Q373 890 416 900 Q459 910 464.5 906.5 Z M552 1142 Q552 1182 580.5 1212 Q609 1242 652 1242 Q692 1242 722.5 1212.5 Q753 1183 753 1142 Q753 1099 723 1069.5 Q693 1040 652 1040 Q612 1040 582 1068.5 Q552 1097 552 1142 Z M241 1242 Q279 1242 310 1213.5 Q341 1185 341 1141 Q341 1101 311.5 1070.5 Q282 1040 241 1040 Q199 1040 169 1069.5 Q139 1099 139 1140 Q139 1183 169 1212.5 Q199 1242 241 1242 Z " />
<glyph glyph-name="ntilde" unicode="&#xf1;" horiz-adv-x="1024" d="M37 0 L210 618 Q232 696 235.5 712.5 Q239 729 239 748 Q239 777 222.5 793.5 Q206 810 158 810 Q146 810 134.5 808.5 Q123 807 109 805 L109 839 Q174 849 201.5 854 Q229 859 261 866 L440 905 Q446 901 448 896 L315 466 Q437 653 519 744 Q663 905 777 905 Q821 905 853 888 Q914 855 914 769 Q914 745 909 719 Q904 693 896 663 L765 184 Q761 169 756 147.5 Q751 126 751 117 Q751 102 758 90 Q765 78 781 78 Q807 78 841 108.5 Q875 139 952 239 L981 213 Q899 102 851 57 Q769 -22 694 -22 Q660 -22 628.5 0.5 Q597 23 597 82 Q597 99 599.5 118 Q602 137 606 151 L732 637 Q742 677 745.5 702.5 Q749 728 749 739 Q749 763 737.5 780.5 Q726 798 697 798 Q622 798 508 662 Q441 581 372 469 Q319 382 288.5 299.5 Q258 217 192 0 L37 0 Z M328 1059 Q347 1153 395 1214 Q443 1275 529 1275 Q596 1275 697.5 1231 Q799 1187 835 1187 Q885 1187 911 1219 Q926 1237 939 1277 L999 1277 Q982 1183 929.5 1123.5 Q877 1064 802 1064 Q775 1064 743.5 1073.5 Q712 1083 624 1116 L555 1142 Q539 1148 525 1151 Q511 1154 494 1154 Q446 1154 426 1131 Q406 1108 387 1059 L328 1059 Z " />
<glyph glyph-name="oacute" unicode="&#xf3;" horiz-adv-x="1024" d="M227 215 Q227 132 268.5 77.5 Q310 23 390 23 Q553 23 679 269 Q786 480 786 657 Q786 732 768 778 Q733 865 640 865 Q487 865 353 636 Q227 422 227 215 Z M651 907 Q819 907 888 817.5 Q957 728 957 606 Q957 394 770 190 Q577 -22 358 -22 Q220 -22 137 58 Q54 138 54 283 Q54 502 240 702 Q430 907 651 907 Z M1011 1283 Q1011 1261 1000 1247.5 Q989 1234 975 1225 L625 1007 L553 1007 L885 1334 Q894 1343 909 1349 Q924 1355 938 1355 Q966 1355 988.5 1334.5 Q1011 1314 1011 1283 Z " />
<glyph glyph-name="ograve" unicode="&#xf2;" horiz-adv-x="1024" d="M227 215 Q227 132 268.5 77.5 Q310 23 390 23 Q553 23 679 269 Q786 480 786 657 Q786 732 768 778 Q733 865 640 865 Q487 865 353 636 Q227 422 227 215 Z M651 907 Q819 907 888 817.5 Q957 728 957 606 Q957 394 770 190 Q577 -22 358 -22 Q220 -22 137 58 Q54 138 54 283 Q54 502 240 702 Q430 907 651 907 Z M508 1360 Q533 1360 551 1346 Q569 1332 584 1313 L821 1007 L760 1007 L473 1225 Q456 1238 444.5 1253 Q433 1268 433 1290 Q433 1319 453 1339.5 Q473 1360 508 1360 Z " />
<glyph glyph-name="ocircumflex" unicode="&#xf4;" horiz-adv-x="1024" d="M227 215 Q227 132 268.5 77.5 Q310 23 390 23 Q553 23 679 269 Q786 480 786 657 Q786 732 768 778 Q733 865 640 865 Q487 865 353 636 Q227 422 227 215 Z M651 907 Q819 907 888 817.5 Q957 728 957 606 Q957 394 770 190 Q577 -22 358 -22 Q220 -22 137 58 Q54 138 54 283 Q54 502 240 702 Q430 907 651 907 Z M888 1007 L719 1220 L440 1007 L359 1007 L681 1353 L781 1353 L961 1007 L888 1007 Z " />
<glyph glyph-name="odieresis" unicode="&#xf6;" horiz-adv-x="1024" d="M227 215 Q227 132 268.5 77.5 Q310 23 390 23 Q553 23 679 269 Q786 480 786 657 Q786 732 768 778 Q733 865 640 865 Q487 865 353 636 Q227 422 227 215 Z M651 907 Q819 907 888 817.5 Q957 728 957 606 Q957 394 770 190 Q577 -22 358 -22 Q220 -22 137 58 Q54 138 54 283 Q54 502 240 702 Q430 907 651 907 Z M817 1142 Q817 1182 845.5 1212 Q874 1242 917 1242 Q957 1242 987.5 1212.5 Q1018 1183 1018 1142 Q1018 1099 988 1069.5 Q958 1040 917 1040 Q877 1040 847 1068.5 Q817 1097 817 1142 Z M506 1242 Q544 1242 575 1213.5 Q606 1185 606 1141 Q606 1101 576.5 1070.5 Q547 1040 506 1040 Q464 1040 434 1069.5 Q404 1099 404 1140 Q404 1183 434 1212.5 Q464 1242 506 1242 Z " />
<glyph glyph-name="otilde" unicode="&#xf5;" horiz-adv-x="1024" d="M227 215 Q227 132 268.5 77.5 Q310 23 390 23 Q553 23 679 269 Q786 480 786 657 Q786 732 768 778 Q733 865 640 865 Q487 865 353 636 Q227 422 227 215 Z M651 907 Q819 907 888 817.5 Q957 728 957 606 Q957 394 770 190 Q577 -22 358 -22 Q220 -22 137 58 Q54 138 54 283 Q54 502 240 702 Q430 907 651 907 Z M390 1059 Q409 1153 457 1214 Q505 1275 591 1275 Q658 1275 759.5 1231 Q861 1187 897 1187 Q947 1187 973 1219 Q988 1237 1001 1277 L1061 1277 Q1044 1183 991.5 1123.5 Q939 1064 864 1064 Q837 1064 805.5 1073.5 Q774 1083 686 1116 L617 1142 Q601 1148 587 1151 Q573 1154 556 1154 Q508 1154 488 1131 Q468 1108 449 1059 L390 1059 Z " />
<glyph glyph-name="uacute" unicode="&#xfa;" horiz-adv-x="1024" d="M234 722 Q236 732 237.5 740.5 Q239 749 239 758 Q239 801 213.5 810.5 Q188 820 118 820 L118 848 L265 877 L424 907 Q429 908 433 903 Q437 898 436 893 L433 879 L256 199 Q249 174 246 160 Q243 146 243 140 Q243 117 256 104 Q269 91 290 91 Q349 91 437.5 196 Q526 301 595 414 Q657 515 709 639 Q741 716 801 884 L952 884 L763 175 Q758 155 754 138 Q750 121 750 110 Q750 97 756 87.5 Q762 78 777 78 Q792 78 808 89.5 Q824 101 848 125 Q859 136 888 172 Q906 194 943 239 L971 220 Q925 144 875 89 Q776 -22 691 -22 Q647 -22 619 2 Q591 26 591 77 Q591 103 596 134 Q601 165 612 204 Q630 274 658 379 L680 464 L673 464 Q535 235 456 140 Q319 -23 197 -23 Q164 -23 137 -9 Q85 19 85 91 Q85 112 87 125 Q89 138 94 161 L234 722 Z M1025 1283 Q1025 1261 1014 1247.5 Q1003 1234 989 1225 L639 1007 L567 1007 L899 1334 Q908 1343 923 1349 Q938 1355 952 1355 Q980 1355 1002.5 1334.5 Q1025 1314 1025 1283 Z " />
<glyph glyph-name="ugrave" unicode="&#xf9;" horiz-adv-x="1024" d="M234 722 Q236 732 237.5 740.5 Q239 749 239 758 Q239 801 213.5 810.5 Q188 820 118 820 L118 848 L265 877 L424 907 Q429 908 433 903 Q437 898 436 893 L433 879 L256 199 Q249 174 246 160 Q243 146 243 140 Q243 117 256 104 Q269 91 290 91 Q349 91 437.5 196 Q526 301 595 414 Q657 515 709 639 Q741 716 801 884 L952 884 L763 175 Q758 155 754 138 Q750 121 750 110 Q750 97 756 87.5 Q762 78 777 78 Q792 78 808 89.5 Q824 101 848 125 Q859 136 888 172 Q906 194 943 239 L971 220 Q925 144 875 89 Q776 -22 691 -22 Q647 -22 619 2 Q591 26 591 77 Q591 103 596 134 Q601 165 612 204 Q630 274 658 379 L680 464 L673 464 Q535 235 456 140 Q319 -23 197 -23 Q164 -23 137 -9 Q85 19 85 91 Q85 112 87 125 Q89 138 94 161 L234 722 Z M522 1360 Q547 1360 565 1346 Q583 1332 598 1313 L835 1007 L774 1007 L487 1225 Q470 1238 458.5 1253 Q447 1268 447 1290 Q447 1319 467 1339.5 Q487 1360 522 1360 Z " />
<glyph glyph-name="ucircumflex" unicode="&#xfb;" horiz-adv-x="1024" d="M234 722 Q236 732 237.5 740.5 Q239 749 239 758 Q239 801 213.5 810.5 Q188 820 118 820 L118 848 L265 877 L424 907 Q429 908 433 903 Q437 898 436 893 L433 879 L256 199 Q249 174 246 160 Q243 146 243 140 Q243 117 256 104 Q269 91 290 91 Q349 91 437.5 196 Q526 301 595 414 Q657 515 709 639 Q741 716 801 884 L952 884 L763 175 Q758 155 754 138 Q750 121 750 110 Q750 97 756 87.5 Q762 78 777 78 Q792 78 808 89.5 Q824 101 848 125 Q859 136 888 172 Q906 194 943 239 L971 220 Q925 144 875 89 Q776 -22 691 -22 Q647 -22 619 2 Q591 26 591 77 Q591 103 596 134 Q601 165 612 204 Q630 274 658 379 L680 464 L673 464 Q535 235 456 140 Q319 -23 197 -23 Q164 -23 137 -9 Q85 19 85 91 Q85 112 87 125 Q89 138 94 161 L234 722 Z M847 1007 L678 1220 L399 1007 L318 1007 L640 1353 L740 1353 L920 1007 L847 1007 Z " />
<glyph glyph-name="udieresis" unicode="&#xfc;" horiz-adv-x="1024" d="M234 722 Q236 732 237.5 740.5 Q239 749 239 758 Q239 801 213.5 810.5 Q188 820 118 820 L118 848 L265 877 L424 907 Q429 908 433 903 Q437 898 436 893 L433 879 L256 199 Q249 174 246 160 Q243 146 243 140 Q243 117 256 104 Q269 91 290 91 Q349 91 437.5 196 Q526 301 595 414 Q657 515 709 639 Q741 716 801 884 L952 884 L763 175 Q758 155 754 138 Q750 121 750 110 Q750 97 756 87.5 Q762 78 777 78 Q792 78 808 89.5 Q824 101 848 125 Q859 136 888 172 Q906 194 943 239 L971 220 Q925 144 875 89 Q776 -22 691 -22 Q647 -22 619 2 Q591 26 591 77 Q591 103 596 134 Q601 165 612 204 Q630 274 658 379 L680 464 L673 464 Q535 235 456 140 Q319 -23 197 -23 Q164 -23 137 -9 Q85 19 85 91 Q85 112 87 125 Q89 138 94 161 L234 722 Z M756 1142 Q756 1182 784.5 1212 Q813 1242 856 1242 Q896 1242 926.5 1212.5 Q957 1183 957 1142 Q957 1099 927 1069.5 Q897 1040 856 1040 Q816 1040 786 1068.5 Q756 1097 756 1142 Z M445 1242 Q483 1242 514 1213.5 Q545 1185 545 1141 Q545 1101 515.5 1070.5 Q486 1040 445 1040 Q403 1040 373 1069.5 Q343 1099 343 1140 Q343 1183 373 1212.5 Q403 1242 445 1242 Z " />
<glyph glyph-name="dagger" unicode="&#x2020;" horiz-adv-x="1024" d="M630 530 Q588 469 536 331.5 Q484 194 464 106 L367 -325 L322 -325 Q394 42 412.5 166.5 Q431 291 431 436 Q431 447 430 469 Q429 491 421 538 Q448 561 497.5 639 Q547 717 573 874 Q467 872 399.5 841.5 Q332 811 293 811 Q246 811 224.5 837.5 Q203 864 203 894 Q203 924 225.5 952.5 Q248 981 290 981 Q326 981 396 950 Q466 919 583 917 Q596 985 600 1012.5 Q604 1040 604 1070 Q604 1088 603 1106.5 Q602 1125 599 1142 L592 1189 Q587 1221 586 1231.5 Q585 1242 585 1249 Q585 1306 614.5 1335.5 Q644 1365 683 1365 Q721 1365 744.5 1340 Q768 1315 768 1273 Q768 1250 759 1225 Q750 1200 737 1178 L696 1111 Q668 1065 656 1033 Q644 1001 623 917 Q718 915 798.5 948 Q879 981 910 981 Q952 981 978 957 Q1004 933 1004 898 Q1004 855 974.5 832.5 Q945 810 903 810 Q875 810 809.5 839.5 Q744 869 616 874 Q606 836 601 783.5 Q596 731 596 689 Q596 659 600 638 Q604 617 623 547 L630 530 Z " />
<glyph glyph-name="degree" unicode="&#xb0;" horiz-adv-x="819" d="M362 1095 Q362 1013 420.5 954.5 Q479 896 561 896 Q644 896 702 954.5 Q760 1013 760 1095 Q760 1178 702 1236 Q644 1294 561 1294 Q479 1294 420.5 1236 Q362 1178 362 1095 Z M270 1095 Q270 1216 355 1301 Q440 1386 561 1386 Q682 1386 767.5 1301 Q853 1216 853 1095 Q853 974 767.5 888.5 Q682 803 561 803 Q440 803 355 888.5 Q270 974 270 1095 Z " />
<glyph glyph-name="cent" unicode="&#xa2;" horiz-adv-x="1024" d="M685 858 Q555 832 445.5 644 Q336 456 336 297 Q336 208 364 150 Q379 118 412 85 L685 858 Z M786 1147 L848 1147 L763 903 Q847 893 907.5 852 Q968 811 968 743 Q968 697 940.5 669.5 Q913 642 874 642 Q838 642 812 666 Q786 690 786 722 Q786 741 803 774.5 Q820 808 820 819 Q820 838 800 848.5 Q780 859 746 860 L466 56 Q486 54 497.5 53 Q509 52 521 52 Q583 52 640 77 Q727 115 810 210 L817 218 L846 196 Q743 52 603 2 Q528 -26 436 -24 L343 -294 L279 -294 L379 -15 Q291 13 243 57 Q155 138 155 288 Q155 473 282 646 Q436 856 701 903 L786 1147 Z " />
<glyph glyph-name="sterling" unicode="&#xa3;" horiz-adv-x="1024" d="M162 33 Q211 33 248.5 72 Q286 111 298 149 Q268 173 238 187 Q208 201 174 201 Q125 201 95 173.5 Q65 146 65 107 Q65 79 87 56 Q109 33 162 33 Z M206 258 Q239 258 264 252.5 Q289 247 327 234 L374 618 Q375 626 376 634 Q377 642 379 654 L146 654 L165 739 L391 739 Q422 960 518 1129 Q587 1251 675.5 1311.5 Q764 1372 873 1372 Q955 1372 1007.5 1326.5 Q1060 1281 1060 1219 Q1060 1166 1035.5 1149.5 Q1011 1133 979 1133 Q937 1133 922.5 1156.5 Q908 1180 903 1216 L900 1239 Q896 1270 882 1292 Q867 1313 823 1313 Q728 1313 685.5 1202 Q643 1091 573 739 L824 739 L810 654 L552 654 Q518 500 495 429 Q472 358 402 213 Q439 196 518 172 Q641 135 715 135 Q771 135 813 147.5 Q855 160 893 189 L912 203 L936 187 Q915 126 841 55 Q767 -16 647 -16 Q570 -16 492 23 Q443 48 350 116 Q286 42 256 19 Q210 -15 154 -15 Q101 -15 60.5 19.5 Q20 54 20 108 Q20 172 68.5 215 Q117 258 206 258 Z " />
<glyph glyph-name="section" unicode="&#xa7;" horiz-adv-x="1024" d="M636 251 Q683 251 727.5 288.5 Q772 326 772 396 Q772 491 657.5 641.5 Q543 792 444 792 Q373 792 337 753 Q301 714 301 655 Q301 560 424 405.5 Q547 251 636 251 Z M109 -117 Q109 -55 146 -24 Q183 7 225 7 Q263 7 291 -20 Q319 -47 319 -85 Q319 -123 303.5 -144 Q288 -165 270 -176 L251 -188 Q244 -192 238.5 -198.5 Q233 -205 233 -216 Q233 -243 277.5 -266.5 Q322 -290 384 -290 Q456 -290 521.5 -245 Q587 -200 587 -107 Q587 -57 565 -12.5 Q543 32 485 97 L329 274 Q271 340 227.5 423 Q184 506 184 585 Q184 682 244 760.5 Q304 839 407 839 Q441 839 464.5 832.5 Q488 826 509 817 L514 822 Q444 914 419 960 Q377 1036 377 1108 Q377 1219 463.5 1293 Q550 1367 676 1367 Q795 1367 869.5 1307.5 Q944 1248 944 1164 Q944 1121 915.5 1085.5 Q887 1050 837 1050 Q807 1050 773 1072 Q743 1095 743 1132 Q743 1153 750.5 1174 Q758 1195 783 1217 Q803 1235 807 1241.5 Q811 1248 811 1259 Q811 1290 775 1307.5 Q739 1325 691 1325 Q613 1325 556 1276.5 Q499 1228 499 1151 Q499 1121 508 1091 Q521 1045 573 983 L768 745 Q846 649 868.5 587 Q891 525 891 458 Q891 362 829.5 284 Q768 206 657 206 Q634 206 617.5 209.5 Q601 213 580 220 L578 215 Q654 116 680 66 Q706 16 706 -59 Q706 -174 612 -253 Q518 -332 389 -332 Q263 -332 186 -265.5 Q109 -199 109 -117 Z " />
<glyph glyph-name="bullet" unicode="&#x2022;" horiz-adv-x="717" d="M353 386 Q231 386 146 472 Q61 558 61 680 Q61 801 146.5 886 Q232 971 353 971 Q474 971 558 886 Q642 801 642 680 Q642 558 557 472 Q472 386 353 386 Z " />
<glyph glyph-name="paragraph" unicode="&#xb6;" horiz-adv-x="1071" d="M791 1325 Q747 1297 719 1240 Q672 1144 632 929 L521 329 Q462 11 425 -95.5 Q388 -202 293 -266 L301 -275 Q490 -209 579 -49 Q632 49 670 253 L777 834 Q834 1145 890 1255 Q946 1364 1047 1364 Q1092 1364 1124 1333 Q1156 1302 1156 1264 Q1156 1249 1145.5 1220.5 Q1135 1192 1128 1180 L1090 1197 Q1097 1210 1099.5 1218 Q1102 1226 1102 1239 Q1102 1266 1086 1277 Q1069 1287 1057 1287 Q1019 1287 990 1231 Q961 1174 933 1054 Q916 983 891.5 864.5 Q867 746 858 699 L775 232 Q716 -103 485 -242 Q359 -317 238 -317 Q143 -317 98 -280 Q53 -243 53 -197 Q53 -155 80 -130 Q107 -105 143 -105 Q183 -105 209.5 -132 Q236 -159 236 -196 Q236 -225 227 -241 Q218 -257 203 -271 Q300 -259 364 -128 Q405 -42 426 80 L512 566 Q332 566 232 645 Q132 724 132 877 Q132 974 175 1067 Q218 1160 291 1224 Q371 1293 481 1317 Q548 1331 696 1336 L789 1339 L791 1325 Z " />
<glyph glyph-name="germandbls" unicode="&#xdf;" horiz-adv-x="1024" d="M-185 -287 Q-185 -302 -189.5 -314 Q-194 -326 -203 -339 Q-207 -346 -209 -356 Q-209 -368 -198 -372.5 Q-187 -377 -172 -377 Q-88 -377 -41 -284 Q6 -192 47 -10 L194 644 L219 740 Q292 1029 378 1171 Q512 1391 727 1391 Q854 1391 931.5 1316 Q1009 1241 1009 1127 Q1009 983 878 883 Q797 821 692 791 L675 786 L675 779 Q784 774 856.5 694 Q929 614 929 481 Q929 321 806 146 Q683 -29 494 -29 Q412 -29 369.5 15.5 Q327 60 327 110 Q327 157 354 181.5 Q381 206 415 206 Q447 206 472 184 Q497 162 497 127 Q497 109 494 99 Q491 89 484 73 Q479 64 476.5 57 Q474 50 474 43 Q474 29 485.5 23.5 Q497 18 515 18 Q618 18 684.5 192.5 Q751 367 751 513 Q751 648 709 701 Q667 753 590 756 Q558 757 544.5 761.5 Q531 766 531 784 Q531 800 541 804.5 Q551 809 592 815 Q752 836 814 997 Q846 1079 846 1174 Q846 1230 831 1269 Q801 1344 722 1344 Q604 1344 512 1156 Q462 1055 421 896 L194 23 Q169 -75 123.5 -167.5 Q78 -260 39 -310 Q-17 -381 -72.5 -404.5 Q-128 -428 -187 -428 Q-274 -428 -311.5 -385 Q-349 -342 -349 -300 Q-349 -255 -320.5 -233 Q-292 -211 -262 -211 Q-235 -211 -210 -231.5 Q-185 -252 -185 -287 Z " />
<glyph glyph-name="registered" unicode="&#xae;" horiz-adv-x="1556" d="M295 322 Q377 322 408 332.5 Q439 343 449 391 L576 988 Q585 1031 558.5 1044 Q532 1057 452 1057 L462 1104 L865 1104 Q1018 1104 1101 1048 Q1184 992 1163 893 Q1145 811 1057.5 756.5 Q970 702 840 689 L839 682 Q979 634 988.5 478.5 Q998 323 1027 323 Q1064 323 1088 363 Q1104 390 1130 471 L1180 471 Q1154 381 1122 338 Q1063 260 961 260 Q864 260 845 323 Q832 363 850 481 Q868 603 828.5 638 Q789 673 646 670 L587 391 Q577 343 613 330 Q636 321 712 322 L702 274 L285 274 L295 322 Z M231 236 Q376 52 636 52 Q896 52 1119 236 Q1342 420 1398 680 Q1453 940 1308 1124 Q1163 1308 903 1308 Q643 1308 420 1124 Q197 940 142 680 Q86 420 231 236 Z M377 1178 Q627 1384 919 1384 Q1211 1384 1373 1178 Q1536 972 1474 680 Q1411 388 1162 182 Q912 -24 620 -24 Q328 -24 166 182 Q3 388 66 680 Q128 972 377 1178 Z M876 740 Q970 775 995 895 Q1012 972 975.5 1014.5 Q939 1057 840 1057 Q789 1057 756 1043.5 Q723 1030 714 988 L657 718 Q819 718 876 740 Z " />
<glyph glyph-name="copyright" unicode="&#xa9;" horiz-adv-x="1556" d="M231 236 Q376 52 636 52 Q896 52 1119 236 Q1342 420 1398 680 Q1453 940 1308 1124 Q1163 1308 903 1308 Q643 1308 420 1124 Q197 940 142 680 Q86 420 231 236 Z M377 1178 Q627 1384 919 1384 Q1211 1384 1373 1178 Q1536 972 1474 680 Q1411 388 1162 182 Q912 -24 620 -24 Q328 -24 166 182 Q3 388 66 680 Q128 972 377 1178 Z M853 1142 Q899 1142 940.5 1131 Q982 1120 1017 1097 L1046 1078 Q1056 1072 1063 1069 Q1070 1066 1079 1066 Q1101 1066 1112 1080 Q1123 1094 1141 1135 L1183 1135 L1118 791 L1070 791 Q1071 947 1013 1021 Q955 1095 853 1095 Q748 1095 656 997.5 Q564 900 520 693 Q492 558 527 438.5 Q562 319 712 319 Q819 319 914 390 Q969 431 1032 509 L1069 485 Q1003 398 935 347 Q811 253 667 253 Q497 253 403.5 378 Q310 503 352 699 Q393 893 535.5 1017.5 Q678 1142 853 1142 Z " />
<glyph glyph-name="trademark" unicode="&#x2122;" horiz-adv-x="2007" d="M156 1355 L725 1355 L689 1097 L653 1097 Q658 1236 608 1284 Q578 1313 494 1320 L373 749 Q363 705 383 690.5 Q403 676 469 675 L461 639 L117 639 L125 675 Q187 677 214.5 690 Q242 703 252 749 L373 1320 Q277 1311 230 1273 Q168 1229 120 1097 L84 1097 L156 1355 Z M687 675 Q750 685 775 702 Q800 719 812 775 L912 1246 Q923 1295 906.5 1307 Q890 1319 824 1320 L832 1355 L1071 1355 L1149 829 L1438 1355 L1666 1355 L1658 1320 Q1593 1317 1575.5 1305.5 Q1558 1294 1547 1246 L1442 749 Q1432 704 1449 691.5 Q1466 679 1521 675 L1513 639 L1200 639 L1208 675 Q1271 678 1290.5 694 Q1310 710 1319 749 L1424 1246 L1086 639 L1053 639 L959 1284 L850 772 Q837 714 859 697 Q881 680 943 675 L935 639 L679 639 L687 675 Z " />
<glyph glyph-name="acute" unicode="&#xb4;" horiz-adv-x="682" d="M770 1283 Q770 1261 759 1247.5 Q748 1234 734 1225 L384 1007 L312 1007 L644 1334 Q653 1343 668 1349 Q683 1355 697 1355 Q725 1355 747.5 1334.5 Q770 1314 770 1283 Z " />
<glyph glyph-name="dieresis" unicode="&#xa8;" horiz-adv-x="682" d="M576 1142 Q576 1182 604.5 1212 Q633 1242 676 1242 Q716 1242 746.5 1212.5 Q777 1183 777 1142 Q777 1099 747 1069.5 Q717 1040 676 1040 Q636 1040 606 1068.5 Q576 1097 576 1142 Z M265 1242 Q303 1242 334 1213.5 Q365 1185 365 1141 Q365 1101 335.5 1070.5 Q306 1040 265 1040 Q223 1040 193 1069.5 Q163 1099 163 1140 Q163 1183 193 1212.5 Q223 1242 265 1242 Z " />
<glyph glyph-name="AE" unicode="&#xc6;" horiz-adv-x="1821" d="M1052 1230 L1040 1230 L509 554 L865 554 L1052 1230 Z M-57 33 Q-28 38 -7.5 52 Q13 66 59 119 Q89 153 120 190.5 Q151 228 187 274 L919 1199 Q927 1210 932.5 1222.5 Q938 1235 938 1246 Q938 1284 899 1295 Q876 1302 805 1303 L805 1339 L1865 1339 L1799 1024 L1763 1028 Q1764 1047 1764.5 1058 Q1765 1069 1765 1089 Q1765 1198 1708 1235 Q1651 1272 1397 1272 Q1302 1272 1279 1258.5 Q1256 1245 1242 1194 L1118 744 Q1360 744 1422.5 770.5 Q1485 797 1547 938 L1585 929 L1443 455 L1408 462 Q1410 474 1416 516.5 Q1422 559 1422 564 Q1422 632 1371 655 Q1341 669 1272 670 L1097 673 L962 182 Q958 166 955 152.5 Q952 139 952 129 Q952 96 977.5 82 Q1003 68 1042 68 L1159 68 Q1358 68 1478 133 Q1598 198 1692 346 L1728 336 L1597 0 L578 0 L578 35 Q660 36 693 56 Q726 76 741 130 L841 478 L452 478 Q381 395 288.5 267.5 Q196 140 196 103 Q196 62 238 47 Q263 38 327 35 L327 0 L-57 0 L-57 33 Z " />
<glyph glyph-name="Oslash" unicode="&#xd8;" horiz-adv-x="1479" d="M1116 1237 Q1080 1260 1053 1271 Q1006 1289 948 1289 Q673 1289 485 913 Q336 614 336 369 Q336 329 343 286 Q356 211 388 149 L1116 1237 Z M963 1362 Q1014 1362 1069 1352 Q1124 1342 1173 1320 L1280 1479 L1370 1479 L1239 1282 Q1350 1197 1390.5 1093.5 Q1431 990 1431 865 Q1431 529 1153 242 Q885 -35 596 -35 Q536 -35 497.5 -26.5 Q459 -18 381 7 L232 -219 L142 -219 L315 45 Q234 104 177 203 Q120 302 120 447 Q120 782 382 1070 Q647 1362 963 1362 Z M612 34 Q870 34 1057 378 Q1217 673 1217 954 Q1217 1005 1209 1052 Q1197 1126 1168 1178 L438 90 Q467 66 517.5 50 Q568 34 612 34 Z " />
<glyph glyph-name="infinity" unicode="&#x221e;" horiz-adv-x="1460" d="M1314 665 Q1337 775 1283.5 855.5 Q1230 936 1136 936 Q1077 936 1024 906 Q993 888 958 855 Q901 802 830.5 708.5 Q760 615 758 604 Q756 594 778 545 Q800 496 832 466 Q863 439 902.5 425 Q942 411 989 411 Q1094 411 1192.5 483.5 Q1291 556 1314 665 Z M456 910 Q331 910 248 835.5 Q165 761 143 656 Q119 546 171 468.5 Q223 391 312 391 Q389 391 452 429 Q488 452 533 500 Q567 536 631 617.5 Q695 699 698 713 Q705 745 641 827.5 Q577 910 456 910 Z M1352 656 Q1323 522 1211 406.5 Q1099 291 975 291 Q865 291 806.5 363.5 Q748 436 730 564 Q655 454 591 397 Q471 291 340 291 Q194 291 132.5 406.5 Q71 522 99 650 Q135 820 244 923.5 Q353 1027 483 1027 Q636 1027 706 841 L731 756 Q815 873 877 928 Q933 978 992 1002.5 Q1051 1027 1112 1027 Q1268 1027 1325 913 Q1382 799 1352 656 Z " />
<glyph glyph-name="plusminus" unicode="&#xb1;" horiz-adv-x="1124" d="M1120 118 L1094 0 L67 0 L93 118 L1120 118 Z M564 203 L638 554 L185 554 L210 670 L663 670 L739 1026 L860 1026 L784 670 L1237 670 L1212 554 L759 554 L685 203 L564 203 Z " />
<glyph glyph-name="lessequal" unicode="&#x2264;" horiz-adv-x="1124" d="M1011 206 L63 602 L74 656 L1191 1052 L1163 920 L325 630 L1039 337 L1011 206 Z M-64 0 L-39 121 L993 121 L968 0 L-64 0 Z " />
<glyph glyph-name="greaterequal" unicode="&#x2265;" horiz-adv-x="1124" d="M-44 121 L989 121 L964 0 L-69 0 L-44 121 Z M-26 206 L1 337 L842 630 L125 920 L153 1052 L1103 656 L1092 602 L-26 206 Z " />
<glyph glyph-name="yen" unicode="&#xa5;" horiz-adv-x="1024" d="M571 1355 L566 1317 Q500 1318 472.5 1299.5 Q445 1281 445 1228 Q445 1213 448.5 1198 Q452 1183 457 1166 L606 711 L896 1173 Q902 1182 915.5 1214.5 Q929 1247 929 1257 Q929 1296 905.5 1306 Q882 1316 836 1317 L841 1355 L1168 1355 L1163 1317 Q1104 1315 1051.5 1258 Q999 1201 926 1083 L756 808 L960 808 L943 746 L718 746 L637 621 L611 533 L867 533 L850 471 L594 471 L528 222 Q522 199 518.5 172.5 Q515 146 515 129 Q515 73 554 54 Q579 42 651 37 L647 0 L161 0 L165 37 Q268 45 292 71.5 Q316 98 357 246 L419 471 L156 471 L173 533 L433 533 L452 613 L414 746 L180 746 L196 808 L398 808 L336 995 Q307 1081 293 1121 Q269 1185 245 1237 Q222 1284 197 1299.5 Q172 1315 146 1317 L151 1355 L571 1355 Z " />
<glyph glyph-name="mu" unicode="&#xb5;" horiz-adv-x="1180" d="M-150 -389 Q-77 -388 -48 -348.5 Q-19 -309 17 -162 Q31 -103 43 -51 Q65 46 94 161 L234 722 Q236 732 237.5 740.5 Q239 749 239 758 Q239 801 213.5 810.5 Q188 820 118 820 L118 848 L265 877 L424 907 Q429 908 433 903 Q437 898 436 893 L433 879 L248 164 Q246 155 245 149.5 Q244 144 244 133 Q244 113 255 102 Q266 91 288 91 Q348 91 435.5 194.5 Q523 298 595 414 Q657 515 709 639 Q741 716 801 884 L952 884 L763 175 Q758 155 754 138 Q750 121 750 110 Q750 93 758.5 85.5 Q767 78 777 78 Q792 78 808 89.5 Q824 101 848 125 Q859 136 888 172 Q906 194 943 239 L971 220 Q925 144 875 89 Q776 -22 691 -22 Q647 -22 619 2 Q591 26 591 77 Q591 114 606 181 Q621 248 658 379 L682 464 L673 466 Q603 343 526 226 Q360 -18 262 -18 Q243 -18 228.5 -13 Q214 -8 201 4 L94 -422 L-157 -422 L-150 -389 Z " />
<glyph glyph-name="product" unicode="&#x220f;" horiz-adv-x="1686" d="M805 -250 L813 -210 Q963 -210 1008.5 -167.5 Q1054 -125 1084 15 L1329 1166 Q1343 1231 1322 1250.5 Q1301 1270 1218 1270 L791 1270 Q709 1270 680 1251 Q651 1232 637 1166 L392 15 Q362 -125 387.5 -167.5 Q413 -210 567 -210 L559 -250 L-83 -250 L-75 -210 Q56 -210 102 -167.5 Q148 -125 178 15 L409 1102 Q439 1241 410.5 1278 Q382 1315 254 1315 L262 1355 L1781 1355 L1773 1315 Q1646 1315 1602 1277.5 Q1558 1240 1528 1102 L1297 15 Q1267 -125 1295 -167.5 Q1323 -210 1453 -210 L1445 -250 L805 -250 Z " />
<glyph glyph-name="pi" unicode="&#x3c0;" horiz-adv-x="1124" d="M96 295 Q92 260 92 229 Q94 143 168 143 Q248 143 307 244 Q365 344 422 555 L491 799 L336 799 Q283 799 242 782 Q201 762 180 698 L129 698 Q152 803 215 872 Q276 940 383 942 Q543 942 735 938 Q928 932 1104 932 Q1141 932 1175 946 Q1208 958 1218 995 L1270 995 Q1270 924 1218 858 Q1192 827 1149 809 Q1104 788 1042 788 L997 788 L858 238 Q846 188 846 127 Q846 106 860 86 Q874 61 907 61 Q938 61 973 88 Q1003 115 1032 152 Q1089 229 1116 281 L1157 262 Q1110 164 1038 76 Q1001 35 954 8 Q905 -20 844 -20 Q684 -16 682 143 Q684 229 704 287 L833 799 L545 799 L442 434 Q379 197 307 88 Q236 -20 131 -20 Q72 -18 47 29 Q25 72 25 125 Q25 201 49 295 L96 295 Z " />
<glyph glyph-name="ordfeminine" unicode="&#xaa;" horiz-adv-x="565" d="M479 1327 Q388 1327 302 1191.5 Q216 1056 216 944 Q216 909 235 887 Q254 865 286 865 Q382 865 471.5 1002.5 Q561 1140 561 1246 Q561 1285 537 1306 Q513 1327 479 1327 Z M601 1340 Q604 1347 607 1349.5 Q610 1352 621 1353 L701 1362 L706 1358 Q695 1325 687 1299 L587 931 Q584 916 581.5 904.5 Q579 893 579 887 Q579 877 584 871 Q589 865 597 865 Q610 865 630 882 Q650 899 689 938 L701 950 L718 933 Q663 868 631 842 Q576 796 526 796 Q502 796 488 809 Q474 822 472 848 Q474 883 480.5 915 Q487 947 500 988 Q443 903 392 862 Q316 794 242 794 Q174 794 135.5 837 Q97 880 97 942 Q97 1083 223.5 1222.5 Q350 1362 467 1362 Q506 1362 539 1347 Q572 1332 587 1291 L601 1340 Z " />
<glyph glyph-name="ordmasculine" unicode="&#xba;" horiz-adv-x="635" d="M543 1362 Q626 1362 682.5 1314.5 Q739 1267 739 1181 Q739 1043 616.5 919.5 Q494 796 344 796 Q250 796 200.5 849 Q151 902 151 980 Q151 1104 268.5 1233 Q386 1362 543 1362 Z M621 1214 Q621 1259 609 1284 Q588 1329 528 1329 Q429 1329 350 1197.5 Q271 1066 271 954 Q271 901 294 866.5 Q317 832 374 832 Q480 832 550.5 963 Q621 1094 621 1214 Z " />
<glyph glyph-name="Omega" unicode="&#x2126;" horiz-adv-x="1573" d="M970 310 L944 184 L1250 184 Q1326 184 1364.5 227 Q1403 270 1419 338 L1462 338 L1390 0 L833 0 L911 365 Q1133 404 1260 597 Q1328 701 1354 822 Q1399 1034 1317 1166 Q1235 1298 1000 1298 Q790 1298 647 1164 Q504 1030 461 827 Q430 681 476 539 Q522 397 712 365 L634 0 L74 0 L146 338 L191 338 Q181 266 193 236 Q213 184 294 184 L600 184 L626 310 Q441 326 310 457.5 Q179 589 228 823 Q276 1046 460 1200 Q682 1384 1026 1384 Q1357 1384 1504 1214 Q1637 1062 1588 830 Q1536 584 1350.5 456 Q1165 328 970 310 Z " />
<glyph glyph-name="ae" unicode="&#xe6;" horiz-adv-x="1366" d="M1175 781 Q1175 816 1156 839 Q1137 862 1102 862 Q993 862 907 711.5 Q821 561 798 459 Q871 477 930 500 Q1020 535 1068 577 Q1128 631 1156 700 Q1175 746 1175 781 Z M310 82 Q435 82 581 338 Q717 577 717 747 Q717 798 689.5 835 Q662 872 619 872 Q486 872 350 626 Q222 393 222 203 Q222 147 247.5 114.5 Q273 82 310 82 Z M607 912 Q678 912 713 879 Q733 860 753 810 L794 900 L941 900 L903 784 Q936 821 981 852 Q1067 912 1150 912 Q1220 912 1265 874.5 Q1310 837 1310 766 Q1310 619 1104 516 Q990 459 786 410 Q778 373 774.5 345 Q771 317 771 279 Q771 187 807 132.5 Q843 78 925 78 Q984 78 1061 122.5 Q1138 167 1204 234 L1225 210 Q1178 150 1089 84 Q948 -22 829 -22 Q686 -22 634 110 Q606 180 602 291 Q517 159 452 93 Q339 -22 227 -22 Q138 -22 92 39 Q46 100 46 186 Q46 418 235 665 Q426 912 607 912 Z " />
<glyph glyph-name="oslash" unicode="&#xf8;" horiz-adv-x="1024" d="M338 30 Q354 27 365.5 25 Q377 23 389 23 Q551 23 676 262 Q786 470 786 660 Q786 719 773.5 759 Q761 799 730 834 L338 30 Z M668 860 Q659 862 649.5 863.5 Q640 865 632 865 Q488 865 354 637 Q227 421 227 225 Q227 157 245 116 Q255 91 282 61 L668 860 Z M648 907 Q657 907 667 906.5 Q677 906 692 905 L803 1137 L874 1137 L758 893 Q836 867 879 825 Q957 748 957 607 Q957 394 769 188 Q577 -22 366 -22 Q355 -22 342 -21 Q329 -20 315 -19 L192 -275 L120 -275 L248 -8 Q167 26 127 69 Q54 146 54 283 Q54 504 242 704 Q432 907 648 907 Z " />
<glyph glyph-name="questiondown" unicode="&#xbf;" horiz-adv-x="1024" d="M592 855 Q592 898 623.5 931 Q655 964 703 964 Q749 964 779.5 932.5 Q810 901 810 858 Q810 814 779 782.5 Q748 751 701 751 Q655 751 623.5 781 Q592 811 592 855 Z M422 -423 Q264 -423 188.5 -345 Q113 -267 113 -159 Q113 -64 175 20 Q215 73 303 144 L388 213 Q484 291 527 341 Q601 426 623 523 L637 583 L673 578 Q673 518 644 438 Q595 305 483 180 Q350 32 307.5 -37 Q265 -106 265 -206 Q265 -291 311 -334.5 Q357 -378 425 -378 Q471 -378 509 -363 Q574 -338 574 -279 Q574 -273 572.5 -265 Q571 -257 568 -249 L559 -228 Q549 -204 545 -192 Q541 -180 541 -170 Q541 -142 564.5 -121 Q588 -100 621 -100 Q667 -100 686 -132 Q705 -164 705 -200 Q705 -291 625.5 -357 Q546 -423 422 -423 Z " />
<glyph glyph-name="exclamdown" unicode="&#xa1;" horiz-adv-x="797" d="M658 855 Q658 820 629 786.5 Q600 753 549 753 Q507 753 473.5 783 Q440 813 440 859 Q440 904 473 936.5 Q506 969 552 969 Q592 969 625 940 Q658 911 658 855 Z M119 -321 Q119 -267 138 -214.5 Q157 -162 268 93 Q333 241 379.5 371 Q426 501 459 583 L493 576 Q443 354 426 269 Q397 133 376 2 L346 -183 Q323 -324 288 -372.5 Q253 -421 205 -421 Q162 -421 140.5 -392.5 Q119 -364 119 -321 Z " />
<glyph glyph-name="logicalnot" unicode="&#xac;" horiz-adv-x="1382" d="M1259 777 L1148 251 L1027 251 L1113 656 L207 656 L232 777 L1259 777 Z " />
<glyph glyph-name="florin" unicode="&#x192;" horiz-adv-x="1024" d="M222 -214 Q222 -223 220 -233 Q218 -243 213 -252 L201 -273 Q198 -280 196 -285.5 Q194 -291 194 -297 Q194 -312 205 -320 Q216 -328 232 -328 Q318 -328 356 -211 Q381 -137 405 80 L485 782 L256 782 L270 843 L493 843 Q520 1080 618 1238 Q716 1396 875 1396 Q950 1396 994 1352 Q1038 1308 1038 1251 Q1038 1206 1012 1183 Q986 1160 956 1160 Q922 1160 897 1181.5 Q872 1203 872 1238 Q872 1250 875.5 1259.5 Q879 1269 893 1291 Q895 1295 898 1308 Q898 1322 887.5 1329 Q877 1336 858 1336 Q787 1336 743 1251 Q719 1207 703 1133 Q692 1080 681 985 Q670 890 663 843 L922 843 L907 782 L656 782 L589 269 Q556 57 520.5 -52.5 Q485 -162 443 -228 Q397 -300 343 -337.5 Q289 -375 210 -375 Q148 -375 99.5 -341.5 Q51 -308 51 -235 Q51 -191 78 -165.5 Q105 -140 143 -140 Q177 -140 199.5 -162.5 Q222 -185 222 -214 Z " />
<glyph glyph-name="increment" unicode="&#x2206;" horiz-adv-x="1253" d="M1013 92 L810 1076 L183 92 L1013 92 Z M1273 0 L21 0 L923 1396 L963 1396 L1273 0 Z " />
<glyph glyph-name="guillemotleft" unicode="&#xab;" horiz-adv-x="1024" d="M896 822 Q901 822 906.5 817.5 Q912 813 912 805 Q912 780 853 714 Q794 648 592 440 L649 327 Q714 197 737 149 Q760 101 760 91 Q760 82 754.5 76.5 Q749 71 742 71 Q737 71 732.5 73.5 Q728 76 725 80 L708 99 L440 438 L440 457 Q635 608 682 646 Q729 684 808 756 L860 803 Q870 811 878 816.5 Q886 822 896 822 Z M559 822 Q565 822 570.5 817.5 Q576 813 576 805 Q576 782 524.5 724 Q473 666 256 440 L312 327 Q364 220 375 198 Q424 96 424 90 Q424 82 418.5 76.5 Q413 71 405 71 Q400 71 396 73.5 Q392 76 388 80 L372 99 L104 438 L104 457 Q309 617 355 654.5 Q401 692 471 756 L523 803 Q533 811 541 816.5 Q549 822 559 822 Z " />
<glyph glyph-name="guillemotright" unicode="&#xbb;" horiz-adv-x="1024" d="M459 71 Q453 71 448 74.5 Q443 78 443 87 Q443 108 497 174 Q530 214 578 264 Q610 299 673 361.5 Q736 424 763 452 L706 566 Q682 614 638 704.5 Q594 795 594 802 Q594 810 601 816 Q608 822 615 822 Q620 822 623 819.5 Q626 817 630 813 L647 794 L914 455 L914 436 Q709 275 663.5 238 Q618 201 547 137 L495 90 Q484 79 476.5 75 Q469 71 459 71 Z M118 71 Q111 71 106 74.5 Q101 78 101 87 Q101 112 158.5 176.5 Q216 241 421 452 L365 566 Q357 584 305 690.5 Q253 797 253 802 Q253 810 259.5 816 Q266 822 273 822 Q278 822 282 819.5 Q286 817 289 813 L305 794 L573 455 L573 436 Q368 275 322 238 Q276 201 206 137 L154 90 Q143 79 135.5 75 Q128 71 118 71 Z " />
<glyph glyph-name="ellipsis" unicode="&#x2026;" horiz-adv-x="1821" d="M1820 90 Q1820 45 1787 10.5 Q1754 -24 1706 -24 Q1659 -24 1625.5 9.5 Q1592 43 1592 90 Q1592 138 1625.5 172 Q1659 206 1706 206 Q1753 206 1786.5 172 Q1820 138 1820 90 Z M1024 206 Q1067 206 1102 173.5 Q1137 141 1137 90 Q1137 43 1104 9.5 Q1071 -24 1024 -24 Q975 -24 941 9 Q907 42 907 90 Q907 138 941.5 172 Q976 206 1024 206 Z M341 206 Q388 206 421.5 171.5 Q455 137 455 90 Q455 45 422 10.5 Q389 -24 341 -24 Q294 -24 260.5 9.5 Q227 43 227 90 Q227 138 260 172 Q293 206 341 206 Z " />
<glyph glyph-name="nobreakspace" unicode="&#xa0;" horiz-adv-x="512" d="" />
<glyph glyph-name="Agrave" unicode="&#xc0;" horiz-adv-x="1251" d="M805 535 L715 1066 L410 535 L805 535 Z M-55 33 Q13 50 52.5 96 Q92 142 210 343 L808 1367 L853 1367 L1050 208 Q1069 96 1095 68.5 Q1121 41 1206 33 L1206 0 L701 0 L701 33 Q792 42 819 55 Q862 75 862 133 Q862 148 861 165 Q860 182 858 194 L817 462 L367 462 L248 232 Q235 209 225 183 Q208 137 208 106 Q208 67 234.5 51 Q261 35 329 33 L329 0 L-55 0 L-55 33 Z M759 1772 Q784 1772 802 1758 Q820 1744 835 1725 L1072 1419 L1011 1419 L724 1637 Q707 1650 695.5 1665 Q684 1680 684 1702 Q684 1731 704 1751.5 Q724 1772 759 1772 Z " />
<glyph glyph-name="Atilde" unicode="&#xc3;" horiz-adv-x="1251" d="M805 535 L715 1066 L410 535 L805 535 Z M-55 33 Q13 50 52.5 96 Q92 142 210 343 L808 1367 L853 1367 L1050 208 Q1069 96 1095 68.5 Q1121 41 1206 33 L1206 0 L701 0 L701 33 Q792 42 819 55 Q862 75 862 133 Q862 148 861 165 Q860 182 858 194 L817 462 L367 462 L248 232 Q235 209 225 183 Q208 137 208 106 Q208 67 234.5 51 Q261 35 329 33 L329 0 L-55 0 L-55 33 Z M538 1519 Q557 1613 605 1674 Q653 1735 739 1735 Q806 1735 907.5 1691 Q1009 1647 1045 1647 Q1095 1647 1121 1679 Q1136 1697 1149 1737 L1209 1737 Q1192 1643 1139.5 1583.5 Q1087 1524 1012 1524 Q985 1524 953.5 1533.5 Q922 1543 834 1576 L765 1602 Q749 1608 735 1611 Q721 1614 704 1614 Q656 1614 636 1591 Q616 1568 597 1519 L538 1519 Z " />
<glyph glyph-name="Otilde" unicode="&#xd5;" horiz-adv-x="1479" d="M608 35 Q881 35 1068 404 Q1219 701 1219 955 Q1219 1112 1151 1200.5 Q1083 1289 946 1289 Q682 1289 496 936 Q339 639 339 363 Q339 201 410 118 Q481 35 608 35 Z M951 1362 Q1167 1362 1300 1222 Q1433 1082 1433 879 Q1433 521 1167 240 Q905 -35 586 -35 Q384 -35 251 91 Q118 217 118 450 Q118 781 381 1071 Q645 1362 951 1362 Z M690 1514 Q709 1608 757 1669 Q805 1730 891 1730 Q958 1730 1059.5 1686 Q1161 1642 1197 1642 Q1247 1642 1273 1674 Q1288 1692 1301 1732 L1361 1732 Q1344 1638 1291.5 1578.5 Q1239 1519 1164 1519 Q1137 1519 1105.5 1528.5 Q1074 1538 986 1571 L917 1597 Q901 1603 887 1606 Q873 1609 856 1609 Q808 1609 788 1586 Q768 1563 749 1514 L690 1514 Z " />
<glyph glyph-name="OE" unicode="&#x152;" horiz-adv-x="1933" d="M596 49 Q751 49 816.5 126.5 Q882 204 938 407 L1121 1078 Q1124 1089 1126 1104.5 Q1128 1120 1128 1129 Q1128 1174 1101 1216 Q1049 1298 915 1298 Q667 1298 487 1002 Q322 730 322 415 Q322 295 356 210 Q422 49 596 49 Z M930 1366 Q965 1366 1073 1353.5 Q1181 1341 1218 1341 L1974 1341 L1910 1031 L1877 1031 Q1877 1158 1828.5 1215 Q1780 1272 1633 1272 L1436 1272 Q1398 1272 1384.5 1257 Q1371 1242 1360 1204 L1227 744 Q1476 744 1533 771 Q1590 798 1659 941 L1694 931 L1559 459 L1519 464 Q1526 497 1528.5 516 Q1531 535 1531 553 Q1531 625 1492.5 649 Q1454 673 1336 675 L1211 677 L1088 218 Q1079 186 1076 169 Q1073 152 1073 141 Q1073 93 1120 79 Q1149 70 1231 70 Q1471 70 1585.5 135.5 Q1700 201 1808 353 L1841 338 L1709 0 L1000 0 Q899 0 782.5 -10 Q666 -20 588 -20 Q365 -20 232.5 116 Q100 252 100 465 Q100 779 312 1052 Q556 1366 930 1366 Z " />
<glyph glyph-name="oe" unicode="&#x153;" horiz-adv-x="1366" d="M1186 776 Q1186 823 1163.5 840.5 Q1141 858 1115 858 Q1034 858 939 734.5 Q844 611 803 443 Q943 480 1027 531 Q1186 627 1186 776 Z M353 21 Q445 21 501 95.5 Q557 170 608 310 Q644 410 666 489 Q702 623 702 708 Q702 769 683 804 Q652 860 572 860 Q444 860 324 633 Q210 416 210 211 Q210 144 228 101 Q262 21 353 21 Z M597 907 Q658 907 704 886 Q788 847 832 741 Q884 798 971 853 Q1057 910 1160 910 Q1232 910 1277 870 Q1322 830 1322 763 Q1322 591 1058 480 Q933 429 791 398 Q781 368 772 326 Q763 284 763 237 Q763 147 809.5 105.5 Q856 64 920 64 Q990 64 1090 126 Q1151 164 1213 218 L1237 194 Q1143 99 1040 37.5 Q937 -24 832 -24 Q737 -24 677 33 Q644 63 621 116 Q548 48 502 22 Q421 -25 325 -25 Q208 -25 122.5 59.5 Q37 144 37 276 Q37 494 223 701 Q407 907 597 907 Z " />
<glyph glyph-name="endash" unicode="&#x2013;" horiz-adv-x="1024" d="M4 497 L1033 497 L1014 402 L-15 402 L4 497 Z " />
<glyph glyph-name="emdash" unicode="&#x2014;" horiz-adv-x="1821" d="M220 497 L1607 497 L1592 402 L206 402 L220 497 Z " />
<glyph glyph-name="quotedblleft" unicode="&#x201c;" horiz-adv-x="1139" d="M765 1028 Q765 1135 861 1234 Q892 1268 1000 1341 L1031 1358 L1050 1325 Q979 1274 949 1244 Q896 1191 896 1146 Q896 1133 899.5 1121.5 Q903 1110 914 1099 L933 1080 Q966 1047 977.5 1029 Q989 1011 989 982 Q989 936 958 911 Q927 886 883 886 Q831 886 798 928 Q765 970 765 1028 Z M341 1028 Q341 1120 393 1187 Q445 1254 576 1341 L606 1358 L625 1325 Q558 1277 526 1245 Q471 1190 471 1147 Q471 1133 476 1120.5 Q481 1108 490 1099 L509 1080 Q539 1051 552 1030.5 Q565 1010 565 980 Q565 944 538 915 Q511 886 459 886 Q409 886 375 926 Q341 966 341 1028 Z " />
<glyph glyph-name="quotedblright" unicode="&#x201d;" horiz-adv-x="1139" d="M881 1358 Q925 1358 961 1320.5 Q997 1283 997 1211 Q997 1114 922 1031.5 Q847 949 763 903 L732 886 L713 919 Q773 961 806 993 Q867 1052 867 1098 Q867 1111 862 1123 Q857 1135 848 1144 L829 1163 Q801 1191 787.5 1212 Q774 1233 774 1262 Q774 1305 803.5 1331.5 Q833 1358 881 1358 Z M349 1268 Q349 1300 376.5 1329 Q404 1358 455 1358 Q505 1358 539 1317.5 Q573 1277 573 1213 Q573 1132 511.5 1049.5 Q450 967 338 903 L308 886 L289 919 Q355 967 385 995 Q443 1052 443 1098 Q443 1111 438 1123 Q433 1135 424 1144 L405 1163 Q375 1193 362 1214 Q349 1235 349 1268 Z " />
<glyph glyph-name="quoteleft" unicode="&#x2018;" horiz-adv-x="682" d="M327 1035 Q327 1130 402.5 1212.5 Q478 1295 561 1341 L592 1358 L611 1325 Q545 1277 515 1248 Q457 1191 457 1147 Q457 1133 462 1120.5 Q467 1108 476 1099 L495 1080 Q525 1050 537.5 1030.5 Q550 1011 550 982 Q550 940 521 913 Q492 886 445 886 Q399 886 363 923 Q327 960 327 1035 Z " />
<glyph glyph-name="quoteright" unicode="&#x2019;" horiz-adv-x="682" d="M460 1358 Q512 1358 545 1316 Q578 1274 578 1214 Q578 1113 501.5 1030.5 Q425 948 343 903 L312 886 L293 919 Q354 961 386 992 Q448 1051 448 1098 Q448 1111 443 1123 Q438 1135 429 1144 L410 1163 Q377 1196 366 1214 Q355 1232 355 1262 Q355 1314 388.5 1336 Q422 1358 460 1358 Z " />
<glyph glyph-name="divide" unicode="&#xf7;" horiz-adv-x="1124" d="M1216 573 L1190 452 L163 452 L189 573 L1216 573 Z M868 879 Q859 837 823.5 807 Q788 777 745 777 Q702 777 680 807.5 Q658 838 667 879 Q676 922 712 951.5 Q748 981 788 981 Q830 981 853.5 951.5 Q877 922 868 879 Z M713 149 Q704 107 668.5 77 Q633 47 590 47 Q547 47 525 77.5 Q503 108 512 149 Q521 192 557 221.5 Q593 251 633 251 Q675 251 698.5 221.5 Q722 192 713 149 Z " />
<glyph glyph-name="lozenge" unicode="&#x25ca;" horiz-adv-x="1012" d="M686 1367 L935 689 L393 -8 L148 689 L686 1367 Z M834 689 L650 1199 L250 689 L429 161 L834 689 Z " />
<glyph glyph-name="ydieresis" unicode="&#xff;" horiz-adv-x="909" d="M-53 -332 Q-53 -300 -33 -277 Q-13 -254 25 -254 Q50 -254 69 -263.5 Q88 -273 109 -291 L123 -301 Q129 -306 136.5 -308.5 Q144 -311 153 -311 Q202 -311 310.5 -181.5 Q419 -52 419 7 Q419 63 381.5 227 Q344 391 309 519 Q260 699 219.5 763 Q179 827 100 827 Q94 827 79.5 825.5 Q65 824 30 820 L30 853 L303 905 L324 907 Q349 910 420 682 Q484 477 500 384 L540 146 Q645 322 694 416 Q790 601 790 675 Q790 692 784 708.5 Q778 725 756 737 L739 746 Q723 754 701.5 776 Q680 798 680 835 Q680 866 700 887 Q720 908 760 908 Q810 908 841 878.5 Q872 849 872 778 Q872 671 755 434 Q665 253 554 83 Q415 -129 315 -244 Q156 -425 51 -425 Q10 -425 -21.5 -400 Q-53 -375 -53 -332 Z M716 1142 Q716 1182 744.5 1212 Q773 1242 816 1242 Q856 1242 886.5 1212.5 Q917 1183 917 1142 Q917 1099 887 1069.5 Q857 1040 816 1040 Q776 1040 746 1068.5 Q716 1097 716 1142 Z M405 1242 Q443 1242 474 1213.5 Q505 1185 505 1141 Q505 1101 475.5 1070.5 Q446 1040 405 1040 Q363 1040 333 1069.5 Q303 1099 303 1140 Q303 1183 333 1212.5 Q363 1242 405 1242 Z " />
<glyph glyph-name="Ydieresis" unicode="&#x178;" horiz-adv-x="1139" d="M158 33 Q249 40 287 59 Q347 91 374 184 L500 618 L341 1168 Q316 1255 291 1274.5 Q266 1294 187 1303 L187 1336 L675 1336 L675 1303 Q601 1299 573 1289 Q527 1272 527 1226 Q527 1211 533 1184 Q539 1157 542 1149 L666 711 L888 981 Q963 1072 995 1119 Q1050 1198 1050 1238 Q1050 1278 1009 1292 Q984 1300 910 1303 L910 1336 L1334 1336 L1334 1303 Q1275 1296 1241.5 1273 Q1208 1250 1152 1180 L704 625 L592 246 Q578 199 573 170 Q568 141 568 123 Q568 65 606.5 50.5 Q645 36 751 33 L751 0 L158 0 L158 33 Z M971 1568 Q971 1608 999.5 1638 Q1028 1668 1071 1668 Q1111 1668 1141.5 1638.5 Q1172 1609 1172 1568 Q1172 1525 1142 1495.5 Q1112 1466 1071 1466 Q1031 1466 1001 1494.5 Q971 1523 971 1568 Z M660 1668 Q698 1668 729 1639.5 Q760 1611 760 1567 Q760 1527 730.5 1496.5 Q701 1466 660 1466 Q618 1466 588 1495.5 Q558 1525 558 1566 Q558 1609 588 1638.5 Q618 1668 660 1668 Z " />
<glyph glyph-name="fraction" unicode="&#x2044;" horiz-adv-x="342" d="M682 1386 L-237 -15 L-342 -15 L578 1386 L682 1386 Z " />
<glyph glyph-name="Euro" unicode="&#x20ac;" horiz-adv-x="1524" d="M1191 715 L51 715 L122 825 L1261 825 L1191 715 Z M1050 495 L4 495 L76 605 L1122 605 L1050 495 Z M1196 149 Q991 0 736 0 Q456 0 306.5 190 Q157 380 217 660 Q276 940 506.5 1130 Q737 1320 1017 1320 Q1297 1320 1451 1124 L1380 1013 Q1238 1210 993 1210 Q763 1210 569 1050 Q375 890 327 660 Q278 430 404 270 Q530 110 760 110 Q1010 110 1230 311 L1196 149 Z " />
<glyph glyph-name="guilsinglleft" unicode="&#x2039;" horiz-adv-x="682" d="M559 820 Q565 820 570.5 815.5 Q576 811 576 803 Q576 784 521 716 Q485 673 441 626 Q408 591 347 529.5 Q286 468 256 438 L312 324 Q336 275 380 184 Q424 93 424 87 Q424 78 418.5 72.5 Q413 67 406 67 Q401 67 396.5 70 Q392 73 388 78 L372 97 L104 436 L104 455 Q284 594 344.5 643 Q405 692 471 753 L523 801 Q532 809 541 814.5 Q550 820 559 820 Z " />
<glyph glyph-name="guilsinglright" unicode="&#x203a;" horiz-adv-x="682" d="M104 71 Q97 71 92 74.5 Q87 78 87 87 Q87 114 150.5 184.5 Q214 255 407 452 L350 566 Q277 713 258 752.5 Q239 792 239 802 Q239 810 245.5 816.5 Q252 823 259 823 Q270 818 274 813 L291 794 L559 455 L559 436 Q430 335 371 287 Q266 203 192 137 L139 90 Q126 79 119.5 75 Q113 71 104 71 Z " />
<glyph glyph-name="fi" unicode="&#xfb01;" horiz-adv-x="1024" d="M282 156 Q220 -112 121 -269.5 Q22 -427 -128 -427 Q-198 -427 -246 -393 Q-294 -359 -294 -304 Q-294 -275 -277 -247 Q-260 -219 -216 -219 Q-180 -219 -158.5 -241.5 Q-137 -264 -137 -294 Q-137 -312 -155 -356 Q-155 -369 -143 -375.5 Q-131 -382 -113 -382 Q-28 -382 32 -243 Q63 -169 87 -53 L241 704 L265 805 L92 805 L106 872 L284 872 Q347 1091 421 1200 Q553 1394 774 1394 Q888 1394 937 1346.5 Q986 1299 986 1252 Q986 1212 960.5 1189 Q935 1166 897 1166 Q865 1166 840 1185.5 Q815 1205 815 1243 Q815 1256 818 1269.5 Q821 1283 829 1294 L839 1308 L841 1315 Q841 1327 827 1338 Q813 1348 780 1348 Q652 1348 577.5 1239.5 Q503 1131 443 872 L749 872 Q822 872 892 881.5 Q962 891 952 891 L962 884 Q962 877 961.5 872 Q961 867 960 862 L760 120 Q757 107 757 102 Q757 89 763 82 Q769 75 780 75 Q802 75 832.5 101.5 Q863 128 941 218 L971 199 Q932 130 851 55.5 Q770 -19 704 -19 Q642 -19 617 29 Q603 56 603 90 Q603 123 620 196 Q637 269 656 336 L777 772 L780 788 Q780 800 773.5 802.5 Q767 805 746 805 L424 805 L282 156 Z " />
<glyph glyph-name="fl" unicode="&#xfb02;" horiz-adv-x="1024" d="M-294 -290 Q-294 -255 -270 -232 Q-246 -209 -217 -209 Q-191 -209 -163.5 -222 Q-136 -235 -136 -281 Q-136 -301 -155 -349 Q-155 -359 -147 -367 Q-140 -375 -114 -375 Q-32 -375 17 -262 Q66 -149 120 97 Q146 212 189 431 Q234 664 246 718 L265 805 L82 805 L97 872 L284 872 Q284 888 320 990 Q374 1146 457 1239 Q538 1329 620.5 1362.5 Q703 1396 792 1396 Q829 1396 890.5 1385 Q952 1374 969 1374 Q981 1374 993.5 1376.5 Q1006 1379 1016 1384 L1035 1393 L1047 1396 Q1052 1396 1056.5 1392 Q1061 1388 1061 1378 Q1061 1373 1060 1364.5 Q1059 1356 1057 1348 L760 128 Q759 122 758 116 Q757 110 757 104 Q757 87 763 80 Q769 73 782 73 Q802 73 831.5 98.5 Q861 124 941 215 L971 196 Q923 118 847 49 Q771 -20 702 -20 Q638 -20 616 21 Q604 44 604 90 Q604 129 619 203.5 Q634 278 651 343 L768 805 L424 805 L282 163 Q232 -67 133.5 -243.5 Q35 -420 -131 -420 Q-214 -420 -254 -379.5 Q-294 -339 -294 -290 Z M858 1170 Q856 1160 861 1184 Q840 1222 840 1245 Q840 1254 842 1264.5 Q844 1275 850 1284 L860 1298 L863 1308 Q863 1324 841 1337.5 Q819 1351 776 1351 Q635 1351 544 1179 Q492 1082 440 872 L784 872 L858 1170 Z " />
<glyph glyph-name="daggerdbl" unicode="&#x2021;" horiz-adv-x="1024" d="M431 196 Q439 232 446 284.5 Q453 337 453 379 Q453 409 444.5 452.5 Q436 496 426 526 L421 540 L433 552 Q482 601 515 678.5 Q548 756 566 834 L576 877 Q456 867 391 838 Q326 809 289 809 Q255 809 230.5 833 Q206 857 206 895 Q206 925 228 951.5 Q250 978 295 978 Q328 978 405.5 948.5 Q483 919 583 917 Q592 970 596 1002 Q603 1052 603 1087 Q603 1102 602 1116 Q601 1130 599 1142 L592 1189 Q587 1221 586 1231.5 Q585 1242 585 1249 Q585 1306 614.5 1335.5 Q644 1365 683 1365 Q721 1365 744.5 1340 Q768 1315 768 1273 Q768 1250 759 1225 Q750 1200 737 1178 L696 1111 Q668 1065 656 1033 Q644 1001 623 917 Q716 915 797 946.5 Q878 978 912 978 Q971 978 987 952.5 Q1003 927 1003 896 Q1003 855 974 832.5 Q945 810 903 810 Q873 810 801.5 842 Q730 874 647 874 L616 874 Q606 837 601 784 Q596 731 596 690 Q596 660 599.5 640 Q603 620 614 578 L623 545 L628 530 L616 519 Q575 481 535 393 Q495 305 474 196 Q533 197 565 203 Q597 209 654 232 L689 246 Q706 253 726 257 Q746 261 760 261 Q801 261 822 234.5 Q843 208 843 172 Q843 139 823 115 Q803 91 755 91 Q742 91 726 93 Q710 95 696 101 L658 118 Q614 138 566 145 Q535 150 466 154 Q452 80 448.5 55 Q445 30 445 0 Q445 -18 446 -37 Q447 -56 450 -72 L457 -119 Q462 -149 463 -159 Q464 -169 464 -179 Q464 -241 437 -267.5 Q410 -294 365 -294 Q330 -294 306 -268 Q282 -242 282 -205 Q282 -175 291.5 -149.5 Q301 -124 312 -107 L353 -41 Q382 5 396.5 45.5 Q411 86 424 154 Q376 154 335.5 146.5 Q295 139 277 132 L232 113 Q210 104 184.5 98 Q159 92 136 92 Q80 92 58 130 Q46 150 46 173 Q46 207 69.5 233.5 Q93 260 138 260 Q176 260 257.5 228 Q339 196 379 196 L431 196 Z " />
<glyph glyph-name="middot" unicode="&#xb7;" horiz-adv-x="512" d="M156 609 Q156 658 189.5 692.5 Q223 727 270 727 Q321 727 354.5 692 Q388 657 388 611 Q388 563 354 529 Q320 495 270 495 Q221 495 188.5 529 Q156 563 156 609 Z " />
<glyph glyph-name="quotesinglbase" unicode="&#x201a;" horiz-adv-x="682" d="M189 132 Q189 158 216 185.5 Q243 213 294 213 Q346 213 379 171 Q412 129 412 69 Q412 -33 335 -115 Q258 -197 177 -242 L146 -259 L128 -226 Q200 -173 230 -143 Q282 -90 282 -48 Q282 -35 277 -21.5 Q272 -8 263 0 L244 18 Q209 52 199 72.5 Q189 93 189 132 Z " />
<glyph glyph-name="quotedblbase" unicode="&#x201e;" horiz-adv-x="1139" d="M713 206 Q767 206 799.5 163.5 Q832 121 832 61 Q832 -33 758.5 -117 Q685 -201 597 -249 L566 -266 L547 -233 Q606 -192 639 -161 Q701 -101 701 -54 Q701 -41 696 -29 Q691 -17 682 -8 L663 11 Q631 43 620 62 Q609 81 609 110 Q609 158 640 182 Q671 206 713 206 Z M184 125 Q184 147 210 176.5 Q236 206 288 206 Q341 206 374 165 Q407 124 407 61 Q407 -40 329.5 -123 Q252 -206 173 -249 L142 -266 L123 -233 Q185 -189 218 -158 Q277 -100 277 -54 Q277 -41 272 -29 Q267 -17 258 -8 L239 11 Q202 48 193 67.5 Q184 87 184 125 Z " />
<glyph glyph-name="perthousand" unicode="&#x2030;" horiz-adv-x="2048" d="M376 722 Q481 722 561 857 Q641 992 641 1140 Q641 1209 635.5 1223.5 Q630 1238 598 1255 Q566 1272 533 1299 Q516 1313 500 1329 Q380 1291 317 1136 Q254 981 254 876 Q254 803 285.5 762.5 Q317 722 376 722 Z M492 1386 Q565 1386 636 1316.5 Q707 1247 835 1247 Q922 1247 977 1282 Q1032 1317 1166 1445 L1256 1445 L374 -38 L279 -38 L1071 1291 Q1034 1252 971 1223 Q908 1194 815 1194 Q779 1194 739 1204 Q715 1211 682 1223 Q686 1204 688 1191 Q690 1178 690 1153 Q690 978 597 823 Q504 668 350 668 Q252 668 180.5 747 Q109 826 109 960 Q109 1125 230.5 1255.5 Q352 1386 492 1386 Z M1757 14 Q1864 14 1945 150 Q2026 286 2026 433 Q2026 503 1996 559.5 Q1966 616 1895 616 Q1791 616 1713 455.5 Q1635 295 1635 161 Q1635 101 1665.5 57.5 Q1696 14 1757 14 Z M1869 675 Q1985 675 2029.5 599 Q2074 523 2074 419 Q2074 282 1985.5 121.5 Q1897 -39 1737 -39 Q1639 -39 1563.5 34 Q1488 107 1488 244 Q1488 402 1604.5 538.5 Q1721 675 1869 675 Z M952 172 Q952 93 987 53.5 Q1022 14 1072 14 Q1180 14 1260.5 152 Q1341 290 1341 426 Q1341 505 1309.5 561.5 Q1278 618 1213 618 Q1110 618 1031 456 Q952 294 952 172 Z M1191 676 Q1275 676 1332.5 618 Q1390 560 1390 432 Q1390 267 1292.5 113 Q1195 -41 1051 -41 Q944 -41 873.5 44 Q803 129 803 252 Q803 397 919.5 536.5 Q1036 676 1191 676 Z " />
<glyph glyph-name="Acircumflex" unicode="&#xc2;" horiz-adv-x="1251" d="M805 535 L715 1066 L410 535 L805 535 Z M-55 33 Q13 50 52.5 96 Q92 142 210 343 L808 1367 L853 1367 L1050 208 Q1069 96 1095 68.5 Q1121 41 1206 33 L1206 0 L701 0 L701 33 Q792 42 819 55 Q862 75 862 133 Q862 148 861 165 Q860 182 858 194 L817 462 L367 462 L248 232 Q235 209 225 183 Q208 137 208 106 Q208 67 234.5 51 Q261 35 329 33 L329 0 L-55 0 L-55 33 Z M1062 1467 L893 1680 L614 1467 L533 1467 L855 1813 L955 1813 L1135 1467 L1062 1467 Z " />
<glyph glyph-name="Ecircumflex" unicode="&#xca;" horiz-adv-x="1251" d="M-5 33 Q67 39 94 59 Q136 89 163 184 L414 1090 Q426 1135 432.5 1164.5 Q439 1194 439 1215 Q439 1263 402.5 1282 Q366 1301 279 1303 L279 1336 L1298 1336 L1234 1024 L1192 1028 Q1195 1058 1196 1085.5 Q1197 1113 1197 1106 Q1199 1207 1125.5 1238.5 Q1052 1270 823 1270 Q718 1270 691 1260 Q664 1250 654 1216 L519 739 Q790 748 845 773 Q900 798 962 938 L1000 929 L860 455 L820 464 Q830 524 832 537 Q834 550 834 566 Q834 631 787.5 650.5 Q741 670 617 670 L500 670 L374 213 Q368 192 364.5 174 Q361 156 361 137 Q361 105 378 89 Q409 61 500 61 Q775 61 893.5 120 Q1012 179 1130 348 L1163 331 L1035 0 L-5 0 L-5 33 Z M1060 1440 L891 1653 L612 1440 L531 1440 L853 1786 L953 1786 L1133 1440 L1060 1440 Z " />
<glyph glyph-name="Aacute" unicode="&#xc1;" horiz-adv-x="1251" d="M805 535 L715 1066 L410 535 L805 535 Z M-55 33 Q13 50 52.5 96 Q92 142 210 343 L808 1367 L853 1367 L1050 208 Q1069 96 1095 68.5 Q1121 41 1206 33 L1206 0 L701 0 L701 33 Q792 42 819 55 Q862 75 862 133 Q862 148 861 165 Q860 182 858 194 L817 462 L367 462 L248 232 Q235 209 225 183 Q208 137 208 106 Q208 67 234.5 51 Q261 35 329 33 L329 0 L-55 0 L-55 33 Z M1111 1743 Q1111 1721 1100 1707.5 Q1089 1694 1075 1685 L725 1467 L653 1467 L985 1794 Q994 1803 1009 1809 Q1024 1815 1038 1815 Q1066 1815 1088.5 1794.5 Q1111 1774 1111 1743 Z " />
<glyph glyph-name="Edieresis" unicode="&#xcb;" horiz-adv-x="1251" d="M-5 33 Q67 39 94 59 Q136 89 163 184 L414 1090 Q426 1135 432.5 1164.5 Q439 1194 439 1215 Q439 1263 402.5 1282 Q366 1301 279 1303 L279 1336 L1298 1336 L1234 1024 L1192 1028 Q1195 1058 1196 1085.5 Q1197 1113 1197 1106 Q1199 1207 1125.5 1238.5 Q1052 1270 823 1270 Q718 1270 691 1260 Q664 1250 654 1216 L519 739 Q790 748 845 773 Q900 798 962 938 L1000 929 L860 455 L820 464 Q830 524 832 537 Q834 550 834 566 Q834 631 787.5 650.5 Q741 670 617 670 L500 670 L374 213 Q368 192 364.5 174 Q361 156 361 137 Q361 105 378 89 Q409 61 500 61 Q775 61 893.5 120 Q1012 179 1130 348 L1163 331 L1035 0 L-5 0 L-5 33 Z M989 1575 Q989 1615 1017.5 1645 Q1046 1675 1089 1675 Q1129 1675 1159.5 1645.5 Q1190 1616 1190 1575 Q1190 1532 1160 1502.5 Q1130 1473 1089 1473 Q1049 1473 1019 1501.5 Q989 1530 989 1575 Z M678 1675 Q716 1675 747 1646.5 Q778 1618 778 1574 Q778 1534 748.5 1503.5 Q719 1473 678 1473 Q636 1473 606 1502.5 Q576 1532 576 1573 Q576 1616 606 1645.5 Q636 1675 678 1675 Z " />
<glyph glyph-name="Egrave" unicode="&#xc8;" horiz-adv-x="1251" d="M-5 33 Q67 39 94 59 Q136 89 163 184 L414 1090 Q426 1135 432.5 1164.5 Q439 1194 439 1215 Q439 1263 402.5 1282 Q366 1301 279 1303 L279 1336 L1298 1336 L1234 1024 L1192 1028 Q1195 1058 1196 1085.5 Q1197 1113 1197 1106 Q1199 1207 1125.5 1238.5 Q1052 1270 823 1270 Q718 1270 691 1260 Q664 1250 654 1216 L519 739 Q790 748 845 773 Q900 798 962 938 L1000 929 L860 455 L820 464 Q830 524 832 537 Q834 550 834 566 Q834 631 787.5 650.5 Q741 670 617 670 L500 670 L374 213 Q368 192 364.5 174 Q361 156 361 137 Q361 105 378 89 Q409 61 500 61 Q775 61 893.5 120 Q1012 179 1130 348 L1163 331 L1035 0 L-5 0 L-5 33 Z M680 1793 Q705 1793 723 1779 Q741 1765 756 1746 L993 1440 L932 1440 L645 1658 Q628 1671 616.5 1686 Q605 1701 605 1723 Q605 1752 625 1772.5 Q645 1793 680 1793 Z " />
<glyph glyph-name="Iacute" unicode="&#xcd;" horiz-adv-x="682" d="M-19 33 Q53 39 80 59 Q122 89 149 184 L400 1090 Q414 1145 419 1167.5 Q424 1190 424 1212 Q424 1261 392 1279.5 Q360 1298 279 1303 L279 1336 L786 1336 L786 1303 Q705 1292 674.5 1268.5 Q644 1245 618 1152 L367 246 Q354 198 348.5 167 Q343 136 343 120 Q343 70 378.5 53 Q414 36 483 33 L483 0 L-19 0 L-19 33 Z M889 1709 Q889 1687 878 1673.5 Q867 1660 853 1651 L503 1433 L431 1433 L763 1760 Q772 1769 787 1775 Q802 1781 816 1781 Q844 1781 866.5 1760.5 Q889 1740 889 1709 Z " />
<glyph glyph-name="Icircumflex" unicode="&#xce;" horiz-adv-x="682" d="M-19 33 Q53 39 80 59 Q122 89 149 184 L400 1090 Q414 1145 419 1167.5 Q424 1190 424 1212 Q424 1261 392 1279.5 Q360 1298 279 1303 L279 1336 L786 1336 L786 1303 Q705 1292 674.5 1268.5 Q644 1245 618 1152 L367 246 Q354 198 348.5 167 Q343 136 343 120 Q343 70 378.5 53 Q414 36 483 33 L483 0 L-19 0 L-19 33 Z M766 1433 L597 1646 L318 1433 L237 1433 L559 1779 L659 1779 L839 1433 L766 1433 Z " />
<glyph glyph-name="Idieresis" unicode="&#xcf;" horiz-adv-x="682" d="M-19 33 Q53 39 80 59 Q122 89 149 184 L400 1090 Q414 1145 419 1167.5 Q424 1190 424 1212 Q424 1261 392 1279.5 Q360 1298 279 1303 L279 1336 L786 1336 L786 1303 Q705 1292 674.5 1268.5 Q644 1245 618 1152 L367 246 Q354 198 348.5 167 Q343 136 343 120 Q343 70 378.5 53 Q414 36 483 33 L483 0 L-19 0 L-19 33 Z M756 1568 Q756 1608 784.5 1638 Q813 1668 856 1668 Q896 1668 926.5 1638.5 Q957 1609 957 1568 Q957 1525 927 1495.5 Q897 1466 856 1466 Q816 1466 786 1494.5 Q756 1523 756 1568 Z M445 1668 Q483 1668 514 1639.5 Q545 1611 545 1567 Q545 1527 515.5 1496.5 Q486 1466 445 1466 Q403 1466 373 1495.5 Q343 1525 343 1566 Q343 1609 373 1638.5 Q403 1668 445 1668 Z " />
<glyph glyph-name="Igrave" unicode="&#xcc;" horiz-adv-x="682" d="M-19 33 Q53 39 80 59 Q122 89 149 184 L400 1090 Q414 1145 419 1167.5 Q424 1190 424 1212 Q424 1261 392 1279.5 Q360 1298 279 1303 L279 1336 L786 1336 L786 1303 Q705 1292 674.5 1268.5 Q644 1245 618 1152 L367 246 Q354 198 348.5 167 Q343 136 343 120 Q343 70 378.5 53 Q414 36 483 33 L483 0 L-19 0 L-19 33 Z M386 1786 Q411 1786 429 1772 Q447 1758 462 1739 L699 1433 L638 1433 L351 1651 Q334 1664 322.5 1679 Q311 1694 311 1716 Q311 1745 331 1765.5 Q351 1786 386 1786 Z " />
<glyph glyph-name="Oacute" unicode="&#xd3;" horiz-adv-x="1479" d="M608 35 Q881 35 1068 404 Q1219 701 1219 955 Q1219 1112 1151 1200.5 Q1083 1289 946 1289 Q682 1289 496 936 Q339 639 339 363 Q339 201 410 118 Q481 35 608 35 Z M951 1362 Q1167 1362 1300 1222 Q1433 1082 1433 879 Q1433 521 1167 240 Q905 -35 586 -35 Q384 -35 251 91 Q118 217 118 450 Q118 781 381 1071 Q645 1362 951 1362 Z M1311 1738 Q1311 1716 1300 1702.5 Q1289 1689 1275 1680 L925 1462 L853 1462 L1185 1789 Q1194 1798 1209 1804 Q1224 1810 1238 1810 Q1266 1810 1288.5 1789.5 Q1311 1769 1311 1738 Z " />
<glyph glyph-name="Ocircumflex" unicode="&#xd4;" horiz-adv-x="1479" d="M608 35 Q881 35 1068 404 Q1219 701 1219 955 Q1219 1112 1151 1200.5 Q1083 1289 946 1289 Q682 1289 496 936 Q339 639 339 363 Q339 201 410 118 Q481 35 608 35 Z M951 1362 Q1167 1362 1300 1222 Q1433 1082 1433 879 Q1433 521 1167 240 Q905 -35 586 -35 Q384 -35 251 91 Q118 217 118 450 Q118 781 381 1071 Q645 1362 951 1362 Z M1228 1462 L1059 1675 L780 1462 L699 1462 L1021 1808 L1121 1808 L1301 1462 L1228 1462 Z " />
<glyph glyph-name="apple" unicode="&#xf8ff;" horiz-adv-x="1618" d="M987 1204 Q1032 1204 1141.5 1239 Q1251 1274 1326 1274 Q1449 1274 1531 1208 Q1577 1170 1616 1105 Q1521 1037 1473 984 Q1386 888 1361 772 Q1334 645 1383.5 543 Q1433 441 1518 414 Q1454 291 1337 157 Q1162 -44 1031 -44 Q979 -44 894.5 -11 Q810 22 747 22 Q684 22 593 -12.5 Q502 -47 450 -47 Q293 -47 199 219 Q105 482 158 735 Q207 970 354 1118 Q501 1266 677 1266 Q752 1266 852 1235 Q952 1204 987 1204 Z M1388 1617 Q1374 1553 1328 1477 Q1282 1401 1203 1336 Q1135 1281 1076 1262 Q1039 1251 967 1245 Q1001 1397 1102 1508 Q1203 1619 1391 1660 Q1392 1647 1391 1637 Q1390 1627 1388 1617 Z " />
<glyph glyph-name="Ograve" unicode="&#xd2;" horiz-adv-x="1479" d="M608 35 Q881 35 1068 404 Q1219 701 1219 955 Q1219 1112 1151 1200.5 Q1083 1289 946 1289 Q682 1289 496 936 Q339 639 339 363 Q339 201 410 118 Q481 35 608 35 Z M951 1362 Q1167 1362 1300 1222 Q1433 1082 1433 879 Q1433 521 1167 240 Q905 -35 586 -35 Q384 -35 251 91 Q118 217 118 450 Q118 781 381 1071 Q645 1362 951 1362 Z M808 1815 Q833 1815 851 1801 Q869 1787 884 1768 L1121 1462 L1060 1462 L773 1680 Q756 1693 744.5 1708 Q733 1723 733 1745 Q733 1774 753 1794.5 Q773 1815 808 1815 Z " />
<glyph glyph-name="Uacute" unicode="&#xda;" horiz-adv-x="1479" d="M395 1090 Q406 1128 411 1152 Q419 1191 419 1217 Q419 1269 381 1284 Q343 1299 260 1303 L260 1336 L820 1336 L820 1303 Q736 1296 700 1276 Q639 1243 613 1152 L459 606 Q435 523 419 455 Q392 344 392 295 Q392 141 524 78 Q593 45 668 45 Q848 45 952.5 154.5 Q1057 264 1118 493 L1284 1104 Q1295 1145 1299 1168 Q1303 1191 1303 1208 Q1303 1265 1255 1286 Q1227 1299 1159 1303 L1159 1336 L1566 1336 L1566 1303 Q1475 1284 1442.5 1239.5 Q1410 1195 1353 1000 L1204 484 Q1133 200 1005 80 Q876 -40 643 -40 Q461 -40 333.5 58 Q206 156 206 310 Q206 360 223 445.5 Q240 531 270 640 L395 1090 Z M1319 1711 Q1319 1689 1308 1675.5 Q1297 1662 1283 1653 L933 1435 L861 1435 L1193 1762 Q1202 1771 1217 1777 Q1232 1783 1246 1783 Q1274 1783 1296.5 1762.5 Q1319 1742 1319 1711 Z " />
<glyph glyph-name="Ucircumflex" unicode="&#xdb;" horiz-adv-x="1479" d="M395 1090 Q406 1128 411 1152 Q419 1191 419 1217 Q419 1269 381 1284 Q343 1299 260 1303 L260 1336 L820 1336 L820 1303 Q736 1296 700 1276 Q639 1243 613 1152 L459 606 Q435 523 419 455 Q392 344 392 295 Q392 141 524 78 Q593 45 668 45 Q848 45 952.5 154.5 Q1057 264 1118 493 L1284 1104 Q1295 1145 1299 1168 Q1303 1191 1303 1208 Q1303 1265 1255 1286 Q1227 1299 1159 1303 L1159 1336 L1566 1336 L1566 1303 Q1475 1284 1442.5 1239.5 Q1410 1195 1353 1000 L1204 484 Q1133 200 1005 80 Q876 -40 643 -40 Q461 -40 333.5 58 Q206 156 206 310 Q206 360 223 445.5 Q240 531 270 640 L395 1090 Z M1226 1435 L1057 1648 L778 1435 L697 1435 L1019 1781 L1119 1781 L1299 1435 L1226 1435 Z " />
<glyph glyph-name="Ugrave" unicode="&#xd9;" horiz-adv-x="1479" d="M395 1090 Q406 1128 411 1152 Q419 1191 419 1217 Q419 1269 381 1284 Q343 1299 260 1303 L260 1336 L820 1336 L820 1303 Q736 1296 700 1276 Q639 1243 613 1152 L459 606 Q435 523 419 455 Q392 344 392 295 Q392 141 524 78 Q593 45 668 45 Q848 45 952.5 154.5 Q1057 264 1118 493 L1284 1104 Q1295 1145 1299 1168 Q1303 1191 1303 1208 Q1303 1265 1255 1286 Q1227 1299 1159 1303 L1159 1336 L1566 1336 L1566 1303 Q1475 1284 1442.5 1239.5 Q1410 1195 1353 1000 L1204 484 Q1133 200 1005 80 Q876 -40 643 -40 Q461 -40 333.5 58 Q206 156 206 310 Q206 360 223 445.5 Q240 531 270 640 L395 1090 Z M816 1788 Q841 1788 859 1774 Q877 1760 892 1741 L1129 1435 L1068 1435 L781 1653 Q764 1666 752.5 1681 Q741 1696 741 1718 Q741 1747 761 1767.5 Q781 1788 816 1788 Z " />
<glyph glyph-name="dotlessi" unicode="&#x131;" horiz-adv-x="569" d="M464.5 906.5 Q470 903 469 898 L267 184 Q253 127 253 116 Q253 101 259 90 Q264 78 284 78 Q318 78 374 137 Q407 172 455 237 L481 215 L471 201 Q396 96 347 50 Q270 -22 197 -22 Q154 -22 125.5 14 Q97 50 97 99 Q97 128 101 149.5 Q105 171 116 213 L256 727 Q259 739 261 749 Q263 759 263 769 Q263 805 236.5 813.5 Q210 822 132 822 L132 855 Q215 865 251.5 870.5 Q288 876 325 882 Q373 890 416 900 Q459 910 464.5 906.5 Z " />
<glyph glyph-name="circumflex" unicode="&#x2c6;" horiz-adv-x="682" d="M647 1007 L478 1220 L199 1007 L118 1007 L440 1353 L540 1353 L720 1007 L647 1007 Z " />
<glyph glyph-name="tilde" unicode="&#x2dc;" horiz-adv-x="682" d="M149 1059 Q168 1153 216 1214 Q264 1275 350 1275 Q417 1275 518.5 1231 Q620 1187 656 1187 Q706 1187 732 1219 Q747 1237 760 1277 L820 1277 Q803 1183 750.5 1123.5 Q698 1064 623 1064 Q596 1064 564.5 1073.5 Q533 1083 445 1116 L376 1142 Q360 1148 346 1151 Q332 1154 315 1154 Q267 1154 247 1131 Q227 1108 208 1059 L149 1059 Z " />
<glyph glyph-name="overscore" unicode="&#xaf;" horiz-adv-x="682" d="M146 1090 L170 1194 L786 1194 L763 1090 L146 1090 Z " />
<glyph glyph-name="breve" unicode="&#x2d8;" horiz-adv-x="682" d="M244 1332 Q243 1264 293 1196 Q343 1128 467 1128 Q578 1128 644 1192 Q710 1256 741 1332 L801 1332 Q782 1234 728 1153 Q629 1006 453 1006 Q284 1006 222 1129 Q188 1197 184 1332 L244 1332 Z " />
<glyph glyph-name="dotaccent" unicode="&#x2d9;" horiz-adv-x="682" d="M374 1142 Q374 1183 403 1212.5 Q432 1242 474 1242 Q516 1242 546 1212.5 Q576 1183 576 1142 Q576 1099 546 1069.5 Q516 1040 475 1040 Q435 1040 404.5 1068.5 Q374 1097 374 1142 Z " />
<glyph glyph-name="ring" unicode="&#x2da;" horiz-adv-x="682" d="M215 1216 Q215 1163 252 1126.5 Q289 1090 341 1090 Q393 1090 429.5 1127 Q466 1164 466 1216 Q466 1268 429.5 1304.5 Q393 1341 341 1341 Q289 1341 252 1304.5 Q215 1268 215 1216 Z M132 1216 Q132 1302 193.5 1363 Q255 1424 341 1424 Q427 1424 488 1363 Q549 1302 549 1216 Q549 1129 488 1068 Q427 1007 341 1007 Q254 1007 193 1068 Q132 1129 132 1216 Z " />
<glyph glyph-name="cedilla" unicode="&#xb8;" horiz-adv-x="682" d="M90 0 L168 0 L78 -138 Q93 -134 102.5 -132.5 Q112 -131 127 -131 Q207 -131 251.5 -170 Q296 -209 296 -269 Q296 -354 225.5 -400 Q155 -446 47 -446 Q12 -446 -46 -433.5 Q-104 -421 -140 -403 L-105 -344 Q-49 -363 -26 -369 Q-3 -375 30 -375 Q97 -375 127 -339 Q147 -316 147 -286 Q147 -249 123.5 -225.5 Q100 -202 51 -202 Q38 -202 24 -205 Q10 -208 -17 -216 L-36 -200 L90 0 Z " />
<glyph glyph-name="hungarumlaut" unicode="&#x2dd;" horiz-adv-x="682" d="M889 1289 Q889 1261 872.5 1240 Q856 1219 827 1201 L512 1002 L429 1002 L730 1306 Q751 1328 774 1341 Q797 1354 820 1354 Q851 1354 870 1333.5 Q889 1313 889 1289 Z M414 1306 Q440 1336 454.5 1346 Q469 1356 492 1356 Q533 1356 549 1331 Q565 1306 565 1287 Q565 1264 547.5 1239.5 Q530 1215 512 1201 L248 1003 L165 1003 L414 1306 Z " />
<glyph glyph-name="ogonek" unicode="&#x2db;" horiz-adv-x="682" d="M701 92 Q669 48 640 -37 Q611 -122 611 -175 Q611 -233 647.5 -268.5 Q684 -304 734 -304 Q766 -304 804 -289 Q827 -279 862 -259 L862 -375 Q819 -400 773.5 -413.5 Q728 -427 682 -427 Q595 -427 533 -372 Q471 -317 471 -237 Q471 -181 494 -125 Q538 -17 658 92 L701 92 Z " />
<glyph glyph-name="caron" unicode="&#x2c7;" horiz-adv-x="682" d="M192 1353 L267 1353 L452 1137 L744 1353 L817 1353 L483 1007 L388 1007 L192 1353 Z " />
<glyph glyph-name="Lslash" unicode="&#x141;" horiz-adv-x="1139" d="M-19 33 Q55 40 82 59 Q122 89 149 184 L263 576 L4 433 L30 554 L291 699 L400 1090 Q406 1110 415 1150 Q424 1190 424 1212 Q424 1262 389.5 1281.5 Q355 1301 265 1303 L265 1336 L824 1336 L824 1303 Q741 1296 705 1276 Q645 1243 618 1152 L521 817 L858 983 L846 881 L490 694 L367 246 Q356 205 351 182.5 Q346 160 346 144 Q346 118 362 103.5 Q378 89 412 82 Q440 77 489 75 Q518 74 586 74 Q795 74 904 129.5 Q1013 185 1104 379 L1144 367 L1026 0 L-19 0 L-19 33 Z " />
<glyph glyph-name="lslash" unicode="&#x142;" horiz-adv-x="569" d="M82 86 Q82 103 89 137 Q96 171 109 213 L237 628 L-60 445 L-60 554 L251 746 Q269 814 295 902 Q321 990 331 1025 Q359 1128 371 1202 Q377 1244 377 1265 Q377 1296 348.5 1302.5 Q320 1309 241 1308 L241 1341 Q286 1347 344.5 1355 Q403 1363 421 1366 Q478 1376 557 1396 Q564 1396 571 1386 L417 848 L654 995 L654 884 L400 727 L338 501 Q355 568 286 303 Q241 130 241 113 Q241 94 249 81 Q257 68 273 68 Q310 68 368 132 Q426 196 466 256 L493 237 Q406 108 358 60 Q276 -22 190 -22 Q130 -22 106 12.5 Q82 47 82 86 Z " />
<glyph glyph-name="Scaron" unicode="&#x160;" horiz-adv-x="1024" d="M104 419 L143 414 Q142 379 142 373 Q142 217 228.5 122.5 Q315 28 440 28 Q566 28 635 113 Q704 198 704 299 Q704 337 691 379 Q671 444 625 495 L497 635 Q349 797 307 867 Q265 937 265 1019 Q265 1145 359 1251.5 Q453 1358 635 1358 Q716 1358 802 1330.5 Q888 1303 905 1303 Q938 1303 959 1321.5 Q980 1340 993 1360 L1040 1360 L957 952 L922 957 Q917 1103 885 1170 Q827 1289 666 1289 Q567 1289 505 1232.5 Q443 1176 443 1091 Q443 1022 471 975 Q499 928 578 843 L763 644 Q813 590 847 521.5 Q881 453 881 362 Q881 202 769.5 78.5 Q658 -45 472 -45 Q375 -45 275.5 -7.5 Q176 30 152 30 Q116 30 100 13 Q84 -4 71 -38 L35 -38 L104 419 Z M449 1808 L524 1808 L709 1592 L1001 1808 L1074 1808 L740 1462 L645 1462 L449 1808 Z " />
<glyph glyph-name="scaron" unicode="&#x161;" horiz-adv-x="797" d="M73 298 L106 298 Q128 177 158 121 Q213 18 322 18 Q383 18 424.5 61 Q466 104 466 175 Q466 219 455.5 247 Q445 275 429 298 L346 421 Q271 533 252 571 Q223 628 223 685 Q223 772 285.5 838.5 Q348 905 463 905 Q512 905 575 886.5 Q638 868 661 868 Q686 868 698 878 Q710 888 720 905 L749 905 L708 621 L675 621 Q662 718 636 767 Q588 858 484 858 Q440 858 405.5 830.5 Q371 803 371 750 Q371 709 386.5 678 Q402 647 457 568 L528 466 Q583 387 606 337 Q629 287 629 229 Q629 121 537 47 Q445 -27 318 -27 Q277 -27 201 -10 Q125 7 113 7 Q93 7 83.5 -2 Q74 -11 66 -29 L33 -29 L73 298 Z M285 1353 L360 1353 L545 1137 L837 1353 L910 1353 L576 1007 L481 1007 L285 1353 Z " />
<glyph glyph-name="Zcaron" unicode="&#x17d;" horiz-adv-x="1139" d="M-15 28 L969 1261 L618 1261 Q409 1261 320 1202 Q261 1163 189 1028 L151 1038 L246 1336 L1242 1336 L1242 1308 L251 73 L580 73 Q834 73 924 132 Q1014 191 1092 350 L1133 343 L1021 0 L-15 0 L-15 28 Z M506 1812 L581 1812 L766 1596 L1058 1812 L1131 1812 L797 1466 L702 1466 L506 1812 Z " />
<glyph glyph-name="zcaron" unicode="&#x17e;" horiz-adv-x="797" d="M777 853 L184 149 Q248 136 285 118 Q349 87 398 23 L459 -57 Q481 -86 510 -106 Q539 -126 573 -126 Q598 -126 614 -116 Q630 -106 630 -92 Q630 -85 616 -55.5 Q602 -26 602 0 Q602 31 623.5 47.5 Q645 64 671 64 Q708 64 726 41 Q744 18 744 -17 Q744 -71 687.5 -119 Q631 -167 550 -167 Q504 -167 460 -151 Q434 -141 398 -121 L277 -53 Q218 -20 180.5 -5.5 Q143 9 104 9 Q77 9 60 1 Q43 -7 14 -29 L-8 -10 L630 753 L331 753 Q263 753 228.5 729 Q194 705 165 632 L132 640 L196 877 L777 877 L777 853 Z M285 1353 L360 1353 L545 1137 L837 1353 L910 1353 L576 1007 L481 1007 L285 1353 Z " />
<glyph glyph-name="brokenbar" unicode="&#xa6;" horiz-adv-x="563" d="M222 0 L222 535 L343 535 L343 0 L222 0 Z M343 858 L222 858 L222 1393 L343 1393 L343 858 Z " />
<glyph glyph-name="Eth" unicode="&#xd0;" horiz-adv-x="1479" d="M-19 33 Q53 39 80 59 Q122 89 149 184 L289 689 L66 689 L99 782 L308 782 L400 1090 Q408 1116 415 1144 Q424 1185 424 1211 Q424 1261 391 1281 Q358 1301 265 1303 L265 1336 L794 1336 Q974 1336 1080.5 1302 Q1187 1268 1273 1185 Q1335 1125 1369 1062 Q1434 944 1434 791 Q1434 454 1178 228 Q919 0 523 0 L-19 0 L-19 33 Z M486 65 Q932 65 1113 433 Q1206 624 1206 822 Q1206 1013 1112 1144 Q1018 1275 773 1275 Q705 1275 677 1262 Q649 1249 640 1216 L516 782 L815 782 L786 689 L488 689 L360 213 Q352 183 350 167.5 Q348 152 348 141 Q348 97 375 81 Q402 65 486 65 Z " />
<glyph glyph-name="eth" unicode="&#xf0;" horiz-adv-x="1024" d="M370 23 Q534 23 661 257 Q772 463 772 654 Q772 732 753 778 Q718 862 622 862 Q467 862 337 637 Q218 431 218 240 Q218 148 237 103 Q271 23 370 23 Z M632 907 Q678 907 702 902 Q726 897 758 884 Q750 934 721 1011.5 Q692 1089 661 1137 L485 1078 L438 1125 L630 1192 Q579 1276 545.5 1317.5 Q512 1359 452 1422 L509 1462 L552 1422 Q589 1381 638 1328 Q666 1296 718 1232 L907 1294 L955 1242 L760 1175 Q847 1044 893 911 Q939 778 939 654 Q939 408 766 197 Q584 -24 349 -24 Q211 -24 128 54 Q45 132 45 276 Q45 507 232 717 Q418 907 632 907 Z " />
<glyph glyph-name="Yacute" unicode="&#xdd;" horiz-adv-x="1139" d="M158 33 Q249 40 287 59 Q347 91 374 184 L500 618 L341 1168 Q316 1255 291 1274.5 Q266 1294 187 1303 L187 1336 L675 1336 L675 1303 Q601 1299 573 1289 Q527 1272 527 1226 Q527 1211 533 1184 Q539 1157 542 1149 L666 711 L888 981 Q963 1072 995 1119 Q1050 1198 1050 1238 Q1050 1278 1009 1292 Q984 1300 910 1303 L910 1336 L1334 1336 L1334 1303 Q1275 1296 1241.5 1273 Q1208 1250 1152 1180 L704 625 L592 246 Q578 199 573 170 Q568 141 568 123 Q568 65 606.5 50.5 Q645 36 751 33 L751 0 L158 0 L158 33 Z M1054 1709 Q1054 1687 1043 1673.5 Q1032 1660 1018 1651 L668 1433 L596 1433 L928 1760 Q937 1769 952 1775 Q967 1781 981 1781 Q1009 1781 1031.5 1760.5 Q1054 1740 1054 1709 Z " />
<glyph glyph-name="yacute" unicode="&#xfd;" horiz-adv-x="909" d="M-53 -332 Q-53 -300 -33 -277 Q-13 -254 25 -254 Q50 -254 69 -263.5 Q88 -273 109 -291 L123 -301 Q129 -306 136.5 -308.5 Q144 -311 153 -311 Q202 -311 310.5 -181.5 Q419 -52 419 7 Q419 63 381.5 227 Q344 391 309 519 Q260 699 219.5 763 Q179 827 100 827 Q94 827 79.5 825.5 Q65 824 30 820 L30 853 L303 905 L324 907 Q349 910 420 682 Q484 477 500 384 L540 146 Q645 322 694 416 Q790 601 790 675 Q790 692 784 708.5 Q778 725 756 737 L739 746 Q723 754 701.5 776 Q680 798 680 835 Q680 866 700 887 Q720 908 760 908 Q810 908 841 878.5 Q872 849 872 778 Q872 671 755 434 Q665 253 554 83 Q415 -129 315 -244 Q156 -425 51 -425 Q10 -425 -21.5 -400 Q-53 -375 -53 -332 Z M900 1283 Q900 1261 889 1247.5 Q878 1234 864 1225 L514 1007 L442 1007 L774 1334 Q783 1343 798 1349 Q813 1355 827 1355 Q855 1355 877.5 1334.5 Q900 1314 900 1283 Z " />
<glyph glyph-name="Thorn" unicode="&#xde;" horiz-adv-x="1251" d="M1021 844 Q1021 958 942 1000 Q863 1042 737 1042 Q650 1042 628.5 1025.5 Q607 1009 585 933 L438 431 L510 428 Q808 428 941 614 Q1021 726 1021 844 Z M0 0 L0 37 Q84 33 113.5 71.5 Q143 110 182 246 L433 1114 Q446 1160 451 1183.5 Q456 1207 456 1224 Q456 1269 425.5 1290 Q395 1311 315 1317 L324 1355 L841 1355 L832 1315 Q738 1300 701.5 1266.5 Q665 1233 632 1114 L834 1114 Q919 1114 1045 1085 Q1242 1025 1242 851 Q1242 738 1172 623 Q1102 508 981 443 Q863 379 717 360 Q626 348 417 348 L393 272 Q381 236 371 199 Q361 162 361 140 Q361 76 411 54 Q440 41 521 37 L516 0 L0 0 Z " />
<glyph glyph-name="thorn" unicode="&#xfe;" horiz-adv-x="1024" d="M776 639 Q776 704 760 742 Q729 815 644 815 Q583 815 520 774 Q415 705 359 544 Q325 448 282 296 Q239 144 239 95 Q239 45 288 26 Q313 16 345 16 Q513 16 650 234 Q776 436 776 639 Z M-157 -389 Q-97 -389 -66.5 -366.5 Q-36 -344 -22 -290 L372 1211 Q376 1224 377 1237.5 Q378 1251 378 1260 Q378 1294 350.5 1301.5 Q323 1309 241 1308 L241 1341 L311 1349 Q333 1351 364.5 1356 Q396 1361 452 1372 Q458 1373 500.5 1384.5 Q543 1396 561 1396 L571 1389 L379 682 Q447 772 504 819 Q607 905 718 905 Q831 905 895.5 838.5 Q960 772 960 635 Q960 395 758 184 Q560 -24 348 -24 Q309 -24 280 -15.5 Q251 -7 210 11 L196 -48 Q172 -151 162 -195 Q136 -310 136 -325 Q136 -366 162 -377 Q188 -388 265 -392 L265 -422 L-157 -422 L-157 -389 Z " />
<glyph glyph-name="minus" unicode="&#x2212;" horiz-adv-x="1382" d="M177 573 L1204 573 L1204 452 L177 452 L177 573 Z " />
<glyph glyph-name="multiply" unicode="&#xd7;" horiz-adv-x="1382" d="M290 912 L394 1000 L707 599 L1193 1000 L1259 912 L777 514 L1090 116 L986 28 L670 426 L187 28 L121 116 L604 514 L290 912 Z " />
<glyph glyph-name="onesuperior" unicode="&#xb9;" horiz-adv-x="614" d="M111 559 Q180 565 206 574 Q249 588 265 643 L443 1242 Q447 1255 449.5 1265.5 Q452 1276 452 1283 Q452 1315 436.5 1320 Q421 1325 327 1320 L327 1339 Q354 1342 440 1358 Q526 1374 552 1379 L571 1384 L583 1386 L592 1381 Q591 1373 590 1367 L372 618 Q369 609 367 597 Q367 574 406 566 Q430 560 481 559 L481 542 L111 542 L111 559 Z " />
<glyph glyph-name="twosuperior" unicode="&#xb2;" horiz-adv-x="614" d="M61 564 Q347 843 440 951 Q533 1059 533 1140 Q533 1192 494 1243.5 Q455 1295 363 1295 Q301 1295 256.5 1262 Q212 1229 180 1178 L151 1187 Q194 1296 260.5 1341 Q327 1386 429 1386 Q535 1386 591.5 1320 Q648 1254 648 1183 Q648 1109 602.5 1044 Q557 979 450 881 Q429 861 325.5 764.5 Q222 668 194 642 L194 637 Q215 637 290 636 Q365 635 403 636 Q495 638 524.5 649.5 Q554 661 578 715 L599 706 L535 542 L61 542 L61 564 Z " />
<glyph glyph-name="threesuperior" unicode="&#xb3;" horiz-adv-x="614" d="M123 656 Q138 656 156 651 Q174 646 187 637 L218 616 Q243 599 262.5 590.5 Q282 582 312 582 Q369 582 424 634.5 Q479 687 479 782 Q479 886 419 940.5 Q359 995 259 995 Q253 995 249 994.5 Q245 994 232 993 L229 1014 Q342 1024 445.5 1076 Q549 1128 549 1218 Q549 1263 520.5 1297.5 Q492 1332 433 1332 Q388 1332 343.5 1305 Q299 1278 284 1251 L260 1256 Q291 1320 353.5 1353 Q416 1386 476 1386 Q553 1386 609.5 1340 Q666 1294 666 1224 Q666 1153 585 1101 Q541 1073 459 1045 L459 1040 Q516 1013 541 985 Q585 935 585 846 Q585 729 483.5 631 Q382 533 221 533 Q160 533 127 543 Q66 560 66 610 Q66 631 81 643.5 Q96 656 123 656 Z " />
<glyph glyph-name="onehalf" unicode="&#xbd;" horiz-adv-x="1536" d="M815 26 Q1106 310 1196.5 415.5 Q1287 521 1287 602 Q1287 657 1246.5 707 Q1206 757 1117 757 Q1048 757 993 711 Q964 686 933 640 L905 649 Q941 741 1009.5 794.5 Q1078 848 1184 848 Q1289 848 1345 782 Q1401 716 1401 639 Q1401 567 1352.5 498 Q1304 429 1204 343 Q1183 322 1093 238 Q1003 154 948 104 L948 99 Q972 99 1044.5 98 Q1117 97 1157 98 Q1246 100 1277 111.5 Q1308 123 1332 177 L1353 168 L1289 4 L815 4 L815 26 Z M1137 1386 L1242 1386 L350 -15 L246 -15 L1137 1386 Z M104 549 Q175 556 201 565 Q242 579 257 628 L436 1232 Q441 1249 443 1257.5 Q445 1266 445 1274 Q445 1297 433 1305 Q421 1313 384 1313 Q374 1313 366 1312.5 Q358 1312 320 1310 L320 1329 Q556 1370 545 1370 L564 1374 Q570 1376 576 1377 L585 1372 Q584 1364 583 1358 L365 609 Q363 600 360 587 Q360 565 387 558.5 Q414 552 474 549 L474 533 L104 533 L104 549 Z " />
<glyph glyph-name="onequarter" unicode="&#xbc;" horiz-adv-x="1536" d="M116 549 Q187 556 213 565 Q254 579 269 629 L448 1232 Q453 1249 455 1257.5 Q457 1266 457 1274 Q457 1297 445 1305 Q433 1313 395 1313 Q385 1313 377 1312.5 Q369 1312 331 1310 L331 1329 Q342 1331 557 1370 L576 1374 Q582 1376 588 1377 L597 1372 L594 1358 L376 609 Q374 602 373 597.5 Q372 593 372 588 Q372 566 398.5 559 Q425 552 485 549 L485 533 L116 533 L116 549 Z M1334 834 L1391 834 L1227 289 L1355 289 L1336 208 L1204 208 L1142 -10 L1038 -10 L1102 210 L753 210 L779 296 L1334 834 Z M1249 692 L1244 692 L839 296 L839 289 L1121 289 L1249 692 Z M1310 1386 L391 -15 L286 -15 L1206 1386 L1310 1386 Z " />
<glyph glyph-name="threequarters" unicode="&#xbe;" horiz-adv-x="1536" d="M1325 1386 L405 -15 L301 -15 L1220 1386 L1325 1386 Z M137 647 Q152 647 170.5 642 Q189 637 201 628 L232 606 Q251 592 274 582 Q297 572 329 572 Q380 572 436.5 624 Q493 676 493 774 Q493 880 430.5 933 Q368 986 271 986 Q265 986 259 985.5 Q253 985 246 983 L244 1005 Q374 1017 469 1073 Q564 1129 564 1204 Q564 1252 535.5 1287 Q507 1322 448 1322 Q399 1322 356.5 1296 Q314 1270 298 1242 L274 1246 Q310 1318 364 1347.5 Q418 1377 491 1377 Q568 1377 624 1330.5 Q680 1284 680 1214 Q680 1146 605 1096 Q563 1067 474 1031 Q532 1001 556 973 Q599 923 599 836 Q599 715 495 619 Q391 523 236 523 Q172 523 137 534 Q80 553 80 603 Q80 619 94.5 633 Q109 647 137 647 Z M1348 834 L1405 834 L1242 289 L1370 289 L1351 208 L1218 208 L1156 -10 L1052 -10 L1116 210 L768 210 L794 296 L1348 834 Z M1263 692 L1258 692 L853 296 L853 289 L1135 289 L1263 692 Z " />
<glyph glyph-name="franc" unicode="&#x20a3;" horiz-adv-x="1024" d="M836 476 L789 476 Q793 526 793.5 536.5 Q794 547 794 559 Q794 612 769 636 Q729 673 618 673 L402 673 L336 436 L632 436 L609 355 L312 355 L274 222 Q265 193 260.5 167.5 Q256 142 256 117 Q256 72 302 55 Q330 44 407 37 L398 0 L-138 0 L-128 37 Q-6 48 34 82.5 Q74 117 111 246 L142 355 L-38 355 L-15 436 L165 436 L365 1140 Q373 1168 377.5 1191.5 Q382 1215 382 1235 Q382 1290 343 1309 Q318 1321 237 1327 L248 1365 L1220 1365 L1142 1069 L1085 1069 Q1089 1098 1090.5 1114.5 Q1092 1131 1092 1148 Q1092 1237 1039 1262 Q986 1287 839 1287 L640 1287 Q598 1287 583 1272 Q568 1257 557 1218 L426 756 L642 756 Q770 756 817 794 Q864 832 924 952 L971 952 L836 476 Z " />
<glyph glyph-name="Gbreve" unicode="&#x11e;" horiz-adv-x="1479" d="M948 1365 Q994 1365 1053 1356 Q1112 1347 1182 1322 Q1235 1304 1254.5 1299 Q1274 1294 1294 1294 Q1344 1294 1370 1312 Q1396 1330 1419 1362 L1450 1355 L1348 952 L1313 957 Q1297 1080 1247 1155 Q1153 1294 943 1294 Q654 1294 476 987 Q331 736 331 463 Q331 272 434.5 155 Q538 38 730 38 Q797 38 876 61.5 Q955 85 983 132 Q1001 162 1026 252 Q1042 309 1066 412 L1088 504 Q1090 512 1091 520.5 Q1092 529 1092 538 Q1092 583 1064.5 595.5 Q1037 608 933 621 L933 654 L1479 654 L1479 621 Q1375 611 1338.5 585 Q1302 559 1280 474 L1180 90 Q1101 38 976 0 Q851 -38 705 -38 Q412 -38 248 138 Q104 293 104 521 Q104 821 331 1079 Q584 1365 948 1365 Z M719 1792 Q718 1724 768 1656 Q818 1588 942 1588 Q1053 1588 1119 1652 Q1185 1716 1216 1792 L1276 1792 Q1257 1694 1203 1613 Q1104 1466 928 1466 Q759 1466 697 1589 Q663 1657 659 1792 L719 1792 Z " />
<glyph glyph-name="gbreve" unicode="&#x11f;" horiz-adv-x="1024" d="M355 512 Q355 450 374 413 Q406 352 489 352 Q579 352 649.5 466.5 Q720 581 720 719 Q720 785 691 822.5 Q662 860 604 860 Q492 860 423.5 741 Q355 622 355 512 Z M390 -380 Q509 -380 587.5 -323 Q666 -266 666 -187 Q666 -127 625 -86 Q603 -64 554 -39 Q513 -19 415.5 18.5 Q318 56 303 56 Q277 56 202 -13.5 Q127 -83 127 -171 Q127 -304 242 -354 Q302 -380 390 -380 Z M16 -197 Q16 -122 73.5 -54.5 Q131 13 256 80 Q231 96 215 113.5 Q199 131 199 160 Q199 201 256 254 Q288 284 360 333 Q296 357 250 401 Q194 460 194 554 Q194 705 312 805 Q430 905 604 905 Q695 905 758 876.5 Q821 848 832 829 L967 829 L967 749 L865 749 Q871 727 874 709 Q877 691 877 658 Q877 496 751.5 403 Q626 310 481 310 Q466 310 453 311.5 Q440 313 421 317 Q406 317 380 288 Q353 259 353 236 Q353 202 573 120 Q792 37 792 -123 Q792 -243 682 -333.5 Q572 -424 350 -424 Q196 -424 106 -358 Q16 -292 16 -197 Z M471 1332 Q470 1264 520 1196 Q570 1128 694 1128 Q805 1128 871 1192 Q937 1256 968 1332 L1028 1332 Q1009 1234 955 1153 Q856 1006 680 1006 Q511 1006 449 1129 Q415 1197 411 1332 L471 1332 Z " />
<glyph glyph-name="Idot" unicode="&#x130;" horiz-adv-x="682" d="M-19 33 Q53 39 80 59 Q122 89 149 184 L400 1090 Q414 1145 419 1167.5 Q424 1190 424 1212 Q424 1261 392 1279.5 Q360 1298 279 1303 L279 1336 L786 1336 L786 1303 Q705 1292 674.5 1268.5 Q644 1245 618 1152 L367 246 Q354 198 348.5 167 Q343 136 343 120 Q343 70 378.5 53 Q414 36 483 33 L483 0 L-19 0 L-19 33 Z M493 1568 Q493 1609 522 1638.5 Q551 1668 593 1668 Q635 1668 665 1638.5 Q695 1609 695 1568 Q695 1525 665 1495.5 Q635 1466 594 1466 Q554 1466 523.5 1494.5 Q493 1523 493 1568 Z " />
<glyph glyph-name="Scedilla" unicode="&#x15e;" horiz-adv-x="1024" d="M104 419 L143 414 Q142 379 142 373 Q142 217 228.5 122.5 Q315 28 440 28 Q566 28 635 113 Q704 198 704 299 Q704 337 691 379 Q671 444 625 495 L497 635 Q349 797 307 867 Q265 937 265 1019 Q265 1145 359 1251.5 Q453 1358 635 1358 Q716 1358 802 1330.5 Q888 1303 905 1303 Q938 1303 959 1321.5 Q980 1340 993 1360 L1040 1360 L957 952 L922 957 Q917 1103 885 1170 Q827 1289 666 1289 Q567 1289 505 1232.5 Q443 1176 443 1091 Q443 1022 471 975 Q499 928 578 843 L763 644 Q813 590 847 521.5 Q881 453 881 362 Q881 202 769.5 78.5 Q658 -45 472 -45 Q451 -45 399 -41 L335 -138 Q350 -134 359.5 -132.5 Q369 -131 384 -131 Q464 -131 508.5 -170 Q553 -209 553 -269 Q553 -354 482.5 -400 Q412 -446 304 -446 Q269 -446 211 -433.5 Q153 -421 117 -403 L152 -344 Q208 -363 231 -369 Q254 -375 287 -375 Q354 -375 384 -339 Q404 -316 404 -286 Q404 -249 380.5 -225.5 Q357 -202 308 -202 Q295 -202 281 -205 Q267 -208 240 -216 L221 -200 L329 -29 Q303 -20 239.5 5 Q176 30 152 30 Q116 30 100 13 Q84 -4 71 -38 L35 -38 L104 419 Z " />
<glyph glyph-name="scedilla" unicode="&#x15f;" horiz-adv-x="797" d="M73 298 L106 298 Q128 177 158 121 Q213 18 322 18 Q383 18 424.5 61 Q466 104 466 175 Q466 219 455.5 247 Q445 275 429 298 L346 421 Q271 533 252 571 Q223 628 223 685 Q223 772 285.5 838.5 Q348 905 463 905 Q512 905 575 886.5 Q638 868 661 868 Q686 868 698 878 Q710 888 720 905 L749 905 L708 621 L675 621 Q662 718 636 767 Q588 858 484 858 Q440 858 405.5 830.5 Q371 803 371 750 Q371 709 386.5 678 Q402 647 457 568 L528 466 Q583 387 606 337 Q629 287 629 229 Q629 121 537 47 Q445 -27 322 -27 L251 -138 Q266 -134 275.5 -132.5 Q285 -131 300 -131 Q380 -131 424.5 -170 Q469 -209 469 -269 Q469 -354 398.5 -400 Q328 -446 220 -446 Q185 -446 127 -433.5 Q69 -421 33 -403 L68 -344 Q124 -363 147 -369 Q170 -375 203 -375 Q270 -375 300 -339 Q320 -316 320 -286 Q320 -249 296.5 -225.5 Q273 -202 224 -202 Q211 -202 197 -205 Q183 -208 156 -216 L137 -200 L251 -20 Q217 -15 171 -4 Q125 7 113 7 Q93 7 83.5 -2 Q74 -11 66 -29 L33 -29 L73 298 Z " />
<glyph glyph-name="Cacute" unicode="&#x106;" horiz-adv-x="1366" d="M943 1362 Q1032 1362 1136 1338 Q1240 1314 1262 1314 Q1299 1314 1314 1326 Q1329 1338 1339 1360 L1381 1360 L1306 952 L1270 957 Q1259 1078 1216 1152 Q1137 1289 955 1289 Q675 1289 494 1009 Q336 766 336 482 Q336 271 432 163 Q528 55 679 55 Q835 55 965 131 Q1042 177 1166 296 L1199 267 Q1087 125 945.5 43.5 Q804 -38 634 -38 Q378 -38 241 124 Q104 286 104 502 Q104 812 333 1074 Q584 1362 943 1362 Z M1262 1742 Q1262 1720 1251 1706.5 Q1240 1693 1226 1684 L876 1466 L804 1466 L1136 1793 Q1145 1802 1160 1808 Q1175 1814 1189 1814 Q1217 1814 1239.5 1793.5 Q1262 1773 1262 1742 Z " />
<glyph glyph-name="cacute" unicode="&#x107;" horiz-adv-x="909" d="M640 903 Q762 903 816 848 Q870 793 870 741 Q870 694 842 668 Q814 642 776 642 Q739 642 714 665 Q689 688 689 722 Q689 748 705.5 778 Q722 808 722 817 Q722 835 701.5 847.5 Q681 860 636 860 Q475 860 356.5 677 Q238 494 238 293 Q238 180 286 116 Q334 52 430 52 Q507 52 579.5 96.5 Q652 141 713 210 L720 218 L749 196 Q679 107 614 59 Q499 -24 359 -24 Q225 -24 142 61.5 Q59 147 59 295 Q59 522 244 713 Q427 903 640 903 Z M958 1283 Q958 1261 947 1247.5 Q936 1234 922 1225 L572 1007 L500 1007 L832 1334 Q841 1343 856 1349 Q871 1355 885 1355 Q913 1355 935.5 1334.5 Q958 1314 958 1283 Z " />
<glyph glyph-name="Ccaron" unicode="&#x10c;" horiz-adv-x="1366" d="M943 1362 Q1032 1362 1136 1338 Q1240 1314 1262 1314 Q1299 1314 1314 1326 Q1329 1338 1339 1360 L1381 1360 L1306 952 L1270 957 Q1259 1078 1216 1152 Q1137 1289 955 1289 Q675 1289 494 1009 Q336 766 336 482 Q336 271 432 163 Q528 55 679 55 Q835 55 965 131 Q1042 177 1166 296 L1199 267 Q1087 125 945.5 43.5 Q804 -38 634 -38 Q378 -38 241 124 Q104 286 104 502 Q104 812 333 1074 Q584 1362 943 1362 Z M684 1812 L759 1812 L944 1596 L1236 1812 L1309 1812 L975 1466 L880 1466 L684 1812 Z " />
<glyph glyph-name="ccaron" unicode="&#x10d;" horiz-adv-x="909" d="M640 903 Q762 903 816 848 Q870 793 870 741 Q870 694 842 668 Q814 642 776 642 Q739 642 714 665 Q689 688 689 722 Q689 748 705.5 778 Q722 808 722 817 Q722 835 701.5 847.5 Q681 860 636 860 Q475 860 356.5 677 Q238 494 238 293 Q238 180 286 116 Q334 52 430 52 Q507 52 579.5 96.5 Q652 141 713 210 L720 218 L749 196 Q679 107 614 59 Q499 -24 359 -24 Q225 -24 142 61.5 Q59 147 59 295 Q59 522 244 713 Q427 903 640 903 Z M380 1353 L455 1353 L640 1137 L932 1353 L1005 1353 L671 1007 L576 1007 L380 1353 Z " />
<glyph glyph-name="dslash" unicode="&#x111;" horiz-adv-x="1024" d="M208 232 Q208 171 236 125.5 Q264 80 331 80 Q474 80 606 310 Q730 526 730 719 Q730 780 710 820 Q690 860 629 860 Q477 860 335 614 Q208 394 208 232 Z M618 907 Q697 907 730 869 Q749 847 760 794 L837 1071 L545 1071 L569 1175 L867 1175 L874 1204 Q879 1221 880.5 1234.5 Q882 1248 882 1258 Q882 1297 867.5 1307 Q853 1317 826 1317 Q809 1317 794.5 1316 Q780 1315 756 1313 L756 1346 Q869 1361 1069 1398 L1078 1388 L1076 1377 L1023 1175 L1185 1175 L1162 1071 L995 1071 L884 658 L753 182 Q749 166 746.5 152.5 Q744 139 744 128 Q744 101 757.5 93 Q771 85 781 85 Q810 85 863 136 Q894 167 948 232 L971 210 L957 189 Q920 134 862 77 Q759 -24 677 -24 Q650 -24 628 -12 Q587 12 587 74 Q587 95 593 141 Q599 187 611 241 Q535 125 444.5 51 Q354 -23 247 -23 Q160 -23 95 39 Q30 101 30 230 Q30 448 230 678 Q429 907 618 907 Z " />
<glyph glyph-name="Amacron" unicode="&#x100;" horiz-adv-x="1251" d="M805 535 L715 1066 L410 535 L805 535 Z M-55 33 Q13 50 52.5 96 Q92 142 210 343 L808 1367 L853 1367 L1050 208 Q1069 96 1095 68.5 Q1121 41 1206 33 L1206 0 L701 0 L701 33 Q792 42 819 55 Q862 75 862 133 Q862 148 861 165 Q860 182 858 194 L817 462 L367 462 L248 232 Q235 209 225 183 Q208 137 208 106 Q208 67 234.5 51 Q261 35 329 33 L329 0 L-55 0 L-55 33 Z M550 1469 L574 1573 L1190 1573 L1167 1469 L550 1469 Z " />
<glyph glyph-name="amacron" unicode="&#x101;" horiz-adv-x="1024" d="M746 722 Q746 794 713 828 Q680 862 633 862 Q470 862 330 612 Q207 392 207 233 Q207 153 241.5 116.5 Q276 80 327 80 Q478 80 618 323 Q746 544 746 722 Z M621 907 Q700 907 743 866 Q766 844 779 808 L784 794 L806 870 Q810 883 813 887.5 Q816 892 827 893 L940 906 Q949 906 950.5 902.5 Q952 899 950 890 Q946 877 944 869.5 Q942 862 938 848 L846 490 Q816 373 795 288 Q758 134 758 112 Q758 98 765.5 91.5 Q773 85 784 85 Q793 85 803.5 91 Q814 97 829 109 L846 123 Q854 130 864 139.5 Q874 149 888 163 L950 227 L974 206 Q870 73 807 25.5 Q744 -22 687 -22 Q650 -22 629.5 4 Q609 30 609 69 Q609 105 622.5 172.5 Q636 240 649 286 Q631 256 588.5 198.5 Q546 141 484 87 Q411 22 344 -5 Q292 -23 244 -23 Q163 -23 97 43.5 Q31 110 31 232 Q31 442 219 670 Q413 907 621 907 Z M396 1013 L420 1117 L1036 1117 L1013 1013 L396 1013 Z " />
<glyph glyph-name="Abreve" unicode="&#x102;" horiz-adv-x="1251" d="M805 535 L715 1066 L410 535 L805 535 Z M-55 33 Q13 50 52.5 96 Q92 142 210 343 L808 1367 L853 1367 L1050 208 Q1069 96 1095 68.5 Q1121 41 1206 33 L1206 0 L701 0 L701 33 Q792 42 819 55 Q862 75 862 133 Q862 148 861 165 Q860 182 858 194 L817 462 L367 462 L248 232 Q235 209 225 183 Q208 137 208 106 Q208 67 234.5 51 Q261 35 329 33 L329 0 L-55 0 L-55 33 Z M656 1805 Q655 1737 705 1669 Q755 1601 879 1601 Q990 1601 1056 1665 Q1122 1729 1153 1805 L1213 1805 Q1194 1707 1140 1626 Q1041 1479 865 1479 Q696 1479 634 1602 Q600 1670 596 1805 L656 1805 Z " />
<glyph glyph-name="abreve" unicode="&#x103;" horiz-adv-x="1024" d="M746 722 Q746 794 713 828 Q680 862 633 862 Q470 862 330 612 Q207 392 207 233 Q207 153 241.5 116.5 Q276 80 327 80 Q478 80 618 323 Q746 544 746 722 Z M621 907 Q700 907 743 866 Q766 844 779 808 L784 794 L806 870 Q810 883 813 887.5 Q816 892 827 893 L940 906 Q949 906 950.5 902.5 Q952 899 950 890 Q946 877 944 869.5 Q942 862 938 848 L846 490 Q816 373 795 288 Q758 134 758 112 Q758 98 765.5 91.5 Q773 85 784 85 Q793 85 803.5 91 Q814 97 829 109 L846 123 Q854 130 864 139.5 Q874 149 888 163 L950 227 L974 206 Q870 73 807 25.5 Q744 -22 687 -22 Q650 -22 629.5 4 Q609 30 609 69 Q609 105 622.5 172.5 Q636 240 649 286 Q631 256 588.5 198.5 Q546 141 484 87 Q411 22 344 -5 Q292 -23 244 -23 Q163 -23 97 43.5 Q31 110 31 232 Q31 442 219 670 Q413 907 621 907 Z M487 1369 Q486 1301 536 1233 Q586 1165 710 1165 Q821 1165 887 1229 Q953 1293 984 1369 L1044 1369 Q1025 1271 971 1190 Q872 1043 696 1043 Q527 1043 465 1166 Q431 1234 427 1369 L487 1369 Z " />
<glyph glyph-name="Aogonek" unicode="&#x104;" horiz-adv-x="1251" d="M805 535 L715 1066 L410 535 L805 535 Z M-55 33 Q13 50 52.5 96 Q92 142 210 343 L808 1367 L853 1367 L1050 208 Q1069 96 1095 68.5 Q1121 41 1206 33 L1206 0 L701 0 L701 33 Q792 42 819 55 Q862 75 862 133 Q862 148 861 165 Q860 182 858 194 L817 462 L367 462 L248 232 Q235 209 225 183 Q208 137 208 106 Q208 67 234.5 51 Q261 35 329 33 L329 0 L-55 0 L-55 33 Z M1013 54 Q981 10 952 -75 Q923 -160 923 -213 Q923 -271 959.5 -306.5 Q996 -342 1046 -342 Q1078 -342 1116 -327 Q1139 -317 1174 -297 L1174 -413 Q1131 -438 1085.5 -451.5 Q1040 -465 994 -465 Q907 -465 845 -410 Q783 -355 783 -275 Q783 -219 806 -163 Q850 -55 970 54 L1013 54 Z " />
<glyph glyph-name="aogonek" unicode="&#x105;" horiz-adv-x="1024" d="M746 722 Q746 794 713 828 Q680 862 633 862 Q470 862 330 612 Q207 392 207 233 Q207 153 241.5 116.5 Q276 80 327 80 Q478 80 618 323 Q746 544 746 722 Z M621 907 Q700 907 743 866 Q766 844 779 808 L784 794 L806 870 Q810 883 813 887.5 Q816 892 827 893 L940 906 Q949 906 950.5 902.5 Q952 899 950 890 Q946 877 944 869.5 Q942 862 938 848 L846 490 Q816 373 795 288 Q758 134 758 112 Q758 98 765.5 91.5 Q773 85 784 85 Q793 85 803.5 91 Q814 97 829 109 L846 123 Q854 130 864 139.5 Q874 149 888 163 L950 227 L974 206 Q870 73 807 25.5 Q744 -22 687 -22 Q650 -22 629.5 4 Q609 30 609 69 Q609 105 622.5 172.5 Q636 240 649 286 Q631 256 588.5 198.5 Q546 141 484 87 Q411 22 344 -5 Q292 -23 244 -23 Q163 -23 97 43.5 Q31 110 31 232 Q31 442 219 670 Q413 907 621 907 Z M730 56 Q698 12 669 -73 Q640 -158 640 -211 Q640 -269 676.5 -304.5 Q713 -340 763 -340 Q795 -340 833 -325 Q856 -315 891 -295 L891 -411 Q848 -436 802.5 -449.5 Q757 -463 711 -463 Q624 -463 562 -408 Q500 -353 500 -273 Q500 -217 523 -161 Q567 -53 687 56 L730 56 Z " />
<glyph glyph-name="Ccircumflex" unicode="&#x108;" horiz-adv-x="1366" d="M943 1362 Q1032 1362 1136 1338 Q1240 1314 1262 1314 Q1299 1314 1314 1326 Q1329 1338 1339 1360 L1381 1360 L1306 952 L1270 957 Q1259 1078 1216 1152 Q1137 1289 955 1289 Q675 1289 494 1009 Q336 766 336 482 Q336 271 432 163 Q528 55 679 55 Q835 55 965 131 Q1042 177 1166 296 L1199 267 Q1087 125 945.5 43.5 Q804 -38 634 -38 Q378 -38 241 124 Q104 286 104 502 Q104 812 333 1074 Q584 1362 943 1362 Z M1270 1482 L1101 1695 L822 1482 L741 1482 L1063 1828 L1163 1828 L1343 1482 L1270 1482 Z " />
<glyph glyph-name="ccircumflex" unicode="&#x109;" horiz-adv-x="909" d="M640 903 Q762 903 816 848 Q870 793 870 741 Q870 694 842 668 Q814 642 776 642 Q739 642 714 665 Q689 688 689 722 Q689 748 705.5 778 Q722 808 722 817 Q722 835 701.5 847.5 Q681 860 636 860 Q475 860 356.5 677 Q238 494 238 293 Q238 180 286 116 Q334 52 430 52 Q507 52 579.5 96.5 Q652 141 713 210 L720 218 L749 196 Q679 107 614 59 Q499 -24 359 -24 Q225 -24 142 61.5 Q59 147 59 295 Q59 522 244 713 Q427 903 640 903 Z M917 983 L748 1196 L469 983 L388 983 L710 1329 L810 1329 L990 983 L917 983 Z " />
<glyph glyph-name="Cdotaccent" unicode="&#x10a;" horiz-adv-x="1366" d="M943 1362 Q1032 1362 1136 1338 Q1240 1314 1262 1314 Q1299 1314 1314 1326 Q1329 1338 1339 1360 L1381 1360 L1306 952 L1270 957 Q1259 1078 1216 1152 Q1137 1289 955 1289 Q675 1289 494 1009 Q336 766 336 482 Q336 271 432 163 Q528 55 679 55 Q835 55 965 131 Q1042 177 1166 296 L1199 267 Q1087 125 945.5 43.5 Q804 -38 634 -38 Q378 -38 241 124 Q104 286 104 502 Q104 812 333 1074 Q584 1362 943 1362 Z M893 1622 Q893 1663 922 1692.5 Q951 1722 993 1722 Q1035 1722 1065 1692.5 Q1095 1663 1095 1622 Q1095 1579 1065 1549.5 Q1035 1520 994 1520 Q954 1520 923.5 1548.5 Q893 1577 893 1622 Z " />
<glyph glyph-name="cdotaccent" unicode="&#x10b;" horiz-adv-x="909" d="M640 903 Q762 903 816 848 Q870 793 870 741 Q870 694 842 668 Q814 642 776 642 Q739 642 714 665 Q689 688 689 722 Q689 748 705.5 778 Q722 808 722 817 Q722 835 701.5 847.5 Q681 860 636 860 Q475 860 356.5 677 Q238 494 238 293 Q238 180 286 116 Q334 52 430 52 Q507 52 579.5 96.5 Q652 141 713 210 L720 218 L749 196 Q679 107 614 59 Q499 -24 359 -24 Q225 -24 142 61.5 Q59 147 59 295 Q59 522 244 713 Q427 903 640 903 Z M585 1163 Q585 1204 614 1233.5 Q643 1263 685 1263 Q727 1263 757 1233.5 Q787 1204 787 1163 Q787 1120 757 1090.5 Q727 1061 686 1061 Q646 1061 615.5 1089.5 Q585 1118 585 1163 Z " />
<glyph glyph-name="Dcaron" unicode="&#x10e;" horiz-adv-x="1479" d="M486 65 Q932 65 1113 433 Q1206 624 1206 822 Q1206 1013 1112 1144 Q1018 1275 773 1275 Q706 1275 677.5 1262 Q649 1249 640 1216 L360 213 Q352 183 350 169 Q348 155 348 141 Q348 97 375 81 Q402 65 486 65 Z M-19 33 Q53 39 80 59 Q122 89 149 184 L400 1090 Q411 1131 417.5 1160.5 Q424 1190 424 1212 Q424 1262 390 1281.5 Q356 1301 265 1303 L265 1336 L794 1336 Q941 1336 1052 1310 Q1163 1284 1258 1203 Q1325 1143 1370 1061 Q1436 937 1436 782 Q1436 474 1199 248 Q939 0 523 0 L-19 0 L-19 33 Z M595 1811 L670 1811 L855 1595 L1147 1811 L1220 1811 L886 1465 L791 1465 L595 1811 Z " />
<glyph glyph-name="dcaron" unicode="&#x10f;" horiz-adv-x="1423" d="M208 232 Q208 171 236 125.5 Q264 80 331 80 Q474 80 606 310 Q730 526 730 719 Q730 780 710 820 Q690 860 629 860 Q477 860 335 614 Q208 394 208 232 Z M618 907 Q697 907 730 869 Q749 847 760 794 L874 1204 Q879 1221 880.5 1234.5 Q882 1248 882 1258 Q882 1297 867.5 1307 Q853 1317 826 1317 Q809 1317 794.5 1316 Q780 1315 756 1313 L756 1346 Q869 1361 1069 1398 L1078 1388 L1076 1377 L884 658 L753 182 Q749 166 746.5 152.5 Q744 139 744 128 Q744 101 757.5 93 Q771 85 781 85 Q810 85 863 136 Q894 167 948 232 L971 210 L957 189 Q920 134 862 77 Q759 -24 677 -24 Q650 -24 628 -12 Q587 12 587 74 Q587 95 593 141 Q599 187 611 241 Q535 125 444.5 51 Q354 -23 247 -23 Q160 -23 95 39 Q30 101 30 230 Q30 448 230 678 Q429 907 618 907 Z M1204 1604 Q1204 1626 1230 1655.5 Q1256 1685 1308 1685 Q1361 1685 1394 1644 Q1427 1603 1427 1540 Q1427 1439 1349.5 1356 Q1272 1273 1193 1230 L1162 1213 L1143 1246 Q1205 1290 1238 1321 Q1297 1379 1297 1425 Q1297 1438 1292 1450 Q1287 1462 1278 1471 L1259 1490 Q1222 1527 1213 1546.5 Q1204 1566 1204 1604 Z " />
<glyph glyph-name="Emacron" unicode="&#x112;" horiz-adv-x="1251" d="M-5 33 Q67 39 94 59 Q136 89 163 184 L414 1090 Q426 1135 432.5 1164.5 Q439 1194 439 1215 Q439 1263 402.5 1282 Q366 1301 279 1303 L279 1336 L1298 1336 L1234 1024 L1192 1028 Q1195 1058 1196 1085.5 Q1197 1113 1197 1106 Q1199 1207 1125.5 1238.5 Q1052 1270 823 1270 Q718 1270 691 1260 Q664 1250 654 1216 L519 739 Q790 748 845 773 Q900 798 962 938 L1000 929 L860 455 L820 464 Q830 524 832 537 Q834 550 834 566 Q834 631 787.5 650.5 Q741 670 617 670 L500 670 L374 213 Q368 192 364.5 174 Q361 156 361 137 Q361 105 378 89 Q409 61 500 61 Q775 61 893.5 120 Q1012 179 1130 348 L1163 331 L1035 0 L-5 0 L-5 33 Z M575 1438 L599 1542 L1215 1542 L1192 1438 L575 1438 Z " />
<glyph glyph-name="emacron" unicode="&#x113;" horiz-adv-x="909" d="M64 265 Q64 487 264 695 Q462 903 673 903 Q751 903 797 867 Q843 831 843 760 Q843 616 674.5 513.5 Q506 411 320 388 L263 381 Q250 340 245 315.5 Q240 291 240 254 Q240 166 297.5 117 Q355 68 434 68 Q509 68 593 118 Q641 147 732 222 L758 199 Q713 142 629 82 Q480 -25 330 -25 Q224 -25 144 50 Q64 125 64 265 Z M277 426 Q468 454 588 560.5 Q708 667 708 772 Q708 810 690 832.5 Q672 855 637 855 Q572 855 509.5 799.5 Q447 744 397 674 Q344 592 313 517 Q296 477 277 426 Z M336 1009 L360 1113 L976 1113 L953 1009 L336 1009 Z " />
<glyph glyph-name="Ebreve" unicode="&#x114;" horiz-adv-x="1251" d="M-5 33 Q67 39 94 59 Q136 89 163 184 L414 1090 Q426 1135 432.5 1164.5 Q439 1194 439 1215 Q439 1263 402.5 1282 Q366 1301 279 1303 L279 1336 L1298 1336 L1234 1024 L1192 1028 Q1195 1058 1196 1085.5 Q1197 1113 1197 1106 Q1199 1207 1125.5 1238.5 Q1052 1270 823 1270 Q718 1270 691 1260 Q664 1250 654 1216 L519 739 Q790 748 845 773 Q900 798 962 938 L1000 929 L860 455 L820 464 Q830 524 832 537 Q834 550 834 566 Q834 631 787.5 650.5 Q741 670 617 670 L500 670 L374 213 Q368 192 364.5 174 Q361 156 361 137 Q361 105 378 89 Q409 61 500 61 Q775 61 893.5 120 Q1012 179 1130 348 L1163 331 L1035 0 L-5 0 L-5 33 Z M703 1797 Q702 1729 752 1661 Q802 1593 926 1593 Q1037 1593 1103 1657 Q1169 1721 1200 1797 L1260 1797 Q1241 1699 1187 1618 Q1088 1471 912 1471 Q743 1471 681 1594 Q647 1662 643 1797 L703 1797 Z " />
<glyph glyph-name="ebreve" unicode="&#x115;" horiz-adv-x="909" d="M64 265 Q64 487 264 695 Q462 903 673 903 Q751 903 797 867 Q843 831 843 760 Q843 616 674.5 513.5 Q506 411 320 388 L263 381 Q250 340 245 315.5 Q240 291 240 254 Q240 166 297.5 117 Q355 68 434 68 Q509 68 593 118 Q641 147 732 222 L758 199 Q713 142 629 82 Q480 -25 330 -25 Q224 -25 144 50 Q64 125 64 265 Z M277 426 Q468 454 588 560.5 Q708 667 708 772 Q708 810 690 832.5 Q672 855 637 855 Q572 855 509.5 799.5 Q447 744 397 674 Q344 592 313 517 Q296 477 277 426 Z M474 1332 Q473 1264 523 1196 Q573 1128 697 1128 Q808 1128 874 1192 Q940 1256 971 1332 L1031 1332 Q1012 1234 958 1153 Q859 1006 683 1006 Q514 1006 452 1129 Q418 1197 414 1332 L474 1332 Z " />
<glyph glyph-name="Edotaccent" unicode="&#x116;" horiz-adv-x="1251" d="M-5 33 Q67 39 94 59 Q136 89 163 184 L414 1090 Q426 1135 432.5 1164.5 Q439 1194 439 1215 Q439 1263 402.5 1282 Q366 1301 279 1303 L279 1336 L1298 1336 L1234 1024 L1192 1028 Q1195 1058 1196 1085.5 Q1197 1113 1197 1106 Q1199 1207 1125.5 1238.5 Q1052 1270 823 1270 Q718 1270 691 1260 Q664 1250 654 1216 L519 739 Q790 748 845 773 Q900 798 962 938 L1000 929 L860 455 L820 464 Q830 524 832 537 Q834 550 834 566 Q834 631 787.5 650.5 Q741 670 617 670 L500 670 L374 213 Q368 192 364.5 174 Q361 156 361 137 Q361 105 378 89 Q409 61 500 61 Q775 61 893.5 120 Q1012 179 1130 348 L1163 331 L1035 0 L-5 0 L-5 33 Z M824 1590 Q824 1631 853 1660.5 Q882 1690 924 1690 Q966 1690 996 1660.5 Q1026 1631 1026 1590 Q1026 1547 996 1517.5 Q966 1488 925 1488 Q885 1488 854.5 1516.5 Q824 1545 824 1590 Z " />
<glyph glyph-name="edotaccent" unicode="&#x117;" horiz-adv-x="909" d="M64 265 Q64 487 264 695 Q462 903 673 903 Q751 903 797 867 Q843 831 843 760 Q843 616 674.5 513.5 Q506 411 320 388 L263 381 Q250 340 245 315.5 Q240 291 240 254 Q240 166 297.5 117 Q355 68 434 68 Q509 68 593 118 Q641 147 732 222 L758 199 Q713 142 629 82 Q480 -25 330 -25 Q224 -25 144 50 Q64 125 64 265 Z M277 426 Q468 454 588 560.5 Q708 667 708 772 Q708 810 690 832.5 Q672 855 637 855 Q572 855 509.5 799.5 Q447 744 397 674 Q344 592 313 517 Q296 477 277 426 Z M639 1157 Q639 1198 668 1227.5 Q697 1257 739 1257 Q781 1257 811 1227.5 Q841 1198 841 1157 Q841 1114 811 1084.5 Q781 1055 740 1055 Q700 1055 669.5 1083.5 Q639 1112 639 1157 Z " />
<glyph glyph-name="Eogonek" unicode="&#x118;" horiz-adv-x="1251" d="M-5 33 Q67 39 94 59 Q136 89 163 184 L414 1090 Q426 1135 432.5 1164.5 Q439 1194 439 1215 Q439 1263 402.5 1282 Q366 1301 279 1303 L279 1336 L1298 1336 L1234 1024 L1192 1028 Q1195 1058 1196 1085.5 Q1197 1113 1197 1106 Q1199 1207 1125.5 1238.5 Q1052 1270 823 1270 Q718 1270 691 1260 Q664 1250 654 1216 L519 739 Q790 748 845 773 Q900 798 962 938 L1000 929 L860 455 L820 464 Q830 524 832 537 Q834 550 834 566 Q834 631 787.5 650.5 Q741 670 617 670 L500 670 L374 213 Q368 192 364.5 174 Q361 156 361 137 Q361 105 378 89 Q409 61 500 61 Q775 61 893.5 120 Q1012 179 1130 348 L1163 331 L1035 0 L-5 0 L-5 33 Z M554 46 Q522 2 493 -83 Q464 -168 464 -221 Q464 -279 500.5 -314.5 Q537 -350 587 -350 Q619 -350 657 -335 Q680 -325 715 -305 L715 -421 Q672 -446 626.5 -459.5 Q581 -473 535 -473 Q448 -473 386 -418 Q324 -363 324 -283 Q324 -227 347 -171 Q391 -63 511 46 L554 46 Z " />
<glyph glyph-name="eogonek" unicode="&#x119;" horiz-adv-x="909" d="M64 265 Q64 487 264 695 Q462 903 673 903 Q751 903 797 867 Q843 831 843 760 Q843 616 674.5 513.5 Q506 411 320 388 L263 381 Q250 340 245 315.5 Q240 291 240 254 Q240 166 297.5 117 Q355 68 434 68 Q509 68 593 118 Q641 147 732 222 L758 199 Q713 142 629 82 Q480 -25 330 -25 Q224 -25 144 50 Q64 125 64 265 Z M277 426 Q468 454 588 560.5 Q708 667 708 772 Q708 810 690 832.5 Q672 855 637 855 Q572 855 509.5 799.5 Q447 744 397 674 Q344 592 313 517 Q296 477 277 426 Z M407 79 Q375 35 346 -50 Q317 -135 317 -188 Q317 -246 353.5 -281.5 Q390 -317 440 -317 Q472 -317 510 -302 Q533 -292 568 -272 L568 -388 Q525 -413 479.5 -426.5 Q434 -440 388 -440 Q301 -440 239 -385 Q177 -330 177 -250 Q177 -194 200 -138 Q244 -30 364 79 L407 79 Z " />
<glyph glyph-name="Ecaron" unicode="&#x11a;" horiz-adv-x="1251" d="M-5 33 Q67 39 94 59 Q136 89 163 184 L414 1090 Q426 1135 432.5 1164.5 Q439 1194 439 1215 Q439 1263 402.5 1282 Q366 1301 279 1303 L279 1336 L1298 1336 L1234 1024 L1192 1028 Q1195 1058 1196 1085.5 Q1197 1113 1197 1106 Q1199 1207 1125.5 1238.5 Q1052 1270 823 1270 Q718 1270 691 1260 Q664 1250 654 1216 L519 739 Q790 748 845 773 Q900 798 962 938 L1000 929 L860 455 L820 464 Q830 524 832 537 Q834 550 834 566 Q834 631 787.5 650.5 Q741 670 617 670 L500 670 L374 213 Q368 192 364.5 174 Q361 156 361 137 Q361 105 378 89 Q409 61 500 61 Q775 61 893.5 120 Q1012 179 1130 348 L1163 331 L1035 0 L-5 0 L-5 33 Z M648 1811 L723 1811 L908 1595 L1200 1811 L1273 1811 L939 1465 L844 1465 L648 1811 Z " />
<glyph glyph-name="ecaron" unicode="&#x11b;" horiz-adv-x="909" d="M64 265 Q64 487 264 695 Q462 903 673 903 Q751 903 797 867 Q843 831 843 760 Q843 616 674.5 513.5 Q506 411 320 388 L263 381 Q250 340 245 315.5 Q240 291 240 254 Q240 166 297.5 117 Q355 68 434 68 Q509 68 593 118 Q641 147 732 222 L758 199 Q713 142 629 82 Q480 -25 330 -25 Q224 -25 144 50 Q64 125 64 265 Z M277 426 Q468 454 588 560.5 Q708 667 708 772 Q708 810 690 832.5 Q672 855 637 855 Q572 855 509.5 799.5 Q447 744 397 674 Q344 592 313 517 Q296 477 277 426 Z M406 1369 L481 1369 L666 1153 L958 1369 L1031 1369 L697 1023 L602 1023 L406 1369 Z " />
<glyph glyph-name="Gcircumflex" unicode="&#x11c;" horiz-adv-x="1479" d="M948 1365 Q994 1365 1053 1356 Q1112 1347 1182 1322 Q1235 1304 1254.5 1299 Q1274 1294 1294 1294 Q1344 1294 1370 1312 Q1396 1330 1419 1362 L1450 1355 L1348 952 L1313 957 Q1297 1080 1247 1155 Q1153 1294 943 1294 Q654 1294 476 987 Q331 736 331 463 Q331 272 434.5 155 Q538 38 730 38 Q797 38 876 61.5 Q955 85 983 132 Q1001 162 1026 252 Q1042 309 1066 412 L1088 504 Q1090 512 1091 520.5 Q1092 529 1092 538 Q1092 583 1064.5 595.5 Q1037 608 933 621 L933 654 L1479 654 L1479 621 Q1375 611 1338.5 585 Q1302 559 1280 474 L1180 90 Q1101 38 976 0 Q851 -38 705 -38 Q412 -38 248 138 Q104 293 104 521 Q104 821 331 1079 Q584 1365 948 1365 Z M1332 1474 L1163 1687 L884 1474 L803 1474 L1125 1820 L1225 1820 L1405 1474 L1332 1474 Z " />
<glyph glyph-name="gcircumflex" unicode="&#x11d;" horiz-adv-x="1024" d="M355 512 Q355 450 374 413 Q406 352 489 352 Q579 352 649.5 466.5 Q720 581 720 719 Q720 785 691 822.5 Q662 860 604 860 Q492 860 423.5 741 Q355 622 355 512 Z M390 -380 Q509 -380 587.5 -323 Q666 -266 666 -187 Q666 -127 625 -86 Q603 -64 554 -39 Q513 -19 415.5 18.5 Q318 56 303 56 Q277 56 202 -13.5 Q127 -83 127 -171 Q127 -304 242 -354 Q302 -380 390 -380 Z M16 -197 Q16 -122 73.5 -54.5 Q131 13 256 80 Q231 96 215 113.5 Q199 131 199 160 Q199 201 256 254 Q288 284 360 333 Q296 357 250 401 Q194 460 194 554 Q194 705 312 805 Q430 905 604 905 Q695 905 758 876.5 Q821 848 832 829 L967 829 L967 749 L865 749 Q871 727 874 709 Q877 691 877 658 Q877 496 751.5 403 Q626 310 481 310 Q466 310 453 311.5 Q440 313 421 317 Q406 317 380 288 Q353 259 353 236 Q353 202 573 120 Q792 37 792 -123 Q792 -243 682 -333.5 Q572 -424 350 -424 Q196 -424 106 -358 Q16 -292 16 -197 Z M874 1006 L705 1219 L426 1006 L345 1006 L667 1352 L767 1352 L947 1006 L874 1006 Z " />
<glyph glyph-name="Gdotaccent" unicode="&#x120;" horiz-adv-x="1479" d="M948 1365 Q994 1365 1053 1356 Q1112 1347 1182 1322 Q1235 1304 1254.5 1299 Q1274 1294 1294 1294 Q1344 1294 1370 1312 Q1396 1330 1419 1362 L1450 1355 L1348 952 L1313 957 Q1297 1080 1247 1155 Q1153 1294 943 1294 Q654 1294 476 987 Q331 736 331 463 Q331 272 434.5 155 Q538 38 730 38 Q797 38 876 61.5 Q955 85 983 132 Q1001 162 1026 252 Q1042 309 1066 412 L1088 504 Q1090 512 1091 520.5 Q1092 529 1092 538 Q1092 583 1064.5 595.5 Q1037 608 933 621 L933 654 L1479 654 L1479 621 Q1375 611 1338.5 585 Q1302 559 1280 474 L1180 90 Q1101 38 976 0 Q851 -38 705 -38 Q412 -38 248 138 Q104 293 104 521 Q104 821 331 1079 Q584 1365 948 1365 Z M938 1598 Q938 1639 967 1668.5 Q996 1698 1038 1698 Q1080 1698 1110 1668.5 Q1140 1639 1140 1598 Q1140 1555 1110 1525.5 Q1080 1496 1039 1496 Q999 1496 968.5 1524.5 Q938 1553 938 1598 Z " />
<glyph glyph-name="gdotaccent" unicode="&#x121;" horiz-adv-x="1024" d="M355 512 Q355 450 374 413 Q406 352 489 352 Q579 352 649.5 466.5 Q720 581 720 719 Q720 785 691 822.5 Q662 860 604 860 Q492 860 423.5 741 Q355 622 355 512 Z M390 -380 Q509 -380 587.5 -323 Q666 -266 666 -187 Q666 -127 625 -86 Q603 -64 554 -39 Q513 -19 415.5 18.5 Q318 56 303 56 Q277 56 202 -13.5 Q127 -83 127 -171 Q127 -304 242 -354 Q302 -380 390 -380 Z M16 -197 Q16 -122 73.5 -54.5 Q131 13 256 80 Q231 96 215 113.5 Q199 131 199 160 Q199 201 256 254 Q288 284 360 333 Q296 357 250 401 Q194 460 194 554 Q194 705 312 805 Q430 905 604 905 Q695 905 758 876.5 Q821 848 832 829 L967 829 L967 749 L865 749 Q871 727 874 709 Q877 691 877 658 Q877 496 751.5 403 Q626 310 481 310 Q466 310 453 311.5 Q440 313 421 317 Q406 317 380 288 Q353 259 353 236 Q353 202 573 120 Q792 37 792 -123 Q792 -243 682 -333.5 Q572 -424 350 -424 Q196 -424 106 -358 Q16 -292 16 -197 Z M575 1154 Q575 1195 604 1224.5 Q633 1254 675 1254 Q717 1254 747 1224.5 Q777 1195 777 1154 Q777 1111 747 1081.5 Q717 1052 676 1052 Q636 1052 605.5 1080.5 Q575 1109 575 1154 Z " />
<glyph glyph-name="gacute" unicode="&#x1f5;" horiz-adv-x="1024" d="M355 512 Q355 450 374 413 Q406 352 489 352 Q579 352 649.5 466.5 Q720 581 720 719 Q720 785 691 822.5 Q662 860 604 860 Q492 860 423.5 741 Q355 622 355 512 Z M390 -380 Q509 -380 587.5 -323 Q666 -266 666 -187 Q666 -127 625 -86 Q603 -64 554 -39 Q513 -19 415.5 18.5 Q318 56 303 56 Q277 56 202 -13.5 Q127 -83 127 -171 Q127 -304 242 -354 Q302 -380 390 -380 Z M16 -197 Q16 -122 73.5 -54.5 Q131 13 256 80 Q231 96 215 113.5 Q199 131 199 160 Q199 201 256 254 Q288 284 360 333 Q296 357 250 401 Q194 460 194 554 Q194 705 312 805 Q430 905 604 905 Q695 905 758 876.5 Q821 848 832 829 L967 829 L967 749 L865 749 Q871 727 874 709 Q877 691 877 658 Q877 496 751.5 403 Q626 310 481 310 Q466 310 453 311.5 Q440 313 421 317 Q406 317 380 288 Q353 259 353 236 Q353 202 573 120 Q792 37 792 -123 Q792 -243 682 -333.5 Q572 -424 350 -424 Q196 -424 106 -358 Q16 -292 16 -197 Z M935 1301 Q935 1279 924 1265.5 Q913 1252 899 1243 L549 1025 L477 1025 L809 1352 Q818 1361 833 1367 Q848 1373 862 1373 Q890 1373 912.5 1352.5 Q935 1332 935 1301 Z " />
<glyph glyph-name="Hcircumflex" unicode="&#x124;" horiz-adv-x="1479" d="M-19 33 Q53 39 80 59 Q122 89 149 184 L400 1090 Q414 1145 419 1167.5 Q424 1190 424 1212 Q424 1262 389.5 1281.5 Q355 1301 265 1303 L265 1336 L824 1336 L824 1303 Q741 1296 705 1276 Q643 1242 618 1152 L509 753 L1092 753 L1192 1116 Q1202 1155 1205 1178 Q1208 1201 1208 1218 Q1208 1267 1159 1288 Q1126 1301 1064 1303 L1064 1336 L1571 1336 L1571 1303 Q1490 1293 1459.5 1269.5 Q1429 1246 1403 1152 L1152 246 L1133 168 Q1131 157 1129.5 147 Q1128 137 1128 127 Q1128 69 1162.5 52.5 Q1197 36 1287 33 L1287 0 L727 0 L727 33 Q808 39 845 59 Q907 93 933 184 L1069 668 L485 668 L367 246 L348 168 Q346 157 344.5 147 Q343 137 343 127 Q343 71 374.5 54.5 Q406 38 488 33 L488 0 L-19 0 L-19 33 Z M1234 1429 L1065 1642 L786 1429 L705 1429 L1027 1775 L1127 1775 L1307 1429 L1234 1429 Z " />
<glyph glyph-name="hcircumflex" unicode="&#x125;" horiz-adv-x="1024" d="M227 1341 Q291 1350 330.5 1355.5 Q370 1361 399 1366 Q517 1389 526 1391 Q535 1393 540 1393 Q552 1387 552 1378 L317 485 Q443 671 523 757 Q663 905 780 905 Q828 905 872.5 874.5 Q917 844 917 765 Q917 746 912 716 Q907 686 900 663 L765 184 Q759 164 755 145.5 Q751 127 751 112 Q751 95 759 86.5 Q767 78 782 78 Q813 78 855 121 Q881 148 952 239 L978 215 Q908 111 859 63 Q772 -22 684 -22 Q644 -22 617 3 Q590 28 590 75 Q590 88 591.5 99.5 Q593 111 597 125 L751 711 Q753 719 754.5 727.5 Q756 736 756 745 Q756 770 741 784 Q725 798 700 798 Q633 798 531 690.5 Q429 583 359 471 Q311 392 286.5 322 Q262 252 192 0 L37 0 L357 1213 Q360 1226 361 1235 Q362 1244 362 1252 Q362 1295 334 1303.5 Q306 1312 227 1308 L227 1341 Z M910 1491 L741 1704 L462 1491 L381 1491 L703 1837 L803 1837 L983 1491 L910 1491 Z " />
<glyph glyph-name="Hbar" unicode="&#x126;" horiz-adv-x="1479" d="M239 1145 L413 1145 Q417 1159 419 1167 Q424 1190 424 1212 Q424 1262 389.5 1281.5 Q355 1301 265 1303 L265 1336 L824 1336 L824 1303 Q741 1296 705 1276 Q643 1242 618 1152 L616 1145 L1199 1145 Q1203 1164 1205 1178 Q1208 1201 1208 1218 Q1208 1267 1159 1288 Q1126 1301 1064 1303 L1064 1336 L1571 1336 L1571 1303 Q1490 1293 1459.5 1269.5 Q1429 1246 1403 1152 L1401 1145 L1507 1145 L1483 1060 L1377 1060 L1152 246 L1133 168 Q1131 157 1129.5 147 Q1128 137 1128 127 Q1128 69 1162.5 52.5 Q1197 36 1287 33 L1287 0 L727 0 L727 33 Q808 39 845 59 Q907 93 933 184 L1069 668 L485 668 L367 246 L348 168 Q346 157 344.5 147 Q343 137 343 127 Q343 71 374.5 54.5 Q406 38 488 33 L488 0 L-19 0 L-19 33 Q53 39 80 59 Q122 89 149 184 L391 1060 L215 1060 L239 1145 Z M1092 753 L1176 1060 L593 1060 L509 753 L1092 753 Z " />
<glyph glyph-name="hbar" unicode="&#x127;" horiz-adv-x="1024" d="M227 1341 Q291 1350 330.5 1355.5 Q370 1361 399 1366 Q517 1389 526 1391 Q535 1393 540 1393 Q552 1387 552 1378 L317 485 Q443 671 523 757 Q663 905 780 905 Q828 905 872.5 874.5 Q917 844 917 765 Q917 746 912 716 Q907 686 900 663 L765 184 Q759 164 755 145.5 Q751 127 751 112 Q751 95 759 86.5 Q767 78 782 78 Q813 78 855 121 Q881 148 952 239 L978 215 Q908 111 859 63 Q772 -22 684 -22 Q644 -22 617 3 Q590 28 590 75 Q590 88 591.5 99.5 Q593 111 597 125 L751 711 Q753 719 754.5 727.5 Q756 736 756 745 Q756 770 741 784 Q725 798 700 798 Q633 798 531 690.5 Q429 583 359 471 Q311 392 286.5 322 Q262 252 192 0 L37 0 L357 1213 Q360 1226 361 1235 Q362 1244 362 1252 Q362 1295 334 1303.5 Q306 1312 227 1308 L227 1341 Z M95 965 L119 1069 L735 1069 L712 965 L95 965 Z " />
<glyph glyph-name="Itilde" unicode="&#x128;" horiz-adv-x="922" d="M-19 33 Q53 39 80 59 Q122 89 149 184 L400 1090 Q414 1145 419 1167.5 Q424 1190 424 1212 Q424 1261 392 1279.5 Q360 1298 279 1303 L279 1336 L786 1336 L786 1303 Q705 1292 674.5 1268.5 Q644 1245 618 1152 L367 246 Q354 198 348.5 167 Q343 136 343 120 Q343 70 378.5 53 Q414 36 483 33 L483 0 L-19 0 L-19 33 Z M246 1502 Q265 1596 313 1657 Q361 1718 447 1718 Q514 1718 615.5 1674 Q717 1630 753 1630 Q803 1630 829 1662 Q844 1680 857 1720 L917 1720 Q900 1626 847.5 1566.5 Q795 1507 720 1507 Q693 1507 661.5 1516.5 Q630 1526 542 1559 L473 1585 Q457 1591 443 1594 Q429 1597 412 1597 Q364 1597 344 1574 Q324 1551 305 1502 L246 1502 Z " />
<glyph glyph-name="itilde" unicode="&#x129;" horiz-adv-x="696" d="M464.5 906.5 Q470 903 469 898 L267 184 Q253 127 253 116 Q253 101 259 90 Q264 78 284 78 Q318 78 374 137 Q407 172 455 237 L481 215 L471 201 Q396 96 347 50 Q270 -22 197 -22 Q154 -22 125.5 14 Q97 50 97 99 Q97 128 101 149.5 Q105 171 116 213 L256 727 Q259 739 261 749 Q263 759 263 769 Q263 805 236.5 813.5 Q210 822 132 822 L132 855 Q215 865 251.5 870.5 Q288 876 325 882 Q373 890 416 900 Q459 910 464.5 906.5 Z M27 1025 Q46 1119 94 1180 Q142 1241 228 1241 Q295 1241 396.5 1197 Q498 1153 534 1153 Q584 1153 610 1185 Q625 1203 638 1243 L698 1243 Q681 1149 628.5 1089.5 Q576 1030 501 1030 Q474 1030 442.5 1039.5 Q411 1049 323 1082 L254 1108 Q238 1114 224 1117 Q210 1120 193 1120 Q145 1120 125 1097 Q105 1074 86 1025 L27 1025 Z " />
<glyph glyph-name="Imacron" unicode="&#x12a;" horiz-adv-x="850" d="M-19 33 Q53 39 80 59 Q122 89 149 184 L400 1090 Q414 1145 419 1167.5 Q424 1190 424 1212 Q424 1261 392 1279.5 Q360 1298 279 1303 L279 1336 L786 1336 L786 1303 Q705 1292 674.5 1268.5 Q644 1245 618 1152 L367 246 Q354 198 348.5 167 Q343 136 343 120 Q343 70 378.5 53 Q414 36 483 33 L483 0 L-19 0 L-19 33 Z M271 1438 L295 1542 L911 1542 L888 1438 L271 1438 Z " />
<glyph glyph-name="imacron" unicode="&#x12b;" horiz-adv-x="686" d="M464.5 906.5 Q470 903 469 898 L267 184 Q253 127 253 116 Q253 101 259 90 Q264 78 284 78 Q318 78 374 137 Q407 172 455 237 L481 215 L471 201 Q396 96 347 50 Q270 -22 197 -22 Q154 -22 125.5 14 Q97 50 97 99 Q97 128 101 149.5 Q105 171 116 213 L256 727 Q259 739 261 749 Q263 759 263 769 Q263 805 236.5 813.5 Q210 822 132 822 L132 855 Q215 865 251.5 870.5 Q288 876 325 882 Q373 890 416 900 Q459 910 464.5 906.5 Z M88 1016 L112 1120 L728 1120 L705 1016 L88 1016 Z " />
<glyph glyph-name="Iogonek" unicode="&#x12e;" horiz-adv-x="682" d="M-19 33 Q53 39 80 59 Q122 89 149 184 L400 1090 Q414 1145 419 1167.5 Q424 1190 424 1212 Q424 1261 392 1279.5 Q360 1298 279 1303 L279 1336 L786 1336 L786 1303 Q705 1292 674.5 1268.5 Q644 1245 618 1152 L367 246 Q354 198 348.5 167 Q343 136 343 120 Q343 70 378.5 53 Q414 36 483 33 L483 0 L-19 0 L-19 33 Z M301 88 Q269 44 240 -41 Q211 -126 211 -179 Q211 -237 247.5 -272.5 Q284 -308 334 -308 Q366 -308 404 -293 Q427 -283 462 -263 L462 -379 Q419 -404 373.5 -417.5 Q328 -431 282 -431 Q195 -431 133 -376 Q71 -321 71 -241 Q71 -185 94 -129 Q138 -21 258 88 L301 88 Z " />
<glyph glyph-name="iogonek" unicode="&#x12f;" horiz-adv-x="569" d="M440 1125 Q399 1125 370 1157 Q341 1189 341 1234 Q341 1280 370 1312 Q399 1344 440 1344 Q481 1344 510.5 1312 Q540 1280 540 1234 Q540 1188 510.5 1156.5 Q481 1125 440 1125 Z M464.5 906.5 Q470 903 469 898 L267 184 Q253 127 253 116 Q253 101 259 90 Q264 78 284 78 Q318 78 374 137 Q407 172 455 237 L481 215 L471 201 Q396 96 347 50 Q270 -22 197 -22 Q154 -22 125.5 14 Q97 50 97 99 Q97 128 101 149.5 Q105 171 116 213 L256 727 Q259 739 261 749 Q263 759 263 769 Q263 805 236.5 813.5 Q210 822 132 822 L132 855 Q215 865 251.5 870.5 Q288 876 325 882 Q373 890 416 900 Q459 910 464.5 906.5 Z M284 49 Q252 5 223 -80 Q194 -165 194 -218 Q194 -276 230.5 -311.5 Q267 -347 317 -347 Q349 -347 387 -332 Q410 -322 445 -302 L445 -418 Q402 -443 356.5 -456.5 Q311 -470 265 -470 Q178 -470 116 -415 Q54 -360 54 -280 Q54 -224 77 -168 Q121 -60 241 49 L284 49 Z " />
<glyph glyph-name="IJ" unicode="&#x132;" horiz-adv-x="1591" d="M-19 33 Q53 39 80 59 Q122 89 149 184 L400 1090 Q414 1145 419 1167.5 Q424 1190 424 1212 Q424 1261 392 1279.5 Q360 1298 279 1303 L279 1336 L786 1336 L786 1303 Q705 1292 674.5 1268.5 Q644 1245 618 1152 L367 246 Q354 198 348.5 167 Q343 136 343 120 Q343 70 378.5 53 Q414 36 483 33 L483 0 L-19 0 L-19 33 Z M655 253 Q699 253 724.5 227.5 Q750 202 750 160 Q750 152 749 136.5 Q748 121 748 107 Q748 64 769 45 Q790 26 821 26 Q869 26 894 66 Q910 90 930 161 L1191 1090 Q1203 1133 1209 1161.5 Q1215 1190 1215 1217 Q1215 1256 1185.5 1278 Q1156 1300 1058 1303 L1058 1336 L1578 1336 L1578 1303 Q1496 1292 1465.5 1268.5 Q1435 1245 1409 1152 L1198 393 Q1146 208 1087 120 Q982 -38 802 -38 Q675 -38 616.5 20.5 Q558 79 558 143 Q558 195 586 224 Q614 253 655 253 Z " />
<glyph glyph-name="ij" unicode="&#x133;" horiz-adv-x="1138" d="M440 1125 Q399 1125 370 1157 Q341 1189 341 1234 Q341 1280 370 1312 Q399 1344 440 1344 Q481 1344 510.5 1312 Q540 1280 540 1234 Q540 1188 510.5 1156.5 Q481 1125 440 1125 Z M464.5 906.5 Q470 903 469 898 L267 184 Q253 127 253 116 Q253 101 259 90 Q264 78 284 78 Q318 78 374 137 Q407 172 455 237 L481 215 L471 201 Q396 96 347 50 Q270 -22 197 -22 Q154 -22 125.5 14 Q97 50 97 99 Q97 128 101 149.5 Q105 171 116 213 L256 727 Q259 739 261 749 Q263 759 263 769 Q263 805 236.5 813.5 Q210 822 132 822 L132 855 Q215 865 251.5 870.5 Q288 876 325 882 Q373 890 416 900 Q459 910 464.5 906.5 Z M1044 1234 Q1044 1184 1014 1152.5 Q984 1121 945 1121 Q904 1121 874.5 1153 Q845 1185 845 1230 Q845 1277 874.5 1308 Q904 1339 945 1339 Q987 1339 1015.5 1307 Q1044 1275 1044 1234 Z M307 -209 Q342 -209 366 -229.5 Q390 -250 390 -280 Q390 -298 377 -322 Q364 -346 364 -352 Q364 -367 377 -371.5 Q390 -376 404 -376 Q470 -376 511.5 -289 Q553 -202 601 -5 L779 725 Q783 745 784.5 752.5 Q786 760 786 768 Q786 803 764.5 813.5 Q743 824 709 824 Q688 824 671.5 823 Q655 822 632 820 L632 855 Q683 861 728.5 867 Q774 873 794 876 Q807 878 882 894.5 Q957 911 974 911 Q982 911 982.5 907 Q983 903 982 896 L772 61 Q711 -181 617 -301.5 Q523 -422 387 -422 Q313 -422 266 -387.5 Q219 -353 219 -303 Q219 -263 245 -236 Q271 -209 307 -209 Z " />
<glyph glyph-name="Jcircumflex" unicode="&#x134;" horiz-adv-x="909" d="M82 253 Q126 253 151.5 227.5 Q177 202 177 160 Q177 152 176 136.5 Q175 121 175 107 Q175 64 196 45 Q217 26 248 26 Q296 26 321 66 Q337 90 357 161 L618 1090 Q630 1133 636 1161.5 Q642 1190 642 1217 Q642 1256 612.5 1278 Q583 1300 485 1303 L485 1336 L1005 1336 L1005 1303 Q923 1292 892.5 1268.5 Q862 1245 836 1152 L625 393 Q573 208 514 120 Q409 -38 229 -38 Q102 -38 43.5 20.5 Q-15 79 -15 143 Q-15 195 13 224 Q41 253 82 253 Z M1056 1434 L887 1647 L608 1434 L527 1434 L849 1780 L949 1780 L1129 1434 L1056 1434 Z " />
<glyph glyph-name="jcircumflex" unicode="&#x135;" horiz-adv-x="717" d="M-62 -280 Q-62 -298 -75 -322 Q-88 -346 -88 -352 Q-88 -367 -75 -371.5 Q-62 -376 -48 -376 Q18 -376 59.5 -289 Q101 -202 149 -5 L327 725 Q331 745 332.5 752.5 Q334 760 334 768 Q334 803 312.5 813.5 Q291 824 257 824 Q236 824 219.5 823 Q203 822 180 820 L180 855 Q231 861 276.5 867 Q322 873 342 876 Q355 878 430 894.5 Q505 911 522 911 Q530 911 530.5 907 Q531 903 530 896 L320 61 Q259 -181 165 -301.5 Q71 -422 -65 -422 Q-139 -422 -186 -387.5 Q-233 -353 -233 -303 Q-233 -263 -207 -236 Q-181 -209 -145 -209 Q-110 -209 -86 -229.5 Q-62 -250 -62 -280 Z M627 992 L458 1205 L179 992 L98 992 L420 1338 L520 1338 L700 992 L627 992 Z " />
<glyph glyph-name="Lacute" unicode="&#x139;" horiz-adv-x="1139" d="M-19 33 Q53 39 80 59 Q122 89 149 184 L400 1090 Q414 1145 419 1167.5 Q424 1190 424 1212 Q424 1262 389.5 1281.5 Q355 1301 265 1303 L265 1336 L824 1336 L824 1303 Q741 1296 705 1276 Q643 1243 618 1152 L367 246 L348 168 Q347 162 346.5 155 Q346 148 346 143 Q346 118 362 103.5 Q378 89 412 82 Q440 77 489 75 Q518 74 586 74 Q795 74 904 129.5 Q1013 185 1104 379 L1144 367 L1026 0 L-19 0 L-19 33 Z M834 1699 Q834 1677 823 1663.5 Q812 1650 798 1641 L448 1423 L376 1423 L708 1750 Q717 1759 732 1765 Q747 1771 761 1771 Q789 1771 811.5 1750.5 Q834 1730 834 1699 Z " />
<glyph glyph-name="lacute" unicode="&#x13a;" horiz-adv-x="569" d="M372 1213 Q376 1226 377 1239 Q378 1252 378 1260 Q378 1294 350.5 1301.5 Q323 1309 241 1308 L241 1341 Q286 1347 344.5 1355 Q403 1363 421 1366 Q477 1376 557 1396 Q564 1396 571 1386 L256 184 Q245 141 243 132 Q241 123 241 114 Q241 95 248 81.5 Q255 68 274 68 Q310 68 368 132 Q426 196 466 256 L493 237 Q407 110 359 61 Q276 -22 192 -22 Q156 -22 128 -4 Q85 23 85 88 Q85 113 93 155 Q98 180 106 213 L372 1213 Z M780 1711 Q780 1689 769 1675.5 Q758 1662 744 1653 L394 1435 L322 1435 L654 1762 Q663 1771 678 1777 Q693 1783 707 1783 Q735 1783 757.5 1762.5 Q780 1742 780 1711 Z " />
<glyph glyph-name="Lcaron" unicode="&#x13d;" horiz-adv-x="1239" d="M-19 33 Q53 39 80 59 Q122 89 149 184 L400 1090 Q414 1145 419 1167.5 Q424 1190 424 1212 Q424 1262 389.5 1281.5 Q355 1301 265 1303 L265 1336 L824 1336 L824 1303 Q741 1296 705 1276 Q643 1243 618 1152 L367 246 L348 168 Q347 162 346.5 155 Q346 148 346 143 Q346 118 362 103.5 Q378 89 412 82 Q440 77 489 75 Q518 74 586 74 Q795 74 904 129.5 Q1013 185 1104 379 L1144 367 L1026 0 L-19 0 L-19 33 Z M999 1255 Q999 1277 1025 1306.5 Q1051 1336 1103 1336 Q1156 1336 1189 1295 Q1222 1254 1222 1191 Q1222 1090 1144.5 1007 Q1067 924 988 881 L957 864 L938 897 Q1000 941 1033 972 Q1092 1030 1092 1076 Q1092 1089 1087 1101 Q1082 1113 1073 1122 L1054 1141 Q1017 1178 1008 1197.5 Q999 1217 999 1255 Z " />
<glyph glyph-name="lcaron" unicode="&#x13e;" horiz-adv-x="983" d="M372 1213 Q376 1226 377 1239 Q378 1252 378 1260 Q378 1294 350.5 1301.5 Q323 1309 241 1308 L241 1341 Q286 1347 344.5 1355 Q403 1363 421 1366 Q477 1376 557 1396 Q564 1396 571 1386 L256 184 Q245 141 243 132 Q241 123 241 114 Q241 95 248 81.5 Q255 68 274 68 Q310 68 368 132 Q426 196 466 256 L493 237 Q407 110 359 61 Q276 -22 192 -22 Q156 -22 128 -4 Q85 23 85 88 Q85 113 93 155 Q98 180 106 213 L372 1213 Z M705 1315 Q705 1337 731 1366.5 Q757 1396 809 1396 Q862 1396 895 1355 Q928 1314 928 1251 Q928 1150 850.5 1067 Q773 984 694 941 L663 924 L644 957 Q706 1001 739 1032 Q798 1090 798 1136 Q798 1149 793 1161 Q788 1173 779 1182 L760 1201 Q723 1238 714 1257.5 Q705 1277 705 1315 Z " />
<glyph glyph-name="Ldotaccent" unicode="&#x13f;" horiz-adv-x="1139" d="M-19 33 Q53 39 80 59 Q122 89 149 184 L400 1090 Q414 1145 419 1167.5 Q424 1190 424 1212 Q424 1262 389.5 1281.5 Q355 1301 265 1303 L265 1336 L824 1336 L824 1303 Q741 1296 705 1276 Q643 1243 618 1152 L367 246 L348 168 Q347 162 346.5 155 Q346 148 346 143 Q346 118 362 103.5 Q378 89 412 82 Q440 77 489 75 Q518 74 586 74 Q795 74 904 129.5 Q1013 185 1104 379 L1144 367 L1026 0 L-19 0 L-19 33 Z M624 713 Q624 754 653 783.5 Q682 813 724 813 Q766 813 796 783.5 Q826 754 826 713 Q826 670 796 640.5 Q766 611 725 611 Q685 611 654.5 639.5 Q624 668 624 713 Z " />
<glyph glyph-name="ldotaccent" unicode="&#x140;" horiz-adv-x="737" d="M372 1213 Q376 1226 377 1239 Q378 1252 378 1260 Q378 1294 350.5 1301.5 Q323 1309 241 1308 L241 1341 Q286 1347 344.5 1355 Q403 1363 421 1366 Q477 1376 557 1396 Q564 1396 571 1386 L256 184 Q245 141 243 132 Q241 123 241 114 Q241 95 248 81.5 Q255 68 274 68 Q310 68 368 132 Q426 196 466 256 L493 237 Q407 110 359 61 Q276 -22 192 -22 Q156 -22 128 -4 Q85 23 85 88 Q85 113 93 155 Q98 180 106 213 L372 1213 Z M507 761 Q507 802 536 831.5 Q565 861 607 861 Q649 861 679 831.5 Q709 802 709 761 Q709 718 679 688.5 Q649 659 608 659 Q568 659 537.5 687.5 Q507 716 507 761 Z " />
<glyph glyph-name="Nacute" unicode="&#x143;" horiz-adv-x="1454" d="M-43 33 Q45 47 81 96 Q117 145 170 336 L407 1194 Q409 1200 390.5 1229.5 Q372 1259 353 1272 Q334 1285 308.5 1291 Q283 1297 237 1303 L237 1336 L566 1336 L988 324 L995 324 L1206 1104 Q1215 1139 1220 1167 Q1225 1195 1225 1209 Q1225 1265 1177 1286 Q1148 1299 1080 1303 L1080 1336 L1488 1336 L1488 1303 Q1395 1283 1362.5 1238 Q1330 1193 1275 1000 L1024 125 Q1012 82 1006.5 62.5 Q1001 43 981 -34 L943 -34 L476 1083 L466 1083 L239 232 Q233 209 226.5 177 Q220 145 220 126 Q220 69 272 48 Q302 35 365 33 L365 0 L-43 0 L-43 33 Z M1165 1710 Q1165 1688 1154 1674.5 Q1143 1661 1129 1652 L779 1434 L707 1434 L1039 1761 Q1048 1770 1063 1776 Q1078 1782 1092 1782 Q1120 1782 1142.5 1761.5 Q1165 1741 1165 1710 Z " />
<glyph glyph-name="nacute" unicode="&#x144;" horiz-adv-x="1024" d="M37 0 L210 618 Q232 696 235.5 712.5 Q239 729 239 748 Q239 777 222.5 793.5 Q206 810 158 810 Q146 810 134.5 808.5 Q123 807 109 805 L109 839 Q174 849 201.5 854 Q229 859 261 866 L440 905 Q446 901 448 896 L315 466 Q437 653 519 744 Q663 905 777 905 Q821 905 853 888 Q914 855 914 769 Q914 745 909 719 Q904 693 896 663 L765 184 Q761 169 756 147.5 Q751 126 751 117 Q751 102 758 90 Q765 78 781 78 Q807 78 841 108.5 Q875 139 952 239 L981 213 Q899 102 851 57 Q769 -22 694 -22 Q660 -22 628.5 0.5 Q597 23 597 82 Q597 99 599.5 118 Q602 137 606 151 L732 637 Q742 677 745.5 702.5 Q749 728 749 739 Q749 763 737.5 780.5 Q726 798 697 798 Q622 798 508 662 Q441 581 372 469 Q319 382 288.5 299.5 Q258 217 192 0 L37 0 Z M853 1327 Q853 1305 842 1291.5 Q831 1278 817 1269 L467 1051 L395 1051 L727 1378 Q736 1387 751 1393 Q766 1399 780 1399 Q808 1399 830.5 1378.5 Q853 1358 853 1327 Z " />
<glyph glyph-name="Ncaron" unicode="&#x147;" horiz-adv-x="1366" d="M-43 33 Q45 47 81 96 Q117 145 170 336 L407 1194 Q409 1200 390.5 1229.5 Q372 1259 353 1272 Q334 1285 308.5 1291 Q283 1297 237 1303 L237 1336 L566 1336 L988 324 L995 324 L1206 1104 Q1215 1139 1220 1167 Q1225 1195 1225 1209 Q1225 1265 1177 1286 Q1148 1299 1080 1303 L1080 1336 L1488 1336 L1488 1303 Q1395 1283 1362.5 1238 Q1330 1193 1275 1000 L1024 125 Q1012 82 1006.5 62.5 Q1001 43 981 -34 L943 -34 L476 1083 L466 1083 L239 232 Q233 209 226.5 177 Q220 145 220 126 Q220 69 272 48 Q302 35 365 33 L365 0 L-43 0 L-43 33 Z M613 1812 L688 1812 L873 1596 L1165 1812 L1238 1812 L904 1466 L809 1466 L613 1812 Z " />
<glyph glyph-name="ncaron" unicode="&#x148;" horiz-adv-x="1024" d="M37 0 L210 618 Q232 696 235.5 712.5 Q239 729 239 748 Q239 777 222.5 793.5 Q206 810 158 810 Q146 810 134.5 808.5 Q123 807 109 805 L109 839 Q174 849 201.5 854 Q229 859 261 866 L440 905 Q446 901 448 896 L315 466 Q437 653 519 744 Q663 905 777 905 Q821 905 853 888 Q914 855 914 769 Q914 745 909 719 Q904 693 896 663 L765 184 Q761 169 756 147.5 Q751 126 751 117 Q751 102 758 90 Q765 78 781 78 Q807 78 841 108.5 Q875 139 952 239 L981 213 Q899 102 851 57 Q769 -22 694 -22 Q660 -22 628.5 0.5 Q597 23 597 82 Q597 99 599.5 118 Q602 137 606 151 L732 637 Q742 677 745.5 702.5 Q749 728 749 739 Q749 763 737.5 780.5 Q726 798 697 798 Q622 798 508 662 Q441 581 372 469 Q319 382 288.5 299.5 Q258 217 192 0 L37 0 Z M339 1355 L414 1355 L599 1139 L891 1355 L964 1355 L630 1009 L535 1009 L339 1355 Z " />
<glyph glyph-name="quoterightn" unicode="&#x149;" horiz-adv-x="1024" d="M37 0 L210 618 Q232 696 235.5 712.5 Q239 729 239 748 Q239 777 222.5 793.5 Q206 810 158 810 Q146 810 134.5 808.5 Q123 807 109 805 L109 839 Q174 849 201.5 854 Q229 859 261 866 L440 905 Q446 901 448 896 L315 466 Q437 653 519 744 Q663 905 777 905 Q821 905 853 888 Q914 855 914 769 Q914 745 909 719 Q904 693 896 663 L765 184 Q761 169 756 147.5 Q751 126 751 117 Q751 102 758 90 Q765 78 781 78 Q807 78 841 108.5 Q875 139 952 239 L981 213 Q899 102 851 57 Q769 -22 694 -22 Q660 -22 628.5 0.5 Q597 23 597 82 Q597 99 599.5 118 Q602 137 606 151 L732 637 Q742 677 745.5 702.5 Q749 728 749 739 Q749 763 737.5 780.5 Q726 798 697 798 Q622 798 508 662 Q441 581 372 469 Q319 382 288.5 299.5 Q258 217 192 0 L37 0 Z M363 1398 Q363 1420 389 1449.5 Q415 1479 467 1479 Q520 1479 553 1438 Q586 1397 586 1334 Q586 1233 508.5 1150 Q431 1067 352 1024 L321 1007 L302 1040 Q364 1084 397 1115 Q456 1173 456 1219 Q456 1232 451 1244 Q446 1256 437 1265 L418 1284 Q381 1321 372 1340.5 Q363 1360 363 1398 Z " />
<glyph glyph-name="Omacron" unicode="&#x14c;" horiz-adv-x="1479" d="M608 35 Q881 35 1068 404 Q1219 701 1219 955 Q1219 1112 1151 1200.5 Q1083 1289 946 1289 Q682 1289 496 936 Q339 639 339 363 Q339 201 410 118 Q481 35 608 35 Z M951 1362 Q1167 1362 1300 1222 Q1433 1082 1433 879 Q1433 521 1167 240 Q905 -35 586 -35 Q384 -35 251 91 Q118 217 118 450 Q118 781 381 1071 Q645 1362 951 1362 Z M707 1464 L731 1568 L1347 1568 L1324 1464 L707 1464 Z " />
<glyph glyph-name="omacron" unicode="&#x14d;" horiz-adv-x="1024" d="M227 215 Q227 132 268.5 77.5 Q310 23 390 23 Q553 23 679 269 Q786 480 786 657 Q786 732 768 778 Q733 865 640 865 Q487 865 353 636 Q227 422 227 215 Z M651 907 Q819 907 888 817.5 Q957 728 957 606 Q957 394 770 190 Q577 -22 358 -22 Q220 -22 137 58 Q54 138 54 283 Q54 502 240 702 Q430 907 651 907 Z M381 1013 L405 1117 L1021 1117 L998 1013 L381 1013 Z " />
<glyph glyph-name="Obreve" unicode="&#x14e;" horiz-adv-x="1479" d="M608 35 Q881 35 1068 404 Q1219 701 1219 955 Q1219 1112 1151 1200.5 Q1083 1289 946 1289 Q682 1289 496 936 Q339 639 339 363 Q339 201 410 118 Q481 35 608 35 Z M951 1362 Q1167 1362 1300 1222 Q1433 1082 1433 879 Q1433 521 1167 240 Q905 -35 586 -35 Q384 -35 251 91 Q118 217 118 450 Q118 781 381 1071 Q645 1362 951 1362 Z M877 1779 Q876 1711 926 1643 Q976 1575 1100 1575 Q1211 1575 1277 1639 Q1343 1703 1374 1779 L1434 1779 Q1415 1681 1361 1600 Q1262 1453 1086 1453 Q917 1453 855 1576 Q821 1644 817 1779 L877 1779 Z " />
<glyph glyph-name="obreve" unicode="&#x14f;" horiz-adv-x="1024" d="M227 215 Q227 132 268.5 77.5 Q310 23 390 23 Q553 23 679 269 Q786 480 786 657 Q786 732 768 778 Q733 865 640 865 Q487 865 353 636 Q227 422 227 215 Z M651 907 Q819 907 888 817.5 Q957 728 957 606 Q957 394 770 190 Q577 -22 358 -22 Q220 -22 137 58 Q54 138 54 283 Q54 502 240 702 Q430 907 651 907 Z M521 1346 Q520 1278 570 1210 Q620 1142 744 1142 Q855 1142 921 1206 Q987 1270 1018 1346 L1078 1346 Q1059 1248 1005 1167 Q906 1020 730 1020 Q561 1020 499 1143 Q465 1211 461 1346 L521 1346 Z " />
<glyph glyph-name="Ohungarumlaut" unicode="&#x150;" horiz-adv-x="1479" d="M608 35 Q881 35 1068 404 Q1219 701 1219 955 Q1219 1112 1151 1200.5 Q1083 1289 946 1289 Q682 1289 496 936 Q339 639 339 363 Q339 201 410 118 Q481 35 608 35 Z M951 1362 Q1167 1362 1300 1222 Q1433 1082 1433 879 Q1433 521 1167 240 Q905 -35 586 -35 Q384 -35 251 91 Q118 217 118 450 Q118 781 381 1071 Q645 1362 951 1362 Z M1525 1719 Q1525 1691 1508.5 1670 Q1492 1649 1463 1631 L1148 1432 L1065 1432 L1366 1736 Q1387 1758 1410 1771 Q1433 1784 1456 1784 Q1487 1784 1506 1763.5 Q1525 1743 1525 1719 Z M1050 1736 Q1076 1766 1090.5 1776 Q1105 1786 1128 1786 Q1169 1786 1185 1761 Q1201 1736 1201 1717 Q1201 1694 1183.5 1669.5 Q1166 1645 1148 1631 L884 1433 L801 1433 L1050 1736 Z " />
<glyph glyph-name="ohungarumlaut" unicode="&#x151;" horiz-adv-x="1024" d="M227 215 Q227 132 268.5 77.5 Q310 23 390 23 Q553 23 679 269 Q786 480 786 657 Q786 732 768 778 Q733 865 640 865 Q487 865 353 636 Q227 422 227 215 Z M651 907 Q819 907 888 817.5 Q957 728 957 606 Q957 394 770 190 Q577 -22 358 -22 Q220 -22 137 58 Q54 138 54 283 Q54 502 240 702 Q430 907 651 907 Z M1189 1296 Q1189 1268 1172.5 1247 Q1156 1226 1127 1208 L812 1009 L729 1009 L1030 1313 Q1051 1335 1074 1348 Q1097 1361 1120 1361 Q1151 1361 1170 1340.5 Q1189 1320 1189 1296 Z M714 1313 Q740 1343 754.5 1353 Q769 1363 792 1363 Q833 1363 849 1338 Q865 1313 865 1294 Q865 1271 847.5 1246.5 Q830 1222 812 1208 L548 1010 L465 1010 L714 1313 Z " />
<glyph glyph-name="Racute" unicode="&#x154;" horiz-adv-x="1251" d="M497 749 Q567 742 583 740.5 Q599 739 618 739 Q773 739 880.5 810.5 Q988 882 988 1052 Q988 1181 915 1227 Q842 1273 727 1273 Q686 1273 663 1263 Q640 1253 630 1218 L497 749 Z M-29 33 Q43 39 70 59 Q112 89 139 184 L391 1090 Q399 1117 406.5 1153.5 Q414 1190 414 1217 Q414 1264 380 1281.5 Q346 1299 270 1303 L270 1336 L777 1336 Q923 1336 1020 1300 Q1204 1231 1204 1045 Q1204 867 1044 769 Q957 716 801 682 L990 180 Q1018 106 1054 71 Q1090 36 1161 33 L1161 0 L858 0 L606 663 L474 673 L357 246 Q350 219 344 195 Q334 146 334 119 Q334 72 367 54 Q400 36 474 33 L474 0 L-29 0 L-29 33 Z M1103 1715 Q1103 1693 1092 1679.5 Q1081 1666 1067 1657 L717 1439 L645 1439 L977 1766 Q986 1775 1001 1781 Q1016 1787 1030 1787 Q1058 1787 1080.5 1766.5 Q1103 1746 1103 1715 Z " />
<glyph glyph-name="racute" unicode="&#x155;" horiz-adv-x="829" d="M417 910 Q426 910 429.5 904.5 Q433 899 433 892 Q432 882 431 877 L331 490 L353 533 Q425 674 521.5 790.5 Q618 907 705 907 Q752 907 777.5 876 Q803 845 803 805 Q803 760 777.5 730.5 Q752 701 707 701 Q676 701 660 713 Q644 725 635 741 L623 763 Q619 769 613.5 772.5 Q608 776 600 776 Q561 776 487.5 667 Q414 558 356 431 Q321 354 278 227 Q251 147 206 0 L52 0 L218 602 Q232 654 240.5 695 Q249 736 249 762 Q249 792 234 808 Q219 824 182 824 Q170 824 152 822 Q134 820 109 817 L109 850 L149 858 Q227 874 319.5 892 Q412 910 417 910 Z M828 1316 Q828 1294 817 1280.5 Q806 1267 792 1258 L442 1040 L370 1040 L702 1367 Q711 1376 726 1382 Q741 1388 755 1388 Q783 1388 805.5 1367.5 Q828 1347 828 1316 Z " />
<glyph glyph-name="Rcaron" unicode="&#x158;" horiz-adv-x="1251" d="M497 749 Q567 742 583 740.5 Q599 739 618 739 Q773 739 880.5 810.5 Q988 882 988 1052 Q988 1181 915 1227 Q842 1273 727 1273 Q686 1273 663 1263 Q640 1253 630 1218 L497 749 Z M-29 33 Q43 39 70 59 Q112 89 139 184 L391 1090 Q399 1117 406.5 1153.5 Q414 1190 414 1217 Q414 1264 380 1281.5 Q346 1299 270 1303 L270 1336 L777 1336 Q923 1336 1020 1300 Q1204 1231 1204 1045 Q1204 867 1044 769 Q957 716 801 682 L990 180 Q1018 106 1054 71 Q1090 36 1161 33 L1161 0 L858 0 L606 663 L474 673 L357 246 Q350 219 344 195 Q334 146 334 119 Q334 72 367 54 Q400 36 474 33 L474 0 L-29 0 L-29 33 Z M516 1807 L591 1807 L776 1591 L1068 1807 L1141 1807 L807 1461 L712 1461 L516 1807 Z " />
<glyph glyph-name="rcaron" unicode="&#x159;" horiz-adv-x="797" d="M417 910 Q426 910 429.5 904.5 Q433 899 433 892 Q432 882 431 877 L331 490 L353 533 Q425 674 521.5 790.5 Q618 907 705 907 Q752 907 777.5 876 Q803 845 803 805 Q803 760 777.5 730.5 Q752 701 707 701 Q676 701 660 713 Q644 725 635 741 L623 763 Q619 769 613.5 772.5 Q608 776 600 776 Q561 776 487.5 667 Q414 558 356 431 Q321 354 278 227 Q251 147 206 0 L52 0 L218 602 Q232 654 240.5 695 Q249 736 249 762 Q249 792 234 808 Q219 824 182 824 Q170 824 152 822 Q134 820 109 817 L109 850 L149 858 Q227 874 319.5 892 Q412 910 417 910 Z M215 1376 L290 1376 L475 1160 L767 1376 L840 1376 L506 1030 L411 1030 L215 1376 Z " />
<glyph glyph-name="Sacute" unicode="&#x15a;" horiz-adv-x="1024" d="M104 419 L143 414 Q142 379 142 373 Q142 217 228.5 122.5 Q315 28 440 28 Q566 28 635 113 Q704 198 704 299 Q704 337 691 379 Q671 444 625 495 L497 635 Q349 797 307 867 Q265 937 265 1019 Q265 1145 359 1251.5 Q453 1358 635 1358 Q716 1358 802 1330.5 Q888 1303 905 1303 Q938 1303 959 1321.5 Q980 1340 993 1360 L1040 1360 L957 952 L922 957 Q917 1103 885 1170 Q827 1289 666 1289 Q567 1289 505 1232.5 Q443 1176 443 1091 Q443 1022 471 975 Q499 928 578 843 L763 644 Q813 590 847 521.5 Q881 453 881 362 Q881 202 769.5 78.5 Q658 -45 472 -45 Q375 -45 275.5 -7.5 Q176 30 152 30 Q116 30 100 13 Q84 -4 71 -38 L35 -38 L104 419 Z M1056 1729 Q1056 1707 1045 1693.5 Q1034 1680 1020 1671 L670 1453 L598 1453 L930 1780 Q939 1789 954 1795 Q969 1801 983 1801 Q1011 1801 1033.5 1780.5 Q1056 1760 1056 1729 Z " />
<glyph glyph-name="sacute" unicode="&#x15b;" horiz-adv-x="797" d="M73 298 L106 298 Q128 177 158 121 Q213 18 322 18 Q383 18 424.5 61 Q466 104 466 175 Q466 219 455.5 247 Q445 275 429 298 L346 421 Q271 533 252 571 Q223 628 223 685 Q223 772 285.5 838.5 Q348 905 463 905 Q512 905 575 886.5 Q638 868 661 868 Q686 868 698 878 Q710 888 720 905 L749 905 L708 621 L675 621 Q662 718 636 767 Q588 858 484 858 Q440 858 405.5 830.5 Q371 803 371 750 Q371 709 386.5 678 Q402 647 457 568 L528 466 Q583 387 606 337 Q629 287 629 229 Q629 121 537 47 Q445 -27 318 -27 Q277 -27 201 -10 Q125 7 113 7 Q93 7 83.5 -2 Q74 -11 66 -29 L33 -29 L73 298 Z M795 1271 Q795 1249 784 1235.5 Q773 1222 759 1213 L409 995 L337 995 L669 1322 Q678 1331 693 1337 Q708 1343 722 1343 Q750 1343 772.5 1322.5 Q795 1302 795 1271 Z " />
<glyph glyph-name="Scircumflex" unicode="&#x15c;" horiz-adv-x="1024" d="M104 419 L143 414 Q142 379 142 373 Q142 217 228.5 122.5 Q315 28 440 28 Q566 28 635 113 Q704 198 704 299 Q704 337 691 379 Q671 444 625 495 L497 635 Q349 797 307 867 Q265 937 265 1019 Q265 1145 359 1251.5 Q453 1358 635 1358 Q716 1358 802 1330.5 Q888 1303 905 1303 Q938 1303 959 1321.5 Q980 1340 993 1360 L1040 1360 L957 952 L922 957 Q917 1103 885 1170 Q827 1289 666 1289 Q567 1289 505 1232.5 Q443 1176 443 1091 Q443 1022 471 975 Q499 928 578 843 L763 644 Q813 590 847 521.5 Q881 453 881 362 Q881 202 769.5 78.5 Q658 -45 472 -45 Q375 -45 275.5 -7.5 Q176 30 152 30 Q116 30 100 13 Q84 -4 71 -38 L35 -38 L104 419 Z M989 1436 L820 1649 L541 1436 L460 1436 L782 1782 L882 1782 L1062 1436 L989 1436 Z " />
<glyph glyph-name="scircumflex" unicode="&#x15d;" horiz-adv-x="797" d="M73 298 L106 298 Q128 177 158 121 Q213 18 322 18 Q383 18 424.5 61 Q466 104 466 175 Q466 219 455.5 247 Q445 275 429 298 L346 421 Q271 533 252 571 Q223 628 223 685 Q223 772 285.5 838.5 Q348 905 463 905 Q512 905 575 886.5 Q638 868 661 868 Q686 868 698 878 Q710 888 720 905 L749 905 L708 621 L675 621 Q662 718 636 767 Q588 858 484 858 Q440 858 405.5 830.5 Q371 803 371 750 Q371 709 386.5 678 Q402 647 457 568 L528 466 Q583 387 606 337 Q629 287 629 229 Q629 121 537 47 Q445 -27 318 -27 Q277 -27 201 -10 Q125 7 113 7 Q93 7 83.5 -2 Q74 -11 66 -29 L33 -29 L73 298 Z M760 1000 L591 1213 L312 1000 L231 1000 L553 1346 L653 1346 L833 1000 L760 1000 Z " />
</font>
</svg>
