<?xml version="1.0" encoding="UTF-8"?>
<svg xmlns="http://www.w3.org/2000/svg" xmlns:xlink="http://www.w3.org/1999/xlink" version="1.2" >
<font id="Times Bold Italic">
<font-face  font-family="Times" units-per-em="2048" ascent="1536" descent="-512" font-style="italic" font-weight="700" font-stretch="normal" slope="-15" cap-height="1536" x-height="1024" underline-position="-136" underline-thickness="139" />
<missing-glyph  horiz-adv-x="1593" d="M-53 0 L-53 1370 L1460 1370 L1460 0 L-53 0 Z M1261 199 L1261 1171 L146 1171 L146 199 L1261 199 Z " />
<glyph glyph-name="&amp;#x0;" d="" />
<glyph glyph-name="&amp;#x8;" unicode="&#x8;" d="" />
<glyph glyph-name="&amp;#x1d;" unicode="&#x1d;" d="" />
<glyph glyph-name="&amp;#x9;" unicode="&#x9;" horiz-adv-x="512" d="" />
<glyph glyph-name="&amp;#xa;" unicode="&#xa;" horiz-adv-x="512" d="" />
<glyph glyph-name="&amp;#xd;" unicode="&#xd;" horiz-adv-x="512" d="" />
<glyph glyph-name="space" unicode="&#x20;" horiz-adv-x="512" d="" />
<glyph glyph-name="exclam" unicode="&#x21;" horiz-adv-x="797" d="M284 267 Q353 267 396.5 222 Q440 177 440 118 Q440 55 394 13 Q348 -29 287 -29 Q227 -29 182 12.5 Q137 54 137 116 Q137 178 180.5 222.5 Q224 267 284 267 Z M756 1248 Q756 1224 749.5 1192 Q743 1160 730 1135 L658 995 Q569 823 496 652 Q457 562 400 417 L341 433 Q364 541 397 741 Q440 1006 448 1135 L452 1204 Q456 1265 480 1313 Q523 1400 613 1400 Q670 1400 713 1363.5 Q756 1327 756 1248 Z " />
<glyph glyph-name="quotedbl" unicode="&#x22;" horiz-adv-x="1137" d="M460 1403 Q511 1403 535 1368.5 Q559 1334 559 1284 Q559 1260 530 1058 Q537 1103 488 768 L433 768 L369 1204 Q366 1225 364 1245 Q362 1265 362 1282 Q362 1356 404 1386 Q428 1403 460 1403 Z M803 1403 Q865 1403 886 1354 Q898 1326 898 1268 Q898 1231 892 1178 Q886 1125 872 1035 Q866 999 852.5 915.5 Q839 832 829 768 L772 768 L708 1220 Q706 1239 705 1249.5 Q704 1260 704 1272 Q704 1324 716 1352 Q739 1403 803 1403 Z " />
<glyph glyph-name="numbersign" unicode="&#x23;" horiz-adv-x="1024" d="M557 512 L644 850 L462 850 L372 512 L557 512 Z M11 512 L206 512 L296 850 L104 850 L123 957 L320 957 L436 1362 L599 1362 L485 957 L670 957 L786 1362 L948 1362 L832 957 L1026 957 L1007 850 L810 850 L720 512 L914 512 L896 405 L689 405 L583 0 L419 0 L528 405 L343 405 L229 0 L68 0 L180 405 L-8 405 L11 512 Z " />
<glyph glyph-name="dollar" unicode="&#x24;" horiz-adv-x="1024" d="M381 66 Q397 65 406 64.5 Q415 64 424 64 Q525 64 593 137 Q661 210 661 321 Q661 402 619 462 Q593 500 519 561 L381 66 Z M364 1105 Q364 1042 407 988 Q432 955 507 893 L621 1301 Q611 1303 601.5 1303.5 Q592 1304 580 1304 Q474 1304 419 1245 Q364 1186 364 1105 Z M431 621 Q280 739 220.5 814 Q161 889 161 1002 Q161 1148 270.5 1260 Q380 1372 568 1372 Q589 1372 604.5 1371 Q620 1370 640 1367 L677 1500 L779 1500 L739 1353 Q797 1342 870.5 1312.5 Q944 1283 981 1253 L1016 1225 L931 952 L888 962 Q890 997 890.5 1007 Q891 1017 891 1028 Q891 1093 869 1148 Q827 1252 718 1280 L597 839 Q744 716 797 648 Q884 536 884 410 Q884 238 744 115 Q604 -8 412 0 L365 2 L308 -207 L201 -207 L260 14 Q174 35 108 67.5 Q42 100 -43 175 L45 466 L90 455 Q103 282 133.5 211 Q164 140 279 85 L431 621 Z " />
<glyph glyph-name="percent" unicode="&#x25;" horiz-adv-x="1706" d="M1264 104 Q1373 104 1463.5 260.5 Q1554 417 1554 548 Q1554 613 1525.5 654.5 Q1497 696 1445 696 Q1339 696 1250 503.5 Q1161 311 1161 222 Q1161 161 1190.5 132.5 Q1220 104 1264 104 Z M1386 801 Q1492 801 1557.5 736.5 Q1623 672 1623 549 Q1623 381 1506 195 Q1389 9 1192 9 Q1091 9 1006 85 Q921 161 921 288 Q921 480 1065.5 640.5 Q1210 801 1386 801 Z M414 696 Q526 696 617.5 856.5 Q709 1017 709 1165 Q709 1210 704 1221 Q699 1232 675 1242 Q651 1252 623.5 1271.5 Q596 1291 587 1291 Q501 1291 408 1100 Q315 909 315 810 Q315 759 339.5 727.5 Q364 696 414 696 Z M536 1389 Q613 1389 697.5 1332 Q782 1275 889 1275 Q997 1275 1087 1317 Q1177 1359 1239 1417 L1317 1417 L512 -19 L398 -19 L1112 1252 Q1065 1230 996 1214 Q927 1198 868 1198 Q851 1198 840 1199.5 Q829 1201 779 1208 Q783 1144 782.5 1154 Q782 1164 782 1156 Q782 1003 689 834 Q561 602 340 602 Q240 602 159 673 Q78 744 78 886 Q78 1080 225.5 1234.5 Q373 1389 536 1389 Z " />
<glyph glyph-name="ampersand" unicode="&#x26;" horiz-adv-x="1593" d="M1050 1199 Q1050 1250 1024 1289.5 Q998 1329 945 1329 Q860 1329 824 1236 Q801 1175 801 1078 Q801 1038 807 991 Q813 944 822 888 Q932 952 976 1000 Q1050 1081 1050 1199 Z M620 105 Q668 105 717 121 Q766 137 815 163 Q719 313 667 451 Q634 537 592 701 Q493 655 444 608 Q355 522 355 395 Q355 284 424 194.5 Q493 105 620 105 Z M576 786 Q559 884 556.5 905.5 Q554 927 554 958 Q554 1172 661 1284 Q768 1396 930 1396 Q1061 1396 1137 1329 Q1213 1262 1213 1162 Q1213 1034 1075 932 Q998 875 841 810 Q865 673 923 535 Q956 456 1016 346 Q1093 440 1121 483 Q1168 556 1168 606 Q1168 651 1129 671 Q1106 682 1054 687 L1054 739 L1488 739 L1488 687 Q1398 674 1345.5 622 Q1293 570 1069 272 Q1134 179 1213 143 Q1255 125 1294 125 Q1343 125 1391 155 Q1419 172 1453 206 L1505 163 Q1427 71 1373 31 Q1277 -38 1161 -38 Q1054 -38 968 12 Q919 40 872 90 Q771 12 639 -20 Q556 -41 475 -41 Q296 -41 189 57.5 Q82 156 82 302 Q82 388 124 467 Q166 546 245 616 Q325 672 401 709.5 Q477 747 576 786 Z " />
<glyph glyph-name="quotesingle" unicode="&#x27;" horiz-adv-x="569" d="M341 1403 Q404 1403 426 1357 Q438 1331 438 1286 Q438 1253 427.5 1174.5 Q417 1096 369 768 L315 768 L251 1204 Q248 1222 247 1236 Q246 1250 246 1268 Q246 1322 258 1351 Q279 1403 341 1403 Z " />
<glyph glyph-name="parenleft" unicode="&#x28;" horiz-adv-x="682" d="M348 -373 Q207 -191 131.5 10.5 Q56 212 56 429 Q56 774 285 1059 Q423 1232 668 1398 L704 1358 Q545 1210 481 1120.5 Q417 1031 346 824 Q303 699 275.5 541.5 Q248 384 248 197 Q248 28 283.5 -94 Q319 -216 395 -342 L348 -373 Z " />
<glyph glyph-name="parenright" unicode="&#x29;" horiz-adv-x="682" d="M263 1398 Q433 1176 493.5 979 Q554 782 554 599 Q554 376 477.5 214.5 Q401 53 286 -79 Q190 -189 50 -297.5 Q-90 -406 -57 -373 L-93 -332 Q58 -193 113 -118 Q196 -4 265 201 Q318 357 340 514.5 Q362 672 362 828 Q362 978 331 1102.5 Q300 1227 215 1367 L263 1398 Z " />
<glyph glyph-name="asterisk" unicode="&#x2a;" horiz-adv-x="1024" d="M483 967 Q427 995 398.5 1003 Q370 1011 297 1017 Q230 1021 202 1036 Q154 1062 168 1126 Q177 1167 208.5 1196 Q240 1225 287 1225 Q356 1225 396.5 1133.5 Q437 1042 508 995 L527 1007 Q545 1109 518 1179.5 Q491 1250 501 1297 Q513 1352 550 1376.5 Q587 1401 628 1401 Q666 1401 690.5 1373 Q715 1345 702 1288 Q695 1253 636 1172.5 Q577 1092 562 1005 L579 995 Q670 1052 764 1160 Q827 1231 892 1231 Q933 1231 956 1199 Q979 1167 971 1131 Q964 1098 935 1068 Q885 1019 798 1015 Q708 1012 677 1003.5 Q646 995 588 962 L584 943 Q634 915 665 906 Q713 893 795 893 Q850 893 880 862.5 Q910 832 899 784 Q890 738 852 710 Q814 682 776 682 Q711 682 671.5 774.5 Q632 867 562 914 L538 903 Q523 795 548 726 Q573 657 564 614 Q556 577 522 542 Q488 507 434 507 Q395 507 372.5 537.5 Q350 568 361 617 Q370 658 427.5 734.5 Q485 811 505 905 L488 914 Q391 857 313 768 Q235 679 179 679 Q138 679 113 707 Q88 735 97 776 Q109 835 156 863 Q203 891 267 894 Q345 901 383 909 Q421 917 479 948 L483 967 Z " />
<glyph glyph-name="plus" unicode="&#x2b;" horiz-adv-x="1167" d="M75 618 L512 618 L605 1054 L787 1054 L694 618 L1128 618 L1089 436 L655 436 L562 0 L380 0 L473 436 L36 436 L75 618 Z " />
<glyph glyph-name="comma" unicode="&#x2c;" horiz-adv-x="512" d="M5 -328 Q117 -272 178 -229 Q284 -154 299 -85 Q306 -52 244.5 -1.5 Q183 49 199 125 Q213 190 262.5 231 Q312 272 375 272 Q453 272 490 215 Q527 158 509 73 Q473 -98 257 -249 Q117 -347 21 -377 L5 -328 Z " />
<glyph glyph-name="hyphen" unicode="&#x2d;" horiz-adv-x="682" d="M138 583 L641 583 L542 346 L40 346 L138 583 Z " />
<glyph glyph-name="period" unicode="&#x2e;" horiz-adv-x="512" d="M318 274 Q381 274 416 229.5 Q451 185 438 123 Q424 60 370 15.5 Q316 -29 253 -29 Q191 -29 156 15.5 Q121 60 135 123 Q148 186 202 230 Q256 274 318 274 Z " />
<glyph glyph-name="slash" unicode="&#x2f;" horiz-adv-x="569" d="M450 1417 L597 1417 L118 -34 L-29 -34 L450 1417 Z " />
<glyph glyph-name="zero" unicode="0" horiz-adv-x="1024" d="M350 33 Q436 33 505 174 Q545 256 607 465 Q681 715 723 913.5 Q765 1112 765 1182 Q765 1244 750 1279 Q727 1335 666 1335 Q581 1335 503 1166 Q459 1070 399 865 Q346 687 296 475 Q246 263 246 161 Q246 94 279 63.5 Q312 33 350 33 Z M976 924 Q976 572 800 278 Q615 -32 365 -32 Q228 -32 131.5 93.5 Q35 219 35 420 Q35 771 218 1075 Q410 1394 657 1394 Q807 1394 891.5 1265.5 Q976 1137 976 924 Z " />
<glyph glyph-name="one" unicode="1" horiz-adv-x="1024" d="M9 47 Q114 50 171 80 Q228 110 253 199 L516 1137 Q520 1153 521.5 1167 Q523 1181 523 1189 Q523 1233 494.5 1244.5 Q466 1256 423 1256 Q402 1256 361 1252 Q339 1249 301 1244 L305 1291 Q532 1330 601.5 1343 Q671 1356 858 1396 L542 251 Q533 216 526 185 Q519 154 519 133 Q519 76 571 60 Q604 49 715 47 L715 0 L9 0 L9 47 Z " />
<glyph glyph-name="two" unicode="2" horiz-adv-x="1024" d="M-57 49 Q-28 78 119 220 Q215 313 277 381 Q501 628 570 751.5 Q639 875 639 986 Q639 1088 592 1150.5 Q545 1213 443 1213 Q350 1213 274 1151 Q229 1114 175 1038 L130 1061 Q188 1184 274 1268 Q406 1396 575 1396 Q736 1396 824 1289.5 Q912 1183 912 1054 Q912 914 824.5 791.5 Q737 669 618 568 L218 227 L521 227 Q638 227 697 260.5 Q756 294 805 391 L858 391 L696 0 L-57 0 L-57 49 Z " />
<glyph glyph-name="three" unicode="3" horiz-adv-x="1024" d="M-34 138 Q-34 188 -2 219.5 Q30 251 81 251 Q126 251 157 230 Q188 209 227 152 L256 112 Q282 75 302 65 Q322 55 355 55 Q448 55 515.5 151 Q583 247 583 393 Q583 574 480.5 644 Q378 714 263 711 L270 756 Q435 793 514 840 Q656 923 656 1073 Q656 1156 611.5 1204.5 Q567 1253 486 1253 Q413 1253 356 1215.5 Q299 1178 241 1099 L199 1125 Q266 1226 328 1285 Q442 1398 618 1398 Q738 1398 830 1324 Q922 1250 922 1120 Q922 1026 859.5 947 Q797 868 701 824 L677 813 Q749 759 797 686.5 Q845 614 845 509 Q845 297 660 130 Q483 -29 232 -29 Q78 -29 8 42 Q-34 85 -34 138 Z " />
<glyph glyph-name="four" unicode="4" horiz-adv-x="1024" d="M523 507 L685 1076 L109 507 L523 507 Z M900 1398 L1031 1398 L786 507 L926 507 L872 308 L732 308 L647 0 L384 0 L469 308 L-34 308 L26 521 L900 1398 Z " />
<glyph glyph-name="five" unicode="5" horiz-adv-x="1024" d="M99 251 Q178 251 237.5 152.5 Q297 54 356 54 Q450 54 538.5 148.5 Q627 243 627 394 Q627 546 499 655 Q371 764 149 760 L417 1370 L997 1370 L924 1147 L402 1147 L334 990 Q537 956 645 889 Q843 764 843 505 Q843 278 663 123 Q487 -29 238 -29 Q124 -29 49.5 18.5 Q-25 66 -25 138 Q-25 186 12 218.5 Q49 251 99 251 Z " />
<glyph glyph-name="six" unicode="6" horiz-adv-x="1024" d="M392 35 Q461 35 508 106 Q536 149 568 246 Q596 333 617 415 Q654 562 654 638 Q654 692 638 723 Q609 782 528 782 Q466 782 446 765.5 Q426 749 405 699 Q349 560 322 466 Q277 307 277 174 Q277 117 302.5 76 Q328 35 392 35 Z M1042 1341 L952 1306 Q785 1235 658 1100.5 Q531 966 474 836 Q510 851 539 858 Q568 865 610 865 Q707 865 786 806 Q908 715 908 514 Q908 287 758.5 126.5 Q609 -34 405 -34 Q282 -34 189 37 Q45 148 45 403 Q45 709 262 978 Q533 1315 1031 1391 L1042 1341 Z " />
<glyph glyph-name="seven" unicode="7" horiz-adv-x="1024" d="M106 0 L786 1137 L514 1137 Q358 1137 292.5 1111 Q227 1085 170 981 L116 981 L293 1365 L1076 1365 L293 0 L106 0 Z " />
<glyph glyph-name="eight" unicode="8" horiz-adv-x="1024" d="M635 824 Q696 869 739 941 Q782 1022 782 1109 Q782 1223 734 1277.5 Q686 1332 622 1332 Q544 1332 496.5 1275.5 Q449 1219 449 1136 Q449 1050 500 975 Q532 927 635 824 Z M402 35 Q512 35 569.5 114.5 Q627 194 627 292 Q627 384 592.5 444 Q558 504 429 656 Q332 594 283 529 Q205 426 205 283 Q205 158 263 96.5 Q321 35 402 35 Z M7 308 Q7 447 103.5 543.5 Q200 640 374 696 L374 706 Q306 777 276 829 Q222 920 222 1024 Q222 1178 331.5 1288 Q441 1398 613 1398 Q761 1398 867.5 1323.5 Q974 1249 974 1099 Q974 974 874 888 Q817 839 682 779 L682 770 Q758 687 794 625 Q858 515 858 398 Q858 219 733 95 Q608 -29 395 -29 Q234 -29 120.5 62.5 Q7 154 7 308 Z " />
<glyph glyph-name="nine" unicode="9" horiz-adv-x="1024" d="M744 1190 Q744 1247 721 1288 Q698 1329 636 1329 Q505 1329 422 1042 Q364 841 364 728 Q364 647 399 615 Q434 583 494 583 Q563 583 590 617.5 Q617 652 671 810 Q712 928 728 1024.5 Q744 1121 744 1190 Z M971 948 Q971 826 927 693 Q850 461 661 282 Q497 126 292 48 Q176 4 -15 -29 L-27 23 Q216 101 382 282 Q485 393 542 523 Q507 508 482 501.5 Q457 495 415 495 Q295 495 202 579 Q109 663 109 827 Q109 1058 259.5 1225.5 Q410 1393 605 1393 Q791 1393 881 1273 Q971 1153 971 948 Z " />
<glyph glyph-name="colon" unicode="&#x3a;" horiz-adv-x="682" d="M412 123 Q412 60 367.5 15.5 Q323 -29 260 -29 Q197 -29 153 15.5 Q109 60 109 123 Q109 185 153 229.5 Q197 274 260 274 Q323 274 367.5 230 Q412 186 412 123 Z M450 941 Q513 941 557.5 896.5 Q602 852 602 789 Q602 726 557.5 681.5 Q513 637 450 637 Q387 637 342.5 681.5 Q298 726 298 789 Q298 852 342.5 896.5 Q387 941 450 941 Z " />
<glyph glyph-name="semicolon" unicode="&#x3b;" horiz-adv-x="682" d="M0 -328 Q100 -272 152 -229 Q242 -154 242 -85 Q242 -52 170 -1.5 Q98 49 98 125 Q98 190 139 231 Q180 272 243 272 Q321 272 370 215 Q419 158 419 73 Q419 -98 235 -249 Q116 -347 26 -377 L0 -328 Z M298 789 Q298 852 342.5 896.5 Q387 941 450 941 Q513 941 557.5 896.5 Q602 852 602 789 Q602 726 557.5 681.5 Q513 637 450 637 Q387 637 342.5 681.5 Q298 726 298 789 Z " />
<glyph glyph-name="less" unicode="&#x3c;" horiz-adv-x="1167" d="M-3 493 L11 561 L1278 1078 L1236 881 L357 528 L1086 175 L1043 -24 L-3 493 Z " />
<glyph glyph-name="equal" unicode="&#x3d;" horiz-adv-x="1167" d="M1044 222 L-8 222 L30 405 L1083 405 L1044 222 Z M1135 651 L82 651 L120 832 L1173 832 L1135 651 Z " />
<glyph glyph-name="greater" unicode="&#x3e;" horiz-adv-x="1167" d="M-70 175 L808 528 L79 881 L121 1078 L1168 561 L1153 493 L-113 -24 L-70 175 Z " />
<glyph glyph-name="question" unicode="&#x3f;" horiz-adv-x="1024" d="M312 274 Q375 274 419.5 229.5 Q464 185 464 123 Q464 60 419.5 15.5 Q375 -29 312 -29 Q250 -29 205.5 15.5 Q161 60 161 123 Q161 185 205 229.5 Q249 274 312 274 Z M593 1400 Q791 1400 876.5 1308.5 Q962 1217 962 1103 Q962 993 892.5 912.5 Q823 832 704 756 L568 668 Q510 630 473.5 581.5 Q437 533 400 426 L341 440 Q355 528 387.5 604 Q420 680 488 765 L571 869 Q652 971 682 1056 Q701 1112 701 1178 Q701 1249 663 1292.5 Q625 1336 556 1336 Q509 1336 471 1312 Q433 1288 433 1261 Q433 1255 434.5 1249 Q436 1243 440 1239 L457 1216 Q472 1196 482.5 1169 Q493 1142 493 1122 Q493 1071 458.5 1035.5 Q424 1000 366 1000 Q311 1000 277 1041 Q243 1082 243 1135 Q243 1244 341 1322 Q439 1400 593 1400 Z " />
<glyph glyph-name="at" unicode="&#x40;" horiz-adv-x="1704" d="M1129 843 Q1129 893 1108.5 919 Q1088 945 1043 945 Q942 945 862.5 767 Q783 589 783 497 Q783 450 804 413.5 Q825 377 875 377 Q986 377 1057.5 570 Q1129 763 1129 843 Z M1540 139 Q1390 44 1246 1.5 Q1102 -41 964 -41 Q629 -41 401 157 Q173 353 173 637 Q173 960 433 1190 Q689 1415 1038 1415 Q1316 1415 1510 1266 Q1723 1102 1723 828 Q1723 611 1582 446.5 Q1441 282 1284 282 Q1170 282 1114 347 Q1079 389 1076 438 Q1022 350 961.5 316 Q901 282 829 282 Q714 282 635.5 367 Q557 452 557 578 Q557 745 690.5 892.5 Q824 1040 988 1040 Q1035 1040 1074 1025 Q1150 997 1182 922 L1211 1012 L1431 1012 Q1421 987 1346 746 Q1263 477 1263 446 Q1263 407 1299 388 Q1321 376 1340 376 Q1431 376 1530.5 510 Q1630 644 1630 825 Q1630 1057 1462 1185 Q1294 1313 1073 1313 Q750 1313 539 1090 Q350 890 350 644 Q350 348 556 187 Q731 49 986 49 Q1091 49 1182.5 70.5 Q1274 92 1337 119 Q1371 133 1390 145 Q1437 169 1495 208 L1540 139 Z " />
<glyph glyph-name="A" unicode="A" horiz-adv-x="1366" d="M739 507 L663 1005 L360 507 L739 507 Z M-109 49 Q-52 66 -25 86 Q15 115 64 194 L824 1398 L877 1398 L1073 227 Q1093 109 1121 82.5 Q1149 56 1244 49 L1244 0 L623 0 L623 49 Q711 56 747.5 77.5 Q784 99 784 167 Q784 190 773 277 Q771 295 753 426 L312 426 L192 218 Q180 197 170.5 172 Q161 147 161 124 Q161 82 186.5 70 Q212 58 293 49 L293 0 L-109 0 L-109 49 Z " />
<glyph glyph-name="B" unicode="B" horiz-adv-x="1366" d="M566 753 Q716 765 771.5 777.5 Q827 790 874 832 Q933 885 959 979 Q976 1040 976 1100 Q976 1190 938 1246.5 Q900 1303 788 1303 Q741 1303 722.5 1281 Q704 1259 692 1213 L566 753 Z M405 129 Q405 87 449 72 Q474 64 527 64 Q722 64 807 244 Q858 351 858 466 Q858 607 761 656 Q703 685 549 692 L414 192 Q410 180 407.5 164.5 Q405 149 405 129 Z M-53 52 Q15 61 43 80 Q89 111 113 199 L365 1118 Q376 1159 381 1186 Q386 1213 386 1228 Q386 1283 355 1297.5 Q324 1312 237 1317 L237 1370 L794 1370 Q1024 1370 1150.5 1297.5 Q1277 1225 1277 1063 Q1277 906 1121 812 Q1037 761 896 727 Q1025 681 1079 635 Q1170 558 1170 424 Q1170 255 1031 127.5 Q892 0 566 0 L-53 0 L-53 52 Z " />
<glyph glyph-name="C" unicode="C" horiz-adv-x="1366" d="M874 1403 Q979 1403 1090.5 1373 Q1202 1343 1224 1343 Q1256 1343 1272 1359 Q1288 1375 1303 1403 L1365 1403 L1261 924 L1197 936 Q1200 979 1200.5 986.5 Q1201 994 1201 1009 Q1201 1171 1125 1250 Q1049 1329 932 1329 Q694 1329 518 1013 Q360 731 360 438 Q360 225 457.5 146.5 Q555 68 670 68 Q820 68 953 167 Q1025 221 1097 312 L1159 267 Q1053 111 907 35 Q761 -41 611 -41 Q365 -41 204.5 103.5 Q44 248 44 490 Q44 860 290 1131 Q536 1403 874 1403 Z " />
<glyph glyph-name="D" unicode="D" horiz-adv-x="1479" d="M-67 52 Q0 61 28 80 Q75 111 99 199 L350 1118 Q361 1157 366.5 1183.5 Q372 1210 372 1230 Q372 1282 343 1295.5 Q314 1309 222 1317 L222 1370 L817 1370 Q1119 1370 1276.5 1215.5 Q1434 1061 1434 801 Q1434 488 1201 257 Q942 0 521 0 L-67 0 L-67 52 Z M1133 926 Q1133 1078 1082 1168 Q1002 1306 805 1306 Q739 1306 715.5 1284.5 Q692 1263 682 1227 L400 192 Q396 177 394.5 165 Q393 153 393 144 Q393 104 417.5 86 Q442 68 506 68 Q871 68 1034 444 Q1133 672 1133 926 Z " />
<glyph glyph-name="E" unicode="E" horiz-adv-x="1366" d="M-57 52 Q16 61 51 88 Q86 115 109 199 L360 1118 Q369 1153 375 1181.5 Q381 1210 381 1230 Q381 1282 353.5 1295.5 Q326 1309 232 1317 L232 1370 L1336 1370 L1249 981 L1194 990 Q1192 1139 1146 1201 Q1068 1306 830 1306 Q749 1306 725.5 1286.5 Q702 1267 687 1213 L564 758 Q779 763 842.5 793 Q906 823 983 974 L1040 967 L888 407 L832 417 Q836 446 837.5 467.5 Q839 489 839 503 Q839 612 779 652 Q719 692 545 692 L410 192 Q405 174 402.5 157 Q400 140 400 130 Q400 102 422 84 Q444 66 514 66 Q700 66 831 118 Q1035 198 1149 407 L1199 398 L1078 0 L-57 0 L-57 52 Z " />
<glyph glyph-name="F" unicode="F" horiz-adv-x="1366" d="M-43 52 Q31 61 66 89 Q101 117 123 199 L374 1118 Q381 1146 386 1167 Q395 1210 395 1234 Q395 1283 367 1296 Q339 1309 246 1317 L246 1370 L1336 1370 L1249 981 L1194 990 Q1192 1137 1147 1199 Q1069 1306 836 1306 Q767 1306 741.5 1288 Q716 1270 701 1213 L578 758 Q783 764 845 794 Q907 824 983 974 L1040 967 L888 407 L832 417 Q836 447 837.5 469 Q839 491 839 503 Q839 604 786 648 Q733 692 559 692 L424 192 Q421 179 419 168 Q417 157 417 146 Q417 86 468 65 Q499 52 564 52 L564 0 L-43 0 L-43 52 Z " />
<glyph glyph-name="G" unicode="G" horiz-adv-x="1479" d="M905 1403 Q1022 1403 1127 1372 Q1232 1341 1248 1341 Q1280 1341 1297.5 1357.5 Q1315 1374 1332 1403 L1393 1403 L1289 950 L1230 957 Q1232 1083 1196 1168 Q1129 1327 942 1327 Q690 1327 514 1009 Q362 731 362 438 Q362 188 502 90 Q579 36 688 36 Q786 36 840.5 65.5 Q895 95 916 158 Q916 148 962.5 317.5 Q1009 487 1009 535 Q1009 586 981.5 599.5 Q954 613 858 623 L858 675 L1445 675 L1445 623 Q1360 614 1337 591 Q1314 568 1284 455 L1185 82 L1128 56 Q1059 25 929 -7.5 Q799 -40 660 -40 Q403 -40 230 100 Q42 252 42 512 Q42 847 268 1111 Q519 1403 905 1403 Z " />
<glyph glyph-name="H" unicode="H" horiz-adv-x="1593" d="M-53 52 Q25 61 57.5 89 Q90 117 113 199 L365 1118 Q373 1150 379.5 1180 Q386 1210 386 1230 Q386 1282 358 1295.5 Q330 1309 237 1317 L237 1370 L886 1370 L886 1317 Q779 1306 742 1283.5 Q705 1261 680 1170 L568 763 L1057 763 L1154 1118 Q1163 1153 1169 1181.5 Q1175 1210 1175 1230 Q1175 1284 1135 1301 Q1109 1312 1026 1317 L1026 1370 L1635 1370 L1635 1317 Q1564 1308 1536 1289 Q1493 1258 1469 1170 L1218 251 L1201 180 Q1196 157 1195 151.5 Q1194 146 1194 138 Q1194 85 1239 67 Q1266 56 1346 52 L1346 0 L696 0 L696 52 Q803 63 840.5 85.5 Q878 108 903 199 L1033 673 L545 673 L429 251 Q417 204 413 184 Q409 164 409 135 Q409 86 436 73 Q463 60 557 52 L557 0 L-53 0 L-53 52 Z " />
<glyph glyph-name="I" unicode="I" horiz-adv-x="797" d="M-48 52 Q25 61 60 88 Q95 115 118 199 L369 1118 Q380 1157 385.5 1183.5 Q391 1210 391 1230 Q391 1282 362 1295.5 Q333 1309 241 1317 L241 1370 L850 1370 L850 1317 Q775 1307 741.5 1281 Q708 1255 685 1170 L433 251 L417 180 Q415 170 413.5 159.5 Q412 149 412 140 Q412 88 440 74 Q468 60 561 52 L561 0 L-48 0 L-48 52 Z " />
<glyph glyph-name="J" unicode="J" horiz-adv-x="1024" d="M1073 1370 L1073 1317 Q1002 1308 974 1288 Q931 1257 907 1170 L644 189 Q593 -2 496 -103 Q398 -204 194 -204 Q52 -204 -22 -138.5 Q-96 -73 -96 9 Q-96 67 -58.5 106 Q-21 145 35 145 Q98 145 133 108.5 Q168 72 168 23 Q168 -12 142.5 -47 Q117 -82 117 -100 Q117 -114 130 -122 Q142 -131 165 -131 Q205 -131 235.5 -103 Q266 -75 296 9 Q313 54 326 102 Q333 127 367 256 L592 1118 Q605 1165 609 1189.5 Q613 1214 613 1233 Q613 1283 585 1296 Q557 1309 464 1317 L464 1370 L1073 1370 Z " />
<glyph glyph-name="K" unicode="K" horiz-adv-x="1366" d="M858 1370 L858 1317 Q760 1306 725 1281.5 Q690 1257 666 1170 L542 718 L552 715 L829 960 Q939 1057 996 1116 Q1100 1221 1100 1262 Q1100 1295 1060 1308 Q1037 1315 986 1317 L986 1370 L1417 1370 L1417 1317 Q1370 1315 1341 1303 Q1294 1283 1225 1220 L782 815 L1104 123 Q1123 84 1150 70 Q1177 56 1232 52 L1232 0 L658 0 L658 52 Q731 56 761 66 Q791 76 791 111 Q791 121 785.5 142 Q780 163 765 194 L545 666 L528 670 L414 251 Q407 226 400 190.5 Q393 155 393 136 Q393 89 431 71 Q455 59 528 52 L528 0 L-67 0 L-67 52 Q10 61 43.5 89.5 Q77 118 99 199 L350 1118 Q358 1149 365 1180 Q372 1211 372 1230 Q372 1282 343 1295.5 Q314 1309 222 1317 L222 1370 L858 1370 Z " />
<glyph glyph-name="L" unicode="L" horiz-adv-x="1251" d="M-48 52 Q25 61 60 88 Q95 115 118 199 L369 1118 Q380 1157 385.5 1183.5 Q391 1210 391 1230 Q391 1282 362 1295.5 Q333 1309 241 1317 L241 1370 L891 1370 L891 1317 Q784 1306 747 1283.5 Q710 1261 685 1170 L419 192 Q415 176 412.5 162 Q410 148 410 129 Q410 95 440 80.5 Q470 66 524 66 Q735 66 888.5 138 Q1042 210 1159 407 L1208 398 L1088 0 L-48 0 L-48 52 Z " />
<glyph glyph-name="M" unicode="M" horiz-adv-x="1821" d="M-62 52 Q17 62 52 111.5 Q87 161 146 365 L369 1128 Q380 1167 386.5 1196.5 Q393 1226 393 1248 Q393 1291 363 1302.5 Q333 1314 246 1317 L246 1370 L699 1370 L810 393 L1443 1370 L1877 1370 L1877 1317 Q1807 1308 1779 1289 Q1735 1259 1711 1173 L1460 251 Q1451 221 1444.5 190 Q1438 159 1438 138 Q1438 87 1467.5 73.5 Q1497 60 1588 52 L1588 0 L948 0 L948 52 Q1051 62 1089.5 85.5 Q1128 109 1152 199 L1410 1142 L640 -27 L583 -27 L445 1109 L239 365 Q223 308 215 270 Q201 208 201 171 Q201 99 258 72 Q290 56 365 52 L365 0 L-62 0 L-62 52 Z " />
<glyph glyph-name="N" unicode="N" horiz-adv-x="1479" d="M-57 52 Q23 63 58 114 Q93 165 151 365 L395 1206 L386 1227 Q363 1282 323 1300 Q297 1312 227 1317 L227 1370 L625 1370 L1069 419 L1230 1002 Q1245 1056 1254 1098 Q1268 1162 1268 1191 Q1268 1266 1216 1294 Q1184 1311 1104 1317 L1104 1370 L1531 1370 L1531 1317 L1502 1313 Q1439 1304 1405 1242.5 Q1371 1181 1322 1005 L1031 -34 L971 -34 L448 1099 L244 365 Q219 274 211 229 Q206 201 206 174 Q206 102 260 74 Q291 58 369 52 L369 0 L-57 0 L-57 52 Z " />
<glyph glyph-name="O" unicode="O" horiz-adv-x="1479" d="M54 452 Q54 788 310 1089 Q578 1403 910 1403 Q1131 1403 1273 1270 Q1415 1137 1415 910 Q1415 579 1164 281 Q896 -38 548 -38 Q329 -38 191.5 95.5 Q54 229 54 452 Z M348 308 Q348 219 373 156 Q422 33 551 33 Q672 33 771 122.5 Q870 212 976 464 Q1043 623 1081 799 Q1119 975 1119 1084 Q1119 1187 1068 1260.5 Q1017 1334 909 1334 Q654 1334 480 881 Q348 537 348 308 Z " />
<glyph glyph-name="P" unicode="P" horiz-adv-x="1251" d="M549 725 Q571 722 587 721 Q603 720 620 720 Q724 720 780 745 Q836 770 877 827 Q915 881 936.5 966.5 Q958 1052 958 1108 Q958 1194 917 1248.5 Q876 1303 779 1303 Q731 1303 714 1283.5 Q697 1264 682 1213 L549 725 Z M-57 52 Q16 61 51 88 Q86 115 109 199 L360 1118 Q368 1149 374.5 1180 Q381 1211 381 1230 Q381 1284 341 1301 Q315 1312 232 1317 L232 1370 L820 1370 Q969 1370 1068 1330 Q1256 1254 1256 1051 Q1256 868 1103.5 758.5 Q951 649 708 649 Q671 649 649 650 Q627 651 530 658 L419 251 L402 180 Q399 170 398 159.5 Q397 149 397 139 Q397 87 425 73.5 Q453 60 547 52 L547 0 L-57 0 L-57 52 Z " />
<glyph glyph-name="Q" unicode="Q" horiz-adv-x="1479" d="M348 308 Q348 219 373 156 Q422 33 551 33 Q672 33 771 122.5 Q870 212 976 464 Q1043 623 1081 799 Q1119 975 1119 1084 Q1119 1187 1068 1260.5 Q1017 1334 909 1334 Q654 1334 480 881 Q348 537 348 308 Z M820 -429 Q698 -429 546 -380.5 Q394 -332 318 -332 Q258 -332 190 -351 Q151 -363 85 -389 L56 -339 L432 -29 Q283 -5 168.5 109.5 Q54 224 54 470 Q54 798 316 1097 Q583 1403 910 1403 Q1131 1403 1273 1270 Q1415 1137 1415 910 Q1415 597 1185 305 Q916 -38 514 -38 L459 -91 Q430 -119 425.5 -124.5 Q421 -130 421 -138 Q426 -144 430 -145.5 Q434 -147 443 -147 Q537 -147 629 -164 Q679 -174 725 -188 L810 -214 Q839 -224 877 -232 Q935 -245 976 -245 Q1085 -245 1163 -198 Q1213 -169 1298 -83 L1341 -124 Q1299 -192 1251.5 -241.5 Q1204 -291 1125 -342 Q1046 -392 964.5 -410.5 Q883 -429 820 -429 Z " />
<glyph glyph-name="R" unicode="R" horiz-adv-x="1366" d="M-62 52 Q11 61 46 88 Q81 115 104 199 L355 1118 Q362 1146 367 1167 Q376 1210 376 1234 Q376 1283 348 1296 Q320 1309 227 1317 L227 1370 L791 1370 Q980 1370 1084 1333 Q1275 1265 1275 1073 Q1275 1009 1243 936.5 Q1211 864 1136 805 Q1083 763 1012 737 Q970 722 881 701 Q890 669 893 661 L1052 199 Q1084 106 1120.5 80.5 Q1157 55 1232 52 L1232 0 L820 0 L599 677 L540 677 L419 251 L402 180 Q400 172 399 162.5 Q398 153 398 143 Q398 88 424.5 74 Q451 60 547 52 L547 0 L-62 0 L-62 52 Z M559 744 Q669 746 723 758 Q819 778 870 836 Q905 876 935.5 948.5 Q966 1021 966 1105 Q966 1191 923 1247.5 Q880 1304 777 1304 Q734 1304 715 1285.5 Q696 1267 682 1213 L559 744 Z " />
<glyph glyph-name="S" unicode="S" horiz-adv-x="1139" d="M11 -38 L85 421 L144 417 Q150 319 161 274 Q180 199 230 141 Q276 88 334.5 60.5 Q393 33 462 33 Q585 33 652.5 111.5 Q720 190 720 294 Q720 423 469 620 Q218 826 218 1001 Q218 1166 328.5 1282 Q439 1398 637 1398 Q692 1398 750 1387 Q788 1380 817 1370 L869 1353 Q886 1348 904 1344.5 Q922 1341 936 1341 Q972 1341 991 1356 Q1010 1371 1024 1393 L1085 1393 L1002 983 L948 990 L941 1057 Q928 1152 882 1220 Q810 1327 672 1327 Q554 1327 500 1241 Q464 1184 464 1118 Q464 1048 501 994 Q522 964 564 929 L741 784 Q835 707 901 608.5 Q967 510 967 384 Q967 222 839.5 91.5 Q712 -39 489 -39 Q433 -39 376.5 -28.5 Q320 -18 265 2 L213 21 Q187 31 177 33.5 Q167 36 154 36 Q120 36 105.5 19.5 Q91 3 73 -38 L11 -38 Z " />
<glyph glyph-name="T" unicode="T" horiz-adv-x="1251" d="M80 52 Q174 52 209 70 Q265 99 293 199 L597 1298 Q444 1299 335 1224.5 Q226 1150 154 1005 L101 1019 L180 1370 L1308 1370 L1234 976 L1180 981 Q1175 1181 1068 1254 Q1010 1294 896 1298 L609 251 L592 180 Q589 166 588 157 Q587 148 587 139 Q587 86 620 72.5 Q653 59 758 52 L758 0 L80 0 L80 52 Z " />
<glyph glyph-name="U" unicode="U" horiz-adv-x="1479" d="M329 1118 Q338 1152 344 1182 Q350 1212 350 1234 Q350 1283 322 1296 Q294 1309 201 1317 L201 1370 L836 1370 L836 1317 Q743 1308 706.5 1285 Q670 1262 644 1170 L476 557 Q453 475 441 423 Q420 330 420 286 Q420 185 487.5 131.5 Q555 78 671 78 Q865 78 975 247 Q1040 345 1104 578 L1223 1005 Q1246 1098 1244 1086 Q1261 1162 1261 1195 Q1261 1267 1207 1295 Q1175 1311 1097 1317 L1097 1370 L1524 1370 L1524 1317 Q1446 1308 1409.5 1257.5 Q1373 1207 1315 1005 L1180 538 Q1099 259 1015 149 Q871 -38 592 -38 Q400 -38 268 54.5 Q136 147 136 312 Q136 373 152 451 Q162 498 194 616 L329 1118 Z " />
<glyph glyph-name="V" unicode="V" horiz-adv-x="1366" d="M711 1370 L711 1317 Q637 1317 604 1305 Q554 1286 554 1233 Q554 1223 555 1213.5 Q556 1204 557 1194 L663 379 L1050 990 Q1096 1063 1133 1136 Q1170 1209 1170 1251 Q1170 1293 1132 1307 Q1108 1315 1038 1317 L1038 1370 L1431 1370 L1431 1317 Q1383 1303 1359 1286 Q1320 1257 1277 1189 L504 -38 L440 -38 L284 1005 Q250 1228 226.5 1268 Q203 1308 99 1317 L99 1370 L711 1370 Z " />
<glyph glyph-name="W" unicode="W" horiz-adv-x="1821" d="M668 1370 L668 1317 Q615 1316 589 1302 Q543 1278 543 1210 Q543 1203 543.5 1196.5 Q544 1190 545 1178 L625 469 L931 1099 Q934 1111 934 1118 Q934 1242 889 1286 Q861 1312 786 1320 L786 1370 L1336 1370 L1336 1317 Q1266 1313 1237 1293 Q1208 1273 1208 1207 Q1208 1193 1210 1168 Q1213 1127 1220 1066 L1289 469 L1607 1133 Q1618 1157 1627.5 1184.5 Q1637 1212 1637 1239 Q1637 1289 1603.5 1303.5 Q1570 1318 1509 1317 L1509 1370 L1891 1370 L1891 1320 Q1842 1315 1813 1295 Q1764 1261 1720 1170 L1135 -38 L1076 -38 L952 957 L476 -38 L417 -38 L258 1149 Q244 1255 217 1283 Q190 1311 99 1320 L99 1370 L668 1370 Z " />
<glyph glyph-name="X" unicode="X" horiz-adv-x="1366" d="M-53 52 Q9 65 76.5 119.5 Q144 174 234 272 L564 632 L391 1189 Q367 1264 329.5 1286 Q292 1308 203 1317 L203 1370 L829 1370 L829 1320 Q738 1312 707.5 1298.5 Q677 1285 677 1237 Q677 1226 679 1217 Q681 1208 685 1192 L782 862 Q840 923 887.5 972.5 Q935 1022 975 1065 Q1070 1165 1094 1197 Q1118 1229 1118 1260 Q1118 1295 1093.5 1305 Q1069 1315 1005 1320 L1005 1370 L1422 1370 L1422 1317 Q1379 1314 1347 1298 Q1293 1271 1218 1194 L810 775 L962 289 Q1010 137 1049 102 Q1088 67 1199 52 L1199 0 L568 0 L568 52 Q632 54 660 64 Q709 82 709 129 Q709 157 702 186.5 Q695 216 687 241 L592 540 L317 237 Q280 196 268 175 Q256 154 256 137 Q256 88 307 67 Q334 56 388 52 L388 0 L-53 0 L-53 52 Z " />
<glyph glyph-name="Y" unicode="Y" horiz-adv-x="1251" d="M94 52 Q193 60 226 79 Q276 107 301 199 L424 640 L244 1189 Q219 1265 192.5 1289.5 Q166 1314 94 1317 L94 1370 L673 1370 L673 1320 Q598 1317 564.5 1304 Q531 1291 531 1245 Q531 1232 534.5 1212 Q538 1192 545 1170 L687 720 L952 1102 Q973 1132 986 1157 Q1006 1199 1006 1234 Q1006 1287 961 1306 Q934 1317 867 1320 L867 1370 L1294 1370 L1294 1320 Q1250 1313 1216 1291 Q1162 1257 1106 1178 L718 630 L616 251 Q609 228 601.5 192.5 Q594 157 594 142 Q594 87 635 69 Q662 57 753 52 L753 0 L94 0 L94 52 Z " />
<glyph glyph-name="Z" unicode="Z" horiz-adv-x="1251" d="M-5 59 L886 1298 L727 1298 Q533 1293 399 1199 Q312 1138 210 997 L154 1005 L270 1370 L1227 1370 L1227 1310 L338 71 L483 71 Q655 71 770 113 Q980 190 1099 407 L1154 398 L1033 0 L-5 0 L-5 59 Z " />
<glyph glyph-name="bracketleft" unicode="&#x5b;" horiz-adv-x="682" d="M803 1379 L789 1310 L647 1310 Q591 1310 575.5 1289.5 Q560 1269 540 1180 L227 -162 Q222 -186 220 -196.5 Q218 -207 218 -214 Q218 -239 240 -247.5 Q262 -256 289 -256 L448 -256 L433 -328 L-17 -328 L393 1379 L803 1379 Z " />
<glyph glyph-name="backslash" unicode="&#x5c;" horiz-adv-x="569" d="M80 1403 L651 0 L488 0 L-83 1403 L80 1403 Z " />
<glyph glyph-name="bracketright" unicode="&#x5d;" horiz-adv-x="682" d="M-138 -332 L-124 -264 L18 -264 Q73 -264 89 -243 Q105 -222 125 -133 L438 1208 Q446 1241 447 1247.5 Q448 1254 448 1259 Q448 1287 425 1295 Q402 1303 376 1303 L218 1303 L232 1374 L682 1374 L272 -332 L-138 -332 Z " />
<glyph glyph-name="asciicircum" unicode="&#x5e;" horiz-adv-x="1167" d="M711 1403 L925 521 L747 521 L617 1123 L230 521 L52 521 L640 1403 L711 1403 Z " />
<glyph glyph-name="underscore" unicode="&#x5f;" horiz-adv-x="1024" d="M-14 -275 L14 -136 L1038 -136 L1009 -275 L-14 -275 Z " />
<glyph glyph-name="grave" unicode="&#x60;" horiz-adv-x="682" d="M573 1057 L481 1057 L247 1239 Q213 1266 203.5 1289.5 Q194 1313 198 1335 Q205 1366 236 1396 Q267 1426 312 1426 Q349 1426 370.5 1407.5 Q392 1389 410 1358 L573 1057 Z " />
<glyph glyph-name="a" unicode="a" horiz-adv-x="1024" d="M682 748 Q682 788 672 813 Q653 859 601 859 Q490 859 373 596 Q270 363 270 239 Q270 190 294.5 154 Q319 118 359 118 Q461 117 590 388 Q682 615 682 748 Z M18 239 Q18 465 198 702 Q384 945 576 945 Q654 945 691 899 Q713 871 730 805 L765 914 L993 929 L848 450 Q817 348 804 294 Q777 191 777 147 Q777 129 785 122 Q793 115 803 115 Q821 115 838 128.5 Q855 142 876 167 Q886 178 910 208.5 Q934 239 950 260 L993 229 Q910 107 834.5 38 Q759 -31 682 -31 Q635 -31 591 4 Q547 39 547 107 Q547 133 573 234 Q577 238 565.5 220 Q554 202 530 167 Q476 85 402.5 28 Q329 -29 239 -29 Q158 -29 88 32 Q18 93 18 239 Z " />
<glyph glyph-name="b" unicode="b" horiz-adv-x="1024" d="M726 665 Q726 740 701.5 772 Q677 804 629 804 Q551 804 479 685 Q440 620 407 526 Q379 448 336 291 Q293 134 293 99 Q293 83 305.5 63.5 Q318 44 361 44 Q523 44 636 305 Q726 511 726 665 Z M42 92 Q42 99 52 142 L338 1163 Q347 1196 351 1216 Q355 1236 355 1251 Q355 1295 328.5 1305 Q302 1315 227 1315 L227 1370 L440 1396 L654 1431 L474 770 Q536 857 606 900 Q676 943 757 943 Q856 943 918.5 875 Q981 807 981 675 Q981 436 794 214 Q589 -29 315 -29 Q214 -29 128 14 Q42 57 42 92 Z " />
<glyph glyph-name="c" unicode="c" horiz-adv-x="909" d="M52 289 Q52 526 233 734 Q417 945 633 945 Q748 945 806.5 888.5 Q865 832 865 761 Q865 695 826 656.5 Q787 618 734 618 Q694 618 656 645.5 Q618 673 618 727 Q618 749 622.5 761 Q627 773 642 798 L651 813 Q658 824 660.5 830 Q663 836 663 843 Q663 860 647 869.5 Q631 879 609 879 Q499 879 400 651 Q312 448 312 299 Q312 231 338 181 Q377 104 466 104 Q532 104 592.5 152.5 Q653 201 713 289 L770 251 Q671 113 607 60 Q498 -29 353 -29 Q243 -29 147.5 49 Q52 127 52 289 Z " />
<glyph glyph-name="d" unicode="d" horiz-adv-x="1024" d="M272 241 Q272 187 295.5 153.5 Q319 120 359 120 Q480 120 594 405 Q690 642 690 753 Q690 792 680 816 Q661 860 610 860 Q496 860 378 606 Q272 379 272 241 Z M573 945 Q629 945 670 922 Q694 908 722 879 L813 1216 Q816 1226 817 1236 Q818 1246 818 1255 Q818 1291 796 1304 Q774 1317 734 1317 L692 1317 L692 1372 L780 1380 Q883 1389 939 1398 Q995 1407 1121 1431 L893 602 Q866 505 821 335.5 Q776 166 776 149 Q776 134 783.5 127 Q791 120 802 120 Q825 120 865.5 169.5 Q906 219 936 267 L981 234 Q900 114 849 63 Q760 -27 676 -27 Q632 -27 601 -5 Q552 28 552 107 Q552 120 557.5 152.5 Q563 185 573 234 Q499 114 445 62 Q351 -29 237 -29 Q147 -29 82.5 40.5 Q18 110 18 249 Q18 468 200 704 Q386 945 573 945 Z " />
<glyph glyph-name="e" unicode="e" horiz-adv-x="909" d="M668 795 Q668 830 655 854.5 Q642 879 608 879 Q536 879 466.5 763 Q397 647 343 438 Q520 478 594 592 Q668 706 668 795 Z M52 289 Q52 521 230 730 Q414 946 634 946 Q729 946 791.5 899 Q854 852 854 766 Q854 636 708 520 Q562 404 329 372 Q323 341 320 314 Q317 287 317 270 Q317 207 335 171 Q367 104 458 104 Q532 104 605 180 Q644 220 689 291 L749 256 Q672 127 604 67 Q496 -29 351 -29 Q243 -29 147.5 49.5 Q52 128 52 289 Z " />
<glyph glyph-name="f" unicode="f" horiz-adv-x="682" d="M-106 -423 Q-200 -423 -254.5 -375 Q-309 -327 -309 -259 Q-309 -210 -276.5 -180 Q-244 -150 -203 -150 Q-163 -150 -131.5 -177.5 Q-100 -205 -100 -252 Q-100 -277 -116.5 -301.5 Q-133 -326 -133 -335 Q-133 -346 -122.5 -352 Q-112 -358 -97 -358 Q-20 -358 20 -235 Q60 -113 186 479 L270 834 L120 834 L139 919 L289 919 Q307 995 365.5 1125.5 Q424 1256 515 1336 Q625 1431 741 1431 Q834 1431 893.5 1389 Q953 1347 953 1264 Q953 1215 922.5 1185.5 Q892 1156 850 1156 Q809 1156 779 1185 Q749 1214 749 1253 Q749 1280 765.5 1308.5 Q782 1337 782 1342 Q782 1349 775 1360 Q767 1370 747 1370 Q691 1370 645.5 1292 Q600 1214 561 1064 L523 919 L713 919 L694 834 L509 834 Q363 116 268 -108 Q134 -423 -106 -423 Z " />
<glyph glyph-name="g" unicode="g" horiz-adv-x="1024" d="M452 377 Q539 377 601.5 507.5 Q664 638 664 757 Q664 811 642 846 Q620 881 570 881 Q475 881 417.5 741 Q360 601 360 491 Q360 435 386 406 Q412 377 452 377 Z M597 -206 Q597 -157 567.5 -129 Q538 -101 487 -80 Q452 -66 374.5 -40.5 Q297 -15 282 -15 Q282 0 202 -58 Q122 -116 122 -193 Q122 -241 159 -281 Q220 -349 361 -349 Q472 -349 534.5 -309 Q597 -269 597 -206 Z M210 14 Q160 32 136 53 Q90 91 90 154 Q90 205 132 246.5 Q174 288 286 348 Q203 378 163 439 Q123 500 123 586 Q123 715 244 830 Q365 945 563 945 Q666 945 743.5 912 Q821 879 803 879 L1031 879 L1031 763 L893 763 Q899 737 902 718 Q905 699 905 675 Q905 527 788.5 421.5 Q672 316 461 316 Q415 316 351 327 Q335 327 317.5 302 Q300 277 300 259 Q300 226 349 200 Q372 187 405 177 L514 146 Q657 105 717 66 Q820 0 820 -116 Q820 -246 683 -332 Q546 -418 343 -418 Q210 -418 112 -386 Q-57 -332 -57 -196 Q-57 -108 33 -53 Q83 -23 210 14 Z " />
<glyph glyph-name="h" unicode="h" horiz-adv-x="1139" d="M23 0 L338 1161 Q343 1180 349 1207 Q355 1234 355 1251 Q355 1297 326 1307 Q297 1317 227 1315 L227 1370 Q376 1385 429.5 1392.5 Q483 1400 654 1431 L436 592 L440 590 Q430 580 450.5 608 Q471 636 512 689 Q604 809 686.5 876 Q769 943 864 943 Q936 943 978.5 903 Q1021 863 1021 783 Q1021 750 1014 718 Q1007 686 978 597 L841 173 Q838 160 838 155 Q838 139 848 129.5 Q858 120 871 120 Q898 120 952 186 Q979 221 1026 291 L1071 260 Q978 119 924 66 Q834 -22 732 -22 Q676 -22 634.5 10.5 Q593 43 593 113 Q593 158 613 236.5 Q633 315 666 412 L770 718 Q772 725 773.5 732.5 Q775 740 775 747 Q775 776 759 785 Q743 794 726 794 Q665 794 583 695 Q501 596 452 504 Q402 411 353 267 Q326 184 272 0 L23 0 Z " />
<glyph glyph-name="i" unicode="i" horiz-adv-x="569" d="M54 118 Q54 143 66 197 Q73 228 87 279 L210 739 Q212 747 213.5 755 Q215 763 215 770 Q215 811 189 821 Q163 831 94 834 L94 888 Q152 892 262.5 904.5 Q373 917 419 926 L507 943 L348 360 Q328 285 321 256 Q303 182 303 160 Q303 138 313 131.5 Q323 125 335 125 Q366 125 412 178 Q458 231 493 289 L538 260 Q438 113 385 62 Q298 -22 199 -22 Q143 -22 98.5 12.5 Q54 47 54 118 Z M450 1400 Q507 1400 547 1360 Q587 1320 587 1263 Q587 1206 547 1165.5 Q507 1125 450 1125 Q393 1125 352.5 1165.5 Q312 1206 312 1263 Q312 1320 352.5 1360 Q393 1400 450 1400 Z " />
<glyph glyph-name="j" unicode="j" horiz-adv-x="569" d="M327 49 Q262 -196 156 -311.5 Q50 -427 -103 -427 Q-193 -427 -256.5 -383 Q-320 -339 -320 -273 Q-320 -214 -290 -186.5 Q-260 -159 -216 -159 Q-178 -159 -146 -186.5 Q-114 -214 -114 -261 Q-114 -282 -120.5 -296.5 Q-127 -311 -147 -339 Q-141 -351 -128.5 -357 Q-116 -363 -97 -363 Q-50 -363 -8 -274 Q16 -222 49 -95 L237 635 Q249 680 256 715 Q263 750 263 770 Q263 812 239 822 Q215 832 135 834 L135 888 Q261 897 329 906 Q397 915 561 943 L410 360 L327 49 Z M504 1400 Q562 1400 602 1360 Q642 1320 642 1263 Q642 1206 601.5 1165.5 Q561 1125 504 1125 Q447 1125 407 1165.5 Q367 1206 367 1263 Q367 1320 407 1360 Q447 1400 504 1400 Z " />
<glyph glyph-name="k" unicode="k" horiz-adv-x="1024" d="M21 0 L338 1161 Q347 1195 351 1214 Q355 1233 355 1251 Q355 1297 326 1307 Q297 1317 227 1315 L227 1370 Q378 1387 437 1395.5 Q496 1404 654 1431 L402 495 Q518 579 604 654 Q737 771 737 817 Q737 850 707.5 858.5 Q678 867 632 867 L632 919 L1057 919 L1057 867 Q1007 865 944 835 Q881 805 779 713 L708 649 Q682 625 662.5 608 Q643 591 651 599 Q651 605 671.5 494 Q692 383 703 343 Q741 209 759.5 168.5 Q778 128 814 128 Q850 128 882 167 Q902 192 938 260 L983 237 Q932 133 865 57 Q798 -19 709 -19 Q641 -19 596 26 Q551 71 522 146 Q491 225 471.5 328 Q452 431 452 440 L372 384 L270 0 L21 0 Z " />
<glyph glyph-name="l" unicode="l" horiz-adv-x="569" d="M54 118 Q54 144 67 200 Q73 227 87 279 L329 1161 Q338 1195 342 1216 Q346 1237 346 1252 Q346 1297 316 1307 Q286 1317 218 1315 L218 1370 Q370 1385 423.5 1392.5 Q477 1400 644 1431 L348 360 Q326 279 321 257 Q303 184 303 160 Q303 139 314 132 Q325 125 334 125 Q364 125 410.5 177 Q457 229 493 289 L538 260 Q448 122 392 68 Q299 -22 194 -22 Q137 -22 95.5 16.5 Q54 55 54 118 Z " />
<glyph glyph-name="m" unicode="m" horiz-adv-x="1593" d="M33 0 L215 654 Q231 712 236 735.5 Q241 759 241 781 Q241 814 220.5 822 Q200 830 130 834 L130 888 Q259 896 349 909 Q407 917 540 943 L417 564 L424 559 Q558 762 626 831 Q737 943 860 943 Q917 943 955 907.5 Q993 872 993 810 Q993 763 975 699 Q965 663 948 609 Q1053 770 1118 835 Q1226 943 1342 943 Q1420 943 1461 901.5 Q1502 860 1502 784 Q1502 741 1483 669 Q1481 659 1462 597 L1353 272 Q1341 238 1330.5 201.5 Q1320 165 1320 150 Q1320 136 1331.5 128 Q1343 120 1353 120 Q1382 120 1434 187 Q1462 223 1495 277 L1540 248 Q1464 125 1411 71 Q1319 -22 1217 -22 Q1165 -22 1120 8 Q1075 38 1075 107 Q1075 164 1102 267 Q1119 330 1147 412 L1249 720 Q1251 727 1252.5 734.5 Q1254 742 1254 749 Q1254 768 1243 781 Q1231 794 1208 794 Q1144 794 1063.5 687 Q983 580 929 466 Q909 425 889.5 366 Q870 307 772 0 L526 0 L734 663 Q742 688 747 708.5 Q752 729 752 748 Q752 778 740 786 Q728 794 713 794 Q665 794 586 702.5 Q507 611 436 465 Q398 387 353 247 Q325 162 279 0 L33 0 Z " />
<glyph glyph-name="n" unicode="n" horiz-adv-x="1139" d="M49 0 L232 654 Q243 694 248 717 Q258 760 258 777 Q258 814 235 823 Q212 832 146 834 L146 888 Q274 896 345 906 Q416 916 557 943 L433 564 L438 561 Q433 556 498 652.5 Q563 749 622 809 Q680 870 743.5 906.5 Q807 943 877 943 Q942 943 987.5 906 Q1033 869 1033 785 Q1033 707 943 441 Q852 176 852 157 Q852 139 863 129.5 Q874 120 885 120 Q912 120 965 188 Q993 224 1026 277 L1071 248 Q995 125 942 71 Q850 -22 747 -22 Q692 -22 648.5 10 Q605 42 605 111 Q605 155 626 239 Q647 323 677 412 L779 718 Q782 729 784 737 Q786 745 786 753 Q786 776 770.5 785 Q755 794 737 794 Q674 794 597 696.5 Q520 599 471 502 Q418 397 382 289 Q346 181 296 0 L49 0 Z " />
<glyph glyph-name="o" unicode="o" horiz-adv-x="1024" d="M636 943 Q740 943 822 896 Q966 814 966 617 Q966 399 800 194 Q619 -29 386 -29 Q267 -29 160.5 45 Q54 119 54 295 Q54 514 219 719 Q400 943 636 943 Z M298 175 Q298 122 311 92 Q336 35 405 35 Q533 35 635 329 Q720 576 720 756 Q720 804 708 831 Q685 881 622 881 Q475 881 375 569 Q298 332 298 175 Z " />
<glyph glyph-name="p" unicode="p" horiz-adv-x="1024" d="M-166 -368 Q-96 -365 -68.5 -345.5 Q-41 -326 -19 -240 L213 654 Q218 672 228.5 717.5 Q239 763 239 775 Q239 812 213 823 Q187 834 128 834 L128 888 L227 898 Q265 902 351.5 914.5 Q438 927 523 943 L455 734 L459 730 Q527 820 579 864 Q673 943 774 943 Q869 943 932.5 880 Q996 817 996 687 Q996 440 818 207 Q637 -29 438 -29 Q391 -29 364 -19 Q337 -9 289 18 L253 -117 Q236 -178 224.5 -228.5 Q213 -279 213 -301 Q213 -342 240 -353 Q267 -364 346 -368 L346 -422 L-166 -422 L-166 -368 Z M312 125 Q312 86 336.5 65.5 Q361 45 400 45 Q525 45 639 313 Q737 542 737 682 Q737 727 727 752 Q709 798 658 798 Q603 798 541 741 Q479 684 438 573 Q406 487 359 323 Q312 159 312 125 Z " />
<glyph glyph-name="q" unicode="q" horiz-adv-x="1024" d="M384 120 Q504 120 613 387 Q706 616 706 757 Q706 795 693 820 Q674 858 629 858 Q519 858 404 613 Q298 389 298 238 Q298 192 309 167 Q329 120 384 120 Z M599 945 Q686 945 723 892 Q743 863 751 805 L782 919 L1005 919 L677 -252 Q674 -265 671 -281.5 Q668 -298 668 -309 Q668 -340 690 -354 Q712 -368 772 -368 L801 -368 L801 -422 L253 -422 L253 -368 Q349 -359 381.5 -339 Q414 -319 438 -237 L561 187 Q492 78 419.5 24.5 Q347 -29 259 -29 Q173 -29 107.5 36.5 Q42 102 42 248 Q42 474 224 707 Q409 945 599 945 Z " />
<glyph glyph-name="r" unicode="r" horiz-adv-x="797" d="M18 0 Q108 293 165 504 Q227 731 227 774 Q227 812 202 823 Q177 834 116 834 L116 888 Q244 896 332 909 Q389 917 526 943 L412 580 L421 578 Q509 748 562 819 Q655 943 741 943 Q801 943 829.5 903 Q858 863 858 814 Q858 755 826.5 708 Q795 661 739 661 Q714 661 692.5 671 Q671 681 656 701 L637 725 Q632 731 626.5 735 Q621 739 612 739 Q573 739 510 633 Q447 527 404 417 Q374 341 330 201 Q286 61 265 0 L18 0 Z " />
<glyph glyph-name="s" unicode="s" horiz-adv-x="797" d="M78 312 L132 308 Q147 157 209 96 Q271 35 331 35 Q383 35 414 68 Q445 101 445 146 Q445 187 417.5 236 Q390 285 353 331 L277 426 Q227 480 192 552 Q157 624 157 696 Q157 798 234 872 Q311 946 443 946 Q497 946 557 923 Q617 900 636 900 Q660 900 672 911 Q684 922 694 943 L753 943 L706 630 L651 635 Q632 765 580.5 822 Q529 879 472 879 Q415 879 388.5 845 Q362 811 362 770 Q362 734 381.5 699.5 Q401 665 457 594 L557 466 Q590 424 616 364.5 Q642 305 642 246 Q642 122 553 46.5 Q464 -29 336 -29 Q282 -29 220.5 -7.5 Q159 14 146 14 Q121 14 108 1 Q95 -12 87 -29 L33 -29 L78 312 Z " />
<glyph glyph-name="t" unicode="t" horiz-adv-x="569" d="M33 118 Q33 139 39.5 173 Q46 207 66 279 L220 834 L116 834 L116 905 Q217 946 286 995 Q408 1081 490 1216 L564 1216 L483 919 L630 919 L630 834 L459 834 L327 360 Q309 297 299 255 Q282 183 282 156 Q282 137 293.5 131 Q305 125 313 125 Q342 125 387.5 175 Q433 225 471 289 L516 260 Q425 122 370 68 Q277 -22 173 -22 Q113 -22 73 17.5 Q33 57 33 118 Z " />
<glyph glyph-name="u" unicode="u" horiz-adv-x="1139" d="M101 142 Q101 168 110 213 Q119 258 130 296 L241 685 Q249 711 252.5 730 Q256 749 256 768 Q256 807 230.5 819.5 Q205 832 142 834 L142 888 Q351 907 455 925 Q559 943 568 943 L474 630 L376 315 Q369 293 360 257 Q346 203 346 177 Q346 152 358.5 140 Q371 128 394 128 Q444 128 525.5 223.5 Q607 319 678 478 Q724 581 760 688 Q783 759 829 919 L1071 919 L988 635 Q983 619 944 483.5 Q905 348 897 321 Q882 268 871 222.5 Q860 177 860 160 Q860 141 869.5 130.5 Q879 120 893 120 Q925 120 979 190 Q1010 229 1035 272 L1078 246 Q1020 135 932.5 56.5 Q845 -22 752 -22 Q670 -22 638 24 Q616 55 616 106 Q616 155 624 189.5 Q632 224 661 315 L656 317 Q530 137 468 77 Q366 -23 259 -23 Q207 -23 167 3 Q101 44 101 142 Z " />
<glyph glyph-name="v" unicode="v" horiz-adv-x="909" d="M298 -29 L246 -29 L253 251 Q256 375 251.5 478.5 Q247 582 232 680 Q215 788 191.5 811 Q168 834 104 834 L104 888 L170 898 Q243 910 289.5 918.5 Q336 927 424 945 Q459 835 474 590 Q482 467 485 263 Q562 344 630 432 Q744 579 744 642 Q744 678 699 727 Q654 776 654 826 Q654 879 687.5 911 Q721 943 767 943 Q817 943 855 905.5 Q893 868 893 797 Q893 665 719 428 Q583 243 412 80 L298 -29 Z " />
<glyph glyph-name="w" unicode="w" horiz-adv-x="1366" d="M265 -29 L270 146 L265 308 Q261 434 257 486 Q250 592 234 683 Q216 790 193.5 812 Q171 834 104 834 L104 888 L170 898 Q266 913 344.5 929 Q423 945 410 943 L421 945 Q444 887 461.5 766 Q479 645 481 585 L490 388 L649 670 Q687 737 730.5 811 Q774 885 808 943 L865 943 L929 265 Q1036 391 1087 461 Q1173 581 1173 632 Q1173 663 1131 725.5 Q1089 788 1089 829 Q1089 876 1124 909.5 Q1159 943 1204 943 Q1252 943 1291 908.5 Q1330 874 1330 811 Q1330 659 1109 365 Q986 202 772 -29 L715 -29 Q712 15 707 101 Q704 156 697 232 Q693 281 685 365 L668 549 Q569 374 535 316 Q457 178 438 149 L322 -29 L265 -29 Z " />
<glyph glyph-name="x" unicode="x" horiz-adv-x="1024" d="M587 663 Q701 818 770.5 880.5 Q840 943 906 943 Q985 943 1015 889 Q1031 861 1031 821 Q1031 780 998 746 Q965 712 918 712 Q889 712 852.5 734 Q816 756 797 756 Q760 756 726.5 718 Q693 680 611 557 L630 457 Q645 380 655 330.5 Q665 281 677 239 Q693 181 709 155 Q725 129 756 129 Q784 129 824 170 Q846 192 891 251 L933 222 Q880 133 795.5 53 Q711 -27 630 -27 Q562 -27 518 29 Q493 59 474 111 Q464 138 446.5 206.5 Q429 275 424 291 L410 267 Q311 97 265 46 Q196 -30 105 -30 Q53 -30 14.5 5.5 Q-24 41 -24 93 Q-24 136 4.5 172.5 Q33 209 84 209 Q115 209 160.5 187 Q206 165 220 165 Q251 165 273.5 192.5 Q296 220 362 329 L402 395 Q392 437 380.5 498 Q369 559 357 623 L341 708 Q324 800 287 829 Q266 846 218 846 Q213 846 194 844.5 Q175 843 156 841 L156 896 Q246 907 353.5 924 Q461 941 497 948 Q527 908 546.5 851 Q566 794 576 730 L587 663 Z " />
<glyph glyph-name="y" unicode="y" horiz-adv-x="909" d="M172 -259 Q224 -259 293 -175.5 Q362 -92 362 -15 Q362 55 323 266 Q298 401 270 530 Q219 757 194.5 799 Q170 841 99 841 L99 896 Q194 905 299 924 Q404 943 393 941 L407 943 Q431 872 480.5 661.5 Q530 451 558 280 L566 232 L604 298 Q651 378 697.5 490 Q744 602 744 641 Q744 660 734 677.5 Q724 695 701 711 L685 722 Q668 734 653 754 Q630 787 630 824 Q630 868 663.5 905.5 Q697 943 748 943 Q793 943 834 910 Q875 877 875 803 Q875 681 760 436 Q674 254 560 72 Q400 -181 270.5 -302.5 Q141 -424 8 -424 Q-49 -424 -86.5 -385.5 Q-124 -347 -124 -299 Q-124 -248 -89 -218 Q-54 -188 -10 -188 Q36 -188 94 -223.5 Q152 -259 172 -259 Z " />
<glyph glyph-name="z" unicode="z" horiz-adv-x="797" d="M175 919 L815 919 L815 898 L239 213 Q374 156 442 26 Q510 -104 558 -104 Q575 -104 587 -95.5 Q599 -87 599 -74 Q599 -64 579 -32 Q559 0 559 30 Q559 76 593 103 Q627 130 666 130 Q704 130 738 103 Q772 76 772 19 Q772 -57 707.5 -109.5 Q643 -162 551 -162 Q438 -162 307 -76.5 Q176 9 124 9 Q90 9 51 -25.5 Q12 -60 -4 -60 Q-15 -60 -26 -53 Q-37 -46 -37 -30 Q-37 -24 -35.5 -17 Q-34 -10 -29 -5 L571 722 L274 722 Q219 722 185 680 Q166 655 144 597 L87 604 L175 919 Z " />
<glyph glyph-name="braceleft" unicode="&#x7b;" horiz-adv-x="713" d="M96 -100 Q96 -66 107 -4 Q112 26 120 66 L158 237 L165 272 L170 315 Q181 406 96 456 Q46 484 -72 509 L-69 519 Q104 560 161 598 Q247 657 277 803 L310 964 Q348 1147 423 1238 Q560 1404 853 1398 L841 1346 Q679 1340 592 1206 Q545 1135 523 1026 L497 898 Q462 726 409 654 Q317 527 111 514 Q205 510 264 478 Q362 424 362 298 Q362 271 357 238 Q352 205 348 187 L310 0 Q301 -46 298 -66.5 Q295 -87 295 -116 Q295 -220 347 -261.5 Q399 -303 490 -318 L481 -370 Q343 -373 219.5 -313 Q96 -253 96 -100 Z " />
<glyph glyph-name="bar" unicode="&#x7c;" horiz-adv-x="451" d="M469 1431 L164 0 L-17 0 L287 1431 L469 1431 Z " />
<glyph glyph-name="braceright" unicode="&#x7d;" horiz-adv-x="713" d="M519 1138 Q519 1098 510 1039 Q504 1002 495 962 L457 791 L450 756 L445 713 Q434 618 529 567 Q581 538 687 519 L685 509 Q511 468 454 429 Q367 370 338 225 L305 64 Q266 -124 192 -213 Q57 -375 -237 -370 L-226 -318 Q-67 -312 19 -184 Q70 -110 92 2 L118 130 Q153 299 206 373 Q298 501 504 514 Q408 519 350 551 Q253 604 253 729 Q253 756 254 762.5 Q255 769 267 841 L305 1028 Q314 1072 317 1094 Q320 1116 320 1138 Q320 1237 272.5 1283.5 Q225 1330 125 1346 L135 1398 Q285 1401 402 1335.5 Q519 1270 519 1138 Z " />
<glyph glyph-name="asciitilde" unicode="&#x7e;" horiz-adv-x="1167" d="M305 713 Q347 713 403.5 696.5 Q460 680 538 649 L739 568 Q781 551 823 542 Q865 533 894 533 Q969 533 1009 584 Q1049 635 1085 739 L1166 739 Q1116 549 1068 469 Q989 340 854 340 Q823 340 787 348 Q721 361 628 400 L440 478 Q389 499 358 508 Q309 523 272 523 Q192 523 139 451 Q108 409 75 315 L0 315 Q31 469 76 555 Q160 713 305 713 Z " />
<glyph glyph-name="Adieresis" unicode="&#xc4;" horiz-adv-x="1366" d="M739 507 L663 1005 L360 507 L739 507 Z M-109 49 Q-52 66 -25 86 Q15 115 64 194 L824 1398 L877 1398 L1073 227 Q1093 109 1121 82.5 Q1149 56 1244 49 L1244 0 L623 0 L623 49 Q711 56 747.5 77.5 Q784 99 784 167 Q784 190 773 277 Q771 295 753 426 L312 426 L192 218 Q180 197 170.5 172 Q161 147 161 124 Q161 82 186.5 70 Q212 58 293 49 L293 0 L-109 0 L-109 49 Z M549 1661 Q561 1717 608.5 1755.5 Q656 1794 711 1794 Q766 1794 796.5 1755 Q827 1716 815 1661 Q804 1607 756.5 1568 Q709 1529 654 1529 Q598 1529 568 1568 Q538 1607 549 1661 Z M1147 1794 Q1202 1794 1232.5 1755 Q1263 1716 1251 1661 Q1240 1606 1192.5 1567.5 Q1145 1529 1090 1529 Q1036 1529 1005 1567.5 Q974 1606 985 1661 Q997 1717 1044.5 1755.5 Q1092 1794 1147 1794 Z " />
<glyph glyph-name="Aring" unicode="&#xc5;" horiz-adv-x="1366" d="M739 507 L663 1005 L360 507 L739 507 Z M-109 49 Q-52 66 -25 86 Q15 115 64 194 L824 1398 L877 1398 L1073 227 Q1093 109 1121 82.5 Q1149 56 1244 49 L1244 0 L623 0 L623 49 Q711 56 747.5 77.5 Q784 99 784 167 Q784 190 773 277 Q771 295 753 426 L312 426 L192 218 Q180 197 170.5 172 Q161 147 161 124 Q161 82 186.5 70 Q212 58 293 49 L293 0 L-109 0 L-109 49 Z M785 1712 Q785 1662 820 1627.5 Q855 1593 904 1593 Q953 1593 987.5 1628 Q1022 1663 1022 1712 Q1022 1761 987.5 1795.5 Q953 1830 904 1830 Q855 1830 820 1795.5 Q785 1761 785 1712 Z M686 1712 Q686 1802 749.5 1866 Q813 1930 904 1930 Q994 1930 1058 1866 Q1122 1802 1122 1712 Q1122 1621 1058 1557.5 Q994 1494 904 1494 Q813 1494 749.5 1557.5 Q686 1621 686 1712 Z " />
<glyph glyph-name="Ccedilla" unicode="&#xc7;" horiz-adv-x="1366" d="M874 1403 Q979 1403 1090.5 1373 Q1202 1343 1224 1343 Q1256 1343 1272 1359 Q1288 1375 1303 1403 L1365 1403 L1261 924 L1197 936 Q1200 979 1200.5 986.5 Q1201 994 1201 1009 Q1201 1171 1125 1250 Q1049 1329 932 1329 Q694 1329 518 1013 Q360 731 360 438 Q360 225 457.5 146.5 Q555 68 670 68 Q820 68 953 167 Q1025 221 1097 312 L1159 267 Q1053 111 907 35 Q761 -41 611 -41 Q589 -41 545 -40 L485 -128 Q506 -126 516.5 -125 Q527 -124 539 -124 Q614 -124 668.5 -162 Q723 -200 723 -274 Q723 -355 648 -401.5 Q573 -448 466 -448 Q395 -448 327 -430 Q287 -419 239 -399 L284 -330 Q335 -353 365.5 -359 Q396 -365 425 -365 Q491 -365 514.5 -339.5 Q538 -314 538 -280 Q538 -253 514.5 -230 Q491 -207 436 -207 Q417 -207 404.5 -209 Q392 -211 376 -216 L350 -190 L460 -33 Q283 -16 163.5 116 Q44 248 44 490 Q44 860 290 1131 Q536 1403 874 1403 Z " />
<glyph glyph-name="Eacute" unicode="&#xc9;" horiz-adv-x="1366" d="M-57 52 Q16 61 51 88 Q86 115 109 199 L360 1118 Q369 1153 375 1181.5 Q381 1210 381 1230 Q381 1282 353.5 1295.5 Q326 1309 232 1317 L232 1370 L1336 1370 L1249 981 L1194 990 Q1192 1139 1146 1201 Q1068 1306 830 1306 Q749 1306 725.5 1286.5 Q702 1267 687 1213 L564 758 Q779 763 842.5 793 Q906 823 983 974 L1040 967 L888 407 L832 417 Q836 446 837.5 467.5 Q839 489 839 503 Q839 612 779 652 Q719 692 545 692 L410 192 Q405 174 402.5 157 Q400 140 400 130 Q400 102 422 84 Q444 66 514 66 Q700 66 831 118 Q1035 198 1149 407 L1199 398 L1078 0 L-57 0 L-57 52 Z M1220 1753 Q1213 1721 1190 1701 Q1167 1681 1121 1658 L773 1481 L673 1481 L979 1749 Q1054 1815 1095 1837 Q1120 1850 1143 1850 Q1186 1850 1207.5 1823 Q1229 1796 1220 1753 Z " />
<glyph glyph-name="Ntilde" unicode="&#xd1;" horiz-adv-x="1479" d="M-57 52 Q23 63 58 114 Q93 165 151 365 L395 1206 L386 1227 Q363 1282 323 1300 Q297 1312 227 1317 L227 1370 L625 1370 L1069 419 L1230 1002 Q1245 1056 1254 1098 Q1268 1162 1268 1191 Q1268 1266 1216 1294 Q1184 1311 1104 1317 L1104 1370 L1531 1370 L1531 1317 L1502 1313 Q1439 1304 1405 1242.5 Q1371 1181 1322 1005 L1031 -34 L971 -34 L448 1099 L244 365 Q219 274 211 229 Q206 201 206 174 Q206 102 260 74 Q291 58 369 52 L369 0 L-57 0 L-57 52 Z M583 1526 Q601 1619 658 1693.5 Q715 1768 823 1768 Q881 1768 990.5 1725.5 Q1100 1683 1128 1683 Q1172 1683 1201 1714 Q1217 1730 1235 1768 L1318 1768 Q1294 1655 1232.5 1589.5 Q1171 1524 1082 1524 Q1064 1524 1034.5 1528.5 Q1005 1533 962 1550 L841 1597 Q820 1605 802.5 1609.5 Q785 1614 767 1614 Q722 1614 703 1592.5 Q684 1571 666 1526 L583 1526 Z " />
<glyph glyph-name="Odieresis" unicode="&#xd6;" horiz-adv-x="1479" d="M54 452 Q54 788 310 1089 Q578 1403 910 1403 Q1131 1403 1273 1270 Q1415 1137 1415 910 Q1415 579 1164 281 Q896 -38 548 -38 Q329 -38 191.5 95.5 Q54 229 54 452 Z M348 308 Q348 219 373 156 Q422 33 551 33 Q672 33 771 122.5 Q870 212 976 464 Q1043 623 1081 799 Q1119 975 1119 1084 Q1119 1187 1068 1260.5 Q1017 1334 909 1334 Q654 1334 480 881 Q348 537 348 308 Z M634 1668 Q646 1724 693.5 1762.5 Q741 1801 796 1801 Q851 1801 881.5 1762 Q912 1723 900 1668 Q889 1614 841.5 1575 Q794 1536 739 1536 Q683 1536 653 1575 Q623 1614 634 1668 Z M1232 1801 Q1287 1801 1317.5 1762 Q1348 1723 1336 1668 Q1325 1613 1277.5 1574.5 Q1230 1536 1175 1536 Q1121 1536 1090 1574.5 Q1059 1613 1070 1668 Q1082 1724 1129.5 1762.5 Q1177 1801 1232 1801 Z " />
<glyph glyph-name="Udieresis" unicode="&#xdc;" horiz-adv-x="1479" d="M329 1118 Q338 1152 344 1182 Q350 1212 350 1234 Q350 1283 322 1296 Q294 1309 201 1317 L201 1370 L836 1370 L836 1317 Q743 1308 706.5 1285 Q670 1262 644 1170 L476 557 Q453 475 441 423 Q420 330 420 286 Q420 185 487.5 131.5 Q555 78 671 78 Q865 78 975 247 Q1040 345 1104 578 L1223 1005 Q1246 1098 1244 1086 Q1261 1162 1261 1195 Q1261 1267 1207 1295 Q1175 1311 1097 1317 L1097 1370 L1524 1370 L1524 1317 Q1446 1308 1409.5 1257.5 Q1373 1207 1315 1005 L1180 538 Q1099 259 1015 149 Q871 -38 592 -38 Q400 -38 268 54.5 Q136 147 136 312 Q136 373 152 451 Q162 498 194 616 L329 1118 Z M620 1635 Q632 1691 679.5 1729.5 Q727 1768 782 1768 Q837 1768 867.5 1729 Q898 1690 886 1635 Q875 1581 827.5 1542 Q780 1503 725 1503 Q669 1503 639 1542 Q609 1581 620 1635 Z M1218 1768 Q1273 1768 1303.5 1729 Q1334 1690 1322 1635 Q1311 1580 1263.5 1541.5 Q1216 1503 1161 1503 Q1107 1503 1076 1541.5 Q1045 1580 1056 1635 Q1068 1691 1115.5 1729.5 Q1163 1768 1218 1768 Z " />
<glyph glyph-name="aacute" unicode="&#xe1;" horiz-adv-x="1024" d="M682 748 Q682 788 672 813 Q653 859 601 859 Q490 859 373 596 Q270 363 270 239 Q270 190 294.5 154 Q319 118 359 118 Q461 117 590 388 Q682 615 682 748 Z M18 239 Q18 465 198 702 Q384 945 576 945 Q654 945 691 899 Q713 871 730 805 L765 914 L993 929 L848 450 Q817 348 804 294 Q777 191 777 147 Q777 129 785 122 Q793 115 803 115 Q821 115 838 128.5 Q855 142 876 167 Q886 178 910 208.5 Q934 239 950 260 L993 229 Q910 107 834.5 38 Q759 -31 682 -31 Q635 -31 591 4 Q547 39 547 107 Q547 133 573 234 Q577 238 565.5 220 Q554 202 530 167 Q476 85 402.5 28 Q329 -29 239 -29 Q158 -29 88 32 Q18 93 18 239 Z M1025 1329 Q1018 1297 995 1277 Q972 1257 926 1234 L578 1057 L478 1057 L784 1325 Q859 1391 900 1413 Q925 1426 948 1426 Q991 1426 1012.5 1399 Q1034 1372 1025 1329 Z " />
<glyph glyph-name="agrave" unicode="&#xe0;" horiz-adv-x="1024" d="M682 748 Q682 788 672 813 Q653 859 601 859 Q490 859 373 596 Q270 363 270 239 Q270 190 294.5 154 Q319 118 359 118 Q461 117 590 388 Q682 615 682 748 Z M18 239 Q18 465 198 702 Q384 945 576 945 Q654 945 691 899 Q713 871 730 805 L765 914 L993 929 L848 450 Q817 348 804 294 Q777 191 777 147 Q777 129 785 122 Q793 115 803 115 Q821 115 838 128.5 Q855 142 876 167 Q886 178 910 208.5 Q934 239 950 260 L993 229 Q910 107 834.5 38 Q759 -31 682 -31 Q635 -31 591 4 Q547 39 547 107 Q547 133 573 234 Q577 238 565.5 220 Q554 202 530 167 Q476 85 402.5 28 Q329 -29 239 -29 Q158 -29 88 32 Q18 93 18 239 Z M800 1057 L708 1057 L474 1239 Q440 1266 430.5 1289.5 Q421 1313 425 1335 Q432 1366 463 1396 Q494 1426 539 1426 Q576 1426 597.5 1407.5 Q619 1389 637 1358 L800 1057 Z " />
<glyph glyph-name="acircumflex" unicode="&#xe2;" horiz-adv-x="1024" d="M682 748 Q682 788 672 813 Q653 859 601 859 Q490 859 373 596 Q270 363 270 239 Q270 190 294.5 154 Q319 118 359 118 Q461 117 590 388 Q682 615 682 748 Z M18 239 Q18 465 198 702 Q384 945 576 945 Q654 945 691 899 Q713 871 730 805 L765 914 L993 929 L848 450 Q817 348 804 294 Q777 191 777 147 Q777 129 785 122 Q793 115 803 115 Q821 115 838 128.5 Q855 142 876 167 Q886 178 910 208.5 Q934 239 950 260 L993 229 Q910 107 834.5 38 Q759 -31 682 -31 Q635 -31 591 4 Q547 39 547 107 Q547 133 573 234 Q577 238 565.5 220 Q554 202 530 167 Q476 85 402.5 28 Q329 -29 239 -29 Q158 -29 88 32 Q18 93 18 239 Z M881 1057 L701 1251 L430 1057 L314 1057 L641 1412 L807 1412 L985 1057 L881 1057 Z " />
<glyph glyph-name="adieresis" unicode="&#xe4;" horiz-adv-x="1024" d="M682 748 Q682 788 672 813 Q653 859 601 859 Q490 859 373 596 Q270 363 270 239 Q270 190 294.5 154 Q319 118 359 118 Q461 117 590 388 Q682 615 682 748 Z M18 239 Q18 465 198 702 Q384 945 576 945 Q654 945 691 899 Q713 871 730 805 L765 914 L993 929 L848 450 Q817 348 804 294 Q777 191 777 147 Q777 129 785 122 Q793 115 803 115 Q821 115 838 128.5 Q855 142 876 167 Q886 178 910 208.5 Q934 239 950 260 L993 229 Q910 107 834.5 38 Q759 -31 682 -31 Q635 -31 591 4 Q547 39 547 107 Q547 133 573 234 Q577 238 565.5 220 Q554 202 530 167 Q476 85 402.5 28 Q329 -29 239 -29 Q158 -29 88 32 Q18 93 18 239 Z M344 1208 Q356 1264 403.5 1302.5 Q451 1341 506 1341 Q561 1341 591.5 1302 Q622 1263 610 1208 Q599 1154 551.5 1115 Q504 1076 449 1076 Q393 1076 363 1115 Q333 1154 344 1208 Z M942 1341 Q997 1341 1027.5 1302 Q1058 1263 1046 1208 Q1035 1153 987.5 1114.5 Q940 1076 885 1076 Q831 1076 800 1114.5 Q769 1153 780 1208 Q792 1264 839.5 1302.5 Q887 1341 942 1341 Z " />
<glyph glyph-name="atilde" unicode="&#xe3;" horiz-adv-x="1024" d="M682 748 Q682 788 672 813 Q653 859 601 859 Q490 859 373 596 Q270 363 270 239 Q270 190 294.5 154 Q319 118 359 118 Q461 117 590 388 Q682 615 682 748 Z M18 239 Q18 465 198 702 Q384 945 576 945 Q654 945 691 899 Q713 871 730 805 L765 914 L993 929 L848 450 Q817 348 804 294 Q777 191 777 147 Q777 129 785 122 Q793 115 803 115 Q821 115 838 128.5 Q855 142 876 167 Q886 178 910 208.5 Q934 239 950 260 L993 229 Q910 107 834.5 38 Q759 -31 682 -31 Q635 -31 591 4 Q547 39 547 107 Q547 133 573 234 Q577 238 565.5 220 Q554 202 530 167 Q476 85 402.5 28 Q329 -29 239 -29 Q158 -29 88 32 Q18 93 18 239 Z M331 1099 Q349 1192 406 1266.5 Q463 1341 571 1341 Q629 1341 738.5 1298.5 Q848 1256 876 1256 Q920 1256 949 1287 Q965 1303 983 1341 L1066 1341 Q1042 1228 980.5 1162.5 Q919 1097 830 1097 Q812 1097 782.5 1101.5 Q753 1106 710 1123 L589 1170 Q568 1178 550.5 1182.5 Q533 1187 515 1187 Q470 1187 451 1165.5 Q432 1144 414 1099 L331 1099 Z " />
<glyph glyph-name="aring" unicode="&#xe5;" horiz-adv-x="1024" d="M682 748 Q682 788 672 813 Q653 859 601 859 Q490 859 373 596 Q270 363 270 239 Q270 190 294.5 154 Q319 118 359 118 Q461 117 590 388 Q682 615 682 748 Z M18 239 Q18 465 198 702 Q384 945 576 945 Q654 945 691 899 Q713 871 730 805 L765 914 L993 929 L848 450 Q817 348 804 294 Q777 191 777 147 Q777 129 785 122 Q793 115 803 115 Q821 115 838 128.5 Q855 142 876 167 Q886 178 910 208.5 Q934 239 950 260 L993 229 Q910 107 834.5 38 Q759 -31 682 -31 Q635 -31 591 4 Q547 39 547 107 Q547 133 573 234 Q577 238 565.5 220 Q554 202 530 167 Q476 85 402.5 28 Q329 -29 239 -29 Q158 -29 88 32 Q18 93 18 239 Z M615 1275 Q615 1225 650 1190.5 Q685 1156 734 1156 Q783 1156 817.5 1191 Q852 1226 852 1275 Q852 1324 817.5 1358.5 Q783 1393 734 1393 Q685 1393 650 1358.5 Q615 1324 615 1275 Z M516 1275 Q516 1365 579.5 1429 Q643 1493 734 1493 Q824 1493 888 1429 Q952 1365 952 1275 Q952 1184 888 1120.5 Q824 1057 734 1057 Q643 1057 579.5 1120.5 Q516 1184 516 1275 Z " />
<glyph glyph-name="ccedilla" unicode="&#xe7;" horiz-adv-x="909" d="M52 289 Q52 526 233 734 Q417 945 633 945 Q748 945 806.5 888.5 Q865 832 865 761 Q865 695 826 656.5 Q787 618 734 618 Q694 618 656 645.5 Q618 673 618 727 Q618 749 622.5 761 Q627 773 642 798 L651 813 Q658 824 660.5 830 Q663 836 663 843 Q663 860 647 869.5 Q631 879 609 879 Q499 879 400 651 Q312 448 312 299 Q312 231 338 181 Q377 104 466 104 Q532 104 592.5 152.5 Q653 201 713 289 L770 251 Q671 113 607 60 Q498 -29 353 -29 Q343 -29 325 -28 L257 -128 Q278 -126 288.5 -125 Q299 -124 311 -124 Q386 -124 440.5 -162 Q495 -200 495 -274 Q495 -355 420 -401.5 Q345 -448 238 -448 Q167 -448 99 -430 Q59 -419 11 -399 L56 -330 Q107 -353 137.5 -359 Q168 -365 197 -365 Q263 -365 286.5 -339.5 Q310 -314 310 -280 Q310 -253 286.5 -230 Q263 -207 208 -207 Q189 -207 176.5 -209 Q164 -211 148 -216 L122 -190 L240 -19 Q171 -9 111.5 59 Q52 127 52 289 Z " />
<glyph glyph-name="eacute" unicode="&#xe9;" horiz-adv-x="909" d="M668 795 Q668 830 655 854.5 Q642 879 608 879 Q536 879 466.5 763 Q397 647 343 438 Q520 478 594 592 Q668 706 668 795 Z M52 289 Q52 521 230 730 Q414 946 634 946 Q729 946 791.5 899 Q854 852 854 766 Q854 636 708 520 Q562 404 329 372 Q323 341 320 314 Q317 287 317 270 Q317 207 335 171 Q367 104 458 104 Q532 104 605 180 Q644 220 689 291 L749 256 Q672 127 604 67 Q496 -29 351 -29 Q243 -29 147.5 49.5 Q52 128 52 289 Z M986 1329 Q979 1297 956 1277 Q933 1257 887 1234 L539 1057 L439 1057 L745 1325 Q820 1391 861 1413 Q886 1426 909 1426 Q952 1426 973.5 1399 Q995 1372 986 1329 Z " />
<glyph glyph-name="egrave" unicode="&#xe8;" horiz-adv-x="909" d="M668 795 Q668 830 655 854.5 Q642 879 608 879 Q536 879 466.5 763 Q397 647 343 438 Q520 478 594 592 Q668 706 668 795 Z M52 289 Q52 521 230 730 Q414 946 634 946 Q729 946 791.5 899 Q854 852 854 766 Q854 636 708 520 Q562 404 329 372 Q323 341 320 314 Q317 287 317 270 Q317 207 335 171 Q367 104 458 104 Q532 104 605 180 Q644 220 689 291 L749 256 Q672 127 604 67 Q496 -29 351 -29 Q243 -29 147.5 49.5 Q52 128 52 289 Z M761 1057 L669 1057 L435 1239 Q401 1266 391.5 1289.5 Q382 1313 386 1335 Q393 1366 424 1396 Q455 1426 500 1426 Q537 1426 558.5 1407.5 Q580 1389 598 1358 L761 1057 Z " />
<glyph glyph-name="ecircumflex" unicode="&#xea;" horiz-adv-x="909" d="M668 795 Q668 830 655 854.5 Q642 879 608 879 Q536 879 466.5 763 Q397 647 343 438 Q520 478 594 592 Q668 706 668 795 Z M52 289 Q52 521 230 730 Q414 946 634 946 Q729 946 791.5 899 Q854 852 854 766 Q854 636 708 520 Q562 404 329 372 Q323 341 320 314 Q317 287 317 270 Q317 207 335 171 Q367 104 458 104 Q532 104 605 180 Q644 220 689 291 L749 256 Q672 127 604 67 Q496 -29 351 -29 Q243 -29 147.5 49.5 Q52 128 52 289 Z M842 1057 L662 1251 L391 1057 L275 1057 L602 1412 L768 1412 L946 1057 L842 1057 Z " />
<glyph glyph-name="edieresis" unicode="&#xeb;" horiz-adv-x="993" d="M668 795 Q668 830 655 854.5 Q642 879 608 879 Q536 879 466.5 763 Q397 647 343 438 Q520 478 594 592 Q668 706 668 795 Z M52 289 Q52 521 230 730 Q414 946 634 946 Q729 946 791.5 899 Q854 852 854 766 Q854 636 708 520 Q562 404 329 372 Q323 341 320 314 Q317 287 317 270 Q317 207 335 171 Q367 104 458 104 Q532 104 605 180 Q644 220 689 291 L749 256 Q672 127 604 67 Q496 -29 351 -29 Q243 -29 147.5 49.5 Q52 128 52 289 Z M305 1208 Q317 1264 364.5 1302.5 Q412 1341 467 1341 Q522 1341 552.5 1302 Q583 1263 571 1208 Q560 1154 512.5 1115 Q465 1076 410 1076 Q354 1076 324 1115 Q294 1154 305 1208 Z M903 1341 Q958 1341 988.5 1302 Q1019 1263 1007 1208 Q996 1153 948.5 1114.5 Q901 1076 846 1076 Q792 1076 761 1114.5 Q730 1153 741 1208 Q753 1264 800.5 1302.5 Q848 1341 903 1341 Z " />
<glyph glyph-name="iacute" unicode="&#xed;" horiz-adv-x="569" d="M54 118 Q54 143 66 197 Q73 228 87 279 L210 739 Q212 747 213.5 755 Q215 763 215 770 Q215 811 189 821 Q163 831 94 834 L94 888 Q152 892 262.5 904.5 Q373 917 419 926 L507 943 L348 360 Q328 285 321 256 Q303 182 303 160 Q303 138 313 131.5 Q323 125 335 125 Q366 125 412 178 Q458 231 493 289 L538 260 Q438 113 385 62 Q298 -22 199 -22 Q143 -22 98.5 12.5 Q54 47 54 118 Z M778 1329 Q771 1297 748 1277 Q725 1257 679 1234 L331 1057 L231 1057 L537 1325 Q612 1391 653 1413 Q678 1426 701 1426 Q744 1426 765.5 1399 Q787 1372 778 1329 Z " />
<glyph glyph-name="igrave" unicode="&#xec;" horiz-adv-x="569" d="M54 118 Q54 143 66 197 Q73 228 87 279 L210 739 Q212 747 213.5 755 Q215 763 215 770 Q215 811 189 821 Q163 831 94 834 L94 888 Q152 892 262.5 904.5 Q373 917 419 926 L507 943 L348 360 Q328 285 321 256 Q303 182 303 160 Q303 138 313 131.5 Q323 125 335 125 Q366 125 412 178 Q458 231 493 289 L538 260 Q438 113 385 62 Q298 -22 199 -22 Q143 -22 98.5 12.5 Q54 47 54 118 Z M553 1057 L461 1057 L227 1239 Q193 1266 183.5 1289.5 Q174 1313 178 1335 Q185 1366 216 1396 Q247 1426 292 1426 Q329 1426 350.5 1407.5 Q372 1389 390 1358 L553 1057 Z " />
<glyph glyph-name="icircumflex" unicode="&#xee;" horiz-adv-x="569" d="M54 118 Q54 143 66 197 Q73 228 87 279 L210 739 Q212 747 213.5 755 Q215 763 215 770 Q215 811 189 821 Q163 831 94 834 L94 888 Q152 892 262.5 904.5 Q373 917 419 926 L507 943 L348 360 Q328 285 321 256 Q303 182 303 160 Q303 138 313 131.5 Q323 125 335 125 Q366 125 412 178 Q458 231 493 289 L538 260 Q438 113 385 62 Q298 -22 199 -22 Q143 -22 98.5 12.5 Q54 47 54 118 Z M634 1057 L454 1251 L183 1057 L67 1057 L394 1412 L560 1412 L738 1057 L634 1057 Z " />
<glyph glyph-name="idieresis" unicode="&#xef;" horiz-adv-x="809" d="M54 118 Q54 143 66 197 Q73 228 87 279 L210 739 Q212 747 213.5 755 Q215 763 215 770 Q215 811 189 821 Q163 831 94 834 L94 888 Q152 892 262.5 904.5 Q373 917 419 926 L507 943 L348 360 Q328 285 321 256 Q303 182 303 160 Q303 138 313 131.5 Q323 125 335 125 Q366 125 412 178 Q458 231 493 289 L538 260 Q438 113 385 62 Q298 -22 199 -22 Q143 -22 98.5 12.5 Q54 47 54 118 Z M97 1208 Q109 1264 156.5 1302.5 Q204 1341 259 1341 Q314 1341 344.5 1302 Q375 1263 363 1208 Q352 1154 304.5 1115 Q257 1076 202 1076 Q146 1076 116 1115 Q86 1154 97 1208 Z M695 1341 Q750 1341 780.5 1302 Q811 1263 799 1208 Q788 1153 740.5 1114.5 Q693 1076 638 1076 Q584 1076 553 1114.5 Q522 1153 533 1208 Q545 1264 592.5 1302.5 Q640 1341 695 1341 Z " />
<glyph glyph-name="ntilde" unicode="&#xf1;" horiz-adv-x="1139" d="M49 0 L232 654 Q243 694 248 717 Q258 760 258 777 Q258 814 235 823 Q212 832 146 834 L146 888 Q274 896 345 906 Q416 916 557 943 L433 564 L438 561 Q433 556 498 652.5 Q563 749 622 809 Q680 870 743.5 906.5 Q807 943 877 943 Q942 943 987.5 906 Q1033 869 1033 785 Q1033 707 943 441 Q852 176 852 157 Q852 139 863 129.5 Q874 120 885 120 Q912 120 965 188 Q993 224 1026 277 L1071 248 Q995 125 942 71 Q850 -22 747 -22 Q692 -22 648.5 10 Q605 42 605 111 Q605 155 626 239 Q647 323 677 412 L779 718 Q782 729 784 737 Q786 745 786 753 Q786 776 770.5 785 Q755 794 737 794 Q674 794 597 696.5 Q520 599 471 502 Q418 397 382 289 Q346 181 296 0 L49 0 Z M364 1099 Q382 1192 439 1266.5 Q496 1341 604 1341 Q662 1341 771.5 1298.5 Q881 1256 909 1256 Q953 1256 982 1287 Q998 1303 1016 1341 L1099 1341 Q1075 1228 1013.5 1162.5 Q952 1097 863 1097 Q845 1097 815.5 1101.5 Q786 1106 743 1123 L622 1170 Q601 1178 583.5 1182.5 Q566 1187 548 1187 Q503 1187 484 1165.5 Q465 1144 447 1099 L364 1099 Z " />
<glyph glyph-name="oacute" unicode="&#xf3;" horiz-adv-x="1024" d="M636 943 Q740 943 822 896 Q966 814 966 617 Q966 399 800 194 Q619 -29 386 -29 Q267 -29 160.5 45 Q54 119 54 295 Q54 514 219 719 Q400 943 636 943 Z M298 175 Q298 122 311 92 Q336 35 405 35 Q533 35 635 329 Q720 576 720 756 Q720 804 708 831 Q685 881 622 881 Q475 881 375 569 Q298 332 298 175 Z M1015 1329 Q1008 1297 985 1277 Q962 1257 916 1234 L568 1057 L468 1057 L774 1325 Q849 1391 890 1413 Q915 1426 938 1426 Q981 1426 1002.5 1399 Q1024 1372 1015 1329 Z " />
<glyph glyph-name="ograve" unicode="&#xf2;" horiz-adv-x="1024" d="M636 943 Q740 943 822 896 Q966 814 966 617 Q966 399 800 194 Q619 -29 386 -29 Q267 -29 160.5 45 Q54 119 54 295 Q54 514 219 719 Q400 943 636 943 Z M298 175 Q298 122 311 92 Q336 35 405 35 Q533 35 635 329 Q720 576 720 756 Q720 804 708 831 Q685 881 622 881 Q475 881 375 569 Q298 332 298 175 Z M790 1057 L698 1057 L464 1239 Q430 1266 420.5 1289.5 Q411 1313 415 1335 Q422 1366 453 1396 Q484 1426 529 1426 Q566 1426 587.5 1407.5 Q609 1389 627 1358 L790 1057 Z " />
<glyph glyph-name="ocircumflex" unicode="&#xf4;" horiz-adv-x="1024" d="M636 943 Q740 943 822 896 Q966 814 966 617 Q966 399 800 194 Q619 -29 386 -29 Q267 -29 160.5 45 Q54 119 54 295 Q54 514 219 719 Q400 943 636 943 Z M298 175 Q298 122 311 92 Q336 35 405 35 Q533 35 635 329 Q720 576 720 756 Q720 804 708 831 Q685 881 622 881 Q475 881 375 569 Q298 332 298 175 Z M871 1057 L691 1251 L420 1057 L304 1057 L631 1412 L797 1412 L975 1057 L871 1057 Z " />
<glyph glyph-name="odieresis" unicode="&#xf6;" horiz-adv-x="1024" d="M636 943 Q740 943 822 896 Q966 814 966 617 Q966 399 800 194 Q619 -29 386 -29 Q267 -29 160.5 45 Q54 119 54 295 Q54 514 219 719 Q400 943 636 943 Z M298 175 Q298 122 311 92 Q336 35 405 35 Q533 35 635 329 Q720 576 720 756 Q720 804 708 831 Q685 881 622 881 Q475 881 375 569 Q298 332 298 175 Z M334 1208 Q346 1264 393.5 1302.5 Q441 1341 496 1341 Q551 1341 581.5 1302 Q612 1263 600 1208 Q589 1154 541.5 1115 Q494 1076 439 1076 Q383 1076 353 1115 Q323 1154 334 1208 Z M932 1341 Q987 1341 1017.5 1302 Q1048 1263 1036 1208 Q1025 1153 977.5 1114.5 Q930 1076 875 1076 Q821 1076 790 1114.5 Q759 1153 770 1208 Q782 1264 829.5 1302.5 Q877 1341 932 1341 Z " />
<glyph glyph-name="otilde" unicode="&#xf5;" horiz-adv-x="1024" d="M636 943 Q740 943 822 896 Q966 814 966 617 Q966 399 800 194 Q619 -29 386 -29 Q267 -29 160.5 45 Q54 119 54 295 Q54 514 219 719 Q400 943 636 943 Z M298 175 Q298 122 311 92 Q336 35 405 35 Q533 35 635 329 Q720 576 720 756 Q720 804 708 831 Q685 881 622 881 Q475 881 375 569 Q298 332 298 175 Z M321 1099 Q339 1192 396 1266.5 Q453 1341 561 1341 Q619 1341 728.5 1298.5 Q838 1256 866 1256 Q910 1256 939 1287 Q955 1303 973 1341 L1056 1341 Q1032 1228 970.5 1162.5 Q909 1097 820 1097 Q802 1097 772.5 1101.5 Q743 1106 700 1123 L579 1170 Q558 1178 540.5 1182.5 Q523 1187 505 1187 Q460 1187 441 1165.5 Q422 1144 404 1099 L321 1099 Z " />
<glyph glyph-name="uacute" unicode="&#xfa;" horiz-adv-x="1139" d="M101 142 Q101 168 110 213 Q119 258 130 296 L241 685 Q249 711 252.5 730 Q256 749 256 768 Q256 807 230.5 819.5 Q205 832 142 834 L142 888 Q351 907 455 925 Q559 943 568 943 L474 630 L376 315 Q369 293 360 257 Q346 203 346 177 Q346 152 358.5 140 Q371 128 394 128 Q444 128 525.5 223.5 Q607 319 678 478 Q724 581 760 688 Q783 759 829 919 L1071 919 L988 635 Q983 619 944 483.5 Q905 348 897 321 Q882 268 871 222.5 Q860 177 860 160 Q860 141 869.5 130.5 Q879 120 893 120 Q925 120 979 190 Q1010 229 1035 272 L1078 246 Q1020 135 932.5 56.5 Q845 -22 752 -22 Q670 -22 638 24 Q616 55 616 106 Q616 155 624 189.5 Q632 224 661 315 L656 317 Q530 137 468 77 Q366 -23 259 -23 Q207 -23 167 3 Q101 44 101 142 Z M1058 1329 Q1051 1297 1028 1277 Q1005 1257 959 1234 L611 1057 L511 1057 L817 1325 Q892 1391 933 1413 Q958 1426 981 1426 Q1024 1426 1045.5 1399 Q1067 1372 1058 1329 Z " />
<glyph glyph-name="ugrave" unicode="&#xf9;" horiz-adv-x="1139" d="M101 142 Q101 168 110 213 Q119 258 130 296 L241 685 Q249 711 252.5 730 Q256 749 256 768 Q256 807 230.5 819.5 Q205 832 142 834 L142 888 Q351 907 455 925 Q559 943 568 943 L474 630 L376 315 Q369 293 360 257 Q346 203 346 177 Q346 152 358.5 140 Q371 128 394 128 Q444 128 525.5 223.5 Q607 319 678 478 Q724 581 760 688 Q783 759 829 919 L1071 919 L988 635 Q983 619 944 483.5 Q905 348 897 321 Q882 268 871 222.5 Q860 177 860 160 Q860 141 869.5 130.5 Q879 120 893 120 Q925 120 979 190 Q1010 229 1035 272 L1078 246 Q1020 135 932.5 56.5 Q845 -22 752 -22 Q670 -22 638 24 Q616 55 616 106 Q616 155 624 189.5 Q632 224 661 315 L656 317 Q530 137 468 77 Q366 -23 259 -23 Q207 -23 167 3 Q101 44 101 142 Z M833 1057 L741 1057 L507 1239 Q473 1266 463.5 1289.5 Q454 1313 458 1335 Q465 1366 496 1396 Q527 1426 572 1426 Q609 1426 630.5 1407.5 Q652 1389 670 1358 L833 1057 Z " />
<glyph glyph-name="ucircumflex" unicode="&#xfb;" horiz-adv-x="1139" d="M101 142 Q101 168 110 213 Q119 258 130 296 L241 685 Q249 711 252.5 730 Q256 749 256 768 Q256 807 230.5 819.5 Q205 832 142 834 L142 888 Q351 907 455 925 Q559 943 568 943 L474 630 L376 315 Q369 293 360 257 Q346 203 346 177 Q346 152 358.5 140 Q371 128 394 128 Q444 128 525.5 223.5 Q607 319 678 478 Q724 581 760 688 Q783 759 829 919 L1071 919 L988 635 Q983 619 944 483.5 Q905 348 897 321 Q882 268 871 222.5 Q860 177 860 160 Q860 141 869.5 130.5 Q879 120 893 120 Q925 120 979 190 Q1010 229 1035 272 L1078 246 Q1020 135 932.5 56.5 Q845 -22 752 -22 Q670 -22 638 24 Q616 55 616 106 Q616 155 624 189.5 Q632 224 661 315 L656 317 Q530 137 468 77 Q366 -23 259 -23 Q207 -23 167 3 Q101 44 101 142 Z M914 1057 L734 1251 L463 1057 L347 1057 L674 1412 L840 1412 L1018 1057 L914 1057 Z " />
<glyph glyph-name="udieresis" unicode="&#xfc;" horiz-adv-x="1139" d="M101 142 Q101 168 110 213 Q119 258 130 296 L241 685 Q249 711 252.5 730 Q256 749 256 768 Q256 807 230.5 819.5 Q205 832 142 834 L142 888 Q351 907 455 925 Q559 943 568 943 L474 630 L376 315 Q369 293 360 257 Q346 203 346 177 Q346 152 358.5 140 Q371 128 394 128 Q444 128 525.5 223.5 Q607 319 678 478 Q724 581 760 688 Q783 759 829 919 L1071 919 L988 635 Q983 619 944 483.5 Q905 348 897 321 Q882 268 871 222.5 Q860 177 860 160 Q860 141 869.5 130.5 Q879 120 893 120 Q925 120 979 190 Q1010 229 1035 272 L1078 246 Q1020 135 932.5 56.5 Q845 -22 752 -22 Q670 -22 638 24 Q616 55 616 106 Q616 155 624 189.5 Q632 224 661 315 L656 317 Q530 137 468 77 Q366 -23 259 -23 Q207 -23 167 3 Q101 44 101 142 Z M377 1208 Q389 1264 436.5 1302.5 Q484 1341 539 1341 Q594 1341 624.5 1302 Q655 1263 643 1208 Q632 1154 584.5 1115 Q537 1076 482 1076 Q426 1076 396 1115 Q366 1154 377 1208 Z M975 1341 Q1030 1341 1060.5 1302 Q1091 1263 1079 1208 Q1068 1153 1020.5 1114.5 Q973 1076 918 1076 Q864 1076 833 1114.5 Q802 1153 813 1208 Q825 1264 872.5 1302.5 Q920 1341 975 1341 Z " />
<glyph glyph-name="dagger" unicode="&#x2020;" horiz-adv-x="1024" d="M289 1038 Q315 1038 340 1031.5 Q365 1025 391 1012 L443 986 Q479 968 498 964 Q517 960 578 957 Q588 998 591 1016.5 Q594 1035 594 1064 Q594 1092 591.5 1107 Q589 1122 578 1168 L564 1227 Q560 1245 558.5 1255.5 Q557 1266 557 1279 Q557 1343 589.5 1374 Q622 1405 670 1405 Q724 1405 754 1374 Q784 1343 784 1301 Q784 1255 765 1216 Q753 1192 720 1149 L689 1109 Q664 1077 650 1036 Q642 1012 630 957 Q688 963 735 978 Q763 987 777 995 L813 1014 Q833 1024 854.5 1031 Q876 1038 905 1038 Q965 1038 988.5 1003 Q1012 968 1012 931 Q1012 875 973 849.5 Q934 824 897 824 Q882 824 859.5 830.5 Q837 837 808 853 L770 874 Q732 895 700 901.5 Q668 908 621 910 Q614 878 612 860 Q610 842 610 796 Q610 719 634 631 Q650 574 661 552 Q628 514 581.5 415.5 Q535 317 488 156 Q465 78 428 -67.5 Q391 -213 367 -297 L320 -297 L376 59 Q388 140 393 189 Q403 286 403 389 Q403 450 402 470.5 Q401 491 393 554 L391 571 Q469 636 516.5 743 Q564 850 568 910 Q539 910 508 904 Q477 898 457 888 L405 862 Q382 850 350 839.5 Q318 829 289 829 Q243 829 215 858 Q187 887 187 935 Q187 980 214.5 1009 Q242 1038 289 1038 Z " />
<glyph glyph-name="degree" unicode="&#xb0;" horiz-adv-x="819" d="M469 907 Q545 907 611 961 Q677 1015 694 1092 Q709 1165 667 1220 Q625 1275 548 1275 Q473 1275 406 1220 Q339 1165 323 1090 Q308 1017 350.5 962 Q393 907 469 907 Z M206 1092 Q232 1218 341 1305.5 Q450 1393 573 1393 Q699 1393 767.5 1305 Q836 1217 810 1092 Q783 964 673.5 876.5 Q564 789 444 789 Q319 789 248.5 875 Q178 961 206 1092 Z " />
<glyph glyph-name="cent" unicode="&#xa2;" horiz-adv-x="1024" d="M346 293 Q346 210 383 161 Q403 134 438 116 L694 850 Q685 865 670 872 Q655 879 635 879 Q535 879 437 660 Q346 456 346 293 Z M85 289 Q85 530 260 736 Q439 945 657 945 Q685 945 700 943 Q715 941 725 938 L810 1180 L881 1180 L791 919 Q842 895 870 853 Q898 811 898 758 Q898 694 859 656 Q820 618 770 618 Q745 618 727.5 624 Q710 630 692 642 L504 104 Q570 103 630.5 155.5 Q691 208 746 289 L803 251 Q704 112 639.5 58 Q575 4 459 -22 L365 -294 L293 -294 L386 -29 Q284 -29 184.5 46 Q85 121 85 289 Z " />
<glyph glyph-name="sterling" unicode="&#xa3;" horiz-adv-x="1024" d="M105 40 Q166 40 200 94 Q220 126 232 184 Q209 206 173 226 Q137 246 104 246 Q59 246 26.5 217 Q-6 188 -6 144 Q-6 96 27.5 68 Q61 40 105 40 Z M128 331 Q164 331 191 324 Q218 317 256 303 L258 317 Q260 329 272 442.5 Q284 556 286 576 L293 635 L71 635 L92 758 L308 758 Q336 910 359 983 Q399 1105 473 1203 Q525 1270 594 1320 Q699 1394 809 1394 Q926 1394 985.5 1340 Q1045 1286 1045 1210 Q1045 1150 1007 1111.5 Q969 1073 918 1073 Q869 1073 839.5 1105 Q810 1137 810 1177 Q810 1189 820 1242 L824 1268 Q829 1298 814 1313 Q799 1327 776 1327 Q717 1327 684 1264 Q666 1230 654 1170 L573 758 L805 758 L786 635 L549 635 Q537 559 499.5 461 Q462 363 419 289 L398 253 Q498 214 548 201.5 Q598 189 642 189 Q726 189 769.5 220 Q813 251 836 317 L888 317 Q864 185 791.5 79 Q719 -27 571 -27 Q507 -27 446 7 Q408 28 320 99 Q274 37 243 14 Q190 -25 117 -25 Q31 -25 -19.5 27.5 Q-70 80 -70 146 Q-70 226 -15.5 278.5 Q39 331 128 331 Z " />
<glyph glyph-name="section" unicode="&#xa7;" horiz-adv-x="1024" d="M618 301 Q674 301 709.5 335 Q745 369 745 424 Q745 517 617 666.5 Q489 816 401 816 Q345 816 315 779 Q285 742 285 694 Q285 607 412 454 Q539 301 618 301 Z M308 -66 Q308 -113 271 -147 Q234 -181 234 -192 Q234 -210 270.5 -229.5 Q307 -249 366 -249 Q457 -249 503 -203.5 Q549 -158 549 -98 Q549 -39 517.5 12 Q486 63 379 192 L244 355 Q192 417 163 480 Q134 543 134 611 Q134 737 208.5 801 Q283 865 369 865 Q389 865 414 863 Q439 861 452 855 L457 862 Q420 896 382.5 968.5 Q345 1041 345 1124 Q345 1233 423.5 1316.5 Q502 1400 661 1400 Q802 1400 871.5 1335.5 Q941 1271 941 1204 Q941 1157 912.5 1116 Q884 1075 820 1075 Q769 1075 739 1108 Q709 1141 709 1181 Q709 1198 714 1215.5 Q719 1233 737 1249 L760 1270 Q773 1281 777.5 1287 Q782 1293 782 1301 Q782 1319 748.5 1337 Q715 1355 653 1355 Q586 1355 537.5 1315 Q489 1275 489 1203 Q489 1166 506 1127 Q537 1058 625 955 L768 789 Q825 722 858 646.5 Q891 571 891 492 Q891 400 823 323 Q755 246 648 246 Q623 246 614 247 Q605 248 590 253 L585 246 Q639 179 664 133 Q706 55 706 -20 Q706 -139 609.5 -218 Q513 -297 378 -297 Q236 -297 155 -233 Q74 -169 74 -79 Q74 -27 107 9 Q140 45 194 45 Q234 45 271 16.5 Q308 -12 308 -66 Z " />
<glyph glyph-name="bullet" unicode="&#x2022;" horiz-adv-x="717" d="M353 398 Q231 398 146 484 Q61 570 61 692 Q61 813 146.5 898 Q232 983 353 983 Q474 983 558 898 Q642 813 642 692 Q642 570 557 484 Q472 398 353 398 Z " />
<glyph glyph-name="paragraph" unicode="&#xb6;" horiz-adv-x="1024" d="M66 -298 Q-2 -298 -48 -280 Q-75 -271 -94 -254 Q-120 -233 -131.5 -207.5 Q-143 -182 -143 -159 Q-143 -128 -127 -98 Q-95 -44 -32 -44 Q13 -44 43 -73.5 Q73 -103 73 -141 Q73 -170 61.5 -195.5 Q50 -221 23 -235 Q129 -230 201 -74 Q246 23 289 218 L372 594 Q237 594 156 631 Q6 700 6 890 Q6 1045 81 1148 Q156 1251 256 1306 Q336 1350 420.5 1360 Q505 1370 706 1370 L708 1355 Q647 1308 616 1243 Q585 1178 533 962 L343 177 Q300 -2 270 -65 Q225 -163 128 -233 L132 -245 Q312 -191 392 -62 Q472 67 523 282 L658 855 Q724 1134 770 1234 Q845 1397 966 1397 Q1028 1397 1066.5 1361 Q1105 1325 1105 1283 Q1105 1260 1100 1246 Q1095 1232 1073 1192 L1024 1208 Q1031 1220 1036 1231.5 Q1041 1243 1041 1257 Q1041 1277 1028 1287 Q1015 1297 997 1297 Q950 1297 911 1197 Q884 1131 827 910 L791 772 Q784 746 781.5 734 Q779 722 768 677 L668 244 Q603 -39 393 -186 Q233 -298 66 -298 Z " />
<glyph glyph-name="germandbls" unicode="&#xdf;" horiz-adv-x="1024" d="M-240 -145 Q-199 -145 -173 -172.5 Q-147 -200 -147 -239 Q-147 -253 -151 -268 Q-155 -283 -164 -294 L-176 -309 Q-179 -313 -181 -317 Q-183 -321 -183 -326 Q-183 -341 -169.5 -345 Q-156 -349 -141 -349 Q-108 -349 -79.5 -320.5 Q-51 -292 -27 -236 Q-1 -175 28 -43 L218 824 Q280 1106 400 1275 Q519 1443 723 1443 Q867 1443 948 1366 Q1029 1289 1029 1181 Q1029 1024 881 920 Q799 863 663 820 L663 815 Q814 785 883 711.5 Q952 638 952 509 Q952 312 812.5 147 Q673 -18 510 -18 Q466 -18 424.5 -6 Q383 6 353 30 L393 101 L400 92 Q412 77 437 65.5 Q462 54 485 54 Q591 54 648.5 263.5 Q706 473 706 599 Q706 714 666 751 Q640 775 554 786 L568 862 L602 860 Q704 854 753.5 996 Q803 1138 803 1256 Q803 1308 782.5 1344.5 Q762 1381 706 1381 Q646 1381 608 1333 Q549 1258 500 1042 L312 208 Q245 -91 133 -251 Q21 -412 -155 -412 Q-239 -412 -295 -368 Q-351 -324 -351 -258 Q-351 -205 -321.5 -175 Q-292 -145 -240 -145 Z " />
<glyph glyph-name="registered" unicode="&#xae;" horiz-adv-x="1530" d="M1042 735 Q986 708 875 689 L873 682 L883 680 Q984 659 1006.5 529 Q1029 399 1052 399 Q1068 399 1077.5 412 Q1087 425 1109 481 L1165 481 Q1155 423 1099.5 352.5 Q1044 282 952 282 Q852 282 836 389 Q832 435 839 529 Q842 617 778 637 Q740 654 654 651 L616 471 Q607 419 622.5 399 Q638 379 703 379 L687 303 L300 303 L316 379 Q392 379 415.5 413.5 Q439 448 477 627 L511 787 Q536 909 537 929 Q539 956 523.5 974.5 Q508 993 446 993 L463 1069 L897 1069 Q1039 1069 1110.5 1021 Q1182 973 1162 877 Q1142 783 1042 735 Z M233 245 Q375 64 633 64 Q892 64 1109 241 Q1328 420 1383 682 Q1438 938 1296 1118 Q1154 1298 895 1298 Q641 1298 422 1118 Q200 937 144 677 Q91 424 233 245 Z M1378 1198 Q1547 988 1482 682 Q1416 371 1151 162 Q898 -38 611 -38 Q306 -38 141 174 Q-21 383 41 682 Q107 990 373 1201 Q629 1403 918 1403 Q1213 1403 1378 1198 Z M863 748 Q953 777 973 871 Q988 944 920 975 Q877 994 812 994 Q749 994 730 957.5 Q711 921 671 730 Q809 730 863 748 Z " />
<glyph glyph-name="copyright" unicode="&#xa9;" horiz-adv-x="1530" d="M233 244 Q375 64 631 64 Q888 64 1104 240 Q1324 418 1380 682 Q1435 938 1293 1118 Q1150 1298 893 1298 Q644 1298 426 1124 Q201 945 145 682 Q91 425 233 244 Z M1376 1199 Q1548 990 1482 682 Q1418 378 1163 169 Q911 -38 609 -38 Q305 -38 140 174 Q-21 384 41 682 Q107 991 374 1202 Q629 1403 916 1403 Q1210 1403 1376 1199 Z M351 664 Q394 867 540.5 985.5 Q687 1104 837 1104 Q928 1104 996.5 1069.5 Q1065 1035 1073 1035 Q1080 1035 1090.5 1047.5 Q1101 1060 1105 1078 L1179 1078 L1123 775 L1045 775 Q1040 873 1016 924 Q972 1015 860 1015 Q739 1015 657 904 Q575 793 550 676 Q517 521 574 440.5 Q631 360 729 360 Q805 360 873 407 Q941 454 1007 540 L1067 500 Q990 388 882.5 327 Q775 266 652 266 Q507 266 410.5 379.5 Q314 493 351 664 Z " />
<glyph glyph-name="trademark" unicode="&#x2122;" horiz-adv-x="2048" d="M1327 1384 L1392 986 L1621 1384 L1941 1384 L1927 1332 L1918 1332 Q1855 1332 1838.5 1312.5 Q1822 1293 1804 1208 L1713 779 Q1703 731 1712 712.5 Q1721 694 1776 694 L1788 694 L1777 642 L1388 642 L1399 694 Q1450 694 1477 710 Q1504 726 1518 791 L1604 1194 L1291 642 L1238 642 L1137 1194 L1052 794 Q1037 726 1060 710 Q1083 694 1145 694 L1134 642 L828 642 L839 694 Q911 694 936 724.5 Q961 755 980 848 L1070 1268 Q1079 1311 1063 1321.5 Q1047 1332 998 1332 L986 1332 L997 1384 L1327 1384 Z M247 694 L259 694 Q324 694 344.5 715 Q365 736 381 813 L485 1303 Q365 1305 321 1270.5 Q277 1236 230 1109 L178 1109 L255 1384 L955 1384 L918 1109 L866 1109 Q869 1230 842.5 1268.5 Q816 1307 690 1303 L597 866 Q571 743 581 718.5 Q591 694 666 694 L658 642 L236 642 L247 694 Z " />
<glyph glyph-name="acute" unicode="&#xb4;" horiz-adv-x="682" d="M798 1329 Q791 1297 768 1277 Q745 1257 699 1234 L351 1057 L251 1057 L557 1325 Q632 1391 673 1413 Q698 1426 721 1426 Q764 1426 785.5 1399 Q807 1372 798 1329 Z " />
<glyph glyph-name="dieresis" unicode="&#xa8;" horiz-adv-x="682" d="M117 1208 Q129 1264 176.5 1302.5 Q224 1341 279 1341 Q334 1341 364.5 1302 Q395 1263 383 1208 Q372 1154 324.5 1115 Q277 1076 222 1076 Q166 1076 136 1115 Q106 1154 117 1208 Z M715 1341 Q770 1341 800.5 1302 Q831 1263 819 1208 Q808 1153 760.5 1114.5 Q713 1076 658 1076 Q604 1076 573 1114.5 Q542 1153 553 1208 Q565 1264 612.5 1302.5 Q660 1341 715 1341 Z " />
<glyph glyph-name="AE" unicode="&#xc6;" horiz-adv-x="1933" d="M507 602 L862 602 L1050 1284 L1026 1284 L507 602 Z M-86 54 Q-45 57 -10 86 Q25 115 97 208 L846 1175 Q862 1196 874 1219 Q886 1242 886 1260 Q886 1295 852 1305.5 Q818 1316 720 1322 L720 1370 L1927 1370 L1834 981 L1784 990 L1782 1073 Q1778 1221 1640 1274 Q1565 1303 1436 1303 Q1381 1303 1360.5 1291 Q1340 1279 1329 1239 L1197 758 Q1369 755 1449.5 794.5 Q1530 834 1592 974 L1647 967 L1498 407 L1445 417 Q1450 453 1451.5 473 Q1453 493 1453 509 Q1453 620 1397.5 649.5 Q1342 679 1180 692 L1050 199 Q1046 182 1043.5 169 Q1041 156 1041 143 Q1041 104 1065.5 86 Q1090 68 1144 68 Q1382 68 1504 150 Q1626 232 1735 407 L1787 400 L1666 0 L587 0 L587 49 Q670 60 696 87 Q722 114 746 196 L841 521 L448 521 L215 201 Q201 183 192 164.5 Q183 146 183 125 Q183 82 222 65 Q246 55 315 47 L315 0 L-86 0 L-86 54 Z " />
<glyph glyph-name="Oslash" unicode="&#xd8;" horiz-adv-x="1479" d="M348 308 Q348 260 353.5 229.5 Q359 199 372 151 L1038 1291 Q1026 1304 991.5 1319 Q957 1334 916 1334 Q793 1334 700.5 1249.5 Q608 1165 511 951 Q431 775 389.5 585 Q348 395 348 308 Z M431 73 Q474 48 495 40.5 Q516 33 552 33 Q671 33 764.5 116.5 Q858 200 955 416 Q1039 603 1078.5 789.5 Q1118 976 1118 1059 Q1118 1110 1113 1136.5 Q1108 1163 1092 1216 L431 73 Z M54 452 Q54 788 310 1089 Q578 1403 910 1403 Q948 1403 994.5 1397.5 Q1041 1392 1088 1377 L1197 1564 L1296 1564 L1168 1344 Q1263 1291 1318 1221 Q1415 1097 1415 910 Q1415 579 1163 280 Q895 -38 548 -38 Q478 -38 422 -26 Q366 -15 374 -15 L232 -259 L132 -259 L296 21 Q188 76 121 185.5 Q54 295 54 452 Z " />
<glyph glyph-name="infinity" unicode="&#x221e;" horiz-adv-x="1460" d="M623 969 Q658 915 690 791 Q794 930 857 982 Q957 1064 1082 1064 Q1211 1064 1292 956 Q1373 848 1337 675 Q1305 528 1192.5 392.5 Q1080 257 907 257 Q798 257 744 336 Q690 415 675 528 Q592 409 522 350 Q411 258 288 258 Q129 258 58.5 376 Q-12 494 20 648 Q47 776 131 890 Q259 1064 454 1064 Q562 1064 623 969 Z M1080 912 Q1032 912 991 894 Q950 876 908 830 Q855 775 795 694 Q735 613 733 604 Q731 593 749 550.5 Q767 508 809 478 Q844 452 889 442 Q917 436 955 436 Q1084 436 1165.5 507.5 Q1247 579 1268 679 Q1290 781 1233 846.5 Q1176 912 1080 912 Z M574 826 Q517 890 406 890 Q283 890 199 815 Q115 740 96 647 Q77 560 119.5 486.5 Q162 413 269 413 Q399 413 517 547 Q589 628 627 713 Q605 789 574 826 Z " />
<glyph glyph-name="plusminus" unicode="&#xb1;" horiz-adv-x="1124" d="M1034 177 L996 0 L-56 0 L-18 177 L1034 177 Z M434 251 L499 559 L62 559 L100 737 L537 737 L605 1054 L787 1054 L719 737 L1153 737 L1115 559 L681 559 L616 251 L434 251 Z " />
<glyph glyph-name="lessequal" unicode="&#x2264;" horiz-adv-x="1124" d="M67 722 L1213 1095 L1172 902 L504 685 L1079 465 L1038 272 L50 644 L67 722 Z M-86 0 L-47 182 L1019 182 L980 0 L-86 0 Z " />
<glyph glyph-name="greaterequal" unicode="&#x2265;" horiz-adv-x="1124" d="M-51 182 L1014 182 L975 0 L-90 0 L-51 182 Z M-32 272 L8 465 L677 685 L101 902 L142 1095 L1129 722 L1112 644 L-32 272 Z " />
<glyph glyph-name="yen" unicode="&#xa5;" horiz-adv-x="1024" d="M94 52 Q191 59 225 78 Q277 107 303 199 L362 407 L73 407 L97 521 L395 521 L421 632 L391 734 L97 734 L120 848 L357 848 L213 1265 Q206 1283 180 1298.5 Q154 1314 94 1317 L94 1370 L673 1370 L673 1320 Q598 1317 564.5 1304 Q531 1291 531 1245 Q531 1232 534.5 1212 Q538 1192 545 1170 L687 720 L952 1102 Q980 1143 993 1170.5 Q1006 1198 1006 1234 Q1006 1280 974 1299 Q942 1318 867 1320 L867 1370 L1294 1370 L1294 1320 Q1242 1312 1197 1277.5 Q1152 1243 1106 1178 L874 848 L1111 848 L1088 734 L794 734 L739 644 L701 521 L1038 521 L1014 407 L663 407 L616 251 Q611 235 602.5 195.5 Q594 156 594 142 Q594 87 635 69 Q662 57 753 52 L753 0 L94 0 L94 52 Z " />
<glyph glyph-name="mu" unicode="&#xb5;" horiz-adv-x="1180" d="M-133 -368 Q-54 -367 -25.5 -329.5 Q3 -292 47 -128 L253 640 Q266 688 271.5 718 Q277 748 277 770 Q277 809 249.5 820.5 Q222 832 163 834 L163 888 Q320 902 404 912 Q488 922 590 943 L398 315 Q381 258 373.5 228.5 Q366 199 366 176 Q366 152 380.5 140 Q395 128 416 128 Q501 128 623 331 Q761 562 850 919 L1092 919 L1009 635 Q940 399 919 323 Q881 185 881 160 Q881 146 888 133 Q895 120 912 120 Q942 120 988 174 Q1013 204 1057 272 L1099 246 Q1056 165 996 99 Q885 -22 770 -22 Q703 -22 670 10 Q637 42 637 103 Q637 122 643.5 165 Q650 208 666 279 L654 279 Q557 136 506 87 Q423 8 315 -3 L201 -422 L-133 -422 L-133 -368 Z " />
<glyph glyph-name="product" unicode="&#x220f;" horiz-adv-x="1686" d="M1774 1329 L1762 1329 Q1672 1329 1628.5 1286.5 Q1585 1244 1561 1130 L1300 -95 Q1276 -210 1301.5 -252.5 Q1327 -295 1429 -295 L1417 -350 L777 -350 L789 -295 Q889 -295 932.5 -252.5 Q976 -210 1000 -95 L1261 1130 Q1284 1241 1256.5 1272 Q1229 1303 1129 1303 L906 1303 Q806 1303 763 1264.5 Q720 1226 700 1130 L439 -95 Q415 -210 440.5 -252.5 Q466 -295 566 -295 L554 -350 L-83 -350 L-71 -295 Q28 -295 71.5 -252.5 Q115 -210 139 -95 L400 1130 Q424 1244 398.5 1286.5 Q373 1329 273 1329 L285 1384 L1786 1384 L1774 1329 Z " />
<glyph glyph-name="pi" unicode="&#x3c0;" horiz-adv-x="1124" d="M599 747 Q529 608 422 414 Q315 219 254 135 Q182 45 124 8 Q66 -27 19 -27 Q-48 -25 -74 12 Q-101 47 -90 100 Q-73 182 -14 274 L38 274 Q19 242 12 211 Q7 186 21 168 Q34 147 70 147 Q102 145 145 172 Q166 184 190 207 Q212 227 237 258 Q345 377 540 750 Q504 750 463 752 Q358 752 320 735 Q300 725 282 700 Q262 676 240 637 L185 637 Q281 831 369 907 Q454 983 596 981 Q716 981 942 973 Q1170 965 1301 965 Q1384 960 1422 1024 L1477 1024 Q1404 874 1333 805 Q1260 735 1139 735 Q1113 735 1088 737 L874 317 Q856 281 832 231 Q806 180 799 149 Q788 98 837 100 Q871 100 908 129 Q943 156 974 192 Q1044 274 1066 330 L1117 315 Q1023 149 921 61 Q818 -25 678 -27 Q603 -27 556 16 Q506 59 522 145 Q538 217 630 385 L815 743 L599 747 Z " />
<glyph glyph-name="ordfeminine" unicode="&#xaa;" horiz-adv-x="545" d="M466 1285 Q466 1313 454 1332 Q442 1351 411 1351 Q347 1351 273 1206 Q199 1061 199 988 Q199 949 214.5 927 Q230 905 260 905 Q335 905 400.5 1057.5 Q466 1210 466 1285 Z M35 978 Q35 1123 158 1263 Q281 1403 395 1403 Q444 1403 467.5 1380 Q491 1357 497 1317 L519 1384 L668 1393 Q577 1114 552.5 1032.5 Q528 951 528 920 Q528 912 532.5 908 Q537 904 543 904 Q560 904 577 920 Q594 936 640 990 L668 974 Q625 914 589 880 Q524 817 468 817 Q435 817 407 837.5 Q379 858 379 898 Q379 912 382.5 929.5 Q386 947 395 976 Q354 913 318 879 Q251 817 177 817 Q115 817 75 858.5 Q35 900 35 978 Z " />
<glyph glyph-name="ordmasculine" unicode="&#xba;" horiz-adv-x="614" d="M279 943 Q279 911 295.5 884.5 Q312 858 350 858 Q432 858 493 1024 Q554 1190 554 1289 Q554 1322 541.5 1344.5 Q529 1367 487 1367 Q402 1367 340.5 1209 Q279 1051 279 943 Z M503 1403 Q568 1403 620 1376 Q715 1327 715 1202 Q715 1072 605 946 Q495 820 333 820 Q243 820 181.5 871.5 Q120 923 120 1017 Q120 1155 232 1279 Q344 1403 503 1403 Z " />
<glyph glyph-name="Omega" unicode="&#x2126;" horiz-adv-x="1573" d="M955 367 L929 246 L1199 246 Q1306 246 1347 280 Q1372 301 1388 365 L1433 365 L1356 0 L806 0 L898 436 Q1027 481 1103.5 579 Q1180 677 1224 888 Q1255 1033 1237 1136 Q1201 1332 996 1332 Q788 1332 661 1147 Q586 1035 553 880 Q515 703 541.5 593.5 Q568 484 689 436 L597 0 L45 0 L122 365 L169 365 Q153 294 175 270 Q197 246 303 246 L580 246 L606 367 Q409 384 287.5 521.5 Q166 659 209 864 Q258 1093 461 1244 Q674 1401 969 1401 Q1378 1401 1515 1202 Q1606 1071 1566 883 Q1517 653 1332 522 Q1147 391 955 367 Z " />
<glyph glyph-name="ae" unicode="&#xe6;" horiz-adv-x="1479" d="M1234 791 Q1234 825 1222 852 Q1210 879 1166 879 Q1072 879 986 714 Q933 611 896 474 L886 438 Q968 460 1011 479 Q1078 508 1126 556 Q1176 604 1205 665 Q1234 726 1234 791 Z M388 119 Q517 119 629 386 Q721 606 721 727 Q721 781 699.5 819.5 Q678 858 621 858 Q509 858 394 620 Q289 402 289 253 Q289 203 301 173 Q324 119 388 119 Z M592 945 Q673 945 719 893 Q744 866 758 820 L763 820 L798 929 L1009 941 L971 815 Q1021 871 1064 898 Q1133 941 1216 941 Q1299 941 1358.5 896.5 Q1418 852 1418 760 Q1418 644 1304 544.5 Q1190 445 952 388 L872 369 Q867 347 864.5 325.5 Q862 304 862 279 Q862 202 894.5 151.5 Q927 101 1005 101 Q1095 101 1179 188 Q1228 238 1251 284 L1308 248 Q1271 166 1203 96 Q1079 -29 914 -29 Q754 -29 679 74 Q637 132 618 237 L613 237 Q545 117 459 45 Q373 -27 255 -27 Q170 -27 100.5 37.5 Q31 102 31 231 Q31 474 217 710 Q402 945 592 945 Z " />
<glyph glyph-name="oslash" unicode="&#xf8;" horiz-adv-x="1024" d="M298 163 L687 853 Q674 867 656 874 Q638 881 616 881 Q490 881 394 625 Q314 411 298 175 L298 163 Z M324 71 Q341 54 358 44.5 Q375 35 405 35 Q535 35 637 336 Q724 592 720 775 L324 71 Z M637 943 Q659 943 685.5 940 Q712 937 732 931 L853 1147 L929 1147 L796 910 Q860 879 897 834 Q966 752 966 617 Q966 400 801 195 Q621 -29 383 -29 Q364 -29 333 -25.5 Q302 -22 277 -12 L146 -247 L66 -247 L213 14 Q133 53 93.5 126.5 Q54 200 54 295 Q54 511 217 717 Q397 943 637 943 Z " />
<glyph glyph-name="questiondown" unicode="&#xbf;" horiz-adv-x="1024" d="M711 704 Q648 704 603.5 748.5 Q559 793 559 855 Q559 918 603.5 962.5 Q648 1007 711 1007 Q773 1007 817.5 962.5 Q862 918 862 855 Q862 793 818 748.5 Q774 704 711 704 Z M424 -425 Q278 -425 169.5 -348.5 Q61 -272 61 -125 Q61 -7 156 94 Q209 151 320 222 L457 310 Q512 346 548 394.5 Q584 443 623 552 L682 538 Q672 460 652 407 Q618 316 535 213 L452 109 Q372 8 347 -62 Q322 -132 322 -200 Q322 -281 365 -319.5 Q408 -358 467 -358 Q514 -358 552 -333.5 Q590 -309 590 -283 Q590 -277 588.5 -271 Q587 -265 583 -261 L566 -237 Q544 -206 537 -182 Q530 -158 530 -143 Q530 -94 564 -58 Q598 -22 657 -22 Q715 -22 747.5 -64.5 Q780 -107 780 -157 Q780 -263 680.5 -344 Q581 -425 424 -425 Z " />
<glyph glyph-name="exclamdown" unicode="&#xa1;" horiz-adv-x="797" d="M516 713 Q447 713 403.5 758 Q360 803 360 862 Q360 923 405 966 Q450 1009 513 1009 Q576 1009 619.5 967 Q663 925 663 864 Q663 800 619 756.5 Q575 713 516 713 Z M38 -274 Q38 -246 46 -217 Q54 -188 71 -155 L142 -15 Q194 88 247 200 Q300 312 327 379 L400 564 L459 547 L450 504 Q410 313 398 230.5 Q386 148 355 -155 L348 -223 Q340 -307 303 -363.5 Q266 -420 185 -420 Q138 -420 101 -397 Q38 -358 38 -274 Z " />
<glyph glyph-name="logicalnot" unicode="&#xac;" horiz-adv-x="1241" d="M1173 832 L1044 222 L857 222 L948 651 L82 651 L120 832 L1173 832 Z " />
<glyph glyph-name="florin" unicode="&#x192;" horiz-adv-x="1024" d="M-64 -22 Q-3 -22 22.5 -56.5 Q48 -91 48 -122 Q48 -160 18 -190.5 Q-12 -221 -12 -232 Q-12 -248 6.5 -256 Q25 -264 43 -264 Q117 -264 171 -144 Q207 -64 232 66 L374 810 L158 810 L175 900 L395 900 Q432 1080 516 1218 Q656 1448 877 1448 Q973 1448 1035.5 1396 Q1098 1344 1098 1274 Q1098 1209 1063 1176.5 Q1028 1144 979 1144 Q928 1144 897.5 1173 Q867 1202 867 1245 Q867 1281 896.5 1314.5 Q926 1348 926 1356 Q926 1374 908 1380 Q890 1386 875 1386 Q791 1386 756 1292.5 Q721 1199 666 900 L907 900 L888 810 L651 810 L594 495 Q521 92 398 -105 Q261 -323 44 -323 Q-56 -323 -118.5 -273 Q-181 -223 -181 -141 Q-181 -93 -150 -57.5 Q-119 -22 -64 -22 Z " />
<glyph glyph-name="increment" unicode="&#x2206;" horiz-adv-x="1253" d="M214 120 L833 120 Q838 120 845 124 Q852 128 853 133 L852 146 L719 961 L212 161 Q197 138 196 133 Q195 127 199.5 123.5 Q204 120 214 120 Z M9 0 L915 1415 L984 1415 L1261 0 L9 0 Z " />
<glyph glyph-name="guillemotleft" unicode="&#xab;" horiz-adv-x="1024" d="M426 474 L765 718 Q885 813 898 824 L929 850 Q945 860 953 860 Q964 860 973 852.5 Q982 845 982 834 Q982 795 924.5 725.5 Q867 656 682 459 Q748 326 779 259 Q832 141 832 107 Q832 87 822 81 Q812 75 803 75 Q793 75 786.5 80 Q780 85 754 116 Q707 172 654.5 225.5 Q602 279 426 455 L426 474 Z M42 474 L381 718 Q501 813 514 824 L545 850 Q561 860 569 860 Q580 860 589 852.5 Q598 845 598 834 Q598 795 540.5 725.5 Q483 656 298 459 Q364 326 395 259 Q448 141 448 107 Q448 87 438 81 Q428 75 419 75 Q409 75 402.5 80 Q396 85 370 116 Q323 172 270.5 225.5 Q218 279 42 455 L42 474 Z " />
<glyph glyph-name="guillemotright" unicode="&#xbb;" horiz-adv-x="1024" d="M597 452 Q348 279 271.5 222 Q195 165 123 101 L94 75 Q90 71 84 68.5 Q78 66 71 66 Q60 66 50.5 73.5 Q41 81 41 93 Q41 133 121 228 Q172 289 341 466 L236 678 Q208 741 200 770 Q192 799 192 822 Q192 840 201 845 Q210 850 221 850 Q232 850 237.5 845 Q243 840 269 810 Q318 752 368 700.5 Q418 649 597 471 L597 452 Z M981 452 Q732 279 655.5 222 Q579 165 507 101 L478 75 Q474 71 468 68.5 Q462 66 455 66 Q444 66 434.5 73.5 Q425 81 425 93 Q425 133 505 228 Q556 289 725 466 L620 678 Q592 741 584 770 Q576 799 576 822 Q576 840 585 845 Q594 850 605 850 Q616 850 621.5 845 Q627 840 653 810 Q702 752 752 700.5 Q802 649 981 471 L981 452 Z " />
<glyph glyph-name="ellipsis" unicode="&#x2026;" horiz-adv-x="2048" d="M1706 274 Q1768 274 1813 229 Q1858 184 1858 123 Q1858 60 1812.5 15.5 Q1767 -29 1706 -29 Q1645 -29 1599.5 16.5 Q1554 62 1554 123 Q1554 183 1599.5 228.5 Q1645 274 1706 274 Z M1022 274 Q1087 274 1131 228 Q1175 182 1175 123 Q1175 59 1128.5 15 Q1082 -29 1022 -29 Q963 -29 916 14.5 Q869 58 869 123 Q869 183 914 228.5 Q959 274 1022 274 Z M339 274 Q405 274 449 227.5 Q493 181 493 123 Q493 60 447 15.5 Q401 -29 340 -29 Q282 -29 234.5 14 Q187 57 187 123 Q187 184 231.5 229 Q276 274 339 274 Z " />
<glyph glyph-name="nobreakspace" unicode="&#xa0;" horiz-adv-x="512" d="" />
<glyph glyph-name="Agrave" unicode="&#xc0;" horiz-adv-x="1366" d="M739 507 L663 1005 L360 507 L739 507 Z M-109 49 Q-52 66 -25 86 Q15 115 64 194 L824 1398 L877 1398 L1073 227 Q1093 109 1121 82.5 Q1149 56 1244 49 L1244 0 L623 0 L623 49 Q711 56 747.5 77.5 Q784 99 784 167 Q784 190 773 277 Q771 295 753 426 L312 426 L192 218 Q180 197 170.5 172 Q161 147 161 124 Q161 82 186.5 70 Q212 58 293 49 L293 0 L-109 0 L-109 49 Z M971 1510 L879 1510 L645 1692 Q611 1719 601.5 1742.5 Q592 1766 596 1788 Q603 1819 634 1849 Q665 1879 710 1879 Q747 1879 768.5 1860.5 Q790 1842 808 1811 L971 1510 Z " />
<glyph glyph-name="Atilde" unicode="&#xc3;" horiz-adv-x="1366" d="M739 507 L663 1005 L360 507 L739 507 Z M-109 49 Q-52 66 -25 86 Q15 115 64 194 L824 1398 L877 1398 L1073 227 Q1093 109 1121 82.5 Q1149 56 1244 49 L1244 0 L623 0 L623 49 Q711 56 747.5 77.5 Q784 99 784 167 Q784 190 773 277 Q771 295 753 426 L312 426 L192 218 Q180 197 170.5 172 Q161 147 161 124 Q161 82 186.5 70 Q212 58 293 49 L293 0 L-109 0 L-109 49 Z M536 1552 Q554 1645 611 1719.5 Q668 1794 776 1794 Q834 1794 943.5 1751.5 Q1053 1709 1081 1709 Q1125 1709 1154 1740 Q1170 1756 1188 1794 L1271 1794 Q1247 1681 1185.5 1615.5 Q1124 1550 1035 1550 Q1017 1550 987.5 1554.5 Q958 1559 915 1576 L794 1623 Q773 1631 755.5 1635.5 Q738 1640 720 1640 Q675 1640 656 1618.5 Q637 1597 619 1552 L536 1552 Z " />
<glyph glyph-name="Otilde" unicode="&#xd5;" horiz-adv-x="1479" d="M54 452 Q54 788 310 1089 Q578 1403 910 1403 Q1131 1403 1273 1270 Q1415 1137 1415 910 Q1415 579 1164 281 Q896 -38 548 -38 Q329 -38 191.5 95.5 Q54 229 54 452 Z M348 308 Q348 219 373 156 Q422 33 551 33 Q672 33 771 122.5 Q870 212 976 464 Q1043 623 1081 799 Q1119 975 1119 1084 Q1119 1187 1068 1260.5 Q1017 1334 909 1334 Q654 1334 480 881 Q348 537 348 308 Z M621 1559 Q639 1652 696 1726.5 Q753 1801 861 1801 Q919 1801 1028.5 1758.5 Q1138 1716 1166 1716 Q1210 1716 1239 1747 Q1255 1763 1273 1801 L1356 1801 Q1332 1688 1270.5 1622.5 Q1209 1557 1120 1557 Q1102 1557 1072.5 1561.5 Q1043 1566 1000 1583 L879 1630 Q858 1638 840.5 1642.5 Q823 1647 805 1647 Q760 1647 741 1625.5 Q722 1604 704 1559 L621 1559 Z " />
<glyph glyph-name="OE" unicode="&#x152;" horiz-adv-x="1933" d="M587 52 Q675 52 723.5 96.5 Q772 141 803 251 L1024 1052 Q1036 1096 1041.5 1127.5 Q1047 1159 1047 1185 Q1047 1243 1013.5 1280 Q980 1317 887 1317 Q638 1317 469 913 Q336 594 336 343 Q336 235 374 165 Q435 52 587 52 Z M943 1386 Q991 1386 1097 1378 Q1203 1370 1251 1370 L1936 1370 L1844 978 L1792 990 Q1793 1004 1794.5 1029.5 Q1796 1055 1796 1061 Q1796 1211 1671 1268 Q1594 1303 1460 1303 Q1405 1303 1385 1287 Q1365 1271 1348 1208 L1225 758 Q1406 747 1483 799 Q1560 851 1611 969 L1666 962 L1519 405 L1464 414 Q1468 442 1470 469 Q1472 496 1472 522 Q1472 625 1386 662 Q1334 683 1206 687 L1076 187 Q1073 177 1069.5 160 Q1066 143 1066 133 Q1066 91 1116 77 Q1146 68 1216 68 Q1362 68 1472 122 Q1636 202 1742 407 L1799 398 L1675 0 L1069 0 Q1043 0 1013 -1 Q983 -2 917 -5 L699 -15 Q663 -17 632.5 -18 Q602 -19 589 -19 Q392 -19 270 43 Q42 160 42 478 Q42 725 217 995 Q469 1386 943 1386 Z " />
<glyph glyph-name="oe" unicode="&#x153;" horiz-adv-x="1479" d="M648 949 Q747 949 817 900 Q857 872 893 820 Q973 884 1040 913 Q1108 945 1189 945 Q1300 945 1361 893 Q1422 841 1422 754 Q1422 663 1343 580 Q1210 438 888 376 Q882 352 878 327 Q872 289 872 254 Q872 187 908 144 Q944 101 1007 101 Q1085 101 1139 145.5 Q1193 190 1251 284 L1308 253 Q1253 146 1191 84 Q1079 -29 930 -29 Q837 -29 769 13 Q731 37 685 90 Q638 40 562.5 5 Q487 -30 387 -30 Q250 -30 151.5 55.5 Q53 141 53 299 Q53 528 225 732 Q408 949 648 949 Z M903 445 Q1105 501 1190 631 Q1241 710 1241 798 Q1241 842 1221 863 Q1201 884 1170 884 Q1087 884 1013.5 735.5 Q940 587 903 445 Z M731 728 Q731 798 707 841 Q683 884 619 884 Q480 884 375 581 Q293 343 293 199 Q293 137 318.5 86 Q344 35 410 35 Q542 35 647 347 Q731 594 731 728 Z " />
<glyph glyph-name="endash" unicode="&#x2013;" horiz-adv-x="1024" d="M1052 549 L1005 365 L-29 365 L18 549 L1052 549 Z " />
<glyph glyph-name="emdash" unicode="&#x2014;" horiz-adv-x="2048" d="M1820 549 L1784 365 L222 365 L258 549 L1820 549 Z " />
<glyph glyph-name="quotedblleft" unicode="&#x201c;" horiz-adv-x="1024" d="M593 1353 Q485 1301 419 1254 Q314 1179 299 1110 Q293 1078 354 1027 Q415 976 399 900 Q385 837 335.5 795 Q286 753 219 753 Q150 753 109.5 806.5 Q69 860 90 958 Q125 1122 338 1272 Q479 1372 578 1403 L593 1353 Z M1117 1353 Q1002 1298 920 1237.5 Q838 1177 824 1111 Q817 1078 878 1026.5 Q939 975 922 899 Q910 842 862.5 797.5 Q815 753 743 753 Q679 753 635.5 803.5 Q592 854 615 962 Q648 1116 822.5 1243 Q997 1370 1102 1403 L1117 1353 Z " />
<glyph glyph-name="quotedblright" unicode="&#x201d;" horiz-adv-x="1024" d="M50 796 Q169 857 227 898 Q329 970 343 1038 Q350 1070 289 1121.5 Q228 1173 244 1249 Q258 1312 307 1354 Q356 1396 422 1396 Q497 1396 535 1339.5 Q573 1283 554 1197 Q518 1025 299 873 Q163 779 65 746 L50 796 Z M571 796 Q676 847 738 890 Q849 967 864 1038 Q871 1070 810 1122 Q749 1174 764 1244 Q780 1316 831.5 1356 Q883 1396 944 1396 Q1022 1396 1057.5 1336.5 Q1093 1277 1075 1193 Q1041 1031 865 905 Q689 779 586 746 L571 796 Z " />
<glyph glyph-name="quoteleft" unicode="&#x2018;" horiz-adv-x="682" d="M716 1353 Q599 1294 540 1252 Q437 1179 423 1111 Q416 1078 477 1027.5 Q538 977 522 900 Q508 838 459.5 795.5 Q411 753 342 753 Q270 753 231.5 809 Q193 865 212 952 Q248 1124 468 1277 Q605 1372 701 1403 L716 1353 Z " />
<glyph glyph-name="quoteright" unicode="&#x2019;" horiz-adv-x="682" d="M111 796 Q216 847 278 890 Q391 968 405 1038 Q412 1070 350.5 1121.5 Q289 1173 304 1244 Q320 1316 371.5 1356 Q423 1396 484 1396 Q558 1396 596.5 1340 Q635 1284 615 1191 Q581 1032 404 904.5 Q227 777 126 746 L111 796 Z " />
<glyph glyph-name="divide" unicode="&#xf7;" horiz-adv-x="1124" d="M800 905 Q788 850 740.5 809 Q693 768 634 768 Q579 768 547 807 Q515 846 528 905 Q540 961 588 1000.5 Q636 1040 692 1040 Q749 1040 780.5 1000.5 Q812 961 800 905 Z M640 151 Q628 96 580 55 Q532 14 473 14 Q418 14 386.5 53 Q355 92 368 151 Q379 207 427 246.5 Q475 286 531 286 Q588 286 619.5 246.5 Q651 207 640 151 Z M1128 618 L1089 436 L36 436 L75 618 L1128 618 Z " />
<glyph glyph-name="lozenge" unicode="&#x25ca;" horiz-adv-x="1012" d="M658 1367 L907 689 L365 -8 L120 689 L658 1367 Z M408 194 L786 689 L615 1166 L241 689 L408 194 Z " />
<glyph glyph-name="ydieresis" unicode="&#xff;" horiz-adv-x="909" d="M172 -259 Q224 -259 293 -175.5 Q362 -92 362 -15 Q362 55 323 266 Q298 401 270 530 Q219 757 194.5 799 Q170 841 99 841 L99 896 Q194 905 299 924 Q404 943 393 941 L407 943 Q431 872 480.5 661.5 Q530 451 558 280 L566 232 L604 298 Q651 378 697.5 490 Q744 602 744 641 Q744 660 734 677.5 Q724 695 701 711 L685 722 Q668 734 653 754 Q630 787 630 824 Q630 868 663.5 905.5 Q697 943 748 943 Q793 943 834 910 Q875 877 875 803 Q875 681 760 436 Q674 254 560 72 Q400 -181 270.5 -302.5 Q141 -424 8 -424 Q-49 -424 -86.5 -385.5 Q-124 -347 -124 -299 Q-124 -248 -89 -218 Q-54 -188 -10 -188 Q36 -188 94 -223.5 Q152 -259 172 -259 Z M237 1208 Q249 1264 296.5 1302.5 Q344 1341 399 1341 Q454 1341 484.5 1302 Q515 1263 503 1208 Q492 1154 444.5 1115 Q397 1076 342 1076 Q286 1076 256 1115 Q226 1154 237 1208 Z M835 1341 Q890 1341 920.5 1302 Q951 1263 939 1208 Q928 1153 880.5 1114.5 Q833 1076 778 1076 Q724 1076 693 1114.5 Q662 1153 673 1208 Q685 1264 732.5 1302.5 Q780 1341 835 1341 Z " />
<glyph glyph-name="Ydieresis" unicode="&#x178;" horiz-adv-x="1251" d="M94 52 Q193 60 226 79 Q276 107 301 199 L424 640 L244 1189 Q219 1265 192.5 1289.5 Q166 1314 94 1317 L94 1370 L673 1370 L673 1320 Q598 1317 564.5 1304 Q531 1291 531 1245 Q531 1232 534.5 1212 Q538 1192 545 1170 L687 720 L952 1102 Q973 1132 986 1157 Q1006 1199 1006 1234 Q1006 1287 961 1306 Q934 1317 867 1320 L867 1370 L1294 1370 L1294 1320 Q1250 1313 1216 1291 Q1162 1257 1106 1178 L718 630 L616 251 Q609 228 601.5 192.5 Q594 157 594 142 Q594 87 635 69 Q662 57 753 52 L753 0 L94 0 L94 52 Z M458 1635 Q470 1691 517.5 1729.5 Q565 1768 620 1768 Q675 1768 705.5 1729 Q736 1690 724 1635 Q713 1581 665.5 1542 Q618 1503 563 1503 Q507 1503 477 1542 Q447 1581 458 1635 Z M1056 1768 Q1111 1768 1141.5 1729 Q1172 1690 1160 1635 Q1149 1580 1101.5 1541.5 Q1054 1503 999 1503 Q945 1503 914 1541.5 Q883 1580 894 1635 Q906 1691 953.5 1729.5 Q1001 1768 1056 1768 Z " />
<glyph glyph-name="fraction" unicode="&#x2044;" horiz-adv-x="342" d="M-349 -29 L545 1393 L663 1393 L-230 -29 L-349 -29 Z " />
<glyph glyph-name="Euro" unicode="&#x20ac;" horiz-adv-x="1524" d="M1208 715 L68 715 L139 825 L1278 825 L1208 715 Z M1067 495 L21 495 L93 605 L1139 605 L1067 495 Z M1213 149 Q1008 0 753 0 Q473 0 323.5 190 Q174 380 234 660 Q293 940 523.5 1130 Q754 1320 1034 1320 Q1314 1320 1468 1124 L1397 1013 Q1255 1210 1010 1210 Q780 1210 586 1050 Q392 890 344 660 Q295 430 421 270 Q547 110 777 110 Q1027 110 1247 311 L1213 149 Z " />
<glyph glyph-name="guilsinglleft" unicode="&#x2039;" horiz-adv-x="682" d="M85 474 L424 718 L557 824 L587 850 Q593 855 599 857.5 Q605 860 611 860 Q622 860 631.5 852.5 Q641 845 641 833 Q641 794 585 726 Q529 658 341 459 Q359 422 392.5 355.5 Q426 289 445 247 Q469 193 479.5 158 Q490 123 490 107 Q490 88 480.5 81.5 Q471 75 462 75 Q451 75 445 80 Q439 85 413 116 Q373 164 331.5 206.5 Q290 249 85 455 L85 474 Z " />
<glyph glyph-name="guilsinglright" unicode="&#x203a;" horiz-adv-x="682" d="M602 452 Q438 339 344 271 Q199 165 128 101 L99 75 Q95 71 89 68.5 Q83 66 76 66 Q64 66 55 74 Q46 82 46 94 Q46 133 124 226 Q174 285 346 466 Q334 491 287 583 Q261 634 241 678 Q218 728 207 764 Q196 800 196 819 Q196 833 203.5 841.5 Q211 850 225 850 Q235 850 241.5 845 Q248 840 274 810 Q326 749 367.5 706.5 Q409 664 602 471 L602 452 Z " />
<glyph glyph-name="fi" unicode="&#xfb01;" horiz-adv-x="1139" d="M-226 -152 Q-179 -152 -150 -180 Q-121 -208 -121 -250 Q-121 -265 -125.5 -277.5 Q-130 -290 -138 -299 L-150 -313 Q-154 -318 -156.5 -322.5 Q-159 -327 -159 -332 Q-159 -344 -149.5 -349 Q-140 -354 -125 -354 Q-55 -354 -19 -280 Q17 -206 61 -10 L248 824 L97 824 L116 914 L272 914 Q362 1169 440 1269 Q572 1439 801 1439 Q934 1439 1016.5 1388.5 Q1099 1338 1099 1245 Q1099 1193 1065.5 1160 Q1032 1127 980 1127 Q926 1127 895.5 1160.5 Q865 1194 865 1243 Q865 1260 869.5 1277 Q874 1294 888 1310 L905 1329 L911 1343 Q911 1364 881.5 1370.5 Q852 1377 830 1377 Q722 1377 644.5 1265 Q567 1153 514 919 L760 919 L884 924 Q915 925 978.5 929.5 Q1042 934 1073 936 Q956 481 917.5 328.5 Q879 176 879 161 Q879 147 885.5 136 Q892 125 908 125 Q940 125 995 188 Q1026 223 1069 286 L1114 260 Q1014 111 960 60 Q874 -22 773 -22 Q705 -22 665 17.5 Q625 57 625 120 Q625 150 631 179.5 Q637 209 658 286 L801 824 L493 824 L301 47 Q268 -92 194 -212 Q65 -420 -123 -420 Q-205 -420 -265.5 -379 Q-326 -338 -326 -258 Q-326 -212 -298 -182 Q-270 -152 -226 -152 Z " />
<glyph glyph-name="fl" unicode="&#xfb02;" horiz-adv-x="1139" d="M-214 -147 Q-182 -147 -150 -170.5 Q-118 -194 -118 -243 Q-118 -257 -121.5 -267 Q-125 -277 -131 -285 L-143 -301 Q-147 -306 -149.5 -312 Q-152 -318 -152 -324 Q-152 -335 -145 -343 Q-139 -351 -114 -351 Q-47 -351 -16 -283 Q15 -215 66 9 L256 834 L101 834 L123 914 L277 914 Q337 1166 456 1303.5 Q575 1441 802 1441 Q853 1441 995 1410 Q1003 1410 1020.5 1413 Q1038 1416 1045 1417 L1194 1436 L884 210 Q880 194 878.5 185.5 Q877 177 877 169 Q877 154 886 144.5 Q895 135 913 135 Q946 135 1002 202 Q1034 239 1066 289 L1106 265 Q1030 129 947 58.5 Q864 -12 770 -12 Q716 -12 670.5 19 Q625 50 625 111 Q625 124 628 142 Q631 160 637 184 L798 829 L497 829 L336 170 Q271 -95 163 -256.5 Q55 -418 -128 -418 Q-196 -418 -259.5 -380.5 Q-323 -343 -323 -259 Q-323 -188 -276 -161 Q-252 -147 -214 -147 Z M874 1322 Q879 1330 884 1345 Q884 1357 865.5 1369 Q847 1381 815 1381 Q684 1381 599 1200 Q550 1096 514 919 L822 919 L884 1163 Q862 1179 851.5 1200.5 Q841 1222 841 1246 Q841 1265 846 1277 Q851 1289 862 1306 L874 1322 Z " />
<glyph glyph-name="daggerdbl" unicode="&#x2021;" horiz-adv-x="1024" d="M362 855 Q344 846 325 841 Q306 836 287 836 Q246 836 215 862.5 Q184 889 184 938 Q184 988 217 1013 Q250 1038 292 1038 Q316 1038 343 1028.5 Q370 1019 410 1000 L457 978 Q471 972 504.5 966.5 Q538 961 576 962 Q582 995 584.5 1013.5 Q587 1032 587 1052 Q587 1079 586.5 1102 Q586 1125 583 1137 L571 1197 Q563 1234 561 1248.5 Q559 1263 559 1280 Q559 1328 586 1364 Q613 1400 676 1400 Q716 1400 748 1375 Q780 1350 780 1293 Q780 1261 767 1235.5 Q754 1210 722 1166 L696 1130 Q669 1092 650.5 1049.5 Q632 1007 621 960 Q653 961 683 966 Q713 971 756 988 L805 1007 Q844 1022 864 1027.5 Q884 1033 909 1033 Q949 1033 978.5 1007.5 Q1008 982 1008 938 Q1008 885 976 858.5 Q944 832 900 832 Q881 832 857 838.5 Q833 845 803 860 L756 884 Q742 891 698.5 902.5 Q655 914 613 914 Q606 882 602.5 853.5 Q599 825 599 775 Q599 711 606 673 Q617 615 649 552 Q570 495 526 403.5 Q482 312 464 196 Q557 196 633 236.5 Q709 277 746 277 Q788 277 817 247.5 Q846 218 846 177 Q846 135 818 105 Q790 75 739 75 Q705 75 622.5 114 Q540 153 455 151 Q449 123 446 104.5 Q443 86 443 63 Q443 -4 457 -78.5 Q471 -153 471 -165 Q471 -218 441.5 -253 Q412 -288 346 -288 Q311 -288 281 -259.5 Q251 -231 251 -185 Q251 -133 318 -39.5 Q385 54 410 154 Q331 148 244.5 114 Q158 80 124 80 Q84 80 53 105 Q22 130 22 175 Q22 208 41 238 Q69 282 129 282 Q158 282 254 240 Q350 198 417 199 Q424 228 426.5 261.5 Q429 295 429 352 Q429 419 416 472.5 Q403 526 381 557 Q436 605 471 659 Q535 761 566 917 Q508 912 483 906 Q458 900 417 881 L362 855 Z " />
<glyph glyph-name="middot" unicode="&#xb7;" horiz-adv-x="512" d="M253 832 Q317 832 362 787 Q407 742 407 680 Q407 614 362.5 568.5 Q318 523 253 523 Q188 523 143.5 568.5 Q99 614 99 678 Q99 742 144.5 787 Q190 832 253 832 Z " />
<glyph glyph-name="quotesinglbase" unicode="&#x201a;" horiz-adv-x="682" d="M64 -328 Q164 -272 216 -229 Q306 -154 306 -85 Q306 -52 234 -1.5 Q162 49 162 125 Q162 190 203 231 Q244 272 307 272 Q385 272 434 215 Q483 158 483 73 Q483 -98 299 -249 Q180 -347 90 -377 L64 -328 Z " />
<glyph glyph-name="quotedblbase" unicode="&#x201e;" horiz-adv-x="1024" d="M-119 -328 Q-21 -275 36 -227 Q123 -153 123 -85 Q123 -52 51 -1 Q-21 50 -21 120 Q-21 193 22 232.5 Q65 272 125 272 Q208 272 254.5 211.5 Q301 151 301 70 Q301 -93 150.5 -220 Q0 -347 -93 -377 L-119 -328 Z M402 -328 Q493 -279 546 -236 Q645 -156 645 -85 Q645 -52 573 -2 Q501 48 501 125 Q501 190 542 231 Q583 272 646 272 Q721 272 771.5 216.5 Q822 161 822 69 Q822 -94 673 -219.5 Q524 -345 429 -377 L402 -328 Z " />
<glyph glyph-name="perthousand" unicode="&#x2030;" horiz-adv-x="2048" d="M991 21 Q1096 21 1171 164 Q1246 307 1246 437 Q1246 524 1213 568.5 Q1180 613 1126 613 Q1028 613 956 440.5 Q884 268 884 152 Q884 78 918 49.5 Q952 21 991 21 Z M685 256 Q685 425 807.5 553.5 Q930 682 1073 682 Q1200 682 1249 608 Q1298 534 1298 429 Q1298 282 1209 122 Q1120 -38 940 -38 Q849 -38 767 29 Q685 96 685 256 Z M1730 21 Q1836 21 1911 164 Q1986 307 1986 437 Q1986 526 1950.5 569.5 Q1915 613 1865 613 Q1770 613 1697 443.5 Q1624 274 1624 150 Q1624 68 1662 39 Q1685 21 1730 21 Z M1813 682 Q1920 682 1979 618.5 Q2038 555 2038 436 Q2038 283 1949 122.5 Q1860 -38 1679 -38 Q1587 -38 1505.5 29 Q1424 96 1424 256 Q1424 421 1545.5 551.5 Q1667 682 1813 682 Z M321 722 Q413 722 490.5 852.5 Q568 983 568 1146 Q568 1204 559.5 1220 Q551 1236 527 1246 Q487 1261 460 1280 Q433 1299 422 1299 Q353 1299 282.5 1145.5 Q212 992 212 858 Q212 800 234.5 761 Q257 722 321 722 Z M418 1379 Q483 1379 562.5 1318.5 Q642 1258 727 1258 Q851 1258 951 1327 Q1007 1365 1073 1445 L1170 1445 L274 -62 L175 -62 L964 1272 Q912 1235 857 1216 Q802 1197 742 1197 Q705 1197 673.5 1203 Q642 1209 616 1223 Q621 1174 622 1163 Q623 1152 623 1136 Q623 963 527.5 810.5 Q432 658 267 658 Q162 658 85.5 736 Q9 814 9 953 Q9 1102 127.5 1240.5 Q246 1379 418 1379 Z " />
<glyph glyph-name="Acircumflex" unicode="&#xc2;" horiz-adv-x="1366" d="M739 507 L663 1005 L360 507 L739 507 Z M-109 49 Q-52 66 -25 86 Q15 115 64 194 L824 1398 L877 1398 L1073 227 Q1093 109 1121 82.5 Q1149 56 1244 49 L1244 0 L623 0 L623 49 Q711 56 747.5 77.5 Q784 99 784 167 Q784 190 773 277 Q771 295 753 426 L312 426 L192 218 Q180 197 170.5 172 Q161 147 161 124 Q161 82 186.5 70 Q212 58 293 49 L293 0 L-109 0 L-109 49 Z M1086 1510 L906 1704 L635 1510 L519 1510 L846 1865 L1012 1865 L1190 1510 L1086 1510 Z " />
<glyph glyph-name="Ecircumflex" unicode="&#xca;" horiz-adv-x="1366" d="M-57 52 Q16 61 51 88 Q86 115 109 199 L360 1118 Q369 1153 375 1181.5 Q381 1210 381 1230 Q381 1282 353.5 1295.5 Q326 1309 232 1317 L232 1370 L1336 1370 L1249 981 L1194 990 Q1192 1139 1146 1201 Q1068 1306 830 1306 Q749 1306 725.5 1286.5 Q702 1267 687 1213 L564 758 Q779 763 842.5 793 Q906 823 983 974 L1040 967 L888 407 L832 417 Q836 446 837.5 467.5 Q839 489 839 503 Q839 612 779 652 Q719 692 545 692 L410 192 Q405 174 402.5 157 Q400 140 400 130 Q400 102 422 84 Q444 66 514 66 Q700 66 831 118 Q1035 198 1149 407 L1199 398 L1078 0 L-57 0 L-57 52 Z M1076 1481 L896 1675 L625 1481 L509 1481 L836 1836 L1002 1836 L1180 1481 L1076 1481 Z " />
<glyph glyph-name="Aacute" unicode="&#xc1;" horiz-adv-x="1366" d="M739 507 L663 1005 L360 507 L739 507 Z M-109 49 Q-52 66 -25 86 Q15 115 64 194 L824 1398 L877 1398 L1073 227 Q1093 109 1121 82.5 Q1149 56 1244 49 L1244 0 L623 0 L623 49 Q711 56 747.5 77.5 Q784 99 784 167 Q784 190 773 277 Q771 295 753 426 L312 426 L192 218 Q180 197 170.5 172 Q161 147 161 124 Q161 82 186.5 70 Q212 58 293 49 L293 0 L-109 0 L-109 49 Z M1196 1782 Q1189 1750 1166 1730 Q1143 1710 1097 1687 L749 1510 L649 1510 L955 1778 Q1030 1844 1071 1866 Q1096 1879 1119 1879 Q1162 1879 1183.5 1852 Q1205 1825 1196 1782 Z " />
<glyph glyph-name="Edieresis" unicode="&#xcb;" horiz-adv-x="1366" d="M-57 52 Q16 61 51 88 Q86 115 109 199 L360 1118 Q369 1153 375 1181.5 Q381 1210 381 1230 Q381 1282 353.5 1295.5 Q326 1309 232 1317 L232 1370 L1336 1370 L1249 981 L1194 990 Q1192 1139 1146 1201 Q1068 1306 830 1306 Q749 1306 725.5 1286.5 Q702 1267 687 1213 L564 758 Q779 763 842.5 793 Q906 823 983 974 L1040 967 L888 407 L832 417 Q836 446 837.5 467.5 Q839 489 839 503 Q839 612 779 652 Q719 692 545 692 L410 192 Q405 174 402.5 157 Q400 140 400 130 Q400 102 422 84 Q444 66 514 66 Q700 66 831 118 Q1035 198 1149 407 L1199 398 L1078 0 L-57 0 L-57 52 Z M539 1632 Q551 1688 598.5 1726.5 Q646 1765 701 1765 Q756 1765 786.5 1726 Q817 1687 805 1632 Q794 1578 746.5 1539 Q699 1500 644 1500 Q588 1500 558 1539 Q528 1578 539 1632 Z M1137 1765 Q1192 1765 1222.5 1726 Q1253 1687 1241 1632 Q1230 1577 1182.5 1538.5 Q1135 1500 1080 1500 Q1026 1500 995 1538.5 Q964 1577 975 1632 Q987 1688 1034.5 1726.5 Q1082 1765 1137 1765 Z " />
<glyph glyph-name="Egrave" unicode="&#xc8;" horiz-adv-x="1366" d="M-57 52 Q16 61 51 88 Q86 115 109 199 L360 1118 Q369 1153 375 1181.5 Q381 1210 381 1230 Q381 1282 353.5 1295.5 Q326 1309 232 1317 L232 1370 L1336 1370 L1249 981 L1194 990 Q1192 1139 1146 1201 Q1068 1306 830 1306 Q749 1306 725.5 1286.5 Q702 1267 687 1213 L564 758 Q779 763 842.5 793 Q906 823 983 974 L1040 967 L888 407 L832 417 Q836 446 837.5 467.5 Q839 489 839 503 Q839 612 779 652 Q719 692 545 692 L410 192 Q405 174 402.5 157 Q400 140 400 130 Q400 102 422 84 Q444 66 514 66 Q700 66 831 118 Q1035 198 1149 407 L1199 398 L1078 0 L-57 0 L-57 52 Z M995 1481 L903 1481 L669 1663 Q635 1690 625.5 1713.5 Q616 1737 620 1759 Q627 1790 658 1820 Q689 1850 734 1850 Q771 1850 792.5 1831.5 Q814 1813 832 1782 L995 1481 Z " />
<glyph glyph-name="Iacute" unicode="&#xcd;" horiz-adv-x="797" d="M-48 52 Q25 61 60 88 Q95 115 118 199 L369 1118 Q380 1157 385.5 1183.5 Q391 1210 391 1230 Q391 1282 362 1295.5 Q333 1309 241 1317 L241 1370 L850 1370 L850 1317 Q775 1307 741.5 1281 Q708 1255 685 1170 L433 251 L417 180 Q415 170 413.5 159.5 Q412 149 412 140 Q412 88 440 74 Q468 60 561 52 L561 0 L-48 0 L-48 52 Z M945 1756 Q938 1724 915 1704 Q892 1684 846 1661 L498 1484 L398 1484 L704 1752 Q779 1818 820 1840 Q845 1853 868 1853 Q911 1853 932.5 1826 Q954 1799 945 1756 Z " />
<glyph glyph-name="Icircumflex" unicode="&#xce;" horiz-adv-x="797" d="M-48 52 Q25 61 60 88 Q95 115 118 199 L369 1118 Q380 1157 385.5 1183.5 Q391 1210 391 1230 Q391 1282 362 1295.5 Q333 1309 241 1317 L241 1370 L850 1370 L850 1317 Q775 1307 741.5 1281 Q708 1255 685 1170 L433 251 L417 180 Q415 170 413.5 159.5 Q412 149 412 140 Q412 88 440 74 Q468 60 561 52 L561 0 L-48 0 L-48 52 Z M801 1484 L621 1678 L350 1484 L234 1484 L561 1839 L727 1839 L905 1484 L801 1484 Z " />
<glyph glyph-name="Idieresis" unicode="&#xcf;" horiz-adv-x="797" d="M-48 52 Q25 61 60 88 Q95 115 118 199 L369 1118 Q380 1157 385.5 1183.5 Q391 1210 391 1230 Q391 1282 362 1295.5 Q333 1309 241 1317 L241 1370 L850 1370 L850 1317 Q775 1307 741.5 1281 Q708 1255 685 1170 L433 251 L417 180 Q415 170 413.5 159.5 Q412 149 412 140 Q412 88 440 74 Q468 60 561 52 L561 0 L-48 0 L-48 52 Z M264 1635 Q276 1691 323.5 1729.5 Q371 1768 426 1768 Q481 1768 511.5 1729 Q542 1690 530 1635 Q519 1581 471.5 1542 Q424 1503 369 1503 Q313 1503 283 1542 Q253 1581 264 1635 Z M862 1768 Q917 1768 947.5 1729 Q978 1690 966 1635 Q955 1580 907.5 1541.5 Q860 1503 805 1503 Q751 1503 720 1541.5 Q689 1580 700 1635 Q712 1691 759.5 1729.5 Q807 1768 862 1768 Z " />
<glyph glyph-name="Igrave" unicode="&#xcc;" horiz-adv-x="797" d="M-48 52 Q25 61 60 88 Q95 115 118 199 L369 1118 Q380 1157 385.5 1183.5 Q391 1210 391 1230 Q391 1282 362 1295.5 Q333 1309 241 1317 L241 1370 L850 1370 L850 1317 Q775 1307 741.5 1281 Q708 1255 685 1170 L433 251 L417 180 Q415 170 413.5 159.5 Q412 149 412 140 Q412 88 440 74 Q468 60 561 52 L561 0 L-48 0 L-48 52 Z M720 1484 L628 1484 L394 1666 Q360 1693 350.5 1716.5 Q341 1740 345 1762 Q352 1793 383 1823 Q414 1853 459 1853 Q496 1853 517.5 1834.5 Q539 1816 557 1785 L720 1484 Z " />
<glyph glyph-name="Oacute" unicode="&#xd3;" horiz-adv-x="1479" d="M54 452 Q54 788 310 1089 Q578 1403 910 1403 Q1131 1403 1273 1270 Q1415 1137 1415 910 Q1415 579 1164 281 Q896 -38 548 -38 Q329 -38 191.5 95.5 Q54 229 54 452 Z M348 308 Q348 219 373 156 Q422 33 551 33 Q672 33 771 122.5 Q870 212 976 464 Q1043 623 1081 799 Q1119 975 1119 1084 Q1119 1187 1068 1260.5 Q1017 1334 909 1334 Q654 1334 480 881 Q348 537 348 308 Z M1315 1789 Q1308 1757 1285 1737 Q1262 1717 1216 1694 L868 1517 L768 1517 L1074 1785 Q1149 1851 1190 1873 Q1215 1886 1238 1886 Q1281 1886 1302.5 1859 Q1324 1832 1315 1789 Z " />
<glyph glyph-name="Ocircumflex" unicode="&#xd4;" horiz-adv-x="1479" d="M54 452 Q54 788 310 1089 Q578 1403 910 1403 Q1131 1403 1273 1270 Q1415 1137 1415 910 Q1415 579 1164 281 Q896 -38 548 -38 Q329 -38 191.5 95.5 Q54 229 54 452 Z M348 308 Q348 219 373 156 Q422 33 551 33 Q672 33 771 122.5 Q870 212 976 464 Q1043 623 1081 799 Q1119 975 1119 1084 Q1119 1187 1068 1260.5 Q1017 1334 909 1334 Q654 1334 480 881 Q348 537 348 308 Z M1171 1517 L991 1711 L720 1517 L604 1517 L931 1872 L1097 1872 L1275 1517 L1171 1517 Z " />
<glyph glyph-name="apple" unicode="&#xf8ff;" horiz-adv-x="1618" d="M987 1204 Q1032 1204 1141.5 1239 Q1251 1274 1326 1274 Q1449 1274 1531 1208 Q1577 1170 1616 1105 Q1521 1037 1473 984 Q1386 888 1361 772 Q1334 645 1383.5 543 Q1433 441 1518 414 Q1454 291 1337 157 Q1162 -44 1031 -44 Q979 -44 894.5 -11 Q810 22 747 22 Q684 22 593 -12.5 Q502 -47 450 -47 Q293 -47 199 219 Q105 482 158 735 Q207 970 354 1118 Q501 1266 677 1266 Q752 1266 852 1235 Q952 1204 987 1204 Z M1388 1617 Q1374 1553 1328 1477 Q1282 1401 1203 1336 Q1135 1281 1076 1262 Q1039 1251 967 1245 Q1001 1397 1102 1508 Q1203 1619 1391 1660 Q1392 1647 1391 1637 Q1390 1627 1388 1617 Z " />
<glyph glyph-name="Ograve" unicode="&#xd2;" horiz-adv-x="1479" d="M54 452 Q54 788 310 1089 Q578 1403 910 1403 Q1131 1403 1273 1270 Q1415 1137 1415 910 Q1415 579 1164 281 Q896 -38 548 -38 Q329 -38 191.5 95.5 Q54 229 54 452 Z M348 308 Q348 219 373 156 Q422 33 551 33 Q672 33 771 122.5 Q870 212 976 464 Q1043 623 1081 799 Q1119 975 1119 1084 Q1119 1187 1068 1260.5 Q1017 1334 909 1334 Q654 1334 480 881 Q348 537 348 308 Z M1090 1517 L998 1517 L764 1699 Q730 1726 720.5 1749.5 Q711 1773 715 1795 Q722 1826 753 1856 Q784 1886 829 1886 Q866 1886 887.5 1867.5 Q909 1849 927 1818 L1090 1517 Z " />
<glyph glyph-name="Uacute" unicode="&#xda;" horiz-adv-x="1479" d="M329 1118 Q338 1152 344 1182 Q350 1212 350 1234 Q350 1283 322 1296 Q294 1309 201 1317 L201 1370 L836 1370 L836 1317 Q743 1308 706.5 1285 Q670 1262 644 1170 L476 557 Q453 475 441 423 Q420 330 420 286 Q420 185 487.5 131.5 Q555 78 671 78 Q865 78 975 247 Q1040 345 1104 578 L1223 1005 Q1246 1098 1244 1086 Q1261 1162 1261 1195 Q1261 1267 1207 1295 Q1175 1311 1097 1317 L1097 1370 L1524 1370 L1524 1317 Q1446 1308 1409.5 1257.5 Q1373 1207 1315 1005 L1180 538 Q1099 259 1015 149 Q871 -38 592 -38 Q400 -38 268 54.5 Q136 147 136 312 Q136 373 152 451 Q162 498 194 616 L329 1118 Z M1301 1756 Q1294 1724 1271 1704 Q1248 1684 1202 1661 L854 1484 L754 1484 L1060 1752 Q1135 1818 1176 1840 Q1201 1853 1224 1853 Q1267 1853 1288.5 1826 Q1310 1799 1301 1756 Z " />
<glyph glyph-name="Ucircumflex" unicode="&#xdb;" horiz-adv-x="1479" d="M329 1118 Q338 1152 344 1182 Q350 1212 350 1234 Q350 1283 322 1296 Q294 1309 201 1317 L201 1370 L836 1370 L836 1317 Q743 1308 706.5 1285 Q670 1262 644 1170 L476 557 Q453 475 441 423 Q420 330 420 286 Q420 185 487.5 131.5 Q555 78 671 78 Q865 78 975 247 Q1040 345 1104 578 L1223 1005 Q1246 1098 1244 1086 Q1261 1162 1261 1195 Q1261 1267 1207 1295 Q1175 1311 1097 1317 L1097 1370 L1524 1370 L1524 1317 Q1446 1308 1409.5 1257.5 Q1373 1207 1315 1005 L1180 538 Q1099 259 1015 149 Q871 -38 592 -38 Q400 -38 268 54.5 Q136 147 136 312 Q136 373 152 451 Q162 498 194 616 L329 1118 Z M1157 1484 L977 1678 L706 1484 L590 1484 L917 1839 L1083 1839 L1261 1484 L1157 1484 Z " />
<glyph glyph-name="Ugrave" unicode="&#xd9;" horiz-adv-x="1479" d="M329 1118 Q338 1152 344 1182 Q350 1212 350 1234 Q350 1283 322 1296 Q294 1309 201 1317 L201 1370 L836 1370 L836 1317 Q743 1308 706.5 1285 Q670 1262 644 1170 L476 557 Q453 475 441 423 Q420 330 420 286 Q420 185 487.5 131.5 Q555 78 671 78 Q865 78 975 247 Q1040 345 1104 578 L1223 1005 Q1246 1098 1244 1086 Q1261 1162 1261 1195 Q1261 1267 1207 1295 Q1175 1311 1097 1317 L1097 1370 L1524 1370 L1524 1317 Q1446 1308 1409.5 1257.5 Q1373 1207 1315 1005 L1180 538 Q1099 259 1015 149 Q871 -38 592 -38 Q400 -38 268 54.5 Q136 147 136 312 Q136 373 152 451 Q162 498 194 616 L329 1118 Z M1076 1484 L984 1484 L750 1666 Q716 1693 706.5 1716.5 Q697 1740 701 1762 Q708 1793 739 1823 Q770 1853 815 1853 Q852 1853 873.5 1834.5 Q895 1816 913 1785 L1076 1484 Z " />
<glyph glyph-name="dotlessi" unicode="&#x131;" horiz-adv-x="569" d="M54 118 Q54 143 66 197 Q73 228 87 279 L210 739 Q212 747 213.5 755 Q215 763 215 770 Q215 811 189 821 Q163 831 94 834 L94 888 Q152 892 262.5 904.5 Q373 917 419 926 L507 943 L348 360 Q328 285 321 256 Q303 182 303 160 Q303 138 313 131.5 Q323 125 335 125 Q366 125 412 178 Q458 231 493 289 L538 260 Q438 113 385 62 Q298 -22 199 -22 Q143 -22 98.5 12.5 Q54 47 54 118 Z " />
<glyph glyph-name="circumflex" unicode="&#x2c6;" horiz-adv-x="682" d="M654 1057 L474 1251 L203 1057 L87 1057 L414 1412 L580 1412 L758 1057 L654 1057 Z " />
<glyph glyph-name="tilde" unicode="&#x2dc;" horiz-adv-x="682" d="M104 1099 Q122 1192 179 1266.5 Q236 1341 344 1341 Q402 1341 511.5 1298.5 Q621 1256 649 1256 Q693 1256 722 1287 Q738 1303 756 1341 L839 1341 Q815 1228 753.5 1162.5 Q692 1097 603 1097 Q585 1097 555.5 1101.5 Q526 1106 483 1123 L362 1170 Q341 1178 323.5 1182.5 Q306 1187 288 1187 Q243 1187 224 1165.5 Q205 1144 187 1099 L104 1099 Z " />
<glyph glyph-name="overscore" unicode="&#xaf;" horiz-adv-x="682" d="M111 1133 L144 1275 L810 1275 L777 1133 L111 1133 Z " />
<glyph glyph-name="breve" unicode="&#x2d8;" horiz-adv-x="682" d="M239 1389 Q244 1307 290.5 1255.5 Q337 1204 450 1204 Q537 1204 606 1243 Q675 1282 718 1389 L798 1389 Q786 1278 700.5 1167 Q615 1056 435 1056 Q252 1056 189 1175 Q153 1242 151 1389 L239 1389 Z " />
<glyph glyph-name="dotaccent" unicode="&#x2d9;" horiz-adv-x="682" d="M535 1071 Q478 1071 438 1111 Q398 1151 398 1208 Q398 1265 438 1305.5 Q478 1346 535 1346 Q592 1346 632.5 1305.5 Q673 1265 673 1208 Q673 1152 633 1111.5 Q593 1071 535 1071 Z " />
<glyph glyph-name="ring" unicode="&#x2da;" horiz-adv-x="682" d="M388 1275 Q388 1225 423 1190.5 Q458 1156 507 1156 Q556 1156 590.5 1191 Q625 1226 625 1275 Q625 1324 590.5 1358.5 Q556 1393 507 1393 Q458 1393 423 1358.5 Q388 1324 388 1275 Z M289 1275 Q289 1365 352.5 1429 Q416 1493 507 1493 Q597 1493 661 1429 Q725 1365 725 1275 Q725 1184 661 1120.5 Q597 1057 507 1057 Q416 1057 352.5 1120.5 Q289 1184 289 1275 Z " />
<glyph glyph-name="cedilla" unicode="&#xb8;" horiz-adv-x="682" d="M-114 -330 Q-63 -353 -32.5 -359 Q-2 -365 27 -365 Q93 -365 116.5 -339.5 Q140 -314 140 -280 Q140 -253 116.5 -230 Q93 -207 38 -207 Q19 -207 6.5 -209 Q-6 -211 -22 -216 L-48 -190 L90 9 L180 9 L87 -128 Q108 -126 118.5 -125 Q129 -124 141 -124 Q216 -124 270.5 -162 Q325 -200 325 -274 Q325 -355 250 -401.5 Q175 -448 68 -448 Q-3 -448 -71 -430 Q-111 -419 -159 -399 L-114 -330 Z " />
<glyph glyph-name="hungarumlaut" unicode="&#x2dd;" horiz-adv-x="682" d="M976 1336 Q976 1297 956 1275.5 Q936 1254 893 1227 L602 1047 L488 1047 L768 1370 Q792 1398 817 1412 Q842 1426 875 1426 Q922 1426 949 1400.5 Q976 1375 976 1336 Z M597 1336 Q597 1309 580 1285.5 Q563 1262 514 1227 L237 1031 L123 1031 L388 1370 Q410 1398 437 1412 Q464 1426 497 1426 Q550 1426 573.5 1397 Q597 1368 597 1336 Z " />
<glyph glyph-name="ogonek" unicode="&#x2db;" horiz-adv-x="682" d="M526 40 L526 18 L500 4 Q407 -46 351 -95 Q265 -169 265 -236 Q265 -270 289.5 -299 Q314 -328 364 -328 Q393 -328 443 -307 Q493 -286 557 -245 L597 -311 Q491 -388 387 -419 Q329 -437 285 -437 Q192 -437 137 -383.5 Q82 -330 82 -264 Q82 -159 208 -82.5 Q334 -6 497 33 L526 40 Z " />
<glyph glyph-name="caron" unicode="&#x2c7;" horiz-adv-x="682" d="M270 1412 L457 1213 L732 1412 L848 1412 L516 1057 L348 1057 L168 1412 L270 1412 Z " />
<glyph glyph-name="Lslash" unicode="&#x141;" horiz-adv-x="1251" d="M-48 52 Q25 61 60.5 88 Q96 115 118 199 L229 609 L-48 476 L-15 609 L263 737 L369 1118 Q379 1153 385 1181 Q391 1209 391 1230 Q391 1282 362 1295.5 Q333 1309 241 1317 L241 1370 L891 1370 L891 1317 Q784 1306 747 1283.5 Q710 1261 685 1170 L611 898 L900 1028 L862 898 L573 768 L419 192 Q415 177 412.5 162.5 Q410 148 410 129 Q410 95 440 80.5 Q470 66 524 66 Q735 66 888.5 138 Q1042 210 1159 407 L1208 398 L1088 0 L-48 0 L-48 52 Z " />
<glyph glyph-name="lslash" unicode="&#x142;" horiz-adv-x="707" d="M54 118 Q54 145 67 202 Q75 236 87 279 L184 630 L-43 490 L-10 609 L215 744 Q293 1021 313 1098 Q346 1224 346 1253 Q346 1297 316 1306.5 Q286 1316 218 1315 L218 1370 Q370 1385 423.5 1392.5 Q477 1400 644 1431 L502 919 L708 1045 L673 929 L471 805 L348 360 Q326 279 321 257 Q303 184 303 160 Q303 139 314 132 Q325 125 334 125 Q364 125 410.5 177 Q457 229 493 289 L538 260 Q448 122 392 68 Q299 -22 194 -22 Q137 -22 95.5 16.5 Q54 55 54 118 Z " />
<glyph glyph-name="Scaron" unicode="&#x160;" horiz-adv-x="1139" d="M11 -38 L85 421 L144 417 Q150 319 161 274 Q180 199 230 141 Q276 88 334.5 60.5 Q393 33 462 33 Q585 33 652.5 111.5 Q720 190 720 294 Q720 423 469 620 Q218 826 218 1001 Q218 1166 328.5 1282 Q439 1398 637 1398 Q692 1398 750 1387 Q788 1380 817 1370 L869 1353 Q886 1348 904 1344.5 Q922 1341 936 1341 Q972 1341 991 1356 Q1010 1371 1024 1393 L1085 1393 L1002 983 L948 990 L941 1057 Q928 1152 882 1220 Q810 1327 672 1327 Q554 1327 500 1241 Q464 1184 464 1118 Q464 1048 501 994 Q522 964 564 929 L741 784 Q835 707 901 608.5 Q967 510 967 384 Q967 222 839.5 91.5 Q712 -39 489 -39 Q433 -39 376.5 -28.5 Q320 -18 265 2 L213 21 Q187 31 177 33.5 Q167 36 154 36 Q120 36 105.5 19.5 Q91 3 73 -38 L11 -38 Z M554 1864 L741 1665 L1016 1864 L1132 1864 L800 1509 L632 1509 L452 1864 L554 1864 Z " />
<glyph glyph-name="scaron" unicode="&#x161;" horiz-adv-x="797" d="M78 312 L132 308 Q147 157 209 96 Q271 35 331 35 Q383 35 414 68 Q445 101 445 146 Q445 187 417.5 236 Q390 285 353 331 L277 426 Q227 480 192 552 Q157 624 157 696 Q157 798 234 872 Q311 946 443 946 Q497 946 557 923 Q617 900 636 900 Q660 900 672 911 Q684 922 694 943 L753 943 L706 630 L651 635 Q632 765 580.5 822 Q529 879 472 879 Q415 879 388.5 845 Q362 811 362 770 Q362 734 381.5 699.5 Q401 665 457 594 L557 466 Q590 424 616 364.5 Q642 305 642 246 Q642 122 553 46.5 Q464 -29 336 -29 Q282 -29 220.5 -7.5 Q159 14 146 14 Q121 14 108 1 Q95 -12 87 -29 L33 -29 L78 312 Z M310 1412 L497 1213 L772 1412 L888 1412 L556 1057 L388 1057 L208 1412 L310 1412 Z " />
<glyph glyph-name="Zcaron" unicode="&#x17d;" horiz-adv-x="1251" d="M-5 59 L886 1298 L727 1298 Q533 1293 399 1199 Q312 1138 210 997 L154 1005 L270 1370 L1227 1370 L1227 1310 L338 71 L483 71 Q655 71 770 113 Q980 190 1099 407 L1154 398 L1033 0 L-5 0 L-5 59 Z M617 1831 L804 1632 L1079 1831 L1195 1831 L863 1476 L695 1476 L515 1831 L617 1831 Z " />
<glyph glyph-name="zcaron" unicode="&#x17e;" horiz-adv-x="797" d="M175 919 L815 919 L815 898 L239 213 Q374 156 442 26 Q510 -104 558 -104 Q575 -104 587 -95.5 Q599 -87 599 -74 Q599 -64 579 -32 Q559 0 559 30 Q559 76 593 103 Q627 130 666 130 Q704 130 738 103 Q772 76 772 19 Q772 -57 707.5 -109.5 Q643 -162 551 -162 Q438 -162 307 -76.5 Q176 9 124 9 Q90 9 51 -25.5 Q12 -60 -4 -60 Q-15 -60 -26 -53 Q-37 -46 -37 -30 Q-37 -24 -35.5 -17 Q-34 -10 -29 -5 L571 722 L274 722 Q219 722 185 680 Q166 655 144 597 L87 604 L175 919 Z M383 1412 L570 1213 L845 1412 L961 1412 L629 1057 L461 1057 L281 1412 L383 1412 Z " />
<glyph glyph-name="brokenbar" unicode="&#xa6;" horiz-adv-x="451" d="M135 0 L135 557 L317 557 L317 0 L135 0 Z M135 872 L135 1431 L317 1431 L317 872 L135 872 Z " />
<glyph glyph-name="Eth" unicode="&#xd0;" horiz-adv-x="1479" d="M-67 52 Q-1 60 28 79 Q76 111 99 199 L229 689 L9 689 L35 782 L256 782 L350 1118 Q360 1155 366 1182 Q372 1209 372 1230 Q372 1282 343 1295.5 Q314 1309 222 1317 L222 1370 L817 1370 Q1119 1370 1276.5 1215.5 Q1434 1061 1434 801 Q1434 488 1201 257 Q942 0 521 0 L-67 0 L-67 52 Z M1133 926 Q1133 1078 1082 1168 Q1002 1306 805 1306 Q738 1306 715 1284.5 Q692 1263 682 1227 L561 782 L903 782 L877 689 L538 689 L400 192 Q396 178 394.5 166 Q393 154 393 144 Q393 105 418 86.5 Q443 68 506 68 Q871 68 1034 444 Q1133 672 1133 926 Z " />
<glyph glyph-name="eth" unicode="&#xf0;" horiz-adv-x="1024" d="M726 724 Q726 777 709 814 Q683 870 622 870 Q499 870 393 577 Q305 332 305 185 Q305 111 333.5 72.5 Q362 34 409 34 Q534 34 639 330 Q726 576 726 724 Z M595 933 Q636 933 662.5 926.5 Q689 920 728 899 Q728 944 711 1014 Q701 1067 673 1118 L512 1057 L462 1130 L637 1199 Q589 1273 546 1331 Q522 1363 474 1422 L547 1462 L590 1422 Q643 1363 669.5 1335 Q696 1307 751 1237 L933 1310 L981 1234 L798 1168 Q868 1068 905 984 Q974 823 974 644 Q974 389 803 182 Q624 -33 385 -33 Q246 -33 152.5 57.5 Q59 148 59 296 Q59 505 229 728 Q405 933 595 933 Z " />
<glyph glyph-name="Yacute" unicode="&#xdd;" horiz-adv-x="1251" d="M94 52 Q193 60 226 79 Q276 107 301 199 L424 640 L244 1189 Q219 1265 192.5 1289.5 Q166 1314 94 1317 L94 1370 L673 1370 L673 1320 Q598 1317 564.5 1304 Q531 1291 531 1245 Q531 1232 534.5 1212 Q538 1192 545 1170 L687 720 L952 1102 Q973 1132 986 1157 Q1006 1199 1006 1234 Q1006 1287 961 1306 Q934 1317 867 1320 L867 1370 L1294 1370 L1294 1320 Q1250 1313 1216 1291 Q1162 1257 1106 1178 L718 630 L616 251 Q609 228 601.5 192.5 Q594 157 594 142 Q594 87 635 69 Q662 57 753 52 L753 0 L94 0 L94 52 Z M1139 1756 Q1132 1724 1109 1704 Q1086 1684 1040 1661 L692 1484 L592 1484 L898 1752 Q973 1818 1014 1840 Q1039 1853 1062 1853 Q1105 1853 1126.5 1826 Q1148 1799 1139 1756 Z " />
<glyph glyph-name="yacute" unicode="&#xfd;" horiz-adv-x="909" d="M172 -259 Q224 -259 293 -175.5 Q362 -92 362 -15 Q362 55 323 266 Q298 401 270 530 Q219 757 194.5 799 Q170 841 99 841 L99 896 Q194 905 299 924 Q404 943 393 941 L407 943 Q431 872 480.5 661.5 Q530 451 558 280 L566 232 L604 298 Q651 378 697.5 490 Q744 602 744 641 Q744 660 734 677.5 Q724 695 701 711 L685 722 Q668 734 653 754 Q630 787 630 824 Q630 868 663.5 905.5 Q697 943 748 943 Q793 943 834 910 Q875 877 875 803 Q875 681 760 436 Q674 254 560 72 Q400 -181 270.5 -302.5 Q141 -424 8 -424 Q-49 -424 -86.5 -385.5 Q-124 -347 -124 -299 Q-124 -248 -89 -218 Q-54 -188 -10 -188 Q36 -188 94 -223.5 Q152 -259 172 -259 Z M968 1329 Q961 1297 938 1277 Q915 1257 869 1234 L521 1057 L421 1057 L727 1325 Q802 1391 843 1413 Q868 1426 891 1426 Q934 1426 955.5 1399 Q977 1372 968 1329 Z " />
<glyph glyph-name="Thorn" unicode="&#xde;" horiz-adv-x="1251" d="M862 777 Q862 852 841 895 Q804 971 702 971 Q653 971 630.5 963.5 Q608 956 595 904 L457 407 L552 407 Q717 407 789.5 519 Q862 631 862 777 Z M820 1360 L820 1308 Q733 1295 703 1254.5 Q673 1214 648 1109 L630 1040 L813 1040 Q993 1040 1077 944 Q1161 848 1161 726 Q1161 609 1102 529 Q1043 449 958 404 Q880 363 777 349 Q716 341 618 341 L440 341 Q425 291 408 222 Q391 153 391 130 Q391 84 444 64 Q475 52 535 47 L535 0 L-57 0 L-57 47 Q32 61 57.5 100.5 Q83 140 144 360 L360 1147 Q364 1160 369 1184.5 Q374 1209 374 1224 Q374 1275 335 1292 Q309 1303 227 1308 L227 1360 L820 1360 Z " />
<glyph glyph-name="thorn" unicode="&#xfe;" horiz-adv-x="1024" d="M399 48 Q524 48 638 315 Q734 541 734 674 Q734 740 699 769 Q677 787 646 787 Q504 787 395 462 Q315 220 315 127 Q315 85 337.5 66.5 Q360 48 399 48 Z M227 1308 L227 1360 L336 1376 Q392 1384 482 1399.5 Q572 1415 647 1429 L592 1208 L483 782 Q585 874 645.5 905 Q706 936 771 936 Q896 936 944 857.5 Q992 779 992 676 Q992 429 814 201 Q633 -30 429 -30 Q392 -30 357.5 -18.5 Q323 -7 289 14 Q250 -133 232.5 -207 Q215 -281 215 -305 Q215 -343 253 -358 Q277 -367 346 -373 L346 -422 L-162 -422 L-162 -370 Q-78 -362 -51 -311.5 Q-24 -261 53 35 L317 1072 Q353 1213 353 1246 Q353 1283 328 1294.5 Q303 1306 258 1308 L227 1308 Z " />
<glyph glyph-name="minus" unicode="&#x2212;" horiz-adv-x="1241" d="M1109 618 L1109 436 L56 436 L56 618 L1109 618 Z " />
<glyph glyph-name="multiply" unicode="&#xd7;" horiz-adv-x="1167" d="M315 1035 L610 658 L1067 1035 L1170 905 L715 528 L1009 151 L852 21 L554 395 L100 21 L-5 151 L452 528 L155 905 L315 1035 Z " />
<glyph glyph-name="onesuperior" unicode="&#xb9;" horiz-adv-x="614" d="M123 571 Q184 571 225 589.5 Q266 608 282 663 L452 1234 Q455 1245 456 1253.5 Q457 1262 457 1267 Q457 1289 442 1298.5 Q427 1308 394 1308 Q380 1308 355 1304.5 Q330 1301 312 1301 L315 1329 Q348 1334 404 1343 Q460 1352 504 1360 Q538 1366 587 1376 Q636 1386 675 1393 L469 694 Q461 666 457.5 650.5 Q454 635 454 619 Q454 585 504 574 Q533 568 583 571 L583 542 L123 542 L123 571 Z " />
<glyph glyph-name="twosuperior" unicode="&#xb2;" horiz-adv-x="614" d="M71 571 Q315 796 396 889 Q523 1036 523 1136 Q523 1215 486.5 1248.5 Q450 1282 402 1282 Q336 1282 288 1246 Q260 1225 222 1175 L192 1189 Q224 1255 274 1304 Q363 1393 480 1393 Q592 1393 646.5 1331 Q701 1269 701 1185 Q701 1107 644 1027 Q612 982 546 921 Q483 863 370.5 776.5 Q258 690 248 680 L445 680 Q521 680 559 698 Q597 716 630 779 L666 779 L561 542 L71 542 L71 571 Z " />
<glyph glyph-name="threesuperior" unicode="&#xb3;" horiz-adv-x="614" d="M94 618 Q94 656 117 675 Q140 694 171 694 Q207 694 225 679.5 Q243 665 279 616 L293 597 Q307 583 318.5 579 Q330 575 350 575 Q402 575 448.5 628.5 Q495 682 495 790 Q495 874 441 924 Q387 974 289 974 L293 1002 Q386 1021 442 1049 Q545 1103 545 1194 Q545 1237 515 1271.5 Q485 1306 433 1306 Q380 1306 339 1277 Q313 1259 274 1213 L246 1227 Q274 1278 328 1328 Q409 1393 516 1393 Q600 1393 657.5 1348.5 Q715 1304 715 1225 Q715 1154 658 1100 Q622 1066 573 1045 L557 1038 Q608 1003 634 961 Q660 919 660 861 Q660 706 539.5 614.5 Q419 523 270 523 Q177 523 135.5 554 Q94 585 94 618 Z " />
<glyph glyph-name="onehalf" unicode="&#xbd;" horiz-adv-x="1536" d="M1277 0 L786 0 L786 28 Q1013 219 1127 355 Q1241 491 1241 591 Q1241 656 1204.5 691.5 Q1168 727 1114 727 Q1046 727 996 688 Q969 666 938 621 L907 635 Q951 719 1025.5 779 Q1100 839 1195 839 Q1295 839 1356 773 Q1417 707 1417 630 Q1417 531 1318 427 Q1219 323 964 135 L1161 135 Q1231 135 1271.5 152 Q1312 169 1346 232 L1381 232 L1277 0 Z M248 -29 L1142 1393 L1261 1393 L367 -29 L248 -29 Z M4 557 L4 583 Q81 589 113.5 604 Q146 619 163 675 L334 1237 Q336 1243 337 1252 Q338 1261 338 1270 Q338 1293 320.5 1300.5 Q303 1308 277 1308 Q254 1308 233.5 1306 Q213 1304 194 1301 L196 1329 L386 1360 Q420 1366 470 1376 Q520 1386 557 1393 L350 706 Q345 687 340 666.5 Q335 646 335 633 Q335 600 364 592 Q393 584 464 583 L464 557 L4 557 Z " />
<glyph glyph-name="onequarter" unicode="&#xbc;" horiz-adv-x="1536" d="M1268 644 L893 303 L1163 303 L1268 644 Z M1244 0 L1073 0 L1128 182 L801 182 L841 310 L1408 836 L1493 836 L1334 303 L1426 303 L1391 182 L1298 182 L1244 0 Z M286 -29 L1180 1393 L1298 1393 L405 -29 L286 -29 Z M4 557 L4 583 Q81 589 113.5 604 Q146 619 163 675 L334 1237 Q336 1243 337 1252 Q338 1261 338 1270 Q338 1293 320.5 1300.5 Q303 1308 277 1308 Q254 1308 233.5 1306 Q213 1304 194 1301 L196 1329 L386 1360 Q420 1366 470 1376 Q520 1386 557 1393 L350 706 Q345 687 340 666.5 Q335 646 335 633 Q335 600 364 592 Q393 584 464 583 L464 557 L4 557 Z " />
<glyph glyph-name="threequarters" unicode="&#xbe;" horiz-adv-x="1536" d="M324 -29 L1218 1393 L1336 1393 L443 -29 L324 -29 Z M90 632 Q90 673 112 690.5 Q134 708 162 708 Q216 708 259 648.5 Q302 589 346 589 Q421 589 459 661 Q493 727 493 794 Q493 877 439 929 Q385 981 284 981 L289 1009 Q395 1033 446 1061 Q540 1111 540 1199 Q540 1243 509.5 1275.5 Q479 1308 423 1308 Q375 1308 332 1277 Q307 1259 270 1216 L241 1232 Q292 1306 360 1349.5 Q428 1393 510 1393 Q602 1393 656.5 1344.5 Q711 1296 711 1228 Q711 1160 658 1110 Q626 1080 552 1042 Q599 1013 628 971.5 Q657 930 657 857 Q657 730 539 634 Q421 538 268 538 Q203 538 146.5 563 Q90 588 90 632 Z M1268 644 L893 303 L1163 303 L1268 644 Z M1244 0 L1073 0 L1128 182 L801 182 L841 310 L1408 836 L1493 836 L1334 303 L1426 303 L1391 182 L1298 182 L1244 0 Z " />
<glyph glyph-name="franc" unicode="&#x20a3;" horiz-adv-x="1024" d="M1057 960 L1007 960 Q1010 987 1011.5 1006 Q1013 1025 1013 1048 Q1013 1170 947 1236 Q881 1302 743 1302 Q673 1302 642 1283.5 Q611 1265 594 1206 L462 734 Q622 734 704 790.5 Q786 847 843 990 L896 990 L727 410 L677 410 Q683 437 685 454 Q687 471 687 505 Q687 609 609 644 Q560 666 440 666 L374 431 L585 431 L559 336 L348 336 L305 194 Q301 182 299.5 168 Q298 154 298 139 Q298 84 338 67.5 Q378 51 471 49 L457 0 L-176 0 L-164 49 Q-83 56 -46 75 Q15 108 40 194 L80 336 L-81 336 L-55 431 L106 431 L317 1173 Q322 1188 324.5 1202 Q327 1216 327 1230 Q327 1280 289 1300 Q265 1312 199 1320 L213 1370 L1173 1370 L1057 960 Z " />
<glyph glyph-name="Gbreve" unicode="&#x11e;" horiz-adv-x="1479" d="M905 1403 Q1022 1403 1127 1372 Q1232 1341 1248 1341 Q1280 1341 1297.5 1357.5 Q1315 1374 1332 1403 L1393 1403 L1289 950 L1230 957 Q1232 1083 1196 1168 Q1129 1327 942 1327 Q690 1327 514 1009 Q362 731 362 438 Q362 188 502 90 Q579 36 688 36 Q786 36 840.5 65.5 Q895 95 916 158 Q916 148 962.5 317.5 Q1009 487 1009 535 Q1009 586 981.5 599.5 Q954 613 858 623 L858 675 L1445 675 L1445 623 Q1360 614 1337 591 Q1314 568 1284 455 L1185 82 L1128 56 Q1059 25 929 -7.5 Q799 -40 660 -40 Q403 -40 230 100 Q42 252 42 512 Q42 847 268 1111 Q519 1403 905 1403 Z M700 1820 Q705 1738 751.5 1686.5 Q798 1635 911 1635 Q998 1635 1067 1674 Q1136 1713 1179 1820 L1259 1820 Q1247 1709 1161.5 1598 Q1076 1487 896 1487 Q713 1487 650 1606 Q614 1673 612 1820 L700 1820 Z " />
<glyph glyph-name="gbreve" unicode="&#x11f;" horiz-adv-x="1024" d="M452 377 Q539 377 601.5 507.5 Q664 638 664 757 Q664 811 642 846 Q620 881 570 881 Q475 881 417.5 741 Q360 601 360 491 Q360 435 386 406 Q412 377 452 377 Z M597 -206 Q597 -157 567.5 -129 Q538 -101 487 -80 Q452 -66 374.5 -40.5 Q297 -15 282 -15 Q282 0 202 -58 Q122 -116 122 -193 Q122 -241 159 -281 Q220 -349 361 -349 Q472 -349 534.5 -309 Q597 -269 597 -206 Z M210 14 Q160 32 136 53 Q90 91 90 154 Q90 205 132 246.5 Q174 288 286 348 Q203 378 163 439 Q123 500 123 586 Q123 715 244 830 Q365 945 563 945 Q666 945 743.5 912 Q821 879 803 879 L1031 879 L1031 763 L893 763 Q899 737 902 718 Q905 699 905 675 Q905 527 788.5 421.5 Q672 316 461 316 Q415 316 351 327 Q335 327 317.5 302 Q300 277 300 259 Q300 226 349 200 Q372 187 405 177 L514 146 Q657 105 717 66 Q820 0 820 -116 Q820 -246 683 -332 Q546 -418 343 -418 Q210 -418 112 -386 Q-57 -332 -57 -196 Q-57 -108 33 -53 Q83 -23 210 14 Z M466 1389 Q471 1307 517.5 1255.5 Q564 1204 677 1204 Q764 1204 833 1243 Q902 1282 945 1389 L1025 1389 Q1013 1278 927.5 1167 Q842 1056 662 1056 Q479 1056 416 1175 Q380 1242 378 1389 L466 1389 Z " />
<glyph glyph-name="Idot" unicode="&#x130;" horiz-adv-x="797" d="M-48 52 Q25 61 60 88 Q95 115 118 199 L369 1118 Q380 1157 385.5 1183.5 Q391 1210 391 1230 Q391 1282 362 1295.5 Q333 1309 241 1317 L241 1370 L850 1370 L850 1317 Q775 1307 741.5 1281 Q708 1255 685 1170 L433 251 L417 180 Q415 170 413.5 159.5 Q412 149 412 140 Q412 88 440 74 Q468 60 561 52 L561 0 L-48 0 L-48 52 Z M625 1498 Q568 1498 528 1538 Q488 1578 488 1635 Q488 1692 528 1732.5 Q568 1773 625 1773 Q682 1773 722.5 1732.5 Q763 1692 763 1635 Q763 1579 723 1538.5 Q683 1498 625 1498 Z " />
<glyph glyph-name="Scedilla" unicode="&#x15e;" horiz-adv-x="1139" d="M11 -38 L85 421 L144 417 Q150 319 161 274 Q180 199 230 141 Q276 88 334.5 60.5 Q393 33 462 33 Q585 33 652.5 111.5 Q720 190 720 294 Q720 423 469 620 Q218 826 218 1001 Q218 1166 328.5 1282 Q439 1398 637 1398 Q692 1398 750 1387 Q788 1380 817 1370 L869 1353 Q886 1348 904 1344.5 Q922 1341 936 1341 Q972 1341 991 1356 Q1010 1371 1024 1393 L1085 1393 L1002 983 L948 990 L941 1057 Q928 1152 882 1220 Q810 1327 672 1327 Q554 1327 500 1241 Q464 1184 464 1118 Q464 1048 501 994 Q522 964 564 929 L741 784 Q835 707 901 608.5 Q967 510 967 384 Q967 222 839.5 91.5 Q712 -39 460 -39 L400 -128 Q421 -126 431.5 -125 Q442 -124 454 -124 Q529 -124 583.5 -162 Q638 -200 638 -274 Q638 -355 563 -401.5 Q488 -448 381 -448 Q310 -448 242 -430 Q202 -419 154 -399 L199 -330 Q250 -353 280.5 -359 Q311 -365 340 -365 Q406 -365 429.5 -339.5 Q453 -314 453 -280 Q453 -253 429.5 -230 Q406 -207 351 -207 Q332 -207 319.5 -209 Q307 -211 291 -216 L265 -190 L376 -31 Q344 -24 324 -18.5 Q304 -13 265 2 L213 21 Q187 31 177 33.5 Q167 36 154 36 Q120 36 105.5 19.5 Q91 3 73 -38 L11 -38 Z " />
<glyph glyph-name="scedilla" unicode="&#x15f;" horiz-adv-x="797" d="M78 312 L132 308 Q147 157 209 96 Q271 35 331 35 Q383 35 414 68 Q445 101 445 146 Q445 187 417.5 236 Q390 285 353 331 L277 426 Q227 480 192 552 Q157 624 157 696 Q157 798 234 872 Q311 946 443 946 Q497 946 557 923 Q617 900 636 900 Q660 900 672 911 Q684 922 694 943 L753 943 L706 630 L651 635 Q632 765 580.5 822 Q529 879 472 879 Q415 879 388.5 845 Q362 811 362 770 Q362 734 381.5 699.5 Q401 665 457 594 L557 466 Q590 424 616 364.5 Q642 305 642 246 Q642 122 553 46.5 Q464 -29 353 -29 L287 -128 Q308 -126 318.5 -125 Q329 -124 341 -124 Q416 -124 470.5 -162 Q525 -200 525 -274 Q525 -355 450 -401.5 Q375 -448 268 -448 Q197 -448 129 -430 Q89 -419 41 -399 L86 -330 Q137 -353 167.5 -359 Q198 -365 227 -365 Q293 -365 316.5 -339.5 Q340 -314 340 -280 Q340 -253 316.5 -230 Q293 -207 238 -207 Q219 -207 206.5 -209 Q194 -211 178 -216 L152 -190 L268 -24 Q232 -16 195.5 -1 Q159 14 146 14 Q121 14 108 1 Q95 -12 87 -29 L33 -29 L78 312 Z " />
<glyph glyph-name="Cacute" unicode="&#x106;" horiz-adv-x="1366" d="M874 1403 Q979 1403 1090.5 1373 Q1202 1343 1224 1343 Q1256 1343 1272 1359 Q1288 1375 1303 1403 L1365 1403 L1261 924 L1197 936 Q1200 979 1200.5 986.5 Q1201 994 1201 1009 Q1201 1171 1125 1250 Q1049 1329 932 1329 Q694 1329 518 1013 Q360 731 360 438 Q360 225 457.5 146.5 Q555 68 670 68 Q820 68 953 167 Q1025 221 1097 312 L1159 267 Q1053 111 907 35 Q761 -41 611 -41 Q365 -41 204.5 103.5 Q44 248 44 490 Q44 860 290 1131 Q536 1403 874 1403 Z M1272 1787 Q1265 1755 1242 1735 Q1219 1715 1173 1692 L825 1515 L725 1515 L1031 1783 Q1106 1849 1147 1871 Q1172 1884 1195 1884 Q1238 1884 1259.5 1857 Q1281 1830 1272 1787 Z " />
<glyph glyph-name="cacute" unicode="&#x107;" horiz-adv-x="909" d="M52 289 Q52 526 233 734 Q417 945 633 945 Q748 945 806.5 888.5 Q865 832 865 761 Q865 695 826 656.5 Q787 618 734 618 Q694 618 656 645.5 Q618 673 618 727 Q618 749 622.5 761 Q627 773 642 798 L651 813 Q658 824 660.5 830 Q663 836 663 843 Q663 860 647 869.5 Q631 879 609 879 Q499 879 400 651 Q312 448 312 299 Q312 231 338 181 Q377 104 466 104 Q532 104 592.5 152.5 Q653 201 713 289 L770 251 Q671 113 607 60 Q498 -29 353 -29 Q243 -29 147.5 49 Q52 127 52 289 Z M986 1329 Q979 1297 956 1277 Q933 1257 887 1234 L539 1057 L439 1057 L745 1325 Q820 1391 861 1413 Q886 1426 909 1426 Q952 1426 973.5 1399 Q995 1372 986 1329 Z " />
<glyph glyph-name="Ccaron" unicode="&#x10c;" horiz-adv-x="1366" d="M874 1403 Q979 1403 1090.5 1373 Q1202 1343 1224 1343 Q1256 1343 1272 1359 Q1288 1375 1303 1403 L1365 1403 L1261 924 L1197 936 Q1200 979 1200.5 986.5 Q1201 994 1201 1009 Q1201 1171 1125 1250 Q1049 1329 932 1329 Q694 1329 518 1013 Q360 731 360 438 Q360 225 457.5 146.5 Q555 68 670 68 Q820 68 953 167 Q1025 221 1097 312 L1159 267 Q1053 111 907 35 Q761 -41 611 -41 Q365 -41 204.5 103.5 Q44 248 44 490 Q44 860 290 1131 Q536 1403 874 1403 Z M744 1870 L931 1671 L1206 1870 L1322 1870 L990 1515 L822 1515 L642 1870 L744 1870 Z " />
<glyph glyph-name="ccaron" unicode="&#x10d;" horiz-adv-x="909" d="M52 289 Q52 526 233 734 Q417 945 633 945 Q748 945 806.5 888.5 Q865 832 865 761 Q865 695 826 656.5 Q787 618 734 618 Q694 618 656 645.5 Q618 673 618 727 Q618 749 622.5 761 Q627 773 642 798 L651 813 Q658 824 660.5 830 Q663 836 663 843 Q663 860 647 869.5 Q631 879 609 879 Q499 879 400 651 Q312 448 312 299 Q312 231 338 181 Q377 104 466 104 Q532 104 592.5 152.5 Q653 201 713 289 L770 251 Q671 113 607 60 Q498 -29 353 -29 Q243 -29 147.5 49 Q52 127 52 289 Z M458 1412 L645 1213 L920 1412 L1036 1412 L704 1057 L536 1057 L356 1412 L458 1412 Z " />
<glyph glyph-name="dslash" unicode="&#x111;" horiz-adv-x="1024" d="M272 241 Q272 187 295.5 153.5 Q319 120 359 120 Q480 120 594 405 Q690 642 690 753 Q690 792 680 816 Q661 860 610 860 Q496 860 378 606 Q272 379 272 241 Z M573 945 Q629 945 670 922 Q694 908 722 879 L773 1068 L486 1068 L523 1195 L805 1195 Q816 1226 817 1236 Q818 1246 818 1255 Q818 1291 796 1304 Q774 1317 734 1317 L692 1317 L692 1372 L780 1380 Q883 1389 939 1398 Q995 1407 1121 1431 L1053 1195 L1192 1195 L1162 1068 L1021 1068 L893 602 Q866 505 821 335.5 Q776 166 776 149 Q776 134 783.5 127 Q791 120 802 120 Q825 120 865.5 169.5 Q906 219 936 267 L981 234 Q900 114 849 63 Q760 -27 676 -27 Q632 -27 601 -5 Q552 28 552 107 Q552 120 557.5 152.5 Q563 185 573 234 Q499 114 445 62 Q351 -29 237 -29 Q147 -29 82.5 40.5 Q18 110 18 249 Q18 468 200 704 Q386 945 573 945 Z " />
<glyph glyph-name="Amacron" unicode="&#x100;" horiz-adv-x="1366" d="M739 507 L663 1005 L360 507 L739 507 Z M-109 49 Q-52 66 -25 86 Q15 115 64 194 L824 1398 L877 1398 L1073 227 Q1093 109 1121 82.5 Q1149 56 1244 49 L1244 0 L623 0 L623 49 Q711 56 747.5 77.5 Q784 99 784 167 Q784 190 773 277 Q771 295 753 426 L312 426 L192 218 Q180 197 170.5 172 Q161 147 161 124 Q161 82 186.5 70 Q212 58 293 49 L293 0 L-109 0 L-109 49 Z M552 1500 L585 1642 L1251 1642 L1218 1500 L552 1500 Z " />
<glyph glyph-name="amacron" unicode="&#x101;" horiz-adv-x="1024" d="M682 748 Q682 788 672 813 Q653 859 601 859 Q490 859 373 596 Q270 363 270 239 Q270 190 294.5 154 Q319 118 359 118 Q461 117 590 388 Q682 615 682 748 Z M18 239 Q18 465 198 702 Q384 945 576 945 Q654 945 691 899 Q713 871 730 805 L765 914 L993 929 L848 450 Q817 348 804 294 Q777 191 777 147 Q777 129 785 122 Q793 115 803 115 Q821 115 838 128.5 Q855 142 876 167 Q886 178 910 208.5 Q934 239 950 260 L993 229 Q910 107 834.5 38 Q759 -31 682 -31 Q635 -31 591 4 Q547 39 547 107 Q547 133 573 234 Q577 238 565.5 220 Q554 202 530 167 Q476 85 402.5 28 Q329 -29 239 -29 Q158 -29 88 32 Q18 93 18 239 Z M366 1051 L399 1193 L1065 1193 L1032 1051 L366 1051 Z " />
<glyph glyph-name="Abreve" unicode="&#x102;" horiz-adv-x="1366" d="M739 507 L663 1005 L360 507 L739 507 Z M-109 49 Q-52 66 -25 86 Q15 115 64 194 L824 1398 L877 1398 L1073 227 Q1093 109 1121 82.5 Q1149 56 1244 49 L1244 0 L623 0 L623 49 Q711 56 747.5 77.5 Q784 99 784 167 Q784 190 773 277 Q771 295 753 426 L312 426 L192 218 Q180 197 170.5 172 Q161 147 161 124 Q161 82 186.5 70 Q212 58 293 49 L293 0 L-109 0 L-109 49 Z M683 1830 Q688 1748 734.5 1696.5 Q781 1645 894 1645 Q981 1645 1050 1684 Q1119 1723 1162 1830 L1242 1830 Q1230 1719 1144.5 1608 Q1059 1497 879 1497 Q696 1497 633 1616 Q597 1683 595 1830 L683 1830 Z " />
<glyph glyph-name="abreve" unicode="&#x103;" horiz-adv-x="1024" d="M682 748 Q682 788 672 813 Q653 859 601 859 Q490 859 373 596 Q270 363 270 239 Q270 190 294.5 154 Q319 118 359 118 Q461 117 590 388 Q682 615 682 748 Z M18 239 Q18 465 198 702 Q384 945 576 945 Q654 945 691 899 Q713 871 730 805 L765 914 L993 929 L848 450 Q817 348 804 294 Q777 191 777 147 Q777 129 785 122 Q793 115 803 115 Q821 115 838 128.5 Q855 142 876 167 Q886 178 910 208.5 Q934 239 950 260 L993 229 Q910 107 834.5 38 Q759 -31 682 -31 Q635 -31 591 4 Q547 39 547 107 Q547 133 573 234 Q577 238 565.5 220 Q554 202 530 167 Q476 85 402.5 28 Q329 -29 239 -29 Q158 -29 88 32 Q18 93 18 239 Z M519 1399 Q524 1317 570.5 1265.5 Q617 1214 730 1214 Q817 1214 886 1253 Q955 1292 998 1399 L1078 1399 Q1066 1288 980.5 1177 Q895 1066 715 1066 Q532 1066 469 1185 Q433 1252 431 1399 L519 1399 Z " />
<glyph glyph-name="Aogonek" unicode="&#x104;" horiz-adv-x="1366" d="M739 507 L663 1005 L360 507 L739 507 Z M-109 49 Q-52 66 -25 86 Q15 115 64 194 L824 1398 L877 1398 L1073 227 Q1093 109 1121 82.5 Q1149 56 1244 49 L1244 0 L623 0 L623 49 Q711 56 747.5 77.5 Q784 99 784 167 Q784 190 773 277 Q771 295 753 426 L312 426 L192 218 Q180 197 170.5 172 Q161 147 161 124 Q161 82 186.5 70 Q212 58 293 49 L293 0 L-109 0 L-109 49 Z M1071 49 L1071 27 L1045 13 Q952 -37 896 -86 Q810 -160 810 -227 Q810 -261 834.5 -290 Q859 -319 909 -319 Q938 -319 988 -298 Q1038 -277 1102 -236 L1142 -302 Q1036 -379 932 -410 Q874 -428 830 -428 Q737 -428 682 -374.5 Q627 -321 627 -255 Q627 -150 753 -73.5 Q879 3 1042 42 L1071 49 Z " />
<glyph glyph-name="aogonek" unicode="&#x105;" horiz-adv-x="1024" d="M682 748 Q682 788 672 813 Q653 859 601 859 Q490 859 373 596 Q270 363 270 239 Q270 190 294.5 154 Q319 118 359 118 Q461 117 590 388 Q682 615 682 748 Z M18 239 Q18 465 198 702 Q384 945 576 945 Q654 945 691 899 Q713 871 730 805 L765 914 L993 929 L848 450 Q817 348 804 294 Q777 191 777 147 Q777 129 785 122 Q793 115 803 115 Q821 115 838 128.5 Q855 142 876 167 Q886 178 910 208.5 Q934 239 950 260 L993 229 Q910 107 834.5 38 Q759 -31 682 -31 Q635 -31 591 4 Q547 39 547 107 Q547 133 573 234 Q577 238 565.5 220 Q554 202 530 167 Q476 85 402.5 28 Q329 -29 239 -29 Q158 -29 88 32 Q18 93 18 239 Z M815 59 L815 37 L789 23 Q696 -27 640 -76 Q554 -150 554 -217 Q554 -251 578.5 -280 Q603 -309 653 -309 Q682 -309 732 -288 Q782 -267 846 -226 L886 -292 Q780 -369 676 -400 Q618 -418 574 -418 Q481 -418 426 -364.5 Q371 -311 371 -245 Q371 -140 497 -63.5 Q623 13 786 52 L815 59 Z " />
<glyph glyph-name="Ccircumflex" unicode="&#x108;" horiz-adv-x="1366" d="M874 1403 Q979 1403 1090.5 1373 Q1202 1343 1224 1343 Q1256 1343 1272 1359 Q1288 1375 1303 1403 L1365 1403 L1261 924 L1197 936 Q1200 979 1200.5 986.5 Q1201 994 1201 1009 Q1201 1171 1125 1250 Q1049 1329 932 1329 Q694 1329 518 1013 Q360 731 360 438 Q360 225 457.5 146.5 Q555 68 670 68 Q820 68 953 167 Q1025 221 1097 312 L1159 267 Q1053 111 907 35 Q761 -41 611 -41 Q365 -41 204.5 103.5 Q44 248 44 490 Q44 860 290 1131 Q536 1403 874 1403 Z M1224 1497 L1044 1691 L773 1497 L657 1497 L984 1852 L1150 1852 L1328 1497 L1224 1497 Z " />
<glyph glyph-name="ccircumflex" unicode="&#x109;" horiz-adv-x="909" d="M52 289 Q52 526 233 734 Q417 945 633 945 Q748 945 806.5 888.5 Q865 832 865 761 Q865 695 826 656.5 Q787 618 734 618 Q694 618 656 645.5 Q618 673 618 727 Q618 749 622.5 761 Q627 773 642 798 L651 813 Q658 824 660.5 830 Q663 836 663 843 Q663 860 647 869.5 Q631 879 609 879 Q499 879 400 651 Q312 448 312 299 Q312 231 338 181 Q377 104 466 104 Q532 104 592.5 152.5 Q653 201 713 289 L770 251 Q671 113 607 60 Q498 -29 353 -29 Q243 -29 147.5 49 Q52 127 52 289 Z M858 1061 L678 1255 L407 1061 L291 1061 L618 1416 L784 1416 L962 1061 L858 1061 Z " />
<glyph glyph-name="Cdotaccent" unicode="&#x10a;" horiz-adv-x="1366" d="M874 1403 Q979 1403 1090.5 1373 Q1202 1343 1224 1343 Q1256 1343 1272 1359 Q1288 1375 1303 1403 L1365 1403 L1261 924 L1197 936 Q1200 979 1200.5 986.5 Q1201 994 1201 1009 Q1201 1171 1125 1250 Q1049 1329 932 1329 Q694 1329 518 1013 Q360 731 360 438 Q360 225 457.5 146.5 Q555 68 670 68 Q820 68 953 167 Q1025 221 1097 312 L1159 267 Q1053 111 907 35 Q761 -41 611 -41 Q365 -41 204.5 103.5 Q44 248 44 490 Q44 860 290 1131 Q536 1403 874 1403 Z M960 1512 Q903 1512 863 1552 Q823 1592 823 1649 Q823 1706 863 1746.5 Q903 1787 960 1787 Q1017 1787 1057.5 1746.5 Q1098 1706 1098 1649 Q1098 1593 1058 1552.5 Q1018 1512 960 1512 Z " />
<glyph glyph-name="cdotaccent" unicode="&#x10b;" horiz-adv-x="909" d="M52 289 Q52 526 233 734 Q417 945 633 945 Q748 945 806.5 888.5 Q865 832 865 761 Q865 695 826 656.5 Q787 618 734 618 Q694 618 656 645.5 Q618 673 618 727 Q618 749 622.5 761 Q627 773 642 798 L651 813 Q658 824 660.5 830 Q663 836 663 843 Q663 860 647 869.5 Q631 879 609 879 Q499 879 400 651 Q312 448 312 299 Q312 231 338 181 Q377 104 466 104 Q532 104 592.5 152.5 Q653 201 713 289 L770 251 Q671 113 607 60 Q498 -29 353 -29 Q243 -29 147.5 49 Q52 127 52 289 Z M693 1068 Q636 1068 596 1108 Q556 1148 556 1205 Q556 1262 596 1302.5 Q636 1343 693 1343 Q750 1343 790.5 1302.5 Q831 1262 831 1205 Q831 1149 791 1108.5 Q751 1068 693 1068 Z " />
<glyph glyph-name="Dcaron" unicode="&#x10e;" horiz-adv-x="1479" d="M-67 52 Q0 61 28 80 Q75 111 99 199 L350 1118 Q361 1157 366.5 1183.5 Q372 1210 372 1230 Q372 1282 343 1295.5 Q314 1309 222 1317 L222 1370 L817 1370 Q1119 1370 1276.5 1215.5 Q1434 1061 1434 801 Q1434 488 1201 257 Q942 0 521 0 L-67 0 L-67 52 Z M1133 926 Q1133 1078 1082 1168 Q1002 1306 805 1306 Q739 1306 715.5 1284.5 Q692 1263 682 1227 L400 192 Q396 177 394.5 165 Q393 153 393 144 Q393 104 417.5 86 Q442 68 506 68 Q871 68 1034 444 Q1133 672 1133 926 Z M707 1858 L894 1659 L1169 1858 L1285 1858 L953 1503 L785 1503 L605 1858 L707 1858 Z " />
<glyph glyph-name="dcaron" unicode="&#x10f;" horiz-adv-x="1567" d="M272 241 Q272 187 295.5 153.5 Q319 120 359 120 Q480 120 594 405 Q690 642 690 753 Q690 792 680 816 Q661 860 610 860 Q496 860 378 606 Q272 379 272 241 Z M573 945 Q629 945 670 922 Q694 908 722 879 L813 1216 Q816 1226 817 1236 Q818 1246 818 1255 Q818 1291 796 1304 Q774 1317 734 1317 L692 1317 L692 1372 L780 1380 Q883 1389 939 1398 Q995 1407 1121 1431 L893 602 Q866 505 821 335.5 Q776 166 776 149 Q776 134 783.5 127 Q791 120 802 120 Q825 120 865.5 169.5 Q906 219 936 267 L981 234 Q900 114 849 63 Q760 -27 676 -27 Q632 -27 601 -5 Q552 28 552 107 Q552 120 557.5 152.5 Q563 185 573 234 Q499 114 445 62 Q351 -29 237 -29 Q147 -29 82.5 40.5 Q18 110 18 249 Q18 468 200 704 Q386 945 573 945 Z M1101 1206 Q1213 1262 1274 1305 Q1380 1380 1395 1449 Q1402 1482 1340.5 1532.5 Q1279 1583 1295 1659 Q1309 1724 1358.5 1765 Q1408 1806 1471 1806 Q1549 1806 1586 1749 Q1623 1692 1605 1607 Q1569 1436 1353 1285 Q1213 1187 1117 1157 L1101 1206 Z " />
<glyph glyph-name="Emacron" unicode="&#x112;" horiz-adv-x="1366" d="M-57 52 Q16 61 51 88 Q86 115 109 199 L360 1118 Q369 1153 375 1181.5 Q381 1210 381 1230 Q381 1282 353.5 1295.5 Q326 1309 232 1317 L232 1370 L1336 1370 L1249 981 L1194 990 Q1192 1139 1146 1201 Q1068 1306 830 1306 Q749 1306 725.5 1286.5 Q702 1267 687 1213 L564 758 Q779 763 842.5 793 Q906 823 983 974 L1040 967 L888 407 L832 417 Q836 446 837.5 467.5 Q839 489 839 503 Q839 612 779 652 Q719 692 545 692 L410 192 Q405 174 402.5 157 Q400 140 400 130 Q400 102 422 84 Q444 66 514 66 Q700 66 831 118 Q1035 198 1149 407 L1199 398 L1078 0 L-57 0 L-57 52 Z M536 1472 L569 1614 L1235 1614 L1202 1472 L536 1472 Z " />
<glyph glyph-name="emacron" unicode="&#x113;" horiz-adv-x="909" d="M668 795 Q668 830 655 854.5 Q642 879 608 879 Q536 879 466.5 763 Q397 647 343 438 Q520 478 594 592 Q668 706 668 795 Z M52 289 Q52 521 230 730 Q414 946 634 946 Q729 946 791.5 899 Q854 852 854 766 Q854 636 708 520 Q562 404 329 372 Q323 341 320 314 Q317 287 317 270 Q317 207 335 171 Q367 104 458 104 Q532 104 605 180 Q644 220 689 291 L749 256 Q672 127 604 67 Q496 -29 351 -29 Q243 -29 147.5 49.5 Q52 128 52 289 Z M272 1052 L305 1194 L971 1194 L938 1052 L272 1052 Z " />
<glyph glyph-name="Ebreve" unicode="&#x114;" horiz-adv-x="1366" d="M-57 52 Q16 61 51 88 Q86 115 109 199 L360 1118 Q369 1153 375 1181.5 Q381 1210 381 1230 Q381 1282 353.5 1295.5 Q326 1309 232 1317 L232 1370 L1336 1370 L1249 981 L1194 990 Q1192 1139 1146 1201 Q1068 1306 830 1306 Q749 1306 725.5 1286.5 Q702 1267 687 1213 L564 758 Q779 763 842.5 793 Q906 823 983 974 L1040 967 L888 407 L832 417 Q836 446 837.5 467.5 Q839 489 839 503 Q839 612 779 652 Q719 692 545 692 L410 192 Q405 174 402.5 157 Q400 140 400 130 Q400 102 422 84 Q444 66 514 66 Q700 66 831 118 Q1035 198 1149 407 L1199 398 L1078 0 L-57 0 L-57 52 Z M667 1840 Q672 1758 718.5 1706.5 Q765 1655 878 1655 Q965 1655 1034 1694 Q1103 1733 1146 1840 L1226 1840 Q1214 1729 1128.5 1618 Q1043 1507 863 1507 Q680 1507 617 1626 Q581 1693 579 1840 L667 1840 Z " />
<glyph glyph-name="ebreve" unicode="&#x115;" horiz-adv-x="909" d="M668 795 Q668 830 655 854.5 Q642 879 608 879 Q536 879 466.5 763 Q397 647 343 438 Q520 478 594 592 Q668 706 668 795 Z M52 289 Q52 521 230 730 Q414 946 634 946 Q729 946 791.5 899 Q854 852 854 766 Q854 636 708 520 Q562 404 329 372 Q323 341 320 314 Q317 287 317 270 Q317 207 335 171 Q367 104 458 104 Q532 104 605 180 Q644 220 689 291 L749 256 Q672 127 604 67 Q496 -29 351 -29 Q243 -29 147.5 49.5 Q52 128 52 289 Z M433 1394 Q438 1312 484.5 1260.5 Q531 1209 644 1209 Q731 1209 800 1248 Q869 1287 912 1394 L992 1394 Q980 1283 894.5 1172 Q809 1061 629 1061 Q446 1061 383 1180 Q347 1247 345 1394 L433 1394 Z " />
<glyph glyph-name="Edotaccent" unicode="&#x116;" horiz-adv-x="1366" d="M-57 52 Q16 61 51 88 Q86 115 109 199 L360 1118 Q369 1153 375 1181.5 Q381 1210 381 1230 Q381 1282 353.5 1295.5 Q326 1309 232 1317 L232 1370 L1336 1370 L1249 981 L1194 990 Q1192 1139 1146 1201 Q1068 1306 830 1306 Q749 1306 725.5 1286.5 Q702 1267 687 1213 L564 758 Q779 763 842.5 793 Q906 823 983 974 L1040 967 L888 407 L832 417 Q836 446 837.5 467.5 Q839 489 839 503 Q839 612 779 652 Q719 692 545 692 L410 192 Q405 174 402.5 157 Q400 140 400 130 Q400 102 422 84 Q444 66 514 66 Q700 66 831 118 Q1035 198 1149 407 L1199 398 L1078 0 L-57 0 L-57 52 Z M902 1506 Q845 1506 805 1546 Q765 1586 765 1643 Q765 1700 805 1740.5 Q845 1781 902 1781 Q959 1781 999.5 1740.5 Q1040 1700 1040 1643 Q1040 1587 1000 1546.5 Q960 1506 902 1506 Z " />
<glyph glyph-name="edotaccent" unicode="&#x117;" horiz-adv-x="909" d="M668 795 Q668 830 655 854.5 Q642 879 608 879 Q536 879 466.5 763 Q397 647 343 438 Q520 478 594 592 Q668 706 668 795 Z M52 289 Q52 521 230 730 Q414 946 634 946 Q729 946 791.5 899 Q854 852 854 766 Q854 636 708 520 Q562 404 329 372 Q323 341 320 314 Q317 287 317 270 Q317 207 335 171 Q367 104 458 104 Q532 104 605 180 Q644 220 689 291 L749 256 Q672 127 604 67 Q496 -29 351 -29 Q243 -29 147.5 49.5 Q52 128 52 289 Z M666 1114 Q609 1114 569 1154 Q529 1194 529 1251 Q529 1308 569 1348.5 Q609 1389 666 1389 Q723 1389 763.5 1348.5 Q804 1308 804 1251 Q804 1195 764 1154.5 Q724 1114 666 1114 Z " />
<glyph glyph-name="Eogonek" unicode="&#x118;" horiz-adv-x="1366" d="M-57 52 Q16 61 51 88 Q86 115 109 199 L360 1118 Q369 1153 375 1181.5 Q381 1210 381 1230 Q381 1282 353.5 1295.5 Q326 1309 232 1317 L232 1370 L1336 1370 L1249 981 L1194 990 Q1192 1139 1146 1201 Q1068 1306 830 1306 Q749 1306 725.5 1286.5 Q702 1267 687 1213 L564 758 Q779 763 842.5 793 Q906 823 983 974 L1040 967 L888 407 L832 417 Q836 446 837.5 467.5 Q839 489 839 503 Q839 612 779 652 Q719 692 545 692 L410 192 Q405 174 402.5 157 Q400 140 400 130 Q400 102 422 84 Q444 66 514 66 Q700 66 831 118 Q1035 198 1149 407 L1199 398 L1078 0 L-57 0 L-57 52 Z M666 65 L666 43 L640 29 Q547 -21 491 -70 Q405 -144 405 -211 Q405 -245 429.5 -274 Q454 -303 504 -303 Q533 -303 583 -282 Q633 -261 697 -220 L737 -286 Q631 -363 527 -394 Q469 -412 425 -412 Q332 -412 277 -358.5 Q222 -305 222 -239 Q222 -134 348 -57.5 Q474 19 637 58 L666 65 Z " />
<glyph glyph-name="eogonek" unicode="&#x119;" horiz-adv-x="909" d="M668 795 Q668 830 655 854.5 Q642 879 608 879 Q536 879 466.5 763 Q397 647 343 438 Q520 478 594 592 Q668 706 668 795 Z M52 289 Q52 521 230 730 Q414 946 634 946 Q729 946 791.5 899 Q854 852 854 766 Q854 636 708 520 Q562 404 329 372 Q323 341 320 314 Q317 287 317 270 Q317 207 335 171 Q367 104 458 104 Q532 104 605 180 Q644 220 689 291 L749 256 Q672 127 604 67 Q496 -29 351 -29 Q243 -29 147.5 49.5 Q52 128 52 289 Z M546 53 L546 31 L520 17 Q427 -33 371 -82 Q285 -156 285 -223 Q285 -257 309.5 -286 Q334 -315 384 -315 Q413 -315 463 -294 Q513 -273 577 -232 L617 -298 Q511 -375 407 -406 Q349 -424 305 -424 Q212 -424 157 -370.5 Q102 -317 102 -251 Q102 -146 228 -69.5 Q354 7 517 46 L546 53 Z " />
<glyph glyph-name="Ecaron" unicode="&#x11a;" horiz-adv-x="1366" d="M-57 52 Q16 61 51 88 Q86 115 109 199 L360 1118 Q369 1153 375 1181.5 Q381 1210 381 1230 Q381 1282 353.5 1295.5 Q326 1309 232 1317 L232 1370 L1336 1370 L1249 981 L1194 990 Q1192 1139 1146 1201 Q1068 1306 830 1306 Q749 1306 725.5 1286.5 Q702 1267 687 1213 L564 758 Q779 763 842.5 793 Q906 823 983 974 L1040 967 L888 407 L832 417 Q836 446 837.5 467.5 Q839 489 839 503 Q839 612 779 652 Q719 692 545 692 L410 192 Q405 174 402.5 157 Q400 140 400 130 Q400 102 422 84 Q444 66 514 66 Q700 66 831 118 Q1035 198 1149 407 L1199 398 L1078 0 L-57 0 L-57 52 Z M763 1858 L950 1659 L1225 1858 L1341 1858 L1009 1503 L841 1503 L661 1858 L763 1858 Z " />
<glyph glyph-name="ecaron" unicode="&#x11b;" horiz-adv-x="909" d="M668 795 Q668 830 655 854.5 Q642 879 608 879 Q536 879 466.5 763 Q397 647 343 438 Q520 478 594 592 Q668 706 668 795 Z M52 289 Q52 521 230 730 Q414 946 634 946 Q729 946 791.5 899 Q854 852 854 766 Q854 636 708 520 Q562 404 329 372 Q323 341 320 314 Q317 287 317 270 Q317 207 335 171 Q367 104 458 104 Q532 104 605 180 Q644 220 689 291 L749 256 Q672 127 604 67 Q496 -29 351 -29 Q243 -29 147.5 49.5 Q52 128 52 289 Z M460 1399 L647 1200 L922 1399 L1038 1399 L706 1044 L538 1044 L358 1399 L460 1399 Z " />
<glyph glyph-name="Gcircumflex" unicode="&#x11c;" horiz-adv-x="1479" d="M905 1403 Q1022 1403 1127 1372 Q1232 1341 1248 1341 Q1280 1341 1297.5 1357.5 Q1315 1374 1332 1403 L1393 1403 L1289 950 L1230 957 Q1232 1083 1196 1168 Q1129 1327 942 1327 Q690 1327 514 1009 Q362 731 362 438 Q362 188 502 90 Q579 36 688 36 Q786 36 840.5 65.5 Q895 95 916 158 Q916 148 962.5 317.5 Q1009 487 1009 535 Q1009 586 981.5 599.5 Q954 613 858 623 L858 675 L1445 675 L1445 623 Q1360 614 1337 591 Q1314 568 1284 455 L1185 82 L1128 56 Q1059 25 929 -7.5 Q799 -40 660 -40 Q403 -40 230 100 Q42 252 42 512 Q42 847 268 1111 Q519 1403 905 1403 Z M1241 1504 L1061 1698 L790 1504 L674 1504 L1001 1859 L1167 1859 L1345 1504 L1241 1504 Z " />
<glyph glyph-name="gcircumflex" unicode="&#x11d;" horiz-adv-x="1024" d="M452 377 Q539 377 601.5 507.5 Q664 638 664 757 Q664 811 642 846 Q620 881 570 881 Q475 881 417.5 741 Q360 601 360 491 Q360 435 386 406 Q412 377 452 377 Z M597 -206 Q597 -157 567.5 -129 Q538 -101 487 -80 Q452 -66 374.5 -40.5 Q297 -15 282 -15 Q282 0 202 -58 Q122 -116 122 -193 Q122 -241 159 -281 Q220 -349 361 -349 Q472 -349 534.5 -309 Q597 -269 597 -206 Z M210 14 Q160 32 136 53 Q90 91 90 154 Q90 205 132 246.5 Q174 288 286 348 Q203 378 163 439 Q123 500 123 586 Q123 715 244 830 Q365 945 563 945 Q666 945 743.5 912 Q821 879 803 879 L1031 879 L1031 763 L893 763 Q899 737 902 718 Q905 699 905 675 Q905 527 788.5 421.5 Q672 316 461 316 Q415 316 351 327 Q335 327 317.5 302 Q300 277 300 259 Q300 226 349 200 Q372 187 405 177 L514 146 Q657 105 717 66 Q820 0 820 -116 Q820 -246 683 -332 Q546 -418 343 -418 Q210 -418 112 -386 Q-57 -332 -57 -196 Q-57 -108 33 -53 Q83 -23 210 14 Z M810 1043 L630 1237 L359 1043 L243 1043 L570 1398 L736 1398 L914 1043 L810 1043 Z " />
<glyph glyph-name="Gdotaccent" unicode="&#x120;" horiz-adv-x="1479" d="M905 1403 Q1022 1403 1127 1372 Q1232 1341 1248 1341 Q1280 1341 1297.5 1357.5 Q1315 1374 1332 1403 L1393 1403 L1289 950 L1230 957 Q1232 1083 1196 1168 Q1129 1327 942 1327 Q690 1327 514 1009 Q362 731 362 438 Q362 188 502 90 Q579 36 688 36 Q786 36 840.5 65.5 Q895 95 916 158 Q916 148 962.5 317.5 Q1009 487 1009 535 Q1009 586 981.5 599.5 Q954 613 858 623 L858 675 L1445 675 L1445 623 Q1360 614 1337 591 Q1314 568 1284 455 L1185 82 L1128 56 Q1059 25 929 -7.5 Q799 -40 660 -40 Q403 -40 230 100 Q42 252 42 512 Q42 847 268 1111 Q519 1403 905 1403 Z M982 1511 Q925 1511 885 1551 Q845 1591 845 1648 Q845 1705 885 1745.5 Q925 1786 982 1786 Q1039 1786 1079.5 1745.5 Q1120 1705 1120 1648 Q1120 1592 1080 1551.5 Q1040 1511 982 1511 Z " />
<glyph glyph-name="gdotaccent" unicode="&#x121;" horiz-adv-x="1024" d="M452 377 Q539 377 601.5 507.5 Q664 638 664 757 Q664 811 642 846 Q620 881 570 881 Q475 881 417.5 741 Q360 601 360 491 Q360 435 386 406 Q412 377 452 377 Z M597 -206 Q597 -157 567.5 -129 Q538 -101 487 -80 Q452 -66 374.5 -40.5 Q297 -15 282 -15 Q282 0 202 -58 Q122 -116 122 -193 Q122 -241 159 -281 Q220 -349 361 -349 Q472 -349 534.5 -309 Q597 -269 597 -206 Z M210 14 Q160 32 136 53 Q90 91 90 154 Q90 205 132 246.5 Q174 288 286 348 Q203 378 163 439 Q123 500 123 586 Q123 715 244 830 Q365 945 563 945 Q666 945 743.5 912 Q821 879 803 879 L1031 879 L1031 763 L893 763 Q899 737 902 718 Q905 699 905 675 Q905 527 788.5 421.5 Q672 316 461 316 Q415 316 351 327 Q335 327 317.5 302 Q300 277 300 259 Q300 226 349 200 Q372 187 405 177 L514 146 Q657 105 717 66 Q820 0 820 -116 Q820 -246 683 -332 Q546 -418 343 -418 Q210 -418 112 -386 Q-57 -332 -57 -196 Q-57 -108 33 -53 Q83 -23 210 14 Z M597 1051 Q540 1051 500 1091 Q460 1131 460 1188 Q460 1245 500 1285.5 Q540 1326 597 1326 Q654 1326 694.5 1285.5 Q735 1245 735 1188 Q735 1132 695 1091.5 Q655 1051 597 1051 Z " />
<glyph glyph-name="gacute" unicode="&#x1f5;" horiz-adv-x="1024" d="M452 377 Q539 377 601.5 507.5 Q664 638 664 757 Q664 811 642 846 Q620 881 570 881 Q475 881 417.5 741 Q360 601 360 491 Q360 435 386 406 Q412 377 452 377 Z M597 -206 Q597 -157 567.5 -129 Q538 -101 487 -80 Q452 -66 374.5 -40.5 Q297 -15 282 -15 Q282 0 202 -58 Q122 -116 122 -193 Q122 -241 159 -281 Q220 -349 361 -349 Q472 -349 534.5 -309 Q597 -269 597 -206 Z M210 14 Q160 32 136 53 Q90 91 90 154 Q90 205 132 246.5 Q174 288 286 348 Q203 378 163 439 Q123 500 123 586 Q123 715 244 830 Q365 945 563 945 Q666 945 743.5 912 Q821 879 803 879 L1031 879 L1031 763 L893 763 Q899 737 902 718 Q905 699 905 675 Q905 527 788.5 421.5 Q672 316 461 316 Q415 316 351 327 Q335 327 317.5 302 Q300 277 300 259 Q300 226 349 200 Q372 187 405 177 L514 146 Q657 105 717 66 Q820 0 820 -116 Q820 -246 683 -332 Q546 -418 343 -418 Q210 -418 112 -386 Q-57 -332 -57 -196 Q-57 -108 33 -53 Q83 -23 210 14 Z M979 1310 Q972 1278 949 1258 Q926 1238 880 1215 L532 1038 L432 1038 L738 1306 Q813 1372 854 1394 Q879 1407 902 1407 Q945 1407 966.5 1380 Q988 1353 979 1310 Z " />
<glyph glyph-name="Hcircumflex" unicode="&#x124;" horiz-adv-x="1593" d="M-53 52 Q25 61 57.5 89 Q90 117 113 199 L365 1118 Q373 1150 379.5 1180 Q386 1210 386 1230 Q386 1282 358 1295.5 Q330 1309 237 1317 L237 1370 L886 1370 L886 1317 Q779 1306 742 1283.5 Q705 1261 680 1170 L568 763 L1057 763 L1154 1118 Q1163 1153 1169 1181.5 Q1175 1210 1175 1230 Q1175 1284 1135 1301 Q1109 1312 1026 1317 L1026 1370 L1635 1370 L1635 1317 Q1564 1308 1536 1289 Q1493 1258 1469 1170 L1218 251 L1201 180 Q1196 157 1195 151.5 Q1194 146 1194 138 Q1194 85 1239 67 Q1266 56 1346 52 L1346 0 L696 0 L696 52 Q803 63 840.5 85.5 Q878 108 903 199 L1033 673 L545 673 L429 251 Q417 204 413 184 Q409 164 409 135 Q409 86 436 73 Q463 60 557 52 L557 0 L-53 0 L-53 52 Z M1275 1503 L1095 1697 L824 1503 L708 1503 L1035 1858 L1201 1858 L1379 1503 L1275 1503 Z " />
<glyph glyph-name="hcircumflex" unicode="&#x125;" horiz-adv-x="1139" d="M23 0 L338 1161 Q343 1180 349 1207 Q355 1234 355 1251 Q355 1297 326 1307 Q297 1317 227 1315 L227 1370 Q376 1385 429.5 1392.5 Q483 1400 654 1431 L436 592 L440 590 Q430 580 450.5 608 Q471 636 512 689 Q604 809 686.5 876 Q769 943 864 943 Q936 943 978.5 903 Q1021 863 1021 783 Q1021 750 1014 718 Q1007 686 978 597 L841 173 Q838 160 838 155 Q838 139 848 129.5 Q858 120 871 120 Q898 120 952 186 Q979 221 1026 291 L1071 260 Q978 119 924 66 Q834 -22 732 -22 Q676 -22 634.5 10.5 Q593 43 593 113 Q593 158 613 236.5 Q633 315 666 412 L770 718 Q772 725 773.5 732.5 Q775 740 775 747 Q775 776 759 785 Q743 794 726 794 Q665 794 583 695 Q501 596 452 504 Q402 411 353 267 Q326 184 272 0 L23 0 Z M990 1504 L810 1698 L539 1504 L423 1504 L750 1859 L916 1859 L1094 1504 L990 1504 Z " />
<glyph glyph-name="Hbar" unicode="&#x126;" horiz-adv-x="1593" d="M-53 52 Q25 61 57.5 89 Q90 117 113 199 L365 1118 Q373 1150 379.5 1180 Q386 1210 386 1230 Q386 1282 358 1295.5 Q330 1309 237 1317 L237 1370 L886 1370 L886 1317 Q779 1306 742 1283.5 Q705 1261 680 1170 L568 763 L1057 763 L1154 1118 Q1163 1153 1169 1181.5 Q1175 1210 1175 1230 Q1175 1284 1135 1301 Q1109 1312 1026 1317 L1026 1370 L1635 1370 L1635 1317 Q1564 1308 1536 1289 Q1493 1258 1469 1170 L1218 251 L1201 180 Q1196 157 1195 151.5 Q1194 146 1194 138 Q1194 85 1239 67 Q1266 56 1346 52 L1346 0 L696 0 L696 52 Q803 63 840.5 85.5 Q878 108 903 199 L1033 673 L545 673 L429 251 Q417 204 413 184 Q409 164 409 135 Q409 86 436 73 Q463 60 557 52 L557 0 L-53 0 L-53 52 Z M1599 1160 L1575 1070 L201 1070 L225 1160 L1599 1160 Z " />
<glyph glyph-name="hbar" unicode="&#x127;" horiz-adv-x="1139" d="M23 0 L338 1161 Q343 1180 349 1207 Q355 1234 355 1251 Q355 1297 326 1307 Q297 1317 227 1315 L227 1370 Q376 1385 429.5 1392.5 Q483 1400 654 1431 L436 592 L440 590 Q430 580 450.5 608 Q471 636 512 689 Q604 809 686.5 876 Q769 943 864 943 Q936 943 978.5 903 Q1021 863 1021 783 Q1021 750 1014 718 Q1007 686 978 597 L841 173 Q838 160 838 155 Q838 139 848 129.5 Q858 120 871 120 Q898 120 952 186 Q979 221 1026 291 L1071 260 Q978 119 924 66 Q834 -22 732 -22 Q676 -22 634.5 10.5 Q593 43 593 113 Q593 158 613 236.5 Q633 315 666 412 L770 718 Q772 725 773.5 732.5 Q775 740 775 747 Q775 776 759 785 Q743 794 726 794 Q665 794 583 695 Q501 596 452 504 Q402 411 353 267 Q326 184 272 0 L23 0 Z M81 991 L114 1133 L780 1133 L747 991 L81 991 Z " />
<glyph glyph-name="Itilde" unicode="&#x128;" horiz-adv-x="797" d="M-48 52 Q25 61 60 88 Q95 115 118 199 L369 1118 Q380 1157 385.5 1183.5 Q391 1210 391 1230 Q391 1282 362 1295.5 Q333 1309 241 1317 L241 1370 L850 1370 L850 1317 Q775 1307 741.5 1281 Q708 1255 685 1170 L433 251 L417 180 Q415 170 413.5 159.5 Q412 149 412 140 Q412 88 440 74 Q468 60 561 52 L561 0 L-48 0 L-48 52 Z M265 1474 Q283 1567 340 1641.5 Q397 1716 505 1716 Q563 1716 672.5 1673.5 Q782 1631 810 1631 Q854 1631 883 1662 Q899 1678 917 1716 L1000 1716 Q976 1603 914.5 1537.5 Q853 1472 764 1472 Q746 1472 716.5 1476.5 Q687 1481 644 1498 L523 1545 Q502 1553 484.5 1557.5 Q467 1562 449 1562 Q404 1562 385 1540.5 Q366 1519 348 1474 L265 1474 Z " />
<glyph glyph-name="itilde" unicode="&#x129;" horiz-adv-x="788" d="M54 118 Q54 143 66 197 Q73 228 87 279 L210 739 Q212 747 213.5 755 Q215 763 215 770 Q215 811 189 821 Q163 831 94 834 L94 888 Q152 892 262.5 904.5 Q373 917 419 926 L507 943 L348 360 Q328 285 321 256 Q303 182 303 160 Q303 138 313 131.5 Q323 125 335 125 Q366 125 412 178 Q458 231 493 289 L538 260 Q438 113 385 62 Q298 -22 199 -22 Q143 -22 98.5 12.5 Q54 47 54 118 Z M0 1088 Q18 1181 75 1255.5 Q132 1330 240 1330 Q298 1330 407.5 1287.5 Q517 1245 545 1245 Q589 1245 618 1276 Q634 1292 652 1330 L735 1330 Q711 1217 649.5 1151.5 Q588 1086 499 1086 Q481 1086 451.5 1090.5 Q422 1095 379 1112 L258 1159 Q237 1167 219.5 1171.5 Q202 1176 184 1176 Q139 1176 120 1154.5 Q101 1133 83 1088 L0 1088 Z " />
<glyph glyph-name="Imacron" unicode="&#x12a;" horiz-adv-x="911" d="M-48 52 Q25 61 60 88 Q95 115 118 199 L369 1118 Q380 1157 385.5 1183.5 Q391 1210 391 1230 Q391 1282 362 1295.5 Q333 1309 241 1317 L241 1370 L850 1370 L850 1317 Q775 1307 741.5 1281 Q708 1255 685 1170 L433 251 L417 180 Q415 170 413.5 159.5 Q412 149 412 140 Q412 88 440 74 Q468 60 561 52 L561 0 L-48 0 L-48 52 Z M273 1472 L306 1614 L972 1614 L939 1472 L273 1472 Z " />
<glyph glyph-name="imacron" unicode="&#x12b;" horiz-adv-x="696" d="M54 118 Q54 143 66 197 Q73 228 87 279 L210 739 Q212 747 213.5 755 Q215 763 215 770 Q215 811 189 821 Q163 831 94 834 L94 888 Q152 892 262.5 904.5 Q373 917 419 926 L507 943 L348 360 Q328 285 321 256 Q303 182 303 160 Q303 138 313 131.5 Q323 125 335 125 Q366 125 412 178 Q458 231 493 289 L538 260 Q438 113 385 62 Q298 -22 199 -22 Q143 -22 98.5 12.5 Q54 47 54 118 Z M28 1049 L61 1191 L727 1191 L694 1049 L28 1049 Z " />
<glyph glyph-name="Iogonek" unicode="&#x12e;" horiz-adv-x="797" d="M-48 52 Q25 61 60 88 Q95 115 118 199 L369 1118 Q380 1157 385.5 1183.5 Q391 1210 391 1230 Q391 1282 362 1295.5 Q333 1309 241 1317 L241 1370 L850 1370 L850 1317 Q775 1307 741.5 1281 Q708 1255 685 1170 L433 251 L417 180 Q415 170 413.5 159.5 Q412 149 412 140 Q412 88 440 74 Q468 60 561 52 L561 0 L-48 0 L-48 52 Z M442 82 L442 60 L416 46 Q323 -4 267 -53 Q181 -127 181 -194 Q181 -228 205.5 -257 Q230 -286 280 -286 Q309 -286 359 -265 Q409 -244 473 -203 L513 -269 Q407 -346 303 -377 Q245 -395 201 -395 Q108 -395 53 -341.5 Q-2 -288 -2 -222 Q-2 -117 124 -40.5 Q250 36 413 75 L442 82 Z " />
<glyph glyph-name="iogonek" unicode="&#x12f;" horiz-adv-x="569" d="M54 118 Q54 143 66 197 Q73 228 87 279 L210 739 Q212 747 213.5 755 Q215 763 215 770 Q215 811 189 821 Q163 831 94 834 L94 888 Q152 892 262.5 904.5 Q373 917 419 926 L507 943 L348 360 Q328 285 321 256 Q303 182 303 160 Q303 138 313 131.5 Q323 125 335 125 Q366 125 412 178 Q458 231 493 289 L538 260 Q438 113 385 62 Q298 -22 199 -22 Q143 -22 98.5 12.5 Q54 47 54 118 Z M450 1400 Q507 1400 547 1360 Q587 1320 587 1263 Q587 1206 547 1165.5 Q507 1125 450 1125 Q393 1125 352.5 1165.5 Q312 1206 312 1263 Q312 1320 352.5 1360 Q393 1400 450 1400 Z M368 52 L368 30 L342 16 Q249 -34 193 -83 Q107 -157 107 -224 Q107 -258 131.5 -287 Q156 -316 206 -316 Q235 -316 285 -295 Q335 -274 399 -233 L439 -299 Q333 -376 229 -407 Q171 -425 127 -425 Q34 -425 -21 -371.5 Q-76 -318 -76 -252 Q-76 -147 50 -70.5 Q176 6 339 45 L368 52 Z " />
<glyph glyph-name="IJ" unicode="&#x132;" horiz-adv-x="1821" d="M-48 52 Q25 61 60 88 Q95 115 118 199 L369 1118 Q380 1157 385.5 1183.5 Q391 1210 391 1230 Q391 1282 362 1295.5 Q333 1309 241 1317 L241 1370 L850 1370 L850 1317 Q775 1307 741.5 1281 Q708 1255 685 1170 L433 251 L417 180 Q415 170 413.5 159.5 Q412 149 412 140 Q412 88 440 74 Q468 60 561 52 L561 0 L-48 0 L-48 52 Z M1820 1370 L1820 1317 Q1749 1308 1721 1288 Q1678 1257 1654 1170 L1391 189 Q1340 -2 1243 -103 Q1145 -204 941 -204 Q799 -204 725 -138.5 Q651 -73 651 9 Q651 67 688.5 106 Q726 145 782 145 Q845 145 880 108.5 Q915 72 915 23 Q915 -12 889.5 -47 Q864 -82 864 -100 Q864 -114 877 -122 Q889 -131 912 -131 Q952 -131 982.5 -103 Q1013 -75 1043 9 Q1060 54 1073 102 Q1080 127 1114 256 L1339 1118 Q1352 1165 1356 1189.5 Q1360 1214 1360 1233 Q1360 1283 1332 1296 Q1304 1309 1211 1317 L1211 1370 L1820 1370 Z " />
<glyph glyph-name="ij" unicode="&#x133;" horiz-adv-x="1138" d="M54 118 Q54 143 66 197 Q73 228 87 279 L210 739 Q212 747 213.5 755 Q215 763 215 770 Q215 811 189 821 Q163 831 94 834 L94 888 Q152 892 262.5 904.5 Q373 917 419 926 L507 943 L348 360 Q328 285 321 256 Q303 182 303 160 Q303 138 313 131.5 Q323 125 335 125 Q366 125 412 178 Q458 231 493 289 L538 260 Q438 113 385 62 Q298 -22 199 -22 Q143 -22 98.5 12.5 Q54 47 54 118 Z M450 1400 Q507 1400 547 1360 Q587 1320 587 1263 Q587 1206 547 1165.5 Q507 1125 450 1125 Q393 1125 352.5 1165.5 Q312 1206 312 1263 Q312 1320 352.5 1360 Q393 1400 450 1400 Z M862 49 Q797 -196 691 -311.5 Q585 -427 432 -427 Q342 -427 278.5 -383 Q215 -339 215 -273 Q215 -214 245 -186.5 Q275 -159 319 -159 Q357 -159 389 -186.5 Q421 -214 421 -261 Q421 -282 414.5 -296.5 Q408 -311 388 -339 Q394 -351 406.5 -357 Q419 -363 438 -363 Q485 -363 527 -274 Q551 -222 584 -95 L772 635 Q784 680 791 715 Q798 750 798 770 Q798 812 774 822 Q750 832 670 834 L670 888 Q796 897 864 906 Q932 915 1096 943 L945 360 L862 49 Z M1039 1400 Q1097 1400 1137 1360 Q1177 1320 1177 1263 Q1177 1206 1136.5 1165.5 Q1096 1125 1039 1125 Q982 1125 942 1165.5 Q902 1206 902 1263 Q902 1320 942 1360 Q982 1400 1039 1400 Z " />
<glyph glyph-name="Jcircumflex" unicode="&#x134;" horiz-adv-x="1024" d="M1073 1370 L1073 1317 Q1002 1308 974 1288 Q931 1257 907 1170 L644 189 Q593 -2 496 -103 Q398 -204 194 -204 Q52 -204 -22 -138.5 Q-96 -73 -96 9 Q-96 67 -58.5 106 Q-21 145 35 145 Q98 145 133 108.5 Q168 72 168 23 Q168 -12 142.5 -47 Q117 -82 117 -100 Q117 -114 130 -122 Q142 -131 165 -131 Q205 -131 235.5 -103 Q266 -75 296 9 Q313 54 326 102 Q333 127 367 256 L592 1118 Q605 1165 609 1189.5 Q613 1214 613 1233 Q613 1283 585 1296 Q557 1309 464 1317 L464 1370 L1073 1370 Z M1138 1497 L958 1691 L687 1497 L571 1497 L898 1852 L1064 1852 L1242 1497 L1138 1497 Z " />
<glyph glyph-name="jcircumflex" unicode="&#x135;" horiz-adv-x="569" d="M327 49 Q262 -196 156 -311.5 Q50 -427 -103 -427 Q-193 -427 -256.5 -383 Q-320 -339 -320 -273 Q-320 -214 -290 -186.5 Q-260 -159 -216 -159 Q-178 -159 -146 -186.5 Q-114 -214 -114 -261 Q-114 -282 -120.5 -296.5 Q-127 -311 -147 -339 Q-141 -351 -128.5 -357 Q-116 -363 -97 -363 Q-50 -363 -8 -274 Q16 -222 49 -95 L237 635 Q249 680 256 715 Q263 750 263 770 Q263 812 239 822 Q215 832 135 834 L135 888 Q261 897 329 906 Q397 915 561 943 L410 360 L327 49 Z M674 1024 L494 1218 L223 1024 L107 1024 L434 1379 L600 1379 L778 1024 L674 1024 Z " />
<glyph glyph-name="Lacute" unicode="&#x139;" horiz-adv-x="1251" d="M-48 52 Q25 61 60 88 Q95 115 118 199 L369 1118 Q380 1157 385.5 1183.5 Q391 1210 391 1230 Q391 1282 362 1295.5 Q333 1309 241 1317 L241 1370 L891 1370 L891 1317 Q784 1306 747 1283.5 Q710 1261 685 1170 L419 192 Q415 176 412.5 162 Q410 148 410 129 Q410 95 440 80.5 Q470 66 524 66 Q735 66 888.5 138 Q1042 210 1159 407 L1208 398 L1088 0 L-48 0 L-48 52 Z M930 1774 Q923 1742 900 1722 Q877 1702 831 1679 L483 1502 L383 1502 L689 1770 Q764 1836 805 1858 Q830 1871 853 1871 Q896 1871 917.5 1844 Q939 1817 930 1774 Z " />
<glyph glyph-name="lacute" unicode="&#x13a;" horiz-adv-x="569" d="M54 118 Q54 144 67 200 Q73 227 87 279 L329 1161 Q338 1195 342 1216 Q346 1237 346 1252 Q346 1297 316 1307 Q286 1317 218 1315 L218 1370 Q370 1385 423.5 1392.5 Q477 1400 644 1431 L348 360 Q326 279 321 257 Q303 184 303 160 Q303 139 314 132 Q325 125 334 125 Q364 125 410.5 177 Q457 229 493 289 L538 260 Q448 122 392 68 Q299 -22 194 -22 Q137 -22 95.5 16.5 Q54 55 54 118 Z M865 1755 Q858 1723 835 1703 Q812 1683 766 1660 L418 1483 L318 1483 L624 1751 Q699 1817 740 1839 Q765 1852 788 1852 Q831 1852 852.5 1825 Q874 1798 865 1755 Z " />
<glyph glyph-name="Lcaron" unicode="&#x13d;" horiz-adv-x="1393" d="M-48 52 Q25 61 60 88 Q95 115 118 199 L369 1118 Q380 1157 385.5 1183.5 Q391 1210 391 1230 Q391 1282 362 1295.5 Q333 1309 241 1317 L241 1370 L891 1370 L891 1317 Q784 1306 747 1283.5 Q710 1261 685 1170 L419 192 Q415 176 412.5 162 Q410 148 410 129 Q410 95 440 80.5 Q470 66 524 66 Q735 66 888.5 138 Q1042 210 1159 407 L1208 398 L1088 0 L-48 0 L-48 52 Z M907 770 Q1019 826 1080 869 Q1186 944 1201 1013 Q1208 1046 1146.5 1096.5 Q1085 1147 1101 1223 Q1115 1288 1164.5 1329 Q1214 1370 1277 1370 Q1355 1370 1392 1313 Q1429 1256 1411 1171 Q1375 1000 1159 849 Q1019 751 923 721 L907 770 Z " />
<glyph glyph-name="lcaron" unicode="&#x13e;" horiz-adv-x="1085" d="M54 118 Q54 144 67 200 Q73 227 87 279 L329 1161 Q338 1195 342 1216 Q346 1237 346 1252 Q346 1297 316 1307 Q286 1317 218 1315 L218 1370 Q370 1385 423.5 1392.5 Q477 1400 644 1431 L348 360 Q326 279 321 257 Q303 184 303 160 Q303 139 314 132 Q325 125 334 125 Q364 125 410.5 177 Q457 229 493 289 L538 260 Q448 122 392 68 Q299 -22 194 -22 Q137 -22 95.5 16.5 Q54 55 54 118 Z M610 831 Q722 887 783 930 Q889 1005 904 1074 Q911 1107 849.5 1157.5 Q788 1208 804 1284 Q818 1349 867.5 1390 Q917 1431 980 1431 Q1058 1431 1095 1374 Q1132 1317 1114 1232 Q1078 1061 862 910 Q722 812 626 782 L610 831 Z " />
<glyph glyph-name="Ldotaccent" unicode="&#x13f;" horiz-adv-x="1251" d="M-48 52 Q25 61 60 88 Q95 115 118 199 L369 1118 Q380 1157 385.5 1183.5 Q391 1210 391 1230 Q391 1282 362 1295.5 Q333 1309 241 1317 L241 1370 L891 1370 L891 1317 Q784 1306 747 1283.5 Q710 1261 685 1170 L419 192 Q415 176 412.5 162 Q410 148 410 129 Q410 95 440 80.5 Q470 66 524 66 Q735 66 888.5 138 Q1042 210 1159 407 L1208 398 L1088 0 L-48 0 L-48 52 Z M790 554 Q733 554 693 594 Q653 634 653 691 Q653 748 693 788.5 Q733 829 790 829 Q847 829 887.5 788.5 Q928 748 928 691 Q928 635 888 594.5 Q848 554 790 554 Z " />
<glyph glyph-name="ldotaccent" unicode="&#x140;" horiz-adv-x="829" d="M54 118 Q54 144 67 200 Q73 227 87 279 L329 1161 Q338 1195 342 1216 Q346 1237 346 1252 Q346 1297 316 1307 Q286 1317 218 1315 L218 1370 Q370 1385 423.5 1392.5 Q477 1400 644 1431 L348 360 Q326 279 321 257 Q303 184 303 160 Q303 139 314 132 Q325 125 334 125 Q364 125 410.5 177 Q457 229 493 289 L538 260 Q448 122 392 68 Q299 -22 194 -22 Q137 -22 95.5 16.5 Q54 55 54 118 Z M681 634 Q624 634 584 674 Q544 714 544 771 Q544 828 584 868.5 Q624 909 681 909 Q738 909 778.5 868.5 Q819 828 819 771 Q819 715 779 674.5 Q739 634 681 634 Z " />
<glyph glyph-name="Nacute" unicode="&#x143;" horiz-adv-x="1479" d="M-57 52 Q23 63 58 114 Q93 165 151 365 L395 1206 L386 1227 Q363 1282 323 1300 Q297 1312 227 1317 L227 1370 L625 1370 L1069 419 L1230 1002 Q1245 1056 1254 1098 Q1268 1162 1268 1191 Q1268 1266 1216 1294 Q1184 1311 1104 1317 L1104 1370 L1531 1370 L1531 1317 L1502 1313 Q1439 1304 1405 1242.5 Q1371 1181 1322 1005 L1031 -34 L971 -34 L448 1099 L244 365 Q219 274 211 229 Q206 201 206 174 Q206 102 260 74 Q291 58 369 52 L369 0 L-57 0 L-57 52 Z M1220 1770 Q1213 1738 1190 1718 Q1167 1698 1121 1675 L773 1498 L673 1498 L979 1766 Q1054 1832 1095 1854 Q1120 1867 1143 1867 Q1186 1867 1207.5 1840 Q1229 1813 1220 1770 Z " />
<glyph glyph-name="nacute" unicode="&#x144;" horiz-adv-x="1139" d="M49 0 L232 654 Q243 694 248 717 Q258 760 258 777 Q258 814 235 823 Q212 832 146 834 L146 888 Q274 896 345 906 Q416 916 557 943 L433 564 L438 561 Q433 556 498 652.5 Q563 749 622 809 Q680 870 743.5 906.5 Q807 943 877 943 Q942 943 987.5 906 Q1033 869 1033 785 Q1033 707 943 441 Q852 176 852 157 Q852 139 863 129.5 Q874 120 885 120 Q912 120 965 188 Q993 224 1026 277 L1071 248 Q995 125 942 71 Q850 -22 747 -22 Q692 -22 648.5 10 Q605 42 605 111 Q605 155 626 239 Q647 323 677 412 L779 718 Q782 729 784 737 Q786 745 786 753 Q786 776 770.5 785 Q755 794 737 794 Q674 794 597 696.5 Q520 599 471 502 Q418 397 382 289 Q346 181 296 0 L49 0 Z M961 1318 Q954 1286 931 1266 Q908 1246 862 1223 L514 1046 L414 1046 L720 1314 Q795 1380 836 1402 Q861 1415 884 1415 Q927 1415 948.5 1388 Q970 1361 961 1318 Z " />
<glyph glyph-name="Ncaron" unicode="&#x147;" horiz-adv-x="1479" d="M-57 52 Q23 63 58 114 Q93 165 151 365 L395 1206 L386 1227 Q363 1282 323 1300 Q297 1312 227 1317 L227 1370 L625 1370 L1069 419 L1230 1002 Q1245 1056 1254 1098 Q1268 1162 1268 1191 Q1268 1266 1216 1294 Q1184 1311 1104 1317 L1104 1370 L1531 1370 L1531 1317 L1502 1313 Q1439 1304 1405 1242.5 Q1371 1181 1322 1005 L1031 -34 L971 -34 L448 1099 L244 365 Q219 274 211 229 Q206 201 206 174 Q206 102 260 74 Q291 58 369 52 L369 0 L-57 0 L-57 52 Z M724 1858 L911 1659 L1186 1858 L1302 1858 L970 1503 L802 1503 L622 1858 L724 1858 Z " />
<glyph glyph-name="ncaron" unicode="&#x148;" horiz-adv-x="1139" d="M49 0 L232 654 Q243 694 248 717 Q258 760 258 777 Q258 814 235 823 Q212 832 146 834 L146 888 Q274 896 345 906 Q416 916 557 943 L433 564 L438 561 Q433 556 498 652.5 Q563 749 622 809 Q680 870 743.5 906.5 Q807 943 877 943 Q942 943 987.5 906 Q1033 869 1033 785 Q1033 707 943 441 Q852 176 852 157 Q852 139 863 129.5 Q874 120 885 120 Q912 120 965 188 Q993 224 1026 277 L1071 248 Q995 125 942 71 Q850 -22 747 -22 Q692 -22 648.5 10 Q605 42 605 111 Q605 155 626 239 Q647 323 677 412 L779 718 Q782 729 784 737 Q786 745 786 753 Q786 776 770.5 785 Q755 794 737 794 Q674 794 597 696.5 Q520 599 471 502 Q418 397 382 289 Q346 181 296 0 L49 0 Z M537 1401 L724 1202 L999 1401 L1115 1401 L783 1046 L615 1046 L435 1401 L537 1401 Z " />
<glyph glyph-name="quoterightn" unicode="&#x149;" horiz-adv-x="1139" d="M49 0 L232 654 Q243 694 248 717 Q258 760 258 777 Q258 814 235 823 Q212 832 146 834 L146 888 Q274 896 345 906 Q416 916 557 943 L433 564 L438 561 Q433 556 498 652.5 Q563 749 622 809 Q680 870 743.5 906.5 Q807 943 877 943 Q942 943 987.5 906 Q1033 869 1033 785 Q1033 707 943 441 Q852 176 852 157 Q852 139 863 129.5 Q874 120 885 120 Q912 120 965 188 Q993 224 1026 277 L1071 248 Q995 125 942 71 Q850 -22 747 -22 Q692 -22 648.5 10 Q605 42 605 111 Q605 155 626 239 Q647 323 677 412 L779 718 Q782 729 784 737 Q786 745 786 753 Q786 776 770.5 785 Q755 794 737 794 Q674 794 597 696.5 Q520 599 471 502 Q418 397 382 289 Q346 181 296 0 L49 0 Z M166 1094 Q278 1150 339 1193 Q445 1268 460 1337 Q467 1370 405.5 1420.5 Q344 1471 360 1547 Q374 1612 423.5 1653 Q473 1694 536 1694 Q614 1694 651 1637 Q688 1580 670 1495 Q634 1324 418 1173 Q278 1075 182 1045 L166 1094 Z " />
<glyph glyph-name="Omacron" unicode="&#x14c;" horiz-adv-x="1479" d="M54 452 Q54 788 310 1089 Q578 1403 910 1403 Q1131 1403 1273 1270 Q1415 1137 1415 910 Q1415 579 1164 281 Q896 -38 548 -38 Q329 -38 191.5 95.5 Q54 229 54 452 Z M348 308 Q348 219 373 156 Q422 33 551 33 Q672 33 771 122.5 Q870 212 976 464 Q1043 623 1081 799 Q1119 975 1119 1084 Q1119 1187 1068 1260.5 Q1017 1334 909 1334 Q654 1334 480 881 Q348 537 348 308 Z M671 1505 L704 1647 L1370 1647 L1337 1505 L671 1505 Z " />
<glyph glyph-name="omacron" unicode="&#x14d;" horiz-adv-x="1024" d="M636 943 Q740 943 822 896 Q966 814 966 617 Q966 399 800 194 Q619 -29 386 -29 Q267 -29 160.5 45 Q54 119 54 295 Q54 514 219 719 Q400 943 636 943 Z M298 175 Q298 122 311 92 Q336 35 405 35 Q533 35 635 329 Q720 576 720 756 Q720 804 708 831 Q685 881 622 881 Q475 881 375 569 Q298 332 298 175 Z M361 1049 L394 1191 L1060 1191 L1027 1049 L361 1049 Z " />
<glyph glyph-name="Obreve" unicode="&#x14e;" horiz-adv-x="1479" d="M54 452 Q54 788 310 1089 Q578 1403 910 1403 Q1131 1403 1273 1270 Q1415 1137 1415 910 Q1415 579 1164 281 Q896 -38 548 -38 Q329 -38 191.5 95.5 Q54 229 54 452 Z M348 308 Q348 219 373 156 Q422 33 551 33 Q672 33 771 122.5 Q870 212 976 464 Q1043 623 1081 799 Q1119 975 1119 1084 Q1119 1187 1068 1260.5 Q1017 1334 909 1334 Q654 1334 480 881 Q348 537 348 308 Z M791 1836 Q796 1754 842.5 1702.5 Q889 1651 1002 1651 Q1089 1651 1158 1690 Q1227 1729 1270 1836 L1350 1836 Q1338 1725 1252.5 1614 Q1167 1503 987 1503 Q804 1503 741 1622 Q705 1689 703 1836 L791 1836 Z " />
<glyph glyph-name="obreve" unicode="&#x14f;" horiz-adv-x="1024" d="M636 943 Q740 943 822 896 Q966 814 966 617 Q966 399 800 194 Q619 -29 386 -29 Q267 -29 160.5 45 Q54 119 54 295 Q54 514 219 719 Q400 943 636 943 Z M298 175 Q298 122 311 92 Q336 35 405 35 Q533 35 635 329 Q720 576 720 756 Q720 804 708 831 Q685 881 622 881 Q475 881 375 569 Q298 332 298 175 Z M523 1378 Q528 1296 574.5 1244.5 Q621 1193 734 1193 Q821 1193 890 1232 Q959 1271 1002 1378 L1082 1378 Q1070 1267 984.5 1156 Q899 1045 719 1045 Q536 1045 473 1164 Q437 1231 435 1378 L523 1378 Z " />
<glyph glyph-name="Ohungarumlaut" unicode="&#x150;" horiz-adv-x="1479" d="M54 452 Q54 788 310 1089 Q578 1403 910 1403 Q1131 1403 1273 1270 Q1415 1137 1415 910 Q1415 579 1164 281 Q896 -38 548 -38 Q329 -38 191.5 95.5 Q54 229 54 452 Z M348 308 Q348 219 373 156 Q422 33 551 33 Q672 33 771 122.5 Q870 212 976 464 Q1043 623 1081 799 Q1119 975 1119 1084 Q1119 1187 1068 1260.5 Q1017 1334 909 1334 Q654 1334 480 881 Q348 537 348 308 Z M1505 1783 Q1505 1744 1485 1722.5 Q1465 1701 1422 1674 L1131 1494 L1017 1494 L1297 1817 Q1321 1845 1346 1859 Q1371 1873 1404 1873 Q1451 1873 1478 1847.5 Q1505 1822 1505 1783 Z M1126 1783 Q1126 1756 1109 1732.5 Q1092 1709 1043 1674 L766 1478 L652 1478 L917 1817 Q939 1845 966 1859 Q993 1873 1026 1873 Q1079 1873 1102.5 1844 Q1126 1815 1126 1783 Z " />
<glyph glyph-name="ohungarumlaut" unicode="&#x151;" horiz-adv-x="1024" d="M636 943 Q740 943 822 896 Q966 814 966 617 Q966 399 800 194 Q619 -29 386 -29 Q267 -29 160.5 45 Q54 119 54 295 Q54 514 219 719 Q400 943 636 943 Z M298 175 Q298 122 311 92 Q336 35 405 35 Q533 35 635 329 Q720 576 720 756 Q720 804 708 831 Q685 881 622 881 Q475 881 375 569 Q298 332 298 175 Z M1150 1315 Q1150 1276 1130 1254.5 Q1110 1233 1067 1206 L776 1026 L662 1026 L942 1349 Q966 1377 991 1391 Q1016 1405 1049 1405 Q1096 1405 1123 1379.5 Q1150 1354 1150 1315 Z M771 1315 Q771 1288 754 1264.5 Q737 1241 688 1206 L411 1010 L297 1010 L562 1349 Q584 1377 611 1391 Q638 1405 671 1405 Q724 1405 747.5 1376 Q771 1347 771 1315 Z " />
<glyph glyph-name="Racute" unicode="&#x154;" horiz-adv-x="1366" d="M-62 52 Q11 61 46 88 Q81 115 104 199 L355 1118 Q362 1146 367 1167 Q376 1210 376 1234 Q376 1283 348 1296 Q320 1309 227 1317 L227 1370 L791 1370 Q980 1370 1084 1333 Q1275 1265 1275 1073 Q1275 1009 1243 936.5 Q1211 864 1136 805 Q1083 763 1012 737 Q970 722 881 701 Q890 669 893 661 L1052 199 Q1084 106 1120.5 80.5 Q1157 55 1232 52 L1232 0 L820 0 L599 677 L540 677 L419 251 L402 180 Q400 172 399 162.5 Q398 153 398 143 Q398 88 424.5 74 Q451 60 547 52 L547 0 L-62 0 L-62 52 Z M559 744 Q669 746 723 758 Q819 778 870 836 Q905 876 935.5 948.5 Q966 1021 966 1105 Q966 1191 923 1247.5 Q880 1304 777 1304 Q734 1304 715 1285.5 Q696 1267 682 1213 L559 744 Z M1083 1758 Q1076 1726 1053 1706 Q1030 1686 984 1663 L636 1486 L536 1486 L842 1754 Q917 1820 958 1842 Q983 1855 1006 1855 Q1049 1855 1070.5 1828 Q1092 1801 1083 1758 Z " />
<glyph glyph-name="racute" unicode="&#x155;" horiz-adv-x="797" d="M18 0 Q108 293 165 504 Q227 731 227 774 Q227 812 202 823 Q177 834 116 834 L116 888 Q244 896 332 909 Q389 917 526 943 L412 580 L421 578 Q509 748 562 819 Q655 943 741 943 Q801 943 829.5 903 Q858 863 858 814 Q858 755 826.5 708 Q795 661 739 661 Q714 661 692.5 671 Q671 681 656 701 L637 725 Q632 731 626.5 735 Q621 739 612 739 Q573 739 510 633 Q447 527 404 417 Q374 341 330 201 Q286 61 265 0 L18 0 Z M823 1329 Q816 1297 793 1277 Q770 1257 724 1234 L376 1057 L276 1057 L582 1325 Q657 1391 698 1413 Q723 1426 746 1426 Q789 1426 810.5 1399 Q832 1372 823 1329 Z " />
<glyph glyph-name="Rcaron" unicode="&#x158;" horiz-adv-x="1366" d="M-62 52 Q11 61 46 88 Q81 115 104 199 L355 1118 Q362 1146 367 1167 Q376 1210 376 1234 Q376 1283 348 1296 Q320 1309 227 1317 L227 1370 L791 1370 Q980 1370 1084 1333 Q1275 1265 1275 1073 Q1275 1009 1243 936.5 Q1211 864 1136 805 Q1083 763 1012 737 Q970 722 881 701 Q890 669 893 661 L1052 199 Q1084 106 1120.5 80.5 Q1157 55 1232 52 L1232 0 L820 0 L599 677 L540 677 L419 251 L402 180 Q400 172 399 162.5 Q398 153 398 143 Q398 88 424.5 74 Q451 60 547 52 L547 0 L-62 0 L-62 52 Z M559 744 Q669 746 723 758 Q819 778 870 836 Q905 876 935.5 948.5 Q966 1021 966 1105 Q966 1191 923 1247.5 Q880 1304 777 1304 Q734 1304 715 1285.5 Q696 1267 682 1213 L559 744 Z M622 1858 L809 1659 L1084 1858 L1200 1858 L868 1503 L700 1503 L520 1858 L622 1858 Z " />
<glyph glyph-name="rcaron" unicode="&#x159;" horiz-adv-x="797" d="M18 0 Q108 293 165 504 Q227 731 227 774 Q227 812 202 823 Q177 834 116 834 L116 888 Q244 896 332 909 Q389 917 526 943 L412 580 L421 578 Q509 748 562 819 Q655 943 741 943 Q801 943 829.5 903 Q858 863 858 814 Q858 755 826.5 708 Q795 661 739 661 Q714 661 692.5 671 Q671 681 656 701 L637 725 Q632 731 626.5 735 Q621 739 612 739 Q573 739 510 633 Q447 527 404 417 Q374 341 330 201 Q286 61 265 0 L18 0 Z M315 1390 L502 1191 L777 1390 L893 1390 L561 1035 L393 1035 L213 1390 L315 1390 Z " />
<glyph glyph-name="Sacute" unicode="&#x15a;" horiz-adv-x="1139" d="M11 -38 L85 421 L144 417 Q150 319 161 274 Q180 199 230 141 Q276 88 334.5 60.5 Q393 33 462 33 Q585 33 652.5 111.5 Q720 190 720 294 Q720 423 469 620 Q218 826 218 1001 Q218 1166 328.5 1282 Q439 1398 637 1398 Q692 1398 750 1387 Q788 1380 817 1370 L869 1353 Q886 1348 904 1344.5 Q922 1341 936 1341 Q972 1341 991 1356 Q1010 1371 1024 1393 L1085 1393 L1002 983 L948 990 L941 1057 Q928 1152 882 1220 Q810 1327 672 1327 Q554 1327 500 1241 Q464 1184 464 1118 Q464 1048 501 994 Q522 964 564 929 L741 784 Q835 707 901 608.5 Q967 510 967 384 Q967 222 839.5 91.5 Q712 -39 489 -39 Q433 -39 376.5 -28.5 Q320 -18 265 2 L213 21 Q187 31 177 33.5 Q167 36 154 36 Q120 36 105.5 19.5 Q91 3 73 -38 L11 -38 Z M1032 1781 Q1025 1749 1002 1729 Q979 1709 933 1686 L585 1509 L485 1509 L791 1777 Q866 1843 907 1865 Q932 1878 955 1878 Q998 1878 1019.5 1851 Q1041 1824 1032 1781 Z " />
<glyph glyph-name="sacute" unicode="&#x15b;" horiz-adv-x="797" d="M78 312 L132 308 Q147 157 209 96 Q271 35 331 35 Q383 35 414 68 Q445 101 445 146 Q445 187 417.5 236 Q390 285 353 331 L277 426 Q227 480 192 552 Q157 624 157 696 Q157 798 234 872 Q311 946 443 946 Q497 946 557 923 Q617 900 636 900 Q660 900 672 911 Q684 922 694 943 L753 943 L706 630 L651 635 Q632 765 580.5 822 Q529 879 472 879 Q415 879 388.5 845 Q362 811 362 770 Q362 734 381.5 699.5 Q401 665 457 594 L557 466 Q590 424 616 364.5 Q642 305 642 246 Q642 122 553 46.5 Q464 -29 336 -29 Q282 -29 220.5 -7.5 Q159 14 146 14 Q121 14 108 1 Q95 -12 87 -29 L33 -29 L78 312 Z M798 1316 Q791 1284 768 1264 Q745 1244 699 1221 L351 1044 L251 1044 L557 1312 Q632 1378 673 1400 Q698 1413 721 1413 Q764 1413 785.5 1386 Q807 1359 798 1316 Z " />
<glyph glyph-name="Scircumflex" unicode="&#x15c;" horiz-adv-x="1139" d="M11 -38 L85 421 L144 417 Q150 319 161 274 Q180 199 230 141 Q276 88 334.5 60.5 Q393 33 462 33 Q585 33 652.5 111.5 Q720 190 720 294 Q720 423 469 620 Q218 826 218 1001 Q218 1166 328.5 1282 Q439 1398 637 1398 Q692 1398 750 1387 Q788 1380 817 1370 L869 1353 Q886 1348 904 1344.5 Q922 1341 936 1341 Q972 1341 991 1356 Q1010 1371 1024 1393 L1085 1393 L1002 983 L948 990 L941 1057 Q928 1152 882 1220 Q810 1327 672 1327 Q554 1327 500 1241 Q464 1184 464 1118 Q464 1048 501 994 Q522 964 564 929 L741 784 Q835 707 901 608.5 Q967 510 967 384 Q967 222 839.5 91.5 Q712 -39 489 -39 Q433 -39 376.5 -28.5 Q320 -18 265 2 L213 21 Q187 31 177 33.5 Q167 36 154 36 Q120 36 105.5 19.5 Q91 3 73 -38 L11 -38 Z M1012 1514 L832 1708 L561 1514 L445 1514 L772 1869 L938 1869 L1116 1514 L1012 1514 Z " />
<glyph glyph-name="scircumflex" unicode="&#x15d;" horiz-adv-x="797" d="M78 312 L132 308 Q147 157 209 96 Q271 35 331 35 Q383 35 414 68 Q445 101 445 146 Q445 187 417.5 236 Q390 285 353 331 L277 426 Q227 480 192 552 Q157 624 157 696 Q157 798 234 872 Q311 946 443 946 Q497 946 557 923 Q617 900 636 900 Q660 900 672 911 Q684 922 694 943 L753 943 L706 630 L651 635 Q632 765 580.5 822 Q529 879 472 879 Q415 879 388.5 845 Q362 811 362 770 Q362 734 381.5 699.5 Q401 665 457 594 L557 466 Q590 424 616 364.5 Q642 305 642 246 Q642 122 553 46.5 Q464 -29 336 -29 Q282 -29 220.5 -7.5 Q159 14 146 14 Q121 14 108 1 Q95 -12 87 -29 L33 -29 L78 312 Z M661 1033 L481 1227 L210 1033 L94 1033 L421 1388 L587 1388 L765 1033 L661 1033 Z " />
<glyph glyph-name="Tcedilla" unicode="&#x162;" horiz-adv-x="1251" d="M80 52 Q174 52 209 70 Q265 99 293 199 L597 1298 Q444 1299 335 1224.5 Q226 1150 154 1005 L101 1019 L180 1370 L1308 1370 L1234 976 L1180 981 Q1175 1181 1068 1254 Q1010 1294 896 1298 L609 251 L592 180 Q589 166 588 157 Q587 148 587 139 Q587 86 620 72.5 Q653 59 758 52 L758 0 L80 0 L80 52 Z M218 -265 Q269 -288 299.5 -294 Q330 -300 359 -300 Q425 -300 448.5 -274.5 Q472 -249 472 -215 Q472 -188 448.5 -165 Q425 -142 370 -142 Q351 -142 338.5 -144 Q326 -146 310 -151 L284 -125 L422 74 L512 74 L419 -63 Q440 -61 450.5 -60 Q461 -59 473 -59 Q548 -59 602.5 -97 Q657 -135 657 -209 Q657 -290 582 -336.5 Q507 -383 400 -383 Q329 -383 261 -365 Q221 -354 173 -334 L218 -265 Z " />
<glyph glyph-name="tcedilla" unicode="&#x163;" horiz-adv-x="569" d="M33 118 Q33 139 39.5 173 Q46 207 66 279 L220 834 L116 834 L116 905 Q217 946 286 995 Q408 1081 490 1216 L564 1216 L483 919 L630 919 L630 834 L459 834 L327 360 Q309 297 299 255 Q282 183 282 156 Q282 137 293.5 131 Q305 125 313 125 Q342 125 387.5 175 Q433 225 471 289 L516 260 Q425 122 370 68 Q277 -22 173 -22 Q113 -22 73 17.5 Q33 57 33 118 Z M-22 -287 Q29 -310 59.5 -316 Q90 -322 119 -322 Q185 -322 208.5 -296.5 Q232 -271 232 -237 Q232 -210 208.5 -187 Q185 -164 130 -164 Q111 -164 98.5 -166 Q86 -168 70 -173 L44 -147 L182 52 L272 52 L179 -85 Q200 -83 210.5 -82 Q221 -81 233 -81 Q308 -81 362.5 -119 Q417 -157 417 -231 Q417 -312 342 -358.5 Q267 -405 160 -405 Q89 -405 21 -387 Q-19 -376 -67 -356 L-22 -287 Z " />
<glyph glyph-name="Tcaron" unicode="&#x164;" horiz-adv-x="1251" d="M80 52 Q174 52 209 70 Q265 99 293 199 L597 1298 Q444 1299 335 1224.5 Q226 1150 154 1005 L101 1019 L180 1370 L1308 1370 L1234 976 L1180 981 Q1175 1181 1068 1254 Q1010 1294 896 1298 L609 251 L592 180 Q589 166 588 157 Q587 148 587 139 Q587 86 620 72.5 Q653 59 758 52 L758 0 L80 0 L80 52 Z M648 1847 L835 1648 L1110 1847 L1226 1847 L894 1492 L726 1492 L546 1847 L648 1847 Z " />
<glyph glyph-name="tcaron" unicode="&#x165;" horiz-adv-x="1096" d="M33 118 Q33 139 39.5 173 Q46 207 66 279 L220 834 L116 834 L116 905 Q217 946 286 995 Q408 1081 490 1216 L564 1216 L483 919 L630 919 L630 834 L459 834 L327 360 Q309 297 299 255 Q282 183 282 156 Q282 137 293.5 131 Q305 125 313 125 Q342 125 387.5 175 Q433 225 471 289 L516 260 Q425 122 370 68 Q277 -22 173 -22 Q113 -22 73 17.5 Q33 57 33 118 Z M644 940 Q756 996 817 1039 Q923 1114 938 1183 Q945 1216 883.5 1266.5 Q822 1317 838 1393 Q852 1458 901.5 1499 Q951 1540 1014 1540 Q1092 1540 1129 1483 Q1166 1426 1148 1341 Q1112 1170 896 1019 Q756 921 660 891 L644 940 Z " />
<glyph glyph-name="Tbar" unicode="&#x166;" horiz-adv-x="1251" d="M80 52 Q174 52 209 70 Q265 99 293 199 L597 1298 Q444 1299 335 1224.5 Q226 1150 154 1005 L101 1019 L180 1370 L1308 1370 L1234 976 L1180 981 Q1175 1181 1068 1254 Q1010 1294 896 1298 L609 251 L592 180 Q589 166 588 157 Q587 148 587 139 Q587 86 620 72.5 Q653 59 758 52 L758 0 L80 0 L80 52 Z M216 627 L249 769 L915 769 L882 627 L216 627 Z " />
<glyph glyph-name="tbar" unicode="&#x167;" horiz-adv-x="569" d="M33 118 Q33 139 39.5 173 Q46 207 66 279 L220 834 L116 834 L116 905 Q217 946 286 995 Q408 1081 490 1216 L564 1216 L483 919 L630 919 L630 834 L459 834 L327 360 Q309 297 299 255 Q282 183 282 156 Q282 137 293.5 131 Q305 125 313 125 Q342 125 387.5 175 Q433 225 471 289 L516 260 Q425 122 370 68 Q277 -22 173 -22 Q113 -22 73 17.5 Q33 57 33 118 Z M-92 530 L-59 672 L607 672 L574 530 L-92 530 Z " />
<glyph glyph-name="Utilde" unicode="&#x168;" horiz-adv-x="1479" d="M329 1118 Q338 1152 344 1182 Q350 1212 350 1234 Q350 1283 322 1296 Q294 1309 201 1317 L201 1370 L836 1370 L836 1317 Q743 1308 706.5 1285 Q670 1262 644 1170 L476 557 Q453 475 441 423 Q420 330 420 286 Q420 185 487.5 131.5 Q555 78 671 78 Q865 78 975 247 Q1040 345 1104 578 L1223 1005 Q1246 1098 1244 1086 Q1261 1162 1261 1195 Q1261 1267 1207 1295 Q1175 1311 1097 1317 L1097 1370 L1524 1370 L1524 1317 Q1446 1308 1409.5 1257.5 Q1373 1207 1315 1005 L1180 538 Q1099 259 1015 149 Q871 -38 592 -38 Q400 -38 268 54.5 Q136 147 136 312 Q136 373 152 451 Q162 498 194 616 L329 1118 Z M720 1480 Q738 1573 795 1647.5 Q852 1722 960 1722 Q1018 1722 1127.5 1679.5 Q1237 1637 1265 1637 Q1309 1637 1338 1668 Q1354 1684 1372 1722 L1455 1722 Q1431 1609 1369.5 1543.5 Q1308 1478 1219 1478 Q1201 1478 1171.5 1482.5 Q1142 1487 1099 1504 L978 1551 Q957 1559 939.5 1563.5 Q922 1568 904 1568 Q859 1568 840 1546.5 Q821 1525 803 1480 L720 1480 Z " />
<glyph glyph-name="utilde" unicode="&#x169;" horiz-adv-x="1139" d="M101 142 Q101 168 110 213 Q119 258 130 296 L241 685 Q249 711 252.5 730 Q256 749 256 768 Q256 807 230.5 819.5 Q205 832 142 834 L142 888 Q351 907 455 925 Q559 943 568 943 L474 630 L376 315 Q369 293 360 257 Q346 203 346 177 Q346 152 358.5 140 Q371 128 394 128 Q444 128 525.5 223.5 Q607 319 678 478 Q724 581 760 688 Q783 759 829 919 L1071 919 L988 635 Q983 619 944 483.5 Q905 348 897 321 Q882 268 871 222.5 Q860 177 860 160 Q860 141 869.5 130.5 Q879 120 893 120 Q925 120 979 190 Q1010 229 1035 272 L1078 246 Q1020 135 932.5 56.5 Q845 -22 752 -22 Q670 -22 638 24 Q616 55 616 106 Q616 155 624 189.5 Q632 224 661 315 L656 317 Q530 137 468 77 Q366 -23 259 -23 Q207 -23 167 3 Q101 44 101 142 Z M373 1082 Q391 1175 448 1249.5 Q505 1324 613 1324 Q671 1324 780.5 1281.5 Q890 1239 918 1239 Q962 1239 991 1270 Q1007 1286 1025 1324 L1108 1324 Q1084 1211 1022.5 1145.5 Q961 1080 872 1080 Q854 1080 824.5 1084.5 Q795 1089 752 1106 L631 1153 Q610 1161 592.5 1165.5 Q575 1170 557 1170 Q512 1170 493 1148.5 Q474 1127 456 1082 L373 1082 Z " />
</font>
</svg>
