<svg xmlns="http://www.w3.org/2000/svg" viewBox="-1438.5 430.83 18 18"><defs><style>.a{fill:#999;}</style></defs><g transform="translate(-1438.539 430.73)"><path class="a" d="M5.569,21.729H3.711c-.63,0-.819-.209-.819-.775V17.646c0-.328,0-.328-.346-.328H.688a.578.578,0,0,1-.6-.3c-.126-.238,0-.447.189-.656l4.629-4.47c.661-.626.756-.626,1.417,0,1.543,1.49,3.086,2.98,4.629,4.5a.494.494,0,0,1,.157.626.519.519,0,0,1-.6.3H8.56c-.252,0-.315.06-.315.3v3.368c0,.566-.189.745-.787.745Z" transform="translate(0 -7.95)"/><path class="a" d="M17.026,51.169h-5.92c-.252,0-.315-.089-.315-.3,0-.536,0-1.073.031-1.609,0-.209-.063-.268-.283-.268a2.887,2.887,0,0,1-.724-.03c-.283-.06-.315.06-.315.268v2.444c0,.507.22.715.756.715h6.77Z" transform="translate(-6.482 -34.291)"/><g transform="translate(2.982 0.1)"><path class="a" d="M39.719,41.9c-.567,0-.819.238-.819.775v4.649L44.379,41.9Z" transform="translate(-29.605 -29.443)"/><path class="a" d="M21.009,1.292h1.763c.252,0,.346.089.346.328v9.6h1.323V.9c0-.6-.22-.8-.85-.8H10.113c-.472,0-.724.209-.724.656v3.4c0,.06-.031.149.063.209.063.03.094-.03.157-.089.315-.328.661-.626.976-.954a.4.4,0,0,0,.126-.328c0-.477,0-.954-.031-1.46,0-.179.063-.238.252-.238.882,0,1.763.03,2.614.03h6.109C20.127,1.292,20.568,1.292,21.009,1.292Z" transform="translate(-9.384 -0.1)"/></g></g></svg>