<svg xmlns="http://www.w3.org/2000/svg" viewBox="4734 845.417 55.833 55.833"><defs><style>.a{fill:#fff;}</style></defs><g transform="translate(4734 845.417)"><path class="a" d="M464.439,624.839v3.611H461.8v4.444h2.639v11.944h5.417V632.894h3.611s.278-2.083.556-4.444h-4.028v-3.056a1.324,1.324,0,0,1,1.111-1.111h2.917V619.7h-4.028C464.3,619.839,464.439,624.283,464.439,624.839Z" transform="translate(-439.994 -604.422)"/><path class="a" d="M474.017,610.783a25.833,25.833,0,1,1-25.833,25.833,25.873,25.873,0,0,1,25.833-25.833m0-2.083a27.917,27.917,0,1,0,27.917,27.917A27.918,27.918,0,0,0,474.017,608.7Z" transform="translate(-446.1 -608.7)"/></g></svg>