<svg id="6b49382b-aafa-4a07-b225-4f6049cb7cc3" data-name="Layer 3" xmlns="http://www.w3.org/2000/svg" xmlns:xlink="http://www.w3.org/1999/xlink" viewBox="0 0 40 40"><defs><clipPath id="569fd52c-ee6b-49b6-ab6d-71391e4a6922"><rect x="-1201" y="373.7" width="1020" height="509" fill="none"/></clipPath></defs><title>freccia</title><polygon points="34 18.7 15.6 18.7 15.6 10.2 5.8 19.4 15.5 30.1 15.6 21.7 34 21.7 34 18.7"/><g opacity="0.8"><g clip-path="url(#569fd52c-ee6b-49b6-ab6d-71391e4a6922)"><g opacity="0.15"><line x1="-511.4" y1="13.7" x2="5.2" y2="815" fill="none" stroke="#fff" stroke-miterlimit="10"/><line x1="-503.7" y1="10.3" x2="12.8" y2="811.5" fill="none" stroke="#fff" stroke-miterlimit="10"/><line x1="-496.1" y1="6.8" x2="20.5" y2="808" fill="none" stroke="#fff" stroke-miterlimit="10"/><line x1="-488.5" y1="3.3" x2="28.1" y2="804.5" fill="none" stroke="#fff" stroke-miterlimit="10"/><line x1="-480.8" y1="-0.2" x2="35.7" y2="801.1" fill="none" stroke="#fff" stroke-miterlimit="10"/><line x1="-473.2" y1="-3.6" x2="43.4" y2="797.6" fill="none" stroke="#fff" stroke-miterlimit="10"/><line x1="-465.6" y1="-7.1" x2="51" y2="794.1" fill="none" stroke="#fff" stroke-miterlimit="10"/><line x1="-457.9" y1="-10.6" x2="58.6" y2="790.7" fill="none" stroke="#fff" stroke-miterlimit="10"/><line x1="-450.3" y1="-14.1" x2="66.3" y2="787.2" fill="none" stroke="#fff" stroke-miterlimit="10"/><line x1="-442.7" y1="-17.5" x2="73.9" y2="783.7" fill="none" stroke="#fff" stroke-miterlimit="10"/><line x1="-435" y1="-21" x2="81.5" y2="780.2" fill="none" stroke="#fff" stroke-miterlimit="10"/><line x1="-427.4" y1="-24.5" x2="89.2" y2="776.8" fill="none" stroke="#fff" stroke-miterlimit="10"/><line x1="-419.8" y1="-27.9" x2="96.8" y2="773.3" fill="none" stroke="#fff" stroke-miterlimit="10"/><line x1="-412.1" y1="-31.4" x2="104.4" y2="769.8" fill="none" stroke="#fff" stroke-miterlimit="10"/><line x1="-404.5" y1="-34.9" x2="112.1" y2="766.3" fill="none" stroke="#fff" stroke-miterlimit="10"/><line x1="-396.9" y1="-38.4" x2="119.7" y2="762.9" fill="none" stroke="#fff" stroke-miterlimit="10"/><line x1="-389.2" y1="-41.8" x2="127.3" y2="759.4" fill="none" stroke="#fff" stroke-miterlimit="10"/><line x1="-381.6" y1="-45.3" x2="135" y2="755.9" fill="none" stroke="#fff" stroke-miterlimit="10"/><line x1="-374" y1="-48.8" x2="142.6" y2="752.4" fill="none" stroke="#fff" stroke-miterlimit="10"/><line x1="-366.3" y1="-52.3" x2="150.2" y2="749" fill="none" stroke="#fff" stroke-miterlimit="10"/><line x1="-358.7" y1="-55.7" x2="157.9" y2="745.5" fill="none" stroke="#fff" stroke-miterlimit="10"/><line x1="-351.1" y1="-59.2" x2="165.5" y2="742" fill="none" stroke="#fff" stroke-miterlimit="10"/><line x1="-343.4" y1="-62.7" x2="173.1" y2="738.6" fill="none" stroke="#fff" stroke-miterlimit="10"/><line x1="-335.8" y1="-66.2" x2="180.8" y2="735.1" fill="none" stroke="#fff" stroke-miterlimit="10"/><line x1="-328.2" y1="-69.6" x2="188.4" y2="731.6" fill="none" stroke="#fff" stroke-miterlimit="10"/><line x1="-320.5" y1="-73.1" x2="196" y2="728.1" fill="none" stroke="#fff" stroke-miterlimit="10"/><line x1="-312.9" y1="-76.6" x2="203.7" y2="724.7" fill="none" stroke="#fff" stroke-miterlimit="10"/><line x1="-305.3" y1="-80" x2="211.3" y2="721.2" fill="none" stroke="#fff" stroke-miterlimit="10"/><line x1="-297.6" y1="-83.5" x2="218.9" y2="717.7" fill="none" stroke="#fff" stroke-miterlimit="10"/><line x1="-290" y1="-87" x2="226.6" y2="714.2" fill="none" stroke="#fff" stroke-miterlimit="10"/><line x1="-282.4" y1="-90.5" x2="234.2" y2="710.8" fill="none" stroke="#fff" stroke-miterlimit="10"/><line x1="-274.7" y1="-93.9" x2="241.8" y2="707.3" fill="none" stroke="#fff" stroke-miterlimit="10"/><line x1="-267.1" y1="-97.4" x2="249.5" y2="703.8" fill="none" stroke="#fff" stroke-miterlimit="10"/><line x1="-259.5" y1="-100.9" x2="257.1" y2="700.3" fill="none" stroke="#fff" stroke-miterlimit="10"/><line x1="-251.8" y1="-104.4" x2="264.7" y2="696.9" fill="none" stroke="#fff" stroke-miterlimit="10"/></g></g></g></svg>