<svg xmlns="http://www.w3.org/2000/svg" viewBox="4801.083 845.417 55.833 55.833"><defs><style>.a,.b{fill:#fff;}.b{fill-rule:evenodd;}</style></defs><g transform="translate(4801.083 845.417)"><path class="a" d="M522.317,610.783a25.833,25.833,0,1,1-25.833,25.833,25.873,25.873,0,0,1,25.833-25.833m0-2.083a27.917,27.917,0,1,0,27.917,27.917A27.918,27.918,0,0,0,522.317,608.7Z" transform="translate(-494.4 -608.7)"/><g transform="translate(-90.4 16.236)"><path class="a" d="M110.792,0h.2a.2.2,0,0,1,.146.056A.187.187,0,0,1,111.2.2V5.66c0,.2,0,.2.2.2h.61c.2,0,.2,0,.2-.2V.2c0-.2,0-.2.2-.2h13.231a1.9,1.9,0,0,1,1.018.2,5.285,5.285,0,0,1,2.646,1.561A3.078,3.078,0,0,1,130.335,3.9v3.9c0,.2,0,.2-.2.2H122.8c-.2,0-.2,0-.408-.2a3.554,3.554,0,0,0-1.018-.78,6.7,6.7,0,0,0-7.735.78H105.7c-.2,0-.2,0-.2-.2V4.3a4.439,4.439,0,0,1,.408-1.561,4.677,4.677,0,0,1,1.628-1.76h0V5.854c0,.2,0,.2.2.2h.61c.2,0,.2,0,.2-.2V.586c0-.2,0-.2.2-.2s.2-.2.408-.2.2,0,.2.2V5.854c0,.2,0,.2.2.2h.61c.2,0,.2,0,.2-.2V.586C110.589,0,110.589,0,110.792,0Zm13.231,4.1h0V5.469a.859.859,0,0,0,.814.78h2.646a.859.859,0,0,0,.814-.78V2.928a.859.859,0,0,0-.814-.78h-2.646a.765.765,0,0,0-.6.206.7.7,0,0,0-.215.574Z" transform="translate(0 0)"/><path class="b" d="M112.726,4.5a5.971,5.971,0,0,0,1.018,8,6.38,6.38,0,0,0,7.939.391c3.664-2.732,2.24-6.829,1.43-8.2h6.921c.2,0,.2,0,.2.2V15.23a4.67,4.67,0,0,1-1.222,3.121,4.929,4.929,0,0,1-2.646,1.371H110.488a4.742,4.742,0,0,1-4.682-3.512,2.384,2.384,0,0,1-.2-1.171V4.7c0-.2,0-.2.2-.2h6.921Z" transform="translate(0.103 4.281)"/><path class="b" d="M113.874,4.1a4.189,4.189,0,0,1,4.274,4.1,4.278,4.278,0,0,1-8.549,0A4.213,4.213,0,0,1,113.874,4.1Zm3.054,4.1a2.812,2.812,0,0,0-.878-2.086,3.109,3.109,0,0,0-5.23,2.086,3.123,3.123,0,0,0,3.257,2.927A3.026,3.026,0,0,0,116.928,8.2Z" transform="translate(4.246 3.901)"/></g></g></svg>