<svg xmlns="http://www.w3.org/2000/svg" xmlns:xlink="http://www.w3.org/1999/xlink" viewBox="4868.027 845.417 55.833 55.833"><defs><style>.a{fill:none;}.b{clip-path:url(#a);}.c{fill:#fff;}</style><clipPath id="a"><rect class="a" width="55.833" height="55.833"/></clipPath></defs><g class="b" transform="translate(4868.027 845.417)"><path class="c" d="M559.217,643.378h-4.861V627.822h4.861Zm-2.5-17.5h0a2.712,2.712,0,0,1-2.917-2.639,2.931,2.931,0,1,1,2.917,2.639Zm21.944,17.5h-5.556v-8.056c0-2.083-.833-3.611-2.778-3.611a2.885,2.885,0,0,0-2.639,1.944,3.449,3.449,0,0,0-.139,1.25v8.472h-5.417V627.822h5.417v2.5c.278-1.111,2.083-2.639,4.861-2.639,3.472,0,6.111,2.222,6.111,7.083v8.611Z" transform="translate(-538.244 -604.072)"/><path class="c" d="M570.517,610.783a25.833,25.833,0,1,1-25.833,25.833,25.873,25.873,0,0,1,25.833-25.833m0-2.083a27.917,27.917,0,1,0,27.917,27.917A27.918,27.918,0,0,0,570.517,608.7Z" transform="translate(-542.6 -608.7)"/></g></svg>