<svg id="Livello_1" data-name="Livello 1" xmlns="http://www.w3.org/2000/svg" viewBox="0 0 200 200"><title>Tavola disegno 1</title><path d="M27.8,110.9h4.5a.9.9,0,0,0,.8-.5,2.3,2.3,0,0,0,.3-1.4,2,2,0,0,0-.4-1.1.8.8,0,0,0-.7-.3H23.2a1.8,1.8,0,0,0-1.1.3,3.5,3.5,0,0,0-1.2,1.6,6.8,6.8,0,0,0,0,5.2.4.4,0,0,1,0,.4,7,7,0,0,0-.2,4.9,4,4,0,0,0,1.1,1.8,1.9,1.9,0,0,0,1.4.6H32a2.1,2.1,0,0,0,1.5-.6,3.4,3.4,0,0,0,.6-.9,6,6,0,0,0,.7-2.4c0-.3,0-.6,0-.9a1.4,1.4,0,0,1,.2-.7.6.6,0,0,1,.5-.3.6.6,0,0,0,.5-.3l.3-.6a2.5,2.5,0,0,0,0-1.4,1.7,1.7,0,0,0-.3-.7.8.8,0,0,0-.8-.3,2,2,0,0,0-1.1.6,4.1,4.1,0,0,0-1,1.8,7.2,7.2,0,0,0-.3,2.2,1.7,1.7,0,0,1-.2.8.7.7,0,0,1-.7.4H23.3a.7.7,0,0,1-.7-.4,1.9,1.9,0,0,1-.1-1.5.7.7,0,0,1,.8-.6h7.6l.5-.2.3-.4a2.4,2.4,0,0,0,0-2.1,1,1,0,0,0-1-.6H23.3a.7.7,0,0,1-.8-.5,1.8,1.8,0,0,1,0-1.5.8.8,0,0,1,.8-.5Z" fill="#fff"/><path d="M81.2,116.7a2.1,2.1,0,0,0,1.7-.9,3.7,3.7,0,0,0,.6-1,6.9,6.9,0,0,0,.1-5.1,3.9,3.9,0,0,0-.7-1.3,2.2,2.2,0,0,0-1.8-.8H69.3a.7.7,0,0,0-.6.3l-.2.3a2.5,2.5,0,0,0,0,1.9.9.9,0,0,0,1.1.7H81.3l.4.2.3.4a1.8,1.8,0,0,1,0,1.2.8.8,0,0,1-.9.7H70.7a1.6,1.6,0,0,0-.9.3,2.9,2.9,0,0,0-1,1.2,6.2,6.2,0,0,0-.5,2.6q0,1.6,0,3.2a3.6,3.6,0,0,0,0,.5,1.7,1.7,0,0,0,.4,1,.6.6,0,0,0,1,0l.3-.5a1.9,1.9,0,0,0,.2-.8q0-1.4,0-2.9a1.8,1.8,0,0,1,.2-1,.6.6,0,0,1,.6-.3h3.8a5.3,5.3,0,0,1,2.2.5,10.1,10.1,0,0,1,3.2,2.3l2.2,2.5.3.3a.6.6,0,0,0,.7,0,1.2,1.2,0,0,0,.4-.6,2.2,2.2,0,0,0-.3-2.2l-1.7-2.1Z" fill="#fff"/><path d="M154.6,122.4h5.9a.9.9,0,0,0,.8-.4l.2-.4a2.6,2.6,0,0,0,0-1.4,1.6,1.6,0,0,0-.4-.7.7.7,0,0,0-.6-.3H149.4a1.7,1.7,0,0,1-1.5-.8,3.7,3.7,0,0,1-.6-1.3,9.3,9.3,0,0,1,0-3.9,3.6,3.6,0,0,1,.7-1.5,1.5,1.5,0,0,1,.9-.6h11.7l.4-.2.3-.4a2.4,2.4,0,0,0,0-2.1.9.9,0,0,0-1-.6H148.9a2.1,2.1,0,0,0-1.3.5l-.8.9a8.4,8.4,0,0,0-1.1,2.7,13.3,13.3,0,0,0-.3,4.7,12.4,12.4,0,0,0,.9,3.5,5.8,5.8,0,0,0,1.1,1.7,2.1,2.1,0,0,0,1.6.7Z" fill="#fff"/><path d="M51.3,116.7H62.2a2,2,0,0,0,1.5-.6,3.7,3.7,0,0,0,.9-1.3,6.9,6.9,0,0,0,.1-5,4,4,0,0,0-.8-1.3,2.2,2.2,0,0,0-1.7-.8H50.5a.9.9,0,0,0-.9.5,2.1,2.1,0,0,0-.2,1c0,.5,0,1,0,1.5v.2H62.3a.7.7,0,0,1,.7.4,1.8,1.8,0,0,1,0,1.6.7.7,0,0,1-.7.4H49.4v.3q0,3.5,0,7c0,.1,0,.2,0,.3a1.9,1.9,0,0,0,.4,1.1.7.7,0,0,0,1.1,0l.3-.6a3.6,3.6,0,0,0,.1-.9c0-1.2,0-2.5,0-3.7Z" fill="#fff"/><path d="M128.1,116.7h12.6a.9.9,0,0,0,.8-.4,2.1,2.1,0,0,0,.3-1.1,2.2,2.2,0,0,0-.3-1.3.9.9,0,0,0-.8-.4H126.9a.9.9,0,0,0-.7.7,4.2,4.2,0,0,0-.1.7q0,1.6,0,3.2a6.5,6.5,0,0,0,.6,2.7,3.6,3.6,0,0,0,.7,1,1.8,1.8,0,0,0,1.3.6h12.4a.8.8,0,0,0,.8-.4,2.4,2.4,0,0,0,0-2.4.8.8,0,0,0-.8-.5H128.8a.6.6,0,0,1-.7-.5v-.3c0-.5,0-1,0-1.5Z" fill="#fff"/><path d="M119,122.4l1-.2a2.8,2.8,0,0,0,.9-.7,6.4,6.4,0,0,0,1.3-2.2,12.6,12.6,0,0,0,.8-4.3c0-1.9,0-3.7,0-5.6a3.7,3.7,0,0,0,0-.6,1.6,1.6,0,0,0-.5-1,.6.6,0,0,0-.9,0l-.3.5a2.1,2.1,0,0,0-.2,1c0,1.9,0,3.8,0,5.7a12.1,12.1,0,0,1-.1,1.5,4.1,4.1,0,0,1-.6,1.7,1.8,1.8,0,0,1-1.6.9h-7.9a1.8,1.8,0,0,1-1.5-.7,2.8,2.8,0,0,1-.7-1.8,3.4,3.4,0,0,0-.1-.7,1.3,1.3,0,0,0-.4-.7.6.6,0,0,0-.9,0,1.5,1.5,0,0,0-.4.6,2.7,2.7,0,0,0-.1,1,8.4,8.4,0,0,0,.3,2.2,6.3,6.3,0,0,0,1.1,2.3,2.6,2.6,0,0,0,2.2,1.1Z" fill="#fff"/><path d="M87.2,116.3v1.1a10.4,10.4,0,0,0,1,3.1,4.9,4.9,0,0,0,1.1,1.5,2,2,0,0,0,1.3.5h9a2.1,2.1,0,0,0,1.4-.5,5,5,0,0,0,1.3-1.7,10.8,10.8,0,0,0,.9-3.3v-.7h-1.9v.2a4.7,4.7,0,0,1-.4,1.4,2,2,0,0,1-2,1.2H91.2a1.6,1.6,0,0,1-1.2-.6,3.9,3.9,0,0,1-.8-1.7v-.6Z" fill="#fff"/><path d="M89.1,113.8v-.6a3.7,3.7,0,0,1,.8-1.8,1.5,1.5,0,0,1,1-.5h8.3a1.6,1.6,0,0,1,1.2.6,3.8,3.8,0,0,1,.8,1.7v.5h1.9v-.3a12.5,12.5,0,0,0-.7-2.9,6.7,6.7,0,0,0-1.1-2,2.4,2.4,0,0,0-1.9-.9H90.9a2.1,2.1,0,0,0-1.4.5,4.9,4.9,0,0,0-1,1.3,9.1,9.1,0,0,0-1,2.8c-.1.5-.2,1-.3,1.6Z" fill="#fff"/><path d="M134.2,110.9h6.9a1,1,0,0,0,1-.7,2.4,2.4,0,0,0,.1-1.5,2.5,2.5,0,0,0-.2-.7.8.8,0,0,0-.8-.5H127.3a.8.8,0,0,0-.8.4l-.2.4a2.5,2.5,0,0,0,0,1.5l.3.6a.6.6,0,0,0,.6.3h7.1Z" fill="#fff"/><path d="M180.2,110.5a.9.9,0,0,1-.8.4h-5.8v.3q0,4.7,0,9.4a2.5,2.5,0,0,1-.1.9l-.3.5a.7.7,0,0,1-1.1,0,1.8,1.8,0,0,1-.4-.9,5,5,0,0,1,0-.5q0-4.7,0-9.3V111H166a.9.9,0,0,1-.9-.5,2.4,2.4,0,0,1,0-2.2.9.9,0,0,1,.9-.5h13.4a.9.9,0,0,1,.9.6A2.8,2.8,0,0,1,180.2,110.5Z" fill="#fff" fill-rule="evenodd"/><path d="M27.8,110.9H23.3a.8.8,0,0,0-.8.5,1.8,1.8,0,0,0,0,1.5.7.7,0,0,0,.8.5h7.4a1,1,0,0,1,1,.6,2.4,2.4,0,0,1,0,2.1l-.3.4-.5.2H23.3a.7.7,0,0,0-.8.6,1.9,1.9,0,0,0,.1,1.5.7.7,0,0,0,.7.4H32a.7.7,0,0,0,.7-.4,1.7,1.7,0,0,0,.2-.8,7.2,7.2,0,0,1,.3-2.2,4.1,4.1,0,0,1,1-1.8,2,2,0,0,1,1.1-.6.8.8,0,0,1,.8.3,1.7,1.7,0,0,1,.3.7,2.5,2.5,0,0,1,0,1.4l-.3.6a.6.6,0,0,1-.5.3.6.6,0,0,0-.5.3,1.4,1.4,0,0,0-.2.7c0,.3,0,.6,0,.9a6,6,0,0,1-.7,2.4,3.4,3.4,0,0,1-.6.9,2.1,2.1,0,0,1-1.5.6H23.3a1.9,1.9,0,0,1-1.4-.6,4,4,0,0,1-1.1-1.8,7,7,0,0,1,.2-4.9.4.4,0,0,0,0-.4,6.8,6.8,0,0,1,0-5.2,3.5,3.5,0,0,1,1.2-1.6,1.8,1.8,0,0,1,1.1-.3h9.2a.8.8,0,0,1,.7.3,2,2,0,0,1,.4,1.1,2.3,2.3,0,0,1-.3,1.4.9.9,0,0,1-.8.5Z" fill="#fff" fill-rule="evenodd"/><path d="M81.2,116.7l.6.7,1.7,2.1a2.2,2.2,0,0,1,.3,2.2,1.2,1.2,0,0,1-.4.6.6.6,0,0,1-.7,0l-.3-.3-2.2-2.5a10.1,10.1,0,0,0-3.2-2.3,5.3,5.3,0,0,0-2.2-.5H71a.6.6,0,0,0-.6.3,1.8,1.8,0,0,0-.2,1q0,1.4,0,2.9a1.9,1.9,0,0,1-.2.8l-.3.5a.6.6,0,0,1-1,0,1.7,1.7,0,0,1-.4-1,3.6,3.6,0,0,1,0-.5q0-1.6,0-3.2a6.2,6.2,0,0,1,.5-2.6,2.9,2.9,0,0,1,1-1.2,1.6,1.6,0,0,1,.9-.3H81.1a.8.8,0,0,0,.9-.7,1.8,1.8,0,0,0,0-1.2l-.3-.4-.4-.2H69.5a.9.9,0,0,1-1.1-.7,2.5,2.5,0,0,1,0-1.9l.2-.3a.7.7,0,0,1,.6-.3H81a2.2,2.2,0,0,1,1.8.8,3.9,3.9,0,0,1,.7,1.3,6.9,6.9,0,0,1-.1,5.1,3.7,3.7,0,0,1-.6,1A2.1,2.1,0,0,1,81.2,116.7Z" fill="#fff" fill-rule="evenodd"/><path d="M154.6,122.4h-5.7a2.1,2.1,0,0,1-1.6-.7,5.8,5.8,0,0,1-1.1-1.7,12.4,12.4,0,0,1-.9-3.5,13.3,13.3,0,0,1,.3-4.7,8.4,8.4,0,0,1,1.1-2.7l.8-.9a2.1,2.1,0,0,1,1.3-.5h11.5a.9.9,0,0,1,1,.6,2.4,2.4,0,0,1,0,2.1l-.3.4-.4.2H148.9a1.5,1.5,0,0,0-.9.6,3.6,3.6,0,0,0-.7,1.5,9.3,9.3,0,0,0,0,3.9,3.7,3.7,0,0,0,.6,1.3,1.7,1.7,0,0,0,1.5.8h11.1a.7.7,0,0,1,.6.3,1.6,1.6,0,0,1,.4.7,2.6,2.6,0,0,1,0,1.4l-.2.4a.9.9,0,0,1-.8.4Z" fill="#fff" fill-rule="evenodd"/><path d="M51.3,116.7v.3c0,1.2,0,2.5,0,3.7a3.6,3.6,0,0,1-.1.9l-.3.6a.7.7,0,0,1-1.1,0,1.9,1.9,0,0,1-.4-1.1c0-.1,0-.2,0-.3q0-3.5,0-7v-.3H62.3a.7.7,0,0,0,.7-.4,1.8,1.8,0,0,0,0-1.6.7.7,0,0,0-.7-.4H49.4v-.2c0-.5,0-1,0-1.5a2.1,2.1,0,0,1,.2-1,.9.9,0,0,1,.9-.5H62.1a2.2,2.2,0,0,1,1.7.8,4,4,0,0,1,.8,1.3,6.9,6.9,0,0,1-.1,5,3.7,3.7,0,0,1-.9,1.3,2,2,0,0,1-1.5.6Z" fill="#fff" fill-rule="evenodd"/><path d="M128.1,116.7v.2c0,.5,0,1,0,1.5v.3a.6.6,0,0,0,.7.5h12.3a.8.8,0,0,1,.8.5,2.4,2.4,0,0,1,0,2.4.8.8,0,0,1-.8.4H128.7a1.8,1.8,0,0,1-1.3-.6,3.6,3.6,0,0,1-.7-1,6.5,6.5,0,0,1-.6-2.7q0-1.6,0-3.2a4.2,4.2,0,0,1,.1-.7.9.9,0,0,1,.7-.7h13.8a.9.9,0,0,1,.8.4,2.2,2.2,0,0,1,.3,1.3,2.1,2.1,0,0,1-.3,1.1.9.9,0,0,1-.8.4H128.1Z" fill="#fff" fill-rule="evenodd"/><path d="M87.2,116.3h1.9v.6a3.9,3.9,0,0,0,.8,1.7,1.6,1.6,0,0,0,1.2.6h7.9a2,2,0,0,0,2-1.2,4.7,4.7,0,0,0,.4-1.4v-.2h1.9v.7a10.8,10.8,0,0,1-.9,3.3,5,5,0,0,1-1.3,1.7,2.1,2.1,0,0,1-1.4.5h-9a2,2,0,0,1-1.3-.5,4.9,4.9,0,0,1-1.1-1.5,10.4,10.4,0,0,1-1-3.1Z" fill="#fff" fill-rule="evenodd"/><path d="M89.1,113.8H87.2c.1-.5.2-1.1.3-1.6a9.1,9.1,0,0,1,1-2.8,4.9,4.9,0,0,1,1-1.3,2.1,2.1,0,0,1,1.4-.5h8.7a2.4,2.4,0,0,1,1.9.9,6.7,6.7,0,0,1,1.1,2,12.5,12.5,0,0,1,.7,2.9v.3h-1.9v-.5a3.8,3.8,0,0,0-.8-1.7,1.6,1.6,0,0,0-1.2-.6H91.1a1.5,1.5,0,0,0-1,.5,3.7,3.7,0,0,0-.8,1.8Z" fill="#fff" fill-rule="evenodd"/><path d="M134.2,110.9h-7.1a.6.6,0,0,1-.6-.3l-.3-.6a2.5,2.5,0,0,1,0-1.5l.2-.4a.8.8,0,0,1,.8-.4h13.9a.8.8,0,0,1,.8.5,2.5,2.5,0,0,1,.2.7,2.4,2.4,0,0,1-.1,1.5,1,1,0,0,1-1,.7Z" fill="#fff" fill-rule="evenodd"/><path d="M51,88.4h.1a1.8,1.8,0,0,0,1.1-.5,3.9,3.9,0,0,0,1.2-1.8,7,7,0,0,0,.3-3.4,5.2,5.2,0,0,0-.8-2.2,2.4,2.4,0,0,0-2.1-1.2H39.1a.7.7,0,0,0-.5.2l-.3.4a2.4,2.4,0,0,0,0,1.8,1,1,0,0,0,1.1.7H51.1l.4.2.3.5a1.8,1.8,0,0,1,0,1.1.8.8,0,0,1-1,.7H40.7a1.9,1.9,0,0,0-1.6.7,3.5,3.5,0,0,0-.6,1,6.3,6.3,0,0,0-.5,2.4c0,1.1,0,2.2,0,3.3a3.2,3.2,0,0,0,0,.5,1.7,1.7,0,0,0,.4.9.6.6,0,0,0,1,0l.3-.5a2.1,2.1,0,0,0,.2-.9c0-1,0-1.9,0-2.9a1.7,1.7,0,0,1,.2-.9.6.6,0,0,1,.6-.4h3.6a5.9,5.9,0,0,1,3.1.9,11,11,0,0,1,2.4,2l2.2,2.5.3.3a.6.6,0,0,0,.8,0,1.3,1.3,0,0,0,.4-.6,2.3,2.3,0,0,0-.3-2.2l-1.4-1.7Z" fill="#fff"/><path d="M65.8,94.1h6l.5-.2.3-.4a2.4,2.4,0,0,0,0-2,1,1,0,0,0-1-.7H60.6a1.7,1.7,0,0,1-1.5-.8,3.9,3.9,0,0,1-.6-1.5,9.6,9.6,0,0,1,0-3.5,4,4,0,0,1,.7-1.7,1.6,1.6,0,0,1,1.5-.8h11a.9.9,0,0,0,.9-.6,2.4,2.4,0,0,0,0-2.1,1,1,0,0,0-1-.6H60.2a2.1,2.1,0,0,0-1.5.6,5.1,5.1,0,0,0-1.2,1.6,11.2,11.2,0,0,0-1.1,4,13.3,13.3,0,0,0,0,2.9,12.5,12.5,0,0,0,.7,2.9,6.3,6.3,0,0,0,1.1,2,2.2,2.2,0,0,0,1.7.8Z" fill="#fff"/><path d="M77.9,85.1v-.3q0-1.8,0-3.6a4.7,4.7,0,0,0,0-.5,1.8,1.8,0,0,0-.4-1,.7.7,0,0,0-1,0,1.5,1.5,0,0,0-.3.6,2.6,2.6,0,0,0-.1.8q0,5.7,0,11.4c0,.1,0,.2,0,.3a1.9,1.9,0,0,0,.4,1.1.6.6,0,0,0,1,0l.3-.6a2.3,2.3,0,0,0,.1-.9q0-1.9,0-3.7v-.3H89.7v.3q0,1.8,0,3.6a4.6,4.6,0,0,0,0,.5,1.7,1.7,0,0,0,.4,1,.6.6,0,0,0,.9,0l.4-.5a2,2,0,0,0,.2-.9q0-5.8,0-11.6a2.2,2.2,0,0,0,0-.2,1.8,1.8,0,0,0-.5-1.2.6.6,0,0,0-.9,0,1.4,1.4,0,0,0-.4.6,2.7,2.7,0,0,0-.1.9q0,1.9,0,3.7v.3Z" fill="#fff"/><path d="M28.9,90.4a2.8,2.8,0,0,0-.2-.9,1.8,1.8,0,0,0-.6-.9.8.8,0,0,0-1,0,1.7,1.7,0,0,0-.5.8,3.3,3.3,0,0,0,0,2.2,1.8,1.8,0,0,0,.5.8.8.8,0,0,0,1.1,0l.4-.5A3,3,0,0,0,28.9,90.4Z" fill="#fff"/><path d="M20.5,92.1a9.1,9.1,0,0,1,.7-1.6l4.4-10a3.5,3.5,0,0,1,.9-1.3,1.7,1.7,0,0,1,2.4.1,3.4,3.4,0,0,1,.8,1.1l4.8,10.8.3.7a2.4,2.4,0,0,1-.1,1.6,1.3,1.3,0,0,1-.4.6.6.6,0,0,1-.9-.1l-.3-.5-5-11H28c-.2-.3-.5-.3-.7,0s-3.5,7.6-5.1,11.1l-.3.5a.7.7,0,0,1-1.1,0A2.2,2.2,0,0,1,20.5,92.1Z" fill="#fff" fill-rule="evenodd"/><path d="M51,88.4l.9,1,1.4,1.7a2.3,2.3,0,0,1,.3,2.2,1.3,1.3,0,0,1-.4.6.6.6,0,0,1-.8,0l-.3-.3L50,91.2a11,11,0,0,0-2.4-2,5.9,5.9,0,0,0-3.1-.9H40.8a.6.6,0,0,0-.6.4,1.7,1.7,0,0,0-.2.9c0,1,0,1.9,0,2.9a2.1,2.1,0,0,1-.2.9l-.3.5a.6.6,0,0,1-1,0,1.7,1.7,0,0,1-.4-.9,3.2,3.2,0,0,1,0-.5c0-1.1,0-2.2,0-3.3a6.3,6.3,0,0,1,.5-2.4,3.5,3.5,0,0,1,.6-1,1.9,1.9,0,0,1,1.6-.7H50.8a.8.8,0,0,0,1-.7,1.8,1.8,0,0,0,0-1.1l-.3-.5-.4-.2H39.3a1,1,0,0,1-1.1-.7,2.4,2.4,0,0,1,0-1.8l.3-.4a.7.7,0,0,1,.5-.2H50.7a2.4,2.4,0,0,1,2.1,1.2,5.2,5.2,0,0,1,.8,2.2,7,7,0,0,1-.3,3.4,3.9,3.9,0,0,1-1.2,1.8,1.8,1.8,0,0,1-1.1.5Z" fill="#fff" fill-rule="evenodd"/><path d="M65.8,94.1H60.1a2.2,2.2,0,0,1-1.7-.8,6.3,6.3,0,0,1-1.1-2,12.5,12.5,0,0,1-.7-2.9,13.3,13.3,0,0,1,0-2.9,11.2,11.2,0,0,1,1.1-4A5.1,5.1,0,0,1,58.7,80a2.1,2.1,0,0,1,1.5-.6H71.6a1,1,0,0,1,1,.6,2.4,2.4,0,0,1,0,2.1.9.9,0,0,1-.9.6h-11a1.6,1.6,0,0,0-1.5.8,4,4,0,0,0-.7,1.7,9.6,9.6,0,0,0,0,3.5,3.9,3.9,0,0,0,.6,1.5,1.7,1.7,0,0,0,1.5.8H71.5a1,1,0,0,1,1,.7,2.4,2.4,0,0,1,0,2l-.3.4-.5.2h-6Z" fill="#fff" fill-rule="evenodd"/><path d="M77.9,85.1H89.7v-.3q0-1.9,0-3.7a2.7,2.7,0,0,1,.1-.9,1.4,1.4,0,0,1,.4-.6.6.6,0,0,1,.9,0,1.8,1.8,0,0,1,.5,1.2,2.2,2.2,0,0,1,0,.2c0,3.9,0,7.2,0,11,0,.8,0,1.5-.5,1.9a.7.7,0,0,1-1,0,1.7,1.7,0,0,1-.4-1,4.6,4.6,0,0,1,0-.5q0-1.8,0-3.6v-.3H78v.3q0,1.9,0,3.7a2.3,2.3,0,0,1-.1.9l-.3.6a.6.6,0,0,1-1,0,1.9,1.9,0,0,1-.4-1.1c0-.1,0-.2,0-.3q0-5.7,0-11.4a2.6,2.6,0,0,1,.1-.8,1.5,1.5,0,0,1,.3-.6.7.7,0,0,1,1,0,1.8,1.8,0,0,1,.4,1,4.7,4.7,0,0,1,0,.5q0,1.8,0,3.6Z" fill="#fff" fill-rule="evenodd"/><path d="M28.9,90.4a3,3,0,0,1-.3,1.5l-.4.5a.8.8,0,0,1-1.1,0,1.8,1.8,0,0,1-.5-.8,3.3,3.3,0,0,1,0-2.2,1.7,1.7,0,0,1,.5-.8.8.8,0,0,1,1,0,1.8,1.8,0,0,1,.6.9A2.8,2.8,0,0,1,28.9,90.4Z" fill="#fff" fill-rule="evenodd"/><path d="M96.8,91.5l-.4-.7a1,1,0,0,0-1.6,0l-.4.7a3.5,3.5,0,0,0,0,2.2l.4.7a1,1,0,0,0,1.6,0l.4-.7A3.7,3.7,0,0,0,96.8,91.5Z" fill="#fff" fill-rule="evenodd"/><rect x="1.8" y="1.6" width="197" height="197" fill="none" stroke="#fff" stroke-miterlimit="10" stroke-width="4"/></svg>