<svg xmlns="http://www.w3.org/2000/svg" viewBox="3971.583 58.806 237.974 15.278"><defs><style>.a,.b{fill:#fff;}.b{fill-rule:evenodd;}</style></defs><g transform="translate(3971.583 58.806)"><path class="a" d="M106.84,33.517h4.306a.99.99,0,0,0,.833-.417,2.064,2.064,0,0,0,.278-1.25,2.007,2.007,0,0,0-.278-.972c-.139-.278-.417-.278-.694-.278h-8.75a2.007,2.007,0,0,0-.972.278,3.137,3.137,0,0,0-1.111,1.528,6.26,6.26,0,0,0,0,5c0,.139.139.278,0,.417a6.168,6.168,0,0,0-.139,4.722,3.333,3.333,0,0,0,.972,1.667,1.783,1.783,0,0,0,1.389.556h8.194a1.783,1.783,0,0,0,1.389-.556,2.906,2.906,0,0,0,.556-.833,6.86,6.86,0,0,0,.694-2.222v-.833c0-.278.139-.417.278-.694.139-.139.278-.278.417-.278s.417-.139.417-.278a1.053,1.053,0,0,0,.278-.556,2.355,2.355,0,0,0,0-1.389c0-.278-.139-.417-.278-.694s-.417-.278-.694-.278a1.406,1.406,0,0,0-.972.556,2.964,2.964,0,0,0-.972,1.667,5.4,5.4,0,0,0-.278,2.083,1.762,1.762,0,0,1-.139.833.642.642,0,0,1-.694.417h-8.333a.764.764,0,0,1-.694-.417,1.643,1.643,0,0,1-.139-1.389.762.762,0,0,1,.833-.556h7.222a.51.51,0,0,0,.417-.139c.139-.139.139-.278.278-.278a2.373,2.373,0,0,0,0-1.944c-.139-.417-.417-.556-.972-.556h-6.944a.642.642,0,0,1-.694-.417,1.621,1.621,0,0,1,0-1.389.764.764,0,0,1,.694-.417A9.663,9.663,0,0,1,106.84,33.517Z" transform="translate(-14.062 -29.906)"/><path class="a" d="M62.539,39.072h0a1.367,1.367,0,0,0,1.111-.417,3.541,3.541,0,0,0,1.111-1.667,6.164,6.164,0,0,0,.278-3.194,3.91,3.91,0,0,0-.833-2.083A2.285,2.285,0,0,0,62.122,30.6H51.011a.722.722,0,0,0-.556.278c-.139.139-.139.278-.278.417a2.054,2.054,0,0,0,0,1.806c.139.556.417.694.972.694H62.261a.51.51,0,0,1,.417.139c.139.139.139.278.278.417a1.186,1.186,0,0,1,0,.972c-.139.556-.417.694-.972.694H52.4a2.28,2.28,0,0,0-2.083,1.667,6.488,6.488,0,0,0-.417,2.361v3.611a1.2,1.2,0,0,0,.417.833.671.671,0,0,0,.972,0,.722.722,0,0,0,.278-.556,1.762,1.762,0,0,0,.139-.833V40.322a1.762,1.762,0,0,1,.139-.833c.139-.278.278-.278.556-.278h3.333a5.135,5.135,0,0,1,2.917.833,10.356,10.356,0,0,1,2.361,1.944c.694.694,1.389,1.528,2.083,2.361l.278.278a.62.62,0,0,0,.694,0c.139-.139.278-.417.417-.556a2.216,2.216,0,0,0-.278-2.083,14.711,14.711,0,0,0-1.389-1.667A.964.964,0,0,0,62.539,39.072Z" transform="translate(-33.511 -29.906)"/><path class="a" d="M144.9,39.05a2.117,2.117,0,0,0,1.528-.833,2.238,2.238,0,0,0,.556-.972,6.543,6.543,0,0,0,.139-4.861,5.631,5.631,0,0,0-.694-1.25,1.98,1.98,0,0,0-1.667-.833H133.653a.722.722,0,0,0-.556.278c-.139.139-.139.139-.139.278a2.06,2.06,0,0,0,0,1.806.925.925,0,0,0,.972.694h11.25a.51.51,0,0,1,.417.139c.139.139.139.278.278.417a1.533,1.533,0,0,1,0,1.111c-.139.556-.417.694-.833.694h-9.861a1.974,1.974,0,0,0-.833.278,3.744,3.744,0,0,0-.972,1.111,5.448,5.448,0,0,0-.556,2.5v3.472a1.261,1.261,0,0,0,.417.972.671.671,0,0,0,.972,0,.721.721,0,0,0,.278-.556,1.761,1.761,0,0,0,.139-.833V39.883a1.322,1.322,0,0,1,.278-.972.722.722,0,0,1,.556-.278h3.611a5.573,5.573,0,0,1,2.083.417,11.436,11.436,0,0,1,3.056,2.222c.694.833,1.389,1.528,2.083,2.361l.278.278a.631.631,0,0,0,.694,0,1.886,1.886,0,0,0,.139-2.639,24.181,24.181,0,0,0-1.667-1.944C145.319,39.606,145.042,39.328,144.9,39.05Z" transform="translate(-1.292 -30.022)"/><path class="a" d="M194.173,44.489h5.556a.99.99,0,0,0,.833-.417.51.51,0,0,0,.139-.417,2.354,2.354,0,0,0,0-1.389,1.061,1.061,0,0,0-.278-.694.722.722,0,0,0-.556-.278H189.312a1.709,1.709,0,0,1-1.389-.694,4.932,4.932,0,0,1-.556-1.25,8.542,8.542,0,0,1,0-3.75,3.75,3.75,0,0,1,.694-1.528c.278-.278.556-.556.833-.556h11.111a.51.51,0,0,0,.417-.139c.139-.139.139-.278.278-.278a2.367,2.367,0,0,0,0-1.944c-.139-.417-.417-.556-.972-.556H188.9a2.24,2.24,0,0,0-1.25.417l-.833.833a8.876,8.876,0,0,0-1.111,2.639,12.024,12.024,0,0,0-.278,4.444,14.649,14.649,0,0,0,.833,3.333,10.359,10.359,0,0,0,.972,1.667,2.23,2.23,0,0,0,1.528.694C190.562,44.489,192.368,44.489,194.173,44.489Z" transform="translate(19.16 -29.906)"/><path class="a" d="M71.579,44.528h5.556a.835.835,0,0,0,.556-.139c.139-.139.139-.278.278-.417a2.373,2.373,0,0,0,0-1.944A.925.925,0,0,0,77,41.333H66.579a1.709,1.709,0,0,1-1.389-.694,4.159,4.159,0,0,1-.556-1.389,6.771,6.771,0,0,1,0-3.333,4.278,4.278,0,0,1,.694-1.667,1.41,1.41,0,0,1,1.389-.694H77.135A.762.762,0,0,0,77.968,33a2.373,2.373,0,0,0,0-1.944c-.139-.417-.417-.556-.972-.556H66.3a1.783,1.783,0,0,0-1.389.556A6.167,6.167,0,0,0,63.8,32.583a12.474,12.474,0,0,0-.972,3.75,9.312,9.312,0,0,0,0,2.778,9.068,9.068,0,0,0,.694,2.778,5.449,5.449,0,0,0,1.111,1.944,1.869,1.869,0,0,0,1.667.694Z" transform="translate(-28.524 -29.944)"/><path class="a" d="M121.506,39.011h10.278a1.783,1.783,0,0,0,1.389-.556,2.5,2.5,0,0,0,.833-1.25,6.907,6.907,0,0,0,.139-4.722,5.63,5.63,0,0,0-.694-1.25,1.98,1.98,0,0,0-1.667-.833H120.811a.762.762,0,0,0-.833.556,2.007,2.007,0,0,0-.278.972v1.528h12.222a.764.764,0,0,1,.694.417,1.5,1.5,0,0,1,0,1.528.764.764,0,0,1-.694.417H119.7v7.222a1.261,1.261,0,0,0,.417.972.65.65,0,0,0,1.111,0,.722.722,0,0,0,.278-.556c0-.278.139-.556.139-.833V39.15C121.506,39.289,121.506,39.15,121.506,39.011Z" transform="translate(-6.367 -29.983)"/><path class="a" d="M174.106,37.494H186.05a.99.99,0,0,0,.833-.417,2.616,2.616,0,0,0,.278-1.111,2.064,2.064,0,0,0-.278-1.25.764.764,0,0,0-.694-.417H173.133a.892.892,0,0,0-.694.694c0,.278-.139.417-.139.694v3.056a6.019,6.019,0,0,0,.556,2.639,2.491,2.491,0,0,0,.694.972,1.76,1.76,0,0,0,1.25.556h11.806a.764.764,0,0,0,.694-.417,2.132,2.132,0,0,0,0-2.222.84.84,0,0,0-.833-.417H174.8c-.417,0-.556-.139-.694-.556V37.633S174.106,37.633,174.106,37.494Z" transform="translate(14.089 -28.467)"/><path class="a" d="M78.006,35.951V31.646a1.5,1.5,0,0,0-.417-.972c-.278-.278-.694-.417-.972,0a1.053,1.053,0,0,0-.278.556,1.762,1.762,0,0,0-.139.833V43.174a1.577,1.577,0,0,0,.417,1.111.671.671,0,0,0,.972,0,1.053,1.053,0,0,0,.278-.556,1.762,1.762,0,0,0,.139-.833v-3.75h11.25v4.306a1.261,1.261,0,0,0,.417.972.521.521,0,0,0,.833,0,.722.722,0,0,0,.278-.556,1.762,1.762,0,0,0,.139-.833V31.785a1.577,1.577,0,0,0-.417-1.111.521.521,0,0,0-.833,0c-.139.139-.278.417-.417.556a1.762,1.762,0,0,0-.139.833v3.889Z" transform="translate(-23.283 -29.979)"/><path class="a" d="M166.461,44.547h4.167a2.364,2.364,0,0,0,.972-.139,3.683,3.683,0,0,0,.833-.694,5.23,5.23,0,0,0,1.25-2.083,10.954,10.954,0,0,0,.694-4.167V31.631a1.261,1.261,0,0,0-.417-.972.521.521,0,0,0-.833,0c-.139.139-.278.278-.278.417a2.059,2.059,0,0,0-.139.972v5.417a4.725,4.725,0,0,1-.139,1.389,7.831,7.831,0,0,1-.556,1.667,1.743,1.743,0,0,1-1.528.833h-7.5a1.929,1.929,0,0,1-1.389-.694,2.669,2.669,0,0,1-.556-1.667,1.252,1.252,0,0,0-.139-.694c0-.278-.139-.417-.417-.694a.521.521,0,0,0-.833,0c-.139.139-.278.417-.417.556a2.059,2.059,0,0,0-.139.972,10.721,10.721,0,0,0,.278,2.083,5.009,5.009,0,0,0,1.111,2.083,2.5,2.5,0,0,0,2.083.972A17.083,17.083,0,0,0,166.461,44.547Z" transform="translate(8.956 -29.964)"/><path class="a" d="M145.6,36.4c0,.417.139.694.139.972a8.037,8.037,0,0,0,.972,2.917,3.527,3.527,0,0,0,1.111,1.389,2.068,2.068,0,0,0,1.25.556h8.611a1.7,1.7,0,0,0,1.25-.417,5.248,5.248,0,0,0,1.25-1.667,12.524,12.524,0,0,0,.833-3.056,1.51,1.51,0,0,1,.139-.694H159.35v.278a2.68,2.68,0,0,1-.417,1.389,1.625,1.625,0,0,1-1.806,1.111h-7.5a1.263,1.263,0,0,1-1.111-.556,3.049,3.049,0,0,1-.694-1.667c0-.139-.139-.417-.139-.556Z" transform="translate(3.706 -27.65)"/><path class="a" d="M147.483,36.294a.835.835,0,0,1,.139-.556,3.785,3.785,0,0,1,.833-1.667,1.261,1.261,0,0,1,.972-.417h7.778a1.715,1.715,0,0,1,1.111.556,3.049,3.049,0,0,1,.694,1.667,1.05,1.05,0,0,0,.139.556h1.806v-.278a10.188,10.188,0,0,0-.694-2.778,5.449,5.449,0,0,0-1.111-1.944,2.24,2.24,0,0,0-1.806-.833h-8.333a1.783,1.783,0,0,0-1.389.556,3.024,3.024,0,0,0-.972,1.25,8.6,8.6,0,0,0-.972,2.639c-.139.556-.139.972-.278,1.528A6.14,6.14,0,0,1,147.483,36.294Z" transform="translate(3.628 -29.906)"/><path class="a" d="M179.929,33.556h6.528a.925.925,0,0,0,.972-.694,2.4,2.4,0,0,0,.139-1.389.722.722,0,0,0-.278-.556.84.84,0,0,0-.833-.417H173.262a.764.764,0,0,0-.694.417.51.51,0,0,0-.139.417,2.367,2.367,0,0,0,0,1.389,1.053,1.053,0,0,0,.278.556.722.722,0,0,0,.556.278h6.667Z" transform="translate(14.099 -29.944)"/><path class="a" d="M44.581,38.525a1.762,1.762,0,0,0-.139-.833,2.905,2.905,0,0,0-.556-.833.671.671,0,0,0-.972,0,1.387,1.387,0,0,0-.556.694,2.708,2.708,0,0,0,0,2.083,3.036,3.036,0,0,0,.417.694.84.84,0,0,0,1.111,0l.417-.417A4.109,4.109,0,0,0,44.581,38.525Z" transform="translate(-36.525 -27.553)"/><path class="b" d="M213.379,33.178a.764.764,0,0,1-.694.417h-5.417v9.167a1.761,1.761,0,0,1-.139.833,1.053,1.053,0,0,1-.278.556c-.278.417-.694.417-1.111,0l-.417-.833V33.594h-5.417a.762.762,0,0,1-.833-.556,2.214,2.214,0,0,1,0-2.083.938.938,0,0,1,.833-.556h12.778a.762.762,0,0,1,.833.556A5.411,5.411,0,0,1,213.379,33.178Z" transform="translate(24.399 -29.983)"/><path class="b" d="M38.1,42.734c.139-.556.417-.972.556-1.528,1.389-3.194,2.778-6.389,4.167-9.444a9.747,9.747,0,0,1,.833-1.25,1.728,1.728,0,0,1,2.361.139,3.024,3.024,0,0,1,.694,1.111c1.528,3.472,3.056,6.806,4.583,10.278.139.278.139.417.278.694a2.853,2.853,0,0,1,0,1.528c-.139.278-.139.417-.417.556a.885.885,0,0,1-.833,0c-.139-.139-.278-.278-.278-.417-.833-1.806-4.583-10.278-4.722-10.417a.136.136,0,0,0-.139-.139c-.278-.278-.417-.278-.694,0-.139.139-3.333,7.222-4.861,10.556,0,.139-.139.278-.278.417-.278.417-.694.417-1.111,0C38.239,43.984,38.1,43.29,38.1,42.734Z" transform="translate(-38.1 -30.096)"/><path class="b" d="M106.835,33.711h-4.306a.642.642,0,0,0-.694.417,1.262,1.262,0,0,0,0,1.389.764.764,0,0,0,.694.417h6.944a1.048,1.048,0,0,1,.972.556,2.367,2.367,0,0,1,0,1.944.3.3,0,0,1-.278.278.51.51,0,0,1-.417.139h-7.222a.762.762,0,0,0-.833.556,1.593,1.593,0,0,0,.139,1.389.642.642,0,0,0,.694.417h8.333a.764.764,0,0,0,.694-.417,1.762,1.762,0,0,0,.139-.833,10.721,10.721,0,0,1,.278-2.083,3.333,3.333,0,0,1,.972-1.667,2.239,2.239,0,0,1,.972-.556c.278,0,.556,0,.694.278a1.061,1.061,0,0,1,.278.694,2.355,2.355,0,0,1,0,1.389,1.053,1.053,0,0,1-.278.556c-.139.139-.278.278-.417.278-.278,0-.417.139-.417.278-.139.139-.139.417-.278.694v.833a4.2,4.2,0,0,1-.694,2.222c-.139.278-.417.556-.556.833a1.783,1.783,0,0,1-1.389.556h-8.194a1.783,1.783,0,0,1-1.389-.556,2.576,2.576,0,0,1-.972-1.667,6.907,6.907,0,0,1,.139-4.722v-.417a6.26,6.26,0,0,1,0-5,3.939,3.939,0,0,1,1.111-1.528,1.322,1.322,0,0,1,.972-.278h8.75a1.061,1.061,0,0,1,.694.278,1.322,1.322,0,0,1,.278.972,2.064,2.064,0,0,1-.278,1.25.84.84,0,0,1-.833.417A9.373,9.373,0,0,1,106.835,33.711Z" transform="translate(-14.057 -30.1)"/><path class="b" d="M62.383,39.15c.278.278.556.694.833.972a14.71,14.71,0,0,0,1.389,1.667,1.935,1.935,0,0,1,.278,2.083c-.139.278-.139.417-.417.556a.62.62,0,0,1-.694,0l-.278-.278c-.694-.833-1.389-1.528-2.083-2.361a11.032,11.032,0,0,0-2.361-1.944,5.834,5.834,0,0,0-2.917-.833H52.8a.722.722,0,0,0-.556.278,1.762,1.762,0,0,0-.139.833V42.9a1.762,1.762,0,0,1-.139.833c-.139.139-.139.417-.278.556a.671.671,0,0,1-.972,0l-.417-.833V39.844a7.054,7.054,0,0,1,.417-2.361,3.481,3.481,0,0,1,.556-.972,1.99,1.99,0,0,1,1.528-.694h9.583c.556,0,.833-.139.972-.694a1.186,1.186,0,0,0,0-.972c0-.139-.139-.278-.278-.417a.51.51,0,0,0-.417-.139H51.55c-.556,0-.833-.139-.972-.694a2.054,2.054,0,0,1,0-1.806c0-.139.139-.278.278-.417a.722.722,0,0,1,.556-.278H62.522a2.449,2.449,0,0,1,2.083,1.111,6.548,6.548,0,0,1,.833,2.083,6.3,6.3,0,0,1-.278,3.194,3.541,3.541,0,0,1-1.111,1.667,7.129,7.129,0,0,1-1.667.694Z" transform="translate(-33.356 -29.983)"/><path class="b" d="M144.981,38.933a2.438,2.438,0,0,1,.556.694c.556.694,1.111,1.25,1.667,1.944a1.935,1.935,0,0,1,.278,2.083c-.139.278-.139.417-.417.556a.631.631,0,0,1-.694,0l-.278-.278c-.694-.833-1.389-1.667-2.083-2.361a8.282,8.282,0,0,0-3.056-2.222,5.573,5.573,0,0,0-2.083-.417h-3.611a.722.722,0,0,0-.556.278,2.007,2.007,0,0,0-.278.972v2.778a1.761,1.761,0,0,1-.139.833c-.139.139-.139.417-.278.556a.671.671,0,0,1-.972,0,1.261,1.261,0,0,1-.417-.972V39.906a5.448,5.448,0,0,1,.556-2.5,3.744,3.744,0,0,1,.972-1.111,1.974,1.974,0,0,1,.833-.278h9.861c.556,0,.694-.139.833-.694a1.533,1.533,0,0,0,0-1.111c0-.139-.139-.278-.278-.417a.51.51,0,0,0-.417-.139h-11.25a.925.925,0,0,1-.972-.694,2.06,2.06,0,0,1,0-1.806.485.485,0,0,1,.139-.278.722.722,0,0,1,.556-.278h11.111a1.98,1.98,0,0,1,1.667.833,3.642,3.642,0,0,1,.694,1.25,6.543,6.543,0,0,1-.139,4.861,3.481,3.481,0,0,1-.556.972A1.807,1.807,0,0,1,144.981,38.933Z" transform="translate(-1.369 -29.906)"/><path class="b" d="M194.165,44.528h-5.417a1.99,1.99,0,0,1-1.528-.694,4.8,4.8,0,0,1-.972-1.667,14.652,14.652,0,0,1-.833-3.333,15.973,15.973,0,0,1,.278-4.444A8.876,8.876,0,0,1,186.8,31.75a4.714,4.714,0,0,1,.833-.833,2.24,2.24,0,0,1,1.25-.417h10.833a1.048,1.048,0,0,1,.972.556,2.367,2.367,0,0,1,0,1.944.3.3,0,0,1-.278.278.51.51,0,0,1-.417.139H188.887a1.275,1.275,0,0,0-.833.556,5.135,5.135,0,0,0-.694,1.528,8.542,8.542,0,0,0,0,3.75,4.934,4.934,0,0,0,.556,1.25,1.538,1.538,0,0,0,1.389.694H199.86a.722.722,0,0,1,.556.278,1.061,1.061,0,0,1,.278.694,2.355,2.355,0,0,1,0,1.389c0,.139-.139.278-.139.417a.84.84,0,0,1-.833.417C197.915,44.528,196.11,44.528,194.165,44.528Z" transform="translate(19.168 -29.944)"/><path class="b" d="M71.618,44.528H66.2a2.3,2.3,0,0,1-1.667-.694,5.449,5.449,0,0,1-1.111-1.944,16.245,16.245,0,0,1-.694-2.778,9.312,9.312,0,0,1,0-2.778,10.653,10.653,0,0,1,.972-3.75,3.939,3.939,0,0,1,1.111-1.528A1.783,1.783,0,0,1,66.2,30.5H77.035a1.048,1.048,0,0,1,.972.556,2.373,2.373,0,0,1,0,1.944.762.762,0,0,1-.833.556H66.757a1.709,1.709,0,0,0-1.389.694,4.635,4.635,0,0,0-.694,1.667,13.386,13.386,0,0,0,0,3.333,4.159,4.159,0,0,0,.556,1.389,1.538,1.538,0,0,0,1.389.694H77.035c.556,0,.833.139.972.694a2.373,2.373,0,0,1,0,1.944c0,.139-.139.278-.278.417s-.278.278-.556.139H71.618Z" transform="translate(-28.562 -29.944)"/><path class="b" d="M121.544,38.972v3.75a1.762,1.762,0,0,1-.139.833,1.053,1.053,0,0,1-.278.556c-.278.417-.694.417-1.111,0-.278-.278-.278-.694-.417-.972V35.917h12.222a.764.764,0,0,0,.694-.417,1.5,1.5,0,0,0,0-1.528.764.764,0,0,0-.694-.417H119.6V32.028a2.575,2.575,0,0,1,.278-.972.938.938,0,0,1,.833-.556h10.972a1.98,1.98,0,0,1,1.667.833,5.63,5.63,0,0,1,.694,1.25,6.188,6.188,0,0,1-.139,4.722,3.28,3.28,0,0,1-.833,1.25,1.783,1.783,0,0,1-1.389.556C128.628,38.972,121.683,38.972,121.544,38.972Z" transform="translate(-6.406 -29.944)"/><path class="b" d="M174.106,37.494V39.3c.139.417.278.556.694.556h11.667a.99.99,0,0,1,.833.417,2.132,2.132,0,0,1,0,2.222.764.764,0,0,1-.694.417H174.8a1.508,1.508,0,0,1-1.25-.556,4.221,4.221,0,0,1-.694-.972,5.636,5.636,0,0,1-.556-2.639V35.689a1.252,1.252,0,0,1,.139-.694.892.892,0,0,1,.694-.694h13.056a.764.764,0,0,1,.694.417,2.064,2.064,0,0,1,.278,1.25,3.269,3.269,0,0,1-.278,1.111.84.84,0,0,1-.833.417H174.106Z" transform="translate(14.089 -28.467)"/><path class="b" d="M78.006,35.936h11.25V32.047a1.762,1.762,0,0,1,.139-.833c.139-.278.139-.417.417-.556a.521.521,0,0,1,.833,0,1.577,1.577,0,0,1,.417,1.111V42.6c0,.833,0,1.389-.417,1.806a.671.671,0,0,1-.972,0,1.261,1.261,0,0,1-.417-.972V39.131c-.139,0-10.833-.139-11.25,0v3.75a1.762,1.762,0,0,1-.139.833c-.139.139-.139.417-.278.556a.671.671,0,0,1-.972,0,1.577,1.577,0,0,1-.417-1.111V32.047a1.762,1.762,0,0,1,.139-.833.722.722,0,0,1,.278-.556.671.671,0,0,1,.972,0c.278.278.278.556.417.972v4.306Z" transform="translate(-23.283 -29.964)"/><path class="b" d="M166.5,44.469h-4.028a2.954,2.954,0,0,1-2.083-.972,7.615,7.615,0,0,1-1.111-2.083A10.72,10.72,0,0,1,159,39.331a2.363,2.363,0,0,1,.139-.972c.139-.278.139-.417.417-.556a.521.521,0,0,1,.833,0,3.035,3.035,0,0,1,.417.694c0,.278.139.417.139.694a2.978,2.978,0,0,0,.556,1.667,1.929,1.929,0,0,0,1.389.694h7.5a1.743,1.743,0,0,0,1.528-.833,3.948,3.948,0,0,0,.556-1.667c0-.417.139-.972.139-1.389V32.247a2.363,2.363,0,0,1,.139-.972c.139-.139.139-.278.278-.417a.521.521,0,0,1,.833,0,1.261,1.261,0,0,1,.417.972v5.833a14.546,14.546,0,0,1-.694,4.167,6.412,6.412,0,0,1-1.25,2.083,3.682,3.682,0,0,1-.833.694,2.059,2.059,0,0,1-.972.139h-3.611C166.778,44.469,166.639,44.469,166.5,44.469Z" transform="translate(8.917 -29.886)"/><path class="b" d="M145.639,36.4h1.806a.835.835,0,0,0,.139.556,4.278,4.278,0,0,0,.694,1.667,1.263,1.263,0,0,0,1.111.556h7.5a1.739,1.739,0,0,0,1.806-1.111,4.076,4.076,0,0,0,.417-1.389V36.4h1.806a1.252,1.252,0,0,1-.139.694,11.035,11.035,0,0,1-.833,3.056,6.529,6.529,0,0,1-1.25,1.667,2.24,2.24,0,0,1-1.25.417h-8.611a1.7,1.7,0,0,1-1.25-.556,5.438,5.438,0,0,1-1.111-1.389,23.932,23.932,0,0,1-.972-2.917C145.778,37.094,145.639,36.678,145.639,36.4Z" transform="translate(3.667 -27.65)"/><path class="b" d="M147.406,36.372H145.6c.139-.556.139-.972.278-1.528a6.088,6.088,0,0,1,.972-2.639,7.632,7.632,0,0,1,.972-1.25,2.468,2.468,0,0,1,1.389-.556h8.333a2.063,2.063,0,0,1,1.806.833,5.449,5.449,0,0,1,1.111,1.944,16.247,16.247,0,0,1,.694,2.778v.278H159.35a1.05,1.05,0,0,0-.139-.556,4.278,4.278,0,0,0-.694-1.667,1.263,1.263,0,0,0-1.111-.556h-7.917a1.261,1.261,0,0,0-.972.417,3.785,3.785,0,0,0-.833,1.667A1.174,1.174,0,0,0,147.406,36.372Z" transform="translate(3.706 -29.983)"/><path class="b" d="M179.968,33.556h-6.806a.722.722,0,0,1-.556-.278,1.053,1.053,0,0,1-.278-.556,2.367,2.367,0,0,1,0-1.389c0-.139.139-.278.139-.417a.764.764,0,0,1,.694-.417h13.194a.99.99,0,0,1,.833.417c.139.139.139.417.278.556a1.643,1.643,0,0,1-.139,1.389.925.925,0,0,1-.972.694Z" transform="translate(14.06 -29.944)"/><path class="b" d="M44.581,38.486a4.993,4.993,0,0,1-.278,1.528l-.417.417a.84.84,0,0,1-1.111,0c-.278-.278-.417-.417-.417-.694a2.708,2.708,0,0,1,0-2.083,1.387,1.387,0,0,1,.556-.694.671.671,0,0,1,.972,0,2.906,2.906,0,0,1,.556.833A1.041,1.041,0,0,1,44.581,38.486Z" transform="translate(-36.525 -27.514)"/><path class="b" d="M91.028,39.111c-.139-.278-.139-.417-.278-.694a.909.909,0,0,0-1.528,0,1.061,1.061,0,0,0-.278.694,3.344,3.344,0,0,0,0,2.083c.139.278.139.417.278.694a.909.909,0,0,0,1.528,0,1.061,1.061,0,0,0,.278-.694A3.517,3.517,0,0,0,91.028,39.111Z" transform="translate(-18.389 -27.028)"/></g></svg>