<svg id="Livello_1" data-name="Livello 1" xmlns="http://www.w3.org/2000/svg" viewBox="0 0 200 200">
  <title>Arch & Project</title>
  <path d="M40.5,114h3.7a.7.7,0,0,0,.7-.4,1.9,1.9,0,0,0,.2-1.1,1.6,1.6,0,0,0-.3-.9.7.7,0,0,0-.6-.3H36.8a1.5,1.5,0,0,0-.9.3,2.8,2.8,0,0,0-1,1.3,5.6,5.6,0,0,0,0,4.3.4.4,0,0,1,0,.3,5.7,5.7,0,0,0-.2,4,3.3,3.3,0,0,0,.9,1.4,1.6,1.6,0,0,0,1.2.5H44a1.7,1.7,0,0,0,1.2-.5l.5-.7a4.9,4.9,0,0,0,.5-1.9c0-.3,0-.5,0-.8a1.2,1.2,0,0,1,.2-.6.5.5,0,0,1,.4-.2l.4-.2.3-.5a2.1,2.1,0,0,0,0-1.2,1.4,1.4,0,0,0-.3-.6.6.6,0,0,0-.6-.3,1.6,1.6,0,0,0-.9.5A3.3,3.3,0,0,0,45,118a5.9,5.9,0,0,0-.3,1.8,1.4,1.4,0,0,1-.2.7.6.6,0,0,1-.6.3H36.8a.6.6,0,0,1-.6-.3,1.5,1.5,0,0,1-.1-1.2.6.6,0,0,1,.7-.5H43l.4-.2.2-.3a2,2,0,0,0,0-1.7.8.8,0,0,0-.8-.5h-6a.6.6,0,0,1-.6-.4,1.5,1.5,0,0,1,0-1.3.6.6,0,0,1,.6-.4Z" fill="#fff"/>
  <path d="M84.4,118.7a1.7,1.7,0,0,0,1.4-.7l.5-.8a5.7,5.7,0,0,0,.1-4.2,3.2,3.2,0,0,0-.6-1,1.8,1.8,0,0,0-1.5-.7H74.6a.6.6,0,0,0-.5.2l-.2.3a2,2,0,0,0,0,1.6.8.8,0,0,0,.9.6h9.7l.3.2.2.3a1.5,1.5,0,0,1,0,1,.7.7,0,0,1-.8.6H75.7l-.7.2a2.4,2.4,0,0,0-.8,1,5.1,5.1,0,0,0-.4,2.1q0,1.3,0,2.6a3,3,0,0,0,0,.4,1.4,1.4,0,0,0,.4.8.5.5,0,0,0,.8,0l.3-.4a1.6,1.6,0,0,0,.1-.7q0-1.2,0-2.3a1.4,1.4,0,0,1,.2-.8.5.5,0,0,1,.5-.2h3.1a4.3,4.3,0,0,1,1.8.4,8.3,8.3,0,0,1,2.6,1.9l1.8,2.1.2.2a.5.5,0,0,0,.6,0,1,1,0,0,0,.4-.5,1.8,1.8,0,0,0-.2-1.8l-1.4-1.7Z" fill="#fff"/>
  <path d="M144.6,123.4h4.8a.7.7,0,0,0,.7-.4l.2-.3a2.1,2.1,0,0,0,0-1.2,1.3,1.3,0,0,0-.3-.6l-.5-.2h-9.1a1.4,1.4,0,0,1-1.2-.6,3.1,3.1,0,0,1-.5-1.1,7.7,7.7,0,0,1,0-3.2,3,3,0,0,1,.6-1.3,1.3,1.3,0,0,1,.8-.5h9.6l.3-.2.2-.3a2,2,0,0,0,0-1.7.8.8,0,0,0-.8-.5H140a1.7,1.7,0,0,0-1.1.4l-.7.8a6.9,6.9,0,0,0-.9,2.2,10.9,10.9,0,0,0-.3,3.8,10.2,10.2,0,0,0,.7,2.9,4.8,4.8,0,0,0,.9,1.4,1.7,1.7,0,0,0,1.3.6Z" fill="#fff"/>
  <path d="M59.8,118.7h8.9a1.7,1.7,0,0,0,1.2-.5,3,3,0,0,0,.7-1.1,5.7,5.7,0,0,0,.1-4.1,3.3,3.3,0,0,0-.6-1.1,1.8,1.8,0,0,0-1.4-.7H59.2a.8.8,0,0,0-.7.4,1.7,1.7,0,0,0-.2.8c0,.4,0,.8,0,1.3v.2H68.8a.6.6,0,0,1,.6.3,1.5,1.5,0,0,1,0,1.3.6.6,0,0,1-.6.4H58.3v.2q0,2.9,0,5.8c0,.1,0,.2,0,.2a1.6,1.6,0,0,0,.3.9.5.5,0,0,0,.9,0l.2-.5a3,3,0,0,0,.1-.7c0-1,0-2,0-3Z" fill="#fff"/>
  <path d="M122.9,118.7h10.4a.7.7,0,0,0,.7-.4,1.7,1.7,0,0,0,.3-.9,1.8,1.8,0,0,0-.3-1.1.7.7,0,0,0-.6-.3H121.9a.7.7,0,0,0-.6.6,3.5,3.5,0,0,0-.1.6q0,1.3,0,2.6a5.3,5.3,0,0,0,.5,2.2,2.9,2.9,0,0,0,.6.9,1.4,1.4,0,0,0,1.1.5h10.2a.7.7,0,0,0,.6-.4,1.9,1.9,0,0,0,0-1.9.7.7,0,0,0-.7-.4H123.5a.5.5,0,0,1-.6-.5v-.2c0-.4,0-.8,0-1.2Z" fill="#fff"/>
  <path d="M111.8,123.4h3.6l.8-.2.7-.6a5.3,5.3,0,0,0,1-1.8,10.4,10.4,0,0,0,.6-3.6c0-1.5,0-3.1,0-4.6a3,3,0,0,0,0-.5,1.3,1.3,0,0,0-.4-.8.5.5,0,0,0-.7,0l-.3.4a1.8,1.8,0,0,0-.2.8c0,1.6,0,3.1,0,4.7a9.9,9.9,0,0,1-.1,1.2,3.4,3.4,0,0,1-.5,1.4,1.5,1.5,0,0,1-1.3.7h-6.5a1.5,1.5,0,0,1-1.2-.6,2.3,2.3,0,0,1-.5-1.5,2.8,2.8,0,0,0-.1-.6,1.1,1.1,0,0,0-.3-.5.5.5,0,0,0-.7,0,1.2,1.2,0,0,0-.3.5,2.2,2.2,0,0,0-.1.8,6.9,6.9,0,0,0,.3,1.8,5.2,5.2,0,0,0,.9,1.9,2.2,2.2,0,0,0,1.8.9Z" fill="#fff"/>
  <path d="M89.3,118.4v.9a8.5,8.5,0,0,0,.8,2.5,4,4,0,0,0,.9,1.2,1.6,1.6,0,0,0,1.1.4h7.4a1.7,1.7,0,0,0,1.1-.4,4.1,4.1,0,0,0,1-1.4,8.8,8.8,0,0,0,.8-2.7v-.5h-1.5v.2a3.8,3.8,0,0,1-.3,1.2,1.6,1.6,0,0,1-1.6,1H92.6a1.3,1.3,0,0,1-1-.5,3.2,3.2,0,0,1-.6-1.4v-.5Z" fill="#fff"/>
  <path d="M90.9,116.4v-.5a3.1,3.1,0,0,1,.7-1.5,1.2,1.2,0,0,1,.9-.4h6.8a1.3,1.3,0,0,1,1,.5,3.1,3.1,0,0,1,.6,1.4v.4h1.5v-.2a10.3,10.3,0,0,0-.5-2.4,5.5,5.5,0,0,0-.9-1.7,1.9,1.9,0,0,0-1.6-.7H92.4a1.7,1.7,0,0,0-1.2.4,4,4,0,0,0-.8,1,7.5,7.5,0,0,0-.8,2.3l-.2,1.3Z" fill="#fff"/>
  <path d="M127.9,114h5.6a.8.8,0,0,0,.8-.6,2,2,0,0,0,.1-1.2l-.2-.5a.7.7,0,0,0-.7-.4H122.2a.7.7,0,0,0-.6.3l-.2.3a2,2,0,0,0,0,1.3l.3.5a.5.5,0,0,0,.5.2h5.8Z" fill="#fff"/>
  <path d="M165.6,113.7a.7.7,0,0,1-.7.3h-4.7v.3q0,3.9,0,7.7a2,2,0,0,1-.1.8l-.2.4a.5.5,0,0,1-.9,0,1.5,1.5,0,0,1-.3-.8,4.1,4.1,0,0,1,0-.5q0-3.8,0-7.7V114H154a.8.8,0,0,1-.7-.4,1.9,1.9,0,0,1,0-1.8.7.7,0,0,1,.7-.4h11a.7.7,0,0,1,.8.5A2.3,2.3,0,0,1,165.6,113.7Z" fill="#fff" fill-rule="evenodd"/>
  <path d="M40.5,114H36.8a.6.6,0,0,0-.6.4,1.5,1.5,0,0,0,0,1.3.6.6,0,0,0,.6.4h6a.8.8,0,0,1,.8.5,2,2,0,0,1,0,1.7l-.2.3-.4.2H36.8a.6.6,0,0,0-.7.5,1.5,1.5,0,0,0,.1,1.2.6.6,0,0,0,.6.3H44a.6.6,0,0,0,.6-.3,1.4,1.4,0,0,0,.2-.7A5.9,5.9,0,0,1,45,118a3.3,3.3,0,0,1,.9-1.5,1.6,1.6,0,0,1,.9-.5.6.6,0,0,1,.6.3,1.4,1.4,0,0,1,.3.6,2.1,2.1,0,0,1,0,1.2l-.3.5-.4.2a.5.5,0,0,0-.4.2,1.2,1.2,0,0,0-.2.6c0,.3,0,.5,0,.8a4.9,4.9,0,0,1-.5,1.9l-.5.7a1.7,1.7,0,0,1-1.2.5H36.8a1.6,1.6,0,0,1-1.2-.5,3.3,3.3,0,0,1-.9-1.4,5.7,5.7,0,0,1,.2-4,.4.4,0,0,0,0-.3,5.6,5.6,0,0,1,0-4.3,2.8,2.8,0,0,1,1-1.3,1.5,1.5,0,0,1,.9-.3h7.5a.7.7,0,0,1,.6.3,1.6,1.6,0,0,1,.3.9,1.9,1.9,0,0,1-.2,1.1.7.7,0,0,1-.7.4Z" fill="#fff" fill-rule="evenodd"/>
  <path d="M84.4,118.7l.5.6,1.4,1.7a1.8,1.8,0,0,1,.2,1.8,1,1,0,0,1-.4.5.5.5,0,0,1-.6,0l-.2-.2-1.8-2.1a8.3,8.3,0,0,0-2.6-1.9,4.3,4.3,0,0,0-1.8-.4H76a.5.5,0,0,0-.5.2,1.4,1.4,0,0,0-.2.8q0,1.2,0,2.3a1.6,1.6,0,0,1-.1.7l-.3.4a.5.5,0,0,1-.8,0,1.4,1.4,0,0,1-.4-.8,3,3,0,0,1,0-.4q0-1.3,0-2.6a5.1,5.1,0,0,1,.4-2.1,2.4,2.4,0,0,1,.8-1l.7-.2h8.5a.7.7,0,0,0,.8-.6,1.5,1.5,0,0,0,0-1l-.2-.3-.3-.2H74.8a.8.8,0,0,1-.9-.6,2,2,0,0,1,0-1.6l.2-.3a.6.6,0,0,1,.5-.2h9.6a1.8,1.8,0,0,1,1.5.7,3.2,3.2,0,0,1,.6,1,5.7,5.7,0,0,1-.1,4.2l-.5.8A1.7,1.7,0,0,1,84.4,118.7Z" fill="#fff" fill-rule="evenodd"/>
  <path d="M144.6,123.4h-4.7a1.7,1.7,0,0,1-1.3-.6,4.8,4.8,0,0,1-.9-1.4,10.2,10.2,0,0,1-.7-2.9,10.9,10.9,0,0,1,.3-3.8,6.9,6.9,0,0,1,.9-2.2l.7-.8a1.7,1.7,0,0,1,1.1-.4h9.4a.8.8,0,0,1,.8.5,2,2,0,0,1,0,1.7l-.2.3-.3.2H140a1.3,1.3,0,0,0-.8.5,3,3,0,0,0-.6,1.3,7.7,7.7,0,0,0,0,3.2,3.1,3.1,0,0,0,.5,1.1,1.4,1.4,0,0,0,1.2.6h9.1l.5.2a1.3,1.3,0,0,1,.3.6,2.1,2.1,0,0,1,0,1.2l-.2.3a.7.7,0,0,1-.7.4Z" fill="#fff" fill-rule="evenodd"/>
  <path d="M59.8,118.7v.3c0,1,0,2,0,3a3,3,0,0,1-.1.7l-.2.5a.5.5,0,0,1-.9,0,1.6,1.6,0,0,1-.3-.9c0-.1,0-.2,0-.2q0-2.9,0-5.8v-.2H68.8a.6.6,0,0,0,.6-.4,1.5,1.5,0,0,0,0-1.3.6.6,0,0,0-.6-.3H58.3v-.2c0-.4,0-.8,0-1.3a1.7,1.7,0,0,1,.2-.8.8.8,0,0,1,.7-.4h9.5a1.8,1.8,0,0,1,1.4.7,3.3,3.3,0,0,1,.6,1.1,5.7,5.7,0,0,1-.1,4.1,3,3,0,0,1-.7,1.1,1.7,1.7,0,0,1-1.2.5Z" fill="#fff" fill-rule="evenodd"/>
  <path d="M122.9,118.7v.2c0,.4,0,.8,0,1.2v.2a.5.5,0,0,0,.6.5h10.1a.7.7,0,0,1,.7.4,1.9,1.9,0,0,1,0,1.9.7.7,0,0,1-.6.4H123.4a1.4,1.4,0,0,1-1.1-.5,2.9,2.9,0,0,1-.6-.9,5.3,5.3,0,0,1-.5-2.2q0-1.3,0-2.6a3.5,3.5,0,0,1,.1-.6.7.7,0,0,1,.6-.6h11.3a.7.7,0,0,1,.6.3,1.8,1.8,0,0,1,.3,1.1,1.7,1.7,0,0,1-.3.9.7.7,0,0,1-.7.4H122.9Z" fill="#fff" fill-rule="evenodd"/>
  <path d="M111.8,123.4h-3.5a2.2,2.2,0,0,1-1.8-.9,5.2,5.2,0,0,1-.9-1.9,6.9,6.9,0,0,1-.3-1.8,2.2,2.2,0,0,1,.1-.8,1.2,1.2,0,0,1,.3-.5.5.5,0,0,1,.7,0,1.1,1.1,0,0,1,.3.5,2.8,2.8,0,0,1,.1.6,2.3,2.3,0,0,0,.5,1.5,1.5,1.5,0,0,0,1.2.6h6.5a1.5,1.5,0,0,0,1.3-.7,3.4,3.4,0,0,0,.5-1.4,9.9,9.9,0,0,0,.1-1.2c0-1.6,0-3.1,0-4.7a1.8,1.8,0,0,1,.2-.8l.3-.4a.5.5,0,0,1,.7,0,1.3,1.3,0,0,1,.4.8,3,3,0,0,1,0,.5c0,1.5,0,3.1,0,4.6a10.4,10.4,0,0,1-.6,3.6,5.3,5.3,0,0,1-1,1.8l-.7.6-.8.2h-3.6Z" fill="#fff" fill-rule="evenodd"/>
  <path d="M89.3,118.4h1.5v.5a3.2,3.2,0,0,0,.6,1.4,1.3,1.3,0,0,0,1,.5h6.5a1.6,1.6,0,0,0,1.6-1,3.8,3.8,0,0,0,.3-1.2v-.2h1.5v.5a8.8,8.8,0,0,1-.8,2.7,4.1,4.1,0,0,1-1,1.4,1.7,1.7,0,0,1-1.1.4H92.2a1.6,1.6,0,0,1-1.1-.4,4,4,0,0,1-.9-1.2,8.5,8.5,0,0,1-.8-2.5Z" fill="#fff" fill-rule="evenodd"/>
  <path d="M90.9,116.4H89.3l.2-1.3a7.5,7.5,0,0,1,.8-2.3,4,4,0,0,1,.8-1,1.7,1.7,0,0,1,1.2-.4h7.1a1.9,1.9,0,0,1,1.6.8,5.5,5.5,0,0,1,.9,1.7,10.3,10.3,0,0,1,.5,2.4v.2h-1.5v-.4a3.1,3.1,0,0,0-.6-1.4,1.3,1.3,0,0,0-1-.5H92.5a1.2,1.2,0,0,0-.9.4,3.1,3.1,0,0,0-.7,1.5Z" fill="#fff" fill-rule="evenodd"/>
  <path d="M127.9,114h-5.8a.5.5,0,0,1-.5-.2l-.3-.5a2,2,0,0,1,0-1.3l.2-.3a.7.7,0,0,1,.6-.3h11.4a.7.7,0,0,1,.7.4l.2.5a2,2,0,0,1-.1,1.2.8.8,0,0,1-.8.6Z" fill="#fff" fill-rule="evenodd"/>
  <path d="M59.6,95.5h.1a1.5,1.5,0,0,0,.9-.4,3.2,3.2,0,0,0,1-1.5,5.8,5.8,0,0,0,.2-2.8,4.3,4.3,0,0,0-.7-1.8,2,2,0,0,0-1.8-1H49.8l-.5.2-.2.4a2,2,0,0,0,0,1.5.8.8,0,0,0,.9.6h9.7l.3.2.2.4a1.5,1.5,0,0,1,0,.9.7.7,0,0,1-.8.6H51.1a1.6,1.6,0,0,0-1.3.6,2.9,2.9,0,0,0-.5.8,5.2,5.2,0,0,0-.4,2c0,.9,0,1.8,0,2.7a2.7,2.7,0,0,0,0,.4,1.4,1.4,0,0,0,.3.7.5.5,0,0,0,.8,0l.3-.4a1.7,1.7,0,0,0,.1-.7c0-.8,0-1.6,0-2.4a1.4,1.4,0,0,1,.2-.7.5.5,0,0,1,.5-.3h2.9a4.8,4.8,0,0,1,2.6.7,9,9,0,0,1,2,1.6l1.8,2,.2.2a.5.5,0,0,0,.6,0,1.1,1.1,0,0,0,.3-.5,1.8,1.8,0,0,0-.3-1.8l-1.1-1.4Z" fill="#fff"/>
  <path d="M71.7,100.2h4.9l.4-.2.2-.3a2,2,0,0,0,0-1.6.8.8,0,0,0-.8-.5h-9a1.4,1.4,0,0,1-1.3-.6,3.2,3.2,0,0,1-.5-1.2,7.8,7.8,0,0,1,0-2.9,3.3,3.3,0,0,1,.5-1.4,1.3,1.3,0,0,1,1.2-.6h9a.8.8,0,0,0,.8-.5,2,2,0,0,0,0-1.7.8.8,0,0,0-.8-.5H67.1a1.8,1.8,0,0,0-1.2.5,4.2,4.2,0,0,0-.9,1.3,9.2,9.2,0,0,0-.9,3.3,10.9,10.9,0,0,0,0,2.4,10.3,10.3,0,0,0,.6,2.4,5.1,5.1,0,0,0,.9,1.6,1.8,1.8,0,0,0,1.4.6Z" fill="#fff"/>
  <path d="M81.7,92.8v-.3q0-1.5,0-3a3.9,3.9,0,0,0,0-.5,1.4,1.4,0,0,0-.3-.8.5.5,0,0,0-.9,0l-.3.5a2.1,2.1,0,0,0-.1.7q0,4.7,0,9.4c0,.1,0,.2,0,.2a1.5,1.5,0,0,0,.4.9.5.5,0,0,0,.8,0l.3-.5a1.9,1.9,0,0,0,.1-.8q0-1.5,0-3v-.2h9.7v.2q0,1.5,0,3a3.7,3.7,0,0,0,0,.5,1.4,1.4,0,0,0,.4.8.5.5,0,0,0,.8,0l.3-.4a1.6,1.6,0,0,0,.1-.7q0-4.7,0-9.5a1.8,1.8,0,0,0,0-.2,1.5,1.5,0,0,0-.4-.9.5.5,0,0,0-.8,0,1.2,1.2,0,0,0-.3.5,2.2,2.2,0,0,0-.1.7q0,1.5,0,3.1v.2Z" fill="#fff"/>
  <path d="M41.4,97.1a2.3,2.3,0,0,0-.1-.8,1.5,1.5,0,0,0-.5-.7.7.7,0,0,0-.9,0,1.4,1.4,0,0,0-.4.7,2.7,2.7,0,0,0,0,1.8,1.5,1.5,0,0,0,.4.7.7.7,0,0,0,.9,0l.3-.4A2.5,2.5,0,0,0,41.4,97.1Z" fill="#fff"/>
  <path d="M34.5,98.5a7.5,7.5,0,0,1,.5-1.3L38.7,89a2.9,2.9,0,0,1,.8-1.1,1.4,1.4,0,0,1,2,.1,2.8,2.8,0,0,1,.6.9L46,97.8l.2.6a2,2,0,0,1-.1,1.3,1,1,0,0,1-.3.5.5.5,0,0,1-.7,0l-.3-.4-4.1-9.1h-.1c-.2-.2-.4-.2-.6,0s-2.9,6.3-4.1,9.1l-.2.4a.5.5,0,0,1-.9,0A1.8,1.8,0,0,1,34.5,98.5Z" fill="#fff" fill-rule="evenodd"/>
  <path d="M59.6,95.5l.7.8,1.1,1.4a1.8,1.8,0,0,1,.3,1.8,1.1,1.1,0,0,1-.3.5.5.5,0,0,1-.6,0l-.2-.2-1.8-2a9,9,0,0,0-2-1.6,4.8,4.8,0,0,0-2.6-.7H51.2a.5.5,0,0,0-.5.3,1.4,1.4,0,0,0-.2.7c0,.8,0,1.6,0,2.4a1.7,1.7,0,0,1-.1.7l-.3.4a.5.5,0,0,1-.8,0,1.4,1.4,0,0,1-.3-.7,2.7,2.7,0,0,1,0-.4c0-.9,0-1.8,0-2.7a5.2,5.2,0,0,1,.4-2,2.9,2.9,0,0,1,.5-.8,1.6,1.6,0,0,1,1.3-.6h8.3a.7.7,0,0,0,.8-.6,1.5,1.5,0,0,0,0-.9l-.2-.4-.3-.2H50a.8.8,0,0,1-.9-.6,2,2,0,0,1,0-1.5l.2-.4.5-.2h9.5a2,2,0,0,1,1.8,1,4.3,4.3,0,0,1,.7,1.8,5.8,5.8,0,0,1-.2,2.8,3.2,3.2,0,0,1-1,1.5,1.5,1.5,0,0,1-.9.4Z" fill="#fff" fill-rule="evenodd"/>
  <path d="M71.7,100.2H67a1.8,1.8,0,0,1-1.4-.6,5.1,5.1,0,0,1-.9-1.6,10.3,10.3,0,0,1-.6-2.4,10.9,10.9,0,0,1,0-2.4,9.2,9.2,0,0,1,.9-3.3,4.2,4.2,0,0,1,.9-1.3,1.8,1.8,0,0,1,1.2-.5h9.3a.8.8,0,0,1,.8.5,2,2,0,0,1,0,1.7.8.8,0,0,1-.8.5h-9a1.3,1.3,0,0,0-1.2.6,3.3,3.3,0,0,0-.5,1.4,7.8,7.8,0,0,0,0,2.9,3.2,3.2,0,0,0,.5,1.2,1.4,1.4,0,0,0,1.3.6h9a.8.8,0,0,1,.8.5,2,2,0,0,1,0,1.6l-.2.3-.4.2H71.7Z" fill="#fff" fill-rule="evenodd"/>
  <path d="M81.7,92.8h9.7v-.2q0-1.5,0-3.1a2.2,2.2,0,0,1,.1-.7,1.2,1.2,0,0,1,.3-.5.5.5,0,0,1,.8,0,1.5,1.5,0,0,1,.4.9,1.8,1.8,0,0,1,0,.2c0,3.2,0,5.9,0,9.1,0,.7,0,1.2-.4,1.6a.6.6,0,0,1-.8,0,1.4,1.4,0,0,1-.4-.8,3.7,3.7,0,0,1,0-.5q0-1.5,0-3v-.2H81.7v.2q0,1.5,0,3a1.9,1.9,0,0,1-.1.8l-.3.5a.5.5,0,0,1-.8,0,1.5,1.5,0,0,1-.4-.9c0-.1,0-.2,0-.2q0-4.7,0-9.4a2.1,2.1,0,0,1,.1-.7l.3-.5a.5.5,0,0,1,.9,0,1.4,1.4,0,0,1,.3.8,3.9,3.9,0,0,1,0,.5q0,1.5,0,3Z" fill="#fff" fill-rule="evenodd"/>
  <path d="M41.4,97.1a2.5,2.5,0,0,1-.3,1.3l-.3.4a.7.7,0,0,1-.9,0,1.5,1.5,0,0,1-.4-.7,2.7,2.7,0,0,1,0-1.8,1.4,1.4,0,0,1,.4-.7.7.7,0,0,1,.9,0,1.5,1.5,0,0,1,.5.7A2.3,2.3,0,0,1,41.4,97.1Z" fill="#fff" fill-rule="evenodd"/>
  <path d="M97.2,98l-.3-.6a.8.8,0,0,0-1.3,0l-.3.6a2.8,2.8,0,0,0,0,1.8l.3.6a.8.8,0,0,0,1.3,0l.3-.6A3,3,0,0,0,97.2,98Z" fill="#fff" fill-rule="evenodd"/>
  <polygon id="bordo_4" points="4 196 0 200 0 0 4 4 4 196" fill="#fff"> 
    <!--    <animateTransform attributeName="transform"
                          attributeType="XML"
                          type="scale"
                          from="1 0"
                          to="1 1"
						  begin="1.5s"
                          dur=".5s"
						  repeatCount="0"
                          />
--> </polygon>
  <polygon id="bordo_2" points="196 4 200 0 200 200 196 196 196 4" fill="#fff"> 
    <!--    <animateTransform attributeName="transform"
                          attributeType="XML"
                          type="scale"
                          from="1 0"
                          to="1 1"
						  begin=".5s"
                          dur=".5s"
						  repeatCount="0"
                          />
--> </polygon>
  <polygon id="bordo_3" points="196 196 200 200 0 200 4 196 196 196" fill="#fff"> 
    <!--<animateTransform attributeName="transform"
                          attributeType="XML"
                          type="scale"
                          from="0 1"
                          to="1 1"
						  begin="1s"
                          dur=".5s"
						  repeatCount="0"
                          />
--></polygon>
  <polygon id="bordo_1" points="4 4 0 0 200 0 196 4 4 4" fill="#fff"> 
    <!--  <animateTransform attributeName="transform"
                          attributeType="XML"
                          type="scale"
                          from="0 1"
                          to="1 1"
						  begin="0s"
                          dur=".5s"
						  repeatCount="0"
                          /> 
--></polygon >
</svg>
