<svg xmlns="http://www.w3.org/2000/svg" viewBox="-4228.492 23.863 162.398 44.623"><defs><style>.a,.b{fill:#fff;}.b{fill-rule:evenodd;}</style></defs><g transform="translate(-4228.492 23.863)"><g transform="translate(0 29.137)"><path class="a" d="M45.834,41.633h4.583a.84.84,0,0,0,.833-.417,2.5,2.5,0,0,0,.278-1.389,1.847,1.847,0,0,0-.417-1.111.764.764,0,0,0-.694-.417H41.112A2.616,2.616,0,0,0,40,38.578a3.792,3.792,0,0,0-1.25,1.667,6.945,6.945,0,0,0,0,5.278c0,.139.139.278,0,.417a6.908,6.908,0,0,0-.139,5,4.9,4.9,0,0,0,1.111,1.806,1.783,1.783,0,0,0,1.389.556H50a2.089,2.089,0,0,0,1.528-.556c.278-.278.417-.556.694-.833a6.66,6.66,0,0,0,.694-2.361v-.972c0-.278.139-.417.278-.694a.722.722,0,0,1,.556-.278.722.722,0,0,0,.556-.278,1.053,1.053,0,0,0,.278-.556,2.367,2.367,0,0,0,0-1.389c0-.278-.139-.417-.278-.694a.618.618,0,0,0-.833-.278,1.715,1.715,0,0,0-1.111.556,4.9,4.9,0,0,0-1.111,1.806,5.757,5.757,0,0,0-.278,2.222,1.761,1.761,0,0,1-.139.833.764.764,0,0,1-.694.417H41.251a.764.764,0,0,1-.694-.417,1.911,1.911,0,0,1-.139-1.528.762.762,0,0,1,.833-.556H48.89c.139,0,.417,0,.417-.139.139-.139.139-.278.278-.417a2.708,2.708,0,0,0,0-2.083,1.044,1.044,0,0,0-.972-.694h-7.5c-.417,0-.556-.139-.833-.556a1.5,1.5,0,0,1,0-1.528.938.938,0,0,1,.833-.556C42.779,41.633,44.307,41.633,45.834,41.633Z" transform="translate(-38.211 -38.092)"/><path class="a" d="M86.236,47.428a2.421,2.421,0,0,0,1.667-.833,3.481,3.481,0,0,0,.556-.972,7.284,7.284,0,0,0,.139-5.139,5.63,5.63,0,0,0-.694-1.25A2.24,2.24,0,0,0,86.1,38.4H74.292a.722.722,0,0,0-.556.278c-.139.139-.139.278-.278.278a2.373,2.373,0,0,0,0,1.944.859.859,0,0,0,1.111.694H86.514a.51.51,0,0,1,.417.139c.139.139.139.278.278.417a1.927,1.927,0,0,1,0,1.25c-.139.556-.417.694-.972.694H75.681a1.489,1.489,0,0,0-.833.278,3.024,3.024,0,0,0-.972,1.25,5.636,5.636,0,0,0-.556,2.639v3.611a1.261,1.261,0,0,0,.417.972.671.671,0,0,0,.972,0c.139-.139.278-.417.417-.556a1.762,1.762,0,0,0,.139-.833V48.539a1.172,1.172,0,0,1,.278-.972.722.722,0,0,1,.556-.278h3.889a4.075,4.075,0,0,1,2.222.556A10.609,10.609,0,0,1,85.4,50.205c.833.833,1.528,1.667,2.222,2.5l.278.278a.631.631,0,0,0,.694,0,.744.744,0,0,0,.417-.556,2.139,2.139,0,0,0-.278-2.222l-1.667-2.083C86.791,47.844,86.514,47.705,86.236,47.428Z" transform="translate(-24.586 -38.053)"/><path class="a" d="M138.807,53.222h5.972a.84.84,0,0,0,.833-.417.51.51,0,0,0,.139-.417,2.367,2.367,0,0,0,0-1.389.764.764,0,0,0-.417-.694.722.722,0,0,0-.556-.278h-11.25A1.743,1.743,0,0,1,132,49.194a4.159,4.159,0,0,1-.556-1.389,9.178,9.178,0,0,1,0-3.889,3.083,3.083,0,0,1,.694-1.528,2.491,2.491,0,0,1,.972-.694h11.944c.139,0,.278-.139.417-.139.139-.139.139-.278.278-.417a2.708,2.708,0,0,0,0-2.083.93.93,0,0,0-.972-.556H133.252a1.783,1.783,0,0,0-1.389.556,6.042,6.042,0,0,0-.833.972,6.887,6.887,0,0,0-1.111,2.778,10.888,10.888,0,0,0-.278,4.722,16.962,16.962,0,0,0,.833,3.611,3.541,3.541,0,0,0,1.111,1.667,1.869,1.869,0,0,0,1.667.694A36.309,36.309,0,0,1,138.807,53.222Z" transform="translate(-2.714 -38.014)"/><path class="a" d="M61.483,47.467H72.594a2.23,2.23,0,0,0,1.528-.694,3.28,3.28,0,0,0,.833-1.25,6.908,6.908,0,0,0,.139-5,2.882,2.882,0,0,0-.833-1.389,2.063,2.063,0,0,0-1.806-.833H60.65a1.048,1.048,0,0,0-.972.556,2.575,2.575,0,0,0-.278.972v1.806H72.455a.764.764,0,0,1,.694.417,1.771,1.771,0,0,1,0,1.667.764.764,0,0,1-.694.417H59.4v7.639a1.847,1.847,0,0,0,.417,1.111.65.65,0,0,0,1.111,0,1.053,1.053,0,0,0,.278-.556,1.762,1.762,0,0,0,.139-.833v-3.75C61.483,47.744,61.483,47.605,61.483,47.467Z" transform="translate(-29.972 -38.092)"/><path class="a" d="M117.483,45.794h12.778a.84.84,0,0,0,.833-.417,1.67,1.67,0,0,0,.278-1.111,3.317,3.317,0,0,0-.278-1.25.84.84,0,0,0-.833-.417H116.233c-.417.139-.694.278-.694.694a6.015,6.015,0,0,1-.139.694v3.194a6.218,6.218,0,0,0,.556,2.778,4.873,4.873,0,0,0,.694,1.111,1.7,1.7,0,0,0,1.25.556h12.639a.84.84,0,0,0,.833-.417,2.382,2.382,0,0,0,0-2.361.84.84,0,0,0-.833-.417h-12.5c-.417,0-.556-.139-.694-.556V46.072C117.483,45.933,117.483,45.933,117.483,45.794Z" transform="translate(-8.195 -36.42)"/><path class="a" d="M109.433,53.28h4.444a2.363,2.363,0,0,0,.972-.139,1.422,1.422,0,0,0,.833-.694,7.044,7.044,0,0,0,1.25-2.222,11.932,11.932,0,0,0,.694-4.444v-6.25a1.048,1.048,0,0,0-.556-.972c-.278-.278-.694-.278-.833,0a1.917,1.917,0,0,0-.417.556,2.364,2.364,0,0,0-.139.972v5.833a5.7,5.7,0,0,1-.139,1.528,6.875,6.875,0,0,1-.556,1.806,1.98,1.98,0,0,1-1.667.833h-8.055a2.23,2.23,0,0,1-1.528-.694,2.925,2.925,0,0,1-.694-1.806,1.041,1.041,0,0,0-.139-.694c0-.278-.139-.417-.417-.694a.521.521,0,0,0-.833,0,3.036,3.036,0,0,0-.417.694,2.364,2.364,0,0,0-.139.972,12.156,12.156,0,0,0,.278,2.222,7.369,7.369,0,0,0,1.111,2.361,2.7,2.7,0,0,0,2.222,1.111A28.566,28.566,0,0,1,109.433,53.28Z" transform="translate(-13.756 -38.072)"/><path class="a" d="M87.1,44.6c0,.417.139.694.139,1.111a7.886,7.886,0,0,0,.972,3.056,6.166,6.166,0,0,0,1.111,1.528,2.5,2.5,0,0,0,1.25.556h9.167a1.783,1.783,0,0,0,1.389-.556,4.79,4.79,0,0,0,1.25-1.667,10.115,10.115,0,0,0,.972-3.333,1.252,1.252,0,0,1,.139-.694h-1.944v.278a4.076,4.076,0,0,1-.417,1.389,1.966,1.966,0,0,1-1.944,1.25H91.128a1.354,1.354,0,0,1-1.25-.556,4.693,4.693,0,0,1-.833-1.667c0-.139-.139-.417-.139-.556A7.92,7.92,0,0,0,87.1,44.6Z" transform="translate(-19.2 -35.642)"/><path class="a" d="M88.867,44.55a.835.835,0,0,1,.139-.556,4.3,4.3,0,0,1,.833-1.806,1.715,1.715,0,0,1,1.111-.556h8.472a1.76,1.76,0,0,1,1.25.556,4.3,4.3,0,0,1,.833,1.806.835.835,0,0,0,.139.556h1.944v-.278a11.136,11.136,0,0,0-.694-2.917,15.18,15.18,0,0,0-1.111-2.083,2.653,2.653,0,0,0-1.944-.972H90.95a2.089,2.089,0,0,0-1.528.556,7.633,7.633,0,0,0-.972,1.25,6.656,6.656,0,0,0-.972,2.778c-.139.556-.139,1.111-.278,1.528A6.226,6.226,0,0,0,88.867,44.55Z" transform="translate(-19.161 -38.092)"/><path class="a" d="M123.623,41.633h6.944a.925.925,0,0,0,.972-.694,2.759,2.759,0,0,0,.139-1.528c0-.278-.139-.417-.278-.694a.84.84,0,0,0-.833-.417H116.54a1.2,1.2,0,0,0-.833.417c-.139.139-.139.278-.278.417a2.853,2.853,0,0,0,0,1.528.982.982,0,0,0,.833.833h.278C119.04,41.633,121.4,41.633,123.623,41.633Z" transform="translate(-8.224 -38.092)"/><path class="b" d="M159.265,41.256a.84.84,0,0,1-.833.417H152.6v9.722a2.363,2.363,0,0,1-.139.972c-.139.139-.139.417-.278.556a.65.65,0,0,1-1.111,0c-.278-.278-.278-.556-.417-.972V41.533H144.96a1.048,1.048,0,0,1-.972-.556,2.131,2.131,0,0,1,0-2.222c.139-.417.417-.556.972-.556h13.611a.93.93,0,0,1,.972.556A4.428,4.428,0,0,1,159.265,41.256Z" transform="translate(2.8 -38.131)"/><path class="b" d="M45.79,41.672H41.207a.762.762,0,0,0-.833.556,1.5,1.5,0,0,0,0,1.528.938.938,0,0,0,.833.556h7.5c.556,0,.833.139.972.694a2.708,2.708,0,0,1,0,2.083c0,.139-.139.278-.278.417a.51.51,0,0,1-.417.139H41.346a.762.762,0,0,0-.833.556,1.968,1.968,0,0,0,.139,1.528.764.764,0,0,0,.694.417h8.889a.764.764,0,0,0,.694-.417,1.762,1.762,0,0,0,.139-.833,12.156,12.156,0,0,1,.278-2.222,4.9,4.9,0,0,1,1.111-1.806,1.715,1.715,0,0,1,1.111-.556,1.02,1.02,0,0,1,.833.278,1.061,1.061,0,0,1,.278.694,2.367,2.367,0,0,1,0,1.389c-.139.139-.139.417-.278.556a.722.722,0,0,1-.556.278.722.722,0,0,0-.556.278c-.139.278-.278.417-.278.694v.972a4.682,4.682,0,0,1-.694,2.361,3.682,3.682,0,0,1-.694.833A2.089,2.089,0,0,1,50.1,53.2H41.207a1.783,1.783,0,0,1-1.389-.556,4.9,4.9,0,0,1-1.111-1.806,7.717,7.717,0,0,1,.139-5v-.417a6.946,6.946,0,0,1,0-5.278,3.792,3.792,0,0,1,1.25-1.667,1.5,1.5,0,0,1,1.111-.278h9.305a.764.764,0,0,1,.694.417c.278.278.278.694.417,1.111a2.284,2.284,0,0,1-.278,1.389.674.674,0,0,1-.833.417C48.846,41.672,47.318,41.672,45.79,41.672Z" transform="translate(-38.167 -38.131)"/><path class="b" d="M86.314,47.428a2.438,2.438,0,0,1,.556.694l1.667,2.083a2.175,2.175,0,0,1,.278,2.222,1.917,1.917,0,0,1-.417.556.62.62,0,0,1-.694,0l-.278-.278c-.694-.833-1.528-1.667-2.222-2.5a10.609,10.609,0,0,0-3.194-2.361,5.823,5.823,0,0,0-2.222-.556H75.9a.722.722,0,0,0-.556.278,2.575,2.575,0,0,0-.278.972v2.917a1.762,1.762,0,0,1-.139.833c-.139.139-.139.417-.417.556a.671.671,0,0,1-.972,0,1.5,1.5,0,0,1-.417-.972V48.261a5.636,5.636,0,0,1,.556-2.639,3.024,3.024,0,0,1,.972-1.25,1.974,1.974,0,0,1,.833-.278H86.036c.556,0,.833-.139.972-.694a1.927,1.927,0,0,0,0-1.25c0-.139-.139-.278-.278-.417a.51.51,0,0,0-.417-.139H74.369a1.237,1.237,0,0,1-1.111-.694,2.373,2.373,0,0,1,0-1.944.3.3,0,0,1,.278-.278,1.053,1.053,0,0,1,.556-.278H85.9a2.445,2.445,0,0,1,1.806.833,5.63,5.63,0,0,1,.694,1.25,7.284,7.284,0,0,1-.139,5.139,6.039,6.039,0,0,1-.556.972A1.327,1.327,0,0,1,86.314,47.428Z" transform="translate(-24.664 -38.053)"/><path class="b" d="M138.86,53.3h-5.833a2.3,2.3,0,0,1-1.667-.694,11.588,11.588,0,0,1-1.111-1.667,15.218,15.218,0,0,1-.833-3.611,18.009,18.009,0,0,1,.278-4.722,9.7,9.7,0,0,1,1.111-2.778c.278-.278.556-.694.833-.972a2.468,2.468,0,0,1,1.389-.556h11.528c.556,0,.833.139.972.556a2.709,2.709,0,0,1,0,2.083c0,.139-.139.278-.278.417a.51.51,0,0,1-.417.139H132.887a1.607,1.607,0,0,0-.972.694,3.083,3.083,0,0,0-.694,1.528,9.179,9.179,0,0,0,0,3.889,4.16,4.16,0,0,0,.556,1.389,1.743,1.743,0,0,0,1.528.833h11.25a.722.722,0,0,1,.556.278c.139.278.278.417.417.694a2.367,2.367,0,0,1,0,1.389c0,.139-.139.278-.139.417a.84.84,0,0,1-.833.417A36.34,36.34,0,0,1,138.86,53.3Z" transform="translate(-2.766 -38.092)"/><path class="b" d="M61.444,47.467v4.028a1.761,1.761,0,0,1-.139.833,1.053,1.053,0,0,1-.278.556.65.65,0,0,1-1.111,0,1.577,1.577,0,0,1-.417-1.111V44.133H72.555a.642.642,0,0,0,.694-.417,1.771,1.771,0,0,0,0-1.667.764.764,0,0,0-.694-.417H59.5V39.828a2.007,2.007,0,0,1,.278-.972c.139-.417.417-.556.972-.556H72.555a2.445,2.445,0,0,1,1.806.833,4.622,4.622,0,0,1,.833,1.389,6.908,6.908,0,0,1-.139,5,2.022,2.022,0,0,1-.833,1.25,1.99,1.99,0,0,1-1.528.694Z" transform="translate(-29.933 -38.092)"/><path class="b" d="M117.444,45.833v1.944c.139.417.278.556.694.556h12.5a.84.84,0,0,1,.833.417,2.382,2.382,0,0,1,0,2.361.84.84,0,0,1-.833.417H118a1.76,1.76,0,0,1-1.25-.556,3.024,3.024,0,0,1-.694-1.111,6.218,6.218,0,0,1-.556-2.778V43.889a1.041,1.041,0,0,1,.139-.694.892.892,0,0,1,.694-.694h14.028a.99.99,0,0,1,.833.417,2.064,2.064,0,0,1,.278,1.25,2.616,2.616,0,0,1-.278,1.111.84.84,0,0,1-.833.417h-12.5C117.583,45.833,117.583,45.833,117.444,45.833Z" transform="translate(-8.156 -36.458)"/><path class="b" d="M109.317,53.358h-4.305a2.7,2.7,0,0,1-2.222-1.111,5.285,5.285,0,0,1-1.111-2.361,6.116,6.116,0,0,1-.278-2.222,2.364,2.364,0,0,1,.139-.972c.139-.278.278-.417.417-.694a.521.521,0,0,1,.833,0,3.036,3.036,0,0,1,.417.694,6.015,6.015,0,0,0,.139.694,2.925,2.925,0,0,0,.694,1.806,1.99,1.99,0,0,0,1.528.694h8.055a1.98,1.98,0,0,0,1.667-.833,2.791,2.791,0,0,0,.556-1.806c0-.556.139-.972.139-1.528V39.886a2.059,2.059,0,0,1,.139-.972c.139-.139.278-.417.417-.556a.521.521,0,0,1,.833,0,2.239,2.239,0,0,1,.556.972v6.25a16.459,16.459,0,0,1-.694,4.444,7.043,7.043,0,0,1-1.25,2.222,3.682,3.682,0,0,1-.833.694,2.364,2.364,0,0,1-.972.139h-3.889A2.4,2.4,0,0,1,109.317,53.358Z" transform="translate(-13.639 -38.15)"/><path class="b" d="M87.1,44.639h1.944a.835.835,0,0,0,.139.556,3.168,3.168,0,0,0,.833,1.667,1.354,1.354,0,0,0,1.25.556h8.055a1.966,1.966,0,0,0,1.944-1.25,2.68,2.68,0,0,0,.417-1.389V44.5h1.944a1.252,1.252,0,0,1-.139.694,10.115,10.115,0,0,1-.972,3.333,3.792,3.792,0,0,1-1.25,1.667,2.468,2.468,0,0,1-1.389.556H90.711a1.354,1.354,0,0,1-1.25-.556,3.939,3.939,0,0,1-1.111-1.528,8.7,8.7,0,0,1-.972-3.056A1.172,1.172,0,0,1,87.1,44.639Z" transform="translate(-19.2 -35.681)"/><path class="b" d="M88.944,44.511H87c.139-.556.139-1.111.278-1.528a9.428,9.428,0,0,1,.972-2.778,4.325,4.325,0,0,1,.972-1.25A2.089,2.089,0,0,1,90.75,38.4h8.889a2.252,2.252,0,0,1,1.944.972,5.009,5.009,0,0,1,1.111,2.083,11.135,11.135,0,0,1,.694,2.917v.278h-1.944a.835.835,0,0,0-.139-.556,4.3,4.3,0,0,0-.833-1.806,1.354,1.354,0,0,0-1.25-.556H90.75a1.263,1.263,0,0,0-1.111.556,4.3,4.3,0,0,0-.833,1.806C89.083,44.094,89.083,44.372,88.944,44.511Z" transform="translate(-19.239 -38.053)"/><path class="b" d="M123.585,41.594h-7.222a.722.722,0,0,1-.556-.278,1.053,1.053,0,0,1-.278-.556,2.853,2.853,0,0,1,0-1.528c0-.139.139-.278.278-.417a.84.84,0,0,1,.833-.417h14.028a.84.84,0,0,1,.833.417c.139.139.139.417.278.694a1.968,1.968,0,0,1-.139,1.528,1.044,1.044,0,0,1-.972.694C128.307,41.594,125.946,41.594,123.585,41.594Z" transform="translate(-8.185 -38.053)"/></g><g transform="translate(0.213)"><path class="a" d="M64.314,26.867h0a1.76,1.76,0,0,0,1.25-.556,3.087,3.087,0,0,0,1.111-1.806,6.839,6.839,0,0,0,.278-3.333,6.137,6.137,0,0,0-.833-2.222A2.5,2.5,0,0,0,63.9,17.7H52.092a.722.722,0,0,0-.556.278c-.139.139-.278.278-.278.417a2.06,2.06,0,0,0,0,1.806c.278.556.417.694,1.111.694H64.314a.51.51,0,0,1,.417.139c.139.139.278.278.278.417a1.534,1.534,0,0,1,0,1.111c-.139.556-.417.694-.972.694H53.758a1.99,1.99,0,0,0-1.528.694,3.481,3.481,0,0,0-.556.972,7.864,7.864,0,0,0-.417,2.5v3.889a1.2,1.2,0,0,0,.417.833c.278.278.694.417.972,0a.722.722,0,0,0,.278-.556,1.762,1.762,0,0,0,.139-.833V27.839a1.02,1.02,0,0,1,.278-.833c.139-.278.278-.417.556-.417h3.611a6.452,6.452,0,0,1,3.194.833,11.974,11.974,0,0,1,2.5,1.944c.694.833,1.389,1.667,2.222,2.5l.278.278a.885.885,0,0,0,.833,0c.278-.139.278-.417.417-.694a2.5,2.5,0,0,0-.278-2.222c-.417-.556-.972-1.25-1.389-1.806C65.008,27.561,64.591,27.144,64.314,26.867Z" transform="translate(-33.432 -16.966)"/><path class="a" d="M74,32.778h6.111a.555.555,0,0,0,.556-.278c.139-.139.278-.278.278-.417a2.708,2.708,0,0,0,0-2.083,1.044,1.044,0,0,0-.972-.694H68.857a1.743,1.743,0,0,1-1.528-.833,2.912,2.912,0,0,1-.556-1.528,7.928,7.928,0,0,1,0-3.611,3.565,3.565,0,0,1,.694-1.667A1.743,1.743,0,0,1,69,20.833H80.107a.93.93,0,0,0,.972-.556,2.708,2.708,0,0,0,0-2.083,1.044,1.044,0,0,0-.972-.694H68.579a2.089,2.089,0,0,0-1.528.556,3.939,3.939,0,0,0-1.111,1.528,10.272,10.272,0,0,0-1.111,4.028,10.26,10.26,0,0,0,0,2.917,9.963,9.963,0,0,0,.694,2.917,8.855,8.855,0,0,0,1.111,1.944,2.063,2.063,0,0,0,1.806.833A23.555,23.555,0,0,0,74,32.778Z" transform="translate(-28.115 -17.043)"/><path class="a" d="M80.883,23.553V19.108a1.261,1.261,0,0,0-.417-.972c-.278-.417-.694-.417-1.111,0-.139.139-.278.417-.417.556a1.761,1.761,0,0,0-.139.833V31.33a1.577,1.577,0,0,0,.417,1.111c.278.278.694.417.972,0,.139-.139.278-.417.417-.556a2.363,2.363,0,0,0,.139-.972V26.886H92.689V31.33a1.261,1.261,0,0,0,.417.972.671.671,0,0,0,.972,0,1.917,1.917,0,0,0,.417-.556,1.762,1.762,0,0,0,.139-.833V18.969a1.577,1.577,0,0,0-.417-1.111.671.671,0,0,0-.972,0c-.139.278-.278.417-.278.694a2.059,2.059,0,0,0-.139.972v4.028Z" transform="translate(-22.641 -16.985)"/><path class="a" d="M45.219,26.264a2.712,2.712,0,0,0-.139-.972c-.139-.278-.278-.694-.556-.833a.84.84,0,0,0-1.111,0,2.906,2.906,0,0,0-.556.833,3.067,3.067,0,0,0,0,2.222,2.906,2.906,0,0,0,.556.833.845.845,0,0,0,1.111,0,1.917,1.917,0,0,0,.417-.556A4.993,4.993,0,0,0,45.219,26.264Z" transform="translate(-36.699 -14.419)"/><path class="b" d="M38.414,30.822a8.5,8.5,0,0,1,.694-1.667c1.528-3.333,2.917-6.805,4.444-10.139a4.988,4.988,0,0,1,.972-1.389,1.766,1.766,0,0,1,2.5.139,7.7,7.7,0,0,1,.833,1.111c1.667,3.611,3.194,7.222,4.861,10.972.139.278.139.417.278.694a2.84,2.84,0,0,1,0,1.528,1.917,1.917,0,0,1-.417.556.627.627,0,0,1-.833,0c-.139-.139-.278-.278-.278-.417-.833-1.944-4.861-10.972-5-11.111a.136.136,0,0,0-.139-.139c-.278-.278-.417-.278-.694,0-.139.278-3.611,7.778-5.139,11.25-.139.139-.139.278-.278.417a.65.65,0,0,1-1.111,0A1.732,1.732,0,0,1,38.414,30.822Z" transform="translate(-38.365 -17.171)"/><path class="b" d="M64.353,26.75a6.042,6.042,0,0,0,.833.972,20.414,20.414,0,0,1,1.389,1.806,2.139,2.139,0,0,1,.278,2.222,1.85,1.85,0,0,1-.417.694.885.885,0,0,1-.833,0l-.278-.278c-.694-.833-1.389-1.667-2.222-2.5a8.649,8.649,0,0,0-2.5-1.944,6.452,6.452,0,0,0-3.194-.833H53.8c-.278,0-.417.139-.556.417a1.974,1.974,0,0,0-.278.833v2.917a1.762,1.762,0,0,1-.139.833c-.139.139-.139.417-.278.556a.671.671,0,0,1-.972,0c-.278-.278-.278-.556-.417-.833V27.722a7.865,7.865,0,0,1,.417-2.5,2.28,2.28,0,0,1,2.083-1.667H63.936c.556,0,.833-.139.972-.694a1.534,1.534,0,0,0,0-1.111c0-.139-.139-.278-.278-.417a.51.51,0,0,0-.417-.139H52.269c-.694,0-.833-.139-1.111-.694a2.06,2.06,0,0,1,0-1.806c0-.139.139-.278.278-.417A.722.722,0,0,1,51.992,18H63.8a2.5,2.5,0,0,1,2.222,1.25,6.136,6.136,0,0,1,.833,2.222,6.7,6.7,0,0,1-.278,3.333,3.988,3.988,0,0,1-1.111,1.806c-.139-.139-.556,0-1.111.139Z" transform="translate(-33.471 -16.849)"/><path class="b" d="M74.035,32.622H68.34a2.445,2.445,0,0,1-1.806-.833,5.45,5.45,0,0,1-1.111-1.944,11.136,11.136,0,0,1-.694-2.917,10.26,10.26,0,0,1,0-2.917,10.272,10.272,0,0,1,1.111-4.028,6.167,6.167,0,0,1,1.111-1.528,2.089,2.089,0,0,1,1.528-.556H80.007c.556,0,.833.139.972.694a2.708,2.708,0,0,1,0,2.083.93.93,0,0,1-.972.556H68.9a1.743,1.743,0,0,0-1.528.833,4.278,4.278,0,0,0-.694,1.667,15.7,15.7,0,0,0,0,3.611,6.77,6.77,0,0,0,.556,1.528,1.743,1.743,0,0,0,1.528.833H79.868a.925.925,0,0,1,.972.694,2.708,2.708,0,0,1,0,2.083c0,.139-.139.278-.278.417a.722.722,0,0,1-.556.278h-.694A16.66,16.66,0,0,0,74.035,32.622Z" transform="translate(-28.154 -16.888)"/><path class="b" d="M80.806,23.514H92.75V19.486a2.364,2.364,0,0,1,.139-.972c.139-.278.139-.417.417-.556a.671.671,0,0,1,.972,0,1.577,1.577,0,0,1,.417,1.111V30.6c0,.833,0,1.528-.417,1.944a.671.671,0,0,1-.972,0,1.5,1.5,0,0,1-.417-.972V27.125c-.139,0-11.528-.139-11.944,0v4.028a2.363,2.363,0,0,1-.139.972c-.139.139-.139.417-.417.556a.671.671,0,0,1-.972,0A1.577,1.577,0,0,1,79,31.569V19.764a1.761,1.761,0,0,1,.139-.833c.139-.278.139-.417.417-.556a.84.84,0,0,1,1.111,0,1.261,1.261,0,0,1,.417.972v4.167C80.806,23.236,80.806,23.375,80.806,23.514Z" transform="translate(-22.564 -16.946)"/><path class="b" d="M45.219,26.264a4.287,4.287,0,0,1-.278,1.528c-.139.139-.278.417-.417.556a.845.845,0,0,1-1.111,0,2.906,2.906,0,0,1-.556-.833,3.067,3.067,0,0,1,0-2.222,2.906,2.906,0,0,1,.556-.833.84.84,0,0,1,1.111,0,2.906,2.906,0,0,1,.556.833A2.712,2.712,0,0,1,45.219,26.264Z" transform="translate(-36.699 -14.419)"/><path class="b" d="M94.806,26.811c-.139-.278-.278-.417-.417-.694a.909.909,0,0,0-1.528,0,3.036,3.036,0,0,0-.417.694,3.82,3.82,0,0,0,0,2.222c.139.278.278.417.417.694a.909.909,0,0,0,1.528,0,3.036,3.036,0,0,0,.417-.694A3.9,3.9,0,0,0,94.806,26.811Z" transform="translate(-17.398 -13.855)"/></g></g></svg>