<svg xmlns="http://www.w3.org/2000/svg" viewBox="-1726 234 22 28"><defs><style>.a{fill:#800;}.b{fill:#fff;}</style></defs><g transform="translate(-1726 234)"><path class="a" d="M675.145,150.626H669.7V145.1Z" transform="translate(-653.807 -145.1)"/><path class="a" d="M670.1,172.684a.424.424,0,0,1-.441.442H648.542a.475.475,0,0,1-.441-.442V145.642a.424.424,0,0,1,.441-.442h13.1v7.958a.424.424,0,0,0,.441.442h8.02v19.084Z" transform="translate(-648.1 -145.126)"/><g transform="translate(5.077 13.926)"><path class="b" d="M655,164h1.251a2.331,2.331,0,0,1,2.5,2.653h0a2.434,2.434,0,0,1-2.355,2.726h0v2.432H655Zm1.4,4.126c.589,0,1.03-.442,1.03-1.4h0c0-1.032-.368-1.4-.956-1.4H656.4v2.8Z" transform="translate(-655 -164)"/><path class="b" d="M661,164h1.251c1.766,0,2.722,1.253,2.722,3.758v.295c0,2.505-1.03,3.758-2.722,3.758H661Zm1.472,6.558c.662,0,1.177-.589,1.177-2.505v-.295c0-1.989-.589-2.505-1.177-2.505H662.4l.074,5.305Z" transform="translate(-656.585 -164)"/><path class="b" d="M667.6,164h2.869v1.326H669v1.989h1.324v1.326H669v3.242h-1.4Z" transform="translate(-658.329 -164)"/></g></g></svg>