<svg xmlns="http://www.w3.org/2000/svg" viewBox="7825 355.722 17.326 21.918"><defs><style>.a{fill:#fff;}</style></defs><g transform="translate(7825 355.722)"><path class="a" d="M41.732,26.045H37.4V21.8Z" transform="translate(-24.925 -21.8)"/><path class="a" d="M40.24,43.371a.373.373,0,0,1-.347.347H23.347A.373.373,0,0,1,23,43.371V22.147a.373.373,0,0,1,.347-.347H33.656v6.237a.373.373,0,0,0,.347.347h6.324L40.24,43.371Z" transform="translate(-23 -21.8)"/><g transform="translate(3.985 10.829)"><path d="M27.6,34.3h.953a1.847,1.847,0,0,1,1.993,2.079h0a1.944,1.944,0,0,1-1.906,2.166h0v1.906H27.6V34.3Zm1.126,3.292c.433,0,.78-.347.78-1.126h0c0-.78-.26-1.126-.78-1.126h0v2.252Z" transform="translate(-27.6 -34.3)"/><path d="M31.6,34.3h1.04c1.386,0,2.166.953,2.166,2.945v.26c0,1.993-.78,2.945-2.166,2.945H31.6V34.3Zm1.126,5.2c.52,0,.953-.433.953-1.993v-.173c0-1.559-.433-1.993-.953-1.993H32.64l.087,4.158Z" transform="translate(-28.135 -34.3)"/><path d="M36,34.3h2.252v1.04H37.04V36.9h1.04v1.04H37.04v2.6H36Z" transform="translate(-28.723 -34.3)"/></g></g></svg>