<svg xmlns="http://www.w3.org/2000/svg" viewBox="4934.999 845 55.833 55.833"><defs><style>.a{fill:#fff;}</style></defs><g transform="translate(3869)"><g transform="translate(1066 845)"><path class="a" d="M570.517,610.783a25.833,25.833,0,1,1-25.833,25.833,25.873,25.873,0,0,1,25.833-25.833m0-2.083a27.917,27.917,0,1,0,27.917,27.917A27.918,27.918,0,0,0,570.517,608.7Z" transform="translate(-542.6 -608.7)"/></g><g transform="translate(1084.004 860.223)"><g transform="translate(-0.056 -0.004)"><path class="a" d="M8.327,16.882c-.2.794-.428,1.528-.57,2.281A14.58,14.58,0,0,1,4.9,25.315c-.122.163-.2.468-.489.387s-.2-.387-.224-.591A16.785,16.785,0,0,1,4.7,18.145c.53-1.955.937-3.951,1.426-5.947a1,1,0,0,0-.041-.55,5.4,5.4,0,0,1-.02-3.911A3,3,0,0,1,7.634,5.965a2,2,0,0,1,2.974,1.813,6.828,6.828,0,0,1-.387,2.3c-.285,1.039-.652,2.037-.9,3.1a2.2,2.2,0,0,0,1.629,2.77,2.731,2.731,0,0,0,1.344,0,3.794,3.794,0,0,0,2.261-1.609,8.973,8.973,0,0,0,1.507-3.809,9.421,9.421,0,0,0,.081-3.463,5,5,0,0,0-3.829-4.175A7.4,7.4,0,0,0,5.557,4.111,6.625,6.625,0,0,0,2.95,9.122a4.566,4.566,0,0,0,.55,2.831,4.448,4.448,0,0,0,.448.631.769.769,0,0,1,.163.754c-.1.387-.183.774-.306,1.161-.122.448-.407.611-.835.407A4.493,4.493,0,0,1,.526,12.32a8.1,8.1,0,0,1,.306-6.7A9.666,9.666,0,0,1,7.9.282a10.942,10.942,0,0,1,6.7.53,8.337,8.337,0,0,1,5.235,6.5,10.651,10.651,0,0,1-.143,3.768,10.148,10.148,0,0,1-2.22,4.949,6.913,6.913,0,0,1-5.744,2.587A4.152,4.152,0,0,1,8.327,16.882Z" transform="translate(0.056 0.004)"/></g></g></g></svg>